G04 #@! TF.GenerationSoftware,KiCad,Pcbnew,(5.1.4)-1*
G04 #@! TF.CreationDate,2019-10-27T13:28:14-04:00*
G04 #@! TF.ProjectId,wiproc,77697072-6f63-42e6-9b69-6361645f7063,rev?*
G04 #@! TF.SameCoordinates,Original*
G04 #@! TF.FileFunction,Legend,Bot*
G04 #@! TF.FilePolarity,Positive*
%FSLAX46Y46*%
G04 Gerber Fmt 4.6, Leading zero omitted, Abs format (unit mm)*
G04 Created by KiCad (PCBNEW (5.1.4)-1) date 2019-10-27 13:28:14*
%MOMM*%
%LPD*%
G04 APERTURE LIST*
%ADD10C,0.150000*%
%ADD11C,0.120000*%
G04 APERTURE END LIST*
D10*
X140785000Y-74832000D02*
X142210000Y-74832000D01*
X133535000Y-74607000D02*
X133860000Y-74607000D01*
X133535000Y-81857000D02*
X133860000Y-81857000D01*
X140785000Y-81857000D02*
X140460000Y-81857000D01*
X140785000Y-74607000D02*
X140460000Y-74607000D01*
X140785000Y-81857000D02*
X140785000Y-81532000D01*
X133535000Y-81857000D02*
X133535000Y-81532000D01*
X133535000Y-74607000D02*
X133535000Y-74932000D01*
X140785000Y-74607000D02*
X140785000Y-74832000D01*
D11*
X133474100Y-89295400D02*
X133474100Y-91745400D01*
X130254100Y-91095400D02*
X130254100Y-89295400D01*
X130401600Y-86658267D02*
X130401600Y-86315733D01*
X131421600Y-86658267D02*
X131421600Y-86315733D01*
X130837400Y-95078733D02*
X130837400Y-95421267D01*
X129817400Y-95078733D02*
X129817400Y-95421267D01*
X141349000Y-95421267D02*
X141349000Y-95078733D01*
X142369000Y-95421267D02*
X142369000Y-95078733D01*
X132374100Y-95078733D02*
X132374100Y-95421267D01*
X131354100Y-95078733D02*
X131354100Y-95421267D01*
X133983000Y-88309267D02*
X133983000Y-87966733D01*
X135003000Y-88309267D02*
X135003000Y-87966733D01*
X151438000Y-111063000D02*
X146758000Y-111063000D01*
X146058000Y-104843000D02*
X147338000Y-104843000D01*
X146058000Y-103243000D02*
X146058000Y-104843000D01*
X145038000Y-103243000D02*
X146058000Y-103243000D01*
X145038000Y-107493000D02*
X145038000Y-103243000D01*
X150858000Y-104843000D02*
X150858000Y-101953000D01*
X152138000Y-104843000D02*
X150858000Y-104843000D01*
X152138000Y-103243000D02*
X152138000Y-104843000D01*
X153158000Y-103243000D02*
X152138000Y-103243000D01*
X153158000Y-107493000D02*
X153158000Y-103243000D01*
X141906900Y-89270000D02*
X141906900Y-91720000D01*
X138686900Y-91070000D02*
X138686900Y-89270000D01*
X136550000Y-101124000D02*
X136550000Y-103574000D01*
X133330000Y-102924000D02*
X133330000Y-101124000D01*
X142260000Y-101081000D02*
X142260000Y-103531000D01*
X139040000Y-102881000D02*
X139040000Y-101081000D01*
X132967000Y-95421267D02*
X132967000Y-95078733D01*
X133987000Y-95421267D02*
X133987000Y-95078733D01*
X140845000Y-95078733D02*
X140845000Y-95421267D01*
X139825000Y-95078733D02*
X139825000Y-95421267D01*
X135059267Y-99697000D02*
X134716733Y-99697000D01*
X135059267Y-98677000D02*
X134716733Y-98677000D01*
X138809000Y-86658267D02*
X138809000Y-86315733D01*
X139829000Y-86658267D02*
X139829000Y-86315733D01*
X139282900Y-95078733D02*
X139282900Y-95421267D01*
X138262900Y-95078733D02*
X138262900Y-95421267D01*
X142365000Y-88309267D02*
X142365000Y-87966733D01*
X143385000Y-88309267D02*
X143385000Y-87966733D01*
X134716733Y-104265000D02*
X135059267Y-104265000D01*
X134716733Y-105285000D02*
X135059267Y-105285000D01*
X132717000Y-101541733D02*
X132717000Y-101884267D01*
X131697000Y-101541733D02*
X131697000Y-101884267D01*
X140901267Y-99697000D02*
X140558733Y-99697000D01*
X140901267Y-98677000D02*
X140558733Y-98677000D01*
X140901267Y-105285000D02*
X140558733Y-105285000D01*
X140901267Y-104265000D02*
X140558733Y-104265000D01*
X129838267Y-79250000D02*
X129495733Y-79250000D01*
X129838267Y-78230000D02*
X129495733Y-78230000D01*
X144227733Y-79119000D02*
X144570267Y-79119000D01*
X144227733Y-80139000D02*
X144570267Y-80139000D01*
X144227733Y-77341000D02*
X144570267Y-77341000D01*
X144227733Y-78361000D02*
X144570267Y-78361000D01*
D10*
X137921904Y-71634380D02*
X137921904Y-72443904D01*
X137874285Y-72539142D01*
X137826666Y-72586761D01*
X137731428Y-72634380D01*
X137540952Y-72634380D01*
X137445714Y-72586761D01*
X137398095Y-72539142D01*
X137350476Y-72443904D01*
X137350476Y-71634380D01*
X136350476Y-72634380D02*
X136921904Y-72634380D01*
X136636190Y-72634380D02*
X136636190Y-71634380D01*
X136731428Y-71777238D01*
X136826666Y-71872476D01*
X136921904Y-71920095D01*
X129793904Y-88606380D02*
X129793904Y-89415904D01*
X129746285Y-89511142D01*
X129698666Y-89558761D01*
X129603428Y-89606380D01*
X129412952Y-89606380D01*
X129317714Y-89558761D01*
X129270095Y-89511142D01*
X129222476Y-89415904D01*
X129222476Y-88606380D01*
X128603428Y-89034952D02*
X128698666Y-88987333D01*
X128746285Y-88939714D01*
X128793904Y-88844476D01*
X128793904Y-88796857D01*
X128746285Y-88701619D01*
X128698666Y-88654000D01*
X128603428Y-88606380D01*
X128412952Y-88606380D01*
X128317714Y-88654000D01*
X128270095Y-88701619D01*
X128222476Y-88796857D01*
X128222476Y-88844476D01*
X128270095Y-88939714D01*
X128317714Y-88987333D01*
X128412952Y-89034952D01*
X128603428Y-89034952D01*
X128698666Y-89082571D01*
X128746285Y-89130190D01*
X128793904Y-89225428D01*
X128793904Y-89415904D01*
X128746285Y-89511142D01*
X128698666Y-89558761D01*
X128603428Y-89606380D01*
X128412952Y-89606380D01*
X128317714Y-89558761D01*
X128270095Y-89511142D01*
X128222476Y-89415904D01*
X128222476Y-89225428D01*
X128270095Y-89130190D01*
X128317714Y-89082571D01*
X128412952Y-89034952D01*
X129166857Y-86844142D02*
X129214476Y-86891761D01*
X129357333Y-86939380D01*
X129452571Y-86939380D01*
X129595428Y-86891761D01*
X129690666Y-86796523D01*
X129738285Y-86701285D01*
X129785904Y-86510809D01*
X129785904Y-86367952D01*
X129738285Y-86177476D01*
X129690666Y-86082238D01*
X129595428Y-85987000D01*
X129452571Y-85939380D01*
X129357333Y-85939380D01*
X129214476Y-85987000D01*
X129166857Y-86034619D01*
X128785904Y-86034619D02*
X128738285Y-85987000D01*
X128643047Y-85939380D01*
X128404952Y-85939380D01*
X128309714Y-85987000D01*
X128262095Y-86034619D01*
X128214476Y-86129857D01*
X128214476Y-86225095D01*
X128262095Y-86367952D01*
X128833523Y-86939380D01*
X128214476Y-86939380D01*
X127881142Y-85939380D02*
X127262095Y-85939380D01*
X127595428Y-86320333D01*
X127452571Y-86320333D01*
X127357333Y-86367952D01*
X127309714Y-86415571D01*
X127262095Y-86510809D01*
X127262095Y-86748904D01*
X127309714Y-86844142D01*
X127357333Y-86891761D01*
X127452571Y-86939380D01*
X127738285Y-86939380D01*
X127833523Y-86891761D01*
X127881142Y-86844142D01*
X128785857Y-94845142D02*
X128833476Y-94892761D01*
X128976333Y-94940380D01*
X129071571Y-94940380D01*
X129214428Y-94892761D01*
X129309666Y-94797523D01*
X129357285Y-94702285D01*
X129404904Y-94511809D01*
X129404904Y-94368952D01*
X129357285Y-94178476D01*
X129309666Y-94083238D01*
X129214428Y-93988000D01*
X129071571Y-93940380D01*
X128976333Y-93940380D01*
X128833476Y-93988000D01*
X128785857Y-94035619D01*
X128404904Y-94035619D02*
X128357285Y-93988000D01*
X128262047Y-93940380D01*
X128023952Y-93940380D01*
X127928714Y-93988000D01*
X127881095Y-94035619D01*
X127833476Y-94130857D01*
X127833476Y-94226095D01*
X127881095Y-94368952D01*
X128452523Y-94940380D01*
X127833476Y-94940380D01*
X127452523Y-94035619D02*
X127404904Y-93988000D01*
X127309666Y-93940380D01*
X127071571Y-93940380D01*
X126976333Y-93988000D01*
X126928714Y-94035619D01*
X126881095Y-94130857D01*
X126881095Y-94226095D01*
X126928714Y-94368952D01*
X127500142Y-94940380D01*
X126881095Y-94940380D01*
X144787857Y-94178380D02*
X145121190Y-93702190D01*
X145359285Y-94178380D02*
X145359285Y-93178380D01*
X144978333Y-93178380D01*
X144883095Y-93226000D01*
X144835476Y-93273619D01*
X144787857Y-93368857D01*
X144787857Y-93511714D01*
X144835476Y-93606952D01*
X144883095Y-93654571D01*
X144978333Y-93702190D01*
X145359285Y-93702190D01*
X143835476Y-94178380D02*
X144406904Y-94178380D01*
X144121190Y-94178380D02*
X144121190Y-93178380D01*
X144216428Y-93321238D01*
X144311666Y-93416476D01*
X144406904Y-93464095D01*
X143359285Y-94178380D02*
X143168809Y-94178380D01*
X143073571Y-94130761D01*
X143025952Y-94083142D01*
X142930714Y-93940285D01*
X142883095Y-93749809D01*
X142883095Y-93368857D01*
X142930714Y-93273619D01*
X142978333Y-93226000D01*
X143073571Y-93178380D01*
X143264047Y-93178380D01*
X143359285Y-93226000D01*
X143406904Y-93273619D01*
X143454523Y-93368857D01*
X143454523Y-93606952D01*
X143406904Y-93702190D01*
X143359285Y-93749809D01*
X143264047Y-93797428D01*
X143073571Y-93797428D01*
X142978333Y-93749809D01*
X142930714Y-93702190D01*
X142883095Y-93606952D01*
X131579857Y-99004380D02*
X131913190Y-98528190D01*
X132151285Y-99004380D02*
X132151285Y-98004380D01*
X131770333Y-98004380D01*
X131675095Y-98052000D01*
X131627476Y-98099619D01*
X131579857Y-98194857D01*
X131579857Y-98337714D01*
X131627476Y-98432952D01*
X131675095Y-98480571D01*
X131770333Y-98528190D01*
X132151285Y-98528190D01*
X131198904Y-98099619D02*
X131151285Y-98052000D01*
X131056047Y-98004380D01*
X130817952Y-98004380D01*
X130722714Y-98052000D01*
X130675095Y-98099619D01*
X130627476Y-98194857D01*
X130627476Y-98290095D01*
X130675095Y-98432952D01*
X131246523Y-99004380D01*
X130627476Y-99004380D01*
X130246523Y-98099619D02*
X130198904Y-98052000D01*
X130103666Y-98004380D01*
X129865571Y-98004380D01*
X129770333Y-98052000D01*
X129722714Y-98099619D01*
X129675095Y-98194857D01*
X129675095Y-98290095D01*
X129722714Y-98432952D01*
X130294142Y-99004380D01*
X129675095Y-99004380D01*
X135008857Y-86082142D02*
X135056476Y-86129761D01*
X135199333Y-86177380D01*
X135294571Y-86177380D01*
X135437428Y-86129761D01*
X135532666Y-86034523D01*
X135580285Y-85939285D01*
X135627904Y-85748809D01*
X135627904Y-85605952D01*
X135580285Y-85415476D01*
X135532666Y-85320238D01*
X135437428Y-85225000D01*
X135294571Y-85177380D01*
X135199333Y-85177380D01*
X135056476Y-85225000D01*
X135008857Y-85272619D01*
X134627904Y-85272619D02*
X134580285Y-85225000D01*
X134485047Y-85177380D01*
X134246952Y-85177380D01*
X134151714Y-85225000D01*
X134104095Y-85272619D01*
X134056476Y-85367857D01*
X134056476Y-85463095D01*
X134104095Y-85605952D01*
X134675523Y-86177380D01*
X134056476Y-86177380D01*
X133104095Y-86177380D02*
X133675523Y-86177380D01*
X133389809Y-86177380D02*
X133389809Y-85177380D01*
X133485047Y-85320238D01*
X133580285Y-85415476D01*
X133675523Y-85463095D01*
X149431333Y-100205380D02*
X149431333Y-100919666D01*
X149478952Y-101062523D01*
X149574190Y-101157761D01*
X149717047Y-101205380D01*
X149812285Y-101205380D01*
X149050380Y-100205380D02*
X148383714Y-100205380D01*
X148812285Y-101205380D01*
X138429904Y-88860380D02*
X138429904Y-89669904D01*
X138382285Y-89765142D01*
X138334666Y-89812761D01*
X138239428Y-89860380D01*
X138048952Y-89860380D01*
X137953714Y-89812761D01*
X137906095Y-89765142D01*
X137858476Y-89669904D01*
X137858476Y-88860380D01*
X137477523Y-88860380D02*
X136810857Y-88860380D01*
X137239428Y-89860380D01*
X138601904Y-101476380D02*
X138601904Y-102285904D01*
X138554285Y-102381142D01*
X138506666Y-102428761D01*
X138411428Y-102476380D01*
X138220952Y-102476380D01*
X138125714Y-102428761D01*
X138078095Y-102381142D01*
X138030476Y-102285904D01*
X138030476Y-101476380D01*
X137125714Y-101476380D02*
X137316190Y-101476380D01*
X137411428Y-101524000D01*
X137459047Y-101571619D01*
X137554285Y-101714476D01*
X137601904Y-101904952D01*
X137601904Y-102285904D01*
X137554285Y-102381142D01*
X137506666Y-102428761D01*
X137411428Y-102476380D01*
X137220952Y-102476380D01*
X137125714Y-102428761D01*
X137078095Y-102381142D01*
X137030476Y-102285904D01*
X137030476Y-102047809D01*
X137078095Y-101952571D01*
X137125714Y-101904952D01*
X137220952Y-101857333D01*
X137411428Y-101857333D01*
X137506666Y-101904952D01*
X137554285Y-101952571D01*
X137601904Y-102047809D01*
X144398904Y-101433380D02*
X144398904Y-102242904D01*
X144351285Y-102338142D01*
X144303666Y-102385761D01*
X144208428Y-102433380D01*
X144017952Y-102433380D01*
X143922714Y-102385761D01*
X143875095Y-102338142D01*
X143827476Y-102242904D01*
X143827476Y-101433380D01*
X142875095Y-101433380D02*
X143351285Y-101433380D01*
X143398904Y-101909571D01*
X143351285Y-101861952D01*
X143256047Y-101814333D01*
X143017952Y-101814333D01*
X142922714Y-101861952D01*
X142875095Y-101909571D01*
X142827476Y-102004809D01*
X142827476Y-102242904D01*
X142875095Y-102338142D01*
X142922714Y-102385761D01*
X143017952Y-102433380D01*
X143256047Y-102433380D01*
X143351285Y-102385761D01*
X143398904Y-102338142D01*
X135389857Y-93289380D02*
X135723190Y-92813190D01*
X135961285Y-93289380D02*
X135961285Y-92289380D01*
X135580333Y-92289380D01*
X135485095Y-92337000D01*
X135437476Y-92384619D01*
X135389857Y-92479857D01*
X135389857Y-92622714D01*
X135437476Y-92717952D01*
X135485095Y-92765571D01*
X135580333Y-92813190D01*
X135961285Y-92813190D01*
X135008904Y-92384619D02*
X134961285Y-92337000D01*
X134866047Y-92289380D01*
X134627952Y-92289380D01*
X134532714Y-92337000D01*
X134485095Y-92384619D01*
X134437476Y-92479857D01*
X134437476Y-92575095D01*
X134485095Y-92717952D01*
X135056523Y-93289380D01*
X134437476Y-93289380D01*
X133485095Y-93289380D02*
X134056523Y-93289380D01*
X133770809Y-93289380D02*
X133770809Y-92289380D01*
X133866047Y-92432238D01*
X133961285Y-92527476D01*
X134056523Y-92575095D01*
X142628857Y-93162380D02*
X142962190Y-92686190D01*
X143200285Y-93162380D02*
X143200285Y-92162380D01*
X142819333Y-92162380D01*
X142724095Y-92210000D01*
X142676476Y-92257619D01*
X142628857Y-92352857D01*
X142628857Y-92495714D01*
X142676476Y-92590952D01*
X142724095Y-92638571D01*
X142819333Y-92686190D01*
X143200285Y-92686190D01*
X142247904Y-92257619D02*
X142200285Y-92210000D01*
X142105047Y-92162380D01*
X141866952Y-92162380D01*
X141771714Y-92210000D01*
X141724095Y-92257619D01*
X141676476Y-92352857D01*
X141676476Y-92448095D01*
X141724095Y-92590952D01*
X142295523Y-93162380D01*
X141676476Y-93162380D01*
X141057428Y-92162380D02*
X140962190Y-92162380D01*
X140866952Y-92210000D01*
X140819333Y-92257619D01*
X140771714Y-92352857D01*
X140724095Y-92543333D01*
X140724095Y-92781428D01*
X140771714Y-92971904D01*
X140819333Y-93067142D01*
X140866952Y-93114761D01*
X140962190Y-93162380D01*
X141057428Y-93162380D01*
X141152666Y-93114761D01*
X141200285Y-93067142D01*
X141247904Y-92971904D01*
X141295523Y-92781428D01*
X141295523Y-92543333D01*
X141247904Y-92352857D01*
X141200285Y-92257619D01*
X141152666Y-92210000D01*
X141057428Y-92162380D01*
X135530857Y-98209380D02*
X135864190Y-97733190D01*
X136102285Y-98209380D02*
X136102285Y-97209380D01*
X135721333Y-97209380D01*
X135626095Y-97257000D01*
X135578476Y-97304619D01*
X135530857Y-97399857D01*
X135530857Y-97542714D01*
X135578476Y-97637952D01*
X135626095Y-97685571D01*
X135721333Y-97733190D01*
X136102285Y-97733190D01*
X134578476Y-98209380D02*
X135149904Y-98209380D01*
X134864190Y-98209380D02*
X134864190Y-97209380D01*
X134959428Y-97352238D01*
X135054666Y-97447476D01*
X135149904Y-97495095D01*
X134007047Y-97637952D02*
X134102285Y-97590333D01*
X134149904Y-97542714D01*
X134197523Y-97447476D01*
X134197523Y-97399857D01*
X134149904Y-97304619D01*
X134102285Y-97257000D01*
X134007047Y-97209380D01*
X133816571Y-97209380D01*
X133721333Y-97257000D01*
X133673714Y-97304619D01*
X133626095Y-97399857D01*
X133626095Y-97447476D01*
X133673714Y-97542714D01*
X133721333Y-97590333D01*
X133816571Y-97637952D01*
X134007047Y-97637952D01*
X134102285Y-97685571D01*
X134149904Y-97733190D01*
X134197523Y-97828428D01*
X134197523Y-98018904D01*
X134149904Y-98114142D01*
X134102285Y-98161761D01*
X134007047Y-98209380D01*
X133816571Y-98209380D01*
X133721333Y-98161761D01*
X133673714Y-98114142D01*
X133626095Y-98018904D01*
X133626095Y-97828428D01*
X133673714Y-97733190D01*
X133721333Y-97685571D01*
X133816571Y-97637952D01*
X142247857Y-85828142D02*
X142295476Y-85875761D01*
X142438333Y-85923380D01*
X142533571Y-85923380D01*
X142676428Y-85875761D01*
X142771666Y-85780523D01*
X142819285Y-85685285D01*
X142866904Y-85494809D01*
X142866904Y-85351952D01*
X142819285Y-85161476D01*
X142771666Y-85066238D01*
X142676428Y-84971000D01*
X142533571Y-84923380D01*
X142438333Y-84923380D01*
X142295476Y-84971000D01*
X142247857Y-85018619D01*
X141866904Y-85018619D02*
X141819285Y-84971000D01*
X141724047Y-84923380D01*
X141485952Y-84923380D01*
X141390714Y-84971000D01*
X141343095Y-85018619D01*
X141295476Y-85113857D01*
X141295476Y-85209095D01*
X141343095Y-85351952D01*
X141914523Y-85923380D01*
X141295476Y-85923380D01*
X140676428Y-84923380D02*
X140581190Y-84923380D01*
X140485952Y-84971000D01*
X140438333Y-85018619D01*
X140390714Y-85113857D01*
X140343095Y-85304333D01*
X140343095Y-85542428D01*
X140390714Y-85732904D01*
X140438333Y-85828142D01*
X140485952Y-85875761D01*
X140581190Y-85923380D01*
X140676428Y-85923380D01*
X140771666Y-85875761D01*
X140819285Y-85828142D01*
X140866904Y-85732904D01*
X140914523Y-85542428D01*
X140914523Y-85304333D01*
X140866904Y-85113857D01*
X140819285Y-85018619D01*
X140771666Y-84971000D01*
X140676428Y-84923380D01*
X137167857Y-94464142D02*
X137215476Y-94511761D01*
X137358333Y-94559380D01*
X137453571Y-94559380D01*
X137596428Y-94511761D01*
X137691666Y-94416523D01*
X137739285Y-94321285D01*
X137786904Y-94130809D01*
X137786904Y-93987952D01*
X137739285Y-93797476D01*
X137691666Y-93702238D01*
X137596428Y-93607000D01*
X137453571Y-93559380D01*
X137358333Y-93559380D01*
X137215476Y-93607000D01*
X137167857Y-93654619D01*
X136215476Y-94559380D02*
X136786904Y-94559380D01*
X136501190Y-94559380D02*
X136501190Y-93559380D01*
X136596428Y-93702238D01*
X136691666Y-93797476D01*
X136786904Y-93845095D01*
X135739285Y-94559380D02*
X135548809Y-94559380D01*
X135453571Y-94511761D01*
X135405952Y-94464142D01*
X135310714Y-94321285D01*
X135263095Y-94130809D01*
X135263095Y-93749857D01*
X135310714Y-93654619D01*
X135358333Y-93607000D01*
X135453571Y-93559380D01*
X135644047Y-93559380D01*
X135739285Y-93607000D01*
X135786904Y-93654619D01*
X135834523Y-93749857D01*
X135834523Y-93987952D01*
X135786904Y-94083190D01*
X135739285Y-94130809D01*
X135644047Y-94178428D01*
X135453571Y-94178428D01*
X135358333Y-94130809D01*
X135310714Y-94083190D01*
X135263095Y-93987952D01*
X144756142Y-86479142D02*
X144803761Y-86431523D01*
X144851380Y-86288666D01*
X144851380Y-86193428D01*
X144803761Y-86050571D01*
X144708523Y-85955333D01*
X144613285Y-85907714D01*
X144422809Y-85860095D01*
X144279952Y-85860095D01*
X144089476Y-85907714D01*
X143994238Y-85955333D01*
X143899000Y-86050571D01*
X143851380Y-86193428D01*
X143851380Y-86288666D01*
X143899000Y-86431523D01*
X143946619Y-86479142D01*
X144851380Y-87431523D02*
X144851380Y-86860095D01*
X144851380Y-87145809D02*
X143851380Y-87145809D01*
X143994238Y-87050571D01*
X144089476Y-86955333D01*
X144137095Y-86860095D01*
X144279952Y-88002952D02*
X144232333Y-87907714D01*
X144184714Y-87860095D01*
X144089476Y-87812476D01*
X144041857Y-87812476D01*
X143946619Y-87860095D01*
X143899000Y-87907714D01*
X143851380Y-88002952D01*
X143851380Y-88193428D01*
X143899000Y-88288666D01*
X143946619Y-88336285D01*
X144041857Y-88383904D01*
X144089476Y-88383904D01*
X144184714Y-88336285D01*
X144232333Y-88288666D01*
X144279952Y-88193428D01*
X144279952Y-88002952D01*
X144327571Y-87907714D01*
X144375190Y-87860095D01*
X144470428Y-87812476D01*
X144660904Y-87812476D01*
X144756142Y-87860095D01*
X144803761Y-87907714D01*
X144851380Y-88002952D01*
X144851380Y-88193428D01*
X144803761Y-88288666D01*
X144756142Y-88336285D01*
X144660904Y-88383904D01*
X144470428Y-88383904D01*
X144375190Y-88336285D01*
X144327571Y-88288666D01*
X144279952Y-88193428D01*
X135530857Y-106656142D02*
X135578476Y-106703761D01*
X135721333Y-106751380D01*
X135816571Y-106751380D01*
X135959428Y-106703761D01*
X136054666Y-106608523D01*
X136102285Y-106513285D01*
X136149904Y-106322809D01*
X136149904Y-106179952D01*
X136102285Y-105989476D01*
X136054666Y-105894238D01*
X135959428Y-105799000D01*
X135816571Y-105751380D01*
X135721333Y-105751380D01*
X135578476Y-105799000D01*
X135530857Y-105846619D01*
X134578476Y-106751380D02*
X135149904Y-106751380D01*
X134864190Y-106751380D02*
X134864190Y-105751380D01*
X134959428Y-105894238D01*
X135054666Y-105989476D01*
X135149904Y-106037095D01*
X134245142Y-105751380D02*
X133578476Y-105751380D01*
X134007047Y-106751380D01*
X130436857Y-102084142D02*
X130484476Y-102131761D01*
X130627333Y-102179380D01*
X130722571Y-102179380D01*
X130865428Y-102131761D01*
X130960666Y-102036523D01*
X131008285Y-101941285D01*
X131055904Y-101750809D01*
X131055904Y-101607952D01*
X131008285Y-101417476D01*
X130960666Y-101322238D01*
X130865428Y-101227000D01*
X130722571Y-101179380D01*
X130627333Y-101179380D01*
X130484476Y-101227000D01*
X130436857Y-101274619D01*
X129484476Y-102179380D02*
X130055904Y-102179380D01*
X129770190Y-102179380D02*
X129770190Y-101179380D01*
X129865428Y-101322238D01*
X129960666Y-101417476D01*
X130055904Y-101465095D01*
X128627333Y-101179380D02*
X128817809Y-101179380D01*
X128913047Y-101227000D01*
X128960666Y-101274619D01*
X129055904Y-101417476D01*
X129103523Y-101607952D01*
X129103523Y-101988904D01*
X129055904Y-102084142D01*
X129008285Y-102131761D01*
X128913047Y-102179380D01*
X128722571Y-102179380D01*
X128627333Y-102131761D01*
X128579714Y-102084142D01*
X128532095Y-101988904D01*
X128532095Y-101750809D01*
X128579714Y-101655571D01*
X128627333Y-101607952D01*
X128722571Y-101560333D01*
X128913047Y-101560333D01*
X129008285Y-101607952D01*
X129055904Y-101655571D01*
X129103523Y-101750809D01*
X141358857Y-98147142D02*
X141406476Y-98194761D01*
X141549333Y-98242380D01*
X141644571Y-98242380D01*
X141787428Y-98194761D01*
X141882666Y-98099523D01*
X141930285Y-98004285D01*
X141977904Y-97813809D01*
X141977904Y-97670952D01*
X141930285Y-97480476D01*
X141882666Y-97385238D01*
X141787428Y-97290000D01*
X141644571Y-97242380D01*
X141549333Y-97242380D01*
X141406476Y-97290000D01*
X141358857Y-97337619D01*
X140406476Y-98242380D02*
X140977904Y-98242380D01*
X140692190Y-98242380D02*
X140692190Y-97242380D01*
X140787428Y-97385238D01*
X140882666Y-97480476D01*
X140977904Y-97528095D01*
X139501714Y-97242380D02*
X139977904Y-97242380D01*
X140025523Y-97718571D01*
X139977904Y-97670952D01*
X139882666Y-97623333D01*
X139644571Y-97623333D01*
X139549333Y-97670952D01*
X139501714Y-97718571D01*
X139454095Y-97813809D01*
X139454095Y-98051904D01*
X139501714Y-98147142D01*
X139549333Y-98194761D01*
X139644571Y-98242380D01*
X139882666Y-98242380D01*
X139977904Y-98194761D01*
X140025523Y-98147142D01*
X141358857Y-106656142D02*
X141406476Y-106703761D01*
X141549333Y-106751380D01*
X141644571Y-106751380D01*
X141787428Y-106703761D01*
X141882666Y-106608523D01*
X141930285Y-106513285D01*
X141977904Y-106322809D01*
X141977904Y-106179952D01*
X141930285Y-105989476D01*
X141882666Y-105894238D01*
X141787428Y-105799000D01*
X141644571Y-105751380D01*
X141549333Y-105751380D01*
X141406476Y-105799000D01*
X141358857Y-105846619D01*
X140406476Y-106751380D02*
X140977904Y-106751380D01*
X140692190Y-106751380D02*
X140692190Y-105751380D01*
X140787428Y-105894238D01*
X140882666Y-105989476D01*
X140977904Y-106037095D01*
X139549333Y-106084714D02*
X139549333Y-106751380D01*
X139787428Y-105703761D02*
X140025523Y-106418047D01*
X139406476Y-106418047D01*
X126912666Y-79097142D02*
X126960285Y-79144761D01*
X127103142Y-79192380D01*
X127198380Y-79192380D01*
X127341238Y-79144761D01*
X127436476Y-79049523D01*
X127484095Y-78954285D01*
X127531714Y-78763809D01*
X127531714Y-78620952D01*
X127484095Y-78430476D01*
X127436476Y-78335238D01*
X127341238Y-78240000D01*
X127198380Y-78192380D01*
X127103142Y-78192380D01*
X126960285Y-78240000D01*
X126912666Y-78287619D01*
X126055523Y-78525714D02*
X126055523Y-79192380D01*
X126293619Y-78144761D02*
X126531714Y-78859047D01*
X125912666Y-78859047D01*
X147359666Y-79986142D02*
X147407285Y-80033761D01*
X147550142Y-80081380D01*
X147645380Y-80081380D01*
X147788238Y-80033761D01*
X147883476Y-79938523D01*
X147931095Y-79843285D01*
X147978714Y-79652809D01*
X147978714Y-79509952D01*
X147931095Y-79319476D01*
X147883476Y-79224238D01*
X147788238Y-79129000D01*
X147645380Y-79081380D01*
X147550142Y-79081380D01*
X147407285Y-79129000D01*
X147359666Y-79176619D01*
X147026333Y-79081380D02*
X146407285Y-79081380D01*
X146740619Y-79462333D01*
X146597761Y-79462333D01*
X146502523Y-79509952D01*
X146454904Y-79557571D01*
X146407285Y-79652809D01*
X146407285Y-79890904D01*
X146454904Y-79986142D01*
X146502523Y-80033761D01*
X146597761Y-80081380D01*
X146883476Y-80081380D01*
X146978714Y-80033761D01*
X147026333Y-79986142D01*
X147359666Y-78208142D02*
X147407285Y-78255761D01*
X147550142Y-78303380D01*
X147645380Y-78303380D01*
X147788238Y-78255761D01*
X147883476Y-78160523D01*
X147931095Y-78065285D01*
X147978714Y-77874809D01*
X147978714Y-77731952D01*
X147931095Y-77541476D01*
X147883476Y-77446238D01*
X147788238Y-77351000D01*
X147645380Y-77303380D01*
X147550142Y-77303380D01*
X147407285Y-77351000D01*
X147359666Y-77398619D01*
X146978714Y-77398619D02*
X146931095Y-77351000D01*
X146835857Y-77303380D01*
X146597761Y-77303380D01*
X146502523Y-77351000D01*
X146454904Y-77398619D01*
X146407285Y-77493857D01*
X146407285Y-77589095D01*
X146454904Y-77731952D01*
X147026333Y-78303380D01*
X146407285Y-78303380D01*
M02*
