G04 #@! TF.GenerationSoftware,KiCad,Pcbnew,(5.1.4)-1*
G04 #@! TF.CreationDate,2019-11-01T10:34:41-04:00*
G04 #@! TF.ProjectId,wiproc,77697072-6f63-42e6-9b69-6361645f7063,rev?*
G04 #@! TF.SameCoordinates,Original*
G04 #@! TF.FileFunction,Legend,Top*
G04 #@! TF.FilePolarity,Positive*
%FSLAX46Y46*%
G04 Gerber Fmt 4.6, Leading zero omitted, Abs format (unit mm)*
G04 Created by KiCad (PCBNEW (5.1.4)-1) date 2019-11-01 10:34:41*
%MOMM*%
%LPD*%
G04 APERTURE LIST*
%ADD10C,0.120000*%
%ADD11C,0.150000*%
G04 APERTURE END LIST*
D10*
X144916000Y-76503000D02*
X145366000Y-76053000D01*
X144916000Y-73103000D02*
X145366000Y-73553000D01*
X140316000Y-73103000D02*
X139866000Y-73553000D01*
X140316000Y-76503000D02*
X139866000Y-76053000D01*
X141616000Y-72053000D02*
X143616000Y-72053000D01*
X145366000Y-76053000D02*
X145366000Y-73553000D01*
X141616000Y-77553000D02*
X143616000Y-77553000D01*
X139866000Y-76053000D02*
X139866000Y-73553000D01*
X137179000Y-76503000D02*
X137629000Y-76053000D01*
X137179000Y-73103000D02*
X137629000Y-73553000D01*
X132579000Y-73103000D02*
X132129000Y-73553000D01*
X132579000Y-76503000D02*
X132129000Y-76053000D01*
X133879000Y-72053000D02*
X135879000Y-72053000D01*
X137629000Y-76053000D02*
X137629000Y-73553000D01*
X133879000Y-77553000D02*
X135879000Y-77553000D01*
X132129000Y-76053000D02*
X132129000Y-73553000D01*
X142309667Y-80871600D02*
X141967133Y-80871600D01*
X142309667Y-81891600D02*
X141967133Y-81891600D01*
X155896000Y-82871000D02*
X157226000Y-82871000D01*
X155896000Y-84201000D02*
X155896000Y-82871000D01*
X158496000Y-82871000D02*
X161096000Y-82871000D01*
X158496000Y-85471000D02*
X158496000Y-82871000D01*
X155896000Y-85471000D02*
X158496000Y-85471000D01*
X161096000Y-82871000D02*
X161096000Y-100771000D01*
X155896000Y-85471000D02*
X155896000Y-100771000D01*
X155896000Y-100771000D02*
X161096000Y-100771000D01*
X146710400Y-100348600D02*
X145650400Y-100348600D01*
X145650400Y-100348600D02*
X145650400Y-99288600D01*
X145650400Y-98288600D02*
X145650400Y-80228600D01*
X147770400Y-80228600D02*
X145650400Y-80228600D01*
X147770400Y-98288600D02*
X147770400Y-80228600D01*
X147770400Y-98288600D02*
X145650400Y-98288600D01*
X124714000Y-80220000D02*
X125774000Y-80220000D01*
X125774000Y-80220000D02*
X125774000Y-81280000D01*
X125774000Y-82280000D02*
X125774000Y-100340000D01*
X123654000Y-100340000D02*
X125774000Y-100340000D01*
X123654000Y-82280000D02*
X123654000Y-100340000D01*
X123654000Y-82280000D02*
X125774000Y-82280000D01*
X126778000Y-94882000D02*
X126928000Y-94882000D01*
X126778000Y-99682000D02*
X126778000Y-94882000D01*
X126928000Y-99682000D02*
X126778000Y-99682000D01*
X130778000Y-99682000D02*
X130628000Y-99682000D01*
X130778000Y-94882000D02*
X130778000Y-99682000D01*
X130628000Y-94882000D02*
X130778000Y-94882000D01*
X129428000Y-99682000D02*
X128128000Y-99682000D01*
X126928000Y-99682000D02*
X126928000Y-101382000D01*
X136371000Y-82285000D02*
X136371000Y-83555000D01*
X144211000Y-82285000D02*
X144211000Y-83555000D01*
X144211000Y-82285000D02*
X136371000Y-82285000D01*
X136371000Y-86625000D02*
X136371000Y-85355000D01*
X144211000Y-86625000D02*
X144211000Y-85355000D01*
X144211000Y-86625000D02*
X136371000Y-86625000D01*
D11*
X136228000Y-92012000D02*
X135103000Y-92012000D01*
X136228000Y-99852000D02*
X140378000Y-99852000D01*
X136228000Y-90902000D02*
X140378000Y-90902000D01*
X136228000Y-99852000D02*
X136228000Y-98742000D01*
X140378000Y-99852000D02*
X140378000Y-98742000D01*
X140378000Y-90902000D02*
X140378000Y-92012000D01*
X136228000Y-92012000D02*
X136228000Y-90902000D01*
D10*
X127422000Y-89227000D02*
X127422000Y-91677000D01*
X130642000Y-91027000D02*
X130642000Y-89227000D01*
X152668000Y-76503000D02*
X153118000Y-76053000D01*
X152668000Y-73103000D02*
X153118000Y-73553000D01*
X148068000Y-73103000D02*
X147618000Y-73553000D01*
X148068000Y-76503000D02*
X147618000Y-76053000D01*
X149368000Y-72053000D02*
X151368000Y-72053000D01*
X153118000Y-76053000D02*
X153118000Y-73553000D01*
X149368000Y-77553000D02*
X151368000Y-77553000D01*
X147618000Y-76053000D02*
X147618000Y-73553000D01*
X124504000Y-76053000D02*
X124504000Y-73553000D01*
X126254000Y-77553000D02*
X128254000Y-77553000D01*
X130004000Y-76053000D02*
X130004000Y-73553000D01*
X126254000Y-72053000D02*
X128254000Y-72053000D01*
X124954000Y-76503000D02*
X124504000Y-76053000D01*
X124954000Y-73103000D02*
X124504000Y-73553000D01*
X129554000Y-73103000D02*
X130004000Y-73553000D01*
X129554000Y-76503000D02*
X130004000Y-76053000D01*
X119349733Y-101157500D02*
X119692267Y-101157500D01*
X119349733Y-100137500D02*
X119692267Y-100137500D01*
X119258233Y-96712500D02*
X119600767Y-96712500D01*
X119258233Y-95692500D02*
X119600767Y-95692500D01*
X119258233Y-93601000D02*
X119600767Y-93601000D01*
X119258233Y-92581000D02*
X119600767Y-92581000D01*
X138174000Y-101682733D02*
X138174000Y-102025267D01*
X139194000Y-101682733D02*
X139194000Y-102025267D01*
X136650000Y-101682733D02*
X136650000Y-102025267D01*
X137670000Y-101682733D02*
X137670000Y-102025267D01*
X140252267Y-89279000D02*
X139909733Y-89279000D01*
X140252267Y-90299000D02*
X139909733Y-90299000D01*
X128526000Y-86658267D02*
X128526000Y-86315733D01*
X127506000Y-86658267D02*
X127506000Y-86315733D01*
X126998000Y-104589733D02*
X126998000Y-104932267D01*
X128018000Y-104589733D02*
X128018000Y-104932267D01*
X119258233Y-87886000D02*
X119600767Y-87886000D01*
X119258233Y-86866000D02*
X119600767Y-86866000D01*
X119258233Y-84647500D02*
X119600767Y-84647500D01*
X119258233Y-83627500D02*
X119600767Y-83627500D01*
X151734733Y-89791000D02*
X152077267Y-89791000D01*
X151734733Y-88771000D02*
X152077267Y-88771000D01*
X151734733Y-92331000D02*
X152077267Y-92331000D01*
X151734733Y-91311000D02*
X152077267Y-91311000D01*
X151734733Y-83691000D02*
X152077267Y-83691000D01*
X151734733Y-84711000D02*
X152077267Y-84711000D01*
X123954000Y-72293267D02*
X123954000Y-71950733D01*
X122934000Y-72293267D02*
X122934000Y-71950733D01*
X131574000Y-72307267D02*
X131574000Y-71964733D01*
X130554000Y-72307267D02*
X130554000Y-71964733D01*
X139321000Y-72194267D02*
X139321000Y-71851733D01*
X138301000Y-72194267D02*
X138301000Y-71851733D01*
X147068000Y-72180267D02*
X147068000Y-71837733D01*
X146048000Y-72180267D02*
X146048000Y-71837733D01*
X132218000Y-111636000D02*
X132218000Y-111376000D01*
X132218000Y-109096000D02*
X132218000Y-107326000D01*
X132218000Y-107326000D02*
X132598000Y-107326000D01*
X139838000Y-107326000D02*
X139838000Y-109096000D01*
X139838000Y-111376000D02*
X139838000Y-111636000D01*
X139838000Y-107326000D02*
X139458000Y-107326000D01*
X123638000Y-110550000D02*
X123638000Y-109220000D01*
X124968000Y-110550000D02*
X123638000Y-110550000D01*
X126238000Y-110550000D02*
X126238000Y-107890000D01*
X126238000Y-107890000D02*
X128838000Y-107890000D01*
X126238000Y-110550000D02*
X128838000Y-110550000D01*
X128838000Y-110550000D02*
X128838000Y-107890000D01*
X150794000Y-108075000D02*
X150794000Y-109095000D01*
X145594000Y-108075000D02*
X145594000Y-109095000D01*
X150794000Y-105535000D02*
X150794000Y-106555000D01*
X145594000Y-105535000D02*
X145594000Y-106555000D01*
X150794000Y-110615000D02*
X150794000Y-111185000D01*
X145594000Y-110615000D02*
X145594000Y-111185000D01*
X150794000Y-103445000D02*
X150794000Y-104015000D01*
X145594000Y-103445000D02*
X145594000Y-104015000D01*
X144154000Y-104015000D02*
X145594000Y-104015000D01*
X145594000Y-111185000D02*
X150794000Y-111185000D01*
X145594000Y-103445000D02*
X150794000Y-103445000D01*
X117421000Y-99687500D02*
X114561000Y-99687500D01*
X117421000Y-101607500D02*
X117421000Y-99687500D01*
X114561000Y-101607500D02*
X117421000Y-101607500D01*
X117375500Y-95242500D02*
X114515500Y-95242500D01*
X117375500Y-97162500D02*
X117375500Y-95242500D01*
X114515500Y-97162500D02*
X117375500Y-97162500D01*
X117357500Y-92067500D02*
X114497500Y-92067500D01*
X117357500Y-93987500D02*
X117357500Y-92067500D01*
X114497500Y-93987500D02*
X117357500Y-93987500D01*
X124118000Y-107076000D02*
X124118000Y-103926000D01*
X125818000Y-107076000D02*
X125818000Y-103926000D01*
X124118000Y-107076000D02*
X125818000Y-107076000D01*
X117375500Y-86352500D02*
X114515500Y-86352500D01*
X117375500Y-88272500D02*
X117375500Y-86352500D01*
X114515500Y-88272500D02*
X117375500Y-88272500D01*
X117375500Y-83177500D02*
X114515500Y-83177500D01*
X117375500Y-85097500D02*
X117375500Y-83177500D01*
X114515500Y-85097500D02*
X117375500Y-85097500D01*
X136146000Y-102025267D02*
X136146000Y-101682733D01*
X135126000Y-102025267D02*
X135126000Y-101682733D01*
X140718000Y-102025267D02*
X140718000Y-101682733D01*
X139698000Y-102025267D02*
X139698000Y-101682733D01*
X129919000Y-106381733D02*
X129919000Y-106724267D01*
X130939000Y-106381733D02*
X130939000Y-106724267D01*
X134495000Y-92641267D02*
X134495000Y-92298733D01*
X133475000Y-92641267D02*
X133475000Y-92298733D01*
X143131000Y-94024267D02*
X143131000Y-93681733D01*
X142111000Y-94024267D02*
X142111000Y-93681733D01*
X142111000Y-97096733D02*
X142111000Y-97439267D01*
X143131000Y-97096733D02*
X143131000Y-97439267D01*
X136823267Y-80871600D02*
X136480733Y-80871600D01*
X136823267Y-81891600D02*
X136480733Y-81891600D01*
X115130733Y-90680000D02*
X115473267Y-90680000D01*
X115130733Y-89660000D02*
X115473267Y-89660000D01*
X159062267Y-80897000D02*
X158719733Y-80897000D01*
X159062267Y-81917000D02*
X158719733Y-81917000D01*
D11*
X139270761Y-79057333D02*
X139318380Y-78914476D01*
X139318380Y-78676380D01*
X139270761Y-78581142D01*
X139223142Y-78533523D01*
X139127904Y-78485904D01*
X139032666Y-78485904D01*
X138937428Y-78533523D01*
X138889809Y-78581142D01*
X138842190Y-78676380D01*
X138794571Y-78866857D01*
X138746952Y-78962095D01*
X138699333Y-79009714D01*
X138604095Y-79057333D01*
X138508857Y-79057333D01*
X138413619Y-79009714D01*
X138366000Y-78962095D01*
X138318380Y-78866857D01*
X138318380Y-78628761D01*
X138366000Y-78485904D01*
X138318380Y-78152571D02*
X139318380Y-77914476D01*
X138604095Y-77724000D01*
X139318380Y-77533523D01*
X138318380Y-77295428D01*
X138318380Y-77009714D02*
X138318380Y-76390666D01*
X138699333Y-76724000D01*
X138699333Y-76581142D01*
X138746952Y-76485904D01*
X138794571Y-76438285D01*
X138889809Y-76390666D01*
X139127904Y-76390666D01*
X139223142Y-76438285D01*
X139270761Y-76485904D01*
X139318380Y-76581142D01*
X139318380Y-76866857D01*
X139270761Y-76962095D01*
X139223142Y-77009714D01*
X131494161Y-79057333D02*
X131541780Y-78914476D01*
X131541780Y-78676380D01*
X131494161Y-78581142D01*
X131446542Y-78533523D01*
X131351304Y-78485904D01*
X131256066Y-78485904D01*
X131160828Y-78533523D01*
X131113209Y-78581142D01*
X131065590Y-78676380D01*
X131017971Y-78866857D01*
X130970352Y-78962095D01*
X130922733Y-79009714D01*
X130827495Y-79057333D01*
X130732257Y-79057333D01*
X130637019Y-79009714D01*
X130589400Y-78962095D01*
X130541780Y-78866857D01*
X130541780Y-78628761D01*
X130589400Y-78485904D01*
X130541780Y-78152571D02*
X131541780Y-77914476D01*
X130827495Y-77724000D01*
X131541780Y-77533523D01*
X130541780Y-77295428D01*
X130637019Y-76962095D02*
X130589400Y-76914476D01*
X130541780Y-76819238D01*
X130541780Y-76581142D01*
X130589400Y-76485904D01*
X130637019Y-76438285D01*
X130732257Y-76390666D01*
X130827495Y-76390666D01*
X130970352Y-76438285D01*
X131541780Y-77009714D01*
X131541780Y-76390666D01*
X141971733Y-80367142D02*
X141924114Y-80414761D01*
X141781257Y-80462380D01*
X141686019Y-80462380D01*
X141543161Y-80414761D01*
X141447923Y-80319523D01*
X141400304Y-80224285D01*
X141352685Y-80033809D01*
X141352685Y-79890952D01*
X141400304Y-79700476D01*
X141447923Y-79605238D01*
X141543161Y-79510000D01*
X141686019Y-79462380D01*
X141781257Y-79462380D01*
X141924114Y-79510000D01*
X141971733Y-79557619D01*
X142305066Y-79462380D02*
X142971733Y-79462380D01*
X142543161Y-80462380D01*
X157908666Y-101560380D02*
X157908666Y-102274666D01*
X157861047Y-102417523D01*
X157765809Y-102512761D01*
X157622952Y-102560380D01*
X157527714Y-102560380D01*
X158289619Y-101560380D02*
X158908666Y-101560380D01*
X158575333Y-101941333D01*
X158718190Y-101941333D01*
X158813428Y-101988952D01*
X158861047Y-102036571D01*
X158908666Y-102131809D01*
X158908666Y-102369904D01*
X158861047Y-102465142D01*
X158813428Y-102512761D01*
X158718190Y-102560380D01*
X158432476Y-102560380D01*
X158337238Y-102512761D01*
X158289619Y-102465142D01*
X144065666Y-80224380D02*
X144065666Y-80938666D01*
X144018047Y-81081523D01*
X143922809Y-81176761D01*
X143779952Y-81224380D01*
X143684714Y-81224380D01*
X144494238Y-80319619D02*
X144541857Y-80272000D01*
X144637095Y-80224380D01*
X144875190Y-80224380D01*
X144970428Y-80272000D01*
X145018047Y-80319619D01*
X145065666Y-80414857D01*
X145065666Y-80510095D01*
X145018047Y-80652952D01*
X144446619Y-81224380D01*
X145065666Y-81224380D01*
X126920666Y-80224380D02*
X126920666Y-80938666D01*
X126873047Y-81081523D01*
X126777809Y-81176761D01*
X126634952Y-81224380D01*
X126539714Y-81224380D01*
X127920666Y-81224380D02*
X127349238Y-81224380D01*
X127634952Y-81224380D02*
X127634952Y-80224380D01*
X127539714Y-80367238D01*
X127444476Y-80462476D01*
X127349238Y-80510095D01*
X128016095Y-97242380D02*
X128016095Y-98051904D01*
X128063714Y-98147142D01*
X128111333Y-98194761D01*
X128206571Y-98242380D01*
X128397047Y-98242380D01*
X128492285Y-98194761D01*
X128539904Y-98147142D01*
X128587523Y-98051904D01*
X128587523Y-97242380D01*
X129016095Y-97337619D02*
X129063714Y-97290000D01*
X129158952Y-97242380D01*
X129397047Y-97242380D01*
X129492285Y-97290000D01*
X129539904Y-97337619D01*
X129587523Y-97432857D01*
X129587523Y-97528095D01*
X129539904Y-97670952D01*
X128968476Y-98242380D01*
X129587523Y-98242380D01*
X134016809Y-84558190D02*
X134016809Y-85034380D01*
X133683476Y-84034380D02*
X134016809Y-84558190D01*
X134350142Y-84034380D01*
X135207285Y-85034380D02*
X134635857Y-85034380D01*
X134921571Y-85034380D02*
X134921571Y-84034380D01*
X134826333Y-84177238D01*
X134731095Y-84272476D01*
X134635857Y-84320095D01*
X135001095Y-89429380D02*
X135001095Y-90238904D01*
X135048714Y-90334142D01*
X135096333Y-90381761D01*
X135191571Y-90429380D01*
X135382047Y-90429380D01*
X135477285Y-90381761D01*
X135524904Y-90334142D01*
X135572523Y-90238904D01*
X135572523Y-89429380D01*
X136477285Y-89762714D02*
X136477285Y-90429380D01*
X136239190Y-89381761D02*
X136001095Y-90096047D01*
X136620142Y-90096047D01*
X131064095Y-89622380D02*
X131064095Y-90431904D01*
X131111714Y-90527142D01*
X131159333Y-90574761D01*
X131254571Y-90622380D01*
X131445047Y-90622380D01*
X131540285Y-90574761D01*
X131587904Y-90527142D01*
X131635523Y-90431904D01*
X131635523Y-89622380D01*
X132016476Y-89622380D02*
X132635523Y-89622380D01*
X132302190Y-90003333D01*
X132445047Y-90003333D01*
X132540285Y-90050952D01*
X132587904Y-90098571D01*
X132635523Y-90193809D01*
X132635523Y-90431904D01*
X132587904Y-90527142D01*
X132540285Y-90574761D01*
X132445047Y-90622380D01*
X132159333Y-90622380D01*
X132064095Y-90574761D01*
X132016476Y-90527142D01*
X147022761Y-79057333D02*
X147070380Y-78914476D01*
X147070380Y-78676380D01*
X147022761Y-78581142D01*
X146975142Y-78533523D01*
X146879904Y-78485904D01*
X146784666Y-78485904D01*
X146689428Y-78533523D01*
X146641809Y-78581142D01*
X146594190Y-78676380D01*
X146546571Y-78866857D01*
X146498952Y-78962095D01*
X146451333Y-79009714D01*
X146356095Y-79057333D01*
X146260857Y-79057333D01*
X146165619Y-79009714D01*
X146118000Y-78962095D01*
X146070380Y-78866857D01*
X146070380Y-78628761D01*
X146118000Y-78485904D01*
X146070380Y-78152571D02*
X147070380Y-77914476D01*
X146356095Y-77724000D01*
X147070380Y-77533523D01*
X146070380Y-77295428D01*
X146403714Y-76485904D02*
X147070380Y-76485904D01*
X146022761Y-76724000D02*
X146737047Y-76962095D01*
X146737047Y-76343047D01*
X123848761Y-79057333D02*
X123896380Y-78914476D01*
X123896380Y-78676380D01*
X123848761Y-78581142D01*
X123801142Y-78533523D01*
X123705904Y-78485904D01*
X123610666Y-78485904D01*
X123515428Y-78533523D01*
X123467809Y-78581142D01*
X123420190Y-78676380D01*
X123372571Y-78866857D01*
X123324952Y-78962095D01*
X123277333Y-79009714D01*
X123182095Y-79057333D01*
X123086857Y-79057333D01*
X122991619Y-79009714D01*
X122944000Y-78962095D01*
X122896380Y-78866857D01*
X122896380Y-78628761D01*
X122944000Y-78485904D01*
X122896380Y-78152571D02*
X123896380Y-77914476D01*
X123182095Y-77724000D01*
X123896380Y-77533523D01*
X122896380Y-77295428D01*
X123896380Y-76390666D02*
X123896380Y-76962095D01*
X123896380Y-76676380D02*
X122896380Y-76676380D01*
X123039238Y-76771619D01*
X123134476Y-76866857D01*
X123182095Y-76962095D01*
X118864142Y-99639380D02*
X118530809Y-99163190D01*
X118292714Y-99639380D02*
X118292714Y-98639380D01*
X118673666Y-98639380D01*
X118768904Y-98687000D01*
X118816523Y-98734619D01*
X118864142Y-98829857D01*
X118864142Y-98972714D01*
X118816523Y-99067952D01*
X118768904Y-99115571D01*
X118673666Y-99163190D01*
X118292714Y-99163190D01*
X119816523Y-99639380D02*
X119245095Y-99639380D01*
X119530809Y-99639380D02*
X119530809Y-98639380D01*
X119435571Y-98782238D01*
X119340333Y-98877476D01*
X119245095Y-98925095D01*
X120149857Y-98639380D02*
X120816523Y-98639380D01*
X120387952Y-99639380D01*
X118800642Y-95130880D02*
X118467309Y-94654690D01*
X118229214Y-95130880D02*
X118229214Y-94130880D01*
X118610166Y-94130880D01*
X118705404Y-94178500D01*
X118753023Y-94226119D01*
X118800642Y-94321357D01*
X118800642Y-94464214D01*
X118753023Y-94559452D01*
X118705404Y-94607071D01*
X118610166Y-94654690D01*
X118229214Y-94654690D01*
X119753023Y-95130880D02*
X119181595Y-95130880D01*
X119467309Y-95130880D02*
X119467309Y-94130880D01*
X119372071Y-94273738D01*
X119276833Y-94368976D01*
X119181595Y-94416595D01*
X120610166Y-94130880D02*
X120419690Y-94130880D01*
X120324452Y-94178500D01*
X120276833Y-94226119D01*
X120181595Y-94368976D01*
X120133976Y-94559452D01*
X120133976Y-94940404D01*
X120181595Y-95035642D01*
X120229214Y-95083261D01*
X120324452Y-95130880D01*
X120514928Y-95130880D01*
X120610166Y-95083261D01*
X120657785Y-95035642D01*
X120705404Y-94940404D01*
X120705404Y-94702309D01*
X120657785Y-94607071D01*
X120610166Y-94559452D01*
X120514928Y-94511833D01*
X120324452Y-94511833D01*
X120229214Y-94559452D01*
X120181595Y-94607071D01*
X120133976Y-94702309D01*
X118800642Y-91955880D02*
X118467309Y-91479690D01*
X118229214Y-91955880D02*
X118229214Y-90955880D01*
X118610166Y-90955880D01*
X118705404Y-91003500D01*
X118753023Y-91051119D01*
X118800642Y-91146357D01*
X118800642Y-91289214D01*
X118753023Y-91384452D01*
X118705404Y-91432071D01*
X118610166Y-91479690D01*
X118229214Y-91479690D01*
X119753023Y-91955880D02*
X119181595Y-91955880D01*
X119467309Y-91955880D02*
X119467309Y-90955880D01*
X119372071Y-91098738D01*
X119276833Y-91193976D01*
X119181595Y-91241595D01*
X120657785Y-90955880D02*
X120181595Y-90955880D01*
X120133976Y-91432071D01*
X120181595Y-91384452D01*
X120276833Y-91336833D01*
X120514928Y-91336833D01*
X120610166Y-91384452D01*
X120657785Y-91432071D01*
X120705404Y-91527309D01*
X120705404Y-91765404D01*
X120657785Y-91860642D01*
X120610166Y-91908261D01*
X120514928Y-91955880D01*
X120276833Y-91955880D01*
X120181595Y-91908261D01*
X120133976Y-91860642D01*
X139006342Y-104770180D02*
X138673009Y-104293990D01*
X138434914Y-104770180D02*
X138434914Y-103770180D01*
X138815866Y-103770180D01*
X138911104Y-103817800D01*
X138958723Y-103865419D01*
X139006342Y-103960657D01*
X139006342Y-104103514D01*
X138958723Y-104198752D01*
X138911104Y-104246371D01*
X138815866Y-104293990D01*
X138434914Y-104293990D01*
X139958723Y-104770180D02*
X139387295Y-104770180D01*
X139673009Y-104770180D02*
X139673009Y-103770180D01*
X139577771Y-103913038D01*
X139482533Y-104008276D01*
X139387295Y-104055895D01*
X140815866Y-104103514D02*
X140815866Y-104770180D01*
X140577771Y-103722561D02*
X140339676Y-104436847D01*
X140958723Y-104436847D01*
X135678942Y-104770180D02*
X135345609Y-104293990D01*
X135107514Y-104770180D02*
X135107514Y-103770180D01*
X135488466Y-103770180D01*
X135583704Y-103817800D01*
X135631323Y-103865419D01*
X135678942Y-103960657D01*
X135678942Y-104103514D01*
X135631323Y-104198752D01*
X135583704Y-104246371D01*
X135488466Y-104293990D01*
X135107514Y-104293990D01*
X136631323Y-104770180D02*
X136059895Y-104770180D01*
X136345609Y-104770180D02*
X136345609Y-103770180D01*
X136250371Y-103913038D01*
X136155133Y-104008276D01*
X136059895Y-104055895D01*
X136964657Y-103770180D02*
X137583704Y-103770180D01*
X137250371Y-104151133D01*
X137393228Y-104151133D01*
X137488466Y-104198752D01*
X137536085Y-104246371D01*
X137583704Y-104341609D01*
X137583704Y-104579704D01*
X137536085Y-104674942D01*
X137488466Y-104722561D01*
X137393228Y-104770180D01*
X137107514Y-104770180D01*
X137012276Y-104722561D01*
X136964657Y-104674942D01*
X142486142Y-90241380D02*
X142152809Y-89765190D01*
X141914714Y-90241380D02*
X141914714Y-89241380D01*
X142295666Y-89241380D01*
X142390904Y-89289000D01*
X142438523Y-89336619D01*
X142486142Y-89431857D01*
X142486142Y-89574714D01*
X142438523Y-89669952D01*
X142390904Y-89717571D01*
X142295666Y-89765190D01*
X141914714Y-89765190D01*
X143438523Y-90241380D02*
X142867095Y-90241380D01*
X143152809Y-90241380D02*
X143152809Y-89241380D01*
X143057571Y-89384238D01*
X142962333Y-89479476D01*
X142867095Y-89527095D01*
X143819476Y-89336619D02*
X143867095Y-89289000D01*
X143962333Y-89241380D01*
X144200428Y-89241380D01*
X144295666Y-89289000D01*
X144343285Y-89336619D01*
X144390904Y-89431857D01*
X144390904Y-89527095D01*
X144343285Y-89669952D01*
X143771857Y-90241380D01*
X144390904Y-90241380D01*
X127373142Y-84653380D02*
X127039809Y-84177190D01*
X126801714Y-84653380D02*
X126801714Y-83653380D01*
X127182666Y-83653380D01*
X127277904Y-83701000D01*
X127325523Y-83748619D01*
X127373142Y-83843857D01*
X127373142Y-83986714D01*
X127325523Y-84081952D01*
X127277904Y-84129571D01*
X127182666Y-84177190D01*
X126801714Y-84177190D01*
X128325523Y-84653380D02*
X127754095Y-84653380D01*
X128039809Y-84653380D02*
X128039809Y-83653380D01*
X127944571Y-83796238D01*
X127849333Y-83891476D01*
X127754095Y-83939095D01*
X129277904Y-84653380D02*
X128706476Y-84653380D01*
X128992190Y-84653380D02*
X128992190Y-83653380D01*
X128896952Y-83796238D01*
X128801714Y-83891476D01*
X128706476Y-83939095D01*
X129390380Y-105403857D02*
X128914190Y-105737190D01*
X129390380Y-105975285D02*
X128390380Y-105975285D01*
X128390380Y-105594333D01*
X128438000Y-105499095D01*
X128485619Y-105451476D01*
X128580857Y-105403857D01*
X128723714Y-105403857D01*
X128818952Y-105451476D01*
X128866571Y-105499095D01*
X128914190Y-105594333D01*
X128914190Y-105975285D01*
X129390380Y-104451476D02*
X129390380Y-105022904D01*
X129390380Y-104737190D02*
X128390380Y-104737190D01*
X128533238Y-104832428D01*
X128628476Y-104927666D01*
X128676095Y-105022904D01*
X128390380Y-103832428D02*
X128390380Y-103737190D01*
X128438000Y-103641952D01*
X128485619Y-103594333D01*
X128580857Y-103546714D01*
X128771333Y-103499095D01*
X129009428Y-103499095D01*
X129199904Y-103546714D01*
X129295142Y-103594333D01*
X129342761Y-103641952D01*
X129390380Y-103737190D01*
X129390380Y-103832428D01*
X129342761Y-103927666D01*
X129295142Y-103975285D01*
X129199904Y-104022904D01*
X129009428Y-104070523D01*
X128771333Y-104070523D01*
X128580857Y-104022904D01*
X128485619Y-103975285D01*
X128438000Y-103927666D01*
X128390380Y-103832428D01*
X119276833Y-86240880D02*
X118943500Y-85764690D01*
X118705404Y-86240880D02*
X118705404Y-85240880D01*
X119086357Y-85240880D01*
X119181595Y-85288500D01*
X119229214Y-85336119D01*
X119276833Y-85431357D01*
X119276833Y-85574214D01*
X119229214Y-85669452D01*
X119181595Y-85717071D01*
X119086357Y-85764690D01*
X118705404Y-85764690D01*
X119753023Y-86240880D02*
X119943500Y-86240880D01*
X120038738Y-86193261D01*
X120086357Y-86145642D01*
X120181595Y-86002785D01*
X120229214Y-85812309D01*
X120229214Y-85431357D01*
X120181595Y-85336119D01*
X120133976Y-85288500D01*
X120038738Y-85240880D01*
X119848261Y-85240880D01*
X119753023Y-85288500D01*
X119705404Y-85336119D01*
X119657785Y-85431357D01*
X119657785Y-85669452D01*
X119705404Y-85764690D01*
X119753023Y-85812309D01*
X119848261Y-85859928D01*
X120038738Y-85859928D01*
X120133976Y-85812309D01*
X120181595Y-85764690D01*
X120229214Y-85669452D01*
X119276833Y-83065880D02*
X118943500Y-82589690D01*
X118705404Y-83065880D02*
X118705404Y-82065880D01*
X119086357Y-82065880D01*
X119181595Y-82113500D01*
X119229214Y-82161119D01*
X119276833Y-82256357D01*
X119276833Y-82399214D01*
X119229214Y-82494452D01*
X119181595Y-82542071D01*
X119086357Y-82589690D01*
X118705404Y-82589690D01*
X119848261Y-82494452D02*
X119753023Y-82446833D01*
X119705404Y-82399214D01*
X119657785Y-82303976D01*
X119657785Y-82256357D01*
X119705404Y-82161119D01*
X119753023Y-82113500D01*
X119848261Y-82065880D01*
X120038738Y-82065880D01*
X120133976Y-82113500D01*
X120181595Y-82161119D01*
X120229214Y-82256357D01*
X120229214Y-82303976D01*
X120181595Y-82399214D01*
X120133976Y-82446833D01*
X120038738Y-82494452D01*
X119848261Y-82494452D01*
X119753023Y-82542071D01*
X119705404Y-82589690D01*
X119657785Y-82684928D01*
X119657785Y-82875404D01*
X119705404Y-82970642D01*
X119753023Y-83018261D01*
X119848261Y-83065880D01*
X120038738Y-83065880D01*
X120133976Y-83018261D01*
X120181595Y-82970642D01*
X120229214Y-82875404D01*
X120229214Y-82684928D01*
X120181595Y-82589690D01*
X120133976Y-82542071D01*
X120038738Y-82494452D01*
X154011333Y-91003380D02*
X153678000Y-90527190D01*
X153439904Y-91003380D02*
X153439904Y-90003380D01*
X153820857Y-90003380D01*
X153916095Y-90051000D01*
X153963714Y-90098619D01*
X154011333Y-90193857D01*
X154011333Y-90336714D01*
X153963714Y-90431952D01*
X153916095Y-90479571D01*
X153820857Y-90527190D01*
X153439904Y-90527190D01*
X154344666Y-90003380D02*
X155011333Y-90003380D01*
X154582761Y-91003380D01*
X154011333Y-93670380D02*
X153678000Y-93194190D01*
X153439904Y-93670380D02*
X153439904Y-92670380D01*
X153820857Y-92670380D01*
X153916095Y-92718000D01*
X153963714Y-92765619D01*
X154011333Y-92860857D01*
X154011333Y-93003714D01*
X153963714Y-93098952D01*
X153916095Y-93146571D01*
X153820857Y-93194190D01*
X153439904Y-93194190D01*
X154868476Y-92670380D02*
X154678000Y-92670380D01*
X154582761Y-92718000D01*
X154535142Y-92765619D01*
X154439904Y-92908476D01*
X154392285Y-93098952D01*
X154392285Y-93479904D01*
X154439904Y-93575142D01*
X154487523Y-93622761D01*
X154582761Y-93670380D01*
X154773238Y-93670380D01*
X154868476Y-93622761D01*
X154916095Y-93575142D01*
X154963714Y-93479904D01*
X154963714Y-93241809D01*
X154916095Y-93146571D01*
X154868476Y-93098952D01*
X154773238Y-93051333D01*
X154582761Y-93051333D01*
X154487523Y-93098952D01*
X154439904Y-93146571D01*
X154392285Y-93241809D01*
X154011333Y-85923380D02*
X153678000Y-85447190D01*
X153439904Y-85923380D02*
X153439904Y-84923380D01*
X153820857Y-84923380D01*
X153916095Y-84971000D01*
X153963714Y-85018619D01*
X154011333Y-85113857D01*
X154011333Y-85256714D01*
X153963714Y-85351952D01*
X153916095Y-85399571D01*
X153820857Y-85447190D01*
X153439904Y-85447190D01*
X154916095Y-84923380D02*
X154439904Y-84923380D01*
X154392285Y-85399571D01*
X154439904Y-85351952D01*
X154535142Y-85304333D01*
X154773238Y-85304333D01*
X154868476Y-85351952D01*
X154916095Y-85399571D01*
X154963714Y-85494809D01*
X154963714Y-85732904D01*
X154916095Y-85828142D01*
X154868476Y-85875761D01*
X154773238Y-85923380D01*
X154535142Y-85923380D01*
X154439904Y-85875761D01*
X154392285Y-85828142D01*
X123896380Y-74969666D02*
X123420190Y-75303000D01*
X123896380Y-75541095D02*
X122896380Y-75541095D01*
X122896380Y-75160142D01*
X122944000Y-75064904D01*
X122991619Y-75017285D01*
X123086857Y-74969666D01*
X123229714Y-74969666D01*
X123324952Y-75017285D01*
X123372571Y-75064904D01*
X123420190Y-75160142D01*
X123420190Y-75541095D01*
X123229714Y-74112523D02*
X123896380Y-74112523D01*
X122848761Y-74350619D02*
X123563047Y-74588714D01*
X123563047Y-73969666D01*
X131516380Y-75096666D02*
X131040190Y-75430000D01*
X131516380Y-75668095D02*
X130516380Y-75668095D01*
X130516380Y-75287142D01*
X130564000Y-75191904D01*
X130611619Y-75144285D01*
X130706857Y-75096666D01*
X130849714Y-75096666D01*
X130944952Y-75144285D01*
X130992571Y-75191904D01*
X131040190Y-75287142D01*
X131040190Y-75668095D01*
X130516380Y-74763333D02*
X130516380Y-74144285D01*
X130897333Y-74477619D01*
X130897333Y-74334761D01*
X130944952Y-74239523D01*
X130992571Y-74191904D01*
X131087809Y-74144285D01*
X131325904Y-74144285D01*
X131421142Y-74191904D01*
X131468761Y-74239523D01*
X131516380Y-74334761D01*
X131516380Y-74620476D01*
X131468761Y-74715714D01*
X131421142Y-74763333D01*
X139263380Y-74870666D02*
X138787190Y-75204000D01*
X139263380Y-75442095D02*
X138263380Y-75442095D01*
X138263380Y-75061142D01*
X138311000Y-74965904D01*
X138358619Y-74918285D01*
X138453857Y-74870666D01*
X138596714Y-74870666D01*
X138691952Y-74918285D01*
X138739571Y-74965904D01*
X138787190Y-75061142D01*
X138787190Y-75442095D01*
X138358619Y-74489714D02*
X138311000Y-74442095D01*
X138263380Y-74346857D01*
X138263380Y-74108761D01*
X138311000Y-74013523D01*
X138358619Y-73965904D01*
X138453857Y-73918285D01*
X138549095Y-73918285D01*
X138691952Y-73965904D01*
X139263380Y-74537333D01*
X139263380Y-73918285D01*
X147010380Y-74828666D02*
X146534190Y-75162000D01*
X147010380Y-75400095D02*
X146010380Y-75400095D01*
X146010380Y-75019142D01*
X146058000Y-74923904D01*
X146105619Y-74876285D01*
X146200857Y-74828666D01*
X146343714Y-74828666D01*
X146438952Y-74876285D01*
X146486571Y-74923904D01*
X146534190Y-75019142D01*
X146534190Y-75400095D01*
X147010380Y-73876285D02*
X147010380Y-74447714D01*
X147010380Y-74162000D02*
X146010380Y-74162000D01*
X146153238Y-74257238D01*
X146248476Y-74352476D01*
X146296095Y-74447714D01*
X141297066Y-108621580D02*
X141297066Y-109335866D01*
X141249447Y-109478723D01*
X141154209Y-109573961D01*
X141011352Y-109621580D01*
X140916114Y-109621580D01*
X142201828Y-108621580D02*
X142011352Y-108621580D01*
X141916114Y-108669200D01*
X141868495Y-108716819D01*
X141773257Y-108859676D01*
X141725638Y-109050152D01*
X141725638Y-109431104D01*
X141773257Y-109526342D01*
X141820876Y-109573961D01*
X141916114Y-109621580D01*
X142106590Y-109621580D01*
X142201828Y-109573961D01*
X142249447Y-109526342D01*
X142297066Y-109431104D01*
X142297066Y-109193009D01*
X142249447Y-109097771D01*
X142201828Y-109050152D01*
X142106590Y-109002533D01*
X141916114Y-109002533D01*
X141820876Y-109050152D01*
X141773257Y-109097771D01*
X141725638Y-109193009D01*
X122221666Y-107402380D02*
X122221666Y-108116666D01*
X122174047Y-108259523D01*
X122078809Y-108354761D01*
X121935952Y-108402380D01*
X121840714Y-108402380D01*
X123174047Y-107402380D02*
X122697857Y-107402380D01*
X122650238Y-107878571D01*
X122697857Y-107830952D01*
X122793095Y-107783333D01*
X123031190Y-107783333D01*
X123126428Y-107830952D01*
X123174047Y-107878571D01*
X123221666Y-107973809D01*
X123221666Y-108211904D01*
X123174047Y-108307142D01*
X123126428Y-108354761D01*
X123031190Y-108402380D01*
X122793095Y-108402380D01*
X122697857Y-108354761D01*
X122650238Y-108307142D01*
X146844666Y-101897380D02*
X146844666Y-102611666D01*
X146797047Y-102754523D01*
X146701809Y-102849761D01*
X146558952Y-102897380D01*
X146463714Y-102897380D01*
X147749428Y-102230714D02*
X147749428Y-102897380D01*
X147511333Y-101849761D02*
X147273238Y-102564047D01*
X147892285Y-102564047D01*
X114831904Y-99575880D02*
X114831904Y-98575880D01*
X115070000Y-98575880D01*
X115212857Y-98623500D01*
X115308095Y-98718738D01*
X115355714Y-98813976D01*
X115403333Y-99004452D01*
X115403333Y-99147309D01*
X115355714Y-99337785D01*
X115308095Y-99433023D01*
X115212857Y-99528261D01*
X115070000Y-99575880D01*
X114831904Y-99575880D01*
X116260476Y-98575880D02*
X116070000Y-98575880D01*
X115974761Y-98623500D01*
X115927142Y-98671119D01*
X115831904Y-98813976D01*
X115784285Y-99004452D01*
X115784285Y-99385404D01*
X115831904Y-99480642D01*
X115879523Y-99528261D01*
X115974761Y-99575880D01*
X116165238Y-99575880D01*
X116260476Y-99528261D01*
X116308095Y-99480642D01*
X116355714Y-99385404D01*
X116355714Y-99147309D01*
X116308095Y-99052071D01*
X116260476Y-99004452D01*
X116165238Y-98956833D01*
X115974761Y-98956833D01*
X115879523Y-99004452D01*
X115831904Y-99052071D01*
X115784285Y-99147309D01*
X114768404Y-95130880D02*
X114768404Y-94130880D01*
X115006500Y-94130880D01*
X115149357Y-94178500D01*
X115244595Y-94273738D01*
X115292214Y-94368976D01*
X115339833Y-94559452D01*
X115339833Y-94702309D01*
X115292214Y-94892785D01*
X115244595Y-94988023D01*
X115149357Y-95083261D01*
X115006500Y-95130880D01*
X114768404Y-95130880D01*
X116244595Y-94130880D02*
X115768404Y-94130880D01*
X115720785Y-94607071D01*
X115768404Y-94559452D01*
X115863642Y-94511833D01*
X116101738Y-94511833D01*
X116196976Y-94559452D01*
X116244595Y-94607071D01*
X116292214Y-94702309D01*
X116292214Y-94940404D01*
X116244595Y-95035642D01*
X116196976Y-95083261D01*
X116101738Y-95130880D01*
X115863642Y-95130880D01*
X115768404Y-95083261D01*
X115720785Y-95035642D01*
X114768404Y-91955880D02*
X114768404Y-90955880D01*
X115006500Y-90955880D01*
X115149357Y-91003500D01*
X115244595Y-91098738D01*
X115292214Y-91193976D01*
X115339833Y-91384452D01*
X115339833Y-91527309D01*
X115292214Y-91717785D01*
X115244595Y-91813023D01*
X115149357Y-91908261D01*
X115006500Y-91955880D01*
X114768404Y-91955880D01*
X116196976Y-91289214D02*
X116196976Y-91955880D01*
X115958880Y-90908261D02*
X115720785Y-91622547D01*
X116339833Y-91622547D01*
X123570380Y-105914095D02*
X122570380Y-105914095D01*
X122570380Y-105676000D01*
X122618000Y-105533142D01*
X122713238Y-105437904D01*
X122808476Y-105390285D01*
X122998952Y-105342666D01*
X123141809Y-105342666D01*
X123332285Y-105390285D01*
X123427523Y-105437904D01*
X123522761Y-105533142D01*
X123570380Y-105676000D01*
X123570380Y-105914095D01*
X122570380Y-105009333D02*
X122570380Y-104390285D01*
X122951333Y-104723619D01*
X122951333Y-104580761D01*
X122998952Y-104485523D01*
X123046571Y-104437904D01*
X123141809Y-104390285D01*
X123379904Y-104390285D01*
X123475142Y-104437904D01*
X123522761Y-104485523D01*
X123570380Y-104580761D01*
X123570380Y-104866476D01*
X123522761Y-104961714D01*
X123475142Y-105009333D01*
X114768404Y-86240880D02*
X114768404Y-85240880D01*
X115006500Y-85240880D01*
X115149357Y-85288500D01*
X115244595Y-85383738D01*
X115292214Y-85478976D01*
X115339833Y-85669452D01*
X115339833Y-85812309D01*
X115292214Y-86002785D01*
X115244595Y-86098023D01*
X115149357Y-86193261D01*
X115006500Y-86240880D01*
X114768404Y-86240880D01*
X115720785Y-85336119D02*
X115768404Y-85288500D01*
X115863642Y-85240880D01*
X116101738Y-85240880D01*
X116196976Y-85288500D01*
X116244595Y-85336119D01*
X116292214Y-85431357D01*
X116292214Y-85526595D01*
X116244595Y-85669452D01*
X115673166Y-86240880D01*
X116292214Y-86240880D01*
X114768404Y-83065880D02*
X114768404Y-82065880D01*
X115006500Y-82065880D01*
X115149357Y-82113500D01*
X115244595Y-82208738D01*
X115292214Y-82303976D01*
X115339833Y-82494452D01*
X115339833Y-82637309D01*
X115292214Y-82827785D01*
X115244595Y-82923023D01*
X115149357Y-83018261D01*
X115006500Y-83065880D01*
X114768404Y-83065880D01*
X116292214Y-83065880D02*
X115720785Y-83065880D01*
X116006500Y-83065880D02*
X116006500Y-82065880D01*
X115911261Y-82208738D01*
X115816023Y-82303976D01*
X115720785Y-82351595D01*
X134596142Y-102573057D02*
X134643761Y-102620676D01*
X134691380Y-102763533D01*
X134691380Y-102858771D01*
X134643761Y-103001628D01*
X134548523Y-103096866D01*
X134453285Y-103144485D01*
X134262809Y-103192104D01*
X134119952Y-103192104D01*
X133929476Y-103144485D01*
X133834238Y-103096866D01*
X133739000Y-103001628D01*
X133691380Y-102858771D01*
X133691380Y-102763533D01*
X133739000Y-102620676D01*
X133786619Y-102573057D01*
X134691380Y-101620676D02*
X134691380Y-102192104D01*
X134691380Y-101906390D02*
X133691380Y-101906390D01*
X133834238Y-102001628D01*
X133929476Y-102096866D01*
X133977095Y-102192104D01*
X133691380Y-101287342D02*
X133691380Y-100668295D01*
X134072333Y-101001628D01*
X134072333Y-100858771D01*
X134119952Y-100763533D01*
X134167571Y-100715914D01*
X134262809Y-100668295D01*
X134500904Y-100668295D01*
X134596142Y-100715914D01*
X134643761Y-100763533D01*
X134691380Y-100858771D01*
X134691380Y-101144485D01*
X134643761Y-101239723D01*
X134596142Y-101287342D01*
X142063742Y-102522257D02*
X142111361Y-102569876D01*
X142158980Y-102712733D01*
X142158980Y-102807971D01*
X142111361Y-102950828D01*
X142016123Y-103046066D01*
X141920885Y-103093685D01*
X141730409Y-103141304D01*
X141587552Y-103141304D01*
X141397076Y-103093685D01*
X141301838Y-103046066D01*
X141206600Y-102950828D01*
X141158980Y-102807971D01*
X141158980Y-102712733D01*
X141206600Y-102569876D01*
X141254219Y-102522257D01*
X142158980Y-101569876D02*
X142158980Y-102141304D01*
X142158980Y-101855590D02*
X141158980Y-101855590D01*
X141301838Y-101950828D01*
X141397076Y-102046066D01*
X141444695Y-102141304D01*
X141254219Y-101188923D02*
X141206600Y-101141304D01*
X141158980Y-101046066D01*
X141158980Y-100807971D01*
X141206600Y-100712733D01*
X141254219Y-100665114D01*
X141349457Y-100617495D01*
X141444695Y-100617495D01*
X141587552Y-100665114D01*
X142158980Y-101236542D01*
X142158980Y-100617495D01*
X132056142Y-105925857D02*
X132103761Y-105973476D01*
X132151380Y-106116333D01*
X132151380Y-106211571D01*
X132103761Y-106354428D01*
X132008523Y-106449666D01*
X131913285Y-106497285D01*
X131722809Y-106544904D01*
X131579952Y-106544904D01*
X131389476Y-106497285D01*
X131294238Y-106449666D01*
X131199000Y-106354428D01*
X131151380Y-106211571D01*
X131151380Y-106116333D01*
X131199000Y-105973476D01*
X131246619Y-105925857D01*
X132151380Y-104973476D02*
X132151380Y-105544904D01*
X132151380Y-105259190D02*
X131151380Y-105259190D01*
X131294238Y-105354428D01*
X131389476Y-105449666D01*
X131437095Y-105544904D01*
X132151380Y-104021095D02*
X132151380Y-104592523D01*
X132151380Y-104306809D02*
X131151380Y-104306809D01*
X131294238Y-104402047D01*
X131389476Y-104497285D01*
X131437095Y-104592523D01*
X134342142Y-96527857D02*
X134389761Y-96575476D01*
X134437380Y-96718333D01*
X134437380Y-96813571D01*
X134389761Y-96956428D01*
X134294523Y-97051666D01*
X134199285Y-97099285D01*
X134008809Y-97146904D01*
X133865952Y-97146904D01*
X133675476Y-97099285D01*
X133580238Y-97051666D01*
X133485000Y-96956428D01*
X133437380Y-96813571D01*
X133437380Y-96718333D01*
X133485000Y-96575476D01*
X133532619Y-96527857D01*
X134437380Y-95575476D02*
X134437380Y-96146904D01*
X134437380Y-95861190D02*
X133437380Y-95861190D01*
X133580238Y-95956428D01*
X133675476Y-96051666D01*
X133723095Y-96146904D01*
X133437380Y-94956428D02*
X133437380Y-94861190D01*
X133485000Y-94765952D01*
X133532619Y-94718333D01*
X133627857Y-94670714D01*
X133818333Y-94623095D01*
X134056428Y-94623095D01*
X134246904Y-94670714D01*
X134342142Y-94718333D01*
X134389761Y-94765952D01*
X134437380Y-94861190D01*
X134437380Y-94956428D01*
X134389761Y-95051666D01*
X134342142Y-95099285D01*
X134246904Y-95146904D01*
X134056428Y-95194523D01*
X133818333Y-95194523D01*
X133627857Y-95146904D01*
X133532619Y-95099285D01*
X133485000Y-95051666D01*
X133437380Y-94956428D01*
X142581333Y-91924142D02*
X142533714Y-91971761D01*
X142390857Y-92019380D01*
X142295619Y-92019380D01*
X142152761Y-91971761D01*
X142057523Y-91876523D01*
X142009904Y-91781285D01*
X141962285Y-91590809D01*
X141962285Y-91447952D01*
X142009904Y-91257476D01*
X142057523Y-91162238D01*
X142152761Y-91067000D01*
X142295619Y-91019380D01*
X142390857Y-91019380D01*
X142533714Y-91067000D01*
X142581333Y-91114619D01*
X143057523Y-92019380D02*
X143248000Y-92019380D01*
X143343238Y-91971761D01*
X143390857Y-91924142D01*
X143486095Y-91781285D01*
X143533714Y-91590809D01*
X143533714Y-91209857D01*
X143486095Y-91114619D01*
X143438476Y-91067000D01*
X143343238Y-91019380D01*
X143152761Y-91019380D01*
X143057523Y-91067000D01*
X143009904Y-91114619D01*
X142962285Y-91209857D01*
X142962285Y-91447952D01*
X143009904Y-91543190D01*
X143057523Y-91590809D01*
X143152761Y-91638428D01*
X143343238Y-91638428D01*
X143438476Y-91590809D01*
X143486095Y-91543190D01*
X143533714Y-91447952D01*
X142581333Y-100052142D02*
X142533714Y-100099761D01*
X142390857Y-100147380D01*
X142295619Y-100147380D01*
X142152761Y-100099761D01*
X142057523Y-100004523D01*
X142009904Y-99909285D01*
X141962285Y-99718809D01*
X141962285Y-99575952D01*
X142009904Y-99385476D01*
X142057523Y-99290238D01*
X142152761Y-99195000D01*
X142295619Y-99147380D01*
X142390857Y-99147380D01*
X142533714Y-99195000D01*
X142581333Y-99242619D01*
X143152761Y-99575952D02*
X143057523Y-99528333D01*
X143009904Y-99480714D01*
X142962285Y-99385476D01*
X142962285Y-99337857D01*
X143009904Y-99242619D01*
X143057523Y-99195000D01*
X143152761Y-99147380D01*
X143343238Y-99147380D01*
X143438476Y-99195000D01*
X143486095Y-99242619D01*
X143533714Y-99337857D01*
X143533714Y-99385476D01*
X143486095Y-99480714D01*
X143438476Y-99528333D01*
X143343238Y-99575952D01*
X143152761Y-99575952D01*
X143057523Y-99623571D01*
X143009904Y-99671190D01*
X142962285Y-99766428D01*
X142962285Y-99956904D01*
X143009904Y-100052142D01*
X143057523Y-100099761D01*
X143152761Y-100147380D01*
X143343238Y-100147380D01*
X143438476Y-100099761D01*
X143486095Y-100052142D01*
X143533714Y-99956904D01*
X143533714Y-99766428D01*
X143486095Y-99671190D01*
X143438476Y-99623571D01*
X143343238Y-99575952D01*
X136282133Y-80367142D02*
X136234514Y-80414761D01*
X136091657Y-80462380D01*
X135996419Y-80462380D01*
X135853561Y-80414761D01*
X135758323Y-80319523D01*
X135710704Y-80224285D01*
X135663085Y-80033809D01*
X135663085Y-79890952D01*
X135710704Y-79700476D01*
X135758323Y-79605238D01*
X135853561Y-79510000D01*
X135996419Y-79462380D01*
X136091657Y-79462380D01*
X136234514Y-79510000D01*
X136282133Y-79557619D01*
X137139276Y-79462380D02*
X136948800Y-79462380D01*
X136853561Y-79510000D01*
X136805942Y-79557619D01*
X136710704Y-79700476D01*
X136663085Y-79890952D01*
X136663085Y-80271904D01*
X136710704Y-80367142D01*
X136758323Y-80414761D01*
X136853561Y-80462380D01*
X137044038Y-80462380D01*
X137139276Y-80414761D01*
X137186895Y-80367142D01*
X137234514Y-80271904D01*
X137234514Y-80033809D01*
X137186895Y-79938571D01*
X137139276Y-79890952D01*
X137044038Y-79843333D01*
X136853561Y-79843333D01*
X136758323Y-79890952D01*
X136710704Y-79938571D01*
X136663085Y-80033809D01*
X115339833Y-89257142D02*
X115292214Y-89304761D01*
X115149357Y-89352380D01*
X115054119Y-89352380D01*
X114911261Y-89304761D01*
X114816023Y-89209523D01*
X114768404Y-89114285D01*
X114720785Y-88923809D01*
X114720785Y-88780952D01*
X114768404Y-88590476D01*
X114816023Y-88495238D01*
X114911261Y-88400000D01*
X115054119Y-88352380D01*
X115149357Y-88352380D01*
X115292214Y-88400000D01*
X115339833Y-88447619D01*
X116244595Y-88352380D02*
X115768404Y-88352380D01*
X115720785Y-88828571D01*
X115768404Y-88780952D01*
X115863642Y-88733333D01*
X116101738Y-88733333D01*
X116196976Y-88780952D01*
X116244595Y-88828571D01*
X116292214Y-88923809D01*
X116292214Y-89161904D01*
X116244595Y-89257142D01*
X116196976Y-89304761D01*
X116101738Y-89352380D01*
X115863642Y-89352380D01*
X115768404Y-89304761D01*
X115720785Y-89257142D01*
X156170333Y-81764142D02*
X156122714Y-81811761D01*
X155979857Y-81859380D01*
X155884619Y-81859380D01*
X155741761Y-81811761D01*
X155646523Y-81716523D01*
X155598904Y-81621285D01*
X155551285Y-81430809D01*
X155551285Y-81287952D01*
X155598904Y-81097476D01*
X155646523Y-81002238D01*
X155741761Y-80907000D01*
X155884619Y-80859380D01*
X155979857Y-80859380D01*
X156122714Y-80907000D01*
X156170333Y-80954619D01*
X157122714Y-81859380D02*
X156551285Y-81859380D01*
X156837000Y-81859380D02*
X156837000Y-80859380D01*
X156741761Y-81002238D01*
X156646523Y-81097476D01*
X156551285Y-81145095D01*
M02*
