G04 #@! TF.GenerationSoftware,KiCad,Pcbnew,(5.1.4)-1*
G04 #@! TF.CreationDate,2019-10-27T13:28:14-04:00*
G04 #@! TF.ProjectId,wiproc,77697072-6f63-42e6-9b69-6361645f7063,rev?*
G04 #@! TF.SameCoordinates,Original*
G04 #@! TF.FileFunction,Copper,L1,Top*
G04 #@! TF.FilePolarity,Positive*
%FSLAX46Y46*%
G04 Gerber Fmt 4.6, Leading zero omitted, Abs format (unit mm)*
G04 Created by KiCad (PCBNEW (5.1.4)-1) date 2019-10-27 13:28:14*
%MOMM*%
%LPD*%
G04 APERTURE LIST*
%ADD10R,1.000000X1.700000*%
%ADD11C,0.100000*%
%ADD12C,0.950000*%
%ADD13O,1.700000X1.700000*%
%ADD14R,1.700000X1.700000*%
%ADD15C,7.000001*%
%ADD16O,1.350000X1.350000*%
%ADD17R,1.350000X1.350000*%
%ADD18R,0.640000X2.000000*%
%ADD19R,3.500000X1.200000*%
%ADD20R,1.200000X0.400000*%
%ADD21R,0.650000X1.060000*%
%ADD22R,1.175000X1.900000*%
%ADD23R,2.375000X1.900000*%
%ADD24R,1.475000X2.100000*%
%ADD25R,0.450000X1.380000*%
%ADD26R,3.150000X1.000000*%
%ADD27C,1.150000*%
%ADD28R,1.000000X1.000000*%
%ADD29C,0.838200*%
%ADD30C,0.685800*%
%ADD31C,0.635000*%
%ADD32C,0.152400*%
%ADD33C,0.304800*%
%ADD34C,0.200000*%
G04 APERTURE END LIST*
D10*
X144516000Y-71653000D03*
X144516000Y-77953000D03*
X140716000Y-71653000D03*
X140716000Y-77953000D03*
X136779000Y-71653000D03*
X136779000Y-77953000D03*
X132979000Y-71653000D03*
X132979000Y-77953000D03*
D11*
G36*
X141574179Y-80907744D02*
G01*
X141597234Y-80911163D01*
X141619843Y-80916827D01*
X141641787Y-80924679D01*
X141662857Y-80934644D01*
X141682848Y-80946626D01*
X141701568Y-80960510D01*
X141718838Y-80976162D01*
X141734490Y-80993432D01*
X141748374Y-81012152D01*
X141760356Y-81032143D01*
X141770321Y-81053213D01*
X141778173Y-81075157D01*
X141783837Y-81097766D01*
X141787256Y-81120821D01*
X141788400Y-81144100D01*
X141788400Y-81619100D01*
X141787256Y-81642379D01*
X141783837Y-81665434D01*
X141778173Y-81688043D01*
X141770321Y-81709987D01*
X141760356Y-81731057D01*
X141748374Y-81751048D01*
X141734490Y-81769768D01*
X141718838Y-81787038D01*
X141701568Y-81802690D01*
X141682848Y-81816574D01*
X141662857Y-81828556D01*
X141641787Y-81838521D01*
X141619843Y-81846373D01*
X141597234Y-81852037D01*
X141574179Y-81855456D01*
X141550900Y-81856600D01*
X140975900Y-81856600D01*
X140952621Y-81855456D01*
X140929566Y-81852037D01*
X140906957Y-81846373D01*
X140885013Y-81838521D01*
X140863943Y-81828556D01*
X140843952Y-81816574D01*
X140825232Y-81802690D01*
X140807962Y-81787038D01*
X140792310Y-81769768D01*
X140778426Y-81751048D01*
X140766444Y-81731057D01*
X140756479Y-81709987D01*
X140748627Y-81688043D01*
X140742963Y-81665434D01*
X140739544Y-81642379D01*
X140738400Y-81619100D01*
X140738400Y-81144100D01*
X140739544Y-81120821D01*
X140742963Y-81097766D01*
X140748627Y-81075157D01*
X140756479Y-81053213D01*
X140766444Y-81032143D01*
X140778426Y-81012152D01*
X140792310Y-80993432D01*
X140807962Y-80976162D01*
X140825232Y-80960510D01*
X140843952Y-80946626D01*
X140863943Y-80934644D01*
X140885013Y-80924679D01*
X140906957Y-80916827D01*
X140929566Y-80911163D01*
X140952621Y-80907744D01*
X140975900Y-80906600D01*
X141550900Y-80906600D01*
X141574179Y-80907744D01*
X141574179Y-80907744D01*
G37*
D12*
X141263400Y-81381600D03*
D11*
G36*
X143324179Y-80907744D02*
G01*
X143347234Y-80911163D01*
X143369843Y-80916827D01*
X143391787Y-80924679D01*
X143412857Y-80934644D01*
X143432848Y-80946626D01*
X143451568Y-80960510D01*
X143468838Y-80976162D01*
X143484490Y-80993432D01*
X143498374Y-81012152D01*
X143510356Y-81032143D01*
X143520321Y-81053213D01*
X143528173Y-81075157D01*
X143533837Y-81097766D01*
X143537256Y-81120821D01*
X143538400Y-81144100D01*
X143538400Y-81619100D01*
X143537256Y-81642379D01*
X143533837Y-81665434D01*
X143528173Y-81688043D01*
X143520321Y-81709987D01*
X143510356Y-81731057D01*
X143498374Y-81751048D01*
X143484490Y-81769768D01*
X143468838Y-81787038D01*
X143451568Y-81802690D01*
X143432848Y-81816574D01*
X143412857Y-81828556D01*
X143391787Y-81838521D01*
X143369843Y-81846373D01*
X143347234Y-81852037D01*
X143324179Y-81855456D01*
X143300900Y-81856600D01*
X142725900Y-81856600D01*
X142702621Y-81855456D01*
X142679566Y-81852037D01*
X142656957Y-81846373D01*
X142635013Y-81838521D01*
X142613943Y-81828556D01*
X142593952Y-81816574D01*
X142575232Y-81802690D01*
X142557962Y-81787038D01*
X142542310Y-81769768D01*
X142528426Y-81751048D01*
X142516444Y-81731057D01*
X142506479Y-81709987D01*
X142498627Y-81688043D01*
X142492963Y-81665434D01*
X142489544Y-81642379D01*
X142488400Y-81619100D01*
X142488400Y-81144100D01*
X142489544Y-81120821D01*
X142492963Y-81097766D01*
X142498627Y-81075157D01*
X142506479Y-81053213D01*
X142516444Y-81032143D01*
X142528426Y-81012152D01*
X142542310Y-80993432D01*
X142557962Y-80976162D01*
X142575232Y-80960510D01*
X142593952Y-80946626D01*
X142613943Y-80934644D01*
X142635013Y-80924679D01*
X142656957Y-80916827D01*
X142679566Y-80911163D01*
X142702621Y-80907744D01*
X142725900Y-80906600D01*
X143300900Y-80906600D01*
X143324179Y-80907744D01*
X143324179Y-80907744D01*
G37*
D12*
X143013400Y-81381600D03*
D13*
X159766000Y-99441000D03*
X157226000Y-99441000D03*
X159766000Y-96901000D03*
X157226000Y-96901000D03*
X159766000Y-94361000D03*
X157226000Y-94361000D03*
X159766000Y-91821000D03*
X157226000Y-91821000D03*
X159766000Y-89281000D03*
X157226000Y-89281000D03*
X159766000Y-86741000D03*
X157226000Y-86741000D03*
X159766000Y-84201000D03*
D14*
X157226000Y-84201000D03*
D15*
X158115000Y-73660000D03*
X158115000Y-107950000D03*
X116840000Y-107950000D03*
X116840000Y-73660000D03*
D16*
X146710400Y-81288600D03*
X146710400Y-83288600D03*
X146710400Y-85288600D03*
X146710400Y-87288600D03*
X146710400Y-89288600D03*
X146710400Y-91288600D03*
X146710400Y-93288600D03*
X146710400Y-95288600D03*
X146710400Y-97288600D03*
D17*
X146710400Y-99288600D03*
D16*
X124714000Y-99280000D03*
X124714000Y-97280000D03*
X124714000Y-95280000D03*
X124714000Y-93280000D03*
X124714000Y-91280000D03*
X124714000Y-89280000D03*
X124714000Y-87280000D03*
X124714000Y-85280000D03*
X124714000Y-83280000D03*
D17*
X124714000Y-81280000D03*
D18*
X127508000Y-94132000D03*
X128778000Y-94132000D03*
X130048000Y-94132000D03*
X130048000Y-100432000D03*
X127508000Y-100432000D03*
D19*
X137541000Y-84455000D03*
X143041000Y-84455000D03*
D20*
X140903000Y-92519500D03*
X140903000Y-93154500D03*
X140903000Y-93789500D03*
X140903000Y-94424500D03*
X140903000Y-95059500D03*
X140903000Y-95694500D03*
X140903000Y-96329500D03*
X140903000Y-96964500D03*
X140903000Y-97599500D03*
X140903000Y-98234500D03*
X135703000Y-98234500D03*
X135703000Y-97599500D03*
X135703000Y-96964500D03*
X135703000Y-96329500D03*
X135703000Y-95694500D03*
X135703000Y-95059500D03*
X135703000Y-94424500D03*
X135703000Y-93789500D03*
X135703000Y-93154500D03*
X135703000Y-92519500D03*
D21*
X129032000Y-89027000D03*
X128082000Y-89027000D03*
X129982000Y-89027000D03*
X129982000Y-91227000D03*
X129032000Y-91227000D03*
X128082000Y-91227000D03*
D10*
X152268000Y-71653000D03*
X152268000Y-77953000D03*
X148468000Y-71653000D03*
X148468000Y-77953000D03*
X129154000Y-71653000D03*
X129154000Y-77953000D03*
X125354000Y-71653000D03*
X125354000Y-77953000D03*
D11*
G36*
X120706779Y-100173644D02*
G01*
X120729834Y-100177063D01*
X120752443Y-100182727D01*
X120774387Y-100190579D01*
X120795457Y-100200544D01*
X120815448Y-100212526D01*
X120834168Y-100226410D01*
X120851438Y-100242062D01*
X120867090Y-100259332D01*
X120880974Y-100278052D01*
X120892956Y-100298043D01*
X120902921Y-100319113D01*
X120910773Y-100341057D01*
X120916437Y-100363666D01*
X120919856Y-100386721D01*
X120921000Y-100410000D01*
X120921000Y-100885000D01*
X120919856Y-100908279D01*
X120916437Y-100931334D01*
X120910773Y-100953943D01*
X120902921Y-100975887D01*
X120892956Y-100996957D01*
X120880974Y-101016948D01*
X120867090Y-101035668D01*
X120851438Y-101052938D01*
X120834168Y-101068590D01*
X120815448Y-101082474D01*
X120795457Y-101094456D01*
X120774387Y-101104421D01*
X120752443Y-101112273D01*
X120729834Y-101117937D01*
X120706779Y-101121356D01*
X120683500Y-101122500D01*
X120108500Y-101122500D01*
X120085221Y-101121356D01*
X120062166Y-101117937D01*
X120039557Y-101112273D01*
X120017613Y-101104421D01*
X119996543Y-101094456D01*
X119976552Y-101082474D01*
X119957832Y-101068590D01*
X119940562Y-101052938D01*
X119924910Y-101035668D01*
X119911026Y-101016948D01*
X119899044Y-100996957D01*
X119889079Y-100975887D01*
X119881227Y-100953943D01*
X119875563Y-100931334D01*
X119872144Y-100908279D01*
X119871000Y-100885000D01*
X119871000Y-100410000D01*
X119872144Y-100386721D01*
X119875563Y-100363666D01*
X119881227Y-100341057D01*
X119889079Y-100319113D01*
X119899044Y-100298043D01*
X119911026Y-100278052D01*
X119924910Y-100259332D01*
X119940562Y-100242062D01*
X119957832Y-100226410D01*
X119976552Y-100212526D01*
X119996543Y-100200544D01*
X120017613Y-100190579D01*
X120039557Y-100182727D01*
X120062166Y-100177063D01*
X120085221Y-100173644D01*
X120108500Y-100172500D01*
X120683500Y-100172500D01*
X120706779Y-100173644D01*
X120706779Y-100173644D01*
G37*
D12*
X120396000Y-100647500D03*
D11*
G36*
X118956779Y-100173644D02*
G01*
X118979834Y-100177063D01*
X119002443Y-100182727D01*
X119024387Y-100190579D01*
X119045457Y-100200544D01*
X119065448Y-100212526D01*
X119084168Y-100226410D01*
X119101438Y-100242062D01*
X119117090Y-100259332D01*
X119130974Y-100278052D01*
X119142956Y-100298043D01*
X119152921Y-100319113D01*
X119160773Y-100341057D01*
X119166437Y-100363666D01*
X119169856Y-100386721D01*
X119171000Y-100410000D01*
X119171000Y-100885000D01*
X119169856Y-100908279D01*
X119166437Y-100931334D01*
X119160773Y-100953943D01*
X119152921Y-100975887D01*
X119142956Y-100996957D01*
X119130974Y-101016948D01*
X119117090Y-101035668D01*
X119101438Y-101052938D01*
X119084168Y-101068590D01*
X119065448Y-101082474D01*
X119045457Y-101094456D01*
X119024387Y-101104421D01*
X119002443Y-101112273D01*
X118979834Y-101117937D01*
X118956779Y-101121356D01*
X118933500Y-101122500D01*
X118358500Y-101122500D01*
X118335221Y-101121356D01*
X118312166Y-101117937D01*
X118289557Y-101112273D01*
X118267613Y-101104421D01*
X118246543Y-101094456D01*
X118226552Y-101082474D01*
X118207832Y-101068590D01*
X118190562Y-101052938D01*
X118174910Y-101035668D01*
X118161026Y-101016948D01*
X118149044Y-100996957D01*
X118139079Y-100975887D01*
X118131227Y-100953943D01*
X118125563Y-100931334D01*
X118122144Y-100908279D01*
X118121000Y-100885000D01*
X118121000Y-100410000D01*
X118122144Y-100386721D01*
X118125563Y-100363666D01*
X118131227Y-100341057D01*
X118139079Y-100319113D01*
X118149044Y-100298043D01*
X118161026Y-100278052D01*
X118174910Y-100259332D01*
X118190562Y-100242062D01*
X118207832Y-100226410D01*
X118226552Y-100212526D01*
X118246543Y-100200544D01*
X118267613Y-100190579D01*
X118289557Y-100182727D01*
X118312166Y-100177063D01*
X118335221Y-100173644D01*
X118358500Y-100172500D01*
X118933500Y-100172500D01*
X118956779Y-100173644D01*
X118956779Y-100173644D01*
G37*
D12*
X118646000Y-100647500D03*
D11*
G36*
X120615279Y-95728644D02*
G01*
X120638334Y-95732063D01*
X120660943Y-95737727D01*
X120682887Y-95745579D01*
X120703957Y-95755544D01*
X120723948Y-95767526D01*
X120742668Y-95781410D01*
X120759938Y-95797062D01*
X120775590Y-95814332D01*
X120789474Y-95833052D01*
X120801456Y-95853043D01*
X120811421Y-95874113D01*
X120819273Y-95896057D01*
X120824937Y-95918666D01*
X120828356Y-95941721D01*
X120829500Y-95965000D01*
X120829500Y-96440000D01*
X120828356Y-96463279D01*
X120824937Y-96486334D01*
X120819273Y-96508943D01*
X120811421Y-96530887D01*
X120801456Y-96551957D01*
X120789474Y-96571948D01*
X120775590Y-96590668D01*
X120759938Y-96607938D01*
X120742668Y-96623590D01*
X120723948Y-96637474D01*
X120703957Y-96649456D01*
X120682887Y-96659421D01*
X120660943Y-96667273D01*
X120638334Y-96672937D01*
X120615279Y-96676356D01*
X120592000Y-96677500D01*
X120017000Y-96677500D01*
X119993721Y-96676356D01*
X119970666Y-96672937D01*
X119948057Y-96667273D01*
X119926113Y-96659421D01*
X119905043Y-96649456D01*
X119885052Y-96637474D01*
X119866332Y-96623590D01*
X119849062Y-96607938D01*
X119833410Y-96590668D01*
X119819526Y-96571948D01*
X119807544Y-96551957D01*
X119797579Y-96530887D01*
X119789727Y-96508943D01*
X119784063Y-96486334D01*
X119780644Y-96463279D01*
X119779500Y-96440000D01*
X119779500Y-95965000D01*
X119780644Y-95941721D01*
X119784063Y-95918666D01*
X119789727Y-95896057D01*
X119797579Y-95874113D01*
X119807544Y-95853043D01*
X119819526Y-95833052D01*
X119833410Y-95814332D01*
X119849062Y-95797062D01*
X119866332Y-95781410D01*
X119885052Y-95767526D01*
X119905043Y-95755544D01*
X119926113Y-95745579D01*
X119948057Y-95737727D01*
X119970666Y-95732063D01*
X119993721Y-95728644D01*
X120017000Y-95727500D01*
X120592000Y-95727500D01*
X120615279Y-95728644D01*
X120615279Y-95728644D01*
G37*
D12*
X120304500Y-96202500D03*
D11*
G36*
X118865279Y-95728644D02*
G01*
X118888334Y-95732063D01*
X118910943Y-95737727D01*
X118932887Y-95745579D01*
X118953957Y-95755544D01*
X118973948Y-95767526D01*
X118992668Y-95781410D01*
X119009938Y-95797062D01*
X119025590Y-95814332D01*
X119039474Y-95833052D01*
X119051456Y-95853043D01*
X119061421Y-95874113D01*
X119069273Y-95896057D01*
X119074937Y-95918666D01*
X119078356Y-95941721D01*
X119079500Y-95965000D01*
X119079500Y-96440000D01*
X119078356Y-96463279D01*
X119074937Y-96486334D01*
X119069273Y-96508943D01*
X119061421Y-96530887D01*
X119051456Y-96551957D01*
X119039474Y-96571948D01*
X119025590Y-96590668D01*
X119009938Y-96607938D01*
X118992668Y-96623590D01*
X118973948Y-96637474D01*
X118953957Y-96649456D01*
X118932887Y-96659421D01*
X118910943Y-96667273D01*
X118888334Y-96672937D01*
X118865279Y-96676356D01*
X118842000Y-96677500D01*
X118267000Y-96677500D01*
X118243721Y-96676356D01*
X118220666Y-96672937D01*
X118198057Y-96667273D01*
X118176113Y-96659421D01*
X118155043Y-96649456D01*
X118135052Y-96637474D01*
X118116332Y-96623590D01*
X118099062Y-96607938D01*
X118083410Y-96590668D01*
X118069526Y-96571948D01*
X118057544Y-96551957D01*
X118047579Y-96530887D01*
X118039727Y-96508943D01*
X118034063Y-96486334D01*
X118030644Y-96463279D01*
X118029500Y-96440000D01*
X118029500Y-95965000D01*
X118030644Y-95941721D01*
X118034063Y-95918666D01*
X118039727Y-95896057D01*
X118047579Y-95874113D01*
X118057544Y-95853043D01*
X118069526Y-95833052D01*
X118083410Y-95814332D01*
X118099062Y-95797062D01*
X118116332Y-95781410D01*
X118135052Y-95767526D01*
X118155043Y-95755544D01*
X118176113Y-95745579D01*
X118198057Y-95737727D01*
X118220666Y-95732063D01*
X118243721Y-95728644D01*
X118267000Y-95727500D01*
X118842000Y-95727500D01*
X118865279Y-95728644D01*
X118865279Y-95728644D01*
G37*
D12*
X118554500Y-96202500D03*
D11*
G36*
X120615279Y-92617144D02*
G01*
X120638334Y-92620563D01*
X120660943Y-92626227D01*
X120682887Y-92634079D01*
X120703957Y-92644044D01*
X120723948Y-92656026D01*
X120742668Y-92669910D01*
X120759938Y-92685562D01*
X120775590Y-92702832D01*
X120789474Y-92721552D01*
X120801456Y-92741543D01*
X120811421Y-92762613D01*
X120819273Y-92784557D01*
X120824937Y-92807166D01*
X120828356Y-92830221D01*
X120829500Y-92853500D01*
X120829500Y-93328500D01*
X120828356Y-93351779D01*
X120824937Y-93374834D01*
X120819273Y-93397443D01*
X120811421Y-93419387D01*
X120801456Y-93440457D01*
X120789474Y-93460448D01*
X120775590Y-93479168D01*
X120759938Y-93496438D01*
X120742668Y-93512090D01*
X120723948Y-93525974D01*
X120703957Y-93537956D01*
X120682887Y-93547921D01*
X120660943Y-93555773D01*
X120638334Y-93561437D01*
X120615279Y-93564856D01*
X120592000Y-93566000D01*
X120017000Y-93566000D01*
X119993721Y-93564856D01*
X119970666Y-93561437D01*
X119948057Y-93555773D01*
X119926113Y-93547921D01*
X119905043Y-93537956D01*
X119885052Y-93525974D01*
X119866332Y-93512090D01*
X119849062Y-93496438D01*
X119833410Y-93479168D01*
X119819526Y-93460448D01*
X119807544Y-93440457D01*
X119797579Y-93419387D01*
X119789727Y-93397443D01*
X119784063Y-93374834D01*
X119780644Y-93351779D01*
X119779500Y-93328500D01*
X119779500Y-92853500D01*
X119780644Y-92830221D01*
X119784063Y-92807166D01*
X119789727Y-92784557D01*
X119797579Y-92762613D01*
X119807544Y-92741543D01*
X119819526Y-92721552D01*
X119833410Y-92702832D01*
X119849062Y-92685562D01*
X119866332Y-92669910D01*
X119885052Y-92656026D01*
X119905043Y-92644044D01*
X119926113Y-92634079D01*
X119948057Y-92626227D01*
X119970666Y-92620563D01*
X119993721Y-92617144D01*
X120017000Y-92616000D01*
X120592000Y-92616000D01*
X120615279Y-92617144D01*
X120615279Y-92617144D01*
G37*
D12*
X120304500Y-93091000D03*
D11*
G36*
X118865279Y-92617144D02*
G01*
X118888334Y-92620563D01*
X118910943Y-92626227D01*
X118932887Y-92634079D01*
X118953957Y-92644044D01*
X118973948Y-92656026D01*
X118992668Y-92669910D01*
X119009938Y-92685562D01*
X119025590Y-92702832D01*
X119039474Y-92721552D01*
X119051456Y-92741543D01*
X119061421Y-92762613D01*
X119069273Y-92784557D01*
X119074937Y-92807166D01*
X119078356Y-92830221D01*
X119079500Y-92853500D01*
X119079500Y-93328500D01*
X119078356Y-93351779D01*
X119074937Y-93374834D01*
X119069273Y-93397443D01*
X119061421Y-93419387D01*
X119051456Y-93440457D01*
X119039474Y-93460448D01*
X119025590Y-93479168D01*
X119009938Y-93496438D01*
X118992668Y-93512090D01*
X118973948Y-93525974D01*
X118953957Y-93537956D01*
X118932887Y-93547921D01*
X118910943Y-93555773D01*
X118888334Y-93561437D01*
X118865279Y-93564856D01*
X118842000Y-93566000D01*
X118267000Y-93566000D01*
X118243721Y-93564856D01*
X118220666Y-93561437D01*
X118198057Y-93555773D01*
X118176113Y-93547921D01*
X118155043Y-93537956D01*
X118135052Y-93525974D01*
X118116332Y-93512090D01*
X118099062Y-93496438D01*
X118083410Y-93479168D01*
X118069526Y-93460448D01*
X118057544Y-93440457D01*
X118047579Y-93419387D01*
X118039727Y-93397443D01*
X118034063Y-93374834D01*
X118030644Y-93351779D01*
X118029500Y-93328500D01*
X118029500Y-92853500D01*
X118030644Y-92830221D01*
X118034063Y-92807166D01*
X118039727Y-92784557D01*
X118047579Y-92762613D01*
X118057544Y-92741543D01*
X118069526Y-92721552D01*
X118083410Y-92702832D01*
X118099062Y-92685562D01*
X118116332Y-92669910D01*
X118135052Y-92656026D01*
X118155043Y-92644044D01*
X118176113Y-92634079D01*
X118198057Y-92626227D01*
X118220666Y-92620563D01*
X118243721Y-92617144D01*
X118267000Y-92616000D01*
X118842000Y-92616000D01*
X118865279Y-92617144D01*
X118865279Y-92617144D01*
G37*
D12*
X118554500Y-93091000D03*
D11*
G36*
X138944779Y-102205144D02*
G01*
X138967834Y-102208563D01*
X138990443Y-102214227D01*
X139012387Y-102222079D01*
X139033457Y-102232044D01*
X139053448Y-102244026D01*
X139072168Y-102257910D01*
X139089438Y-102273562D01*
X139105090Y-102290832D01*
X139118974Y-102309552D01*
X139130956Y-102329543D01*
X139140921Y-102350613D01*
X139148773Y-102372557D01*
X139154437Y-102395166D01*
X139157856Y-102418221D01*
X139159000Y-102441500D01*
X139159000Y-103016500D01*
X139157856Y-103039779D01*
X139154437Y-103062834D01*
X139148773Y-103085443D01*
X139140921Y-103107387D01*
X139130956Y-103128457D01*
X139118974Y-103148448D01*
X139105090Y-103167168D01*
X139089438Y-103184438D01*
X139072168Y-103200090D01*
X139053448Y-103213974D01*
X139033457Y-103225956D01*
X139012387Y-103235921D01*
X138990443Y-103243773D01*
X138967834Y-103249437D01*
X138944779Y-103252856D01*
X138921500Y-103254000D01*
X138446500Y-103254000D01*
X138423221Y-103252856D01*
X138400166Y-103249437D01*
X138377557Y-103243773D01*
X138355613Y-103235921D01*
X138334543Y-103225956D01*
X138314552Y-103213974D01*
X138295832Y-103200090D01*
X138278562Y-103184438D01*
X138262910Y-103167168D01*
X138249026Y-103148448D01*
X138237044Y-103128457D01*
X138227079Y-103107387D01*
X138219227Y-103085443D01*
X138213563Y-103062834D01*
X138210144Y-103039779D01*
X138209000Y-103016500D01*
X138209000Y-102441500D01*
X138210144Y-102418221D01*
X138213563Y-102395166D01*
X138219227Y-102372557D01*
X138227079Y-102350613D01*
X138237044Y-102329543D01*
X138249026Y-102309552D01*
X138262910Y-102290832D01*
X138278562Y-102273562D01*
X138295832Y-102257910D01*
X138314552Y-102244026D01*
X138334543Y-102232044D01*
X138355613Y-102222079D01*
X138377557Y-102214227D01*
X138400166Y-102208563D01*
X138423221Y-102205144D01*
X138446500Y-102204000D01*
X138921500Y-102204000D01*
X138944779Y-102205144D01*
X138944779Y-102205144D01*
G37*
D12*
X138684000Y-102729000D03*
D11*
G36*
X138944779Y-100455144D02*
G01*
X138967834Y-100458563D01*
X138990443Y-100464227D01*
X139012387Y-100472079D01*
X139033457Y-100482044D01*
X139053448Y-100494026D01*
X139072168Y-100507910D01*
X139089438Y-100523562D01*
X139105090Y-100540832D01*
X139118974Y-100559552D01*
X139130956Y-100579543D01*
X139140921Y-100600613D01*
X139148773Y-100622557D01*
X139154437Y-100645166D01*
X139157856Y-100668221D01*
X139159000Y-100691500D01*
X139159000Y-101266500D01*
X139157856Y-101289779D01*
X139154437Y-101312834D01*
X139148773Y-101335443D01*
X139140921Y-101357387D01*
X139130956Y-101378457D01*
X139118974Y-101398448D01*
X139105090Y-101417168D01*
X139089438Y-101434438D01*
X139072168Y-101450090D01*
X139053448Y-101463974D01*
X139033457Y-101475956D01*
X139012387Y-101485921D01*
X138990443Y-101493773D01*
X138967834Y-101499437D01*
X138944779Y-101502856D01*
X138921500Y-101504000D01*
X138446500Y-101504000D01*
X138423221Y-101502856D01*
X138400166Y-101499437D01*
X138377557Y-101493773D01*
X138355613Y-101485921D01*
X138334543Y-101475956D01*
X138314552Y-101463974D01*
X138295832Y-101450090D01*
X138278562Y-101434438D01*
X138262910Y-101417168D01*
X138249026Y-101398448D01*
X138237044Y-101378457D01*
X138227079Y-101357387D01*
X138219227Y-101335443D01*
X138213563Y-101312834D01*
X138210144Y-101289779D01*
X138209000Y-101266500D01*
X138209000Y-100691500D01*
X138210144Y-100668221D01*
X138213563Y-100645166D01*
X138219227Y-100622557D01*
X138227079Y-100600613D01*
X138237044Y-100579543D01*
X138249026Y-100559552D01*
X138262910Y-100540832D01*
X138278562Y-100523562D01*
X138295832Y-100507910D01*
X138314552Y-100494026D01*
X138334543Y-100482044D01*
X138355613Y-100472079D01*
X138377557Y-100464227D01*
X138400166Y-100458563D01*
X138423221Y-100455144D01*
X138446500Y-100454000D01*
X138921500Y-100454000D01*
X138944779Y-100455144D01*
X138944779Y-100455144D01*
G37*
D12*
X138684000Y-100979000D03*
D11*
G36*
X137420779Y-102205144D02*
G01*
X137443834Y-102208563D01*
X137466443Y-102214227D01*
X137488387Y-102222079D01*
X137509457Y-102232044D01*
X137529448Y-102244026D01*
X137548168Y-102257910D01*
X137565438Y-102273562D01*
X137581090Y-102290832D01*
X137594974Y-102309552D01*
X137606956Y-102329543D01*
X137616921Y-102350613D01*
X137624773Y-102372557D01*
X137630437Y-102395166D01*
X137633856Y-102418221D01*
X137635000Y-102441500D01*
X137635000Y-103016500D01*
X137633856Y-103039779D01*
X137630437Y-103062834D01*
X137624773Y-103085443D01*
X137616921Y-103107387D01*
X137606956Y-103128457D01*
X137594974Y-103148448D01*
X137581090Y-103167168D01*
X137565438Y-103184438D01*
X137548168Y-103200090D01*
X137529448Y-103213974D01*
X137509457Y-103225956D01*
X137488387Y-103235921D01*
X137466443Y-103243773D01*
X137443834Y-103249437D01*
X137420779Y-103252856D01*
X137397500Y-103254000D01*
X136922500Y-103254000D01*
X136899221Y-103252856D01*
X136876166Y-103249437D01*
X136853557Y-103243773D01*
X136831613Y-103235921D01*
X136810543Y-103225956D01*
X136790552Y-103213974D01*
X136771832Y-103200090D01*
X136754562Y-103184438D01*
X136738910Y-103167168D01*
X136725026Y-103148448D01*
X136713044Y-103128457D01*
X136703079Y-103107387D01*
X136695227Y-103085443D01*
X136689563Y-103062834D01*
X136686144Y-103039779D01*
X136685000Y-103016500D01*
X136685000Y-102441500D01*
X136686144Y-102418221D01*
X136689563Y-102395166D01*
X136695227Y-102372557D01*
X136703079Y-102350613D01*
X136713044Y-102329543D01*
X136725026Y-102309552D01*
X136738910Y-102290832D01*
X136754562Y-102273562D01*
X136771832Y-102257910D01*
X136790552Y-102244026D01*
X136810543Y-102232044D01*
X136831613Y-102222079D01*
X136853557Y-102214227D01*
X136876166Y-102208563D01*
X136899221Y-102205144D01*
X136922500Y-102204000D01*
X137397500Y-102204000D01*
X137420779Y-102205144D01*
X137420779Y-102205144D01*
G37*
D12*
X137160000Y-102729000D03*
D11*
G36*
X137420779Y-100455144D02*
G01*
X137443834Y-100458563D01*
X137466443Y-100464227D01*
X137488387Y-100472079D01*
X137509457Y-100482044D01*
X137529448Y-100494026D01*
X137548168Y-100507910D01*
X137565438Y-100523562D01*
X137581090Y-100540832D01*
X137594974Y-100559552D01*
X137606956Y-100579543D01*
X137616921Y-100600613D01*
X137624773Y-100622557D01*
X137630437Y-100645166D01*
X137633856Y-100668221D01*
X137635000Y-100691500D01*
X137635000Y-101266500D01*
X137633856Y-101289779D01*
X137630437Y-101312834D01*
X137624773Y-101335443D01*
X137616921Y-101357387D01*
X137606956Y-101378457D01*
X137594974Y-101398448D01*
X137581090Y-101417168D01*
X137565438Y-101434438D01*
X137548168Y-101450090D01*
X137529448Y-101463974D01*
X137509457Y-101475956D01*
X137488387Y-101485921D01*
X137466443Y-101493773D01*
X137443834Y-101499437D01*
X137420779Y-101502856D01*
X137397500Y-101504000D01*
X136922500Y-101504000D01*
X136899221Y-101502856D01*
X136876166Y-101499437D01*
X136853557Y-101493773D01*
X136831613Y-101485921D01*
X136810543Y-101475956D01*
X136790552Y-101463974D01*
X136771832Y-101450090D01*
X136754562Y-101434438D01*
X136738910Y-101417168D01*
X136725026Y-101398448D01*
X136713044Y-101378457D01*
X136703079Y-101357387D01*
X136695227Y-101335443D01*
X136689563Y-101312834D01*
X136686144Y-101289779D01*
X136685000Y-101266500D01*
X136685000Y-100691500D01*
X136686144Y-100668221D01*
X136689563Y-100645166D01*
X136695227Y-100622557D01*
X136703079Y-100600613D01*
X136713044Y-100579543D01*
X136725026Y-100559552D01*
X136738910Y-100540832D01*
X136754562Y-100523562D01*
X136771832Y-100507910D01*
X136790552Y-100494026D01*
X136810543Y-100482044D01*
X136831613Y-100472079D01*
X136853557Y-100464227D01*
X136876166Y-100458563D01*
X136899221Y-100455144D01*
X136922500Y-100454000D01*
X137397500Y-100454000D01*
X137420779Y-100455144D01*
X137420779Y-100455144D01*
G37*
D12*
X137160000Y-100979000D03*
D11*
G36*
X139516779Y-89315144D02*
G01*
X139539834Y-89318563D01*
X139562443Y-89324227D01*
X139584387Y-89332079D01*
X139605457Y-89342044D01*
X139625448Y-89354026D01*
X139644168Y-89367910D01*
X139661438Y-89383562D01*
X139677090Y-89400832D01*
X139690974Y-89419552D01*
X139702956Y-89439543D01*
X139712921Y-89460613D01*
X139720773Y-89482557D01*
X139726437Y-89505166D01*
X139729856Y-89528221D01*
X139731000Y-89551500D01*
X139731000Y-90026500D01*
X139729856Y-90049779D01*
X139726437Y-90072834D01*
X139720773Y-90095443D01*
X139712921Y-90117387D01*
X139702956Y-90138457D01*
X139690974Y-90158448D01*
X139677090Y-90177168D01*
X139661438Y-90194438D01*
X139644168Y-90210090D01*
X139625448Y-90223974D01*
X139605457Y-90235956D01*
X139584387Y-90245921D01*
X139562443Y-90253773D01*
X139539834Y-90259437D01*
X139516779Y-90262856D01*
X139493500Y-90264000D01*
X138918500Y-90264000D01*
X138895221Y-90262856D01*
X138872166Y-90259437D01*
X138849557Y-90253773D01*
X138827613Y-90245921D01*
X138806543Y-90235956D01*
X138786552Y-90223974D01*
X138767832Y-90210090D01*
X138750562Y-90194438D01*
X138734910Y-90177168D01*
X138721026Y-90158448D01*
X138709044Y-90138457D01*
X138699079Y-90117387D01*
X138691227Y-90095443D01*
X138685563Y-90072834D01*
X138682144Y-90049779D01*
X138681000Y-90026500D01*
X138681000Y-89551500D01*
X138682144Y-89528221D01*
X138685563Y-89505166D01*
X138691227Y-89482557D01*
X138699079Y-89460613D01*
X138709044Y-89439543D01*
X138721026Y-89419552D01*
X138734910Y-89400832D01*
X138750562Y-89383562D01*
X138767832Y-89367910D01*
X138786552Y-89354026D01*
X138806543Y-89342044D01*
X138827613Y-89332079D01*
X138849557Y-89324227D01*
X138872166Y-89318563D01*
X138895221Y-89315144D01*
X138918500Y-89314000D01*
X139493500Y-89314000D01*
X139516779Y-89315144D01*
X139516779Y-89315144D01*
G37*
D12*
X139206000Y-89789000D03*
D11*
G36*
X141266779Y-89315144D02*
G01*
X141289834Y-89318563D01*
X141312443Y-89324227D01*
X141334387Y-89332079D01*
X141355457Y-89342044D01*
X141375448Y-89354026D01*
X141394168Y-89367910D01*
X141411438Y-89383562D01*
X141427090Y-89400832D01*
X141440974Y-89419552D01*
X141452956Y-89439543D01*
X141462921Y-89460613D01*
X141470773Y-89482557D01*
X141476437Y-89505166D01*
X141479856Y-89528221D01*
X141481000Y-89551500D01*
X141481000Y-90026500D01*
X141479856Y-90049779D01*
X141476437Y-90072834D01*
X141470773Y-90095443D01*
X141462921Y-90117387D01*
X141452956Y-90138457D01*
X141440974Y-90158448D01*
X141427090Y-90177168D01*
X141411438Y-90194438D01*
X141394168Y-90210090D01*
X141375448Y-90223974D01*
X141355457Y-90235956D01*
X141334387Y-90245921D01*
X141312443Y-90253773D01*
X141289834Y-90259437D01*
X141266779Y-90262856D01*
X141243500Y-90264000D01*
X140668500Y-90264000D01*
X140645221Y-90262856D01*
X140622166Y-90259437D01*
X140599557Y-90253773D01*
X140577613Y-90245921D01*
X140556543Y-90235956D01*
X140536552Y-90223974D01*
X140517832Y-90210090D01*
X140500562Y-90194438D01*
X140484910Y-90177168D01*
X140471026Y-90158448D01*
X140459044Y-90138457D01*
X140449079Y-90117387D01*
X140441227Y-90095443D01*
X140435563Y-90072834D01*
X140432144Y-90049779D01*
X140431000Y-90026500D01*
X140431000Y-89551500D01*
X140432144Y-89528221D01*
X140435563Y-89505166D01*
X140441227Y-89482557D01*
X140449079Y-89460613D01*
X140459044Y-89439543D01*
X140471026Y-89419552D01*
X140484910Y-89400832D01*
X140500562Y-89383562D01*
X140517832Y-89367910D01*
X140536552Y-89354026D01*
X140556543Y-89342044D01*
X140577613Y-89332079D01*
X140599557Y-89324227D01*
X140622166Y-89318563D01*
X140645221Y-89315144D01*
X140668500Y-89314000D01*
X141243500Y-89314000D01*
X141266779Y-89315144D01*
X141266779Y-89315144D01*
G37*
D12*
X140956000Y-89789000D03*
D11*
G36*
X128276779Y-85088144D02*
G01*
X128299834Y-85091563D01*
X128322443Y-85097227D01*
X128344387Y-85105079D01*
X128365457Y-85115044D01*
X128385448Y-85127026D01*
X128404168Y-85140910D01*
X128421438Y-85156562D01*
X128437090Y-85173832D01*
X128450974Y-85192552D01*
X128462956Y-85212543D01*
X128472921Y-85233613D01*
X128480773Y-85255557D01*
X128486437Y-85278166D01*
X128489856Y-85301221D01*
X128491000Y-85324500D01*
X128491000Y-85899500D01*
X128489856Y-85922779D01*
X128486437Y-85945834D01*
X128480773Y-85968443D01*
X128472921Y-85990387D01*
X128462956Y-86011457D01*
X128450974Y-86031448D01*
X128437090Y-86050168D01*
X128421438Y-86067438D01*
X128404168Y-86083090D01*
X128385448Y-86096974D01*
X128365457Y-86108956D01*
X128344387Y-86118921D01*
X128322443Y-86126773D01*
X128299834Y-86132437D01*
X128276779Y-86135856D01*
X128253500Y-86137000D01*
X127778500Y-86137000D01*
X127755221Y-86135856D01*
X127732166Y-86132437D01*
X127709557Y-86126773D01*
X127687613Y-86118921D01*
X127666543Y-86108956D01*
X127646552Y-86096974D01*
X127627832Y-86083090D01*
X127610562Y-86067438D01*
X127594910Y-86050168D01*
X127581026Y-86031448D01*
X127569044Y-86011457D01*
X127559079Y-85990387D01*
X127551227Y-85968443D01*
X127545563Y-85945834D01*
X127542144Y-85922779D01*
X127541000Y-85899500D01*
X127541000Y-85324500D01*
X127542144Y-85301221D01*
X127545563Y-85278166D01*
X127551227Y-85255557D01*
X127559079Y-85233613D01*
X127569044Y-85212543D01*
X127581026Y-85192552D01*
X127594910Y-85173832D01*
X127610562Y-85156562D01*
X127627832Y-85140910D01*
X127646552Y-85127026D01*
X127666543Y-85115044D01*
X127687613Y-85105079D01*
X127709557Y-85097227D01*
X127732166Y-85091563D01*
X127755221Y-85088144D01*
X127778500Y-85087000D01*
X128253500Y-85087000D01*
X128276779Y-85088144D01*
X128276779Y-85088144D01*
G37*
D12*
X128016000Y-85612000D03*
D11*
G36*
X128276779Y-86838144D02*
G01*
X128299834Y-86841563D01*
X128322443Y-86847227D01*
X128344387Y-86855079D01*
X128365457Y-86865044D01*
X128385448Y-86877026D01*
X128404168Y-86890910D01*
X128421438Y-86906562D01*
X128437090Y-86923832D01*
X128450974Y-86942552D01*
X128462956Y-86962543D01*
X128472921Y-86983613D01*
X128480773Y-87005557D01*
X128486437Y-87028166D01*
X128489856Y-87051221D01*
X128491000Y-87074500D01*
X128491000Y-87649500D01*
X128489856Y-87672779D01*
X128486437Y-87695834D01*
X128480773Y-87718443D01*
X128472921Y-87740387D01*
X128462956Y-87761457D01*
X128450974Y-87781448D01*
X128437090Y-87800168D01*
X128421438Y-87817438D01*
X128404168Y-87833090D01*
X128385448Y-87846974D01*
X128365457Y-87858956D01*
X128344387Y-87868921D01*
X128322443Y-87876773D01*
X128299834Y-87882437D01*
X128276779Y-87885856D01*
X128253500Y-87887000D01*
X127778500Y-87887000D01*
X127755221Y-87885856D01*
X127732166Y-87882437D01*
X127709557Y-87876773D01*
X127687613Y-87868921D01*
X127666543Y-87858956D01*
X127646552Y-87846974D01*
X127627832Y-87833090D01*
X127610562Y-87817438D01*
X127594910Y-87800168D01*
X127581026Y-87781448D01*
X127569044Y-87761457D01*
X127559079Y-87740387D01*
X127551227Y-87718443D01*
X127545563Y-87695834D01*
X127542144Y-87672779D01*
X127541000Y-87649500D01*
X127541000Y-87074500D01*
X127542144Y-87051221D01*
X127545563Y-87028166D01*
X127551227Y-87005557D01*
X127559079Y-86983613D01*
X127569044Y-86962543D01*
X127581026Y-86942552D01*
X127594910Y-86923832D01*
X127610562Y-86906562D01*
X127627832Y-86890910D01*
X127646552Y-86877026D01*
X127666543Y-86865044D01*
X127687613Y-86855079D01*
X127709557Y-86847227D01*
X127732166Y-86841563D01*
X127755221Y-86838144D01*
X127778500Y-86837000D01*
X128253500Y-86837000D01*
X128276779Y-86838144D01*
X128276779Y-86838144D01*
G37*
D12*
X128016000Y-87362000D03*
D11*
G36*
X127768779Y-105112144D02*
G01*
X127791834Y-105115563D01*
X127814443Y-105121227D01*
X127836387Y-105129079D01*
X127857457Y-105139044D01*
X127877448Y-105151026D01*
X127896168Y-105164910D01*
X127913438Y-105180562D01*
X127929090Y-105197832D01*
X127942974Y-105216552D01*
X127954956Y-105236543D01*
X127964921Y-105257613D01*
X127972773Y-105279557D01*
X127978437Y-105302166D01*
X127981856Y-105325221D01*
X127983000Y-105348500D01*
X127983000Y-105923500D01*
X127981856Y-105946779D01*
X127978437Y-105969834D01*
X127972773Y-105992443D01*
X127964921Y-106014387D01*
X127954956Y-106035457D01*
X127942974Y-106055448D01*
X127929090Y-106074168D01*
X127913438Y-106091438D01*
X127896168Y-106107090D01*
X127877448Y-106120974D01*
X127857457Y-106132956D01*
X127836387Y-106142921D01*
X127814443Y-106150773D01*
X127791834Y-106156437D01*
X127768779Y-106159856D01*
X127745500Y-106161000D01*
X127270500Y-106161000D01*
X127247221Y-106159856D01*
X127224166Y-106156437D01*
X127201557Y-106150773D01*
X127179613Y-106142921D01*
X127158543Y-106132956D01*
X127138552Y-106120974D01*
X127119832Y-106107090D01*
X127102562Y-106091438D01*
X127086910Y-106074168D01*
X127073026Y-106055448D01*
X127061044Y-106035457D01*
X127051079Y-106014387D01*
X127043227Y-105992443D01*
X127037563Y-105969834D01*
X127034144Y-105946779D01*
X127033000Y-105923500D01*
X127033000Y-105348500D01*
X127034144Y-105325221D01*
X127037563Y-105302166D01*
X127043227Y-105279557D01*
X127051079Y-105257613D01*
X127061044Y-105236543D01*
X127073026Y-105216552D01*
X127086910Y-105197832D01*
X127102562Y-105180562D01*
X127119832Y-105164910D01*
X127138552Y-105151026D01*
X127158543Y-105139044D01*
X127179613Y-105129079D01*
X127201557Y-105121227D01*
X127224166Y-105115563D01*
X127247221Y-105112144D01*
X127270500Y-105111000D01*
X127745500Y-105111000D01*
X127768779Y-105112144D01*
X127768779Y-105112144D01*
G37*
D12*
X127508000Y-105636000D03*
D11*
G36*
X127768779Y-103362144D02*
G01*
X127791834Y-103365563D01*
X127814443Y-103371227D01*
X127836387Y-103379079D01*
X127857457Y-103389044D01*
X127877448Y-103401026D01*
X127896168Y-103414910D01*
X127913438Y-103430562D01*
X127929090Y-103447832D01*
X127942974Y-103466552D01*
X127954956Y-103486543D01*
X127964921Y-103507613D01*
X127972773Y-103529557D01*
X127978437Y-103552166D01*
X127981856Y-103575221D01*
X127983000Y-103598500D01*
X127983000Y-104173500D01*
X127981856Y-104196779D01*
X127978437Y-104219834D01*
X127972773Y-104242443D01*
X127964921Y-104264387D01*
X127954956Y-104285457D01*
X127942974Y-104305448D01*
X127929090Y-104324168D01*
X127913438Y-104341438D01*
X127896168Y-104357090D01*
X127877448Y-104370974D01*
X127857457Y-104382956D01*
X127836387Y-104392921D01*
X127814443Y-104400773D01*
X127791834Y-104406437D01*
X127768779Y-104409856D01*
X127745500Y-104411000D01*
X127270500Y-104411000D01*
X127247221Y-104409856D01*
X127224166Y-104406437D01*
X127201557Y-104400773D01*
X127179613Y-104392921D01*
X127158543Y-104382956D01*
X127138552Y-104370974D01*
X127119832Y-104357090D01*
X127102562Y-104341438D01*
X127086910Y-104324168D01*
X127073026Y-104305448D01*
X127061044Y-104285457D01*
X127051079Y-104264387D01*
X127043227Y-104242443D01*
X127037563Y-104219834D01*
X127034144Y-104196779D01*
X127033000Y-104173500D01*
X127033000Y-103598500D01*
X127034144Y-103575221D01*
X127037563Y-103552166D01*
X127043227Y-103529557D01*
X127051079Y-103507613D01*
X127061044Y-103486543D01*
X127073026Y-103466552D01*
X127086910Y-103447832D01*
X127102562Y-103430562D01*
X127119832Y-103414910D01*
X127138552Y-103401026D01*
X127158543Y-103389044D01*
X127179613Y-103379079D01*
X127201557Y-103371227D01*
X127224166Y-103365563D01*
X127247221Y-103362144D01*
X127270500Y-103361000D01*
X127745500Y-103361000D01*
X127768779Y-103362144D01*
X127768779Y-103362144D01*
G37*
D12*
X127508000Y-103886000D03*
D11*
G36*
X120615279Y-86902144D02*
G01*
X120638334Y-86905563D01*
X120660943Y-86911227D01*
X120682887Y-86919079D01*
X120703957Y-86929044D01*
X120723948Y-86941026D01*
X120742668Y-86954910D01*
X120759938Y-86970562D01*
X120775590Y-86987832D01*
X120789474Y-87006552D01*
X120801456Y-87026543D01*
X120811421Y-87047613D01*
X120819273Y-87069557D01*
X120824937Y-87092166D01*
X120828356Y-87115221D01*
X120829500Y-87138500D01*
X120829500Y-87613500D01*
X120828356Y-87636779D01*
X120824937Y-87659834D01*
X120819273Y-87682443D01*
X120811421Y-87704387D01*
X120801456Y-87725457D01*
X120789474Y-87745448D01*
X120775590Y-87764168D01*
X120759938Y-87781438D01*
X120742668Y-87797090D01*
X120723948Y-87810974D01*
X120703957Y-87822956D01*
X120682887Y-87832921D01*
X120660943Y-87840773D01*
X120638334Y-87846437D01*
X120615279Y-87849856D01*
X120592000Y-87851000D01*
X120017000Y-87851000D01*
X119993721Y-87849856D01*
X119970666Y-87846437D01*
X119948057Y-87840773D01*
X119926113Y-87832921D01*
X119905043Y-87822956D01*
X119885052Y-87810974D01*
X119866332Y-87797090D01*
X119849062Y-87781438D01*
X119833410Y-87764168D01*
X119819526Y-87745448D01*
X119807544Y-87725457D01*
X119797579Y-87704387D01*
X119789727Y-87682443D01*
X119784063Y-87659834D01*
X119780644Y-87636779D01*
X119779500Y-87613500D01*
X119779500Y-87138500D01*
X119780644Y-87115221D01*
X119784063Y-87092166D01*
X119789727Y-87069557D01*
X119797579Y-87047613D01*
X119807544Y-87026543D01*
X119819526Y-87006552D01*
X119833410Y-86987832D01*
X119849062Y-86970562D01*
X119866332Y-86954910D01*
X119885052Y-86941026D01*
X119905043Y-86929044D01*
X119926113Y-86919079D01*
X119948057Y-86911227D01*
X119970666Y-86905563D01*
X119993721Y-86902144D01*
X120017000Y-86901000D01*
X120592000Y-86901000D01*
X120615279Y-86902144D01*
X120615279Y-86902144D01*
G37*
D12*
X120304500Y-87376000D03*
D11*
G36*
X118865279Y-86902144D02*
G01*
X118888334Y-86905563D01*
X118910943Y-86911227D01*
X118932887Y-86919079D01*
X118953957Y-86929044D01*
X118973948Y-86941026D01*
X118992668Y-86954910D01*
X119009938Y-86970562D01*
X119025590Y-86987832D01*
X119039474Y-87006552D01*
X119051456Y-87026543D01*
X119061421Y-87047613D01*
X119069273Y-87069557D01*
X119074937Y-87092166D01*
X119078356Y-87115221D01*
X119079500Y-87138500D01*
X119079500Y-87613500D01*
X119078356Y-87636779D01*
X119074937Y-87659834D01*
X119069273Y-87682443D01*
X119061421Y-87704387D01*
X119051456Y-87725457D01*
X119039474Y-87745448D01*
X119025590Y-87764168D01*
X119009938Y-87781438D01*
X118992668Y-87797090D01*
X118973948Y-87810974D01*
X118953957Y-87822956D01*
X118932887Y-87832921D01*
X118910943Y-87840773D01*
X118888334Y-87846437D01*
X118865279Y-87849856D01*
X118842000Y-87851000D01*
X118267000Y-87851000D01*
X118243721Y-87849856D01*
X118220666Y-87846437D01*
X118198057Y-87840773D01*
X118176113Y-87832921D01*
X118155043Y-87822956D01*
X118135052Y-87810974D01*
X118116332Y-87797090D01*
X118099062Y-87781438D01*
X118083410Y-87764168D01*
X118069526Y-87745448D01*
X118057544Y-87725457D01*
X118047579Y-87704387D01*
X118039727Y-87682443D01*
X118034063Y-87659834D01*
X118030644Y-87636779D01*
X118029500Y-87613500D01*
X118029500Y-87138500D01*
X118030644Y-87115221D01*
X118034063Y-87092166D01*
X118039727Y-87069557D01*
X118047579Y-87047613D01*
X118057544Y-87026543D01*
X118069526Y-87006552D01*
X118083410Y-86987832D01*
X118099062Y-86970562D01*
X118116332Y-86954910D01*
X118135052Y-86941026D01*
X118155043Y-86929044D01*
X118176113Y-86919079D01*
X118198057Y-86911227D01*
X118220666Y-86905563D01*
X118243721Y-86902144D01*
X118267000Y-86901000D01*
X118842000Y-86901000D01*
X118865279Y-86902144D01*
X118865279Y-86902144D01*
G37*
D12*
X118554500Y-87376000D03*
D11*
G36*
X120615279Y-83663644D02*
G01*
X120638334Y-83667063D01*
X120660943Y-83672727D01*
X120682887Y-83680579D01*
X120703957Y-83690544D01*
X120723948Y-83702526D01*
X120742668Y-83716410D01*
X120759938Y-83732062D01*
X120775590Y-83749332D01*
X120789474Y-83768052D01*
X120801456Y-83788043D01*
X120811421Y-83809113D01*
X120819273Y-83831057D01*
X120824937Y-83853666D01*
X120828356Y-83876721D01*
X120829500Y-83900000D01*
X120829500Y-84375000D01*
X120828356Y-84398279D01*
X120824937Y-84421334D01*
X120819273Y-84443943D01*
X120811421Y-84465887D01*
X120801456Y-84486957D01*
X120789474Y-84506948D01*
X120775590Y-84525668D01*
X120759938Y-84542938D01*
X120742668Y-84558590D01*
X120723948Y-84572474D01*
X120703957Y-84584456D01*
X120682887Y-84594421D01*
X120660943Y-84602273D01*
X120638334Y-84607937D01*
X120615279Y-84611356D01*
X120592000Y-84612500D01*
X120017000Y-84612500D01*
X119993721Y-84611356D01*
X119970666Y-84607937D01*
X119948057Y-84602273D01*
X119926113Y-84594421D01*
X119905043Y-84584456D01*
X119885052Y-84572474D01*
X119866332Y-84558590D01*
X119849062Y-84542938D01*
X119833410Y-84525668D01*
X119819526Y-84506948D01*
X119807544Y-84486957D01*
X119797579Y-84465887D01*
X119789727Y-84443943D01*
X119784063Y-84421334D01*
X119780644Y-84398279D01*
X119779500Y-84375000D01*
X119779500Y-83900000D01*
X119780644Y-83876721D01*
X119784063Y-83853666D01*
X119789727Y-83831057D01*
X119797579Y-83809113D01*
X119807544Y-83788043D01*
X119819526Y-83768052D01*
X119833410Y-83749332D01*
X119849062Y-83732062D01*
X119866332Y-83716410D01*
X119885052Y-83702526D01*
X119905043Y-83690544D01*
X119926113Y-83680579D01*
X119948057Y-83672727D01*
X119970666Y-83667063D01*
X119993721Y-83663644D01*
X120017000Y-83662500D01*
X120592000Y-83662500D01*
X120615279Y-83663644D01*
X120615279Y-83663644D01*
G37*
D12*
X120304500Y-84137500D03*
D11*
G36*
X118865279Y-83663644D02*
G01*
X118888334Y-83667063D01*
X118910943Y-83672727D01*
X118932887Y-83680579D01*
X118953957Y-83690544D01*
X118973948Y-83702526D01*
X118992668Y-83716410D01*
X119009938Y-83732062D01*
X119025590Y-83749332D01*
X119039474Y-83768052D01*
X119051456Y-83788043D01*
X119061421Y-83809113D01*
X119069273Y-83831057D01*
X119074937Y-83853666D01*
X119078356Y-83876721D01*
X119079500Y-83900000D01*
X119079500Y-84375000D01*
X119078356Y-84398279D01*
X119074937Y-84421334D01*
X119069273Y-84443943D01*
X119061421Y-84465887D01*
X119051456Y-84486957D01*
X119039474Y-84506948D01*
X119025590Y-84525668D01*
X119009938Y-84542938D01*
X118992668Y-84558590D01*
X118973948Y-84572474D01*
X118953957Y-84584456D01*
X118932887Y-84594421D01*
X118910943Y-84602273D01*
X118888334Y-84607937D01*
X118865279Y-84611356D01*
X118842000Y-84612500D01*
X118267000Y-84612500D01*
X118243721Y-84611356D01*
X118220666Y-84607937D01*
X118198057Y-84602273D01*
X118176113Y-84594421D01*
X118155043Y-84584456D01*
X118135052Y-84572474D01*
X118116332Y-84558590D01*
X118099062Y-84542938D01*
X118083410Y-84525668D01*
X118069526Y-84506948D01*
X118057544Y-84486957D01*
X118047579Y-84465887D01*
X118039727Y-84443943D01*
X118034063Y-84421334D01*
X118030644Y-84398279D01*
X118029500Y-84375000D01*
X118029500Y-83900000D01*
X118030644Y-83876721D01*
X118034063Y-83853666D01*
X118039727Y-83831057D01*
X118047579Y-83809113D01*
X118057544Y-83788043D01*
X118069526Y-83768052D01*
X118083410Y-83749332D01*
X118099062Y-83732062D01*
X118116332Y-83716410D01*
X118135052Y-83702526D01*
X118155043Y-83690544D01*
X118176113Y-83680579D01*
X118198057Y-83672727D01*
X118220666Y-83667063D01*
X118243721Y-83663644D01*
X118267000Y-83662500D01*
X118842000Y-83662500D01*
X118865279Y-83663644D01*
X118865279Y-83663644D01*
G37*
D12*
X118554500Y-84137500D03*
D11*
G36*
X153091779Y-88807144D02*
G01*
X153114834Y-88810563D01*
X153137443Y-88816227D01*
X153159387Y-88824079D01*
X153180457Y-88834044D01*
X153200448Y-88846026D01*
X153219168Y-88859910D01*
X153236438Y-88875562D01*
X153252090Y-88892832D01*
X153265974Y-88911552D01*
X153277956Y-88931543D01*
X153287921Y-88952613D01*
X153295773Y-88974557D01*
X153301437Y-88997166D01*
X153304856Y-89020221D01*
X153306000Y-89043500D01*
X153306000Y-89518500D01*
X153304856Y-89541779D01*
X153301437Y-89564834D01*
X153295773Y-89587443D01*
X153287921Y-89609387D01*
X153277956Y-89630457D01*
X153265974Y-89650448D01*
X153252090Y-89669168D01*
X153236438Y-89686438D01*
X153219168Y-89702090D01*
X153200448Y-89715974D01*
X153180457Y-89727956D01*
X153159387Y-89737921D01*
X153137443Y-89745773D01*
X153114834Y-89751437D01*
X153091779Y-89754856D01*
X153068500Y-89756000D01*
X152493500Y-89756000D01*
X152470221Y-89754856D01*
X152447166Y-89751437D01*
X152424557Y-89745773D01*
X152402613Y-89737921D01*
X152381543Y-89727956D01*
X152361552Y-89715974D01*
X152342832Y-89702090D01*
X152325562Y-89686438D01*
X152309910Y-89669168D01*
X152296026Y-89650448D01*
X152284044Y-89630457D01*
X152274079Y-89609387D01*
X152266227Y-89587443D01*
X152260563Y-89564834D01*
X152257144Y-89541779D01*
X152256000Y-89518500D01*
X152256000Y-89043500D01*
X152257144Y-89020221D01*
X152260563Y-88997166D01*
X152266227Y-88974557D01*
X152274079Y-88952613D01*
X152284044Y-88931543D01*
X152296026Y-88911552D01*
X152309910Y-88892832D01*
X152325562Y-88875562D01*
X152342832Y-88859910D01*
X152361552Y-88846026D01*
X152381543Y-88834044D01*
X152402613Y-88824079D01*
X152424557Y-88816227D01*
X152447166Y-88810563D01*
X152470221Y-88807144D01*
X152493500Y-88806000D01*
X153068500Y-88806000D01*
X153091779Y-88807144D01*
X153091779Y-88807144D01*
G37*
D12*
X152781000Y-89281000D03*
D11*
G36*
X151341779Y-88807144D02*
G01*
X151364834Y-88810563D01*
X151387443Y-88816227D01*
X151409387Y-88824079D01*
X151430457Y-88834044D01*
X151450448Y-88846026D01*
X151469168Y-88859910D01*
X151486438Y-88875562D01*
X151502090Y-88892832D01*
X151515974Y-88911552D01*
X151527956Y-88931543D01*
X151537921Y-88952613D01*
X151545773Y-88974557D01*
X151551437Y-88997166D01*
X151554856Y-89020221D01*
X151556000Y-89043500D01*
X151556000Y-89518500D01*
X151554856Y-89541779D01*
X151551437Y-89564834D01*
X151545773Y-89587443D01*
X151537921Y-89609387D01*
X151527956Y-89630457D01*
X151515974Y-89650448D01*
X151502090Y-89669168D01*
X151486438Y-89686438D01*
X151469168Y-89702090D01*
X151450448Y-89715974D01*
X151430457Y-89727956D01*
X151409387Y-89737921D01*
X151387443Y-89745773D01*
X151364834Y-89751437D01*
X151341779Y-89754856D01*
X151318500Y-89756000D01*
X150743500Y-89756000D01*
X150720221Y-89754856D01*
X150697166Y-89751437D01*
X150674557Y-89745773D01*
X150652613Y-89737921D01*
X150631543Y-89727956D01*
X150611552Y-89715974D01*
X150592832Y-89702090D01*
X150575562Y-89686438D01*
X150559910Y-89669168D01*
X150546026Y-89650448D01*
X150534044Y-89630457D01*
X150524079Y-89609387D01*
X150516227Y-89587443D01*
X150510563Y-89564834D01*
X150507144Y-89541779D01*
X150506000Y-89518500D01*
X150506000Y-89043500D01*
X150507144Y-89020221D01*
X150510563Y-88997166D01*
X150516227Y-88974557D01*
X150524079Y-88952613D01*
X150534044Y-88931543D01*
X150546026Y-88911552D01*
X150559910Y-88892832D01*
X150575562Y-88875562D01*
X150592832Y-88859910D01*
X150611552Y-88846026D01*
X150631543Y-88834044D01*
X150652613Y-88824079D01*
X150674557Y-88816227D01*
X150697166Y-88810563D01*
X150720221Y-88807144D01*
X150743500Y-88806000D01*
X151318500Y-88806000D01*
X151341779Y-88807144D01*
X151341779Y-88807144D01*
G37*
D12*
X151031000Y-89281000D03*
D11*
G36*
X153091779Y-91347144D02*
G01*
X153114834Y-91350563D01*
X153137443Y-91356227D01*
X153159387Y-91364079D01*
X153180457Y-91374044D01*
X153200448Y-91386026D01*
X153219168Y-91399910D01*
X153236438Y-91415562D01*
X153252090Y-91432832D01*
X153265974Y-91451552D01*
X153277956Y-91471543D01*
X153287921Y-91492613D01*
X153295773Y-91514557D01*
X153301437Y-91537166D01*
X153304856Y-91560221D01*
X153306000Y-91583500D01*
X153306000Y-92058500D01*
X153304856Y-92081779D01*
X153301437Y-92104834D01*
X153295773Y-92127443D01*
X153287921Y-92149387D01*
X153277956Y-92170457D01*
X153265974Y-92190448D01*
X153252090Y-92209168D01*
X153236438Y-92226438D01*
X153219168Y-92242090D01*
X153200448Y-92255974D01*
X153180457Y-92267956D01*
X153159387Y-92277921D01*
X153137443Y-92285773D01*
X153114834Y-92291437D01*
X153091779Y-92294856D01*
X153068500Y-92296000D01*
X152493500Y-92296000D01*
X152470221Y-92294856D01*
X152447166Y-92291437D01*
X152424557Y-92285773D01*
X152402613Y-92277921D01*
X152381543Y-92267956D01*
X152361552Y-92255974D01*
X152342832Y-92242090D01*
X152325562Y-92226438D01*
X152309910Y-92209168D01*
X152296026Y-92190448D01*
X152284044Y-92170457D01*
X152274079Y-92149387D01*
X152266227Y-92127443D01*
X152260563Y-92104834D01*
X152257144Y-92081779D01*
X152256000Y-92058500D01*
X152256000Y-91583500D01*
X152257144Y-91560221D01*
X152260563Y-91537166D01*
X152266227Y-91514557D01*
X152274079Y-91492613D01*
X152284044Y-91471543D01*
X152296026Y-91451552D01*
X152309910Y-91432832D01*
X152325562Y-91415562D01*
X152342832Y-91399910D01*
X152361552Y-91386026D01*
X152381543Y-91374044D01*
X152402613Y-91364079D01*
X152424557Y-91356227D01*
X152447166Y-91350563D01*
X152470221Y-91347144D01*
X152493500Y-91346000D01*
X153068500Y-91346000D01*
X153091779Y-91347144D01*
X153091779Y-91347144D01*
G37*
D12*
X152781000Y-91821000D03*
D11*
G36*
X151341779Y-91347144D02*
G01*
X151364834Y-91350563D01*
X151387443Y-91356227D01*
X151409387Y-91364079D01*
X151430457Y-91374044D01*
X151450448Y-91386026D01*
X151469168Y-91399910D01*
X151486438Y-91415562D01*
X151502090Y-91432832D01*
X151515974Y-91451552D01*
X151527956Y-91471543D01*
X151537921Y-91492613D01*
X151545773Y-91514557D01*
X151551437Y-91537166D01*
X151554856Y-91560221D01*
X151556000Y-91583500D01*
X151556000Y-92058500D01*
X151554856Y-92081779D01*
X151551437Y-92104834D01*
X151545773Y-92127443D01*
X151537921Y-92149387D01*
X151527956Y-92170457D01*
X151515974Y-92190448D01*
X151502090Y-92209168D01*
X151486438Y-92226438D01*
X151469168Y-92242090D01*
X151450448Y-92255974D01*
X151430457Y-92267956D01*
X151409387Y-92277921D01*
X151387443Y-92285773D01*
X151364834Y-92291437D01*
X151341779Y-92294856D01*
X151318500Y-92296000D01*
X150743500Y-92296000D01*
X150720221Y-92294856D01*
X150697166Y-92291437D01*
X150674557Y-92285773D01*
X150652613Y-92277921D01*
X150631543Y-92267956D01*
X150611552Y-92255974D01*
X150592832Y-92242090D01*
X150575562Y-92226438D01*
X150559910Y-92209168D01*
X150546026Y-92190448D01*
X150534044Y-92170457D01*
X150524079Y-92149387D01*
X150516227Y-92127443D01*
X150510563Y-92104834D01*
X150507144Y-92081779D01*
X150506000Y-92058500D01*
X150506000Y-91583500D01*
X150507144Y-91560221D01*
X150510563Y-91537166D01*
X150516227Y-91514557D01*
X150524079Y-91492613D01*
X150534044Y-91471543D01*
X150546026Y-91451552D01*
X150559910Y-91432832D01*
X150575562Y-91415562D01*
X150592832Y-91399910D01*
X150611552Y-91386026D01*
X150631543Y-91374044D01*
X150652613Y-91364079D01*
X150674557Y-91356227D01*
X150697166Y-91350563D01*
X150720221Y-91347144D01*
X150743500Y-91346000D01*
X151318500Y-91346000D01*
X151341779Y-91347144D01*
X151341779Y-91347144D01*
G37*
D12*
X151031000Y-91821000D03*
D11*
G36*
X153091779Y-83727144D02*
G01*
X153114834Y-83730563D01*
X153137443Y-83736227D01*
X153159387Y-83744079D01*
X153180457Y-83754044D01*
X153200448Y-83766026D01*
X153219168Y-83779910D01*
X153236438Y-83795562D01*
X153252090Y-83812832D01*
X153265974Y-83831552D01*
X153277956Y-83851543D01*
X153287921Y-83872613D01*
X153295773Y-83894557D01*
X153301437Y-83917166D01*
X153304856Y-83940221D01*
X153306000Y-83963500D01*
X153306000Y-84438500D01*
X153304856Y-84461779D01*
X153301437Y-84484834D01*
X153295773Y-84507443D01*
X153287921Y-84529387D01*
X153277956Y-84550457D01*
X153265974Y-84570448D01*
X153252090Y-84589168D01*
X153236438Y-84606438D01*
X153219168Y-84622090D01*
X153200448Y-84635974D01*
X153180457Y-84647956D01*
X153159387Y-84657921D01*
X153137443Y-84665773D01*
X153114834Y-84671437D01*
X153091779Y-84674856D01*
X153068500Y-84676000D01*
X152493500Y-84676000D01*
X152470221Y-84674856D01*
X152447166Y-84671437D01*
X152424557Y-84665773D01*
X152402613Y-84657921D01*
X152381543Y-84647956D01*
X152361552Y-84635974D01*
X152342832Y-84622090D01*
X152325562Y-84606438D01*
X152309910Y-84589168D01*
X152296026Y-84570448D01*
X152284044Y-84550457D01*
X152274079Y-84529387D01*
X152266227Y-84507443D01*
X152260563Y-84484834D01*
X152257144Y-84461779D01*
X152256000Y-84438500D01*
X152256000Y-83963500D01*
X152257144Y-83940221D01*
X152260563Y-83917166D01*
X152266227Y-83894557D01*
X152274079Y-83872613D01*
X152284044Y-83851543D01*
X152296026Y-83831552D01*
X152309910Y-83812832D01*
X152325562Y-83795562D01*
X152342832Y-83779910D01*
X152361552Y-83766026D01*
X152381543Y-83754044D01*
X152402613Y-83744079D01*
X152424557Y-83736227D01*
X152447166Y-83730563D01*
X152470221Y-83727144D01*
X152493500Y-83726000D01*
X153068500Y-83726000D01*
X153091779Y-83727144D01*
X153091779Y-83727144D01*
G37*
D12*
X152781000Y-84201000D03*
D11*
G36*
X151341779Y-83727144D02*
G01*
X151364834Y-83730563D01*
X151387443Y-83736227D01*
X151409387Y-83744079D01*
X151430457Y-83754044D01*
X151450448Y-83766026D01*
X151469168Y-83779910D01*
X151486438Y-83795562D01*
X151502090Y-83812832D01*
X151515974Y-83831552D01*
X151527956Y-83851543D01*
X151537921Y-83872613D01*
X151545773Y-83894557D01*
X151551437Y-83917166D01*
X151554856Y-83940221D01*
X151556000Y-83963500D01*
X151556000Y-84438500D01*
X151554856Y-84461779D01*
X151551437Y-84484834D01*
X151545773Y-84507443D01*
X151537921Y-84529387D01*
X151527956Y-84550457D01*
X151515974Y-84570448D01*
X151502090Y-84589168D01*
X151486438Y-84606438D01*
X151469168Y-84622090D01*
X151450448Y-84635974D01*
X151430457Y-84647956D01*
X151409387Y-84657921D01*
X151387443Y-84665773D01*
X151364834Y-84671437D01*
X151341779Y-84674856D01*
X151318500Y-84676000D01*
X150743500Y-84676000D01*
X150720221Y-84674856D01*
X150697166Y-84671437D01*
X150674557Y-84665773D01*
X150652613Y-84657921D01*
X150631543Y-84647956D01*
X150611552Y-84635974D01*
X150592832Y-84622090D01*
X150575562Y-84606438D01*
X150559910Y-84589168D01*
X150546026Y-84570448D01*
X150534044Y-84550457D01*
X150524079Y-84529387D01*
X150516227Y-84507443D01*
X150510563Y-84484834D01*
X150507144Y-84461779D01*
X150506000Y-84438500D01*
X150506000Y-83963500D01*
X150507144Y-83940221D01*
X150510563Y-83917166D01*
X150516227Y-83894557D01*
X150524079Y-83872613D01*
X150534044Y-83851543D01*
X150546026Y-83831552D01*
X150559910Y-83812832D01*
X150575562Y-83795562D01*
X150592832Y-83779910D01*
X150611552Y-83766026D01*
X150631543Y-83754044D01*
X150652613Y-83744079D01*
X150674557Y-83736227D01*
X150697166Y-83730563D01*
X150720221Y-83727144D01*
X150743500Y-83726000D01*
X151318500Y-83726000D01*
X151341779Y-83727144D01*
X151341779Y-83727144D01*
G37*
D12*
X151031000Y-84201000D03*
D11*
G36*
X123704779Y-70723144D02*
G01*
X123727834Y-70726563D01*
X123750443Y-70732227D01*
X123772387Y-70740079D01*
X123793457Y-70750044D01*
X123813448Y-70762026D01*
X123832168Y-70775910D01*
X123849438Y-70791562D01*
X123865090Y-70808832D01*
X123878974Y-70827552D01*
X123890956Y-70847543D01*
X123900921Y-70868613D01*
X123908773Y-70890557D01*
X123914437Y-70913166D01*
X123917856Y-70936221D01*
X123919000Y-70959500D01*
X123919000Y-71534500D01*
X123917856Y-71557779D01*
X123914437Y-71580834D01*
X123908773Y-71603443D01*
X123900921Y-71625387D01*
X123890956Y-71646457D01*
X123878974Y-71666448D01*
X123865090Y-71685168D01*
X123849438Y-71702438D01*
X123832168Y-71718090D01*
X123813448Y-71731974D01*
X123793457Y-71743956D01*
X123772387Y-71753921D01*
X123750443Y-71761773D01*
X123727834Y-71767437D01*
X123704779Y-71770856D01*
X123681500Y-71772000D01*
X123206500Y-71772000D01*
X123183221Y-71770856D01*
X123160166Y-71767437D01*
X123137557Y-71761773D01*
X123115613Y-71753921D01*
X123094543Y-71743956D01*
X123074552Y-71731974D01*
X123055832Y-71718090D01*
X123038562Y-71702438D01*
X123022910Y-71685168D01*
X123009026Y-71666448D01*
X122997044Y-71646457D01*
X122987079Y-71625387D01*
X122979227Y-71603443D01*
X122973563Y-71580834D01*
X122970144Y-71557779D01*
X122969000Y-71534500D01*
X122969000Y-70959500D01*
X122970144Y-70936221D01*
X122973563Y-70913166D01*
X122979227Y-70890557D01*
X122987079Y-70868613D01*
X122997044Y-70847543D01*
X123009026Y-70827552D01*
X123022910Y-70808832D01*
X123038562Y-70791562D01*
X123055832Y-70775910D01*
X123074552Y-70762026D01*
X123094543Y-70750044D01*
X123115613Y-70740079D01*
X123137557Y-70732227D01*
X123160166Y-70726563D01*
X123183221Y-70723144D01*
X123206500Y-70722000D01*
X123681500Y-70722000D01*
X123704779Y-70723144D01*
X123704779Y-70723144D01*
G37*
D12*
X123444000Y-71247000D03*
D11*
G36*
X123704779Y-72473144D02*
G01*
X123727834Y-72476563D01*
X123750443Y-72482227D01*
X123772387Y-72490079D01*
X123793457Y-72500044D01*
X123813448Y-72512026D01*
X123832168Y-72525910D01*
X123849438Y-72541562D01*
X123865090Y-72558832D01*
X123878974Y-72577552D01*
X123890956Y-72597543D01*
X123900921Y-72618613D01*
X123908773Y-72640557D01*
X123914437Y-72663166D01*
X123917856Y-72686221D01*
X123919000Y-72709500D01*
X123919000Y-73284500D01*
X123917856Y-73307779D01*
X123914437Y-73330834D01*
X123908773Y-73353443D01*
X123900921Y-73375387D01*
X123890956Y-73396457D01*
X123878974Y-73416448D01*
X123865090Y-73435168D01*
X123849438Y-73452438D01*
X123832168Y-73468090D01*
X123813448Y-73481974D01*
X123793457Y-73493956D01*
X123772387Y-73503921D01*
X123750443Y-73511773D01*
X123727834Y-73517437D01*
X123704779Y-73520856D01*
X123681500Y-73522000D01*
X123206500Y-73522000D01*
X123183221Y-73520856D01*
X123160166Y-73517437D01*
X123137557Y-73511773D01*
X123115613Y-73503921D01*
X123094543Y-73493956D01*
X123074552Y-73481974D01*
X123055832Y-73468090D01*
X123038562Y-73452438D01*
X123022910Y-73435168D01*
X123009026Y-73416448D01*
X122997044Y-73396457D01*
X122987079Y-73375387D01*
X122979227Y-73353443D01*
X122973563Y-73330834D01*
X122970144Y-73307779D01*
X122969000Y-73284500D01*
X122969000Y-72709500D01*
X122970144Y-72686221D01*
X122973563Y-72663166D01*
X122979227Y-72640557D01*
X122987079Y-72618613D01*
X122997044Y-72597543D01*
X123009026Y-72577552D01*
X123022910Y-72558832D01*
X123038562Y-72541562D01*
X123055832Y-72525910D01*
X123074552Y-72512026D01*
X123094543Y-72500044D01*
X123115613Y-72490079D01*
X123137557Y-72482227D01*
X123160166Y-72476563D01*
X123183221Y-72473144D01*
X123206500Y-72472000D01*
X123681500Y-72472000D01*
X123704779Y-72473144D01*
X123704779Y-72473144D01*
G37*
D12*
X123444000Y-72997000D03*
D11*
G36*
X131324779Y-70737144D02*
G01*
X131347834Y-70740563D01*
X131370443Y-70746227D01*
X131392387Y-70754079D01*
X131413457Y-70764044D01*
X131433448Y-70776026D01*
X131452168Y-70789910D01*
X131469438Y-70805562D01*
X131485090Y-70822832D01*
X131498974Y-70841552D01*
X131510956Y-70861543D01*
X131520921Y-70882613D01*
X131528773Y-70904557D01*
X131534437Y-70927166D01*
X131537856Y-70950221D01*
X131539000Y-70973500D01*
X131539000Y-71548500D01*
X131537856Y-71571779D01*
X131534437Y-71594834D01*
X131528773Y-71617443D01*
X131520921Y-71639387D01*
X131510956Y-71660457D01*
X131498974Y-71680448D01*
X131485090Y-71699168D01*
X131469438Y-71716438D01*
X131452168Y-71732090D01*
X131433448Y-71745974D01*
X131413457Y-71757956D01*
X131392387Y-71767921D01*
X131370443Y-71775773D01*
X131347834Y-71781437D01*
X131324779Y-71784856D01*
X131301500Y-71786000D01*
X130826500Y-71786000D01*
X130803221Y-71784856D01*
X130780166Y-71781437D01*
X130757557Y-71775773D01*
X130735613Y-71767921D01*
X130714543Y-71757956D01*
X130694552Y-71745974D01*
X130675832Y-71732090D01*
X130658562Y-71716438D01*
X130642910Y-71699168D01*
X130629026Y-71680448D01*
X130617044Y-71660457D01*
X130607079Y-71639387D01*
X130599227Y-71617443D01*
X130593563Y-71594834D01*
X130590144Y-71571779D01*
X130589000Y-71548500D01*
X130589000Y-70973500D01*
X130590144Y-70950221D01*
X130593563Y-70927166D01*
X130599227Y-70904557D01*
X130607079Y-70882613D01*
X130617044Y-70861543D01*
X130629026Y-70841552D01*
X130642910Y-70822832D01*
X130658562Y-70805562D01*
X130675832Y-70789910D01*
X130694552Y-70776026D01*
X130714543Y-70764044D01*
X130735613Y-70754079D01*
X130757557Y-70746227D01*
X130780166Y-70740563D01*
X130803221Y-70737144D01*
X130826500Y-70736000D01*
X131301500Y-70736000D01*
X131324779Y-70737144D01*
X131324779Y-70737144D01*
G37*
D12*
X131064000Y-71261000D03*
D11*
G36*
X131324779Y-72487144D02*
G01*
X131347834Y-72490563D01*
X131370443Y-72496227D01*
X131392387Y-72504079D01*
X131413457Y-72514044D01*
X131433448Y-72526026D01*
X131452168Y-72539910D01*
X131469438Y-72555562D01*
X131485090Y-72572832D01*
X131498974Y-72591552D01*
X131510956Y-72611543D01*
X131520921Y-72632613D01*
X131528773Y-72654557D01*
X131534437Y-72677166D01*
X131537856Y-72700221D01*
X131539000Y-72723500D01*
X131539000Y-73298500D01*
X131537856Y-73321779D01*
X131534437Y-73344834D01*
X131528773Y-73367443D01*
X131520921Y-73389387D01*
X131510956Y-73410457D01*
X131498974Y-73430448D01*
X131485090Y-73449168D01*
X131469438Y-73466438D01*
X131452168Y-73482090D01*
X131433448Y-73495974D01*
X131413457Y-73507956D01*
X131392387Y-73517921D01*
X131370443Y-73525773D01*
X131347834Y-73531437D01*
X131324779Y-73534856D01*
X131301500Y-73536000D01*
X130826500Y-73536000D01*
X130803221Y-73534856D01*
X130780166Y-73531437D01*
X130757557Y-73525773D01*
X130735613Y-73517921D01*
X130714543Y-73507956D01*
X130694552Y-73495974D01*
X130675832Y-73482090D01*
X130658562Y-73466438D01*
X130642910Y-73449168D01*
X130629026Y-73430448D01*
X130617044Y-73410457D01*
X130607079Y-73389387D01*
X130599227Y-73367443D01*
X130593563Y-73344834D01*
X130590144Y-73321779D01*
X130589000Y-73298500D01*
X130589000Y-72723500D01*
X130590144Y-72700221D01*
X130593563Y-72677166D01*
X130599227Y-72654557D01*
X130607079Y-72632613D01*
X130617044Y-72611543D01*
X130629026Y-72591552D01*
X130642910Y-72572832D01*
X130658562Y-72555562D01*
X130675832Y-72539910D01*
X130694552Y-72526026D01*
X130714543Y-72514044D01*
X130735613Y-72504079D01*
X130757557Y-72496227D01*
X130780166Y-72490563D01*
X130803221Y-72487144D01*
X130826500Y-72486000D01*
X131301500Y-72486000D01*
X131324779Y-72487144D01*
X131324779Y-72487144D01*
G37*
D12*
X131064000Y-73011000D03*
D11*
G36*
X139071779Y-70624144D02*
G01*
X139094834Y-70627563D01*
X139117443Y-70633227D01*
X139139387Y-70641079D01*
X139160457Y-70651044D01*
X139180448Y-70663026D01*
X139199168Y-70676910D01*
X139216438Y-70692562D01*
X139232090Y-70709832D01*
X139245974Y-70728552D01*
X139257956Y-70748543D01*
X139267921Y-70769613D01*
X139275773Y-70791557D01*
X139281437Y-70814166D01*
X139284856Y-70837221D01*
X139286000Y-70860500D01*
X139286000Y-71435500D01*
X139284856Y-71458779D01*
X139281437Y-71481834D01*
X139275773Y-71504443D01*
X139267921Y-71526387D01*
X139257956Y-71547457D01*
X139245974Y-71567448D01*
X139232090Y-71586168D01*
X139216438Y-71603438D01*
X139199168Y-71619090D01*
X139180448Y-71632974D01*
X139160457Y-71644956D01*
X139139387Y-71654921D01*
X139117443Y-71662773D01*
X139094834Y-71668437D01*
X139071779Y-71671856D01*
X139048500Y-71673000D01*
X138573500Y-71673000D01*
X138550221Y-71671856D01*
X138527166Y-71668437D01*
X138504557Y-71662773D01*
X138482613Y-71654921D01*
X138461543Y-71644956D01*
X138441552Y-71632974D01*
X138422832Y-71619090D01*
X138405562Y-71603438D01*
X138389910Y-71586168D01*
X138376026Y-71567448D01*
X138364044Y-71547457D01*
X138354079Y-71526387D01*
X138346227Y-71504443D01*
X138340563Y-71481834D01*
X138337144Y-71458779D01*
X138336000Y-71435500D01*
X138336000Y-70860500D01*
X138337144Y-70837221D01*
X138340563Y-70814166D01*
X138346227Y-70791557D01*
X138354079Y-70769613D01*
X138364044Y-70748543D01*
X138376026Y-70728552D01*
X138389910Y-70709832D01*
X138405562Y-70692562D01*
X138422832Y-70676910D01*
X138441552Y-70663026D01*
X138461543Y-70651044D01*
X138482613Y-70641079D01*
X138504557Y-70633227D01*
X138527166Y-70627563D01*
X138550221Y-70624144D01*
X138573500Y-70623000D01*
X139048500Y-70623000D01*
X139071779Y-70624144D01*
X139071779Y-70624144D01*
G37*
D12*
X138811000Y-71148000D03*
D11*
G36*
X139071779Y-72374144D02*
G01*
X139094834Y-72377563D01*
X139117443Y-72383227D01*
X139139387Y-72391079D01*
X139160457Y-72401044D01*
X139180448Y-72413026D01*
X139199168Y-72426910D01*
X139216438Y-72442562D01*
X139232090Y-72459832D01*
X139245974Y-72478552D01*
X139257956Y-72498543D01*
X139267921Y-72519613D01*
X139275773Y-72541557D01*
X139281437Y-72564166D01*
X139284856Y-72587221D01*
X139286000Y-72610500D01*
X139286000Y-73185500D01*
X139284856Y-73208779D01*
X139281437Y-73231834D01*
X139275773Y-73254443D01*
X139267921Y-73276387D01*
X139257956Y-73297457D01*
X139245974Y-73317448D01*
X139232090Y-73336168D01*
X139216438Y-73353438D01*
X139199168Y-73369090D01*
X139180448Y-73382974D01*
X139160457Y-73394956D01*
X139139387Y-73404921D01*
X139117443Y-73412773D01*
X139094834Y-73418437D01*
X139071779Y-73421856D01*
X139048500Y-73423000D01*
X138573500Y-73423000D01*
X138550221Y-73421856D01*
X138527166Y-73418437D01*
X138504557Y-73412773D01*
X138482613Y-73404921D01*
X138461543Y-73394956D01*
X138441552Y-73382974D01*
X138422832Y-73369090D01*
X138405562Y-73353438D01*
X138389910Y-73336168D01*
X138376026Y-73317448D01*
X138364044Y-73297457D01*
X138354079Y-73276387D01*
X138346227Y-73254443D01*
X138340563Y-73231834D01*
X138337144Y-73208779D01*
X138336000Y-73185500D01*
X138336000Y-72610500D01*
X138337144Y-72587221D01*
X138340563Y-72564166D01*
X138346227Y-72541557D01*
X138354079Y-72519613D01*
X138364044Y-72498543D01*
X138376026Y-72478552D01*
X138389910Y-72459832D01*
X138405562Y-72442562D01*
X138422832Y-72426910D01*
X138441552Y-72413026D01*
X138461543Y-72401044D01*
X138482613Y-72391079D01*
X138504557Y-72383227D01*
X138527166Y-72377563D01*
X138550221Y-72374144D01*
X138573500Y-72373000D01*
X139048500Y-72373000D01*
X139071779Y-72374144D01*
X139071779Y-72374144D01*
G37*
D12*
X138811000Y-72898000D03*
D11*
G36*
X146818779Y-70610144D02*
G01*
X146841834Y-70613563D01*
X146864443Y-70619227D01*
X146886387Y-70627079D01*
X146907457Y-70637044D01*
X146927448Y-70649026D01*
X146946168Y-70662910D01*
X146963438Y-70678562D01*
X146979090Y-70695832D01*
X146992974Y-70714552D01*
X147004956Y-70734543D01*
X147014921Y-70755613D01*
X147022773Y-70777557D01*
X147028437Y-70800166D01*
X147031856Y-70823221D01*
X147033000Y-70846500D01*
X147033000Y-71421500D01*
X147031856Y-71444779D01*
X147028437Y-71467834D01*
X147022773Y-71490443D01*
X147014921Y-71512387D01*
X147004956Y-71533457D01*
X146992974Y-71553448D01*
X146979090Y-71572168D01*
X146963438Y-71589438D01*
X146946168Y-71605090D01*
X146927448Y-71618974D01*
X146907457Y-71630956D01*
X146886387Y-71640921D01*
X146864443Y-71648773D01*
X146841834Y-71654437D01*
X146818779Y-71657856D01*
X146795500Y-71659000D01*
X146320500Y-71659000D01*
X146297221Y-71657856D01*
X146274166Y-71654437D01*
X146251557Y-71648773D01*
X146229613Y-71640921D01*
X146208543Y-71630956D01*
X146188552Y-71618974D01*
X146169832Y-71605090D01*
X146152562Y-71589438D01*
X146136910Y-71572168D01*
X146123026Y-71553448D01*
X146111044Y-71533457D01*
X146101079Y-71512387D01*
X146093227Y-71490443D01*
X146087563Y-71467834D01*
X146084144Y-71444779D01*
X146083000Y-71421500D01*
X146083000Y-70846500D01*
X146084144Y-70823221D01*
X146087563Y-70800166D01*
X146093227Y-70777557D01*
X146101079Y-70755613D01*
X146111044Y-70734543D01*
X146123026Y-70714552D01*
X146136910Y-70695832D01*
X146152562Y-70678562D01*
X146169832Y-70662910D01*
X146188552Y-70649026D01*
X146208543Y-70637044D01*
X146229613Y-70627079D01*
X146251557Y-70619227D01*
X146274166Y-70613563D01*
X146297221Y-70610144D01*
X146320500Y-70609000D01*
X146795500Y-70609000D01*
X146818779Y-70610144D01*
X146818779Y-70610144D01*
G37*
D12*
X146558000Y-71134000D03*
D11*
G36*
X146818779Y-72360144D02*
G01*
X146841834Y-72363563D01*
X146864443Y-72369227D01*
X146886387Y-72377079D01*
X146907457Y-72387044D01*
X146927448Y-72399026D01*
X146946168Y-72412910D01*
X146963438Y-72428562D01*
X146979090Y-72445832D01*
X146992974Y-72464552D01*
X147004956Y-72484543D01*
X147014921Y-72505613D01*
X147022773Y-72527557D01*
X147028437Y-72550166D01*
X147031856Y-72573221D01*
X147033000Y-72596500D01*
X147033000Y-73171500D01*
X147031856Y-73194779D01*
X147028437Y-73217834D01*
X147022773Y-73240443D01*
X147014921Y-73262387D01*
X147004956Y-73283457D01*
X146992974Y-73303448D01*
X146979090Y-73322168D01*
X146963438Y-73339438D01*
X146946168Y-73355090D01*
X146927448Y-73368974D01*
X146907457Y-73380956D01*
X146886387Y-73390921D01*
X146864443Y-73398773D01*
X146841834Y-73404437D01*
X146818779Y-73407856D01*
X146795500Y-73409000D01*
X146320500Y-73409000D01*
X146297221Y-73407856D01*
X146274166Y-73404437D01*
X146251557Y-73398773D01*
X146229613Y-73390921D01*
X146208543Y-73380956D01*
X146188552Y-73368974D01*
X146169832Y-73355090D01*
X146152562Y-73339438D01*
X146136910Y-73322168D01*
X146123026Y-73303448D01*
X146111044Y-73283457D01*
X146101079Y-73262387D01*
X146093227Y-73240443D01*
X146087563Y-73217834D01*
X146084144Y-73194779D01*
X146083000Y-73171500D01*
X146083000Y-72596500D01*
X146084144Y-72573221D01*
X146087563Y-72550166D01*
X146093227Y-72527557D01*
X146101079Y-72505613D01*
X146111044Y-72484543D01*
X146123026Y-72464552D01*
X146136910Y-72445832D01*
X146152562Y-72428562D01*
X146169832Y-72412910D01*
X146188552Y-72399026D01*
X146208543Y-72387044D01*
X146229613Y-72377079D01*
X146251557Y-72369227D01*
X146274166Y-72363563D01*
X146297221Y-72360144D01*
X146320500Y-72359000D01*
X146795500Y-72359000D01*
X146818779Y-72360144D01*
X146818779Y-72360144D01*
G37*
D12*
X146558000Y-72884000D03*
D22*
X136868000Y-110236000D03*
X135188000Y-110236000D03*
D23*
X138938000Y-110236000D03*
X133118000Y-110236000D03*
D24*
X138490500Y-107936000D03*
X133565500Y-107936000D03*
D25*
X137328000Y-107576000D03*
X136678000Y-107576000D03*
X136028000Y-107576000D03*
X135378000Y-107576000D03*
X134728000Y-107576000D03*
D13*
X127508000Y-109220000D03*
D14*
X124968000Y-109220000D03*
D26*
X150719000Y-109855000D03*
X145669000Y-109855000D03*
X150719000Y-107315000D03*
X145669000Y-107315000D03*
X150719000Y-104775000D03*
X145669000Y-104775000D03*
D11*
G36*
X114885505Y-99948704D02*
G01*
X114909773Y-99952304D01*
X114933572Y-99958265D01*
X114956671Y-99966530D01*
X114978850Y-99977020D01*
X114999893Y-99989632D01*
X115019599Y-100004247D01*
X115037777Y-100020723D01*
X115054253Y-100038901D01*
X115068868Y-100058607D01*
X115081480Y-100079650D01*
X115091970Y-100101829D01*
X115100235Y-100124928D01*
X115106196Y-100148727D01*
X115109796Y-100172995D01*
X115111000Y-100197499D01*
X115111000Y-101097501D01*
X115109796Y-101122005D01*
X115106196Y-101146273D01*
X115100235Y-101170072D01*
X115091970Y-101193171D01*
X115081480Y-101215350D01*
X115068868Y-101236393D01*
X115054253Y-101256099D01*
X115037777Y-101274277D01*
X115019599Y-101290753D01*
X114999893Y-101305368D01*
X114978850Y-101317980D01*
X114956671Y-101328470D01*
X114933572Y-101336735D01*
X114909773Y-101342696D01*
X114885505Y-101346296D01*
X114861001Y-101347500D01*
X114210999Y-101347500D01*
X114186495Y-101346296D01*
X114162227Y-101342696D01*
X114138428Y-101336735D01*
X114115329Y-101328470D01*
X114093150Y-101317980D01*
X114072107Y-101305368D01*
X114052401Y-101290753D01*
X114034223Y-101274277D01*
X114017747Y-101256099D01*
X114003132Y-101236393D01*
X113990520Y-101215350D01*
X113980030Y-101193171D01*
X113971765Y-101170072D01*
X113965804Y-101146273D01*
X113962204Y-101122005D01*
X113961000Y-101097501D01*
X113961000Y-100197499D01*
X113962204Y-100172995D01*
X113965804Y-100148727D01*
X113971765Y-100124928D01*
X113980030Y-100101829D01*
X113990520Y-100079650D01*
X114003132Y-100058607D01*
X114017747Y-100038901D01*
X114034223Y-100020723D01*
X114052401Y-100004247D01*
X114072107Y-99989632D01*
X114093150Y-99977020D01*
X114115329Y-99966530D01*
X114138428Y-99958265D01*
X114162227Y-99952304D01*
X114186495Y-99948704D01*
X114210999Y-99947500D01*
X114861001Y-99947500D01*
X114885505Y-99948704D01*
X114885505Y-99948704D01*
G37*
D27*
X114536000Y-100647500D03*
D11*
G36*
X116935505Y-99948704D02*
G01*
X116959773Y-99952304D01*
X116983572Y-99958265D01*
X117006671Y-99966530D01*
X117028850Y-99977020D01*
X117049893Y-99989632D01*
X117069599Y-100004247D01*
X117087777Y-100020723D01*
X117104253Y-100038901D01*
X117118868Y-100058607D01*
X117131480Y-100079650D01*
X117141970Y-100101829D01*
X117150235Y-100124928D01*
X117156196Y-100148727D01*
X117159796Y-100172995D01*
X117161000Y-100197499D01*
X117161000Y-101097501D01*
X117159796Y-101122005D01*
X117156196Y-101146273D01*
X117150235Y-101170072D01*
X117141970Y-101193171D01*
X117131480Y-101215350D01*
X117118868Y-101236393D01*
X117104253Y-101256099D01*
X117087777Y-101274277D01*
X117069599Y-101290753D01*
X117049893Y-101305368D01*
X117028850Y-101317980D01*
X117006671Y-101328470D01*
X116983572Y-101336735D01*
X116959773Y-101342696D01*
X116935505Y-101346296D01*
X116911001Y-101347500D01*
X116260999Y-101347500D01*
X116236495Y-101346296D01*
X116212227Y-101342696D01*
X116188428Y-101336735D01*
X116165329Y-101328470D01*
X116143150Y-101317980D01*
X116122107Y-101305368D01*
X116102401Y-101290753D01*
X116084223Y-101274277D01*
X116067747Y-101256099D01*
X116053132Y-101236393D01*
X116040520Y-101215350D01*
X116030030Y-101193171D01*
X116021765Y-101170072D01*
X116015804Y-101146273D01*
X116012204Y-101122005D01*
X116011000Y-101097501D01*
X116011000Y-100197499D01*
X116012204Y-100172995D01*
X116015804Y-100148727D01*
X116021765Y-100124928D01*
X116030030Y-100101829D01*
X116040520Y-100079650D01*
X116053132Y-100058607D01*
X116067747Y-100038901D01*
X116084223Y-100020723D01*
X116102401Y-100004247D01*
X116122107Y-99989632D01*
X116143150Y-99977020D01*
X116165329Y-99966530D01*
X116188428Y-99958265D01*
X116212227Y-99952304D01*
X116236495Y-99948704D01*
X116260999Y-99947500D01*
X116911001Y-99947500D01*
X116935505Y-99948704D01*
X116935505Y-99948704D01*
G37*
D27*
X116586000Y-100647500D03*
D11*
G36*
X114840005Y-95503704D02*
G01*
X114864273Y-95507304D01*
X114888072Y-95513265D01*
X114911171Y-95521530D01*
X114933350Y-95532020D01*
X114954393Y-95544632D01*
X114974099Y-95559247D01*
X114992277Y-95575723D01*
X115008753Y-95593901D01*
X115023368Y-95613607D01*
X115035980Y-95634650D01*
X115046470Y-95656829D01*
X115054735Y-95679928D01*
X115060696Y-95703727D01*
X115064296Y-95727995D01*
X115065500Y-95752499D01*
X115065500Y-96652501D01*
X115064296Y-96677005D01*
X115060696Y-96701273D01*
X115054735Y-96725072D01*
X115046470Y-96748171D01*
X115035980Y-96770350D01*
X115023368Y-96791393D01*
X115008753Y-96811099D01*
X114992277Y-96829277D01*
X114974099Y-96845753D01*
X114954393Y-96860368D01*
X114933350Y-96872980D01*
X114911171Y-96883470D01*
X114888072Y-96891735D01*
X114864273Y-96897696D01*
X114840005Y-96901296D01*
X114815501Y-96902500D01*
X114165499Y-96902500D01*
X114140995Y-96901296D01*
X114116727Y-96897696D01*
X114092928Y-96891735D01*
X114069829Y-96883470D01*
X114047650Y-96872980D01*
X114026607Y-96860368D01*
X114006901Y-96845753D01*
X113988723Y-96829277D01*
X113972247Y-96811099D01*
X113957632Y-96791393D01*
X113945020Y-96770350D01*
X113934530Y-96748171D01*
X113926265Y-96725072D01*
X113920304Y-96701273D01*
X113916704Y-96677005D01*
X113915500Y-96652501D01*
X113915500Y-95752499D01*
X113916704Y-95727995D01*
X113920304Y-95703727D01*
X113926265Y-95679928D01*
X113934530Y-95656829D01*
X113945020Y-95634650D01*
X113957632Y-95613607D01*
X113972247Y-95593901D01*
X113988723Y-95575723D01*
X114006901Y-95559247D01*
X114026607Y-95544632D01*
X114047650Y-95532020D01*
X114069829Y-95521530D01*
X114092928Y-95513265D01*
X114116727Y-95507304D01*
X114140995Y-95503704D01*
X114165499Y-95502500D01*
X114815501Y-95502500D01*
X114840005Y-95503704D01*
X114840005Y-95503704D01*
G37*
D27*
X114490500Y-96202500D03*
D11*
G36*
X116890005Y-95503704D02*
G01*
X116914273Y-95507304D01*
X116938072Y-95513265D01*
X116961171Y-95521530D01*
X116983350Y-95532020D01*
X117004393Y-95544632D01*
X117024099Y-95559247D01*
X117042277Y-95575723D01*
X117058753Y-95593901D01*
X117073368Y-95613607D01*
X117085980Y-95634650D01*
X117096470Y-95656829D01*
X117104735Y-95679928D01*
X117110696Y-95703727D01*
X117114296Y-95727995D01*
X117115500Y-95752499D01*
X117115500Y-96652501D01*
X117114296Y-96677005D01*
X117110696Y-96701273D01*
X117104735Y-96725072D01*
X117096470Y-96748171D01*
X117085980Y-96770350D01*
X117073368Y-96791393D01*
X117058753Y-96811099D01*
X117042277Y-96829277D01*
X117024099Y-96845753D01*
X117004393Y-96860368D01*
X116983350Y-96872980D01*
X116961171Y-96883470D01*
X116938072Y-96891735D01*
X116914273Y-96897696D01*
X116890005Y-96901296D01*
X116865501Y-96902500D01*
X116215499Y-96902500D01*
X116190995Y-96901296D01*
X116166727Y-96897696D01*
X116142928Y-96891735D01*
X116119829Y-96883470D01*
X116097650Y-96872980D01*
X116076607Y-96860368D01*
X116056901Y-96845753D01*
X116038723Y-96829277D01*
X116022247Y-96811099D01*
X116007632Y-96791393D01*
X115995020Y-96770350D01*
X115984530Y-96748171D01*
X115976265Y-96725072D01*
X115970304Y-96701273D01*
X115966704Y-96677005D01*
X115965500Y-96652501D01*
X115965500Y-95752499D01*
X115966704Y-95727995D01*
X115970304Y-95703727D01*
X115976265Y-95679928D01*
X115984530Y-95656829D01*
X115995020Y-95634650D01*
X116007632Y-95613607D01*
X116022247Y-95593901D01*
X116038723Y-95575723D01*
X116056901Y-95559247D01*
X116076607Y-95544632D01*
X116097650Y-95532020D01*
X116119829Y-95521530D01*
X116142928Y-95513265D01*
X116166727Y-95507304D01*
X116190995Y-95503704D01*
X116215499Y-95502500D01*
X116865501Y-95502500D01*
X116890005Y-95503704D01*
X116890005Y-95503704D01*
G37*
D27*
X116540500Y-96202500D03*
D11*
G36*
X114822005Y-92328704D02*
G01*
X114846273Y-92332304D01*
X114870072Y-92338265D01*
X114893171Y-92346530D01*
X114915350Y-92357020D01*
X114936393Y-92369632D01*
X114956099Y-92384247D01*
X114974277Y-92400723D01*
X114990753Y-92418901D01*
X115005368Y-92438607D01*
X115017980Y-92459650D01*
X115028470Y-92481829D01*
X115036735Y-92504928D01*
X115042696Y-92528727D01*
X115046296Y-92552995D01*
X115047500Y-92577499D01*
X115047500Y-93477501D01*
X115046296Y-93502005D01*
X115042696Y-93526273D01*
X115036735Y-93550072D01*
X115028470Y-93573171D01*
X115017980Y-93595350D01*
X115005368Y-93616393D01*
X114990753Y-93636099D01*
X114974277Y-93654277D01*
X114956099Y-93670753D01*
X114936393Y-93685368D01*
X114915350Y-93697980D01*
X114893171Y-93708470D01*
X114870072Y-93716735D01*
X114846273Y-93722696D01*
X114822005Y-93726296D01*
X114797501Y-93727500D01*
X114147499Y-93727500D01*
X114122995Y-93726296D01*
X114098727Y-93722696D01*
X114074928Y-93716735D01*
X114051829Y-93708470D01*
X114029650Y-93697980D01*
X114008607Y-93685368D01*
X113988901Y-93670753D01*
X113970723Y-93654277D01*
X113954247Y-93636099D01*
X113939632Y-93616393D01*
X113927020Y-93595350D01*
X113916530Y-93573171D01*
X113908265Y-93550072D01*
X113902304Y-93526273D01*
X113898704Y-93502005D01*
X113897500Y-93477501D01*
X113897500Y-92577499D01*
X113898704Y-92552995D01*
X113902304Y-92528727D01*
X113908265Y-92504928D01*
X113916530Y-92481829D01*
X113927020Y-92459650D01*
X113939632Y-92438607D01*
X113954247Y-92418901D01*
X113970723Y-92400723D01*
X113988901Y-92384247D01*
X114008607Y-92369632D01*
X114029650Y-92357020D01*
X114051829Y-92346530D01*
X114074928Y-92338265D01*
X114098727Y-92332304D01*
X114122995Y-92328704D01*
X114147499Y-92327500D01*
X114797501Y-92327500D01*
X114822005Y-92328704D01*
X114822005Y-92328704D01*
G37*
D27*
X114472500Y-93027500D03*
D11*
G36*
X116872005Y-92328704D02*
G01*
X116896273Y-92332304D01*
X116920072Y-92338265D01*
X116943171Y-92346530D01*
X116965350Y-92357020D01*
X116986393Y-92369632D01*
X117006099Y-92384247D01*
X117024277Y-92400723D01*
X117040753Y-92418901D01*
X117055368Y-92438607D01*
X117067980Y-92459650D01*
X117078470Y-92481829D01*
X117086735Y-92504928D01*
X117092696Y-92528727D01*
X117096296Y-92552995D01*
X117097500Y-92577499D01*
X117097500Y-93477501D01*
X117096296Y-93502005D01*
X117092696Y-93526273D01*
X117086735Y-93550072D01*
X117078470Y-93573171D01*
X117067980Y-93595350D01*
X117055368Y-93616393D01*
X117040753Y-93636099D01*
X117024277Y-93654277D01*
X117006099Y-93670753D01*
X116986393Y-93685368D01*
X116965350Y-93697980D01*
X116943171Y-93708470D01*
X116920072Y-93716735D01*
X116896273Y-93722696D01*
X116872005Y-93726296D01*
X116847501Y-93727500D01*
X116197499Y-93727500D01*
X116172995Y-93726296D01*
X116148727Y-93722696D01*
X116124928Y-93716735D01*
X116101829Y-93708470D01*
X116079650Y-93697980D01*
X116058607Y-93685368D01*
X116038901Y-93670753D01*
X116020723Y-93654277D01*
X116004247Y-93636099D01*
X115989632Y-93616393D01*
X115977020Y-93595350D01*
X115966530Y-93573171D01*
X115958265Y-93550072D01*
X115952304Y-93526273D01*
X115948704Y-93502005D01*
X115947500Y-93477501D01*
X115947500Y-92577499D01*
X115948704Y-92552995D01*
X115952304Y-92528727D01*
X115958265Y-92504928D01*
X115966530Y-92481829D01*
X115977020Y-92459650D01*
X115989632Y-92438607D01*
X116004247Y-92418901D01*
X116020723Y-92400723D01*
X116038901Y-92384247D01*
X116058607Y-92369632D01*
X116079650Y-92357020D01*
X116101829Y-92346530D01*
X116124928Y-92338265D01*
X116148727Y-92332304D01*
X116172995Y-92328704D01*
X116197499Y-92327500D01*
X116847501Y-92327500D01*
X116872005Y-92328704D01*
X116872005Y-92328704D01*
G37*
D27*
X116522500Y-93027500D03*
D28*
X124968000Y-103926000D03*
X124968000Y-106426000D03*
D11*
G36*
X114840005Y-86613704D02*
G01*
X114864273Y-86617304D01*
X114888072Y-86623265D01*
X114911171Y-86631530D01*
X114933350Y-86642020D01*
X114954393Y-86654632D01*
X114974099Y-86669247D01*
X114992277Y-86685723D01*
X115008753Y-86703901D01*
X115023368Y-86723607D01*
X115035980Y-86744650D01*
X115046470Y-86766829D01*
X115054735Y-86789928D01*
X115060696Y-86813727D01*
X115064296Y-86837995D01*
X115065500Y-86862499D01*
X115065500Y-87762501D01*
X115064296Y-87787005D01*
X115060696Y-87811273D01*
X115054735Y-87835072D01*
X115046470Y-87858171D01*
X115035980Y-87880350D01*
X115023368Y-87901393D01*
X115008753Y-87921099D01*
X114992277Y-87939277D01*
X114974099Y-87955753D01*
X114954393Y-87970368D01*
X114933350Y-87982980D01*
X114911171Y-87993470D01*
X114888072Y-88001735D01*
X114864273Y-88007696D01*
X114840005Y-88011296D01*
X114815501Y-88012500D01*
X114165499Y-88012500D01*
X114140995Y-88011296D01*
X114116727Y-88007696D01*
X114092928Y-88001735D01*
X114069829Y-87993470D01*
X114047650Y-87982980D01*
X114026607Y-87970368D01*
X114006901Y-87955753D01*
X113988723Y-87939277D01*
X113972247Y-87921099D01*
X113957632Y-87901393D01*
X113945020Y-87880350D01*
X113934530Y-87858171D01*
X113926265Y-87835072D01*
X113920304Y-87811273D01*
X113916704Y-87787005D01*
X113915500Y-87762501D01*
X113915500Y-86862499D01*
X113916704Y-86837995D01*
X113920304Y-86813727D01*
X113926265Y-86789928D01*
X113934530Y-86766829D01*
X113945020Y-86744650D01*
X113957632Y-86723607D01*
X113972247Y-86703901D01*
X113988723Y-86685723D01*
X114006901Y-86669247D01*
X114026607Y-86654632D01*
X114047650Y-86642020D01*
X114069829Y-86631530D01*
X114092928Y-86623265D01*
X114116727Y-86617304D01*
X114140995Y-86613704D01*
X114165499Y-86612500D01*
X114815501Y-86612500D01*
X114840005Y-86613704D01*
X114840005Y-86613704D01*
G37*
D27*
X114490500Y-87312500D03*
D11*
G36*
X116890005Y-86613704D02*
G01*
X116914273Y-86617304D01*
X116938072Y-86623265D01*
X116961171Y-86631530D01*
X116983350Y-86642020D01*
X117004393Y-86654632D01*
X117024099Y-86669247D01*
X117042277Y-86685723D01*
X117058753Y-86703901D01*
X117073368Y-86723607D01*
X117085980Y-86744650D01*
X117096470Y-86766829D01*
X117104735Y-86789928D01*
X117110696Y-86813727D01*
X117114296Y-86837995D01*
X117115500Y-86862499D01*
X117115500Y-87762501D01*
X117114296Y-87787005D01*
X117110696Y-87811273D01*
X117104735Y-87835072D01*
X117096470Y-87858171D01*
X117085980Y-87880350D01*
X117073368Y-87901393D01*
X117058753Y-87921099D01*
X117042277Y-87939277D01*
X117024099Y-87955753D01*
X117004393Y-87970368D01*
X116983350Y-87982980D01*
X116961171Y-87993470D01*
X116938072Y-88001735D01*
X116914273Y-88007696D01*
X116890005Y-88011296D01*
X116865501Y-88012500D01*
X116215499Y-88012500D01*
X116190995Y-88011296D01*
X116166727Y-88007696D01*
X116142928Y-88001735D01*
X116119829Y-87993470D01*
X116097650Y-87982980D01*
X116076607Y-87970368D01*
X116056901Y-87955753D01*
X116038723Y-87939277D01*
X116022247Y-87921099D01*
X116007632Y-87901393D01*
X115995020Y-87880350D01*
X115984530Y-87858171D01*
X115976265Y-87835072D01*
X115970304Y-87811273D01*
X115966704Y-87787005D01*
X115965500Y-87762501D01*
X115965500Y-86862499D01*
X115966704Y-86837995D01*
X115970304Y-86813727D01*
X115976265Y-86789928D01*
X115984530Y-86766829D01*
X115995020Y-86744650D01*
X116007632Y-86723607D01*
X116022247Y-86703901D01*
X116038723Y-86685723D01*
X116056901Y-86669247D01*
X116076607Y-86654632D01*
X116097650Y-86642020D01*
X116119829Y-86631530D01*
X116142928Y-86623265D01*
X116166727Y-86617304D01*
X116190995Y-86613704D01*
X116215499Y-86612500D01*
X116865501Y-86612500D01*
X116890005Y-86613704D01*
X116890005Y-86613704D01*
G37*
D27*
X116540500Y-87312500D03*
D11*
G36*
X114840005Y-83438704D02*
G01*
X114864273Y-83442304D01*
X114888072Y-83448265D01*
X114911171Y-83456530D01*
X114933350Y-83467020D01*
X114954393Y-83479632D01*
X114974099Y-83494247D01*
X114992277Y-83510723D01*
X115008753Y-83528901D01*
X115023368Y-83548607D01*
X115035980Y-83569650D01*
X115046470Y-83591829D01*
X115054735Y-83614928D01*
X115060696Y-83638727D01*
X115064296Y-83662995D01*
X115065500Y-83687499D01*
X115065500Y-84587501D01*
X115064296Y-84612005D01*
X115060696Y-84636273D01*
X115054735Y-84660072D01*
X115046470Y-84683171D01*
X115035980Y-84705350D01*
X115023368Y-84726393D01*
X115008753Y-84746099D01*
X114992277Y-84764277D01*
X114974099Y-84780753D01*
X114954393Y-84795368D01*
X114933350Y-84807980D01*
X114911171Y-84818470D01*
X114888072Y-84826735D01*
X114864273Y-84832696D01*
X114840005Y-84836296D01*
X114815501Y-84837500D01*
X114165499Y-84837500D01*
X114140995Y-84836296D01*
X114116727Y-84832696D01*
X114092928Y-84826735D01*
X114069829Y-84818470D01*
X114047650Y-84807980D01*
X114026607Y-84795368D01*
X114006901Y-84780753D01*
X113988723Y-84764277D01*
X113972247Y-84746099D01*
X113957632Y-84726393D01*
X113945020Y-84705350D01*
X113934530Y-84683171D01*
X113926265Y-84660072D01*
X113920304Y-84636273D01*
X113916704Y-84612005D01*
X113915500Y-84587501D01*
X113915500Y-83687499D01*
X113916704Y-83662995D01*
X113920304Y-83638727D01*
X113926265Y-83614928D01*
X113934530Y-83591829D01*
X113945020Y-83569650D01*
X113957632Y-83548607D01*
X113972247Y-83528901D01*
X113988723Y-83510723D01*
X114006901Y-83494247D01*
X114026607Y-83479632D01*
X114047650Y-83467020D01*
X114069829Y-83456530D01*
X114092928Y-83448265D01*
X114116727Y-83442304D01*
X114140995Y-83438704D01*
X114165499Y-83437500D01*
X114815501Y-83437500D01*
X114840005Y-83438704D01*
X114840005Y-83438704D01*
G37*
D27*
X114490500Y-84137500D03*
D11*
G36*
X116890005Y-83438704D02*
G01*
X116914273Y-83442304D01*
X116938072Y-83448265D01*
X116961171Y-83456530D01*
X116983350Y-83467020D01*
X117004393Y-83479632D01*
X117024099Y-83494247D01*
X117042277Y-83510723D01*
X117058753Y-83528901D01*
X117073368Y-83548607D01*
X117085980Y-83569650D01*
X117096470Y-83591829D01*
X117104735Y-83614928D01*
X117110696Y-83638727D01*
X117114296Y-83662995D01*
X117115500Y-83687499D01*
X117115500Y-84587501D01*
X117114296Y-84612005D01*
X117110696Y-84636273D01*
X117104735Y-84660072D01*
X117096470Y-84683171D01*
X117085980Y-84705350D01*
X117073368Y-84726393D01*
X117058753Y-84746099D01*
X117042277Y-84764277D01*
X117024099Y-84780753D01*
X117004393Y-84795368D01*
X116983350Y-84807980D01*
X116961171Y-84818470D01*
X116938072Y-84826735D01*
X116914273Y-84832696D01*
X116890005Y-84836296D01*
X116865501Y-84837500D01*
X116215499Y-84837500D01*
X116190995Y-84836296D01*
X116166727Y-84832696D01*
X116142928Y-84826735D01*
X116119829Y-84818470D01*
X116097650Y-84807980D01*
X116076607Y-84795368D01*
X116056901Y-84780753D01*
X116038723Y-84764277D01*
X116022247Y-84746099D01*
X116007632Y-84726393D01*
X115995020Y-84705350D01*
X115984530Y-84683171D01*
X115976265Y-84660072D01*
X115970304Y-84636273D01*
X115966704Y-84612005D01*
X115965500Y-84587501D01*
X115965500Y-83687499D01*
X115966704Y-83662995D01*
X115970304Y-83638727D01*
X115976265Y-83614928D01*
X115984530Y-83591829D01*
X115995020Y-83569650D01*
X116007632Y-83548607D01*
X116022247Y-83528901D01*
X116038723Y-83510723D01*
X116056901Y-83494247D01*
X116076607Y-83479632D01*
X116097650Y-83467020D01*
X116119829Y-83456530D01*
X116142928Y-83448265D01*
X116166727Y-83442304D01*
X116190995Y-83438704D01*
X116215499Y-83437500D01*
X116865501Y-83437500D01*
X116890005Y-83438704D01*
X116890005Y-83438704D01*
G37*
D27*
X116540500Y-84137500D03*
D11*
G36*
X135896779Y-100455144D02*
G01*
X135919834Y-100458563D01*
X135942443Y-100464227D01*
X135964387Y-100472079D01*
X135985457Y-100482044D01*
X136005448Y-100494026D01*
X136024168Y-100507910D01*
X136041438Y-100523562D01*
X136057090Y-100540832D01*
X136070974Y-100559552D01*
X136082956Y-100579543D01*
X136092921Y-100600613D01*
X136100773Y-100622557D01*
X136106437Y-100645166D01*
X136109856Y-100668221D01*
X136111000Y-100691500D01*
X136111000Y-101266500D01*
X136109856Y-101289779D01*
X136106437Y-101312834D01*
X136100773Y-101335443D01*
X136092921Y-101357387D01*
X136082956Y-101378457D01*
X136070974Y-101398448D01*
X136057090Y-101417168D01*
X136041438Y-101434438D01*
X136024168Y-101450090D01*
X136005448Y-101463974D01*
X135985457Y-101475956D01*
X135964387Y-101485921D01*
X135942443Y-101493773D01*
X135919834Y-101499437D01*
X135896779Y-101502856D01*
X135873500Y-101504000D01*
X135398500Y-101504000D01*
X135375221Y-101502856D01*
X135352166Y-101499437D01*
X135329557Y-101493773D01*
X135307613Y-101485921D01*
X135286543Y-101475956D01*
X135266552Y-101463974D01*
X135247832Y-101450090D01*
X135230562Y-101434438D01*
X135214910Y-101417168D01*
X135201026Y-101398448D01*
X135189044Y-101378457D01*
X135179079Y-101357387D01*
X135171227Y-101335443D01*
X135165563Y-101312834D01*
X135162144Y-101289779D01*
X135161000Y-101266500D01*
X135161000Y-100691500D01*
X135162144Y-100668221D01*
X135165563Y-100645166D01*
X135171227Y-100622557D01*
X135179079Y-100600613D01*
X135189044Y-100579543D01*
X135201026Y-100559552D01*
X135214910Y-100540832D01*
X135230562Y-100523562D01*
X135247832Y-100507910D01*
X135266552Y-100494026D01*
X135286543Y-100482044D01*
X135307613Y-100472079D01*
X135329557Y-100464227D01*
X135352166Y-100458563D01*
X135375221Y-100455144D01*
X135398500Y-100454000D01*
X135873500Y-100454000D01*
X135896779Y-100455144D01*
X135896779Y-100455144D01*
G37*
D12*
X135636000Y-100979000D03*
D11*
G36*
X135896779Y-102205144D02*
G01*
X135919834Y-102208563D01*
X135942443Y-102214227D01*
X135964387Y-102222079D01*
X135985457Y-102232044D01*
X136005448Y-102244026D01*
X136024168Y-102257910D01*
X136041438Y-102273562D01*
X136057090Y-102290832D01*
X136070974Y-102309552D01*
X136082956Y-102329543D01*
X136092921Y-102350613D01*
X136100773Y-102372557D01*
X136106437Y-102395166D01*
X136109856Y-102418221D01*
X136111000Y-102441500D01*
X136111000Y-103016500D01*
X136109856Y-103039779D01*
X136106437Y-103062834D01*
X136100773Y-103085443D01*
X136092921Y-103107387D01*
X136082956Y-103128457D01*
X136070974Y-103148448D01*
X136057090Y-103167168D01*
X136041438Y-103184438D01*
X136024168Y-103200090D01*
X136005448Y-103213974D01*
X135985457Y-103225956D01*
X135964387Y-103235921D01*
X135942443Y-103243773D01*
X135919834Y-103249437D01*
X135896779Y-103252856D01*
X135873500Y-103254000D01*
X135398500Y-103254000D01*
X135375221Y-103252856D01*
X135352166Y-103249437D01*
X135329557Y-103243773D01*
X135307613Y-103235921D01*
X135286543Y-103225956D01*
X135266552Y-103213974D01*
X135247832Y-103200090D01*
X135230562Y-103184438D01*
X135214910Y-103167168D01*
X135201026Y-103148448D01*
X135189044Y-103128457D01*
X135179079Y-103107387D01*
X135171227Y-103085443D01*
X135165563Y-103062834D01*
X135162144Y-103039779D01*
X135161000Y-103016500D01*
X135161000Y-102441500D01*
X135162144Y-102418221D01*
X135165563Y-102395166D01*
X135171227Y-102372557D01*
X135179079Y-102350613D01*
X135189044Y-102329543D01*
X135201026Y-102309552D01*
X135214910Y-102290832D01*
X135230562Y-102273562D01*
X135247832Y-102257910D01*
X135266552Y-102244026D01*
X135286543Y-102232044D01*
X135307613Y-102222079D01*
X135329557Y-102214227D01*
X135352166Y-102208563D01*
X135375221Y-102205144D01*
X135398500Y-102204000D01*
X135873500Y-102204000D01*
X135896779Y-102205144D01*
X135896779Y-102205144D01*
G37*
D12*
X135636000Y-102729000D03*
D11*
G36*
X140468779Y-100455144D02*
G01*
X140491834Y-100458563D01*
X140514443Y-100464227D01*
X140536387Y-100472079D01*
X140557457Y-100482044D01*
X140577448Y-100494026D01*
X140596168Y-100507910D01*
X140613438Y-100523562D01*
X140629090Y-100540832D01*
X140642974Y-100559552D01*
X140654956Y-100579543D01*
X140664921Y-100600613D01*
X140672773Y-100622557D01*
X140678437Y-100645166D01*
X140681856Y-100668221D01*
X140683000Y-100691500D01*
X140683000Y-101266500D01*
X140681856Y-101289779D01*
X140678437Y-101312834D01*
X140672773Y-101335443D01*
X140664921Y-101357387D01*
X140654956Y-101378457D01*
X140642974Y-101398448D01*
X140629090Y-101417168D01*
X140613438Y-101434438D01*
X140596168Y-101450090D01*
X140577448Y-101463974D01*
X140557457Y-101475956D01*
X140536387Y-101485921D01*
X140514443Y-101493773D01*
X140491834Y-101499437D01*
X140468779Y-101502856D01*
X140445500Y-101504000D01*
X139970500Y-101504000D01*
X139947221Y-101502856D01*
X139924166Y-101499437D01*
X139901557Y-101493773D01*
X139879613Y-101485921D01*
X139858543Y-101475956D01*
X139838552Y-101463974D01*
X139819832Y-101450090D01*
X139802562Y-101434438D01*
X139786910Y-101417168D01*
X139773026Y-101398448D01*
X139761044Y-101378457D01*
X139751079Y-101357387D01*
X139743227Y-101335443D01*
X139737563Y-101312834D01*
X139734144Y-101289779D01*
X139733000Y-101266500D01*
X139733000Y-100691500D01*
X139734144Y-100668221D01*
X139737563Y-100645166D01*
X139743227Y-100622557D01*
X139751079Y-100600613D01*
X139761044Y-100579543D01*
X139773026Y-100559552D01*
X139786910Y-100540832D01*
X139802562Y-100523562D01*
X139819832Y-100507910D01*
X139838552Y-100494026D01*
X139858543Y-100482044D01*
X139879613Y-100472079D01*
X139901557Y-100464227D01*
X139924166Y-100458563D01*
X139947221Y-100455144D01*
X139970500Y-100454000D01*
X140445500Y-100454000D01*
X140468779Y-100455144D01*
X140468779Y-100455144D01*
G37*
D12*
X140208000Y-100979000D03*
D11*
G36*
X140468779Y-102205144D02*
G01*
X140491834Y-102208563D01*
X140514443Y-102214227D01*
X140536387Y-102222079D01*
X140557457Y-102232044D01*
X140577448Y-102244026D01*
X140596168Y-102257910D01*
X140613438Y-102273562D01*
X140629090Y-102290832D01*
X140642974Y-102309552D01*
X140654956Y-102329543D01*
X140664921Y-102350613D01*
X140672773Y-102372557D01*
X140678437Y-102395166D01*
X140681856Y-102418221D01*
X140683000Y-102441500D01*
X140683000Y-103016500D01*
X140681856Y-103039779D01*
X140678437Y-103062834D01*
X140672773Y-103085443D01*
X140664921Y-103107387D01*
X140654956Y-103128457D01*
X140642974Y-103148448D01*
X140629090Y-103167168D01*
X140613438Y-103184438D01*
X140596168Y-103200090D01*
X140577448Y-103213974D01*
X140557457Y-103225956D01*
X140536387Y-103235921D01*
X140514443Y-103243773D01*
X140491834Y-103249437D01*
X140468779Y-103252856D01*
X140445500Y-103254000D01*
X139970500Y-103254000D01*
X139947221Y-103252856D01*
X139924166Y-103249437D01*
X139901557Y-103243773D01*
X139879613Y-103235921D01*
X139858543Y-103225956D01*
X139838552Y-103213974D01*
X139819832Y-103200090D01*
X139802562Y-103184438D01*
X139786910Y-103167168D01*
X139773026Y-103148448D01*
X139761044Y-103128457D01*
X139751079Y-103107387D01*
X139743227Y-103085443D01*
X139737563Y-103062834D01*
X139734144Y-103039779D01*
X139733000Y-103016500D01*
X139733000Y-102441500D01*
X139734144Y-102418221D01*
X139737563Y-102395166D01*
X139743227Y-102372557D01*
X139751079Y-102350613D01*
X139761044Y-102329543D01*
X139773026Y-102309552D01*
X139786910Y-102290832D01*
X139802562Y-102273562D01*
X139819832Y-102257910D01*
X139838552Y-102244026D01*
X139858543Y-102232044D01*
X139879613Y-102222079D01*
X139901557Y-102214227D01*
X139924166Y-102208563D01*
X139947221Y-102205144D01*
X139970500Y-102204000D01*
X140445500Y-102204000D01*
X140468779Y-102205144D01*
X140468779Y-102205144D01*
G37*
D12*
X140208000Y-102729000D03*
D11*
G36*
X130689779Y-106904144D02*
G01*
X130712834Y-106907563D01*
X130735443Y-106913227D01*
X130757387Y-106921079D01*
X130778457Y-106931044D01*
X130798448Y-106943026D01*
X130817168Y-106956910D01*
X130834438Y-106972562D01*
X130850090Y-106989832D01*
X130863974Y-107008552D01*
X130875956Y-107028543D01*
X130885921Y-107049613D01*
X130893773Y-107071557D01*
X130899437Y-107094166D01*
X130902856Y-107117221D01*
X130904000Y-107140500D01*
X130904000Y-107715500D01*
X130902856Y-107738779D01*
X130899437Y-107761834D01*
X130893773Y-107784443D01*
X130885921Y-107806387D01*
X130875956Y-107827457D01*
X130863974Y-107847448D01*
X130850090Y-107866168D01*
X130834438Y-107883438D01*
X130817168Y-107899090D01*
X130798448Y-107912974D01*
X130778457Y-107924956D01*
X130757387Y-107934921D01*
X130735443Y-107942773D01*
X130712834Y-107948437D01*
X130689779Y-107951856D01*
X130666500Y-107953000D01*
X130191500Y-107953000D01*
X130168221Y-107951856D01*
X130145166Y-107948437D01*
X130122557Y-107942773D01*
X130100613Y-107934921D01*
X130079543Y-107924956D01*
X130059552Y-107912974D01*
X130040832Y-107899090D01*
X130023562Y-107883438D01*
X130007910Y-107866168D01*
X129994026Y-107847448D01*
X129982044Y-107827457D01*
X129972079Y-107806387D01*
X129964227Y-107784443D01*
X129958563Y-107761834D01*
X129955144Y-107738779D01*
X129954000Y-107715500D01*
X129954000Y-107140500D01*
X129955144Y-107117221D01*
X129958563Y-107094166D01*
X129964227Y-107071557D01*
X129972079Y-107049613D01*
X129982044Y-107028543D01*
X129994026Y-107008552D01*
X130007910Y-106989832D01*
X130023562Y-106972562D01*
X130040832Y-106956910D01*
X130059552Y-106943026D01*
X130079543Y-106931044D01*
X130100613Y-106921079D01*
X130122557Y-106913227D01*
X130145166Y-106907563D01*
X130168221Y-106904144D01*
X130191500Y-106903000D01*
X130666500Y-106903000D01*
X130689779Y-106904144D01*
X130689779Y-106904144D01*
G37*
D12*
X130429000Y-107428000D03*
D11*
G36*
X130689779Y-105154144D02*
G01*
X130712834Y-105157563D01*
X130735443Y-105163227D01*
X130757387Y-105171079D01*
X130778457Y-105181044D01*
X130798448Y-105193026D01*
X130817168Y-105206910D01*
X130834438Y-105222562D01*
X130850090Y-105239832D01*
X130863974Y-105258552D01*
X130875956Y-105278543D01*
X130885921Y-105299613D01*
X130893773Y-105321557D01*
X130899437Y-105344166D01*
X130902856Y-105367221D01*
X130904000Y-105390500D01*
X130904000Y-105965500D01*
X130902856Y-105988779D01*
X130899437Y-106011834D01*
X130893773Y-106034443D01*
X130885921Y-106056387D01*
X130875956Y-106077457D01*
X130863974Y-106097448D01*
X130850090Y-106116168D01*
X130834438Y-106133438D01*
X130817168Y-106149090D01*
X130798448Y-106162974D01*
X130778457Y-106174956D01*
X130757387Y-106184921D01*
X130735443Y-106192773D01*
X130712834Y-106198437D01*
X130689779Y-106201856D01*
X130666500Y-106203000D01*
X130191500Y-106203000D01*
X130168221Y-106201856D01*
X130145166Y-106198437D01*
X130122557Y-106192773D01*
X130100613Y-106184921D01*
X130079543Y-106174956D01*
X130059552Y-106162974D01*
X130040832Y-106149090D01*
X130023562Y-106133438D01*
X130007910Y-106116168D01*
X129994026Y-106097448D01*
X129982044Y-106077457D01*
X129972079Y-106056387D01*
X129964227Y-106034443D01*
X129958563Y-106011834D01*
X129955144Y-105988779D01*
X129954000Y-105965500D01*
X129954000Y-105390500D01*
X129955144Y-105367221D01*
X129958563Y-105344166D01*
X129964227Y-105321557D01*
X129972079Y-105299613D01*
X129982044Y-105278543D01*
X129994026Y-105258552D01*
X130007910Y-105239832D01*
X130023562Y-105222562D01*
X130040832Y-105206910D01*
X130059552Y-105193026D01*
X130079543Y-105181044D01*
X130100613Y-105171079D01*
X130122557Y-105163227D01*
X130145166Y-105157563D01*
X130168221Y-105154144D01*
X130191500Y-105153000D01*
X130666500Y-105153000D01*
X130689779Y-105154144D01*
X130689779Y-105154144D01*
G37*
D12*
X130429000Y-105678000D03*
D11*
G36*
X134245779Y-91071144D02*
G01*
X134268834Y-91074563D01*
X134291443Y-91080227D01*
X134313387Y-91088079D01*
X134334457Y-91098044D01*
X134354448Y-91110026D01*
X134373168Y-91123910D01*
X134390438Y-91139562D01*
X134406090Y-91156832D01*
X134419974Y-91175552D01*
X134431956Y-91195543D01*
X134441921Y-91216613D01*
X134449773Y-91238557D01*
X134455437Y-91261166D01*
X134458856Y-91284221D01*
X134460000Y-91307500D01*
X134460000Y-91882500D01*
X134458856Y-91905779D01*
X134455437Y-91928834D01*
X134449773Y-91951443D01*
X134441921Y-91973387D01*
X134431956Y-91994457D01*
X134419974Y-92014448D01*
X134406090Y-92033168D01*
X134390438Y-92050438D01*
X134373168Y-92066090D01*
X134354448Y-92079974D01*
X134334457Y-92091956D01*
X134313387Y-92101921D01*
X134291443Y-92109773D01*
X134268834Y-92115437D01*
X134245779Y-92118856D01*
X134222500Y-92120000D01*
X133747500Y-92120000D01*
X133724221Y-92118856D01*
X133701166Y-92115437D01*
X133678557Y-92109773D01*
X133656613Y-92101921D01*
X133635543Y-92091956D01*
X133615552Y-92079974D01*
X133596832Y-92066090D01*
X133579562Y-92050438D01*
X133563910Y-92033168D01*
X133550026Y-92014448D01*
X133538044Y-91994457D01*
X133528079Y-91973387D01*
X133520227Y-91951443D01*
X133514563Y-91928834D01*
X133511144Y-91905779D01*
X133510000Y-91882500D01*
X133510000Y-91307500D01*
X133511144Y-91284221D01*
X133514563Y-91261166D01*
X133520227Y-91238557D01*
X133528079Y-91216613D01*
X133538044Y-91195543D01*
X133550026Y-91175552D01*
X133563910Y-91156832D01*
X133579562Y-91139562D01*
X133596832Y-91123910D01*
X133615552Y-91110026D01*
X133635543Y-91098044D01*
X133656613Y-91088079D01*
X133678557Y-91080227D01*
X133701166Y-91074563D01*
X133724221Y-91071144D01*
X133747500Y-91070000D01*
X134222500Y-91070000D01*
X134245779Y-91071144D01*
X134245779Y-91071144D01*
G37*
D12*
X133985000Y-91595000D03*
D11*
G36*
X134245779Y-92821144D02*
G01*
X134268834Y-92824563D01*
X134291443Y-92830227D01*
X134313387Y-92838079D01*
X134334457Y-92848044D01*
X134354448Y-92860026D01*
X134373168Y-92873910D01*
X134390438Y-92889562D01*
X134406090Y-92906832D01*
X134419974Y-92925552D01*
X134431956Y-92945543D01*
X134441921Y-92966613D01*
X134449773Y-92988557D01*
X134455437Y-93011166D01*
X134458856Y-93034221D01*
X134460000Y-93057500D01*
X134460000Y-93632500D01*
X134458856Y-93655779D01*
X134455437Y-93678834D01*
X134449773Y-93701443D01*
X134441921Y-93723387D01*
X134431956Y-93744457D01*
X134419974Y-93764448D01*
X134406090Y-93783168D01*
X134390438Y-93800438D01*
X134373168Y-93816090D01*
X134354448Y-93829974D01*
X134334457Y-93841956D01*
X134313387Y-93851921D01*
X134291443Y-93859773D01*
X134268834Y-93865437D01*
X134245779Y-93868856D01*
X134222500Y-93870000D01*
X133747500Y-93870000D01*
X133724221Y-93868856D01*
X133701166Y-93865437D01*
X133678557Y-93859773D01*
X133656613Y-93851921D01*
X133635543Y-93841956D01*
X133615552Y-93829974D01*
X133596832Y-93816090D01*
X133579562Y-93800438D01*
X133563910Y-93783168D01*
X133550026Y-93764448D01*
X133538044Y-93744457D01*
X133528079Y-93723387D01*
X133520227Y-93701443D01*
X133514563Y-93678834D01*
X133511144Y-93655779D01*
X133510000Y-93632500D01*
X133510000Y-93057500D01*
X133511144Y-93034221D01*
X133514563Y-93011166D01*
X133520227Y-92988557D01*
X133528079Y-92966613D01*
X133538044Y-92945543D01*
X133550026Y-92925552D01*
X133563910Y-92906832D01*
X133579562Y-92889562D01*
X133596832Y-92873910D01*
X133615552Y-92860026D01*
X133635543Y-92848044D01*
X133656613Y-92838079D01*
X133678557Y-92830227D01*
X133701166Y-92824563D01*
X133724221Y-92821144D01*
X133747500Y-92820000D01*
X134222500Y-92820000D01*
X134245779Y-92821144D01*
X134245779Y-92821144D01*
G37*
D12*
X133985000Y-93345000D03*
D11*
G36*
X142881779Y-92454144D02*
G01*
X142904834Y-92457563D01*
X142927443Y-92463227D01*
X142949387Y-92471079D01*
X142970457Y-92481044D01*
X142990448Y-92493026D01*
X143009168Y-92506910D01*
X143026438Y-92522562D01*
X143042090Y-92539832D01*
X143055974Y-92558552D01*
X143067956Y-92578543D01*
X143077921Y-92599613D01*
X143085773Y-92621557D01*
X143091437Y-92644166D01*
X143094856Y-92667221D01*
X143096000Y-92690500D01*
X143096000Y-93265500D01*
X143094856Y-93288779D01*
X143091437Y-93311834D01*
X143085773Y-93334443D01*
X143077921Y-93356387D01*
X143067956Y-93377457D01*
X143055974Y-93397448D01*
X143042090Y-93416168D01*
X143026438Y-93433438D01*
X143009168Y-93449090D01*
X142990448Y-93462974D01*
X142970457Y-93474956D01*
X142949387Y-93484921D01*
X142927443Y-93492773D01*
X142904834Y-93498437D01*
X142881779Y-93501856D01*
X142858500Y-93503000D01*
X142383500Y-93503000D01*
X142360221Y-93501856D01*
X142337166Y-93498437D01*
X142314557Y-93492773D01*
X142292613Y-93484921D01*
X142271543Y-93474956D01*
X142251552Y-93462974D01*
X142232832Y-93449090D01*
X142215562Y-93433438D01*
X142199910Y-93416168D01*
X142186026Y-93397448D01*
X142174044Y-93377457D01*
X142164079Y-93356387D01*
X142156227Y-93334443D01*
X142150563Y-93311834D01*
X142147144Y-93288779D01*
X142146000Y-93265500D01*
X142146000Y-92690500D01*
X142147144Y-92667221D01*
X142150563Y-92644166D01*
X142156227Y-92621557D01*
X142164079Y-92599613D01*
X142174044Y-92578543D01*
X142186026Y-92558552D01*
X142199910Y-92539832D01*
X142215562Y-92522562D01*
X142232832Y-92506910D01*
X142251552Y-92493026D01*
X142271543Y-92481044D01*
X142292613Y-92471079D01*
X142314557Y-92463227D01*
X142337166Y-92457563D01*
X142360221Y-92454144D01*
X142383500Y-92453000D01*
X142858500Y-92453000D01*
X142881779Y-92454144D01*
X142881779Y-92454144D01*
G37*
D12*
X142621000Y-92978000D03*
D11*
G36*
X142881779Y-94204144D02*
G01*
X142904834Y-94207563D01*
X142927443Y-94213227D01*
X142949387Y-94221079D01*
X142970457Y-94231044D01*
X142990448Y-94243026D01*
X143009168Y-94256910D01*
X143026438Y-94272562D01*
X143042090Y-94289832D01*
X143055974Y-94308552D01*
X143067956Y-94328543D01*
X143077921Y-94349613D01*
X143085773Y-94371557D01*
X143091437Y-94394166D01*
X143094856Y-94417221D01*
X143096000Y-94440500D01*
X143096000Y-95015500D01*
X143094856Y-95038779D01*
X143091437Y-95061834D01*
X143085773Y-95084443D01*
X143077921Y-95106387D01*
X143067956Y-95127457D01*
X143055974Y-95147448D01*
X143042090Y-95166168D01*
X143026438Y-95183438D01*
X143009168Y-95199090D01*
X142990448Y-95212974D01*
X142970457Y-95224956D01*
X142949387Y-95234921D01*
X142927443Y-95242773D01*
X142904834Y-95248437D01*
X142881779Y-95251856D01*
X142858500Y-95253000D01*
X142383500Y-95253000D01*
X142360221Y-95251856D01*
X142337166Y-95248437D01*
X142314557Y-95242773D01*
X142292613Y-95234921D01*
X142271543Y-95224956D01*
X142251552Y-95212974D01*
X142232832Y-95199090D01*
X142215562Y-95183438D01*
X142199910Y-95166168D01*
X142186026Y-95147448D01*
X142174044Y-95127457D01*
X142164079Y-95106387D01*
X142156227Y-95084443D01*
X142150563Y-95061834D01*
X142147144Y-95038779D01*
X142146000Y-95015500D01*
X142146000Y-94440500D01*
X142147144Y-94417221D01*
X142150563Y-94394166D01*
X142156227Y-94371557D01*
X142164079Y-94349613D01*
X142174044Y-94328543D01*
X142186026Y-94308552D01*
X142199910Y-94289832D01*
X142215562Y-94272562D01*
X142232832Y-94256910D01*
X142251552Y-94243026D01*
X142271543Y-94231044D01*
X142292613Y-94221079D01*
X142314557Y-94213227D01*
X142337166Y-94207563D01*
X142360221Y-94204144D01*
X142383500Y-94203000D01*
X142858500Y-94203000D01*
X142881779Y-94204144D01*
X142881779Y-94204144D01*
G37*
D12*
X142621000Y-94728000D03*
D11*
G36*
X142881779Y-97619144D02*
G01*
X142904834Y-97622563D01*
X142927443Y-97628227D01*
X142949387Y-97636079D01*
X142970457Y-97646044D01*
X142990448Y-97658026D01*
X143009168Y-97671910D01*
X143026438Y-97687562D01*
X143042090Y-97704832D01*
X143055974Y-97723552D01*
X143067956Y-97743543D01*
X143077921Y-97764613D01*
X143085773Y-97786557D01*
X143091437Y-97809166D01*
X143094856Y-97832221D01*
X143096000Y-97855500D01*
X143096000Y-98430500D01*
X143094856Y-98453779D01*
X143091437Y-98476834D01*
X143085773Y-98499443D01*
X143077921Y-98521387D01*
X143067956Y-98542457D01*
X143055974Y-98562448D01*
X143042090Y-98581168D01*
X143026438Y-98598438D01*
X143009168Y-98614090D01*
X142990448Y-98627974D01*
X142970457Y-98639956D01*
X142949387Y-98649921D01*
X142927443Y-98657773D01*
X142904834Y-98663437D01*
X142881779Y-98666856D01*
X142858500Y-98668000D01*
X142383500Y-98668000D01*
X142360221Y-98666856D01*
X142337166Y-98663437D01*
X142314557Y-98657773D01*
X142292613Y-98649921D01*
X142271543Y-98639956D01*
X142251552Y-98627974D01*
X142232832Y-98614090D01*
X142215562Y-98598438D01*
X142199910Y-98581168D01*
X142186026Y-98562448D01*
X142174044Y-98542457D01*
X142164079Y-98521387D01*
X142156227Y-98499443D01*
X142150563Y-98476834D01*
X142147144Y-98453779D01*
X142146000Y-98430500D01*
X142146000Y-97855500D01*
X142147144Y-97832221D01*
X142150563Y-97809166D01*
X142156227Y-97786557D01*
X142164079Y-97764613D01*
X142174044Y-97743543D01*
X142186026Y-97723552D01*
X142199910Y-97704832D01*
X142215562Y-97687562D01*
X142232832Y-97671910D01*
X142251552Y-97658026D01*
X142271543Y-97646044D01*
X142292613Y-97636079D01*
X142314557Y-97628227D01*
X142337166Y-97622563D01*
X142360221Y-97619144D01*
X142383500Y-97618000D01*
X142858500Y-97618000D01*
X142881779Y-97619144D01*
X142881779Y-97619144D01*
G37*
D12*
X142621000Y-98143000D03*
D11*
G36*
X142881779Y-95869144D02*
G01*
X142904834Y-95872563D01*
X142927443Y-95878227D01*
X142949387Y-95886079D01*
X142970457Y-95896044D01*
X142990448Y-95908026D01*
X143009168Y-95921910D01*
X143026438Y-95937562D01*
X143042090Y-95954832D01*
X143055974Y-95973552D01*
X143067956Y-95993543D01*
X143077921Y-96014613D01*
X143085773Y-96036557D01*
X143091437Y-96059166D01*
X143094856Y-96082221D01*
X143096000Y-96105500D01*
X143096000Y-96680500D01*
X143094856Y-96703779D01*
X143091437Y-96726834D01*
X143085773Y-96749443D01*
X143077921Y-96771387D01*
X143067956Y-96792457D01*
X143055974Y-96812448D01*
X143042090Y-96831168D01*
X143026438Y-96848438D01*
X143009168Y-96864090D01*
X142990448Y-96877974D01*
X142970457Y-96889956D01*
X142949387Y-96899921D01*
X142927443Y-96907773D01*
X142904834Y-96913437D01*
X142881779Y-96916856D01*
X142858500Y-96918000D01*
X142383500Y-96918000D01*
X142360221Y-96916856D01*
X142337166Y-96913437D01*
X142314557Y-96907773D01*
X142292613Y-96899921D01*
X142271543Y-96889956D01*
X142251552Y-96877974D01*
X142232832Y-96864090D01*
X142215562Y-96848438D01*
X142199910Y-96831168D01*
X142186026Y-96812448D01*
X142174044Y-96792457D01*
X142164079Y-96771387D01*
X142156227Y-96749443D01*
X142150563Y-96726834D01*
X142147144Y-96703779D01*
X142146000Y-96680500D01*
X142146000Y-96105500D01*
X142147144Y-96082221D01*
X142150563Y-96059166D01*
X142156227Y-96036557D01*
X142164079Y-96014613D01*
X142174044Y-95993543D01*
X142186026Y-95973552D01*
X142199910Y-95954832D01*
X142215562Y-95937562D01*
X142232832Y-95921910D01*
X142251552Y-95908026D01*
X142271543Y-95896044D01*
X142292613Y-95886079D01*
X142314557Y-95878227D01*
X142337166Y-95872563D01*
X142360221Y-95869144D01*
X142383500Y-95868000D01*
X142858500Y-95868000D01*
X142881779Y-95869144D01*
X142881779Y-95869144D01*
G37*
D12*
X142621000Y-96393000D03*
D11*
G36*
X136087779Y-80907744D02*
G01*
X136110834Y-80911163D01*
X136133443Y-80916827D01*
X136155387Y-80924679D01*
X136176457Y-80934644D01*
X136196448Y-80946626D01*
X136215168Y-80960510D01*
X136232438Y-80976162D01*
X136248090Y-80993432D01*
X136261974Y-81012152D01*
X136273956Y-81032143D01*
X136283921Y-81053213D01*
X136291773Y-81075157D01*
X136297437Y-81097766D01*
X136300856Y-81120821D01*
X136302000Y-81144100D01*
X136302000Y-81619100D01*
X136300856Y-81642379D01*
X136297437Y-81665434D01*
X136291773Y-81688043D01*
X136283921Y-81709987D01*
X136273956Y-81731057D01*
X136261974Y-81751048D01*
X136248090Y-81769768D01*
X136232438Y-81787038D01*
X136215168Y-81802690D01*
X136196448Y-81816574D01*
X136176457Y-81828556D01*
X136155387Y-81838521D01*
X136133443Y-81846373D01*
X136110834Y-81852037D01*
X136087779Y-81855456D01*
X136064500Y-81856600D01*
X135489500Y-81856600D01*
X135466221Y-81855456D01*
X135443166Y-81852037D01*
X135420557Y-81846373D01*
X135398613Y-81838521D01*
X135377543Y-81828556D01*
X135357552Y-81816574D01*
X135338832Y-81802690D01*
X135321562Y-81787038D01*
X135305910Y-81769768D01*
X135292026Y-81751048D01*
X135280044Y-81731057D01*
X135270079Y-81709987D01*
X135262227Y-81688043D01*
X135256563Y-81665434D01*
X135253144Y-81642379D01*
X135252000Y-81619100D01*
X135252000Y-81144100D01*
X135253144Y-81120821D01*
X135256563Y-81097766D01*
X135262227Y-81075157D01*
X135270079Y-81053213D01*
X135280044Y-81032143D01*
X135292026Y-81012152D01*
X135305910Y-80993432D01*
X135321562Y-80976162D01*
X135338832Y-80960510D01*
X135357552Y-80946626D01*
X135377543Y-80934644D01*
X135398613Y-80924679D01*
X135420557Y-80916827D01*
X135443166Y-80911163D01*
X135466221Y-80907744D01*
X135489500Y-80906600D01*
X136064500Y-80906600D01*
X136087779Y-80907744D01*
X136087779Y-80907744D01*
G37*
D12*
X135777000Y-81381600D03*
D11*
G36*
X137837779Y-80907744D02*
G01*
X137860834Y-80911163D01*
X137883443Y-80916827D01*
X137905387Y-80924679D01*
X137926457Y-80934644D01*
X137946448Y-80946626D01*
X137965168Y-80960510D01*
X137982438Y-80976162D01*
X137998090Y-80993432D01*
X138011974Y-81012152D01*
X138023956Y-81032143D01*
X138033921Y-81053213D01*
X138041773Y-81075157D01*
X138047437Y-81097766D01*
X138050856Y-81120821D01*
X138052000Y-81144100D01*
X138052000Y-81619100D01*
X138050856Y-81642379D01*
X138047437Y-81665434D01*
X138041773Y-81688043D01*
X138033921Y-81709987D01*
X138023956Y-81731057D01*
X138011974Y-81751048D01*
X137998090Y-81769768D01*
X137982438Y-81787038D01*
X137965168Y-81802690D01*
X137946448Y-81816574D01*
X137926457Y-81828556D01*
X137905387Y-81838521D01*
X137883443Y-81846373D01*
X137860834Y-81852037D01*
X137837779Y-81855456D01*
X137814500Y-81856600D01*
X137239500Y-81856600D01*
X137216221Y-81855456D01*
X137193166Y-81852037D01*
X137170557Y-81846373D01*
X137148613Y-81838521D01*
X137127543Y-81828556D01*
X137107552Y-81816574D01*
X137088832Y-81802690D01*
X137071562Y-81787038D01*
X137055910Y-81769768D01*
X137042026Y-81751048D01*
X137030044Y-81731057D01*
X137020079Y-81709987D01*
X137012227Y-81688043D01*
X137006563Y-81665434D01*
X137003144Y-81642379D01*
X137002000Y-81619100D01*
X137002000Y-81144100D01*
X137003144Y-81120821D01*
X137006563Y-81097766D01*
X137012227Y-81075157D01*
X137020079Y-81053213D01*
X137030044Y-81032143D01*
X137042026Y-81012152D01*
X137055910Y-80993432D01*
X137071562Y-80976162D01*
X137088832Y-80960510D01*
X137107552Y-80946626D01*
X137127543Y-80934644D01*
X137148613Y-80924679D01*
X137170557Y-80916827D01*
X137193166Y-80911163D01*
X137216221Y-80907744D01*
X137239500Y-80906600D01*
X137814500Y-80906600D01*
X137837779Y-80907744D01*
X137837779Y-80907744D01*
G37*
D12*
X137527000Y-81381600D03*
D11*
G36*
X116487779Y-89696144D02*
G01*
X116510834Y-89699563D01*
X116533443Y-89705227D01*
X116555387Y-89713079D01*
X116576457Y-89723044D01*
X116596448Y-89735026D01*
X116615168Y-89748910D01*
X116632438Y-89764562D01*
X116648090Y-89781832D01*
X116661974Y-89800552D01*
X116673956Y-89820543D01*
X116683921Y-89841613D01*
X116691773Y-89863557D01*
X116697437Y-89886166D01*
X116700856Y-89909221D01*
X116702000Y-89932500D01*
X116702000Y-90407500D01*
X116700856Y-90430779D01*
X116697437Y-90453834D01*
X116691773Y-90476443D01*
X116683921Y-90498387D01*
X116673956Y-90519457D01*
X116661974Y-90539448D01*
X116648090Y-90558168D01*
X116632438Y-90575438D01*
X116615168Y-90591090D01*
X116596448Y-90604974D01*
X116576457Y-90616956D01*
X116555387Y-90626921D01*
X116533443Y-90634773D01*
X116510834Y-90640437D01*
X116487779Y-90643856D01*
X116464500Y-90645000D01*
X115889500Y-90645000D01*
X115866221Y-90643856D01*
X115843166Y-90640437D01*
X115820557Y-90634773D01*
X115798613Y-90626921D01*
X115777543Y-90616956D01*
X115757552Y-90604974D01*
X115738832Y-90591090D01*
X115721562Y-90575438D01*
X115705910Y-90558168D01*
X115692026Y-90539448D01*
X115680044Y-90519457D01*
X115670079Y-90498387D01*
X115662227Y-90476443D01*
X115656563Y-90453834D01*
X115653144Y-90430779D01*
X115652000Y-90407500D01*
X115652000Y-89932500D01*
X115653144Y-89909221D01*
X115656563Y-89886166D01*
X115662227Y-89863557D01*
X115670079Y-89841613D01*
X115680044Y-89820543D01*
X115692026Y-89800552D01*
X115705910Y-89781832D01*
X115721562Y-89764562D01*
X115738832Y-89748910D01*
X115757552Y-89735026D01*
X115777543Y-89723044D01*
X115798613Y-89713079D01*
X115820557Y-89705227D01*
X115843166Y-89699563D01*
X115866221Y-89696144D01*
X115889500Y-89695000D01*
X116464500Y-89695000D01*
X116487779Y-89696144D01*
X116487779Y-89696144D01*
G37*
D12*
X116177000Y-90170000D03*
D11*
G36*
X114737779Y-89696144D02*
G01*
X114760834Y-89699563D01*
X114783443Y-89705227D01*
X114805387Y-89713079D01*
X114826457Y-89723044D01*
X114846448Y-89735026D01*
X114865168Y-89748910D01*
X114882438Y-89764562D01*
X114898090Y-89781832D01*
X114911974Y-89800552D01*
X114923956Y-89820543D01*
X114933921Y-89841613D01*
X114941773Y-89863557D01*
X114947437Y-89886166D01*
X114950856Y-89909221D01*
X114952000Y-89932500D01*
X114952000Y-90407500D01*
X114950856Y-90430779D01*
X114947437Y-90453834D01*
X114941773Y-90476443D01*
X114933921Y-90498387D01*
X114923956Y-90519457D01*
X114911974Y-90539448D01*
X114898090Y-90558168D01*
X114882438Y-90575438D01*
X114865168Y-90591090D01*
X114846448Y-90604974D01*
X114826457Y-90616956D01*
X114805387Y-90626921D01*
X114783443Y-90634773D01*
X114760834Y-90640437D01*
X114737779Y-90643856D01*
X114714500Y-90645000D01*
X114139500Y-90645000D01*
X114116221Y-90643856D01*
X114093166Y-90640437D01*
X114070557Y-90634773D01*
X114048613Y-90626921D01*
X114027543Y-90616956D01*
X114007552Y-90604974D01*
X113988832Y-90591090D01*
X113971562Y-90575438D01*
X113955910Y-90558168D01*
X113942026Y-90539448D01*
X113930044Y-90519457D01*
X113920079Y-90498387D01*
X113912227Y-90476443D01*
X113906563Y-90453834D01*
X113903144Y-90430779D01*
X113902000Y-90407500D01*
X113902000Y-89932500D01*
X113903144Y-89909221D01*
X113906563Y-89886166D01*
X113912227Y-89863557D01*
X113920079Y-89841613D01*
X113930044Y-89820543D01*
X113942026Y-89800552D01*
X113955910Y-89781832D01*
X113971562Y-89764562D01*
X113988832Y-89748910D01*
X114007552Y-89735026D01*
X114027543Y-89723044D01*
X114048613Y-89713079D01*
X114070557Y-89705227D01*
X114093166Y-89699563D01*
X114116221Y-89696144D01*
X114139500Y-89695000D01*
X114714500Y-89695000D01*
X114737779Y-89696144D01*
X114737779Y-89696144D01*
G37*
D12*
X114427000Y-90170000D03*
D11*
G36*
X158326779Y-80933144D02*
G01*
X158349834Y-80936563D01*
X158372443Y-80942227D01*
X158394387Y-80950079D01*
X158415457Y-80960044D01*
X158435448Y-80972026D01*
X158454168Y-80985910D01*
X158471438Y-81001562D01*
X158487090Y-81018832D01*
X158500974Y-81037552D01*
X158512956Y-81057543D01*
X158522921Y-81078613D01*
X158530773Y-81100557D01*
X158536437Y-81123166D01*
X158539856Y-81146221D01*
X158541000Y-81169500D01*
X158541000Y-81644500D01*
X158539856Y-81667779D01*
X158536437Y-81690834D01*
X158530773Y-81713443D01*
X158522921Y-81735387D01*
X158512956Y-81756457D01*
X158500974Y-81776448D01*
X158487090Y-81795168D01*
X158471438Y-81812438D01*
X158454168Y-81828090D01*
X158435448Y-81841974D01*
X158415457Y-81853956D01*
X158394387Y-81863921D01*
X158372443Y-81871773D01*
X158349834Y-81877437D01*
X158326779Y-81880856D01*
X158303500Y-81882000D01*
X157728500Y-81882000D01*
X157705221Y-81880856D01*
X157682166Y-81877437D01*
X157659557Y-81871773D01*
X157637613Y-81863921D01*
X157616543Y-81853956D01*
X157596552Y-81841974D01*
X157577832Y-81828090D01*
X157560562Y-81812438D01*
X157544910Y-81795168D01*
X157531026Y-81776448D01*
X157519044Y-81756457D01*
X157509079Y-81735387D01*
X157501227Y-81713443D01*
X157495563Y-81690834D01*
X157492144Y-81667779D01*
X157491000Y-81644500D01*
X157491000Y-81169500D01*
X157492144Y-81146221D01*
X157495563Y-81123166D01*
X157501227Y-81100557D01*
X157509079Y-81078613D01*
X157519044Y-81057543D01*
X157531026Y-81037552D01*
X157544910Y-81018832D01*
X157560562Y-81001562D01*
X157577832Y-80985910D01*
X157596552Y-80972026D01*
X157616543Y-80960044D01*
X157637613Y-80950079D01*
X157659557Y-80942227D01*
X157682166Y-80936563D01*
X157705221Y-80933144D01*
X157728500Y-80932000D01*
X158303500Y-80932000D01*
X158326779Y-80933144D01*
X158326779Y-80933144D01*
G37*
D12*
X158016000Y-81407000D03*
D11*
G36*
X160076779Y-80933144D02*
G01*
X160099834Y-80936563D01*
X160122443Y-80942227D01*
X160144387Y-80950079D01*
X160165457Y-80960044D01*
X160185448Y-80972026D01*
X160204168Y-80985910D01*
X160221438Y-81001562D01*
X160237090Y-81018832D01*
X160250974Y-81037552D01*
X160262956Y-81057543D01*
X160272921Y-81078613D01*
X160280773Y-81100557D01*
X160286437Y-81123166D01*
X160289856Y-81146221D01*
X160291000Y-81169500D01*
X160291000Y-81644500D01*
X160289856Y-81667779D01*
X160286437Y-81690834D01*
X160280773Y-81713443D01*
X160272921Y-81735387D01*
X160262956Y-81756457D01*
X160250974Y-81776448D01*
X160237090Y-81795168D01*
X160221438Y-81812438D01*
X160204168Y-81828090D01*
X160185448Y-81841974D01*
X160165457Y-81853956D01*
X160144387Y-81863921D01*
X160122443Y-81871773D01*
X160099834Y-81877437D01*
X160076779Y-81880856D01*
X160053500Y-81882000D01*
X159478500Y-81882000D01*
X159455221Y-81880856D01*
X159432166Y-81877437D01*
X159409557Y-81871773D01*
X159387613Y-81863921D01*
X159366543Y-81853956D01*
X159346552Y-81841974D01*
X159327832Y-81828090D01*
X159310562Y-81812438D01*
X159294910Y-81795168D01*
X159281026Y-81776448D01*
X159269044Y-81756457D01*
X159259079Y-81735387D01*
X159251227Y-81713443D01*
X159245563Y-81690834D01*
X159242144Y-81667779D01*
X159241000Y-81644500D01*
X159241000Y-81169500D01*
X159242144Y-81146221D01*
X159245563Y-81123166D01*
X159251227Y-81100557D01*
X159259079Y-81078613D01*
X159269044Y-81057543D01*
X159281026Y-81037552D01*
X159294910Y-81018832D01*
X159310562Y-81001562D01*
X159327832Y-80985910D01*
X159346552Y-80972026D01*
X159366543Y-80960044D01*
X159387613Y-80950079D01*
X159409557Y-80942227D01*
X159432166Y-80936563D01*
X159455221Y-80933144D01*
X159478500Y-80932000D01*
X160053500Y-80932000D01*
X160076779Y-80933144D01*
X160076779Y-80933144D01*
G37*
D12*
X159766000Y-81407000D03*
D29*
X154736800Y-99415600D03*
X140335000Y-108585000D03*
X148209000Y-109855000D03*
X130937000Y-102997000D03*
X116205000Y-88836500D03*
D30*
X127762000Y-71628000D03*
X143129000Y-71501000D03*
X153670000Y-71374000D03*
D29*
X136835215Y-105671115D03*
X139954000Y-106045000D03*
X132969000Y-98171000D03*
X130429000Y-108839000D03*
X157988000Y-79756000D03*
D30*
X128778000Y-80010000D03*
X135636000Y-71501000D03*
X146431000Y-77851000D03*
X146431000Y-79629000D03*
D29*
X142113000Y-82423000D03*
D30*
X137668000Y-97155000D03*
X134261141Y-77574859D03*
D29*
X134493000Y-85979000D03*
X143510000Y-99441000D03*
D30*
X139573000Y-93218000D03*
X134013000Y-99187000D03*
X140462000Y-99822000D03*
D29*
X131826000Y-92710000D03*
D30*
X132080000Y-86233000D03*
X126619000Y-81153000D03*
D29*
X135255000Y-91590690D03*
X143748509Y-92357181D03*
X141311238Y-87617300D03*
X114490500Y-94615000D03*
X114490500Y-91503500D03*
X114427000Y-88836500D03*
X114490500Y-85725000D03*
X114490500Y-82486500D03*
D30*
X131064000Y-74295000D03*
X123444000Y-74422000D03*
X146539246Y-74149246D03*
D29*
X150749000Y-99822000D03*
X143002000Y-100838000D03*
X151003000Y-82804000D03*
X151003000Y-90551000D03*
X151003000Y-87884000D03*
X135879950Y-89016950D03*
D30*
X130048000Y-79756000D03*
X140843000Y-73152000D03*
X144145000Y-89535000D03*
D29*
X144279078Y-82073753D03*
D30*
X132969000Y-92456000D03*
X136906000Y-99060000D03*
X127292100Y-92202000D03*
X129308900Y-87376000D03*
D29*
X142528938Y-91093744D03*
D30*
X131318000Y-81356201D03*
X138938000Y-80391000D03*
X139700000Y-79629000D03*
D29*
X129032000Y-105664000D03*
X115189000Y-102235000D03*
X143764000Y-94742000D03*
D30*
X126619000Y-87376000D03*
D29*
X132207000Y-99568000D03*
X132715000Y-104140000D03*
X141605000Y-106045000D03*
X149860000Y-106045000D03*
X138094655Y-105709655D03*
D30*
X137990101Y-79512671D03*
X132461000Y-83185000D03*
X139335573Y-81186147D03*
X152781000Y-90678000D03*
X152781000Y-88138000D03*
X152781000Y-82931000D03*
X137541000Y-85979000D03*
X134696050Y-80848050D03*
X149860000Y-71501000D03*
X138430000Y-77851000D03*
X134493000Y-71501000D03*
X126619000Y-71628000D03*
X139192000Y-75819000D03*
X134874000Y-78867000D03*
X136779000Y-91463690D03*
X136779000Y-90170000D03*
X134493000Y-95377000D03*
X143510000Y-97282000D03*
X121793000Y-100711000D03*
X137160000Y-93726000D03*
X136906000Y-88265000D03*
X143129000Y-74168000D03*
X137795000Y-76454000D03*
X140335000Y-84455000D03*
X136918445Y-80105173D03*
D31*
X133118000Y-110236000D02*
X135188000Y-110236000D01*
X136868000Y-110236000D02*
X135188000Y-110236000D01*
X138938000Y-110236000D02*
X136868000Y-110236000D01*
X138490500Y-109788500D02*
X138938000Y-110236000D01*
X138490500Y-107936000D02*
X138490500Y-109788500D01*
X133565500Y-109788500D02*
X133118000Y-110236000D01*
X133565500Y-107936000D02*
X133565500Y-109788500D01*
D32*
X138130500Y-107576000D02*
X138490500Y-107936000D01*
X137328000Y-107576000D02*
X138130500Y-107576000D01*
D31*
X138490500Y-107936000D02*
X139686000Y-107936000D01*
X139686000Y-107936000D02*
X140335000Y-108585000D01*
X150719000Y-109855000D02*
X148209000Y-109855000D01*
X116177000Y-90170000D02*
X116177000Y-88864500D01*
X116177000Y-88864500D02*
X116205000Y-88836500D01*
D32*
X129149000Y-71628000D02*
X127762000Y-71628000D01*
X144516000Y-71501000D02*
X143129000Y-71501000D01*
X152268000Y-71501000D02*
X153543000Y-71501000D01*
X153543000Y-71501000D02*
X153670000Y-71374000D01*
D31*
X130429000Y-107428000D02*
X130429000Y-108839000D01*
X158016000Y-81407000D02*
X158016000Y-79784000D01*
X158016000Y-79784000D02*
X157988000Y-79756000D01*
D33*
X135703000Y-97599500D02*
X135703000Y-96964500D01*
X135703000Y-96329500D02*
X135703000Y-96964500D01*
X135703000Y-95694500D02*
X135703000Y-96329500D01*
X135703000Y-95059500D02*
X135703000Y-95694500D01*
X136779000Y-71501000D02*
X135636000Y-71501000D01*
D31*
X141263400Y-81381600D02*
X141263400Y-81573400D01*
X141263400Y-81573400D02*
X142113000Y-82423000D01*
X135777000Y-81381600D02*
X134512243Y-82646357D01*
X134512243Y-82646357D02*
X134512243Y-85945857D01*
X142621000Y-98143000D02*
X142621000Y-98552000D01*
X142621000Y-98552000D02*
X143510000Y-99441000D01*
D33*
X139573000Y-94634300D02*
X139573000Y-93218000D01*
X140903000Y-95059500D02*
X139998200Y-95059500D01*
X139998200Y-95059500D02*
X139573000Y-94634300D01*
X135636000Y-100979000D02*
X135636000Y-100810000D01*
X135636000Y-100810000D02*
X134013000Y-99187000D01*
X140208000Y-100979000D02*
X140208000Y-100076000D01*
X140208000Y-100076000D02*
X140462000Y-99822000D01*
X130404000Y-94132000D02*
X131826000Y-92710000D01*
X130048000Y-94132000D02*
X130404000Y-94132000D01*
X128016000Y-85612000D02*
X128016000Y-82550000D01*
X128016000Y-82550000D02*
X126619000Y-81153000D01*
D31*
X130048000Y-93013200D02*
X130048000Y-94132000D01*
X129032000Y-91997200D02*
X130048000Y-93013200D01*
X129032000Y-91227000D02*
X129032000Y-91997200D01*
X133985000Y-91595000D02*
X135250690Y-91595000D01*
X135250690Y-91595000D02*
X135255000Y-91590690D01*
X142621000Y-92978000D02*
X143127690Y-92978000D01*
X143127690Y-92978000D02*
X143748509Y-92357181D01*
X136842500Y-96329500D02*
X137668000Y-97155000D01*
X135703000Y-96329500D02*
X136842500Y-96329500D01*
D33*
X136779000Y-71501000D02*
X136779000Y-77801000D01*
X129149000Y-71628000D02*
X129149000Y-77928000D01*
X144516000Y-72655800D02*
X144516000Y-77801000D01*
X144516000Y-71501000D02*
X144516000Y-72655800D01*
X152268000Y-71501000D02*
X152268000Y-77801000D01*
D31*
X114490500Y-96202500D02*
X114490500Y-94615000D01*
X114472500Y-93027500D02*
X114472500Y-91521500D01*
X114472500Y-91521500D02*
X114490500Y-91503500D01*
X114427000Y-90170000D02*
X114427000Y-88836500D01*
X114490500Y-87312500D02*
X114490500Y-85725000D01*
X114490500Y-84137500D02*
X114490500Y-82486500D01*
D32*
X131064000Y-72870000D02*
X131064000Y-74295000D01*
X123444000Y-72997000D02*
X123444000Y-74422000D01*
X146558000Y-72771000D02*
X146558000Y-74130492D01*
X146558000Y-74130492D02*
X146539246Y-74149246D01*
D31*
X150719000Y-104775000D02*
X150719000Y-99852000D01*
X150719000Y-99852000D02*
X150749000Y-99822000D01*
X159766000Y-81407000D02*
X159766000Y-84201000D01*
X151031000Y-84201000D02*
X151031000Y-82832000D01*
X151031000Y-82832000D02*
X151003000Y-82804000D01*
X151031000Y-91821000D02*
X151031000Y-90579000D01*
X151031000Y-90579000D02*
X151003000Y-90551000D01*
X151031000Y-89281000D02*
X151031000Y-87912000D01*
X151031000Y-87912000D02*
X151003000Y-87884000D01*
D33*
X138811000Y-72743000D02*
X139220000Y-73152000D01*
X139220000Y-73152000D02*
X140843000Y-73152000D01*
X134429500Y-93789500D02*
X135703000Y-93789500D01*
X133985000Y-93345000D02*
X134429500Y-93789500D01*
X133985000Y-93345000D02*
X133858000Y-93345000D01*
X133858000Y-93345000D02*
X132969000Y-92456000D01*
X136779000Y-99044928D02*
X136779000Y-99187000D01*
X137621094Y-98202834D02*
X136779000Y-99044928D01*
X137729132Y-98202834D02*
X137621094Y-98202834D01*
X140903000Y-96964500D02*
X138967466Y-96964500D01*
X138967466Y-96964500D02*
X137729132Y-98202834D01*
X127508000Y-94132000D02*
X127508000Y-92417900D01*
X127508000Y-92417900D02*
X127292100Y-92202000D01*
X129032000Y-89027000D02*
X129032000Y-87652900D01*
X129032000Y-87652900D02*
X129308900Y-87376000D01*
D31*
X140956000Y-89789000D02*
X141224194Y-89789000D01*
X141224194Y-89789000D02*
X142528938Y-91093744D01*
D32*
X137541000Y-84455000D02*
X137541000Y-81395600D01*
X137453000Y-81663200D02*
X137425400Y-81635600D01*
X137527000Y-81381600D02*
X138517600Y-80391000D01*
X138517600Y-80391000D02*
X138938000Y-80391000D01*
X143041000Y-84455000D02*
X143041000Y-81409200D01*
X143013400Y-81381600D02*
X141260800Y-79629000D01*
X141260800Y-79629000D02*
X139700000Y-79629000D01*
D31*
X128016000Y-88961000D02*
X128082000Y-89027000D01*
X128016000Y-87362000D02*
X128016000Y-88961000D01*
X142621000Y-94728000D02*
X142621000Y-96393000D01*
D33*
X141922500Y-95694500D02*
X142621000Y-96393000D01*
X140903000Y-95694500D02*
X141922500Y-95694500D01*
X131004000Y-105678000D02*
X130429000Y-105678000D01*
X133826522Y-105678000D02*
X131004000Y-105678000D01*
X134728000Y-106579478D02*
X133826522Y-105678000D01*
X134728000Y-107576000D02*
X134728000Y-106579478D01*
D31*
X130429000Y-105678000D02*
X129046000Y-105678000D01*
X129046000Y-105678000D02*
X129032000Y-105664000D01*
X114536000Y-100647500D02*
X114536000Y-101582000D01*
X114536000Y-101582000D02*
X115189000Y-102235000D01*
X142621000Y-94728000D02*
X143750000Y-94728000D01*
X143750000Y-94728000D02*
X143764000Y-94742000D01*
D32*
X128016000Y-87362000D02*
X126633000Y-87362000D01*
X126633000Y-87362000D02*
X126619000Y-87376000D01*
X117929500Y-84137500D02*
X116540500Y-84137500D01*
X118554500Y-84137500D02*
X117929500Y-84137500D01*
X116604000Y-87376000D02*
X116540500Y-87312500D01*
X118554500Y-87376000D02*
X116604000Y-87376000D01*
X125008000Y-103886000D02*
X124968000Y-103926000D01*
X127508000Y-103886000D02*
X125008000Y-103886000D01*
X127508000Y-103261000D02*
X127508000Y-103886000D01*
X127508000Y-102499600D02*
X127508000Y-103261000D01*
X129575600Y-100432000D02*
X127508000Y-102499600D01*
X130048000Y-100432000D02*
X129575600Y-100432000D01*
X124968000Y-109220000D02*
X124968000Y-106426000D01*
X127035600Y-100432000D02*
X127508000Y-100432000D01*
X126867638Y-100432000D02*
X127035600Y-100432000D01*
X124137799Y-103161839D02*
X126867638Y-100432000D01*
X124137799Y-106248199D02*
X124137799Y-103161839D01*
X124315600Y-106426000D02*
X124137799Y-106248199D01*
X124968000Y-106426000D02*
X124315600Y-106426000D01*
X116586000Y-93091000D02*
X116522500Y-93027500D01*
X118554500Y-93091000D02*
X116586000Y-93091000D01*
X118554500Y-96202500D02*
X116540500Y-96202500D01*
X116586000Y-100647500D02*
X118646000Y-100647500D01*
X127321201Y-89887201D02*
X124714000Y-87280000D01*
X137022076Y-88983790D02*
X136118665Y-89887201D01*
X141478656Y-88983790D02*
X137022076Y-88983790D01*
X143426210Y-90931344D02*
X141478656Y-88983790D01*
X143426210Y-90975210D02*
X143426210Y-90931344D01*
X145669000Y-100766312D02*
X144868911Y-99966223D01*
X145669000Y-104775000D02*
X145669000Y-100766312D01*
X144868911Y-99966223D02*
X144868911Y-94235037D01*
X136118665Y-89887201D02*
X127321201Y-89887201D01*
X144868911Y-94235037D02*
X144525990Y-93892116D01*
X144525990Y-93892116D02*
X144525990Y-92074990D01*
X144525990Y-92074990D02*
X143426210Y-90975210D01*
X152781000Y-91821000D02*
X157226000Y-91821000D01*
X152781000Y-90678000D02*
X152781000Y-91821000D01*
X152781000Y-89281000D02*
X157226000Y-89281000D01*
X152781000Y-88138000D02*
X152781000Y-89281000D01*
X154940000Y-84201000D02*
X152781000Y-84201000D01*
X157226000Y-84201000D02*
X154940000Y-84201000D01*
X152522601Y-95829801D02*
X149402800Y-92710000D01*
X149402800Y-87579200D02*
X152781000Y-84201000D01*
X149402800Y-92710000D02*
X149402800Y-87579200D01*
X152781000Y-82931000D02*
X152781000Y-84201000D01*
X153416000Y-96723200D02*
X152522601Y-95829801D01*
X153416000Y-107823000D02*
X153416000Y-96723200D01*
X152628600Y-108610400D02*
X153416000Y-107823000D01*
X147988600Y-108610400D02*
X152628600Y-108610400D01*
X145669000Y-109855000D02*
X146744000Y-109855000D01*
X146744000Y-109855000D02*
X147988600Y-108610400D01*
X149644000Y-107315000D02*
X148209000Y-105880000D01*
X150719000Y-107315000D02*
X149644000Y-107315000D01*
X146710400Y-100116000D02*
X146710400Y-99288600D01*
X148209000Y-101614600D02*
X146710400Y-100116000D01*
X148209000Y-105880000D02*
X148209000Y-101614600D01*
X145669000Y-107315000D02*
X144594000Y-107315000D01*
X145224521Y-86774479D02*
X146710400Y-85288600D01*
X145224521Y-99747083D02*
X145224521Y-86774479D01*
X147574201Y-102096763D02*
X145224521Y-99747083D01*
X147574201Y-107137199D02*
X147574201Y-102096763D01*
X145669000Y-107315000D02*
X147396400Y-107315000D01*
X147396400Y-107315000D02*
X147574201Y-107137199D01*
X127508000Y-106261000D02*
X127508000Y-109220000D01*
X127508000Y-105636000D02*
X127508000Y-106261000D01*
X148468000Y-76798600D02*
X148468000Y-71501000D01*
X148468000Y-77801000D02*
X148468000Y-76798600D01*
X149860000Y-71501000D02*
X148468000Y-71501000D01*
X148005800Y-71221600D02*
X148485800Y-71701600D01*
X146601200Y-71221600D02*
X148031200Y-71221600D01*
X140716000Y-76798600D02*
X140716000Y-77801000D01*
X141516101Y-75998499D02*
X140716000Y-76798600D01*
X141516101Y-72651101D02*
X141516101Y-75998499D01*
X140716000Y-71851000D02*
X141516101Y-72651101D01*
X140716000Y-71501000D02*
X140716000Y-71851000D01*
X140666000Y-77851000D02*
X140716000Y-77801000D01*
X138430000Y-77851000D02*
X140666000Y-77851000D01*
X139001500Y-71170800D02*
X140398500Y-71170800D01*
X132598000Y-71120000D02*
X132979000Y-71501000D01*
X132979000Y-71501000D02*
X132979000Y-77801000D01*
X134493000Y-71501000D02*
X132979000Y-71501000D01*
X131181000Y-71247000D02*
X132715000Y-71247000D01*
X124968000Y-71247000D02*
X125349000Y-71628000D01*
X123444000Y-71247000D02*
X124968000Y-71247000D01*
X125349000Y-77928000D02*
X125349000Y-71628000D01*
X126619000Y-71628000D02*
X125349000Y-71628000D01*
X139192000Y-75334067D02*
X137795000Y-73937067D01*
X139192000Y-75819000D02*
X139192000Y-75334067D01*
X121920000Y-82522000D02*
X120304500Y-84137500D01*
X121920000Y-71514976D02*
X121920000Y-82522000D01*
X137795000Y-70724638D02*
X137795000Y-73937067D01*
X137512952Y-70442590D02*
X137795000Y-70724638D01*
X122992386Y-70442590D02*
X137512952Y-70442590D01*
X121920000Y-71514976D02*
X122992386Y-70442590D01*
X122275609Y-81432391D02*
X123825000Y-79883000D01*
X120304500Y-87376000D02*
X122275609Y-85404891D01*
X122275609Y-85404891D02*
X122275609Y-81432391D01*
X133057899Y-80683101D02*
X134874000Y-78867000D01*
X128454911Y-80683101D02*
X133057899Y-80683101D01*
X123825000Y-79883000D02*
X127654810Y-79883000D01*
X127654810Y-79883000D02*
X128454911Y-80683101D01*
X137160000Y-89789000D02*
X139206000Y-89789000D01*
X136779000Y-90170000D02*
X137160000Y-89789000D01*
X138557000Y-93241690D02*
X138557000Y-95885000D01*
X136779000Y-91463690D02*
X138557000Y-93241690D01*
X139001500Y-96329500D02*
X140903000Y-96329500D01*
X138557000Y-95885000D02*
X139001500Y-96329500D01*
X141570922Y-94424500D02*
X140903000Y-94424500D01*
X142122632Y-93872790D02*
X141570922Y-94424500D01*
X144003756Y-93872790D02*
X142122632Y-93872790D01*
X144513301Y-94382335D02*
X144003756Y-93872790D01*
X144513301Y-96278699D02*
X144513301Y-94382335D01*
X143510000Y-97282000D02*
X144513301Y-96278699D01*
X121069901Y-92325599D02*
X125172113Y-92325599D01*
X125172113Y-92325599D02*
X126857799Y-94011285D01*
X126857799Y-94011285D02*
X126857799Y-95396161D01*
X126857799Y-95396161D02*
X126923839Y-95462201D01*
X120304500Y-93091000D02*
X121069901Y-92325599D01*
X126923839Y-95462201D02*
X134407799Y-95462201D01*
X134407799Y-95462201D02*
X134493000Y-95377000D01*
X134950600Y-98234500D02*
X135703000Y-98234500D01*
X134943638Y-98234500D02*
X134950600Y-98234500D01*
X133034737Y-96325599D02*
X134943638Y-98234500D01*
X121052599Y-96325599D02*
X133034737Y-96325599D01*
X120929500Y-96202500D02*
X121052599Y-96325599D01*
X120304500Y-96202500D02*
X120929500Y-96202500D01*
X120459500Y-100711000D02*
X120396000Y-100647500D01*
X121793000Y-100711000D02*
X120459500Y-100711000D01*
X136461500Y-94424500D02*
X137160000Y-93726000D01*
X135703000Y-94424500D02*
X136461500Y-94424500D01*
X143129000Y-78358362D02*
X143129000Y-79629000D01*
X145755999Y-82382999D02*
X145755999Y-84592923D01*
X138303000Y-86868000D02*
X136906000Y-88265000D01*
X143480922Y-86868000D02*
X138303000Y-86868000D01*
X143129000Y-79756000D02*
X145755999Y-82382999D01*
X143129000Y-74168000D02*
X143129000Y-78358362D01*
X145755999Y-84592923D02*
X143480922Y-86868000D01*
X143129000Y-79629000D02*
X143129000Y-79756000D01*
X137795000Y-78613000D02*
X137795000Y-76454000D01*
X137795000Y-78786766D02*
X137795000Y-78613000D01*
X137321067Y-79260699D02*
X137795000Y-78786766D01*
X135403335Y-79260699D02*
X137321067Y-79260699D01*
X129982000Y-84682034D02*
X135403335Y-79260699D01*
X129982000Y-89027000D02*
X129982000Y-84682034D01*
X128082000Y-91227000D02*
X128082000Y-91963200D01*
X128778000Y-92659200D02*
X128778000Y-94132000D01*
X128082000Y-91963200D02*
X128778000Y-92659200D01*
X130459400Y-91227000D02*
X129982000Y-91227000D01*
X140150600Y-92519500D02*
X138472490Y-90841390D01*
X140903000Y-92519500D02*
X140150600Y-92519500D01*
X138472490Y-90841390D02*
X135545390Y-90841390D01*
X135545390Y-90841390D02*
X135255000Y-90551000D01*
X135255000Y-90551000D02*
X131135400Y-90551000D01*
X131135400Y-90551000D02*
X130459400Y-91227000D01*
X140208000Y-102729000D02*
X138684000Y-102729000D01*
D34*
X136028000Y-106540999D02*
X135928000Y-106440999D01*
X136028000Y-107576000D02*
X136028000Y-106540999D01*
X135928000Y-106440999D02*
X135928000Y-105485000D01*
X135928000Y-105485000D02*
X137478198Y-103934802D01*
X137478198Y-103934802D02*
X138684000Y-102729000D01*
X138684000Y-100091397D02*
X140621896Y-98153501D01*
X140621896Y-98153501D02*
X140822001Y-98153501D01*
X138684000Y-100979000D02*
X138684000Y-100091397D01*
X140822001Y-98153501D02*
X140903000Y-98234500D01*
D32*
X136211000Y-102729000D02*
X137160000Y-102729000D01*
X135636000Y-102729000D02*
X136211000Y-102729000D01*
D34*
X137160000Y-103616603D02*
X137160000Y-102729000D01*
X135478000Y-105298603D02*
X137160000Y-103616603D01*
X135478000Y-106440999D02*
X135478000Y-105298603D01*
X135378000Y-106540999D02*
X135478000Y-106440999D01*
X135378000Y-107576000D02*
X135378000Y-106540999D01*
X140019799Y-97680499D02*
X140822001Y-97680499D01*
X139948999Y-97751299D02*
X140019799Y-97680499D01*
X137160000Y-100979000D02*
X139948999Y-98190001D01*
X140822001Y-97680499D02*
X140903000Y-97599500D01*
X139948999Y-98190001D02*
X139948999Y-97751299D01*
M02*
