G04 #@! TF.GenerationSoftware,KiCad,Pcbnew,(5.1.4)-1*
G04 #@! TF.CreationDate,2019-11-01T10:34:41-04:00*
G04 #@! TF.ProjectId,wiproc,77697072-6f63-42e6-9b69-6361645f7063,rev?*
G04 #@! TF.SameCoordinates,Original*
G04 #@! TF.FileFunction,Copper,L2,Inr*
G04 #@! TF.FilePolarity,Positive*
%FSLAX46Y46*%
G04 Gerber Fmt 4.6, Leading zero omitted, Abs format (unit mm)*
G04 Created by KiCad (PCBNEW (5.1.4)-1) date 2019-11-01 10:34:41*
%MOMM*%
%LPD*%
G04 APERTURE LIST*
%ADD10O,1.700000X1.700000*%
%ADD11R,1.700000X1.700000*%
%ADD12C,7.000001*%
%ADD13O,1.350000X1.350000*%
%ADD14R,1.350000X1.350000*%
%ADD15C,0.838200*%
%ADD16C,0.685800*%
%ADD17C,0.152400*%
%ADD18C,0.254000*%
G04 APERTURE END LIST*
D10*
X159766000Y-99441000D03*
X157226000Y-99441000D03*
X159766000Y-96901000D03*
X157226000Y-96901000D03*
X159766000Y-94361000D03*
X157226000Y-94361000D03*
X159766000Y-91821000D03*
X157226000Y-91821000D03*
X159766000Y-89281000D03*
X157226000Y-89281000D03*
X159766000Y-86741000D03*
X157226000Y-86741000D03*
X159766000Y-84201000D03*
D11*
X157226000Y-84201000D03*
D12*
X158115000Y-73660000D03*
X158115000Y-107950000D03*
X116840000Y-107950000D03*
X116840000Y-73660000D03*
D13*
X146710400Y-81288600D03*
X146710400Y-83288600D03*
X146710400Y-85288600D03*
X146710400Y-87288600D03*
X146710400Y-89288600D03*
X146710400Y-91288600D03*
X146710400Y-93288600D03*
X146710400Y-95288600D03*
X146710400Y-97288600D03*
D14*
X146710400Y-99288600D03*
D13*
X124714000Y-99280000D03*
X124714000Y-97280000D03*
X124714000Y-95280000D03*
X124714000Y-93280000D03*
X124714000Y-91280000D03*
X124714000Y-89280000D03*
X124714000Y-87280000D03*
X124714000Y-85280000D03*
X124714000Y-83280000D03*
D14*
X124714000Y-81280000D03*
D10*
X127508000Y-109220000D03*
D11*
X124968000Y-109220000D03*
D15*
X154736800Y-99415600D03*
X140335000Y-108585000D03*
X148209000Y-109855000D03*
X130937000Y-102997000D03*
X116205000Y-88836500D03*
D16*
X127762000Y-71628000D03*
X143129000Y-71501000D03*
X153670000Y-71374000D03*
D15*
X136835215Y-105671115D03*
X139954000Y-106045000D03*
X132969000Y-98171000D03*
X130429000Y-108839000D03*
X157988000Y-79756000D03*
D16*
X128778000Y-80010000D03*
X135636000Y-71501000D03*
X146431000Y-77851000D03*
X146431000Y-79629000D03*
D15*
X142113000Y-82423000D03*
D16*
X137668000Y-97155000D03*
X134261141Y-77574859D03*
D15*
X134493000Y-85979000D03*
X143510000Y-99441000D03*
D16*
X139573000Y-93218000D03*
X134013000Y-99187000D03*
X140462000Y-99822000D03*
D15*
X131826000Y-92710000D03*
D16*
X132080000Y-86233000D03*
X126619000Y-81153000D03*
D15*
X135255000Y-91590690D03*
X143748509Y-92357181D03*
X141311238Y-87617300D03*
X114490500Y-94615000D03*
X114490500Y-91503500D03*
X114427000Y-88836500D03*
X114490500Y-85725000D03*
X114490500Y-82486500D03*
D16*
X131064000Y-74295000D03*
X123444000Y-74422000D03*
X146539246Y-74149246D03*
D15*
X150749000Y-99822000D03*
X143002000Y-100838000D03*
X151003000Y-82804000D03*
X151003000Y-90551000D03*
X151003000Y-87884000D03*
X135879950Y-89016950D03*
D16*
X130048000Y-79756000D03*
X140843000Y-73152000D03*
X144145000Y-89535000D03*
D15*
X144279078Y-82073753D03*
D16*
X132969000Y-92456000D03*
X136906000Y-99060000D03*
X127292100Y-92202000D03*
X129308900Y-87376000D03*
D15*
X142528938Y-91093744D03*
D16*
X131318000Y-81356201D03*
X138938000Y-80391000D03*
X139700000Y-79629000D03*
D15*
X129032000Y-105664000D03*
X115189000Y-102235000D03*
X143764000Y-94742000D03*
D16*
X126619000Y-87376000D03*
D15*
X132207000Y-99568000D03*
X132715000Y-104140000D03*
X141605000Y-106045000D03*
X149860000Y-106045000D03*
X138094655Y-105709655D03*
D16*
X137990101Y-79512671D03*
X132461000Y-83185000D03*
X139335573Y-81186147D03*
X152781000Y-90678000D03*
X152781000Y-88138000D03*
X152781000Y-82931000D03*
X137541000Y-85979000D03*
X134696050Y-80848050D03*
X149860000Y-71501000D03*
X138430000Y-77851000D03*
X134493000Y-71501000D03*
X126619000Y-71628000D03*
X139192000Y-75819000D03*
X134874000Y-78867000D03*
X136779000Y-91463690D03*
X136779000Y-90170000D03*
X134493000Y-95377000D03*
X143510000Y-97282000D03*
X121793000Y-100711000D03*
X137160000Y-93726000D03*
X136906000Y-88265000D03*
X143129000Y-74168000D03*
X137795000Y-76454000D03*
X140335000Y-84455000D03*
X136918445Y-80105173D03*
D17*
X144018000Y-85979000D02*
X137541000Y-85979000D01*
X145542000Y-87503000D02*
X144018000Y-85979000D01*
X145542000Y-98947600D02*
X145542000Y-87503000D01*
X146710400Y-99288600D02*
X145883000Y-99288600D01*
X145883000Y-99288600D02*
X145542000Y-98947600D01*
X146035401Y-84613601D02*
X146710400Y-85288600D01*
X145254499Y-83832699D02*
X146035401Y-84613601D01*
X137680699Y-83832699D02*
X145254499Y-83832699D01*
X134696050Y-80848050D02*
X137680699Y-83832699D01*
X143876800Y-84455000D02*
X146710400Y-87288600D01*
X140335000Y-84455000D02*
X143876800Y-84455000D01*
X140101872Y-83288600D02*
X146710400Y-83288600D01*
X136918445Y-80105173D02*
X140101872Y-83288600D01*
D18*
G36*
X151955500Y-102287606D02*
G01*
X151955500Y-106944894D01*
X151394894Y-107505500D01*
X132450106Y-107505500D01*
X131889500Y-106944894D01*
X131889500Y-105567295D01*
X135781115Y-105567295D01*
X135781115Y-105774935D01*
X135821624Y-105978585D01*
X135901084Y-106170418D01*
X136016442Y-106343064D01*
X136163266Y-106489888D01*
X136335912Y-106605246D01*
X136527745Y-106684706D01*
X136731395Y-106725215D01*
X136939035Y-106725215D01*
X137142685Y-106684706D01*
X137334518Y-106605246D01*
X137507164Y-106489888D01*
X137653988Y-106343064D01*
X137769346Y-106170418D01*
X137848806Y-105978585D01*
X137856246Y-105941180D01*
X138899900Y-105941180D01*
X138899900Y-106148820D01*
X138940409Y-106352470D01*
X139019869Y-106544303D01*
X139135227Y-106716949D01*
X139282051Y-106863773D01*
X139454697Y-106979131D01*
X139646530Y-107058591D01*
X139850180Y-107099100D01*
X140057820Y-107099100D01*
X140261470Y-107058591D01*
X140453303Y-106979131D01*
X140625949Y-106863773D01*
X140772773Y-106716949D01*
X140888131Y-106544303D01*
X140967591Y-106352470D01*
X141008100Y-106148820D01*
X141008100Y-105941180D01*
X140967591Y-105737530D01*
X140888131Y-105545697D01*
X140772773Y-105373051D01*
X140625949Y-105226227D01*
X140453303Y-105110869D01*
X140261470Y-105031409D01*
X140057820Y-104990900D01*
X139850180Y-104990900D01*
X139646530Y-105031409D01*
X139454697Y-105110869D01*
X139282051Y-105226227D01*
X139135227Y-105373051D01*
X139019869Y-105545697D01*
X138940409Y-105737530D01*
X138899900Y-105941180D01*
X137856246Y-105941180D01*
X137889315Y-105774935D01*
X137889315Y-105567295D01*
X137848806Y-105363645D01*
X137769346Y-105171812D01*
X137653988Y-104999166D01*
X137507164Y-104852342D01*
X137334518Y-104736984D01*
X137142685Y-104657524D01*
X136939035Y-104617015D01*
X136731395Y-104617015D01*
X136527745Y-104657524D01*
X136335912Y-104736984D01*
X136163266Y-104852342D01*
X136016442Y-104999166D01*
X135901084Y-105171812D01*
X135821624Y-105363645D01*
X135781115Y-105567295D01*
X131889500Y-105567295D01*
X131889500Y-103451956D01*
X131950591Y-103304470D01*
X131991100Y-103100820D01*
X131991100Y-102893180D01*
X131979125Y-102832981D01*
X132450106Y-102362000D01*
X146050000Y-102362000D01*
X146074776Y-102359560D01*
X146098601Y-102352333D01*
X146120557Y-102340597D01*
X146139803Y-102324803D01*
X146737606Y-101727000D01*
X151394894Y-101727000D01*
X151955500Y-102287606D01*
X151955500Y-102287606D01*
G37*
X151955500Y-102287606D02*
X151955500Y-106944894D01*
X151394894Y-107505500D01*
X132450106Y-107505500D01*
X131889500Y-106944894D01*
X131889500Y-105567295D01*
X135781115Y-105567295D01*
X135781115Y-105774935D01*
X135821624Y-105978585D01*
X135901084Y-106170418D01*
X136016442Y-106343064D01*
X136163266Y-106489888D01*
X136335912Y-106605246D01*
X136527745Y-106684706D01*
X136731395Y-106725215D01*
X136939035Y-106725215D01*
X137142685Y-106684706D01*
X137334518Y-106605246D01*
X137507164Y-106489888D01*
X137653988Y-106343064D01*
X137769346Y-106170418D01*
X137848806Y-105978585D01*
X137856246Y-105941180D01*
X138899900Y-105941180D01*
X138899900Y-106148820D01*
X138940409Y-106352470D01*
X139019869Y-106544303D01*
X139135227Y-106716949D01*
X139282051Y-106863773D01*
X139454697Y-106979131D01*
X139646530Y-107058591D01*
X139850180Y-107099100D01*
X140057820Y-107099100D01*
X140261470Y-107058591D01*
X140453303Y-106979131D01*
X140625949Y-106863773D01*
X140772773Y-106716949D01*
X140888131Y-106544303D01*
X140967591Y-106352470D01*
X141008100Y-106148820D01*
X141008100Y-105941180D01*
X140967591Y-105737530D01*
X140888131Y-105545697D01*
X140772773Y-105373051D01*
X140625949Y-105226227D01*
X140453303Y-105110869D01*
X140261470Y-105031409D01*
X140057820Y-104990900D01*
X139850180Y-104990900D01*
X139646530Y-105031409D01*
X139454697Y-105110869D01*
X139282051Y-105226227D01*
X139135227Y-105373051D01*
X139019869Y-105545697D01*
X138940409Y-105737530D01*
X138899900Y-105941180D01*
X137856246Y-105941180D01*
X137889315Y-105774935D01*
X137889315Y-105567295D01*
X137848806Y-105363645D01*
X137769346Y-105171812D01*
X137653988Y-104999166D01*
X137507164Y-104852342D01*
X137334518Y-104736984D01*
X137142685Y-104657524D01*
X136939035Y-104617015D01*
X136731395Y-104617015D01*
X136527745Y-104657524D01*
X136335912Y-104736984D01*
X136163266Y-104852342D01*
X136016442Y-104999166D01*
X135901084Y-105171812D01*
X135821624Y-105363645D01*
X135781115Y-105567295D01*
X131889500Y-105567295D01*
X131889500Y-103451956D01*
X131950591Y-103304470D01*
X131991100Y-103100820D01*
X131991100Y-102893180D01*
X131979125Y-102832981D01*
X132450106Y-102362000D01*
X146050000Y-102362000D01*
X146074776Y-102359560D01*
X146098601Y-102352333D01*
X146120557Y-102340597D01*
X146139803Y-102324803D01*
X146737606Y-101727000D01*
X151394894Y-101727000D01*
X151955500Y-102287606D01*
G36*
X136293396Y-94189210D02*
G01*
X136400415Y-94349375D01*
X136536625Y-94485585D01*
X136696790Y-94592604D01*
X136874757Y-94666320D01*
X137063685Y-94703900D01*
X137256315Y-94703900D01*
X137445243Y-94666320D01*
X137623210Y-94592604D01*
X137783375Y-94485585D01*
X137919585Y-94349375D01*
X138026604Y-94189210D01*
X138060656Y-94107000D01*
X139163859Y-94107000D01*
X139287757Y-94158320D01*
X139476685Y-94195900D01*
X139669315Y-94195900D01*
X139858243Y-94158320D01*
X139982141Y-94107000D01*
X144092394Y-94107000D01*
X144653000Y-94667606D01*
X144653000Y-96467394D01*
X144346563Y-96773831D01*
X144269585Y-96658625D01*
X144133375Y-96522415D01*
X143973210Y-96415396D01*
X143795243Y-96341680D01*
X143606315Y-96304100D01*
X143413685Y-96304100D01*
X143224757Y-96341680D01*
X143046790Y-96415396D01*
X142886625Y-96522415D01*
X142750415Y-96658625D01*
X142643396Y-96818790D01*
X142569680Y-96996757D01*
X142563465Y-97028000D01*
X142292606Y-97028000D01*
X141694803Y-96430197D01*
X141675557Y-96414403D01*
X141653601Y-96402667D01*
X141629776Y-96395440D01*
X141605000Y-96393000D01*
X138287761Y-96393000D01*
X138131210Y-96288396D01*
X137953243Y-96214680D01*
X137764315Y-96177100D01*
X137571685Y-96177100D01*
X137382757Y-96214680D01*
X137204790Y-96288396D01*
X137048239Y-96393000D01*
X135255000Y-96393000D01*
X135230224Y-96395440D01*
X135206399Y-96402667D01*
X135184443Y-96414403D01*
X135165197Y-96430197D01*
X134530197Y-97065197D01*
X134514403Y-97084443D01*
X134502667Y-97106399D01*
X134495440Y-97130224D01*
X134493000Y-97155000D01*
X134493000Y-98331615D01*
X134476210Y-98320396D01*
X134298243Y-98246680D01*
X134109315Y-98209100D01*
X134023100Y-98209100D01*
X134023100Y-98067180D01*
X133982591Y-97863530D01*
X133903131Y-97671697D01*
X133787773Y-97499051D01*
X133640949Y-97352227D01*
X133468303Y-97236869D01*
X133276470Y-97157409D01*
X133072820Y-97116900D01*
X132865180Y-97116900D01*
X132661530Y-97157409D01*
X132469697Y-97236869D01*
X132297051Y-97352227D01*
X132150227Y-97499051D01*
X132034869Y-97671697D01*
X131955409Y-97863530D01*
X131914900Y-98067180D01*
X131914900Y-98274820D01*
X131955409Y-98478470D01*
X132034869Y-98670303D01*
X132150227Y-98842949D01*
X132297051Y-98989773D01*
X132469697Y-99105131D01*
X132661530Y-99184591D01*
X132865180Y-99225100D01*
X133035100Y-99225100D01*
X133035100Y-99283315D01*
X133072680Y-99472243D01*
X133146396Y-99650210D01*
X133253415Y-99810375D01*
X133389625Y-99946585D01*
X133549790Y-100053604D01*
X133727757Y-100127320D01*
X133916685Y-100164900D01*
X134109315Y-100164900D01*
X134298243Y-100127320D01*
X134476210Y-100053604D01*
X134493000Y-100042385D01*
X134493000Y-100912394D01*
X133932394Y-101473000D01*
X131445000Y-101473000D01*
X131420224Y-101475440D01*
X131396399Y-101482667D01*
X131374443Y-101494403D01*
X131355197Y-101510197D01*
X130922494Y-101942900D01*
X130833180Y-101942900D01*
X130629530Y-101983409D01*
X130437697Y-102062869D01*
X130265051Y-102178227D01*
X130118227Y-102325051D01*
X130002869Y-102497697D01*
X129923409Y-102689530D01*
X129882900Y-102893180D01*
X129882900Y-103100820D01*
X129923409Y-103304470D01*
X130002869Y-103496303D01*
X130118227Y-103668949D01*
X130265051Y-103815773D01*
X130388960Y-103898566D01*
X130683000Y-104192606D01*
X130683000Y-107262394D01*
X130122394Y-107823000D01*
X128018374Y-107823000D01*
X127799111Y-107756487D01*
X127580950Y-107735000D01*
X127435050Y-107735000D01*
X127216889Y-107756487D01*
X126997626Y-107823000D01*
X126141694Y-107823000D01*
X126062180Y-107780498D01*
X125942482Y-107744188D01*
X125818000Y-107731928D01*
X124118000Y-107731928D01*
X123993518Y-107744188D01*
X123873820Y-107780498D01*
X123794306Y-107823000D01*
X123242606Y-107823000D01*
X118834803Y-103415197D01*
X118815557Y-103399403D01*
X118793601Y-103387667D01*
X118769776Y-103380440D01*
X118745000Y-103378000D01*
X114987606Y-103378000D01*
X113792000Y-102182394D01*
X113792000Y-99747606D01*
X114352606Y-99187000D01*
X121232394Y-99187000D01*
X121778494Y-99733100D01*
X121696685Y-99733100D01*
X121507757Y-99770680D01*
X121329790Y-99844396D01*
X121169625Y-99951415D01*
X121033415Y-100087625D01*
X120926396Y-100247790D01*
X120852680Y-100425757D01*
X120815100Y-100614685D01*
X120815100Y-100807315D01*
X120852680Y-100996243D01*
X120926396Y-101174210D01*
X121033415Y-101334375D01*
X121169625Y-101470585D01*
X121329790Y-101577604D01*
X121507757Y-101651320D01*
X121696685Y-101688900D01*
X121889315Y-101688900D01*
X122078243Y-101651320D01*
X122256210Y-101577604D01*
X122416375Y-101470585D01*
X122552585Y-101334375D01*
X122659604Y-101174210D01*
X122733320Y-100996243D01*
X122770900Y-100807315D01*
X122770900Y-100725506D01*
X123100197Y-101054803D01*
X123119443Y-101070597D01*
X123141399Y-101082333D01*
X123165224Y-101089560D01*
X123190000Y-101092000D01*
X128905000Y-101092000D01*
X128929776Y-101089560D01*
X128953601Y-101082333D01*
X128975557Y-101070597D01*
X128994803Y-101054803D01*
X129629803Y-100419803D01*
X129645597Y-100400557D01*
X129657333Y-100378601D01*
X129664560Y-100354776D01*
X129667000Y-100330000D01*
X129667000Y-95280685D01*
X133515100Y-95280685D01*
X133515100Y-95473315D01*
X133552680Y-95662243D01*
X133626396Y-95840210D01*
X133733415Y-96000375D01*
X133869625Y-96136585D01*
X134029790Y-96243604D01*
X134207757Y-96317320D01*
X134396685Y-96354900D01*
X134589315Y-96354900D01*
X134778243Y-96317320D01*
X134956210Y-96243604D01*
X135116375Y-96136585D01*
X135252585Y-96000375D01*
X135359604Y-95840210D01*
X135433320Y-95662243D01*
X135470900Y-95473315D01*
X135470900Y-95280685D01*
X135433320Y-95091757D01*
X135359604Y-94913790D01*
X135252585Y-94753625D01*
X135116375Y-94617415D01*
X134956210Y-94510396D01*
X134778243Y-94436680D01*
X134589315Y-94399100D01*
X134396685Y-94399100D01*
X134207757Y-94436680D01*
X134029790Y-94510396D01*
X133869625Y-94617415D01*
X133733415Y-94753625D01*
X133626396Y-94913790D01*
X133552680Y-95091757D01*
X133515100Y-95280685D01*
X129667000Y-95280685D01*
X129667000Y-94667606D01*
X130227606Y-94107000D01*
X136259344Y-94107000D01*
X136293396Y-94189210D01*
X136293396Y-94189210D01*
G37*
X136293396Y-94189210D02*
X136400415Y-94349375D01*
X136536625Y-94485585D01*
X136696790Y-94592604D01*
X136874757Y-94666320D01*
X137063685Y-94703900D01*
X137256315Y-94703900D01*
X137445243Y-94666320D01*
X137623210Y-94592604D01*
X137783375Y-94485585D01*
X137919585Y-94349375D01*
X138026604Y-94189210D01*
X138060656Y-94107000D01*
X139163859Y-94107000D01*
X139287757Y-94158320D01*
X139476685Y-94195900D01*
X139669315Y-94195900D01*
X139858243Y-94158320D01*
X139982141Y-94107000D01*
X144092394Y-94107000D01*
X144653000Y-94667606D01*
X144653000Y-96467394D01*
X144346563Y-96773831D01*
X144269585Y-96658625D01*
X144133375Y-96522415D01*
X143973210Y-96415396D01*
X143795243Y-96341680D01*
X143606315Y-96304100D01*
X143413685Y-96304100D01*
X143224757Y-96341680D01*
X143046790Y-96415396D01*
X142886625Y-96522415D01*
X142750415Y-96658625D01*
X142643396Y-96818790D01*
X142569680Y-96996757D01*
X142563465Y-97028000D01*
X142292606Y-97028000D01*
X141694803Y-96430197D01*
X141675557Y-96414403D01*
X141653601Y-96402667D01*
X141629776Y-96395440D01*
X141605000Y-96393000D01*
X138287761Y-96393000D01*
X138131210Y-96288396D01*
X137953243Y-96214680D01*
X137764315Y-96177100D01*
X137571685Y-96177100D01*
X137382757Y-96214680D01*
X137204790Y-96288396D01*
X137048239Y-96393000D01*
X135255000Y-96393000D01*
X135230224Y-96395440D01*
X135206399Y-96402667D01*
X135184443Y-96414403D01*
X135165197Y-96430197D01*
X134530197Y-97065197D01*
X134514403Y-97084443D01*
X134502667Y-97106399D01*
X134495440Y-97130224D01*
X134493000Y-97155000D01*
X134493000Y-98331615D01*
X134476210Y-98320396D01*
X134298243Y-98246680D01*
X134109315Y-98209100D01*
X134023100Y-98209100D01*
X134023100Y-98067180D01*
X133982591Y-97863530D01*
X133903131Y-97671697D01*
X133787773Y-97499051D01*
X133640949Y-97352227D01*
X133468303Y-97236869D01*
X133276470Y-97157409D01*
X133072820Y-97116900D01*
X132865180Y-97116900D01*
X132661530Y-97157409D01*
X132469697Y-97236869D01*
X132297051Y-97352227D01*
X132150227Y-97499051D01*
X132034869Y-97671697D01*
X131955409Y-97863530D01*
X131914900Y-98067180D01*
X131914900Y-98274820D01*
X131955409Y-98478470D01*
X132034869Y-98670303D01*
X132150227Y-98842949D01*
X132297051Y-98989773D01*
X132469697Y-99105131D01*
X132661530Y-99184591D01*
X132865180Y-99225100D01*
X133035100Y-99225100D01*
X133035100Y-99283315D01*
X133072680Y-99472243D01*
X133146396Y-99650210D01*
X133253415Y-99810375D01*
X133389625Y-99946585D01*
X133549790Y-100053604D01*
X133727757Y-100127320D01*
X133916685Y-100164900D01*
X134109315Y-100164900D01*
X134298243Y-100127320D01*
X134476210Y-100053604D01*
X134493000Y-100042385D01*
X134493000Y-100912394D01*
X133932394Y-101473000D01*
X131445000Y-101473000D01*
X131420224Y-101475440D01*
X131396399Y-101482667D01*
X131374443Y-101494403D01*
X131355197Y-101510197D01*
X130922494Y-101942900D01*
X130833180Y-101942900D01*
X130629530Y-101983409D01*
X130437697Y-102062869D01*
X130265051Y-102178227D01*
X130118227Y-102325051D01*
X130002869Y-102497697D01*
X129923409Y-102689530D01*
X129882900Y-102893180D01*
X129882900Y-103100820D01*
X129923409Y-103304470D01*
X130002869Y-103496303D01*
X130118227Y-103668949D01*
X130265051Y-103815773D01*
X130388960Y-103898566D01*
X130683000Y-104192606D01*
X130683000Y-107262394D01*
X130122394Y-107823000D01*
X128018374Y-107823000D01*
X127799111Y-107756487D01*
X127580950Y-107735000D01*
X127435050Y-107735000D01*
X127216889Y-107756487D01*
X126997626Y-107823000D01*
X126141694Y-107823000D01*
X126062180Y-107780498D01*
X125942482Y-107744188D01*
X125818000Y-107731928D01*
X124118000Y-107731928D01*
X123993518Y-107744188D01*
X123873820Y-107780498D01*
X123794306Y-107823000D01*
X123242606Y-107823000D01*
X118834803Y-103415197D01*
X118815557Y-103399403D01*
X118793601Y-103387667D01*
X118769776Y-103380440D01*
X118745000Y-103378000D01*
X114987606Y-103378000D01*
X113792000Y-102182394D01*
X113792000Y-99747606D01*
X114352606Y-99187000D01*
X121232394Y-99187000D01*
X121778494Y-99733100D01*
X121696685Y-99733100D01*
X121507757Y-99770680D01*
X121329790Y-99844396D01*
X121169625Y-99951415D01*
X121033415Y-100087625D01*
X120926396Y-100247790D01*
X120852680Y-100425757D01*
X120815100Y-100614685D01*
X120815100Y-100807315D01*
X120852680Y-100996243D01*
X120926396Y-101174210D01*
X121033415Y-101334375D01*
X121169625Y-101470585D01*
X121329790Y-101577604D01*
X121507757Y-101651320D01*
X121696685Y-101688900D01*
X121889315Y-101688900D01*
X122078243Y-101651320D01*
X122256210Y-101577604D01*
X122416375Y-101470585D01*
X122552585Y-101334375D01*
X122659604Y-101174210D01*
X122733320Y-100996243D01*
X122770900Y-100807315D01*
X122770900Y-100725506D01*
X123100197Y-101054803D01*
X123119443Y-101070597D01*
X123141399Y-101082333D01*
X123165224Y-101089560D01*
X123190000Y-101092000D01*
X128905000Y-101092000D01*
X128929776Y-101089560D01*
X128953601Y-101082333D01*
X128975557Y-101070597D01*
X128994803Y-101054803D01*
X129629803Y-100419803D01*
X129645597Y-100400557D01*
X129657333Y-100378601D01*
X129664560Y-100354776D01*
X129667000Y-100330000D01*
X129667000Y-95280685D01*
X133515100Y-95280685D01*
X133515100Y-95473315D01*
X133552680Y-95662243D01*
X133626396Y-95840210D01*
X133733415Y-96000375D01*
X133869625Y-96136585D01*
X134029790Y-96243604D01*
X134207757Y-96317320D01*
X134396685Y-96354900D01*
X134589315Y-96354900D01*
X134778243Y-96317320D01*
X134956210Y-96243604D01*
X135116375Y-96136585D01*
X135252585Y-96000375D01*
X135359604Y-95840210D01*
X135433320Y-95662243D01*
X135470900Y-95473315D01*
X135470900Y-95280685D01*
X135433320Y-95091757D01*
X135359604Y-94913790D01*
X135252585Y-94753625D01*
X135116375Y-94617415D01*
X134956210Y-94510396D01*
X134778243Y-94436680D01*
X134589315Y-94399100D01*
X134396685Y-94399100D01*
X134207757Y-94436680D01*
X134029790Y-94510396D01*
X133869625Y-94617415D01*
X133733415Y-94753625D01*
X133626396Y-94913790D01*
X133552680Y-95091757D01*
X133515100Y-95280685D01*
X129667000Y-95280685D01*
X129667000Y-94667606D01*
X130227606Y-94107000D01*
X136259344Y-94107000D01*
X136293396Y-94189210D01*
G36*
X134029790Y-70634396D02*
G01*
X133869625Y-70741415D01*
X133733415Y-70877625D01*
X133626396Y-71037790D01*
X133552680Y-71215757D01*
X133515100Y-71404685D01*
X133515100Y-71597315D01*
X133552680Y-71786243D01*
X133626396Y-71964210D01*
X133733415Y-72124375D01*
X133869625Y-72260585D01*
X134029790Y-72367604D01*
X134207757Y-72441320D01*
X134396685Y-72478900D01*
X134589315Y-72478900D01*
X134778243Y-72441320D01*
X134956210Y-72367604D01*
X135064500Y-72295247D01*
X135172790Y-72367604D01*
X135350757Y-72441320D01*
X135539685Y-72478900D01*
X135732315Y-72478900D01*
X135921243Y-72441320D01*
X136099210Y-72367604D01*
X136259375Y-72260585D01*
X136395585Y-72124375D01*
X136502604Y-71964210D01*
X136576320Y-71786243D01*
X136613900Y-71597315D01*
X136613900Y-71404685D01*
X136576320Y-71215757D01*
X136502604Y-71037790D01*
X136395585Y-70877625D01*
X136259375Y-70741415D01*
X136099210Y-70634396D01*
X136045141Y-70612000D01*
X142719859Y-70612000D01*
X142665790Y-70634396D01*
X142505625Y-70741415D01*
X142369415Y-70877625D01*
X142262396Y-71037790D01*
X142188680Y-71215757D01*
X142151100Y-71404685D01*
X142151100Y-71597315D01*
X142188680Y-71786243D01*
X142262396Y-71964210D01*
X142369415Y-72124375D01*
X142505625Y-72260585D01*
X142665790Y-72367604D01*
X142843757Y-72441320D01*
X143032685Y-72478900D01*
X143225315Y-72478900D01*
X143414243Y-72441320D01*
X143592210Y-72367604D01*
X143752375Y-72260585D01*
X143888585Y-72124375D01*
X143995604Y-71964210D01*
X144069320Y-71786243D01*
X144106900Y-71597315D01*
X144106900Y-71404685D01*
X144069320Y-71215757D01*
X143995604Y-71037790D01*
X143888585Y-70877625D01*
X143752375Y-70741415D01*
X143592210Y-70634396D01*
X143538141Y-70612000D01*
X149450859Y-70612000D01*
X149396790Y-70634396D01*
X149236625Y-70741415D01*
X149100415Y-70877625D01*
X148993396Y-71037790D01*
X148919680Y-71215757D01*
X148882100Y-71404685D01*
X148882100Y-71597315D01*
X148919680Y-71786243D01*
X148993396Y-71964210D01*
X149100415Y-72124375D01*
X149236625Y-72260585D01*
X149396790Y-72367604D01*
X149574757Y-72441320D01*
X149763685Y-72478900D01*
X149956315Y-72478900D01*
X150145243Y-72441320D01*
X150323210Y-72367604D01*
X150483375Y-72260585D01*
X150619585Y-72124375D01*
X150726604Y-71964210D01*
X150800320Y-71786243D01*
X150837900Y-71597315D01*
X150837900Y-71404685D01*
X150800320Y-71215757D01*
X150726604Y-71037790D01*
X150619585Y-70877625D01*
X150483375Y-70741415D01*
X150323210Y-70634396D01*
X150269141Y-70612000D01*
X153050239Y-70612000D01*
X153046625Y-70614415D01*
X152910415Y-70750625D01*
X152803396Y-70910790D01*
X152729680Y-71088757D01*
X152692100Y-71277685D01*
X152692100Y-71470315D01*
X152729680Y-71659243D01*
X152803396Y-71837210D01*
X152910415Y-71997375D01*
X153046625Y-72133585D01*
X153206790Y-72240604D01*
X153384757Y-72314320D01*
X153573685Y-72351900D01*
X153766315Y-72351900D01*
X153955243Y-72314320D01*
X154133210Y-72240604D01*
X154263226Y-72153730D01*
X154138906Y-72453865D01*
X153980000Y-73252738D01*
X153980000Y-74067262D01*
X154138906Y-74866135D01*
X154450611Y-75618657D01*
X154903136Y-76295909D01*
X155479091Y-76871864D01*
X156156343Y-77324389D01*
X156908865Y-77636094D01*
X157707738Y-77795000D01*
X158522262Y-77795000D01*
X159321135Y-77636094D01*
X160073657Y-77324389D01*
X160750909Y-76871864D01*
X161163000Y-76459773D01*
X161163000Y-83697478D01*
X161162825Y-83696901D01*
X161037641Y-83434080D01*
X160863588Y-83200731D01*
X160647355Y-83005822D01*
X160397252Y-82856843D01*
X160122891Y-82759519D01*
X159893000Y-82880186D01*
X159893000Y-84074000D01*
X159913000Y-84074000D01*
X159913000Y-84328000D01*
X159893000Y-84328000D01*
X159893000Y-86614000D01*
X159913000Y-86614000D01*
X159913000Y-86868000D01*
X159893000Y-86868000D01*
X159893000Y-86888000D01*
X159639000Y-86888000D01*
X159639000Y-86868000D01*
X157353000Y-86868000D01*
X157353000Y-86888000D01*
X157099000Y-86888000D01*
X157099000Y-86868000D01*
X155905845Y-86868000D01*
X155784524Y-87097890D01*
X155829175Y-87245099D01*
X155954359Y-87507920D01*
X156128412Y-87741269D01*
X156344645Y-87936178D01*
X156461523Y-88005799D01*
X156396986Y-88040294D01*
X156170866Y-88225866D01*
X155985294Y-88451986D01*
X155847401Y-88709966D01*
X155762487Y-88989889D01*
X155733815Y-89281000D01*
X155762487Y-89572111D01*
X155847401Y-89852034D01*
X155985294Y-90110014D01*
X156170866Y-90336134D01*
X156396986Y-90521706D01*
X156451791Y-90551000D01*
X156396986Y-90580294D01*
X156170866Y-90765866D01*
X155985294Y-90991986D01*
X155847401Y-91249966D01*
X155762487Y-91529889D01*
X155733815Y-91821000D01*
X155762487Y-92112111D01*
X155847401Y-92392034D01*
X155985294Y-92650014D01*
X156170866Y-92876134D01*
X156396986Y-93061706D01*
X156451791Y-93091000D01*
X156396986Y-93120294D01*
X156170866Y-93305866D01*
X155985294Y-93531986D01*
X155847401Y-93789966D01*
X155762487Y-94069889D01*
X155733815Y-94361000D01*
X155762487Y-94652111D01*
X155847401Y-94932034D01*
X155985294Y-95190014D01*
X156170866Y-95416134D01*
X156396986Y-95601706D01*
X156451791Y-95631000D01*
X156396986Y-95660294D01*
X156170866Y-95845866D01*
X155985294Y-96071986D01*
X155847401Y-96329966D01*
X155762487Y-96609889D01*
X155733815Y-96901000D01*
X155762487Y-97192111D01*
X155847401Y-97472034D01*
X155985294Y-97730014D01*
X156170866Y-97956134D01*
X156396986Y-98141706D01*
X156451791Y-98171000D01*
X156396986Y-98200294D01*
X156170866Y-98385866D01*
X155985294Y-98611986D01*
X155847401Y-98869966D01*
X155762487Y-99149889D01*
X155761232Y-99162631D01*
X155750391Y-99108130D01*
X155670931Y-98916297D01*
X155555573Y-98743651D01*
X155408749Y-98596827D01*
X155236103Y-98481469D01*
X155044270Y-98402009D01*
X154840620Y-98361500D01*
X154632980Y-98361500D01*
X154429330Y-98402009D01*
X154237497Y-98481469D01*
X154064851Y-98596827D01*
X153918027Y-98743651D01*
X153802669Y-98916297D01*
X153723209Y-99108130D01*
X153682700Y-99311780D01*
X153682700Y-99519420D01*
X153723209Y-99723070D01*
X153802669Y-99914903D01*
X153918027Y-100087549D01*
X154064851Y-100234373D01*
X154237497Y-100349731D01*
X154429330Y-100429191D01*
X154632980Y-100469700D01*
X154840620Y-100469700D01*
X155044270Y-100429191D01*
X155236103Y-100349731D01*
X155408749Y-100234373D01*
X155555573Y-100087549D01*
X155670931Y-99914903D01*
X155750391Y-99723070D01*
X155757886Y-99685392D01*
X155762487Y-99732111D01*
X155847401Y-100012034D01*
X155985294Y-100270014D01*
X156170866Y-100496134D01*
X156396986Y-100681706D01*
X156654966Y-100819599D01*
X156934889Y-100904513D01*
X157153050Y-100926000D01*
X157298950Y-100926000D01*
X157517111Y-100904513D01*
X157797034Y-100819599D01*
X158055014Y-100681706D01*
X158281134Y-100496134D01*
X158466706Y-100270014D01*
X158496000Y-100215209D01*
X158525294Y-100270014D01*
X158710866Y-100496134D01*
X158936986Y-100681706D01*
X159194966Y-100819599D01*
X159474889Y-100904513D01*
X159693050Y-100926000D01*
X159838950Y-100926000D01*
X160057111Y-100904513D01*
X160337034Y-100819599D01*
X160595014Y-100681706D01*
X160821134Y-100496134D01*
X161006706Y-100270014D01*
X161144599Y-100012034D01*
X161163000Y-99951374D01*
X161163000Y-100912394D01*
X159967394Y-102108000D01*
X153087606Y-102108000D01*
X151854803Y-100875197D01*
X151835557Y-100859403D01*
X151813601Y-100847667D01*
X151789776Y-100840440D01*
X151765000Y-100838000D01*
X146050000Y-100838000D01*
X146025224Y-100840440D01*
X146001399Y-100847667D01*
X145979443Y-100859403D01*
X145960197Y-100875197D01*
X145362394Y-101473000D01*
X136577606Y-101473000D01*
X135382000Y-100277394D01*
X135382000Y-99725685D01*
X139484100Y-99725685D01*
X139484100Y-99918315D01*
X139521680Y-100107243D01*
X139595396Y-100285210D01*
X139702415Y-100445375D01*
X139838625Y-100581585D01*
X139998790Y-100688604D01*
X140176757Y-100762320D01*
X140365685Y-100799900D01*
X140558315Y-100799900D01*
X140747243Y-100762320D01*
X140925210Y-100688604D01*
X141085375Y-100581585D01*
X141221585Y-100445375D01*
X141328604Y-100285210D01*
X141402320Y-100107243D01*
X141439900Y-99918315D01*
X141439900Y-99725685D01*
X141402320Y-99536757D01*
X141328604Y-99358790D01*
X141314165Y-99337180D01*
X142455900Y-99337180D01*
X142455900Y-99544820D01*
X142496409Y-99748470D01*
X142575869Y-99940303D01*
X142691227Y-100112949D01*
X142838051Y-100259773D01*
X143010697Y-100375131D01*
X143202530Y-100454591D01*
X143406180Y-100495100D01*
X143613820Y-100495100D01*
X143817470Y-100454591D01*
X144009303Y-100375131D01*
X144181949Y-100259773D01*
X144328773Y-100112949D01*
X144444131Y-99940303D01*
X144523591Y-99748470D01*
X144564100Y-99544820D01*
X144564100Y-99337180D01*
X144523591Y-99133530D01*
X144444131Y-98941697D01*
X144328773Y-98769051D01*
X144181949Y-98622227D01*
X144009303Y-98506869D01*
X143817470Y-98427409D01*
X143613820Y-98386900D01*
X143406180Y-98386900D01*
X143202530Y-98427409D01*
X143010697Y-98506869D01*
X142838051Y-98622227D01*
X142691227Y-98769051D01*
X142575869Y-98941697D01*
X142496409Y-99133530D01*
X142455900Y-99337180D01*
X141314165Y-99337180D01*
X141221585Y-99198625D01*
X141085375Y-99062415D01*
X140925210Y-98955396D01*
X140747243Y-98881680D01*
X140558315Y-98844100D01*
X140365685Y-98844100D01*
X140176757Y-98881680D01*
X139998790Y-98955396D01*
X139838625Y-99062415D01*
X139702415Y-99198625D01*
X139595396Y-99358790D01*
X139521680Y-99536757D01*
X139484100Y-99725685D01*
X135382000Y-99725685D01*
X135382000Y-97842606D01*
X135942606Y-97282000D01*
X136696204Y-97282000D01*
X136727680Y-97440243D01*
X136801396Y-97618210D01*
X136908415Y-97778375D01*
X137044625Y-97914585D01*
X137204790Y-98021604D01*
X137382757Y-98095320D01*
X137571685Y-98132900D01*
X137764315Y-98132900D01*
X137953243Y-98095320D01*
X138131210Y-98021604D01*
X138291375Y-97914585D01*
X138427585Y-97778375D01*
X138534604Y-97618210D01*
X138608320Y-97440243D01*
X138639796Y-97282000D01*
X140917394Y-97282000D01*
X141515197Y-97879803D01*
X141534443Y-97895597D01*
X141556399Y-97907333D01*
X141580224Y-97914560D01*
X141605000Y-97917000D01*
X142762040Y-97917000D01*
X142886625Y-98041585D01*
X143046790Y-98148604D01*
X143224757Y-98222320D01*
X143413685Y-98259900D01*
X143606315Y-98259900D01*
X143795243Y-98222320D01*
X143973210Y-98148604D01*
X144133375Y-98041585D01*
X144257960Y-97917000D01*
X144780000Y-97917000D01*
X144804776Y-97914560D01*
X144828601Y-97907333D01*
X144830800Y-97906158D01*
X144830800Y-98912674D01*
X144827360Y-98947600D01*
X144830800Y-98982526D01*
X144830800Y-98982535D01*
X144841091Y-99087019D01*
X144881758Y-99221080D01*
X144947798Y-99344632D01*
X145036673Y-99452926D01*
X145063811Y-99475198D01*
X145355398Y-99766785D01*
X145377673Y-99793927D01*
X145397328Y-99810058D01*
X145397328Y-99963600D01*
X145409588Y-100088082D01*
X145445898Y-100207780D01*
X145504863Y-100318094D01*
X145584215Y-100414785D01*
X145680906Y-100494137D01*
X145791220Y-100553102D01*
X145910918Y-100589412D01*
X146035400Y-100601672D01*
X147385400Y-100601672D01*
X147509882Y-100589412D01*
X147629580Y-100553102D01*
X147739894Y-100494137D01*
X147836585Y-100414785D01*
X147915937Y-100318094D01*
X147974902Y-100207780D01*
X148011212Y-100088082D01*
X148023472Y-99963600D01*
X148023472Y-98613600D01*
X148011212Y-98489118D01*
X147974902Y-98369420D01*
X147915937Y-98259106D01*
X147836585Y-98162415D01*
X147747769Y-98089526D01*
X147804895Y-98019918D01*
X147926538Y-97792341D01*
X148001445Y-97545405D01*
X148026738Y-97288600D01*
X148001445Y-97031795D01*
X147926538Y-96784859D01*
X147804895Y-96557282D01*
X147641192Y-96357808D01*
X147556861Y-96288600D01*
X147641192Y-96219392D01*
X147804895Y-96019918D01*
X147926538Y-95792341D01*
X148001445Y-95545405D01*
X148026738Y-95288600D01*
X148001445Y-95031795D01*
X147926538Y-94784859D01*
X147804895Y-94557282D01*
X147641192Y-94357808D01*
X147556861Y-94288600D01*
X147641192Y-94219392D01*
X147804895Y-94019918D01*
X147926538Y-93792341D01*
X148001445Y-93545405D01*
X148026738Y-93288600D01*
X148001445Y-93031795D01*
X147926538Y-92784859D01*
X147804895Y-92557282D01*
X147641192Y-92357808D01*
X147556861Y-92288600D01*
X147641192Y-92219392D01*
X147804895Y-92019918D01*
X147926538Y-91792341D01*
X148001445Y-91545405D01*
X148026738Y-91288600D01*
X148001445Y-91031795D01*
X147926538Y-90784859D01*
X147817939Y-90581685D01*
X151803100Y-90581685D01*
X151803100Y-90774315D01*
X151840680Y-90963243D01*
X151914396Y-91141210D01*
X152021415Y-91301375D01*
X152157625Y-91437585D01*
X152317790Y-91544604D01*
X152495757Y-91618320D01*
X152684685Y-91655900D01*
X152877315Y-91655900D01*
X153066243Y-91618320D01*
X153244210Y-91544604D01*
X153404375Y-91437585D01*
X153540585Y-91301375D01*
X153647604Y-91141210D01*
X153721320Y-90963243D01*
X153758900Y-90774315D01*
X153758900Y-90581685D01*
X153721320Y-90392757D01*
X153647604Y-90214790D01*
X153540585Y-90054625D01*
X153404375Y-89918415D01*
X153244210Y-89811396D01*
X153066243Y-89737680D01*
X152877315Y-89700100D01*
X152684685Y-89700100D01*
X152495757Y-89737680D01*
X152317790Y-89811396D01*
X152157625Y-89918415D01*
X152021415Y-90054625D01*
X151914396Y-90214790D01*
X151840680Y-90392757D01*
X151803100Y-90581685D01*
X147817939Y-90581685D01*
X147804895Y-90557282D01*
X147641192Y-90357808D01*
X147556861Y-90288600D01*
X147641192Y-90219392D01*
X147804895Y-90019918D01*
X147926538Y-89792341D01*
X148001445Y-89545405D01*
X148026738Y-89288600D01*
X148001445Y-89031795D01*
X147926538Y-88784859D01*
X147804895Y-88557282D01*
X147641192Y-88357808D01*
X147556861Y-88288600D01*
X147641192Y-88219392D01*
X147787031Y-88041685D01*
X151803100Y-88041685D01*
X151803100Y-88234315D01*
X151840680Y-88423243D01*
X151914396Y-88601210D01*
X152021415Y-88761375D01*
X152157625Y-88897585D01*
X152317790Y-89004604D01*
X152495757Y-89078320D01*
X152684685Y-89115900D01*
X152877315Y-89115900D01*
X153066243Y-89078320D01*
X153244210Y-89004604D01*
X153404375Y-88897585D01*
X153540585Y-88761375D01*
X153647604Y-88601210D01*
X153721320Y-88423243D01*
X153758900Y-88234315D01*
X153758900Y-88041685D01*
X153721320Y-87852757D01*
X153647604Y-87674790D01*
X153540585Y-87514625D01*
X153404375Y-87378415D01*
X153244210Y-87271396D01*
X153066243Y-87197680D01*
X152877315Y-87160100D01*
X152684685Y-87160100D01*
X152495757Y-87197680D01*
X152317790Y-87271396D01*
X152157625Y-87378415D01*
X152021415Y-87514625D01*
X151914396Y-87674790D01*
X151840680Y-87852757D01*
X151803100Y-88041685D01*
X147787031Y-88041685D01*
X147804895Y-88019918D01*
X147926538Y-87792341D01*
X148001445Y-87545405D01*
X148026738Y-87288600D01*
X148001445Y-87031795D01*
X147926538Y-86784859D01*
X147804895Y-86557282D01*
X147641192Y-86357808D01*
X147556861Y-86288600D01*
X147641192Y-86219392D01*
X147804895Y-86019918D01*
X147926538Y-85792341D01*
X148001445Y-85545405D01*
X148026738Y-85288600D01*
X148001445Y-85031795D01*
X147926538Y-84784859D01*
X147804895Y-84557282D01*
X147641192Y-84357808D01*
X147556861Y-84288600D01*
X147641192Y-84219392D01*
X147804895Y-84019918D01*
X147926538Y-83792341D01*
X148001445Y-83545405D01*
X148026738Y-83288600D01*
X148001445Y-83031795D01*
X147941653Y-82834685D01*
X151803100Y-82834685D01*
X151803100Y-83027315D01*
X151840680Y-83216243D01*
X151914396Y-83394210D01*
X152021415Y-83554375D01*
X152157625Y-83690585D01*
X152317790Y-83797604D01*
X152495757Y-83871320D01*
X152684685Y-83908900D01*
X152877315Y-83908900D01*
X153066243Y-83871320D01*
X153244210Y-83797604D01*
X153404375Y-83690585D01*
X153540585Y-83554375D01*
X153647604Y-83394210D01*
X153665502Y-83351000D01*
X155737928Y-83351000D01*
X155737928Y-85051000D01*
X155750188Y-85175482D01*
X155786498Y-85295180D01*
X155845463Y-85405494D01*
X155924815Y-85502185D01*
X156021506Y-85581537D01*
X156131820Y-85640502D01*
X156212466Y-85664966D01*
X156128412Y-85740731D01*
X155954359Y-85974080D01*
X155829175Y-86236901D01*
X155784524Y-86384110D01*
X155905845Y-86614000D01*
X157099000Y-86614000D01*
X157099000Y-86594000D01*
X157353000Y-86594000D01*
X157353000Y-86614000D01*
X159639000Y-86614000D01*
X159639000Y-84328000D01*
X159619000Y-84328000D01*
X159619000Y-84074000D01*
X159639000Y-84074000D01*
X159639000Y-82880186D01*
X159409109Y-82759519D01*
X159134748Y-82856843D01*
X158884645Y-83005822D01*
X158688498Y-83182626D01*
X158665502Y-83106820D01*
X158606537Y-82996506D01*
X158527185Y-82899815D01*
X158430494Y-82820463D01*
X158320180Y-82761498D01*
X158200482Y-82725188D01*
X158076000Y-82712928D01*
X156376000Y-82712928D01*
X156251518Y-82725188D01*
X156131820Y-82761498D01*
X156021506Y-82820463D01*
X155924815Y-82899815D01*
X155845463Y-82996506D01*
X155786498Y-83106820D01*
X155750188Y-83226518D01*
X155737928Y-83351000D01*
X153665502Y-83351000D01*
X153721320Y-83216243D01*
X153758900Y-83027315D01*
X153758900Y-82834685D01*
X153721320Y-82645757D01*
X153647604Y-82467790D01*
X153540585Y-82307625D01*
X153404375Y-82171415D01*
X153244210Y-82064396D01*
X153066243Y-81990680D01*
X152877315Y-81953100D01*
X152684685Y-81953100D01*
X152495757Y-81990680D01*
X152317790Y-82064396D01*
X152157625Y-82171415D01*
X152021415Y-82307625D01*
X151914396Y-82467790D01*
X151840680Y-82645757D01*
X151803100Y-82834685D01*
X147941653Y-82834685D01*
X147926538Y-82784859D01*
X147804895Y-82557282D01*
X147641192Y-82357808D01*
X147556861Y-82288600D01*
X147641192Y-82219392D01*
X147804895Y-82019918D01*
X147926538Y-81792341D01*
X148001445Y-81545405D01*
X148026738Y-81288600D01*
X148001445Y-81031795D01*
X147926538Y-80784859D01*
X147804895Y-80557282D01*
X147641192Y-80357808D01*
X147441718Y-80194105D01*
X147285362Y-80110531D01*
X147297604Y-80092210D01*
X147371320Y-79914243D01*
X147408900Y-79725315D01*
X147408900Y-79652180D01*
X156933900Y-79652180D01*
X156933900Y-79859820D01*
X156974409Y-80063470D01*
X157053869Y-80255303D01*
X157169227Y-80427949D01*
X157316051Y-80574773D01*
X157488697Y-80690131D01*
X157680530Y-80769591D01*
X157884180Y-80810100D01*
X158091820Y-80810100D01*
X158295470Y-80769591D01*
X158487303Y-80690131D01*
X158659949Y-80574773D01*
X158806773Y-80427949D01*
X158922131Y-80255303D01*
X159001591Y-80063470D01*
X159042100Y-79859820D01*
X159042100Y-79652180D01*
X159001591Y-79448530D01*
X158922131Y-79256697D01*
X158806773Y-79084051D01*
X158659949Y-78937227D01*
X158487303Y-78821869D01*
X158295470Y-78742409D01*
X158091820Y-78701900D01*
X157884180Y-78701900D01*
X157680530Y-78742409D01*
X157488697Y-78821869D01*
X157316051Y-78937227D01*
X157169227Y-79084051D01*
X157053869Y-79256697D01*
X156974409Y-79448530D01*
X156933900Y-79652180D01*
X147408900Y-79652180D01*
X147408900Y-79532685D01*
X147371320Y-79343757D01*
X147297604Y-79165790D01*
X147190585Y-79005625D01*
X147054375Y-78869415D01*
X146894210Y-78762396D01*
X146840141Y-78740000D01*
X146894210Y-78717604D01*
X147054375Y-78610585D01*
X147190585Y-78474375D01*
X147297604Y-78314210D01*
X147371320Y-78136243D01*
X147408900Y-77947315D01*
X147408900Y-77754685D01*
X147371320Y-77565757D01*
X147297604Y-77387790D01*
X147190585Y-77227625D01*
X147054375Y-77091415D01*
X146894210Y-76984396D01*
X146716243Y-76910680D01*
X146527315Y-76873100D01*
X146334685Y-76873100D01*
X146145757Y-76910680D01*
X145967790Y-76984396D01*
X145807625Y-77091415D01*
X145671415Y-77227625D01*
X145564396Y-77387790D01*
X145490680Y-77565757D01*
X145453100Y-77754685D01*
X145453100Y-77947315D01*
X145490680Y-78136243D01*
X145564396Y-78314210D01*
X145671415Y-78474375D01*
X145807625Y-78610585D01*
X145967790Y-78717604D01*
X146021859Y-78740000D01*
X145967790Y-78762396D01*
X145807625Y-78869415D01*
X145671415Y-79005625D01*
X145564396Y-79165790D01*
X145490680Y-79343757D01*
X145453100Y-79532685D01*
X145453100Y-79725315D01*
X145490680Y-79914243D01*
X145564396Y-80092210D01*
X145671415Y-80252375D01*
X145778364Y-80359324D01*
X145615905Y-80557282D01*
X145494262Y-80784859D01*
X145419355Y-81031795D01*
X145394062Y-81288600D01*
X145419355Y-81545405D01*
X145494262Y-81792341D01*
X145615905Y-82019918D01*
X145779608Y-82219392D01*
X145863939Y-82288600D01*
X145779608Y-82357808D01*
X145615905Y-82557282D01*
X145605152Y-82577400D01*
X143157039Y-82577400D01*
X143167100Y-82526820D01*
X143167100Y-82319180D01*
X143126591Y-82115530D01*
X143047131Y-81923697D01*
X142931773Y-81751051D01*
X142784949Y-81604227D01*
X142612303Y-81488869D01*
X142420470Y-81409409D01*
X142216820Y-81368900D01*
X142009180Y-81368900D01*
X141805530Y-81409409D01*
X141613697Y-81488869D01*
X141441051Y-81604227D01*
X141294227Y-81751051D01*
X141178869Y-81923697D01*
X141099409Y-82115530D01*
X141058900Y-82319180D01*
X141058900Y-82526820D01*
X141068961Y-82577400D01*
X140396461Y-82577400D01*
X139842560Y-82023500D01*
X139958948Y-81945732D01*
X140095158Y-81809522D01*
X140202177Y-81649357D01*
X140275893Y-81471390D01*
X140313473Y-81282462D01*
X140313473Y-81089832D01*
X140275893Y-80900904D01*
X140202177Y-80722937D01*
X140095158Y-80562772D01*
X140067595Y-80535209D01*
X140163210Y-80495604D01*
X140323375Y-80388585D01*
X140459585Y-80252375D01*
X140566604Y-80092210D01*
X140640320Y-79914243D01*
X140677900Y-79725315D01*
X140677900Y-79532685D01*
X140640320Y-79343757D01*
X140566604Y-79165790D01*
X140459585Y-79005625D01*
X140323375Y-78869415D01*
X140163210Y-78762396D01*
X139985243Y-78688680D01*
X139796315Y-78651100D01*
X139603685Y-78651100D01*
X139414757Y-78688680D01*
X139236790Y-78762396D01*
X139076625Y-78869415D01*
X138940415Y-79005625D01*
X138877530Y-79099738D01*
X138856705Y-79049461D01*
X138749686Y-78889296D01*
X138662251Y-78801861D01*
X138715243Y-78791320D01*
X138893210Y-78717604D01*
X139053375Y-78610585D01*
X139189585Y-78474375D01*
X139296604Y-78314210D01*
X139370320Y-78136243D01*
X139407900Y-77947315D01*
X139407900Y-77754685D01*
X139370320Y-77565757D01*
X139296604Y-77387790D01*
X139189585Y-77227625D01*
X139053375Y-77091415D01*
X138893210Y-76984396D01*
X138715243Y-76910680D01*
X138668186Y-76901320D01*
X138735320Y-76739243D01*
X138744680Y-76692186D01*
X138906757Y-76759320D01*
X139095685Y-76796900D01*
X139288315Y-76796900D01*
X139477243Y-76759320D01*
X139655210Y-76685604D01*
X139815375Y-76578585D01*
X139951585Y-76442375D01*
X140058604Y-76282210D01*
X140132320Y-76104243D01*
X140169900Y-75915315D01*
X140169900Y-75722685D01*
X140132320Y-75533757D01*
X140058604Y-75355790D01*
X139951585Y-75195625D01*
X139815375Y-75059415D01*
X139655210Y-74952396D01*
X139477243Y-74878680D01*
X139288315Y-74841100D01*
X139095685Y-74841100D01*
X138906757Y-74878680D01*
X138728790Y-74952396D01*
X138568625Y-75059415D01*
X138432415Y-75195625D01*
X138325396Y-75355790D01*
X138251680Y-75533757D01*
X138242320Y-75580814D01*
X138080243Y-75513680D01*
X137891315Y-75476100D01*
X137698685Y-75476100D01*
X137509757Y-75513680D01*
X137331790Y-75587396D01*
X137171625Y-75694415D01*
X137035415Y-75830625D01*
X136928396Y-75990790D01*
X136854680Y-76168757D01*
X136817100Y-76357685D01*
X136817100Y-76550315D01*
X136854680Y-76739243D01*
X136928396Y-76917210D01*
X137035415Y-77077375D01*
X137171625Y-77213585D01*
X137331790Y-77320604D01*
X137509757Y-77394320D01*
X137556814Y-77403680D01*
X137489680Y-77565757D01*
X137452100Y-77754685D01*
X137452100Y-77947315D01*
X137489680Y-78136243D01*
X137563396Y-78314210D01*
X137670415Y-78474375D01*
X137757850Y-78561810D01*
X137704858Y-78572351D01*
X137526891Y-78646067D01*
X137366726Y-78753086D01*
X137230516Y-78889296D01*
X137123497Y-79049461D01*
X137085443Y-79141333D01*
X137014760Y-79127273D01*
X136822130Y-79127273D01*
X136633202Y-79164853D01*
X136455235Y-79238569D01*
X136295070Y-79345588D01*
X136158860Y-79481798D01*
X136051841Y-79641963D01*
X135978125Y-79819930D01*
X135940545Y-80008858D01*
X135940545Y-80201488D01*
X135978125Y-80390416D01*
X136051841Y-80568383D01*
X136158860Y-80728548D01*
X136295070Y-80864758D01*
X136455235Y-80971777D01*
X136633202Y-81045493D01*
X136822130Y-81083073D01*
X136890558Y-81083073D01*
X138928982Y-83121499D01*
X137975287Y-83121499D01*
X135673950Y-80820163D01*
X135673950Y-80751735D01*
X135636370Y-80562807D01*
X135562654Y-80384840D01*
X135455635Y-80224675D01*
X135319425Y-80088465D01*
X135159260Y-79981446D01*
X134981293Y-79907730D01*
X134792365Y-79870150D01*
X134599735Y-79870150D01*
X134410807Y-79907730D01*
X134232840Y-79981446D01*
X134072675Y-80088465D01*
X133936465Y-80224675D01*
X133829446Y-80384840D01*
X133755730Y-80562807D01*
X133718150Y-80751735D01*
X133718150Y-80944365D01*
X133755730Y-81133293D01*
X133829446Y-81311260D01*
X133936465Y-81471425D01*
X134072675Y-81607635D01*
X134232840Y-81714654D01*
X134410807Y-81788370D01*
X134599735Y-81825950D01*
X134668163Y-81825950D01*
X137153101Y-84310889D01*
X137175372Y-84338026D01*
X137283666Y-84426901D01*
X137407218Y-84492941D01*
X137541279Y-84533608D01*
X137645763Y-84543899D01*
X137645772Y-84543899D01*
X137680698Y-84547339D01*
X137715624Y-84543899D01*
X139357100Y-84543899D01*
X139357100Y-84551315D01*
X139394680Y-84740243D01*
X139468396Y-84918210D01*
X139575415Y-85078375D01*
X139711625Y-85214585D01*
X139791267Y-85267800D01*
X138212760Y-85267800D01*
X138164375Y-85219415D01*
X138004210Y-85112396D01*
X137826243Y-85038680D01*
X137637315Y-85001100D01*
X137444685Y-85001100D01*
X137255757Y-85038680D01*
X137077790Y-85112396D01*
X136917625Y-85219415D01*
X136781415Y-85355625D01*
X136674396Y-85515790D01*
X136600680Y-85693757D01*
X136563100Y-85882685D01*
X136563100Y-86075315D01*
X136600680Y-86264243D01*
X136674396Y-86442210D01*
X136781415Y-86602375D01*
X136917625Y-86738585D01*
X137077790Y-86845604D01*
X137255757Y-86919320D01*
X137444685Y-86956900D01*
X137637315Y-86956900D01*
X137826243Y-86919320D01*
X138004210Y-86845604D01*
X138164375Y-86738585D01*
X138212760Y-86690200D01*
X140801412Y-86690200D01*
X140639289Y-86798527D01*
X140492465Y-86945351D01*
X140377107Y-87117997D01*
X140297647Y-87309830D01*
X140257138Y-87513480D01*
X140257138Y-87721120D01*
X140297647Y-87924770D01*
X140377107Y-88116603D01*
X140492465Y-88289249D01*
X140639289Y-88436073D01*
X140811935Y-88551431D01*
X141003768Y-88630891D01*
X141207418Y-88671400D01*
X141415058Y-88671400D01*
X141618708Y-88630891D01*
X141810541Y-88551431D01*
X141983187Y-88436073D01*
X142130011Y-88289249D01*
X142245369Y-88116603D01*
X142324829Y-87924770D01*
X142365338Y-87721120D01*
X142365338Y-87513480D01*
X142324829Y-87309830D01*
X142245369Y-87117997D01*
X142130011Y-86945351D01*
X141983187Y-86798527D01*
X141821064Y-86690200D01*
X143723413Y-86690200D01*
X144830801Y-87797590D01*
X144830801Y-93228843D01*
X144828601Y-93227667D01*
X144804776Y-93220440D01*
X144780000Y-93218000D01*
X144357532Y-93218000D01*
X144420458Y-93175954D01*
X144567282Y-93029130D01*
X144682640Y-92856484D01*
X144762100Y-92664651D01*
X144802609Y-92461001D01*
X144802609Y-92253361D01*
X144762100Y-92049711D01*
X144682640Y-91857878D01*
X144567282Y-91685232D01*
X144420458Y-91538408D01*
X144247812Y-91423050D01*
X144055979Y-91343590D01*
X143852329Y-91303081D01*
X143644689Y-91303081D01*
X143441039Y-91343590D01*
X143249206Y-91423050D01*
X143076560Y-91538408D01*
X142929736Y-91685232D01*
X142814378Y-91857878D01*
X142734918Y-92049711D01*
X142694409Y-92253361D01*
X142694409Y-92461001D01*
X142734918Y-92664651D01*
X142814378Y-92856484D01*
X142929736Y-93029130D01*
X143076560Y-93175954D01*
X143139486Y-93218000D01*
X140550900Y-93218000D01*
X140550900Y-93121685D01*
X140513320Y-92932757D01*
X140439604Y-92754790D01*
X140332585Y-92594625D01*
X140196375Y-92458415D01*
X140036210Y-92351396D01*
X139858243Y-92277680D01*
X139669315Y-92240100D01*
X139476685Y-92240100D01*
X139287757Y-92277680D01*
X139109790Y-92351396D01*
X138949625Y-92458415D01*
X138813415Y-92594625D01*
X138706396Y-92754790D01*
X138632680Y-92932757D01*
X138595100Y-93121685D01*
X138595100Y-93218000D01*
X137996676Y-93218000D01*
X137919585Y-93102625D01*
X137783375Y-92966415D01*
X137623210Y-92859396D01*
X137445243Y-92785680D01*
X137256315Y-92748100D01*
X137063685Y-92748100D01*
X136874757Y-92785680D01*
X136696790Y-92859396D01*
X136536625Y-92966415D01*
X136400415Y-93102625D01*
X136323324Y-93218000D01*
X132754320Y-93218000D01*
X132760131Y-93209303D01*
X132839591Y-93017470D01*
X132880100Y-92813820D01*
X132880100Y-92606180D01*
X132839591Y-92402530D01*
X132760131Y-92210697D01*
X132644773Y-92038051D01*
X132497949Y-91891227D01*
X132325303Y-91775869D01*
X132133470Y-91696409D01*
X131929820Y-91655900D01*
X131722180Y-91655900D01*
X131518530Y-91696409D01*
X131326697Y-91775869D01*
X131154051Y-91891227D01*
X131007227Y-92038051D01*
X130891869Y-92210697D01*
X130812409Y-92402530D01*
X130771900Y-92606180D01*
X130771900Y-92813820D01*
X130812409Y-93017470D01*
X130891869Y-93209303D01*
X130897680Y-93218000D01*
X129540000Y-93218000D01*
X129515224Y-93220440D01*
X129491399Y-93227667D01*
X129469443Y-93239403D01*
X129450197Y-93255197D01*
X128815197Y-93890197D01*
X128799403Y-93909443D01*
X128787667Y-93931399D01*
X128780440Y-93955224D01*
X128778000Y-93980000D01*
X128778000Y-99642394D01*
X128217394Y-100203000D01*
X125651187Y-100203000D01*
X125808495Y-100011318D01*
X125930138Y-99783741D01*
X126005045Y-99536805D01*
X126030338Y-99280000D01*
X126005045Y-99023195D01*
X125930138Y-98776259D01*
X125808495Y-98548682D01*
X125644792Y-98349208D01*
X125560461Y-98280000D01*
X125644792Y-98210792D01*
X125808495Y-98011318D01*
X125930138Y-97783741D01*
X126005045Y-97536805D01*
X126030338Y-97280000D01*
X126005045Y-97023195D01*
X125930138Y-96776259D01*
X125808495Y-96548682D01*
X125644792Y-96349208D01*
X125560461Y-96280000D01*
X125644792Y-96210792D01*
X125808495Y-96011318D01*
X125930138Y-95783741D01*
X126005045Y-95536805D01*
X126030338Y-95280000D01*
X126005045Y-95023195D01*
X125930138Y-94776259D01*
X125808495Y-94548682D01*
X125644792Y-94349208D01*
X125560461Y-94280000D01*
X125644792Y-94210792D01*
X125808495Y-94011318D01*
X125930138Y-93783741D01*
X126005045Y-93536805D01*
X126030338Y-93280000D01*
X126005045Y-93023195D01*
X125930138Y-92776259D01*
X125808495Y-92548682D01*
X125644792Y-92349208D01*
X125560461Y-92280000D01*
X125644792Y-92210792D01*
X125808495Y-92011318D01*
X125930138Y-91783741D01*
X126005045Y-91536805D01*
X126009963Y-91486870D01*
X134200900Y-91486870D01*
X134200900Y-91694510D01*
X134241409Y-91898160D01*
X134320869Y-92089993D01*
X134436227Y-92262639D01*
X134583051Y-92409463D01*
X134755697Y-92524821D01*
X134947530Y-92604281D01*
X135151180Y-92644790D01*
X135358820Y-92644790D01*
X135562470Y-92604281D01*
X135754303Y-92524821D01*
X135926949Y-92409463D01*
X136073773Y-92262639D01*
X136122325Y-92189975D01*
X136155625Y-92223275D01*
X136315790Y-92330294D01*
X136493757Y-92404010D01*
X136682685Y-92441590D01*
X136875315Y-92441590D01*
X137064243Y-92404010D01*
X137242210Y-92330294D01*
X137402375Y-92223275D01*
X137538585Y-92087065D01*
X137645604Y-91926900D01*
X137719320Y-91748933D01*
X137756900Y-91560005D01*
X137756900Y-91367375D01*
X137719320Y-91178447D01*
X137645604Y-91000480D01*
X137538585Y-90840315D01*
X137515115Y-90816845D01*
X137538585Y-90793375D01*
X137645604Y-90633210D01*
X137719320Y-90455243D01*
X137756900Y-90266315D01*
X137756900Y-90073685D01*
X137719320Y-89884757D01*
X137645604Y-89706790D01*
X137538585Y-89546625D01*
X137402375Y-89410415D01*
X137242210Y-89303396D01*
X137065714Y-89230289D01*
X137191243Y-89205320D01*
X137369210Y-89131604D01*
X137529375Y-89024585D01*
X137665585Y-88888375D01*
X137772604Y-88728210D01*
X137846320Y-88550243D01*
X137883900Y-88361315D01*
X137883900Y-88168685D01*
X137846320Y-87979757D01*
X137772604Y-87801790D01*
X137665585Y-87641625D01*
X137529375Y-87505415D01*
X137369210Y-87398396D01*
X137191243Y-87324680D01*
X137002315Y-87287100D01*
X136809685Y-87287100D01*
X136620757Y-87324680D01*
X136442790Y-87398396D01*
X136282625Y-87505415D01*
X136146415Y-87641625D01*
X136039396Y-87801790D01*
X135965680Y-87979757D01*
X135928100Y-88168685D01*
X135928100Y-88361315D01*
X135965680Y-88550243D01*
X136039396Y-88728210D01*
X136146415Y-88888375D01*
X136282625Y-89024585D01*
X136442790Y-89131604D01*
X136619286Y-89204711D01*
X136493757Y-89229680D01*
X136315790Y-89303396D01*
X136155625Y-89410415D01*
X136019415Y-89546625D01*
X135912396Y-89706790D01*
X135838680Y-89884757D01*
X135801100Y-90073685D01*
X135801100Y-90266315D01*
X135838680Y-90455243D01*
X135912396Y-90633210D01*
X136019415Y-90793375D01*
X136042885Y-90816845D01*
X136019415Y-90840315D01*
X136009775Y-90854743D01*
X135926949Y-90771917D01*
X135754303Y-90656559D01*
X135562470Y-90577099D01*
X135358820Y-90536590D01*
X135151180Y-90536590D01*
X134947530Y-90577099D01*
X134755697Y-90656559D01*
X134583051Y-90771917D01*
X134436227Y-90918741D01*
X134320869Y-91091387D01*
X134241409Y-91283220D01*
X134200900Y-91486870D01*
X126009963Y-91486870D01*
X126030338Y-91280000D01*
X126005045Y-91023195D01*
X125930138Y-90776259D01*
X125808495Y-90548682D01*
X125644792Y-90349208D01*
X125560461Y-90280000D01*
X125644792Y-90210792D01*
X125808495Y-90011318D01*
X125930138Y-89783741D01*
X126005045Y-89536805D01*
X126030338Y-89280000D01*
X126005045Y-89023195D01*
X125930138Y-88776259D01*
X125808495Y-88548682D01*
X125644792Y-88349208D01*
X125560461Y-88280000D01*
X125644792Y-88210792D01*
X125808495Y-88011318D01*
X125834672Y-87962345D01*
X125859415Y-87999375D01*
X125995625Y-88135585D01*
X126155790Y-88242604D01*
X126333757Y-88316320D01*
X126522685Y-88353900D01*
X126715315Y-88353900D01*
X126904243Y-88316320D01*
X127082210Y-88242604D01*
X127242375Y-88135585D01*
X127378585Y-87999375D01*
X127485604Y-87839210D01*
X127559320Y-87661243D01*
X127596900Y-87472315D01*
X127596900Y-87279685D01*
X127559320Y-87090757D01*
X127485604Y-86912790D01*
X127378585Y-86752625D01*
X127242375Y-86616415D01*
X127082210Y-86509396D01*
X126904243Y-86435680D01*
X126715315Y-86398100D01*
X126522685Y-86398100D01*
X126333757Y-86435680D01*
X126155790Y-86509396D01*
X125995625Y-86616415D01*
X125897271Y-86714769D01*
X125808495Y-86548682D01*
X125644792Y-86349208D01*
X125560461Y-86280000D01*
X125644792Y-86210792D01*
X125705609Y-86136685D01*
X131102100Y-86136685D01*
X131102100Y-86329315D01*
X131139680Y-86518243D01*
X131213396Y-86696210D01*
X131320415Y-86856375D01*
X131456625Y-86992585D01*
X131616790Y-87099604D01*
X131794757Y-87173320D01*
X131983685Y-87210900D01*
X132176315Y-87210900D01*
X132365243Y-87173320D01*
X132543210Y-87099604D01*
X132703375Y-86992585D01*
X132839585Y-86856375D01*
X132946604Y-86696210D01*
X133020320Y-86518243D01*
X133057900Y-86329315D01*
X133057900Y-86136685D01*
X133020320Y-85947757D01*
X132990258Y-85875180D01*
X133438900Y-85875180D01*
X133438900Y-86082820D01*
X133479409Y-86286470D01*
X133558869Y-86478303D01*
X133674227Y-86650949D01*
X133821051Y-86797773D01*
X133993697Y-86913131D01*
X134185530Y-86992591D01*
X134389180Y-87033100D01*
X134596820Y-87033100D01*
X134800470Y-86992591D01*
X134992303Y-86913131D01*
X135164949Y-86797773D01*
X135311773Y-86650949D01*
X135427131Y-86478303D01*
X135506591Y-86286470D01*
X135547100Y-86082820D01*
X135547100Y-85875180D01*
X135506591Y-85671530D01*
X135427131Y-85479697D01*
X135311773Y-85307051D01*
X135164949Y-85160227D01*
X134992303Y-85044869D01*
X134800470Y-84965409D01*
X134596820Y-84924900D01*
X134389180Y-84924900D01*
X134185530Y-84965409D01*
X133993697Y-85044869D01*
X133821051Y-85160227D01*
X133674227Y-85307051D01*
X133558869Y-85479697D01*
X133479409Y-85671530D01*
X133438900Y-85875180D01*
X132990258Y-85875180D01*
X132946604Y-85769790D01*
X132839585Y-85609625D01*
X132703375Y-85473415D01*
X132543210Y-85366396D01*
X132365243Y-85292680D01*
X132176315Y-85255100D01*
X131983685Y-85255100D01*
X131794757Y-85292680D01*
X131616790Y-85366396D01*
X131456625Y-85473415D01*
X131320415Y-85609625D01*
X131213396Y-85769790D01*
X131139680Y-85947757D01*
X131102100Y-86136685D01*
X125705609Y-86136685D01*
X125808495Y-86011318D01*
X125930138Y-85783741D01*
X126005045Y-85536805D01*
X126030338Y-85280000D01*
X126005045Y-85023195D01*
X125930138Y-84776259D01*
X125808495Y-84548682D01*
X125644792Y-84349208D01*
X125560461Y-84280000D01*
X125644792Y-84210792D01*
X125808495Y-84011318D01*
X125930138Y-83783741D01*
X126005045Y-83536805D01*
X126030338Y-83280000D01*
X126011496Y-83088685D01*
X131483100Y-83088685D01*
X131483100Y-83281315D01*
X131520680Y-83470243D01*
X131594396Y-83648210D01*
X131701415Y-83808375D01*
X131837625Y-83944585D01*
X131997790Y-84051604D01*
X132175757Y-84125320D01*
X132364685Y-84162900D01*
X132557315Y-84162900D01*
X132746243Y-84125320D01*
X132924210Y-84051604D01*
X133084375Y-83944585D01*
X133220585Y-83808375D01*
X133327604Y-83648210D01*
X133401320Y-83470243D01*
X133438900Y-83281315D01*
X133438900Y-83088685D01*
X133401320Y-82899757D01*
X133327604Y-82721790D01*
X133220585Y-82561625D01*
X133084375Y-82425415D01*
X132924210Y-82318396D01*
X132746243Y-82244680D01*
X132557315Y-82207100D01*
X132364685Y-82207100D01*
X132175757Y-82244680D01*
X131997790Y-82318396D01*
X131837625Y-82425415D01*
X131701415Y-82561625D01*
X131594396Y-82721790D01*
X131520680Y-82899757D01*
X131483100Y-83088685D01*
X126011496Y-83088685D01*
X126005045Y-83023195D01*
X125930138Y-82776259D01*
X125808495Y-82548682D01*
X125751369Y-82479074D01*
X125840185Y-82406185D01*
X125919537Y-82309494D01*
X125978502Y-82199180D01*
X126014812Y-82079482D01*
X126027072Y-81955000D01*
X126026902Y-81933484D01*
X126155790Y-82019604D01*
X126333757Y-82093320D01*
X126522685Y-82130900D01*
X126715315Y-82130900D01*
X126904243Y-82093320D01*
X127082210Y-82019604D01*
X127242375Y-81912585D01*
X127378585Y-81776375D01*
X127485604Y-81616210D01*
X127559320Y-81438243D01*
X127596900Y-81249315D01*
X127596900Y-81056685D01*
X127559320Y-80867757D01*
X127485604Y-80689790D01*
X127378585Y-80529625D01*
X127242375Y-80393415D01*
X127082210Y-80286396D01*
X126904243Y-80212680D01*
X126715315Y-80175100D01*
X126522685Y-80175100D01*
X126333757Y-80212680D01*
X126155790Y-80286396D01*
X125995625Y-80393415D01*
X125990074Y-80398966D01*
X125978502Y-80360820D01*
X125919537Y-80250506D01*
X125840185Y-80153815D01*
X125743494Y-80074463D01*
X125633180Y-80015498D01*
X125513482Y-79979188D01*
X125389000Y-79966928D01*
X124999750Y-79970000D01*
X124841000Y-80128750D01*
X124841000Y-81153000D01*
X124861000Y-81153000D01*
X124861000Y-81407000D01*
X124841000Y-81407000D01*
X124841000Y-81427000D01*
X124587000Y-81427000D01*
X124587000Y-81407000D01*
X123562750Y-81407000D01*
X123404000Y-81565750D01*
X123400928Y-81955000D01*
X123413188Y-82079482D01*
X123449498Y-82199180D01*
X123508463Y-82309494D01*
X123587815Y-82406185D01*
X123676631Y-82479074D01*
X123619505Y-82548682D01*
X123497862Y-82776259D01*
X123422955Y-83023195D01*
X123397662Y-83280000D01*
X123422955Y-83536805D01*
X123497862Y-83783741D01*
X123619505Y-84011318D01*
X123783208Y-84210792D01*
X123867539Y-84280000D01*
X123783208Y-84349208D01*
X123619505Y-84548682D01*
X123497862Y-84776259D01*
X123422955Y-85023195D01*
X123397662Y-85280000D01*
X123422955Y-85536805D01*
X123497862Y-85783741D01*
X123619505Y-86011318D01*
X123783208Y-86210792D01*
X123867539Y-86280000D01*
X123783208Y-86349208D01*
X123619505Y-86548682D01*
X123497862Y-86776259D01*
X123422955Y-87023195D01*
X123397662Y-87280000D01*
X123422955Y-87536805D01*
X123497862Y-87783741D01*
X123619505Y-88011318D01*
X123783208Y-88210792D01*
X123867539Y-88280000D01*
X123783208Y-88349208D01*
X123619505Y-88548682D01*
X123497862Y-88776259D01*
X123422955Y-89023195D01*
X123397662Y-89280000D01*
X123422955Y-89536805D01*
X123497862Y-89783741D01*
X123619505Y-90011318D01*
X123783208Y-90210792D01*
X123867539Y-90280000D01*
X123783208Y-90349208D01*
X123619505Y-90548682D01*
X123497862Y-90776259D01*
X123422955Y-91023195D01*
X123397662Y-91280000D01*
X123422955Y-91536805D01*
X123497862Y-91783741D01*
X123619505Y-92011318D01*
X123783208Y-92210792D01*
X123867539Y-92280000D01*
X123783208Y-92349208D01*
X123619505Y-92548682D01*
X123497862Y-92776259D01*
X123422955Y-93023195D01*
X123397662Y-93280000D01*
X123422955Y-93536805D01*
X123497862Y-93783741D01*
X123619505Y-94011318D01*
X123783208Y-94210792D01*
X123867539Y-94280000D01*
X123783208Y-94349208D01*
X123619505Y-94548682D01*
X123497862Y-94776259D01*
X123422955Y-95023195D01*
X123397662Y-95280000D01*
X123422955Y-95536805D01*
X123497862Y-95783741D01*
X123619505Y-96011318D01*
X123783208Y-96210792D01*
X123867539Y-96280000D01*
X123783208Y-96349208D01*
X123619505Y-96548682D01*
X123497862Y-96776259D01*
X123422955Y-97023195D01*
X123397662Y-97280000D01*
X123422955Y-97536805D01*
X123497862Y-97783741D01*
X123619505Y-98011318D01*
X123783208Y-98210792D01*
X123867539Y-98280000D01*
X123783208Y-98349208D01*
X123619505Y-98548682D01*
X123497862Y-98776259D01*
X123422955Y-99023195D01*
X123397662Y-99280000D01*
X123422955Y-99536805D01*
X123497862Y-99783741D01*
X123543237Y-99868631D01*
X122009803Y-98335197D01*
X121990557Y-98319403D01*
X121968601Y-98307667D01*
X121944776Y-98300440D01*
X121920000Y-98298000D01*
X114352606Y-98298000D01*
X113792000Y-97737394D01*
X113792000Y-88732680D01*
X115150900Y-88732680D01*
X115150900Y-88940320D01*
X115191409Y-89143970D01*
X115270869Y-89335803D01*
X115386227Y-89508449D01*
X115533051Y-89655273D01*
X115705697Y-89770631D01*
X115897530Y-89850091D01*
X116101180Y-89890600D01*
X116308820Y-89890600D01*
X116512470Y-89850091D01*
X116704303Y-89770631D01*
X116876949Y-89655273D01*
X117023773Y-89508449D01*
X117139131Y-89335803D01*
X117218591Y-89143970D01*
X117259100Y-88940320D01*
X117259100Y-88732680D01*
X117218591Y-88529030D01*
X117139131Y-88337197D01*
X117023773Y-88164551D01*
X116876949Y-88017727D01*
X116704303Y-87902369D01*
X116512470Y-87822909D01*
X116308820Y-87782400D01*
X116101180Y-87782400D01*
X115897530Y-87822909D01*
X115705697Y-87902369D01*
X115533051Y-88017727D01*
X115386227Y-88164551D01*
X115270869Y-88337197D01*
X115191409Y-88529030D01*
X115150900Y-88732680D01*
X113792000Y-88732680D01*
X113792000Y-80605000D01*
X123400928Y-80605000D01*
X123404000Y-80994250D01*
X123562750Y-81153000D01*
X124587000Y-81153000D01*
X124587000Y-80128750D01*
X124428250Y-79970000D01*
X124039000Y-79966928D01*
X123914518Y-79979188D01*
X123794820Y-80015498D01*
X123684506Y-80074463D01*
X123587815Y-80153815D01*
X123508463Y-80250506D01*
X123449498Y-80360820D01*
X123413188Y-80480518D01*
X123400928Y-80605000D01*
X113792000Y-80605000D01*
X113792000Y-79913685D01*
X127800100Y-79913685D01*
X127800100Y-80106315D01*
X127837680Y-80295243D01*
X127911396Y-80473210D01*
X128018415Y-80633375D01*
X128154625Y-80769585D01*
X128314790Y-80876604D01*
X128492757Y-80950320D01*
X128681685Y-80987900D01*
X128874315Y-80987900D01*
X129063243Y-80950320D01*
X129241210Y-80876604D01*
X129401375Y-80769585D01*
X129537585Y-80633375D01*
X129644604Y-80473210D01*
X129718320Y-80295243D01*
X129755900Y-80106315D01*
X129755900Y-79913685D01*
X129718320Y-79724757D01*
X129644604Y-79546790D01*
X129537585Y-79386625D01*
X129401375Y-79250415D01*
X129241210Y-79143396D01*
X129063243Y-79069680D01*
X128874315Y-79032100D01*
X128681685Y-79032100D01*
X128492757Y-79069680D01*
X128314790Y-79143396D01*
X128154625Y-79250415D01*
X128018415Y-79386625D01*
X127911396Y-79546790D01*
X127837680Y-79724757D01*
X127800100Y-79913685D01*
X113792000Y-79913685D01*
X113792000Y-76459773D01*
X114204091Y-76871864D01*
X114881343Y-77324389D01*
X115633865Y-77636094D01*
X116432738Y-77795000D01*
X117247262Y-77795000D01*
X118046135Y-77636094D01*
X118426494Y-77478544D01*
X133283241Y-77478544D01*
X133283241Y-77671174D01*
X133320821Y-77860102D01*
X133394537Y-78038069D01*
X133501556Y-78198234D01*
X133637766Y-78334444D01*
X133797931Y-78441463D01*
X133963401Y-78510003D01*
X133933680Y-78581757D01*
X133896100Y-78770685D01*
X133896100Y-78963315D01*
X133933680Y-79152243D01*
X134007396Y-79330210D01*
X134114415Y-79490375D01*
X134250625Y-79626585D01*
X134410790Y-79733604D01*
X134588757Y-79807320D01*
X134777685Y-79844900D01*
X134970315Y-79844900D01*
X135159243Y-79807320D01*
X135337210Y-79733604D01*
X135497375Y-79626585D01*
X135633585Y-79490375D01*
X135740604Y-79330210D01*
X135814320Y-79152243D01*
X135851900Y-78963315D01*
X135851900Y-78770685D01*
X135814320Y-78581757D01*
X135740604Y-78403790D01*
X135633585Y-78243625D01*
X135497375Y-78107415D01*
X135337210Y-78000396D01*
X135171740Y-77931856D01*
X135201461Y-77860102D01*
X135239041Y-77671174D01*
X135239041Y-77478544D01*
X135201461Y-77289616D01*
X135127745Y-77111649D01*
X135020726Y-76951484D01*
X134884516Y-76815274D01*
X134724351Y-76708255D01*
X134546384Y-76634539D01*
X134357456Y-76596959D01*
X134164826Y-76596959D01*
X133975898Y-76634539D01*
X133797931Y-76708255D01*
X133637766Y-76815274D01*
X133501556Y-76951484D01*
X133394537Y-77111649D01*
X133320821Y-77289616D01*
X133283241Y-77478544D01*
X118426494Y-77478544D01*
X118798657Y-77324389D01*
X119475909Y-76871864D01*
X120051864Y-76295909D01*
X120504389Y-75618657D01*
X120816094Y-74866135D01*
X120974120Y-74071685D01*
X142151100Y-74071685D01*
X142151100Y-74264315D01*
X142188680Y-74453243D01*
X142262396Y-74631210D01*
X142369415Y-74791375D01*
X142505625Y-74927585D01*
X142665790Y-75034604D01*
X142843757Y-75108320D01*
X143032685Y-75145900D01*
X143225315Y-75145900D01*
X143414243Y-75108320D01*
X143592210Y-75034604D01*
X143752375Y-74927585D01*
X143888585Y-74791375D01*
X143995604Y-74631210D01*
X144069320Y-74453243D01*
X144106900Y-74264315D01*
X144106900Y-74071685D01*
X144069320Y-73882757D01*
X143995604Y-73704790D01*
X143888585Y-73544625D01*
X143752375Y-73408415D01*
X143592210Y-73301396D01*
X143414243Y-73227680D01*
X143225315Y-73190100D01*
X143032685Y-73190100D01*
X142843757Y-73227680D01*
X142665790Y-73301396D01*
X142505625Y-73408415D01*
X142369415Y-73544625D01*
X142262396Y-73704790D01*
X142188680Y-73882757D01*
X142151100Y-74071685D01*
X120974120Y-74071685D01*
X120975000Y-74067262D01*
X120975000Y-73252738D01*
X120816094Y-72453865D01*
X120504389Y-71701343D01*
X120391028Y-71531685D01*
X125641100Y-71531685D01*
X125641100Y-71724315D01*
X125678680Y-71913243D01*
X125752396Y-72091210D01*
X125859415Y-72251375D01*
X125995625Y-72387585D01*
X126155790Y-72494604D01*
X126333757Y-72568320D01*
X126522685Y-72605900D01*
X126715315Y-72605900D01*
X126904243Y-72568320D01*
X127082210Y-72494604D01*
X127190500Y-72422247D01*
X127298790Y-72494604D01*
X127476757Y-72568320D01*
X127665685Y-72605900D01*
X127858315Y-72605900D01*
X128047243Y-72568320D01*
X128225210Y-72494604D01*
X128385375Y-72387585D01*
X128521585Y-72251375D01*
X128628604Y-72091210D01*
X128702320Y-71913243D01*
X128739900Y-71724315D01*
X128739900Y-71531685D01*
X128702320Y-71342757D01*
X128628604Y-71164790D01*
X128521585Y-71004625D01*
X128385375Y-70868415D01*
X128225210Y-70761396D01*
X128047243Y-70687680D01*
X127858315Y-70650100D01*
X127665685Y-70650100D01*
X127476757Y-70687680D01*
X127298790Y-70761396D01*
X127190500Y-70833753D01*
X127082210Y-70761396D01*
X126904243Y-70687680D01*
X126715315Y-70650100D01*
X126522685Y-70650100D01*
X126333757Y-70687680D01*
X126155790Y-70761396D01*
X125995625Y-70868415D01*
X125859415Y-71004625D01*
X125752396Y-71164790D01*
X125678680Y-71342757D01*
X125641100Y-71531685D01*
X120391028Y-71531685D01*
X120101279Y-71098046D01*
X120695335Y-70612000D01*
X134083859Y-70612000D01*
X134029790Y-70634396D01*
X134029790Y-70634396D01*
G37*
X134029790Y-70634396D02*
X133869625Y-70741415D01*
X133733415Y-70877625D01*
X133626396Y-71037790D01*
X133552680Y-71215757D01*
X133515100Y-71404685D01*
X133515100Y-71597315D01*
X133552680Y-71786243D01*
X133626396Y-71964210D01*
X133733415Y-72124375D01*
X133869625Y-72260585D01*
X134029790Y-72367604D01*
X134207757Y-72441320D01*
X134396685Y-72478900D01*
X134589315Y-72478900D01*
X134778243Y-72441320D01*
X134956210Y-72367604D01*
X135064500Y-72295247D01*
X135172790Y-72367604D01*
X135350757Y-72441320D01*
X135539685Y-72478900D01*
X135732315Y-72478900D01*
X135921243Y-72441320D01*
X136099210Y-72367604D01*
X136259375Y-72260585D01*
X136395585Y-72124375D01*
X136502604Y-71964210D01*
X136576320Y-71786243D01*
X136613900Y-71597315D01*
X136613900Y-71404685D01*
X136576320Y-71215757D01*
X136502604Y-71037790D01*
X136395585Y-70877625D01*
X136259375Y-70741415D01*
X136099210Y-70634396D01*
X136045141Y-70612000D01*
X142719859Y-70612000D01*
X142665790Y-70634396D01*
X142505625Y-70741415D01*
X142369415Y-70877625D01*
X142262396Y-71037790D01*
X142188680Y-71215757D01*
X142151100Y-71404685D01*
X142151100Y-71597315D01*
X142188680Y-71786243D01*
X142262396Y-71964210D01*
X142369415Y-72124375D01*
X142505625Y-72260585D01*
X142665790Y-72367604D01*
X142843757Y-72441320D01*
X143032685Y-72478900D01*
X143225315Y-72478900D01*
X143414243Y-72441320D01*
X143592210Y-72367604D01*
X143752375Y-72260585D01*
X143888585Y-72124375D01*
X143995604Y-71964210D01*
X144069320Y-71786243D01*
X144106900Y-71597315D01*
X144106900Y-71404685D01*
X144069320Y-71215757D01*
X143995604Y-71037790D01*
X143888585Y-70877625D01*
X143752375Y-70741415D01*
X143592210Y-70634396D01*
X143538141Y-70612000D01*
X149450859Y-70612000D01*
X149396790Y-70634396D01*
X149236625Y-70741415D01*
X149100415Y-70877625D01*
X148993396Y-71037790D01*
X148919680Y-71215757D01*
X148882100Y-71404685D01*
X148882100Y-71597315D01*
X148919680Y-71786243D01*
X148993396Y-71964210D01*
X149100415Y-72124375D01*
X149236625Y-72260585D01*
X149396790Y-72367604D01*
X149574757Y-72441320D01*
X149763685Y-72478900D01*
X149956315Y-72478900D01*
X150145243Y-72441320D01*
X150323210Y-72367604D01*
X150483375Y-72260585D01*
X150619585Y-72124375D01*
X150726604Y-71964210D01*
X150800320Y-71786243D01*
X150837900Y-71597315D01*
X150837900Y-71404685D01*
X150800320Y-71215757D01*
X150726604Y-71037790D01*
X150619585Y-70877625D01*
X150483375Y-70741415D01*
X150323210Y-70634396D01*
X150269141Y-70612000D01*
X153050239Y-70612000D01*
X153046625Y-70614415D01*
X152910415Y-70750625D01*
X152803396Y-70910790D01*
X152729680Y-71088757D01*
X152692100Y-71277685D01*
X152692100Y-71470315D01*
X152729680Y-71659243D01*
X152803396Y-71837210D01*
X152910415Y-71997375D01*
X153046625Y-72133585D01*
X153206790Y-72240604D01*
X153384757Y-72314320D01*
X153573685Y-72351900D01*
X153766315Y-72351900D01*
X153955243Y-72314320D01*
X154133210Y-72240604D01*
X154263226Y-72153730D01*
X154138906Y-72453865D01*
X153980000Y-73252738D01*
X153980000Y-74067262D01*
X154138906Y-74866135D01*
X154450611Y-75618657D01*
X154903136Y-76295909D01*
X155479091Y-76871864D01*
X156156343Y-77324389D01*
X156908865Y-77636094D01*
X157707738Y-77795000D01*
X158522262Y-77795000D01*
X159321135Y-77636094D01*
X160073657Y-77324389D01*
X160750909Y-76871864D01*
X161163000Y-76459773D01*
X161163000Y-83697478D01*
X161162825Y-83696901D01*
X161037641Y-83434080D01*
X160863588Y-83200731D01*
X160647355Y-83005822D01*
X160397252Y-82856843D01*
X160122891Y-82759519D01*
X159893000Y-82880186D01*
X159893000Y-84074000D01*
X159913000Y-84074000D01*
X159913000Y-84328000D01*
X159893000Y-84328000D01*
X159893000Y-86614000D01*
X159913000Y-86614000D01*
X159913000Y-86868000D01*
X159893000Y-86868000D01*
X159893000Y-86888000D01*
X159639000Y-86888000D01*
X159639000Y-86868000D01*
X157353000Y-86868000D01*
X157353000Y-86888000D01*
X157099000Y-86888000D01*
X157099000Y-86868000D01*
X155905845Y-86868000D01*
X155784524Y-87097890D01*
X155829175Y-87245099D01*
X155954359Y-87507920D01*
X156128412Y-87741269D01*
X156344645Y-87936178D01*
X156461523Y-88005799D01*
X156396986Y-88040294D01*
X156170866Y-88225866D01*
X155985294Y-88451986D01*
X155847401Y-88709966D01*
X155762487Y-88989889D01*
X155733815Y-89281000D01*
X155762487Y-89572111D01*
X155847401Y-89852034D01*
X155985294Y-90110014D01*
X156170866Y-90336134D01*
X156396986Y-90521706D01*
X156451791Y-90551000D01*
X156396986Y-90580294D01*
X156170866Y-90765866D01*
X155985294Y-90991986D01*
X155847401Y-91249966D01*
X155762487Y-91529889D01*
X155733815Y-91821000D01*
X155762487Y-92112111D01*
X155847401Y-92392034D01*
X155985294Y-92650014D01*
X156170866Y-92876134D01*
X156396986Y-93061706D01*
X156451791Y-93091000D01*
X156396986Y-93120294D01*
X156170866Y-93305866D01*
X155985294Y-93531986D01*
X155847401Y-93789966D01*
X155762487Y-94069889D01*
X155733815Y-94361000D01*
X155762487Y-94652111D01*
X155847401Y-94932034D01*
X155985294Y-95190014D01*
X156170866Y-95416134D01*
X156396986Y-95601706D01*
X156451791Y-95631000D01*
X156396986Y-95660294D01*
X156170866Y-95845866D01*
X155985294Y-96071986D01*
X155847401Y-96329966D01*
X155762487Y-96609889D01*
X155733815Y-96901000D01*
X155762487Y-97192111D01*
X155847401Y-97472034D01*
X155985294Y-97730014D01*
X156170866Y-97956134D01*
X156396986Y-98141706D01*
X156451791Y-98171000D01*
X156396986Y-98200294D01*
X156170866Y-98385866D01*
X155985294Y-98611986D01*
X155847401Y-98869966D01*
X155762487Y-99149889D01*
X155761232Y-99162631D01*
X155750391Y-99108130D01*
X155670931Y-98916297D01*
X155555573Y-98743651D01*
X155408749Y-98596827D01*
X155236103Y-98481469D01*
X155044270Y-98402009D01*
X154840620Y-98361500D01*
X154632980Y-98361500D01*
X154429330Y-98402009D01*
X154237497Y-98481469D01*
X154064851Y-98596827D01*
X153918027Y-98743651D01*
X153802669Y-98916297D01*
X153723209Y-99108130D01*
X153682700Y-99311780D01*
X153682700Y-99519420D01*
X153723209Y-99723070D01*
X153802669Y-99914903D01*
X153918027Y-100087549D01*
X154064851Y-100234373D01*
X154237497Y-100349731D01*
X154429330Y-100429191D01*
X154632980Y-100469700D01*
X154840620Y-100469700D01*
X155044270Y-100429191D01*
X155236103Y-100349731D01*
X155408749Y-100234373D01*
X155555573Y-100087549D01*
X155670931Y-99914903D01*
X155750391Y-99723070D01*
X155757886Y-99685392D01*
X155762487Y-99732111D01*
X155847401Y-100012034D01*
X155985294Y-100270014D01*
X156170866Y-100496134D01*
X156396986Y-100681706D01*
X156654966Y-100819599D01*
X156934889Y-100904513D01*
X157153050Y-100926000D01*
X157298950Y-100926000D01*
X157517111Y-100904513D01*
X157797034Y-100819599D01*
X158055014Y-100681706D01*
X158281134Y-100496134D01*
X158466706Y-100270014D01*
X158496000Y-100215209D01*
X158525294Y-100270014D01*
X158710866Y-100496134D01*
X158936986Y-100681706D01*
X159194966Y-100819599D01*
X159474889Y-100904513D01*
X159693050Y-100926000D01*
X159838950Y-100926000D01*
X160057111Y-100904513D01*
X160337034Y-100819599D01*
X160595014Y-100681706D01*
X160821134Y-100496134D01*
X161006706Y-100270014D01*
X161144599Y-100012034D01*
X161163000Y-99951374D01*
X161163000Y-100912394D01*
X159967394Y-102108000D01*
X153087606Y-102108000D01*
X151854803Y-100875197D01*
X151835557Y-100859403D01*
X151813601Y-100847667D01*
X151789776Y-100840440D01*
X151765000Y-100838000D01*
X146050000Y-100838000D01*
X146025224Y-100840440D01*
X146001399Y-100847667D01*
X145979443Y-100859403D01*
X145960197Y-100875197D01*
X145362394Y-101473000D01*
X136577606Y-101473000D01*
X135382000Y-100277394D01*
X135382000Y-99725685D01*
X139484100Y-99725685D01*
X139484100Y-99918315D01*
X139521680Y-100107243D01*
X139595396Y-100285210D01*
X139702415Y-100445375D01*
X139838625Y-100581585D01*
X139998790Y-100688604D01*
X140176757Y-100762320D01*
X140365685Y-100799900D01*
X140558315Y-100799900D01*
X140747243Y-100762320D01*
X140925210Y-100688604D01*
X141085375Y-100581585D01*
X141221585Y-100445375D01*
X141328604Y-100285210D01*
X141402320Y-100107243D01*
X141439900Y-99918315D01*
X141439900Y-99725685D01*
X141402320Y-99536757D01*
X141328604Y-99358790D01*
X141314165Y-99337180D01*
X142455900Y-99337180D01*
X142455900Y-99544820D01*
X142496409Y-99748470D01*
X142575869Y-99940303D01*
X142691227Y-100112949D01*
X142838051Y-100259773D01*
X143010697Y-100375131D01*
X143202530Y-100454591D01*
X143406180Y-100495100D01*
X143613820Y-100495100D01*
X143817470Y-100454591D01*
X144009303Y-100375131D01*
X144181949Y-100259773D01*
X144328773Y-100112949D01*
X144444131Y-99940303D01*
X144523591Y-99748470D01*
X144564100Y-99544820D01*
X144564100Y-99337180D01*
X144523591Y-99133530D01*
X144444131Y-98941697D01*
X144328773Y-98769051D01*
X144181949Y-98622227D01*
X144009303Y-98506869D01*
X143817470Y-98427409D01*
X143613820Y-98386900D01*
X143406180Y-98386900D01*
X143202530Y-98427409D01*
X143010697Y-98506869D01*
X142838051Y-98622227D01*
X142691227Y-98769051D01*
X142575869Y-98941697D01*
X142496409Y-99133530D01*
X142455900Y-99337180D01*
X141314165Y-99337180D01*
X141221585Y-99198625D01*
X141085375Y-99062415D01*
X140925210Y-98955396D01*
X140747243Y-98881680D01*
X140558315Y-98844100D01*
X140365685Y-98844100D01*
X140176757Y-98881680D01*
X139998790Y-98955396D01*
X139838625Y-99062415D01*
X139702415Y-99198625D01*
X139595396Y-99358790D01*
X139521680Y-99536757D01*
X139484100Y-99725685D01*
X135382000Y-99725685D01*
X135382000Y-97842606D01*
X135942606Y-97282000D01*
X136696204Y-97282000D01*
X136727680Y-97440243D01*
X136801396Y-97618210D01*
X136908415Y-97778375D01*
X137044625Y-97914585D01*
X137204790Y-98021604D01*
X137382757Y-98095320D01*
X137571685Y-98132900D01*
X137764315Y-98132900D01*
X137953243Y-98095320D01*
X138131210Y-98021604D01*
X138291375Y-97914585D01*
X138427585Y-97778375D01*
X138534604Y-97618210D01*
X138608320Y-97440243D01*
X138639796Y-97282000D01*
X140917394Y-97282000D01*
X141515197Y-97879803D01*
X141534443Y-97895597D01*
X141556399Y-97907333D01*
X141580224Y-97914560D01*
X141605000Y-97917000D01*
X142762040Y-97917000D01*
X142886625Y-98041585D01*
X143046790Y-98148604D01*
X143224757Y-98222320D01*
X143413685Y-98259900D01*
X143606315Y-98259900D01*
X143795243Y-98222320D01*
X143973210Y-98148604D01*
X144133375Y-98041585D01*
X144257960Y-97917000D01*
X144780000Y-97917000D01*
X144804776Y-97914560D01*
X144828601Y-97907333D01*
X144830800Y-97906158D01*
X144830800Y-98912674D01*
X144827360Y-98947600D01*
X144830800Y-98982526D01*
X144830800Y-98982535D01*
X144841091Y-99087019D01*
X144881758Y-99221080D01*
X144947798Y-99344632D01*
X145036673Y-99452926D01*
X145063811Y-99475198D01*
X145355398Y-99766785D01*
X145377673Y-99793927D01*
X145397328Y-99810058D01*
X145397328Y-99963600D01*
X145409588Y-100088082D01*
X145445898Y-100207780D01*
X145504863Y-100318094D01*
X145584215Y-100414785D01*
X145680906Y-100494137D01*
X145791220Y-100553102D01*
X145910918Y-100589412D01*
X146035400Y-100601672D01*
X147385400Y-100601672D01*
X147509882Y-100589412D01*
X147629580Y-100553102D01*
X147739894Y-100494137D01*
X147836585Y-100414785D01*
X147915937Y-100318094D01*
X147974902Y-100207780D01*
X148011212Y-100088082D01*
X148023472Y-99963600D01*
X148023472Y-98613600D01*
X148011212Y-98489118D01*
X147974902Y-98369420D01*
X147915937Y-98259106D01*
X147836585Y-98162415D01*
X147747769Y-98089526D01*
X147804895Y-98019918D01*
X147926538Y-97792341D01*
X148001445Y-97545405D01*
X148026738Y-97288600D01*
X148001445Y-97031795D01*
X147926538Y-96784859D01*
X147804895Y-96557282D01*
X147641192Y-96357808D01*
X147556861Y-96288600D01*
X147641192Y-96219392D01*
X147804895Y-96019918D01*
X147926538Y-95792341D01*
X148001445Y-95545405D01*
X148026738Y-95288600D01*
X148001445Y-95031795D01*
X147926538Y-94784859D01*
X147804895Y-94557282D01*
X147641192Y-94357808D01*
X147556861Y-94288600D01*
X147641192Y-94219392D01*
X147804895Y-94019918D01*
X147926538Y-93792341D01*
X148001445Y-93545405D01*
X148026738Y-93288600D01*
X148001445Y-93031795D01*
X147926538Y-92784859D01*
X147804895Y-92557282D01*
X147641192Y-92357808D01*
X147556861Y-92288600D01*
X147641192Y-92219392D01*
X147804895Y-92019918D01*
X147926538Y-91792341D01*
X148001445Y-91545405D01*
X148026738Y-91288600D01*
X148001445Y-91031795D01*
X147926538Y-90784859D01*
X147817939Y-90581685D01*
X151803100Y-90581685D01*
X151803100Y-90774315D01*
X151840680Y-90963243D01*
X151914396Y-91141210D01*
X152021415Y-91301375D01*
X152157625Y-91437585D01*
X152317790Y-91544604D01*
X152495757Y-91618320D01*
X152684685Y-91655900D01*
X152877315Y-91655900D01*
X153066243Y-91618320D01*
X153244210Y-91544604D01*
X153404375Y-91437585D01*
X153540585Y-91301375D01*
X153647604Y-91141210D01*
X153721320Y-90963243D01*
X153758900Y-90774315D01*
X153758900Y-90581685D01*
X153721320Y-90392757D01*
X153647604Y-90214790D01*
X153540585Y-90054625D01*
X153404375Y-89918415D01*
X153244210Y-89811396D01*
X153066243Y-89737680D01*
X152877315Y-89700100D01*
X152684685Y-89700100D01*
X152495757Y-89737680D01*
X152317790Y-89811396D01*
X152157625Y-89918415D01*
X152021415Y-90054625D01*
X151914396Y-90214790D01*
X151840680Y-90392757D01*
X151803100Y-90581685D01*
X147817939Y-90581685D01*
X147804895Y-90557282D01*
X147641192Y-90357808D01*
X147556861Y-90288600D01*
X147641192Y-90219392D01*
X147804895Y-90019918D01*
X147926538Y-89792341D01*
X148001445Y-89545405D01*
X148026738Y-89288600D01*
X148001445Y-89031795D01*
X147926538Y-88784859D01*
X147804895Y-88557282D01*
X147641192Y-88357808D01*
X147556861Y-88288600D01*
X147641192Y-88219392D01*
X147787031Y-88041685D01*
X151803100Y-88041685D01*
X151803100Y-88234315D01*
X151840680Y-88423243D01*
X151914396Y-88601210D01*
X152021415Y-88761375D01*
X152157625Y-88897585D01*
X152317790Y-89004604D01*
X152495757Y-89078320D01*
X152684685Y-89115900D01*
X152877315Y-89115900D01*
X153066243Y-89078320D01*
X153244210Y-89004604D01*
X153404375Y-88897585D01*
X153540585Y-88761375D01*
X153647604Y-88601210D01*
X153721320Y-88423243D01*
X153758900Y-88234315D01*
X153758900Y-88041685D01*
X153721320Y-87852757D01*
X153647604Y-87674790D01*
X153540585Y-87514625D01*
X153404375Y-87378415D01*
X153244210Y-87271396D01*
X153066243Y-87197680D01*
X152877315Y-87160100D01*
X152684685Y-87160100D01*
X152495757Y-87197680D01*
X152317790Y-87271396D01*
X152157625Y-87378415D01*
X152021415Y-87514625D01*
X151914396Y-87674790D01*
X151840680Y-87852757D01*
X151803100Y-88041685D01*
X147787031Y-88041685D01*
X147804895Y-88019918D01*
X147926538Y-87792341D01*
X148001445Y-87545405D01*
X148026738Y-87288600D01*
X148001445Y-87031795D01*
X147926538Y-86784859D01*
X147804895Y-86557282D01*
X147641192Y-86357808D01*
X147556861Y-86288600D01*
X147641192Y-86219392D01*
X147804895Y-86019918D01*
X147926538Y-85792341D01*
X148001445Y-85545405D01*
X148026738Y-85288600D01*
X148001445Y-85031795D01*
X147926538Y-84784859D01*
X147804895Y-84557282D01*
X147641192Y-84357808D01*
X147556861Y-84288600D01*
X147641192Y-84219392D01*
X147804895Y-84019918D01*
X147926538Y-83792341D01*
X148001445Y-83545405D01*
X148026738Y-83288600D01*
X148001445Y-83031795D01*
X147941653Y-82834685D01*
X151803100Y-82834685D01*
X151803100Y-83027315D01*
X151840680Y-83216243D01*
X151914396Y-83394210D01*
X152021415Y-83554375D01*
X152157625Y-83690585D01*
X152317790Y-83797604D01*
X152495757Y-83871320D01*
X152684685Y-83908900D01*
X152877315Y-83908900D01*
X153066243Y-83871320D01*
X153244210Y-83797604D01*
X153404375Y-83690585D01*
X153540585Y-83554375D01*
X153647604Y-83394210D01*
X153665502Y-83351000D01*
X155737928Y-83351000D01*
X155737928Y-85051000D01*
X155750188Y-85175482D01*
X155786498Y-85295180D01*
X155845463Y-85405494D01*
X155924815Y-85502185D01*
X156021506Y-85581537D01*
X156131820Y-85640502D01*
X156212466Y-85664966D01*
X156128412Y-85740731D01*
X155954359Y-85974080D01*
X155829175Y-86236901D01*
X155784524Y-86384110D01*
X155905845Y-86614000D01*
X157099000Y-86614000D01*
X157099000Y-86594000D01*
X157353000Y-86594000D01*
X157353000Y-86614000D01*
X159639000Y-86614000D01*
X159639000Y-84328000D01*
X159619000Y-84328000D01*
X159619000Y-84074000D01*
X159639000Y-84074000D01*
X159639000Y-82880186D01*
X159409109Y-82759519D01*
X159134748Y-82856843D01*
X158884645Y-83005822D01*
X158688498Y-83182626D01*
X158665502Y-83106820D01*
X158606537Y-82996506D01*
X158527185Y-82899815D01*
X158430494Y-82820463D01*
X158320180Y-82761498D01*
X158200482Y-82725188D01*
X158076000Y-82712928D01*
X156376000Y-82712928D01*
X156251518Y-82725188D01*
X156131820Y-82761498D01*
X156021506Y-82820463D01*
X155924815Y-82899815D01*
X155845463Y-82996506D01*
X155786498Y-83106820D01*
X155750188Y-83226518D01*
X155737928Y-83351000D01*
X153665502Y-83351000D01*
X153721320Y-83216243D01*
X153758900Y-83027315D01*
X153758900Y-82834685D01*
X153721320Y-82645757D01*
X153647604Y-82467790D01*
X153540585Y-82307625D01*
X153404375Y-82171415D01*
X153244210Y-82064396D01*
X153066243Y-81990680D01*
X152877315Y-81953100D01*
X152684685Y-81953100D01*
X152495757Y-81990680D01*
X152317790Y-82064396D01*
X152157625Y-82171415D01*
X152021415Y-82307625D01*
X151914396Y-82467790D01*
X151840680Y-82645757D01*
X151803100Y-82834685D01*
X147941653Y-82834685D01*
X147926538Y-82784859D01*
X147804895Y-82557282D01*
X147641192Y-82357808D01*
X147556861Y-82288600D01*
X147641192Y-82219392D01*
X147804895Y-82019918D01*
X147926538Y-81792341D01*
X148001445Y-81545405D01*
X148026738Y-81288600D01*
X148001445Y-81031795D01*
X147926538Y-80784859D01*
X147804895Y-80557282D01*
X147641192Y-80357808D01*
X147441718Y-80194105D01*
X147285362Y-80110531D01*
X147297604Y-80092210D01*
X147371320Y-79914243D01*
X147408900Y-79725315D01*
X147408900Y-79652180D01*
X156933900Y-79652180D01*
X156933900Y-79859820D01*
X156974409Y-80063470D01*
X157053869Y-80255303D01*
X157169227Y-80427949D01*
X157316051Y-80574773D01*
X157488697Y-80690131D01*
X157680530Y-80769591D01*
X157884180Y-80810100D01*
X158091820Y-80810100D01*
X158295470Y-80769591D01*
X158487303Y-80690131D01*
X158659949Y-80574773D01*
X158806773Y-80427949D01*
X158922131Y-80255303D01*
X159001591Y-80063470D01*
X159042100Y-79859820D01*
X159042100Y-79652180D01*
X159001591Y-79448530D01*
X158922131Y-79256697D01*
X158806773Y-79084051D01*
X158659949Y-78937227D01*
X158487303Y-78821869D01*
X158295470Y-78742409D01*
X158091820Y-78701900D01*
X157884180Y-78701900D01*
X157680530Y-78742409D01*
X157488697Y-78821869D01*
X157316051Y-78937227D01*
X157169227Y-79084051D01*
X157053869Y-79256697D01*
X156974409Y-79448530D01*
X156933900Y-79652180D01*
X147408900Y-79652180D01*
X147408900Y-79532685D01*
X147371320Y-79343757D01*
X147297604Y-79165790D01*
X147190585Y-79005625D01*
X147054375Y-78869415D01*
X146894210Y-78762396D01*
X146840141Y-78740000D01*
X146894210Y-78717604D01*
X147054375Y-78610585D01*
X147190585Y-78474375D01*
X147297604Y-78314210D01*
X147371320Y-78136243D01*
X147408900Y-77947315D01*
X147408900Y-77754685D01*
X147371320Y-77565757D01*
X147297604Y-77387790D01*
X147190585Y-77227625D01*
X147054375Y-77091415D01*
X146894210Y-76984396D01*
X146716243Y-76910680D01*
X146527315Y-76873100D01*
X146334685Y-76873100D01*
X146145757Y-76910680D01*
X145967790Y-76984396D01*
X145807625Y-77091415D01*
X145671415Y-77227625D01*
X145564396Y-77387790D01*
X145490680Y-77565757D01*
X145453100Y-77754685D01*
X145453100Y-77947315D01*
X145490680Y-78136243D01*
X145564396Y-78314210D01*
X145671415Y-78474375D01*
X145807625Y-78610585D01*
X145967790Y-78717604D01*
X146021859Y-78740000D01*
X145967790Y-78762396D01*
X145807625Y-78869415D01*
X145671415Y-79005625D01*
X145564396Y-79165790D01*
X145490680Y-79343757D01*
X145453100Y-79532685D01*
X145453100Y-79725315D01*
X145490680Y-79914243D01*
X145564396Y-80092210D01*
X145671415Y-80252375D01*
X145778364Y-80359324D01*
X145615905Y-80557282D01*
X145494262Y-80784859D01*
X145419355Y-81031795D01*
X145394062Y-81288600D01*
X145419355Y-81545405D01*
X145494262Y-81792341D01*
X145615905Y-82019918D01*
X145779608Y-82219392D01*
X145863939Y-82288600D01*
X145779608Y-82357808D01*
X145615905Y-82557282D01*
X145605152Y-82577400D01*
X143157039Y-82577400D01*
X143167100Y-82526820D01*
X143167100Y-82319180D01*
X143126591Y-82115530D01*
X143047131Y-81923697D01*
X142931773Y-81751051D01*
X142784949Y-81604227D01*
X142612303Y-81488869D01*
X142420470Y-81409409D01*
X142216820Y-81368900D01*
X142009180Y-81368900D01*
X141805530Y-81409409D01*
X141613697Y-81488869D01*
X141441051Y-81604227D01*
X141294227Y-81751051D01*
X141178869Y-81923697D01*
X141099409Y-82115530D01*
X141058900Y-82319180D01*
X141058900Y-82526820D01*
X141068961Y-82577400D01*
X140396461Y-82577400D01*
X139842560Y-82023500D01*
X139958948Y-81945732D01*
X140095158Y-81809522D01*
X140202177Y-81649357D01*
X140275893Y-81471390D01*
X140313473Y-81282462D01*
X140313473Y-81089832D01*
X140275893Y-80900904D01*
X140202177Y-80722937D01*
X140095158Y-80562772D01*
X140067595Y-80535209D01*
X140163210Y-80495604D01*
X140323375Y-80388585D01*
X140459585Y-80252375D01*
X140566604Y-80092210D01*
X140640320Y-79914243D01*
X140677900Y-79725315D01*
X140677900Y-79532685D01*
X140640320Y-79343757D01*
X140566604Y-79165790D01*
X140459585Y-79005625D01*
X140323375Y-78869415D01*
X140163210Y-78762396D01*
X139985243Y-78688680D01*
X139796315Y-78651100D01*
X139603685Y-78651100D01*
X139414757Y-78688680D01*
X139236790Y-78762396D01*
X139076625Y-78869415D01*
X138940415Y-79005625D01*
X138877530Y-79099738D01*
X138856705Y-79049461D01*
X138749686Y-78889296D01*
X138662251Y-78801861D01*
X138715243Y-78791320D01*
X138893210Y-78717604D01*
X139053375Y-78610585D01*
X139189585Y-78474375D01*
X139296604Y-78314210D01*
X139370320Y-78136243D01*
X139407900Y-77947315D01*
X139407900Y-77754685D01*
X139370320Y-77565757D01*
X139296604Y-77387790D01*
X139189585Y-77227625D01*
X139053375Y-77091415D01*
X138893210Y-76984396D01*
X138715243Y-76910680D01*
X138668186Y-76901320D01*
X138735320Y-76739243D01*
X138744680Y-76692186D01*
X138906757Y-76759320D01*
X139095685Y-76796900D01*
X139288315Y-76796900D01*
X139477243Y-76759320D01*
X139655210Y-76685604D01*
X139815375Y-76578585D01*
X139951585Y-76442375D01*
X140058604Y-76282210D01*
X140132320Y-76104243D01*
X140169900Y-75915315D01*
X140169900Y-75722685D01*
X140132320Y-75533757D01*
X140058604Y-75355790D01*
X139951585Y-75195625D01*
X139815375Y-75059415D01*
X139655210Y-74952396D01*
X139477243Y-74878680D01*
X139288315Y-74841100D01*
X139095685Y-74841100D01*
X138906757Y-74878680D01*
X138728790Y-74952396D01*
X138568625Y-75059415D01*
X138432415Y-75195625D01*
X138325396Y-75355790D01*
X138251680Y-75533757D01*
X138242320Y-75580814D01*
X138080243Y-75513680D01*
X137891315Y-75476100D01*
X137698685Y-75476100D01*
X137509757Y-75513680D01*
X137331790Y-75587396D01*
X137171625Y-75694415D01*
X137035415Y-75830625D01*
X136928396Y-75990790D01*
X136854680Y-76168757D01*
X136817100Y-76357685D01*
X136817100Y-76550315D01*
X136854680Y-76739243D01*
X136928396Y-76917210D01*
X137035415Y-77077375D01*
X137171625Y-77213585D01*
X137331790Y-77320604D01*
X137509757Y-77394320D01*
X137556814Y-77403680D01*
X137489680Y-77565757D01*
X137452100Y-77754685D01*
X137452100Y-77947315D01*
X137489680Y-78136243D01*
X137563396Y-78314210D01*
X137670415Y-78474375D01*
X137757850Y-78561810D01*
X137704858Y-78572351D01*
X137526891Y-78646067D01*
X137366726Y-78753086D01*
X137230516Y-78889296D01*
X137123497Y-79049461D01*
X137085443Y-79141333D01*
X137014760Y-79127273D01*
X136822130Y-79127273D01*
X136633202Y-79164853D01*
X136455235Y-79238569D01*
X136295070Y-79345588D01*
X136158860Y-79481798D01*
X136051841Y-79641963D01*
X135978125Y-79819930D01*
X135940545Y-80008858D01*
X135940545Y-80201488D01*
X135978125Y-80390416D01*
X136051841Y-80568383D01*
X136158860Y-80728548D01*
X136295070Y-80864758D01*
X136455235Y-80971777D01*
X136633202Y-81045493D01*
X136822130Y-81083073D01*
X136890558Y-81083073D01*
X138928982Y-83121499D01*
X137975287Y-83121499D01*
X135673950Y-80820163D01*
X135673950Y-80751735D01*
X135636370Y-80562807D01*
X135562654Y-80384840D01*
X135455635Y-80224675D01*
X135319425Y-80088465D01*
X135159260Y-79981446D01*
X134981293Y-79907730D01*
X134792365Y-79870150D01*
X134599735Y-79870150D01*
X134410807Y-79907730D01*
X134232840Y-79981446D01*
X134072675Y-80088465D01*
X133936465Y-80224675D01*
X133829446Y-80384840D01*
X133755730Y-80562807D01*
X133718150Y-80751735D01*
X133718150Y-80944365D01*
X133755730Y-81133293D01*
X133829446Y-81311260D01*
X133936465Y-81471425D01*
X134072675Y-81607635D01*
X134232840Y-81714654D01*
X134410807Y-81788370D01*
X134599735Y-81825950D01*
X134668163Y-81825950D01*
X137153101Y-84310889D01*
X137175372Y-84338026D01*
X137283666Y-84426901D01*
X137407218Y-84492941D01*
X137541279Y-84533608D01*
X137645763Y-84543899D01*
X137645772Y-84543899D01*
X137680698Y-84547339D01*
X137715624Y-84543899D01*
X139357100Y-84543899D01*
X139357100Y-84551315D01*
X139394680Y-84740243D01*
X139468396Y-84918210D01*
X139575415Y-85078375D01*
X139711625Y-85214585D01*
X139791267Y-85267800D01*
X138212760Y-85267800D01*
X138164375Y-85219415D01*
X138004210Y-85112396D01*
X137826243Y-85038680D01*
X137637315Y-85001100D01*
X137444685Y-85001100D01*
X137255757Y-85038680D01*
X137077790Y-85112396D01*
X136917625Y-85219415D01*
X136781415Y-85355625D01*
X136674396Y-85515790D01*
X136600680Y-85693757D01*
X136563100Y-85882685D01*
X136563100Y-86075315D01*
X136600680Y-86264243D01*
X136674396Y-86442210D01*
X136781415Y-86602375D01*
X136917625Y-86738585D01*
X137077790Y-86845604D01*
X137255757Y-86919320D01*
X137444685Y-86956900D01*
X137637315Y-86956900D01*
X137826243Y-86919320D01*
X138004210Y-86845604D01*
X138164375Y-86738585D01*
X138212760Y-86690200D01*
X140801412Y-86690200D01*
X140639289Y-86798527D01*
X140492465Y-86945351D01*
X140377107Y-87117997D01*
X140297647Y-87309830D01*
X140257138Y-87513480D01*
X140257138Y-87721120D01*
X140297647Y-87924770D01*
X140377107Y-88116603D01*
X140492465Y-88289249D01*
X140639289Y-88436073D01*
X140811935Y-88551431D01*
X141003768Y-88630891D01*
X141207418Y-88671400D01*
X141415058Y-88671400D01*
X141618708Y-88630891D01*
X141810541Y-88551431D01*
X141983187Y-88436073D01*
X142130011Y-88289249D01*
X142245369Y-88116603D01*
X142324829Y-87924770D01*
X142365338Y-87721120D01*
X142365338Y-87513480D01*
X142324829Y-87309830D01*
X142245369Y-87117997D01*
X142130011Y-86945351D01*
X141983187Y-86798527D01*
X141821064Y-86690200D01*
X143723413Y-86690200D01*
X144830801Y-87797590D01*
X144830801Y-93228843D01*
X144828601Y-93227667D01*
X144804776Y-93220440D01*
X144780000Y-93218000D01*
X144357532Y-93218000D01*
X144420458Y-93175954D01*
X144567282Y-93029130D01*
X144682640Y-92856484D01*
X144762100Y-92664651D01*
X144802609Y-92461001D01*
X144802609Y-92253361D01*
X144762100Y-92049711D01*
X144682640Y-91857878D01*
X144567282Y-91685232D01*
X144420458Y-91538408D01*
X144247812Y-91423050D01*
X144055979Y-91343590D01*
X143852329Y-91303081D01*
X143644689Y-91303081D01*
X143441039Y-91343590D01*
X143249206Y-91423050D01*
X143076560Y-91538408D01*
X142929736Y-91685232D01*
X142814378Y-91857878D01*
X142734918Y-92049711D01*
X142694409Y-92253361D01*
X142694409Y-92461001D01*
X142734918Y-92664651D01*
X142814378Y-92856484D01*
X142929736Y-93029130D01*
X143076560Y-93175954D01*
X143139486Y-93218000D01*
X140550900Y-93218000D01*
X140550900Y-93121685D01*
X140513320Y-92932757D01*
X140439604Y-92754790D01*
X140332585Y-92594625D01*
X140196375Y-92458415D01*
X140036210Y-92351396D01*
X139858243Y-92277680D01*
X139669315Y-92240100D01*
X139476685Y-92240100D01*
X139287757Y-92277680D01*
X139109790Y-92351396D01*
X138949625Y-92458415D01*
X138813415Y-92594625D01*
X138706396Y-92754790D01*
X138632680Y-92932757D01*
X138595100Y-93121685D01*
X138595100Y-93218000D01*
X137996676Y-93218000D01*
X137919585Y-93102625D01*
X137783375Y-92966415D01*
X137623210Y-92859396D01*
X137445243Y-92785680D01*
X137256315Y-92748100D01*
X137063685Y-92748100D01*
X136874757Y-92785680D01*
X136696790Y-92859396D01*
X136536625Y-92966415D01*
X136400415Y-93102625D01*
X136323324Y-93218000D01*
X132754320Y-93218000D01*
X132760131Y-93209303D01*
X132839591Y-93017470D01*
X132880100Y-92813820D01*
X132880100Y-92606180D01*
X132839591Y-92402530D01*
X132760131Y-92210697D01*
X132644773Y-92038051D01*
X132497949Y-91891227D01*
X132325303Y-91775869D01*
X132133470Y-91696409D01*
X131929820Y-91655900D01*
X131722180Y-91655900D01*
X131518530Y-91696409D01*
X131326697Y-91775869D01*
X131154051Y-91891227D01*
X131007227Y-92038051D01*
X130891869Y-92210697D01*
X130812409Y-92402530D01*
X130771900Y-92606180D01*
X130771900Y-92813820D01*
X130812409Y-93017470D01*
X130891869Y-93209303D01*
X130897680Y-93218000D01*
X129540000Y-93218000D01*
X129515224Y-93220440D01*
X129491399Y-93227667D01*
X129469443Y-93239403D01*
X129450197Y-93255197D01*
X128815197Y-93890197D01*
X128799403Y-93909443D01*
X128787667Y-93931399D01*
X128780440Y-93955224D01*
X128778000Y-93980000D01*
X128778000Y-99642394D01*
X128217394Y-100203000D01*
X125651187Y-100203000D01*
X125808495Y-100011318D01*
X125930138Y-99783741D01*
X126005045Y-99536805D01*
X126030338Y-99280000D01*
X126005045Y-99023195D01*
X125930138Y-98776259D01*
X125808495Y-98548682D01*
X125644792Y-98349208D01*
X125560461Y-98280000D01*
X125644792Y-98210792D01*
X125808495Y-98011318D01*
X125930138Y-97783741D01*
X126005045Y-97536805D01*
X126030338Y-97280000D01*
X126005045Y-97023195D01*
X125930138Y-96776259D01*
X125808495Y-96548682D01*
X125644792Y-96349208D01*
X125560461Y-96280000D01*
X125644792Y-96210792D01*
X125808495Y-96011318D01*
X125930138Y-95783741D01*
X126005045Y-95536805D01*
X126030338Y-95280000D01*
X126005045Y-95023195D01*
X125930138Y-94776259D01*
X125808495Y-94548682D01*
X125644792Y-94349208D01*
X125560461Y-94280000D01*
X125644792Y-94210792D01*
X125808495Y-94011318D01*
X125930138Y-93783741D01*
X126005045Y-93536805D01*
X126030338Y-93280000D01*
X126005045Y-93023195D01*
X125930138Y-92776259D01*
X125808495Y-92548682D01*
X125644792Y-92349208D01*
X125560461Y-92280000D01*
X125644792Y-92210792D01*
X125808495Y-92011318D01*
X125930138Y-91783741D01*
X126005045Y-91536805D01*
X126009963Y-91486870D01*
X134200900Y-91486870D01*
X134200900Y-91694510D01*
X134241409Y-91898160D01*
X134320869Y-92089993D01*
X134436227Y-92262639D01*
X134583051Y-92409463D01*
X134755697Y-92524821D01*
X134947530Y-92604281D01*
X135151180Y-92644790D01*
X135358820Y-92644790D01*
X135562470Y-92604281D01*
X135754303Y-92524821D01*
X135926949Y-92409463D01*
X136073773Y-92262639D01*
X136122325Y-92189975D01*
X136155625Y-92223275D01*
X136315790Y-92330294D01*
X136493757Y-92404010D01*
X136682685Y-92441590D01*
X136875315Y-92441590D01*
X137064243Y-92404010D01*
X137242210Y-92330294D01*
X137402375Y-92223275D01*
X137538585Y-92087065D01*
X137645604Y-91926900D01*
X137719320Y-91748933D01*
X137756900Y-91560005D01*
X137756900Y-91367375D01*
X137719320Y-91178447D01*
X137645604Y-91000480D01*
X137538585Y-90840315D01*
X137515115Y-90816845D01*
X137538585Y-90793375D01*
X137645604Y-90633210D01*
X137719320Y-90455243D01*
X137756900Y-90266315D01*
X137756900Y-90073685D01*
X137719320Y-89884757D01*
X137645604Y-89706790D01*
X137538585Y-89546625D01*
X137402375Y-89410415D01*
X137242210Y-89303396D01*
X137065714Y-89230289D01*
X137191243Y-89205320D01*
X137369210Y-89131604D01*
X137529375Y-89024585D01*
X137665585Y-88888375D01*
X137772604Y-88728210D01*
X137846320Y-88550243D01*
X137883900Y-88361315D01*
X137883900Y-88168685D01*
X137846320Y-87979757D01*
X137772604Y-87801790D01*
X137665585Y-87641625D01*
X137529375Y-87505415D01*
X137369210Y-87398396D01*
X137191243Y-87324680D01*
X137002315Y-87287100D01*
X136809685Y-87287100D01*
X136620757Y-87324680D01*
X136442790Y-87398396D01*
X136282625Y-87505415D01*
X136146415Y-87641625D01*
X136039396Y-87801790D01*
X135965680Y-87979757D01*
X135928100Y-88168685D01*
X135928100Y-88361315D01*
X135965680Y-88550243D01*
X136039396Y-88728210D01*
X136146415Y-88888375D01*
X136282625Y-89024585D01*
X136442790Y-89131604D01*
X136619286Y-89204711D01*
X136493757Y-89229680D01*
X136315790Y-89303396D01*
X136155625Y-89410415D01*
X136019415Y-89546625D01*
X135912396Y-89706790D01*
X135838680Y-89884757D01*
X135801100Y-90073685D01*
X135801100Y-90266315D01*
X135838680Y-90455243D01*
X135912396Y-90633210D01*
X136019415Y-90793375D01*
X136042885Y-90816845D01*
X136019415Y-90840315D01*
X136009775Y-90854743D01*
X135926949Y-90771917D01*
X135754303Y-90656559D01*
X135562470Y-90577099D01*
X135358820Y-90536590D01*
X135151180Y-90536590D01*
X134947530Y-90577099D01*
X134755697Y-90656559D01*
X134583051Y-90771917D01*
X134436227Y-90918741D01*
X134320869Y-91091387D01*
X134241409Y-91283220D01*
X134200900Y-91486870D01*
X126009963Y-91486870D01*
X126030338Y-91280000D01*
X126005045Y-91023195D01*
X125930138Y-90776259D01*
X125808495Y-90548682D01*
X125644792Y-90349208D01*
X125560461Y-90280000D01*
X125644792Y-90210792D01*
X125808495Y-90011318D01*
X125930138Y-89783741D01*
X126005045Y-89536805D01*
X126030338Y-89280000D01*
X126005045Y-89023195D01*
X125930138Y-88776259D01*
X125808495Y-88548682D01*
X125644792Y-88349208D01*
X125560461Y-88280000D01*
X125644792Y-88210792D01*
X125808495Y-88011318D01*
X125834672Y-87962345D01*
X125859415Y-87999375D01*
X125995625Y-88135585D01*
X126155790Y-88242604D01*
X126333757Y-88316320D01*
X126522685Y-88353900D01*
X126715315Y-88353900D01*
X126904243Y-88316320D01*
X127082210Y-88242604D01*
X127242375Y-88135585D01*
X127378585Y-87999375D01*
X127485604Y-87839210D01*
X127559320Y-87661243D01*
X127596900Y-87472315D01*
X127596900Y-87279685D01*
X127559320Y-87090757D01*
X127485604Y-86912790D01*
X127378585Y-86752625D01*
X127242375Y-86616415D01*
X127082210Y-86509396D01*
X126904243Y-86435680D01*
X126715315Y-86398100D01*
X126522685Y-86398100D01*
X126333757Y-86435680D01*
X126155790Y-86509396D01*
X125995625Y-86616415D01*
X125897271Y-86714769D01*
X125808495Y-86548682D01*
X125644792Y-86349208D01*
X125560461Y-86280000D01*
X125644792Y-86210792D01*
X125705609Y-86136685D01*
X131102100Y-86136685D01*
X131102100Y-86329315D01*
X131139680Y-86518243D01*
X131213396Y-86696210D01*
X131320415Y-86856375D01*
X131456625Y-86992585D01*
X131616790Y-87099604D01*
X131794757Y-87173320D01*
X131983685Y-87210900D01*
X132176315Y-87210900D01*
X132365243Y-87173320D01*
X132543210Y-87099604D01*
X132703375Y-86992585D01*
X132839585Y-86856375D01*
X132946604Y-86696210D01*
X133020320Y-86518243D01*
X133057900Y-86329315D01*
X133057900Y-86136685D01*
X133020320Y-85947757D01*
X132990258Y-85875180D01*
X133438900Y-85875180D01*
X133438900Y-86082820D01*
X133479409Y-86286470D01*
X133558869Y-86478303D01*
X133674227Y-86650949D01*
X133821051Y-86797773D01*
X133993697Y-86913131D01*
X134185530Y-86992591D01*
X134389180Y-87033100D01*
X134596820Y-87033100D01*
X134800470Y-86992591D01*
X134992303Y-86913131D01*
X135164949Y-86797773D01*
X135311773Y-86650949D01*
X135427131Y-86478303D01*
X135506591Y-86286470D01*
X135547100Y-86082820D01*
X135547100Y-85875180D01*
X135506591Y-85671530D01*
X135427131Y-85479697D01*
X135311773Y-85307051D01*
X135164949Y-85160227D01*
X134992303Y-85044869D01*
X134800470Y-84965409D01*
X134596820Y-84924900D01*
X134389180Y-84924900D01*
X134185530Y-84965409D01*
X133993697Y-85044869D01*
X133821051Y-85160227D01*
X133674227Y-85307051D01*
X133558869Y-85479697D01*
X133479409Y-85671530D01*
X133438900Y-85875180D01*
X132990258Y-85875180D01*
X132946604Y-85769790D01*
X132839585Y-85609625D01*
X132703375Y-85473415D01*
X132543210Y-85366396D01*
X132365243Y-85292680D01*
X132176315Y-85255100D01*
X131983685Y-85255100D01*
X131794757Y-85292680D01*
X131616790Y-85366396D01*
X131456625Y-85473415D01*
X131320415Y-85609625D01*
X131213396Y-85769790D01*
X131139680Y-85947757D01*
X131102100Y-86136685D01*
X125705609Y-86136685D01*
X125808495Y-86011318D01*
X125930138Y-85783741D01*
X126005045Y-85536805D01*
X126030338Y-85280000D01*
X126005045Y-85023195D01*
X125930138Y-84776259D01*
X125808495Y-84548682D01*
X125644792Y-84349208D01*
X125560461Y-84280000D01*
X125644792Y-84210792D01*
X125808495Y-84011318D01*
X125930138Y-83783741D01*
X126005045Y-83536805D01*
X126030338Y-83280000D01*
X126011496Y-83088685D01*
X131483100Y-83088685D01*
X131483100Y-83281315D01*
X131520680Y-83470243D01*
X131594396Y-83648210D01*
X131701415Y-83808375D01*
X131837625Y-83944585D01*
X131997790Y-84051604D01*
X132175757Y-84125320D01*
X132364685Y-84162900D01*
X132557315Y-84162900D01*
X132746243Y-84125320D01*
X132924210Y-84051604D01*
X133084375Y-83944585D01*
X133220585Y-83808375D01*
X133327604Y-83648210D01*
X133401320Y-83470243D01*
X133438900Y-83281315D01*
X133438900Y-83088685D01*
X133401320Y-82899757D01*
X133327604Y-82721790D01*
X133220585Y-82561625D01*
X133084375Y-82425415D01*
X132924210Y-82318396D01*
X132746243Y-82244680D01*
X132557315Y-82207100D01*
X132364685Y-82207100D01*
X132175757Y-82244680D01*
X131997790Y-82318396D01*
X131837625Y-82425415D01*
X131701415Y-82561625D01*
X131594396Y-82721790D01*
X131520680Y-82899757D01*
X131483100Y-83088685D01*
X126011496Y-83088685D01*
X126005045Y-83023195D01*
X125930138Y-82776259D01*
X125808495Y-82548682D01*
X125751369Y-82479074D01*
X125840185Y-82406185D01*
X125919537Y-82309494D01*
X125978502Y-82199180D01*
X126014812Y-82079482D01*
X126027072Y-81955000D01*
X126026902Y-81933484D01*
X126155790Y-82019604D01*
X126333757Y-82093320D01*
X126522685Y-82130900D01*
X126715315Y-82130900D01*
X126904243Y-82093320D01*
X127082210Y-82019604D01*
X127242375Y-81912585D01*
X127378585Y-81776375D01*
X127485604Y-81616210D01*
X127559320Y-81438243D01*
X127596900Y-81249315D01*
X127596900Y-81056685D01*
X127559320Y-80867757D01*
X127485604Y-80689790D01*
X127378585Y-80529625D01*
X127242375Y-80393415D01*
X127082210Y-80286396D01*
X126904243Y-80212680D01*
X126715315Y-80175100D01*
X126522685Y-80175100D01*
X126333757Y-80212680D01*
X126155790Y-80286396D01*
X125995625Y-80393415D01*
X125990074Y-80398966D01*
X125978502Y-80360820D01*
X125919537Y-80250506D01*
X125840185Y-80153815D01*
X125743494Y-80074463D01*
X125633180Y-80015498D01*
X125513482Y-79979188D01*
X125389000Y-79966928D01*
X124999750Y-79970000D01*
X124841000Y-80128750D01*
X124841000Y-81153000D01*
X124861000Y-81153000D01*
X124861000Y-81407000D01*
X124841000Y-81407000D01*
X124841000Y-81427000D01*
X124587000Y-81427000D01*
X124587000Y-81407000D01*
X123562750Y-81407000D01*
X123404000Y-81565750D01*
X123400928Y-81955000D01*
X123413188Y-82079482D01*
X123449498Y-82199180D01*
X123508463Y-82309494D01*
X123587815Y-82406185D01*
X123676631Y-82479074D01*
X123619505Y-82548682D01*
X123497862Y-82776259D01*
X123422955Y-83023195D01*
X123397662Y-83280000D01*
X123422955Y-83536805D01*
X123497862Y-83783741D01*
X123619505Y-84011318D01*
X123783208Y-84210792D01*
X123867539Y-84280000D01*
X123783208Y-84349208D01*
X123619505Y-84548682D01*
X123497862Y-84776259D01*
X123422955Y-85023195D01*
X123397662Y-85280000D01*
X123422955Y-85536805D01*
X123497862Y-85783741D01*
X123619505Y-86011318D01*
X123783208Y-86210792D01*
X123867539Y-86280000D01*
X123783208Y-86349208D01*
X123619505Y-86548682D01*
X123497862Y-86776259D01*
X123422955Y-87023195D01*
X123397662Y-87280000D01*
X123422955Y-87536805D01*
X123497862Y-87783741D01*
X123619505Y-88011318D01*
X123783208Y-88210792D01*
X123867539Y-88280000D01*
X123783208Y-88349208D01*
X123619505Y-88548682D01*
X123497862Y-88776259D01*
X123422955Y-89023195D01*
X123397662Y-89280000D01*
X123422955Y-89536805D01*
X123497862Y-89783741D01*
X123619505Y-90011318D01*
X123783208Y-90210792D01*
X123867539Y-90280000D01*
X123783208Y-90349208D01*
X123619505Y-90548682D01*
X123497862Y-90776259D01*
X123422955Y-91023195D01*
X123397662Y-91280000D01*
X123422955Y-91536805D01*
X123497862Y-91783741D01*
X123619505Y-92011318D01*
X123783208Y-92210792D01*
X123867539Y-92280000D01*
X123783208Y-92349208D01*
X123619505Y-92548682D01*
X123497862Y-92776259D01*
X123422955Y-93023195D01*
X123397662Y-93280000D01*
X123422955Y-93536805D01*
X123497862Y-93783741D01*
X123619505Y-94011318D01*
X123783208Y-94210792D01*
X123867539Y-94280000D01*
X123783208Y-94349208D01*
X123619505Y-94548682D01*
X123497862Y-94776259D01*
X123422955Y-95023195D01*
X123397662Y-95280000D01*
X123422955Y-95536805D01*
X123497862Y-95783741D01*
X123619505Y-96011318D01*
X123783208Y-96210792D01*
X123867539Y-96280000D01*
X123783208Y-96349208D01*
X123619505Y-96548682D01*
X123497862Y-96776259D01*
X123422955Y-97023195D01*
X123397662Y-97280000D01*
X123422955Y-97536805D01*
X123497862Y-97783741D01*
X123619505Y-98011318D01*
X123783208Y-98210792D01*
X123867539Y-98280000D01*
X123783208Y-98349208D01*
X123619505Y-98548682D01*
X123497862Y-98776259D01*
X123422955Y-99023195D01*
X123397662Y-99280000D01*
X123422955Y-99536805D01*
X123497862Y-99783741D01*
X123543237Y-99868631D01*
X122009803Y-98335197D01*
X121990557Y-98319403D01*
X121968601Y-98307667D01*
X121944776Y-98300440D01*
X121920000Y-98298000D01*
X114352606Y-98298000D01*
X113792000Y-97737394D01*
X113792000Y-88732680D01*
X115150900Y-88732680D01*
X115150900Y-88940320D01*
X115191409Y-89143970D01*
X115270869Y-89335803D01*
X115386227Y-89508449D01*
X115533051Y-89655273D01*
X115705697Y-89770631D01*
X115897530Y-89850091D01*
X116101180Y-89890600D01*
X116308820Y-89890600D01*
X116512470Y-89850091D01*
X116704303Y-89770631D01*
X116876949Y-89655273D01*
X117023773Y-89508449D01*
X117139131Y-89335803D01*
X117218591Y-89143970D01*
X117259100Y-88940320D01*
X117259100Y-88732680D01*
X117218591Y-88529030D01*
X117139131Y-88337197D01*
X117023773Y-88164551D01*
X116876949Y-88017727D01*
X116704303Y-87902369D01*
X116512470Y-87822909D01*
X116308820Y-87782400D01*
X116101180Y-87782400D01*
X115897530Y-87822909D01*
X115705697Y-87902369D01*
X115533051Y-88017727D01*
X115386227Y-88164551D01*
X115270869Y-88337197D01*
X115191409Y-88529030D01*
X115150900Y-88732680D01*
X113792000Y-88732680D01*
X113792000Y-80605000D01*
X123400928Y-80605000D01*
X123404000Y-80994250D01*
X123562750Y-81153000D01*
X124587000Y-81153000D01*
X124587000Y-80128750D01*
X124428250Y-79970000D01*
X124039000Y-79966928D01*
X123914518Y-79979188D01*
X123794820Y-80015498D01*
X123684506Y-80074463D01*
X123587815Y-80153815D01*
X123508463Y-80250506D01*
X123449498Y-80360820D01*
X123413188Y-80480518D01*
X123400928Y-80605000D01*
X113792000Y-80605000D01*
X113792000Y-79913685D01*
X127800100Y-79913685D01*
X127800100Y-80106315D01*
X127837680Y-80295243D01*
X127911396Y-80473210D01*
X128018415Y-80633375D01*
X128154625Y-80769585D01*
X128314790Y-80876604D01*
X128492757Y-80950320D01*
X128681685Y-80987900D01*
X128874315Y-80987900D01*
X129063243Y-80950320D01*
X129241210Y-80876604D01*
X129401375Y-80769585D01*
X129537585Y-80633375D01*
X129644604Y-80473210D01*
X129718320Y-80295243D01*
X129755900Y-80106315D01*
X129755900Y-79913685D01*
X129718320Y-79724757D01*
X129644604Y-79546790D01*
X129537585Y-79386625D01*
X129401375Y-79250415D01*
X129241210Y-79143396D01*
X129063243Y-79069680D01*
X128874315Y-79032100D01*
X128681685Y-79032100D01*
X128492757Y-79069680D01*
X128314790Y-79143396D01*
X128154625Y-79250415D01*
X128018415Y-79386625D01*
X127911396Y-79546790D01*
X127837680Y-79724757D01*
X127800100Y-79913685D01*
X113792000Y-79913685D01*
X113792000Y-76459773D01*
X114204091Y-76871864D01*
X114881343Y-77324389D01*
X115633865Y-77636094D01*
X116432738Y-77795000D01*
X117247262Y-77795000D01*
X118046135Y-77636094D01*
X118426494Y-77478544D01*
X133283241Y-77478544D01*
X133283241Y-77671174D01*
X133320821Y-77860102D01*
X133394537Y-78038069D01*
X133501556Y-78198234D01*
X133637766Y-78334444D01*
X133797931Y-78441463D01*
X133963401Y-78510003D01*
X133933680Y-78581757D01*
X133896100Y-78770685D01*
X133896100Y-78963315D01*
X133933680Y-79152243D01*
X134007396Y-79330210D01*
X134114415Y-79490375D01*
X134250625Y-79626585D01*
X134410790Y-79733604D01*
X134588757Y-79807320D01*
X134777685Y-79844900D01*
X134970315Y-79844900D01*
X135159243Y-79807320D01*
X135337210Y-79733604D01*
X135497375Y-79626585D01*
X135633585Y-79490375D01*
X135740604Y-79330210D01*
X135814320Y-79152243D01*
X135851900Y-78963315D01*
X135851900Y-78770685D01*
X135814320Y-78581757D01*
X135740604Y-78403790D01*
X135633585Y-78243625D01*
X135497375Y-78107415D01*
X135337210Y-78000396D01*
X135171740Y-77931856D01*
X135201461Y-77860102D01*
X135239041Y-77671174D01*
X135239041Y-77478544D01*
X135201461Y-77289616D01*
X135127745Y-77111649D01*
X135020726Y-76951484D01*
X134884516Y-76815274D01*
X134724351Y-76708255D01*
X134546384Y-76634539D01*
X134357456Y-76596959D01*
X134164826Y-76596959D01*
X133975898Y-76634539D01*
X133797931Y-76708255D01*
X133637766Y-76815274D01*
X133501556Y-76951484D01*
X133394537Y-77111649D01*
X133320821Y-77289616D01*
X133283241Y-77478544D01*
X118426494Y-77478544D01*
X118798657Y-77324389D01*
X119475909Y-76871864D01*
X120051864Y-76295909D01*
X120504389Y-75618657D01*
X120816094Y-74866135D01*
X120974120Y-74071685D01*
X142151100Y-74071685D01*
X142151100Y-74264315D01*
X142188680Y-74453243D01*
X142262396Y-74631210D01*
X142369415Y-74791375D01*
X142505625Y-74927585D01*
X142665790Y-75034604D01*
X142843757Y-75108320D01*
X143032685Y-75145900D01*
X143225315Y-75145900D01*
X143414243Y-75108320D01*
X143592210Y-75034604D01*
X143752375Y-74927585D01*
X143888585Y-74791375D01*
X143995604Y-74631210D01*
X144069320Y-74453243D01*
X144106900Y-74264315D01*
X144106900Y-74071685D01*
X144069320Y-73882757D01*
X143995604Y-73704790D01*
X143888585Y-73544625D01*
X143752375Y-73408415D01*
X143592210Y-73301396D01*
X143414243Y-73227680D01*
X143225315Y-73190100D01*
X143032685Y-73190100D01*
X142843757Y-73227680D01*
X142665790Y-73301396D01*
X142505625Y-73408415D01*
X142369415Y-73544625D01*
X142262396Y-73704790D01*
X142188680Y-73882757D01*
X142151100Y-74071685D01*
X120974120Y-74071685D01*
X120975000Y-74067262D01*
X120975000Y-73252738D01*
X120816094Y-72453865D01*
X120504389Y-71701343D01*
X120391028Y-71531685D01*
X125641100Y-71531685D01*
X125641100Y-71724315D01*
X125678680Y-71913243D01*
X125752396Y-72091210D01*
X125859415Y-72251375D01*
X125995625Y-72387585D01*
X126155790Y-72494604D01*
X126333757Y-72568320D01*
X126522685Y-72605900D01*
X126715315Y-72605900D01*
X126904243Y-72568320D01*
X127082210Y-72494604D01*
X127190500Y-72422247D01*
X127298790Y-72494604D01*
X127476757Y-72568320D01*
X127665685Y-72605900D01*
X127858315Y-72605900D01*
X128047243Y-72568320D01*
X128225210Y-72494604D01*
X128385375Y-72387585D01*
X128521585Y-72251375D01*
X128628604Y-72091210D01*
X128702320Y-71913243D01*
X128739900Y-71724315D01*
X128739900Y-71531685D01*
X128702320Y-71342757D01*
X128628604Y-71164790D01*
X128521585Y-71004625D01*
X128385375Y-70868415D01*
X128225210Y-70761396D01*
X128047243Y-70687680D01*
X127858315Y-70650100D01*
X127665685Y-70650100D01*
X127476757Y-70687680D01*
X127298790Y-70761396D01*
X127190500Y-70833753D01*
X127082210Y-70761396D01*
X126904243Y-70687680D01*
X126715315Y-70650100D01*
X126522685Y-70650100D01*
X126333757Y-70687680D01*
X126155790Y-70761396D01*
X125995625Y-70868415D01*
X125859415Y-71004625D01*
X125752396Y-71164790D01*
X125678680Y-71342757D01*
X125641100Y-71531685D01*
X120391028Y-71531685D01*
X120101279Y-71098046D01*
X120695335Y-70612000D01*
X134083859Y-70612000D01*
X134029790Y-70634396D01*
M02*
