G04 #@! TF.GenerationSoftware,KiCad,Pcbnew,(5.1.4)-1*
G04 #@! TF.CreationDate,2019-11-01T10:34:41-04:00*
G04 #@! TF.ProjectId,wiproc,77697072-6f63-42e6-9b69-6361645f7063,rev?*
G04 #@! TF.SameCoordinates,Original*
G04 #@! TF.FileFunction,Soldermask,Top*
G04 #@! TF.FilePolarity,Negative*
%FSLAX46Y46*%
G04 Gerber Fmt 4.6, Leading zero omitted, Abs format (unit mm)*
G04 Created by KiCad (PCBNEW (5.1.4)-1) date 2019-11-01 10:34:41*
%MOMM*%
%LPD*%
G04 APERTURE LIST*
%ADD10C,0.100000*%
G04 APERTURE END LIST*
D10*
G36*
X159150730Y-104535655D02*
G01*
X159796935Y-104803322D01*
X160378503Y-105191913D01*
X160873087Y-105686497D01*
X161261678Y-106268065D01*
X161529345Y-106914270D01*
X161665800Y-107600277D01*
X161665800Y-108299723D01*
X161529345Y-108985730D01*
X161261678Y-109631935D01*
X160873087Y-110213503D01*
X160378503Y-110708087D01*
X159796935Y-111096678D01*
X159150730Y-111364345D01*
X158464723Y-111500800D01*
X157765277Y-111500800D01*
X157079270Y-111364345D01*
X156433065Y-111096678D01*
X155851497Y-110708087D01*
X155356913Y-110213503D01*
X154968322Y-109631935D01*
X154700655Y-108985730D01*
X154564200Y-108299723D01*
X154564200Y-107600277D01*
X154700655Y-106914270D01*
X154968322Y-106268065D01*
X155356913Y-105686497D01*
X155851497Y-105191913D01*
X156433065Y-104803322D01*
X157079270Y-104535655D01*
X157765277Y-104399200D01*
X158464723Y-104399200D01*
X159150730Y-104535655D01*
X159150730Y-104535655D01*
G37*
G36*
X117875730Y-104535655D02*
G01*
X118521935Y-104803322D01*
X119103503Y-105191913D01*
X119598087Y-105686497D01*
X119986678Y-106268065D01*
X120254345Y-106914270D01*
X120390800Y-107600277D01*
X120390800Y-108299723D01*
X120254345Y-108985730D01*
X119986678Y-109631935D01*
X119598087Y-110213503D01*
X119103503Y-110708087D01*
X118521935Y-111096678D01*
X117875730Y-111364345D01*
X117189723Y-111500800D01*
X116490277Y-111500800D01*
X115804270Y-111364345D01*
X115158065Y-111096678D01*
X114576497Y-110708087D01*
X114081913Y-110213503D01*
X113693322Y-109631935D01*
X113425655Y-108985730D01*
X113289200Y-108299723D01*
X113289200Y-107600277D01*
X113425655Y-106914270D01*
X113693322Y-106268065D01*
X114081913Y-105686497D01*
X114576497Y-105191913D01*
X115158065Y-104803322D01*
X115804270Y-104535655D01*
X116490277Y-104399200D01*
X117189723Y-104399200D01*
X117875730Y-104535655D01*
X117875730Y-104535655D01*
G37*
G36*
X139278800Y-109108201D02*
G01*
X139281240Y-109132977D01*
X139288467Y-109156801D01*
X139300203Y-109178758D01*
X139315997Y-109198003D01*
X139335242Y-109213797D01*
X139357199Y-109225533D01*
X139381023Y-109232760D01*
X139405799Y-109235200D01*
X140176300Y-109235200D01*
X140176300Y-111236800D01*
X136229700Y-111236800D01*
X136229700Y-109235200D01*
X137575201Y-109235200D01*
X137599977Y-109232760D01*
X137623801Y-109225533D01*
X137645758Y-109213797D01*
X137665003Y-109198003D01*
X137680797Y-109178758D01*
X137692533Y-109156801D01*
X137699760Y-109132977D01*
X137702200Y-109108201D01*
X137702200Y-108443799D01*
X137699760Y-108419023D01*
X137692533Y-108395199D01*
X137680797Y-108373242D01*
X137665003Y-108353997D01*
X137645758Y-108338203D01*
X137623801Y-108326467D01*
X137599977Y-108319240D01*
X137575201Y-108316800D01*
X134480799Y-108316800D01*
X134456023Y-108319240D01*
X134432199Y-108326467D01*
X134410242Y-108338203D01*
X134390997Y-108353997D01*
X134375203Y-108373242D01*
X134363467Y-108395199D01*
X134356240Y-108419023D01*
X134353800Y-108443799D01*
X134353800Y-109108201D01*
X134356240Y-109132977D01*
X134363467Y-109156801D01*
X134375203Y-109178758D01*
X134390997Y-109198003D01*
X134410242Y-109213797D01*
X134432199Y-109225533D01*
X134456023Y-109232760D01*
X134480799Y-109235200D01*
X135826300Y-109235200D01*
X135826300Y-111236800D01*
X131879700Y-111236800D01*
X131879700Y-109235200D01*
X132650201Y-109235200D01*
X132674977Y-109232760D01*
X132698801Y-109225533D01*
X132720758Y-109213797D01*
X132740003Y-109198003D01*
X132755797Y-109178758D01*
X132767533Y-109156801D01*
X132774760Y-109132977D01*
X132777200Y-109108201D01*
X132777200Y-106835200D01*
X139278800Y-106835200D01*
X139278800Y-109108201D01*
X139278800Y-109108201D01*
G37*
G36*
X152344800Y-110405800D02*
G01*
X149093200Y-110405800D01*
X149093200Y-109304200D01*
X152344800Y-109304200D01*
X152344800Y-110405800D01*
X152344800Y-110405800D01*
G37*
G36*
X147294800Y-110405800D02*
G01*
X144043200Y-110405800D01*
X144043200Y-109304200D01*
X147294800Y-109304200D01*
X147294800Y-110405800D01*
X147294800Y-110405800D01*
G37*
G36*
X125868800Y-110120800D02*
G01*
X124067200Y-110120800D01*
X124067200Y-108319200D01*
X125868800Y-108319200D01*
X125868800Y-110120800D01*
X125868800Y-110120800D01*
G37*
G36*
X127684588Y-108332233D02*
G01*
X127854388Y-108383742D01*
X128010881Y-108467389D01*
X128148044Y-108579956D01*
X128260611Y-108717119D01*
X128344258Y-108873612D01*
X128395767Y-109043412D01*
X128413159Y-109220000D01*
X128395767Y-109396588D01*
X128344258Y-109566388D01*
X128260611Y-109722881D01*
X128148044Y-109860044D01*
X128010881Y-109972611D01*
X127854388Y-110056258D01*
X127684588Y-110107767D01*
X127552259Y-110120800D01*
X127463741Y-110120800D01*
X127331412Y-110107767D01*
X127161612Y-110056258D01*
X127005119Y-109972611D01*
X126867956Y-109860044D01*
X126755389Y-109722881D01*
X126671742Y-109566388D01*
X126620233Y-109396588D01*
X126602841Y-109220000D01*
X126620233Y-109043412D01*
X126671742Y-108873612D01*
X126755389Y-108717119D01*
X126867956Y-108579956D01*
X127005119Y-108467389D01*
X127161612Y-108383742D01*
X127331412Y-108332233D01*
X127463741Y-108319200D01*
X127552259Y-108319200D01*
X127684588Y-108332233D01*
X127684588Y-108332233D01*
G37*
G36*
X130794181Y-106856634D02*
G01*
X130831471Y-106867946D01*
X130865840Y-106886316D01*
X130895963Y-106911037D01*
X130920684Y-106941160D01*
X130939054Y-106975529D01*
X130950366Y-107012819D01*
X130954800Y-107057836D01*
X130954800Y-107798164D01*
X130950366Y-107843181D01*
X130939054Y-107880471D01*
X130920684Y-107914840D01*
X130895963Y-107944963D01*
X130865840Y-107969684D01*
X130831471Y-107988054D01*
X130794181Y-107999366D01*
X130749164Y-108003800D01*
X130108836Y-108003800D01*
X130063819Y-107999366D01*
X130026529Y-107988054D01*
X129992160Y-107969684D01*
X129962037Y-107944963D01*
X129937316Y-107914840D01*
X129918946Y-107880471D01*
X129907634Y-107843181D01*
X129903200Y-107798164D01*
X129903200Y-107057836D01*
X129907634Y-107012819D01*
X129918946Y-106975529D01*
X129937316Y-106941160D01*
X129962037Y-106911037D01*
X129992160Y-106886316D01*
X130026529Y-106867946D01*
X130063819Y-106856634D01*
X130108836Y-106852200D01*
X130749164Y-106852200D01*
X130794181Y-106856634D01*
X130794181Y-106856634D01*
G37*
G36*
X152344800Y-107865800D02*
G01*
X149093200Y-107865800D01*
X149093200Y-106764200D01*
X152344800Y-106764200D01*
X152344800Y-107865800D01*
X152344800Y-107865800D01*
G37*
G36*
X147294800Y-107865800D02*
G01*
X144043200Y-107865800D01*
X144043200Y-106764200D01*
X147294800Y-106764200D01*
X147294800Y-107865800D01*
X147294800Y-107865800D01*
G37*
G36*
X125518800Y-106976800D02*
G01*
X124417200Y-106976800D01*
X124417200Y-105875200D01*
X125518800Y-105875200D01*
X125518800Y-106976800D01*
X125518800Y-106976800D01*
G37*
G36*
X130794181Y-105106634D02*
G01*
X130831471Y-105117946D01*
X130865840Y-105136316D01*
X130895963Y-105161037D01*
X130920684Y-105191160D01*
X130939054Y-105225529D01*
X130950366Y-105262819D01*
X130954800Y-105307836D01*
X130954800Y-106048164D01*
X130950366Y-106093181D01*
X130939054Y-106130471D01*
X130920684Y-106164840D01*
X130895963Y-106194963D01*
X130865840Y-106219684D01*
X130831471Y-106238054D01*
X130794181Y-106249366D01*
X130749164Y-106253800D01*
X130108836Y-106253800D01*
X130063819Y-106249366D01*
X130026529Y-106238054D01*
X129992160Y-106219684D01*
X129962037Y-106194963D01*
X129937316Y-106164840D01*
X129918946Y-106130471D01*
X129907634Y-106093181D01*
X129903200Y-106048164D01*
X129903200Y-105307836D01*
X129907634Y-105262819D01*
X129918946Y-105225529D01*
X129937316Y-105191160D01*
X129962037Y-105161037D01*
X129992160Y-105136316D01*
X130026529Y-105117946D01*
X130063819Y-105106634D01*
X130108836Y-105102200D01*
X130749164Y-105102200D01*
X130794181Y-105106634D01*
X130794181Y-105106634D01*
G37*
G36*
X127873181Y-105064634D02*
G01*
X127910471Y-105075946D01*
X127944840Y-105094316D01*
X127974963Y-105119037D01*
X127999684Y-105149160D01*
X128018054Y-105183529D01*
X128029366Y-105220819D01*
X128033800Y-105265836D01*
X128033800Y-106006164D01*
X128029366Y-106051181D01*
X128018054Y-106088471D01*
X127999684Y-106122840D01*
X127974963Y-106152963D01*
X127944840Y-106177684D01*
X127910471Y-106196054D01*
X127873181Y-106207366D01*
X127828164Y-106211800D01*
X127187836Y-106211800D01*
X127142819Y-106207366D01*
X127105529Y-106196054D01*
X127071160Y-106177684D01*
X127041037Y-106152963D01*
X127016316Y-106122840D01*
X126997946Y-106088471D01*
X126986634Y-106051181D01*
X126982200Y-106006164D01*
X126982200Y-105265836D01*
X126986634Y-105220819D01*
X126997946Y-105183529D01*
X127016316Y-105149160D01*
X127041037Y-105119037D01*
X127071160Y-105094316D01*
X127105529Y-105075946D01*
X127142819Y-105064634D01*
X127187836Y-105060200D01*
X127828164Y-105060200D01*
X127873181Y-105064634D01*
X127873181Y-105064634D01*
G37*
G36*
X147294800Y-105325800D02*
G01*
X144043200Y-105325800D01*
X144043200Y-104224200D01*
X147294800Y-104224200D01*
X147294800Y-105325800D01*
X147294800Y-105325800D01*
G37*
G36*
X152344800Y-105325800D02*
G01*
X149093200Y-105325800D01*
X149093200Y-104224200D01*
X152344800Y-104224200D01*
X152344800Y-105325800D01*
X152344800Y-105325800D01*
G37*
G36*
X125518800Y-104476800D02*
G01*
X124417200Y-104476800D01*
X124417200Y-103375200D01*
X125518800Y-103375200D01*
X125518800Y-104476800D01*
X125518800Y-104476800D01*
G37*
G36*
X127873181Y-103314634D02*
G01*
X127910471Y-103325946D01*
X127944840Y-103344316D01*
X127974963Y-103369037D01*
X127999684Y-103399160D01*
X128018054Y-103433529D01*
X128029366Y-103470819D01*
X128033800Y-103515836D01*
X128033800Y-104256164D01*
X128029366Y-104301181D01*
X128018054Y-104338471D01*
X127999684Y-104372840D01*
X127974963Y-104402963D01*
X127944840Y-104427684D01*
X127910471Y-104446054D01*
X127873181Y-104457366D01*
X127828164Y-104461800D01*
X127187836Y-104461800D01*
X127142819Y-104457366D01*
X127105529Y-104446054D01*
X127071160Y-104427684D01*
X127041037Y-104402963D01*
X127016316Y-104372840D01*
X126997946Y-104338471D01*
X126986634Y-104301181D01*
X126982200Y-104256164D01*
X126982200Y-103515836D01*
X126986634Y-103470819D01*
X126997946Y-103433529D01*
X127016316Y-103399160D01*
X127041037Y-103369037D01*
X127071160Y-103344316D01*
X127105529Y-103325946D01*
X127142819Y-103314634D01*
X127187836Y-103310200D01*
X127828164Y-103310200D01*
X127873181Y-103314634D01*
X127873181Y-103314634D01*
G37*
G36*
X137525181Y-102157634D02*
G01*
X137562471Y-102168946D01*
X137596840Y-102187316D01*
X137626963Y-102212037D01*
X137651684Y-102242160D01*
X137670054Y-102276529D01*
X137681366Y-102313819D01*
X137685800Y-102358836D01*
X137685800Y-103099164D01*
X137681366Y-103144181D01*
X137670054Y-103181471D01*
X137651684Y-103215840D01*
X137626963Y-103245963D01*
X137596840Y-103270684D01*
X137562471Y-103289054D01*
X137525181Y-103300366D01*
X137480164Y-103304800D01*
X136839836Y-103304800D01*
X136794819Y-103300366D01*
X136757529Y-103289054D01*
X136723160Y-103270684D01*
X136693037Y-103245963D01*
X136668316Y-103215840D01*
X136649946Y-103181471D01*
X136638634Y-103144181D01*
X136634200Y-103099164D01*
X136634200Y-102358836D01*
X136638634Y-102313819D01*
X136649946Y-102276529D01*
X136668316Y-102242160D01*
X136693037Y-102212037D01*
X136723160Y-102187316D01*
X136757529Y-102168946D01*
X136794819Y-102157634D01*
X136839836Y-102153200D01*
X137480164Y-102153200D01*
X137525181Y-102157634D01*
X137525181Y-102157634D01*
G37*
G36*
X139049181Y-102157634D02*
G01*
X139086471Y-102168946D01*
X139120840Y-102187316D01*
X139150963Y-102212037D01*
X139175684Y-102242160D01*
X139194054Y-102276529D01*
X139205366Y-102313819D01*
X139209800Y-102358836D01*
X139209800Y-103099164D01*
X139205366Y-103144181D01*
X139194054Y-103181471D01*
X139175684Y-103215840D01*
X139150963Y-103245963D01*
X139120840Y-103270684D01*
X139086471Y-103289054D01*
X139049181Y-103300366D01*
X139004164Y-103304800D01*
X138363836Y-103304800D01*
X138318819Y-103300366D01*
X138281529Y-103289054D01*
X138247160Y-103270684D01*
X138217037Y-103245963D01*
X138192316Y-103215840D01*
X138173946Y-103181471D01*
X138162634Y-103144181D01*
X138158200Y-103099164D01*
X138158200Y-102358836D01*
X138162634Y-102313819D01*
X138173946Y-102276529D01*
X138192316Y-102242160D01*
X138217037Y-102212037D01*
X138247160Y-102187316D01*
X138281529Y-102168946D01*
X138318819Y-102157634D01*
X138363836Y-102153200D01*
X139004164Y-102153200D01*
X139049181Y-102157634D01*
X139049181Y-102157634D01*
G37*
G36*
X136001181Y-102157634D02*
G01*
X136038471Y-102168946D01*
X136072840Y-102187316D01*
X136102963Y-102212037D01*
X136127684Y-102242160D01*
X136146054Y-102276529D01*
X136157366Y-102313819D01*
X136161800Y-102358836D01*
X136161800Y-103099164D01*
X136157366Y-103144181D01*
X136146054Y-103181471D01*
X136127684Y-103215840D01*
X136102963Y-103245963D01*
X136072840Y-103270684D01*
X136038471Y-103289054D01*
X136001181Y-103300366D01*
X135956164Y-103304800D01*
X135315836Y-103304800D01*
X135270819Y-103300366D01*
X135233529Y-103289054D01*
X135199160Y-103270684D01*
X135169037Y-103245963D01*
X135144316Y-103215840D01*
X135125946Y-103181471D01*
X135114634Y-103144181D01*
X135110200Y-103099164D01*
X135110200Y-102358836D01*
X135114634Y-102313819D01*
X135125946Y-102276529D01*
X135144316Y-102242160D01*
X135169037Y-102212037D01*
X135199160Y-102187316D01*
X135233529Y-102168946D01*
X135270819Y-102157634D01*
X135315836Y-102153200D01*
X135956164Y-102153200D01*
X136001181Y-102157634D01*
X136001181Y-102157634D01*
G37*
G36*
X140573181Y-102157634D02*
G01*
X140610471Y-102168946D01*
X140644840Y-102187316D01*
X140674963Y-102212037D01*
X140699684Y-102242160D01*
X140718054Y-102276529D01*
X140729366Y-102313819D01*
X140733800Y-102358836D01*
X140733800Y-103099164D01*
X140729366Y-103144181D01*
X140718054Y-103181471D01*
X140699684Y-103215840D01*
X140674963Y-103245963D01*
X140644840Y-103270684D01*
X140610471Y-103289054D01*
X140573181Y-103300366D01*
X140528164Y-103304800D01*
X139887836Y-103304800D01*
X139842819Y-103300366D01*
X139805529Y-103289054D01*
X139771160Y-103270684D01*
X139741037Y-103245963D01*
X139716316Y-103215840D01*
X139697946Y-103181471D01*
X139686634Y-103144181D01*
X139682200Y-103099164D01*
X139682200Y-102358836D01*
X139686634Y-102313819D01*
X139697946Y-102276529D01*
X139716316Y-102242160D01*
X139741037Y-102212037D01*
X139771160Y-102187316D01*
X139805529Y-102168946D01*
X139842819Y-102157634D01*
X139887836Y-102153200D01*
X140528164Y-102153200D01*
X140573181Y-102157634D01*
X140573181Y-102157634D01*
G37*
G36*
X139049181Y-100407634D02*
G01*
X139086471Y-100418946D01*
X139120840Y-100437316D01*
X139150963Y-100462037D01*
X139175684Y-100492160D01*
X139194054Y-100526529D01*
X139205366Y-100563819D01*
X139209800Y-100608836D01*
X139209800Y-101349164D01*
X139205366Y-101394181D01*
X139194054Y-101431471D01*
X139175684Y-101465840D01*
X139150963Y-101495963D01*
X139120840Y-101520684D01*
X139086471Y-101539054D01*
X139049181Y-101550366D01*
X139004164Y-101554800D01*
X138363836Y-101554800D01*
X138318819Y-101550366D01*
X138281529Y-101539054D01*
X138247160Y-101520684D01*
X138217037Y-101495963D01*
X138192316Y-101465840D01*
X138173946Y-101431471D01*
X138162634Y-101394181D01*
X138158200Y-101349164D01*
X138158200Y-100608836D01*
X138162634Y-100563819D01*
X138173946Y-100526529D01*
X138192316Y-100492160D01*
X138217037Y-100462037D01*
X138247160Y-100437316D01*
X138281529Y-100418946D01*
X138318819Y-100407634D01*
X138363836Y-100403200D01*
X139004164Y-100403200D01*
X139049181Y-100407634D01*
X139049181Y-100407634D01*
G37*
G36*
X136001181Y-100407634D02*
G01*
X136038471Y-100418946D01*
X136072840Y-100437316D01*
X136102963Y-100462037D01*
X136127684Y-100492160D01*
X136146054Y-100526529D01*
X136157366Y-100563819D01*
X136161800Y-100608836D01*
X136161800Y-101349164D01*
X136157366Y-101394181D01*
X136146054Y-101431471D01*
X136127684Y-101465840D01*
X136102963Y-101495963D01*
X136072840Y-101520684D01*
X136038471Y-101539054D01*
X136001181Y-101550366D01*
X135956164Y-101554800D01*
X135315836Y-101554800D01*
X135270819Y-101550366D01*
X135233529Y-101539054D01*
X135199160Y-101520684D01*
X135169037Y-101495963D01*
X135144316Y-101465840D01*
X135125946Y-101431471D01*
X135114634Y-101394181D01*
X135110200Y-101349164D01*
X135110200Y-100608836D01*
X135114634Y-100563819D01*
X135125946Y-100526529D01*
X135144316Y-100492160D01*
X135169037Y-100462037D01*
X135199160Y-100437316D01*
X135233529Y-100418946D01*
X135270819Y-100407634D01*
X135315836Y-100403200D01*
X135956164Y-100403200D01*
X136001181Y-100407634D01*
X136001181Y-100407634D01*
G37*
G36*
X140573181Y-100407634D02*
G01*
X140610471Y-100418946D01*
X140644840Y-100437316D01*
X140674963Y-100462037D01*
X140699684Y-100492160D01*
X140718054Y-100526529D01*
X140729366Y-100563819D01*
X140733800Y-100608836D01*
X140733800Y-101349164D01*
X140729366Y-101394181D01*
X140718054Y-101431471D01*
X140699684Y-101465840D01*
X140674963Y-101495963D01*
X140644840Y-101520684D01*
X140610471Y-101539054D01*
X140573181Y-101550366D01*
X140528164Y-101554800D01*
X139887836Y-101554800D01*
X139842819Y-101550366D01*
X139805529Y-101539054D01*
X139771160Y-101520684D01*
X139741037Y-101495963D01*
X139716316Y-101465840D01*
X139697946Y-101431471D01*
X139686634Y-101394181D01*
X139682200Y-101349164D01*
X139682200Y-100608836D01*
X139686634Y-100563819D01*
X139697946Y-100526529D01*
X139716316Y-100492160D01*
X139741037Y-100462037D01*
X139771160Y-100437316D01*
X139805529Y-100418946D01*
X139842819Y-100407634D01*
X139887836Y-100403200D01*
X140528164Y-100403200D01*
X140573181Y-100407634D01*
X140573181Y-100407634D01*
G37*
G36*
X137525181Y-100407634D02*
G01*
X137562471Y-100418946D01*
X137596840Y-100437316D01*
X137626963Y-100462037D01*
X137651684Y-100492160D01*
X137670054Y-100526529D01*
X137681366Y-100563819D01*
X137685800Y-100608836D01*
X137685800Y-101349164D01*
X137681366Y-101394181D01*
X137670054Y-101431471D01*
X137651684Y-101465840D01*
X137626963Y-101495963D01*
X137596840Y-101520684D01*
X137562471Y-101539054D01*
X137525181Y-101550366D01*
X137480164Y-101554800D01*
X136839836Y-101554800D01*
X136794819Y-101550366D01*
X136757529Y-101539054D01*
X136723160Y-101520684D01*
X136693037Y-101495963D01*
X136668316Y-101465840D01*
X136649946Y-101431471D01*
X136638634Y-101394181D01*
X136634200Y-101349164D01*
X136634200Y-100608836D01*
X136638634Y-100563819D01*
X136649946Y-100526529D01*
X136668316Y-100492160D01*
X136693037Y-100462037D01*
X136723160Y-100437316D01*
X136757529Y-100418946D01*
X136794819Y-100407634D01*
X136839836Y-100403200D01*
X137480164Y-100403200D01*
X137525181Y-100407634D01*
X137525181Y-100407634D01*
G37*
G36*
X127878800Y-101482800D02*
G01*
X127137200Y-101482800D01*
X127137200Y-99381200D01*
X127878800Y-99381200D01*
X127878800Y-101482800D01*
X127878800Y-101482800D01*
G37*
G36*
X130418800Y-101482800D02*
G01*
X129677200Y-101482800D01*
X129677200Y-99381200D01*
X130418800Y-99381200D01*
X130418800Y-101482800D01*
X130418800Y-101482800D01*
G37*
G36*
X117050449Y-99901150D02*
G01*
X117087914Y-99912515D01*
X117122438Y-99930969D01*
X117152698Y-99955802D01*
X117177531Y-99986062D01*
X117195985Y-100020586D01*
X117207350Y-100058051D01*
X117211800Y-100103238D01*
X117211800Y-101191762D01*
X117207350Y-101236949D01*
X117195985Y-101274414D01*
X117177531Y-101308938D01*
X117152698Y-101339198D01*
X117122438Y-101364031D01*
X117087914Y-101382485D01*
X117050449Y-101393850D01*
X117005262Y-101398300D01*
X116166738Y-101398300D01*
X116121551Y-101393850D01*
X116084086Y-101382485D01*
X116049562Y-101364031D01*
X116019302Y-101339198D01*
X115994469Y-101308938D01*
X115976015Y-101274414D01*
X115964650Y-101236949D01*
X115960200Y-101191762D01*
X115960200Y-100103238D01*
X115964650Y-100058051D01*
X115976015Y-100020586D01*
X115994469Y-99986062D01*
X116019302Y-99955802D01*
X116049562Y-99930969D01*
X116084086Y-99912515D01*
X116121551Y-99901150D01*
X116166738Y-99896700D01*
X117005262Y-99896700D01*
X117050449Y-99901150D01*
X117050449Y-99901150D01*
G37*
G36*
X115000449Y-99901150D02*
G01*
X115037914Y-99912515D01*
X115072438Y-99930969D01*
X115102698Y-99955802D01*
X115127531Y-99986062D01*
X115145985Y-100020586D01*
X115157350Y-100058051D01*
X115161800Y-100103238D01*
X115161800Y-101191762D01*
X115157350Y-101236949D01*
X115145985Y-101274414D01*
X115127531Y-101308938D01*
X115102698Y-101339198D01*
X115072438Y-101364031D01*
X115037914Y-101382485D01*
X115000449Y-101393850D01*
X114955262Y-101398300D01*
X114116738Y-101398300D01*
X114071551Y-101393850D01*
X114034086Y-101382485D01*
X113999562Y-101364031D01*
X113969302Y-101339198D01*
X113944469Y-101308938D01*
X113926015Y-101274414D01*
X113914650Y-101236949D01*
X113910200Y-101191762D01*
X113910200Y-100103238D01*
X113914650Y-100058051D01*
X113926015Y-100020586D01*
X113944469Y-99986062D01*
X113969302Y-99955802D01*
X113999562Y-99930969D01*
X114034086Y-99912515D01*
X114071551Y-99901150D01*
X114116738Y-99896700D01*
X114955262Y-99896700D01*
X115000449Y-99901150D01*
X115000449Y-99901150D01*
G37*
G36*
X119061181Y-100126134D02*
G01*
X119098471Y-100137446D01*
X119132840Y-100155816D01*
X119162963Y-100180537D01*
X119187684Y-100210660D01*
X119206054Y-100245029D01*
X119217366Y-100282319D01*
X119221800Y-100327336D01*
X119221800Y-100967664D01*
X119217366Y-101012681D01*
X119206054Y-101049971D01*
X119187684Y-101084340D01*
X119162963Y-101114463D01*
X119132840Y-101139184D01*
X119098471Y-101157554D01*
X119061181Y-101168866D01*
X119016164Y-101173300D01*
X118275836Y-101173300D01*
X118230819Y-101168866D01*
X118193529Y-101157554D01*
X118159160Y-101139184D01*
X118129037Y-101114463D01*
X118104316Y-101084340D01*
X118085946Y-101049971D01*
X118074634Y-101012681D01*
X118070200Y-100967664D01*
X118070200Y-100327336D01*
X118074634Y-100282319D01*
X118085946Y-100245029D01*
X118104316Y-100210660D01*
X118129037Y-100180537D01*
X118159160Y-100155816D01*
X118193529Y-100137446D01*
X118230819Y-100126134D01*
X118275836Y-100121700D01*
X119016164Y-100121700D01*
X119061181Y-100126134D01*
X119061181Y-100126134D01*
G37*
G36*
X120811181Y-100126134D02*
G01*
X120848471Y-100137446D01*
X120882840Y-100155816D01*
X120912963Y-100180537D01*
X120937684Y-100210660D01*
X120956054Y-100245029D01*
X120967366Y-100282319D01*
X120971800Y-100327336D01*
X120971800Y-100967664D01*
X120967366Y-101012681D01*
X120956054Y-101049971D01*
X120937684Y-101084340D01*
X120912963Y-101114463D01*
X120882840Y-101139184D01*
X120848471Y-101157554D01*
X120811181Y-101168866D01*
X120766164Y-101173300D01*
X120025836Y-101173300D01*
X119980819Y-101168866D01*
X119943529Y-101157554D01*
X119909160Y-101139184D01*
X119879037Y-101114463D01*
X119854316Y-101084340D01*
X119835946Y-101049971D01*
X119824634Y-101012681D01*
X119820200Y-100967664D01*
X119820200Y-100327336D01*
X119824634Y-100282319D01*
X119835946Y-100245029D01*
X119854316Y-100210660D01*
X119879037Y-100180537D01*
X119909160Y-100155816D01*
X119943529Y-100137446D01*
X119980819Y-100126134D01*
X120025836Y-100121700D01*
X120766164Y-100121700D01*
X120811181Y-100126134D01*
X120811181Y-100126134D01*
G37*
G36*
X157402588Y-98553233D02*
G01*
X157572388Y-98604742D01*
X157728881Y-98688389D01*
X157866044Y-98800956D01*
X157978611Y-98938119D01*
X158062258Y-99094612D01*
X158113767Y-99264412D01*
X158131159Y-99441000D01*
X158113767Y-99617588D01*
X158062258Y-99787388D01*
X157978611Y-99943881D01*
X157866044Y-100081044D01*
X157728881Y-100193611D01*
X157572388Y-100277258D01*
X157402588Y-100328767D01*
X157270259Y-100341800D01*
X157181741Y-100341800D01*
X157049412Y-100328767D01*
X156879612Y-100277258D01*
X156723119Y-100193611D01*
X156585956Y-100081044D01*
X156473389Y-99943881D01*
X156389742Y-99787388D01*
X156338233Y-99617588D01*
X156320841Y-99441000D01*
X156338233Y-99264412D01*
X156389742Y-99094612D01*
X156473389Y-98938119D01*
X156585956Y-98800956D01*
X156723119Y-98688389D01*
X156879612Y-98604742D01*
X157049412Y-98553233D01*
X157181741Y-98540200D01*
X157270259Y-98540200D01*
X157402588Y-98553233D01*
X157402588Y-98553233D01*
G37*
G36*
X159942588Y-98553233D02*
G01*
X160112388Y-98604742D01*
X160268881Y-98688389D01*
X160406044Y-98800956D01*
X160518611Y-98938119D01*
X160602258Y-99094612D01*
X160653767Y-99264412D01*
X160671159Y-99441000D01*
X160653767Y-99617588D01*
X160602258Y-99787388D01*
X160518611Y-99943881D01*
X160406044Y-100081044D01*
X160268881Y-100193611D01*
X160112388Y-100277258D01*
X159942588Y-100328767D01*
X159810259Y-100341800D01*
X159721741Y-100341800D01*
X159589412Y-100328767D01*
X159419612Y-100277258D01*
X159263119Y-100193611D01*
X159125956Y-100081044D01*
X159013389Y-99943881D01*
X158929742Y-99787388D01*
X158878233Y-99617588D01*
X158860841Y-99441000D01*
X158878233Y-99264412D01*
X158929742Y-99094612D01*
X159013389Y-98938119D01*
X159125956Y-98800956D01*
X159263119Y-98688389D01*
X159419612Y-98604742D01*
X159589412Y-98553233D01*
X159721741Y-98540200D01*
X159810259Y-98540200D01*
X159942588Y-98553233D01*
X159942588Y-98553233D01*
G37*
G36*
X147436200Y-100014400D02*
G01*
X145984600Y-100014400D01*
X145984600Y-98562800D01*
X147436200Y-98562800D01*
X147436200Y-100014400D01*
X147436200Y-100014400D01*
G37*
G36*
X124856281Y-98564702D02*
G01*
X124951593Y-98593615D01*
X124993095Y-98606204D01*
X125037014Y-98629680D01*
X125119183Y-98673599D01*
X125229701Y-98764299D01*
X125320401Y-98874817D01*
X125354236Y-98938119D01*
X125387796Y-99000905D01*
X125387796Y-99000906D01*
X125429298Y-99137719D01*
X125443312Y-99280000D01*
X125429298Y-99422281D01*
X125400385Y-99517593D01*
X125387796Y-99559095D01*
X125364320Y-99603014D01*
X125320401Y-99685183D01*
X125229701Y-99795701D01*
X125119183Y-99886401D01*
X125037014Y-99930320D01*
X124993095Y-99953796D01*
X124951593Y-99966385D01*
X124856281Y-99995298D01*
X124749657Y-100005800D01*
X124678343Y-100005800D01*
X124571719Y-99995298D01*
X124476407Y-99966385D01*
X124434905Y-99953796D01*
X124390986Y-99930320D01*
X124308817Y-99886401D01*
X124198299Y-99795701D01*
X124107599Y-99685183D01*
X124063680Y-99603014D01*
X124040204Y-99559095D01*
X124027615Y-99517593D01*
X123998702Y-99422281D01*
X123984688Y-99280000D01*
X123998702Y-99137719D01*
X124040204Y-99000906D01*
X124040204Y-99000905D01*
X124073764Y-98938119D01*
X124107599Y-98874817D01*
X124198299Y-98764299D01*
X124308817Y-98673599D01*
X124390986Y-98629680D01*
X124434905Y-98606204D01*
X124476407Y-98593615D01*
X124571719Y-98564702D01*
X124678343Y-98554200D01*
X124749657Y-98554200D01*
X124856281Y-98564702D01*
X124856281Y-98564702D01*
G37*
G36*
X142986181Y-97571634D02*
G01*
X143023471Y-97582946D01*
X143057840Y-97601316D01*
X143087963Y-97626037D01*
X143112684Y-97656160D01*
X143131054Y-97690529D01*
X143142366Y-97727819D01*
X143146800Y-97772836D01*
X143146800Y-98513164D01*
X143142366Y-98558181D01*
X143131054Y-98595471D01*
X143112684Y-98629840D01*
X143087963Y-98659963D01*
X143057840Y-98684684D01*
X143023471Y-98703054D01*
X142986181Y-98714366D01*
X142941164Y-98718800D01*
X142300836Y-98718800D01*
X142255819Y-98714366D01*
X142218529Y-98703054D01*
X142184160Y-98684684D01*
X142154037Y-98659963D01*
X142129316Y-98629840D01*
X142110946Y-98595471D01*
X142099634Y-98558181D01*
X142095200Y-98513164D01*
X142095200Y-97772836D01*
X142099634Y-97727819D01*
X142110946Y-97690529D01*
X142129316Y-97656160D01*
X142154037Y-97626037D01*
X142184160Y-97601316D01*
X142218529Y-97582946D01*
X142255819Y-97571634D01*
X142300836Y-97567200D01*
X142941164Y-97567200D01*
X142986181Y-97571634D01*
X142986181Y-97571634D01*
G37*
G36*
X136353800Y-98485300D02*
G01*
X135052200Y-98485300D01*
X135052200Y-92268700D01*
X136353800Y-92268700D01*
X136353800Y-98485300D01*
X136353800Y-98485300D01*
G37*
G36*
X141553800Y-98485300D02*
G01*
X140252200Y-98485300D01*
X140252200Y-92268700D01*
X141553800Y-92268700D01*
X141553800Y-98485300D01*
X141553800Y-98485300D01*
G37*
G36*
X146852681Y-96573302D02*
G01*
X146947993Y-96602215D01*
X146989495Y-96614804D01*
X147033414Y-96638280D01*
X147115583Y-96682199D01*
X147226101Y-96772899D01*
X147316801Y-96883417D01*
X147351359Y-96948072D01*
X147384196Y-97009505D01*
X147384196Y-97009506D01*
X147425698Y-97146319D01*
X147439712Y-97288600D01*
X147425698Y-97430881D01*
X147396785Y-97526193D01*
X147384196Y-97567695D01*
X147381760Y-97572252D01*
X147316801Y-97693783D01*
X147226101Y-97804301D01*
X147115583Y-97895001D01*
X147033414Y-97938920D01*
X146989495Y-97962396D01*
X146947993Y-97974985D01*
X146852681Y-98003898D01*
X146746057Y-98014400D01*
X146674743Y-98014400D01*
X146568119Y-98003898D01*
X146472807Y-97974985D01*
X146431305Y-97962396D01*
X146387386Y-97938920D01*
X146305217Y-97895001D01*
X146194699Y-97804301D01*
X146103999Y-97693783D01*
X146039040Y-97572252D01*
X146036604Y-97567695D01*
X146024015Y-97526193D01*
X145995102Y-97430881D01*
X145981088Y-97288600D01*
X145995102Y-97146319D01*
X146036604Y-97009506D01*
X146036604Y-97009505D01*
X146069441Y-96948072D01*
X146103999Y-96883417D01*
X146194699Y-96772899D01*
X146305217Y-96682199D01*
X146387386Y-96638280D01*
X146431305Y-96614804D01*
X146472807Y-96602215D01*
X146568119Y-96573302D01*
X146674743Y-96562800D01*
X146746057Y-96562800D01*
X146852681Y-96573302D01*
X146852681Y-96573302D01*
G37*
G36*
X124856281Y-96564702D02*
G01*
X124951593Y-96593615D01*
X124993095Y-96606204D01*
X125002926Y-96611459D01*
X125119183Y-96673599D01*
X125229701Y-96764299D01*
X125320401Y-96874817D01*
X125346953Y-96924493D01*
X125387796Y-97000905D01*
X125390405Y-97009506D01*
X125429298Y-97137719D01*
X125443312Y-97280000D01*
X125429298Y-97422281D01*
X125400385Y-97517593D01*
X125387796Y-97559095D01*
X125380763Y-97572252D01*
X125320401Y-97685183D01*
X125229701Y-97795701D01*
X125119183Y-97886401D01*
X125037014Y-97930320D01*
X124993095Y-97953796D01*
X124964744Y-97962396D01*
X124856281Y-97995298D01*
X124749657Y-98005800D01*
X124678343Y-98005800D01*
X124571719Y-97995298D01*
X124463256Y-97962396D01*
X124434905Y-97953796D01*
X124390986Y-97930320D01*
X124308817Y-97886401D01*
X124198299Y-97795701D01*
X124107599Y-97685183D01*
X124047237Y-97572252D01*
X124040204Y-97559095D01*
X124027615Y-97517593D01*
X123998702Y-97422281D01*
X123984688Y-97280000D01*
X123998702Y-97137719D01*
X124037595Y-97009506D01*
X124040204Y-97000905D01*
X124081047Y-96924493D01*
X124107599Y-96874817D01*
X124198299Y-96764299D01*
X124308817Y-96673599D01*
X124425074Y-96611459D01*
X124434905Y-96606204D01*
X124476407Y-96593615D01*
X124571719Y-96564702D01*
X124678343Y-96554200D01*
X124749657Y-96554200D01*
X124856281Y-96564702D01*
X124856281Y-96564702D01*
G37*
G36*
X157402588Y-96013233D02*
G01*
X157572388Y-96064742D01*
X157728881Y-96148389D01*
X157866044Y-96260956D01*
X157978611Y-96398119D01*
X158062258Y-96554612D01*
X158113767Y-96724412D01*
X158131159Y-96901000D01*
X158113767Y-97077588D01*
X158062258Y-97247388D01*
X157978611Y-97403881D01*
X157866044Y-97541044D01*
X157728881Y-97653611D01*
X157572388Y-97737258D01*
X157402588Y-97788767D01*
X157270259Y-97801800D01*
X157181741Y-97801800D01*
X157049412Y-97788767D01*
X156879612Y-97737258D01*
X156723119Y-97653611D01*
X156585956Y-97541044D01*
X156473389Y-97403881D01*
X156389742Y-97247388D01*
X156338233Y-97077588D01*
X156320841Y-96901000D01*
X156338233Y-96724412D01*
X156389742Y-96554612D01*
X156473389Y-96398119D01*
X156585956Y-96260956D01*
X156723119Y-96148389D01*
X156879612Y-96064742D01*
X157049412Y-96013233D01*
X157181741Y-96000200D01*
X157270259Y-96000200D01*
X157402588Y-96013233D01*
X157402588Y-96013233D01*
G37*
G36*
X159942588Y-96013233D02*
G01*
X160112388Y-96064742D01*
X160268881Y-96148389D01*
X160406044Y-96260956D01*
X160518611Y-96398119D01*
X160602258Y-96554612D01*
X160653767Y-96724412D01*
X160671159Y-96901000D01*
X160653767Y-97077588D01*
X160602258Y-97247388D01*
X160518611Y-97403881D01*
X160406044Y-97541044D01*
X160268881Y-97653611D01*
X160112388Y-97737258D01*
X159942588Y-97788767D01*
X159810259Y-97801800D01*
X159721741Y-97801800D01*
X159589412Y-97788767D01*
X159419612Y-97737258D01*
X159263119Y-97653611D01*
X159125956Y-97541044D01*
X159013389Y-97403881D01*
X158929742Y-97247388D01*
X158878233Y-97077588D01*
X158860841Y-96901000D01*
X158878233Y-96724412D01*
X158929742Y-96554612D01*
X159013389Y-96398119D01*
X159125956Y-96260956D01*
X159263119Y-96148389D01*
X159419612Y-96064742D01*
X159589412Y-96013233D01*
X159721741Y-96000200D01*
X159810259Y-96000200D01*
X159942588Y-96013233D01*
X159942588Y-96013233D01*
G37*
G36*
X142986181Y-95821634D02*
G01*
X143023471Y-95832946D01*
X143057840Y-95851316D01*
X143087963Y-95876037D01*
X143112684Y-95906160D01*
X143131054Y-95940529D01*
X143142366Y-95977819D01*
X143146800Y-96022836D01*
X143146800Y-96763164D01*
X143142366Y-96808181D01*
X143131054Y-96845471D01*
X143112684Y-96879840D01*
X143087963Y-96909963D01*
X143057840Y-96934684D01*
X143023471Y-96953054D01*
X142986181Y-96964366D01*
X142941164Y-96968800D01*
X142300836Y-96968800D01*
X142255819Y-96964366D01*
X142218529Y-96953054D01*
X142184160Y-96934684D01*
X142154037Y-96909963D01*
X142129316Y-96879840D01*
X142110946Y-96845471D01*
X142099634Y-96808181D01*
X142095200Y-96763164D01*
X142095200Y-96022836D01*
X142099634Y-95977819D01*
X142110946Y-95940529D01*
X142129316Y-95906160D01*
X142154037Y-95876037D01*
X142184160Y-95851316D01*
X142218529Y-95832946D01*
X142255819Y-95821634D01*
X142300836Y-95817200D01*
X142941164Y-95817200D01*
X142986181Y-95821634D01*
X142986181Y-95821634D01*
G37*
G36*
X117004949Y-95456150D02*
G01*
X117042414Y-95467515D01*
X117076938Y-95485969D01*
X117107198Y-95510802D01*
X117132031Y-95541062D01*
X117150485Y-95575586D01*
X117161850Y-95613051D01*
X117166300Y-95658238D01*
X117166300Y-96746762D01*
X117161850Y-96791949D01*
X117150485Y-96829414D01*
X117132031Y-96863938D01*
X117107198Y-96894198D01*
X117076938Y-96919031D01*
X117042414Y-96937485D01*
X117004949Y-96948850D01*
X116959762Y-96953300D01*
X116121238Y-96953300D01*
X116076051Y-96948850D01*
X116038586Y-96937485D01*
X116004062Y-96919031D01*
X115973802Y-96894198D01*
X115948969Y-96863938D01*
X115930515Y-96829414D01*
X115919150Y-96791949D01*
X115914700Y-96746762D01*
X115914700Y-95658238D01*
X115919150Y-95613051D01*
X115930515Y-95575586D01*
X115948969Y-95541062D01*
X115973802Y-95510802D01*
X116004062Y-95485969D01*
X116038586Y-95467515D01*
X116076051Y-95456150D01*
X116121238Y-95451700D01*
X116959762Y-95451700D01*
X117004949Y-95456150D01*
X117004949Y-95456150D01*
G37*
G36*
X114954949Y-95456150D02*
G01*
X114992414Y-95467515D01*
X115026938Y-95485969D01*
X115057198Y-95510802D01*
X115082031Y-95541062D01*
X115100485Y-95575586D01*
X115111850Y-95613051D01*
X115116300Y-95658238D01*
X115116300Y-96746762D01*
X115111850Y-96791949D01*
X115100485Y-96829414D01*
X115082031Y-96863938D01*
X115057198Y-96894198D01*
X115026938Y-96919031D01*
X114992414Y-96937485D01*
X114954949Y-96948850D01*
X114909762Y-96953300D01*
X114071238Y-96953300D01*
X114026051Y-96948850D01*
X113988586Y-96937485D01*
X113954062Y-96919031D01*
X113923802Y-96894198D01*
X113898969Y-96863938D01*
X113880515Y-96829414D01*
X113869150Y-96791949D01*
X113864700Y-96746762D01*
X113864700Y-95658238D01*
X113869150Y-95613051D01*
X113880515Y-95575586D01*
X113898969Y-95541062D01*
X113923802Y-95510802D01*
X113954062Y-95485969D01*
X113988586Y-95467515D01*
X114026051Y-95456150D01*
X114071238Y-95451700D01*
X114909762Y-95451700D01*
X114954949Y-95456150D01*
X114954949Y-95456150D01*
G37*
G36*
X118969681Y-95681134D02*
G01*
X119006971Y-95692446D01*
X119041340Y-95710816D01*
X119071463Y-95735537D01*
X119096184Y-95765660D01*
X119114554Y-95800029D01*
X119125866Y-95837319D01*
X119130300Y-95882336D01*
X119130300Y-96522664D01*
X119125866Y-96567681D01*
X119114554Y-96604971D01*
X119096184Y-96639340D01*
X119071463Y-96669463D01*
X119041340Y-96694184D01*
X119006971Y-96712554D01*
X118969681Y-96723866D01*
X118924664Y-96728300D01*
X118184336Y-96728300D01*
X118139319Y-96723866D01*
X118102029Y-96712554D01*
X118067660Y-96694184D01*
X118037537Y-96669463D01*
X118012816Y-96639340D01*
X117994446Y-96604971D01*
X117983134Y-96567681D01*
X117978700Y-96522664D01*
X117978700Y-95882336D01*
X117983134Y-95837319D01*
X117994446Y-95800029D01*
X118012816Y-95765660D01*
X118037537Y-95735537D01*
X118067660Y-95710816D01*
X118102029Y-95692446D01*
X118139319Y-95681134D01*
X118184336Y-95676700D01*
X118924664Y-95676700D01*
X118969681Y-95681134D01*
X118969681Y-95681134D01*
G37*
G36*
X120719681Y-95681134D02*
G01*
X120756971Y-95692446D01*
X120791340Y-95710816D01*
X120821463Y-95735537D01*
X120846184Y-95765660D01*
X120864554Y-95800029D01*
X120875866Y-95837319D01*
X120880300Y-95882336D01*
X120880300Y-96522664D01*
X120875866Y-96567681D01*
X120864554Y-96604971D01*
X120846184Y-96639340D01*
X120821463Y-96669463D01*
X120791340Y-96694184D01*
X120756971Y-96712554D01*
X120719681Y-96723866D01*
X120674664Y-96728300D01*
X119934336Y-96728300D01*
X119889319Y-96723866D01*
X119852029Y-96712554D01*
X119817660Y-96694184D01*
X119787537Y-96669463D01*
X119762816Y-96639340D01*
X119744446Y-96604971D01*
X119733134Y-96567681D01*
X119728700Y-96522664D01*
X119728700Y-95882336D01*
X119733134Y-95837319D01*
X119744446Y-95800029D01*
X119762816Y-95765660D01*
X119787537Y-95735537D01*
X119817660Y-95710816D01*
X119852029Y-95692446D01*
X119889319Y-95681134D01*
X119934336Y-95676700D01*
X120674664Y-95676700D01*
X120719681Y-95681134D01*
X120719681Y-95681134D01*
G37*
G36*
X146852681Y-94573302D02*
G01*
X146947993Y-94602215D01*
X146989495Y-94614804D01*
X147033414Y-94638280D01*
X147115583Y-94682199D01*
X147226101Y-94772899D01*
X147316801Y-94883417D01*
X147360720Y-94965586D01*
X147384196Y-95009505D01*
X147384196Y-95009506D01*
X147425698Y-95146319D01*
X147439712Y-95288600D01*
X147425698Y-95430881D01*
X147401454Y-95510802D01*
X147384196Y-95567695D01*
X147379978Y-95575586D01*
X147316801Y-95693783D01*
X147226101Y-95804301D01*
X147115583Y-95895001D01*
X147042543Y-95934041D01*
X146989495Y-95962396D01*
X146947993Y-95974985D01*
X146852681Y-96003898D01*
X146746057Y-96014400D01*
X146674743Y-96014400D01*
X146568119Y-96003898D01*
X146472807Y-95974985D01*
X146431305Y-95962396D01*
X146378257Y-95934041D01*
X146305217Y-95895001D01*
X146194699Y-95804301D01*
X146103999Y-95693783D01*
X146040822Y-95575586D01*
X146036604Y-95567695D01*
X146019346Y-95510802D01*
X145995102Y-95430881D01*
X145981088Y-95288600D01*
X145995102Y-95146319D01*
X146036604Y-95009506D01*
X146036604Y-95009505D01*
X146060080Y-94965586D01*
X146103999Y-94883417D01*
X146194699Y-94772899D01*
X146305217Y-94682199D01*
X146387386Y-94638280D01*
X146431305Y-94614804D01*
X146472807Y-94602215D01*
X146568119Y-94573302D01*
X146674743Y-94562800D01*
X146746057Y-94562800D01*
X146852681Y-94573302D01*
X146852681Y-94573302D01*
G37*
G36*
X124856281Y-94564702D02*
G01*
X124951593Y-94593615D01*
X124993095Y-94606204D01*
X125009184Y-94614804D01*
X125119183Y-94673599D01*
X125229701Y-94764299D01*
X125320401Y-94874817D01*
X125364320Y-94956986D01*
X125387796Y-95000905D01*
X125390405Y-95009506D01*
X125429298Y-95137719D01*
X125443312Y-95280000D01*
X125429298Y-95422281D01*
X125415576Y-95467515D01*
X125387796Y-95559095D01*
X125383199Y-95567695D01*
X125320401Y-95685183D01*
X125229701Y-95795701D01*
X125119183Y-95886401D01*
X125037014Y-95930320D01*
X124993095Y-95953796D01*
X124964744Y-95962396D01*
X124856281Y-95995298D01*
X124749657Y-96005800D01*
X124678343Y-96005800D01*
X124571719Y-95995298D01*
X124463256Y-95962396D01*
X124434905Y-95953796D01*
X124390986Y-95930320D01*
X124308817Y-95886401D01*
X124198299Y-95795701D01*
X124107599Y-95685183D01*
X124044801Y-95567695D01*
X124040204Y-95559095D01*
X124012424Y-95467515D01*
X123998702Y-95422281D01*
X123984688Y-95280000D01*
X123998702Y-95137719D01*
X124037595Y-95009506D01*
X124040204Y-95000905D01*
X124063680Y-94956986D01*
X124107599Y-94874817D01*
X124198299Y-94764299D01*
X124308817Y-94673599D01*
X124418816Y-94614804D01*
X124434905Y-94606204D01*
X124476407Y-94593615D01*
X124571719Y-94564702D01*
X124678343Y-94554200D01*
X124749657Y-94554200D01*
X124856281Y-94564702D01*
X124856281Y-94564702D01*
G37*
G36*
X142986181Y-94156634D02*
G01*
X143023471Y-94167946D01*
X143057840Y-94186316D01*
X143087963Y-94211037D01*
X143112684Y-94241160D01*
X143131054Y-94275529D01*
X143142366Y-94312819D01*
X143146800Y-94357836D01*
X143146800Y-95098164D01*
X143142366Y-95143181D01*
X143131054Y-95180471D01*
X143112684Y-95214840D01*
X143087963Y-95244963D01*
X143057840Y-95269684D01*
X143023471Y-95288054D01*
X142986181Y-95299366D01*
X142941164Y-95303800D01*
X142300836Y-95303800D01*
X142255819Y-95299366D01*
X142218529Y-95288054D01*
X142184160Y-95269684D01*
X142154037Y-95244963D01*
X142129316Y-95214840D01*
X142110946Y-95180471D01*
X142099634Y-95143181D01*
X142095200Y-95098164D01*
X142095200Y-94357836D01*
X142099634Y-94312819D01*
X142110946Y-94275529D01*
X142129316Y-94241160D01*
X142154037Y-94211037D01*
X142184160Y-94186316D01*
X142218529Y-94167946D01*
X142255819Y-94156634D01*
X142300836Y-94152200D01*
X142941164Y-94152200D01*
X142986181Y-94156634D01*
X142986181Y-94156634D01*
G37*
G36*
X157402588Y-93473233D02*
G01*
X157572388Y-93524742D01*
X157728881Y-93608389D01*
X157866044Y-93720956D01*
X157978611Y-93858119D01*
X158062258Y-94014612D01*
X158113767Y-94184412D01*
X158131159Y-94361000D01*
X158113767Y-94537588D01*
X158062258Y-94707388D01*
X157978611Y-94863881D01*
X157866044Y-95001044D01*
X157728881Y-95113611D01*
X157572388Y-95197258D01*
X157402588Y-95248767D01*
X157270259Y-95261800D01*
X157181741Y-95261800D01*
X157049412Y-95248767D01*
X156879612Y-95197258D01*
X156723119Y-95113611D01*
X156585956Y-95001044D01*
X156473389Y-94863881D01*
X156389742Y-94707388D01*
X156338233Y-94537588D01*
X156320841Y-94361000D01*
X156338233Y-94184412D01*
X156389742Y-94014612D01*
X156473389Y-93858119D01*
X156585956Y-93720956D01*
X156723119Y-93608389D01*
X156879612Y-93524742D01*
X157049412Y-93473233D01*
X157181741Y-93460200D01*
X157270259Y-93460200D01*
X157402588Y-93473233D01*
X157402588Y-93473233D01*
G37*
G36*
X159942588Y-93473233D02*
G01*
X160112388Y-93524742D01*
X160268881Y-93608389D01*
X160406044Y-93720956D01*
X160518611Y-93858119D01*
X160602258Y-94014612D01*
X160653767Y-94184412D01*
X160671159Y-94361000D01*
X160653767Y-94537588D01*
X160602258Y-94707388D01*
X160518611Y-94863881D01*
X160406044Y-95001044D01*
X160268881Y-95113611D01*
X160112388Y-95197258D01*
X159942588Y-95248767D01*
X159810259Y-95261800D01*
X159721741Y-95261800D01*
X159589412Y-95248767D01*
X159419612Y-95197258D01*
X159263119Y-95113611D01*
X159125956Y-95001044D01*
X159013389Y-94863881D01*
X158929742Y-94707388D01*
X158878233Y-94537588D01*
X158860841Y-94361000D01*
X158878233Y-94184412D01*
X158929742Y-94014612D01*
X159013389Y-93858119D01*
X159125956Y-93720956D01*
X159263119Y-93608389D01*
X159419612Y-93524742D01*
X159589412Y-93473233D01*
X159721741Y-93460200D01*
X159810259Y-93460200D01*
X159942588Y-93473233D01*
X159942588Y-93473233D01*
G37*
G36*
X130418800Y-95182800D02*
G01*
X129677200Y-95182800D01*
X129677200Y-93081200D01*
X130418800Y-93081200D01*
X130418800Y-95182800D01*
X130418800Y-95182800D01*
G37*
G36*
X127878800Y-95182800D02*
G01*
X127137200Y-95182800D01*
X127137200Y-93081200D01*
X127878800Y-93081200D01*
X127878800Y-95182800D01*
X127878800Y-95182800D01*
G37*
G36*
X129148800Y-95182800D02*
G01*
X128407200Y-95182800D01*
X128407200Y-93081200D01*
X129148800Y-93081200D01*
X129148800Y-95182800D01*
X129148800Y-95182800D01*
G37*
G36*
X146852681Y-92573302D02*
G01*
X146938437Y-92599316D01*
X146989495Y-92614804D01*
X147033414Y-92638280D01*
X147115583Y-92682199D01*
X147226101Y-92772899D01*
X147316801Y-92883417D01*
X147360720Y-92965586D01*
X147384196Y-93009505D01*
X147384196Y-93009506D01*
X147425698Y-93146319D01*
X147439712Y-93288600D01*
X147425698Y-93430881D01*
X147412850Y-93473234D01*
X147384196Y-93567695D01*
X147382022Y-93571762D01*
X147316801Y-93693783D01*
X147226101Y-93804301D01*
X147115583Y-93895001D01*
X147033414Y-93938920D01*
X146989495Y-93962396D01*
X146947993Y-93974985D01*
X146852681Y-94003898D01*
X146746057Y-94014400D01*
X146674743Y-94014400D01*
X146568119Y-94003898D01*
X146472807Y-93974985D01*
X146431305Y-93962396D01*
X146387386Y-93938920D01*
X146305217Y-93895001D01*
X146194699Y-93804301D01*
X146103999Y-93693783D01*
X146038778Y-93571762D01*
X146036604Y-93567695D01*
X146007950Y-93473234D01*
X145995102Y-93430881D01*
X145981088Y-93288600D01*
X145995102Y-93146319D01*
X146036604Y-93009506D01*
X146036604Y-93009505D01*
X146060080Y-92965586D01*
X146103999Y-92883417D01*
X146194699Y-92772899D01*
X146305217Y-92682199D01*
X146387386Y-92638280D01*
X146431305Y-92614804D01*
X146482363Y-92599316D01*
X146568119Y-92573302D01*
X146674743Y-92562800D01*
X146746057Y-92562800D01*
X146852681Y-92573302D01*
X146852681Y-92573302D01*
G37*
G36*
X124856281Y-92564702D02*
G01*
X124951593Y-92593615D01*
X124993095Y-92606204D01*
X125009184Y-92614804D01*
X125119183Y-92673599D01*
X125229701Y-92764299D01*
X125320401Y-92874817D01*
X125364320Y-92956986D01*
X125387796Y-93000905D01*
X125390405Y-93009506D01*
X125429298Y-93137719D01*
X125443312Y-93280000D01*
X125429298Y-93422281D01*
X125403837Y-93506214D01*
X125387796Y-93559095D01*
X125365368Y-93601054D01*
X125320401Y-93685183D01*
X125229701Y-93795701D01*
X125119183Y-93886401D01*
X125054826Y-93920800D01*
X124993095Y-93953796D01*
X124964744Y-93962396D01*
X124856281Y-93995298D01*
X124749657Y-94005800D01*
X124678343Y-94005800D01*
X124571719Y-93995298D01*
X124463256Y-93962396D01*
X124434905Y-93953796D01*
X124373174Y-93920800D01*
X124308817Y-93886401D01*
X124198299Y-93795701D01*
X124107599Y-93685183D01*
X124062632Y-93601054D01*
X124040204Y-93559095D01*
X124024163Y-93506214D01*
X123998702Y-93422281D01*
X123984688Y-93280000D01*
X123998702Y-93137719D01*
X124037595Y-93009506D01*
X124040204Y-93000905D01*
X124063680Y-92956986D01*
X124107599Y-92874817D01*
X124198299Y-92764299D01*
X124308817Y-92673599D01*
X124418816Y-92614804D01*
X124434905Y-92606204D01*
X124476407Y-92593615D01*
X124571719Y-92564702D01*
X124678343Y-92554200D01*
X124749657Y-92554200D01*
X124856281Y-92564702D01*
X124856281Y-92564702D01*
G37*
G36*
X134350181Y-92773634D02*
G01*
X134387471Y-92784946D01*
X134421840Y-92803316D01*
X134451963Y-92828037D01*
X134476684Y-92858160D01*
X134495054Y-92892529D01*
X134506366Y-92929819D01*
X134510800Y-92974836D01*
X134510800Y-93715164D01*
X134506366Y-93760181D01*
X134495054Y-93797471D01*
X134476684Y-93831840D01*
X134451963Y-93861963D01*
X134421840Y-93886684D01*
X134387471Y-93905054D01*
X134350181Y-93916366D01*
X134305164Y-93920800D01*
X133664836Y-93920800D01*
X133619819Y-93916366D01*
X133582529Y-93905054D01*
X133548160Y-93886684D01*
X133518037Y-93861963D01*
X133493316Y-93831840D01*
X133474946Y-93797471D01*
X133463634Y-93760181D01*
X133459200Y-93715164D01*
X133459200Y-92974836D01*
X133463634Y-92929819D01*
X133474946Y-92892529D01*
X133493316Y-92858160D01*
X133518037Y-92828037D01*
X133548160Y-92803316D01*
X133582529Y-92784946D01*
X133619819Y-92773634D01*
X133664836Y-92769200D01*
X134305164Y-92769200D01*
X134350181Y-92773634D01*
X134350181Y-92773634D01*
G37*
G36*
X116986949Y-92281150D02*
G01*
X117024414Y-92292515D01*
X117058938Y-92310969D01*
X117089198Y-92335802D01*
X117114031Y-92366062D01*
X117132485Y-92400586D01*
X117143850Y-92438051D01*
X117148300Y-92483238D01*
X117148300Y-93571762D01*
X117143850Y-93616949D01*
X117132485Y-93654414D01*
X117114031Y-93688938D01*
X117089198Y-93719198D01*
X117058938Y-93744031D01*
X117024414Y-93762485D01*
X116986949Y-93773850D01*
X116941762Y-93778300D01*
X116103238Y-93778300D01*
X116058051Y-93773850D01*
X116020586Y-93762485D01*
X115986062Y-93744031D01*
X115955802Y-93719198D01*
X115930969Y-93688938D01*
X115912515Y-93654414D01*
X115901150Y-93616949D01*
X115896700Y-93571762D01*
X115896700Y-92483238D01*
X115901150Y-92438051D01*
X115912515Y-92400586D01*
X115930969Y-92366062D01*
X115955802Y-92335802D01*
X115986062Y-92310969D01*
X116020586Y-92292515D01*
X116058051Y-92281150D01*
X116103238Y-92276700D01*
X116941762Y-92276700D01*
X116986949Y-92281150D01*
X116986949Y-92281150D01*
G37*
G36*
X114936949Y-92281150D02*
G01*
X114974414Y-92292515D01*
X115008938Y-92310969D01*
X115039198Y-92335802D01*
X115064031Y-92366062D01*
X115082485Y-92400586D01*
X115093850Y-92438051D01*
X115098300Y-92483238D01*
X115098300Y-93571762D01*
X115093850Y-93616949D01*
X115082485Y-93654414D01*
X115064031Y-93688938D01*
X115039198Y-93719198D01*
X115008938Y-93744031D01*
X114974414Y-93762485D01*
X114936949Y-93773850D01*
X114891762Y-93778300D01*
X114053238Y-93778300D01*
X114008051Y-93773850D01*
X113970586Y-93762485D01*
X113936062Y-93744031D01*
X113905802Y-93719198D01*
X113880969Y-93688938D01*
X113862515Y-93654414D01*
X113851150Y-93616949D01*
X113846700Y-93571762D01*
X113846700Y-92483238D01*
X113851150Y-92438051D01*
X113862515Y-92400586D01*
X113880969Y-92366062D01*
X113905802Y-92335802D01*
X113936062Y-92310969D01*
X113970586Y-92292515D01*
X114008051Y-92281150D01*
X114053238Y-92276700D01*
X114891762Y-92276700D01*
X114936949Y-92281150D01*
X114936949Y-92281150D01*
G37*
G36*
X118969681Y-92569634D02*
G01*
X119006971Y-92580946D01*
X119041340Y-92599316D01*
X119071463Y-92624037D01*
X119096184Y-92654160D01*
X119114554Y-92688529D01*
X119125866Y-92725819D01*
X119130300Y-92770836D01*
X119130300Y-93411164D01*
X119125866Y-93456181D01*
X119114554Y-93493471D01*
X119096184Y-93527840D01*
X119071463Y-93557963D01*
X119041340Y-93582684D01*
X119006971Y-93601054D01*
X118969681Y-93612366D01*
X118924664Y-93616800D01*
X118184336Y-93616800D01*
X118139319Y-93612366D01*
X118102029Y-93601054D01*
X118067660Y-93582684D01*
X118037537Y-93557963D01*
X118012816Y-93527840D01*
X117994446Y-93493471D01*
X117983134Y-93456181D01*
X117978700Y-93411164D01*
X117978700Y-92770836D01*
X117983134Y-92725819D01*
X117994446Y-92688529D01*
X118012816Y-92654160D01*
X118037537Y-92624037D01*
X118067660Y-92599316D01*
X118102029Y-92580946D01*
X118139319Y-92569634D01*
X118184336Y-92565200D01*
X118924664Y-92565200D01*
X118969681Y-92569634D01*
X118969681Y-92569634D01*
G37*
G36*
X120719681Y-92569634D02*
G01*
X120756971Y-92580946D01*
X120791340Y-92599316D01*
X120821463Y-92624037D01*
X120846184Y-92654160D01*
X120864554Y-92688529D01*
X120875866Y-92725819D01*
X120880300Y-92770836D01*
X120880300Y-93411164D01*
X120875866Y-93456181D01*
X120864554Y-93493471D01*
X120846184Y-93527840D01*
X120821463Y-93557963D01*
X120791340Y-93582684D01*
X120756971Y-93601054D01*
X120719681Y-93612366D01*
X120674664Y-93616800D01*
X119934336Y-93616800D01*
X119889319Y-93612366D01*
X119852029Y-93601054D01*
X119817660Y-93582684D01*
X119787537Y-93557963D01*
X119762816Y-93527840D01*
X119744446Y-93493471D01*
X119733134Y-93456181D01*
X119728700Y-93411164D01*
X119728700Y-92770836D01*
X119733134Y-92725819D01*
X119744446Y-92688529D01*
X119762816Y-92654160D01*
X119787537Y-92624037D01*
X119817660Y-92599316D01*
X119852029Y-92580946D01*
X119889319Y-92569634D01*
X119934336Y-92565200D01*
X120674664Y-92565200D01*
X120719681Y-92569634D01*
X120719681Y-92569634D01*
G37*
G36*
X142986181Y-92406634D02*
G01*
X143023471Y-92417946D01*
X143057840Y-92436316D01*
X143087963Y-92461037D01*
X143112684Y-92491160D01*
X143131054Y-92525529D01*
X143142366Y-92562819D01*
X143146800Y-92607836D01*
X143146800Y-93348164D01*
X143142366Y-93393181D01*
X143131054Y-93430471D01*
X143112684Y-93464840D01*
X143087963Y-93494963D01*
X143057840Y-93519684D01*
X143023471Y-93538054D01*
X142986181Y-93549366D01*
X142941164Y-93553800D01*
X142300836Y-93553800D01*
X142255819Y-93549366D01*
X142218529Y-93538054D01*
X142184160Y-93519684D01*
X142154037Y-93494963D01*
X142129316Y-93464840D01*
X142110946Y-93430471D01*
X142099634Y-93393181D01*
X142095200Y-93348164D01*
X142095200Y-92607836D01*
X142099634Y-92562819D01*
X142110946Y-92525529D01*
X142129316Y-92491160D01*
X142154037Y-92461037D01*
X142184160Y-92436316D01*
X142218529Y-92417946D01*
X142255819Y-92406634D01*
X142300836Y-92402200D01*
X142941164Y-92402200D01*
X142986181Y-92406634D01*
X142986181Y-92406634D01*
G37*
G36*
X159942588Y-90933233D02*
G01*
X160112388Y-90984742D01*
X160268881Y-91068389D01*
X160406044Y-91180956D01*
X160518611Y-91318119D01*
X160602258Y-91474612D01*
X160653767Y-91644412D01*
X160671159Y-91821000D01*
X160653767Y-91997588D01*
X160602258Y-92167388D01*
X160518611Y-92323881D01*
X160406044Y-92461044D01*
X160268881Y-92573611D01*
X160112388Y-92657258D01*
X159942588Y-92708767D01*
X159810259Y-92721800D01*
X159721741Y-92721800D01*
X159589412Y-92708767D01*
X159419612Y-92657258D01*
X159263119Y-92573611D01*
X159125956Y-92461044D01*
X159013389Y-92323881D01*
X158929742Y-92167388D01*
X158878233Y-91997588D01*
X158860841Y-91821000D01*
X158878233Y-91644412D01*
X158929742Y-91474612D01*
X159013389Y-91318119D01*
X159125956Y-91180956D01*
X159263119Y-91068389D01*
X159419612Y-90984742D01*
X159589412Y-90933233D01*
X159721741Y-90920200D01*
X159810259Y-90920200D01*
X159942588Y-90933233D01*
X159942588Y-90933233D01*
G37*
G36*
X157402588Y-90933233D02*
G01*
X157572388Y-90984742D01*
X157728881Y-91068389D01*
X157866044Y-91180956D01*
X157978611Y-91318119D01*
X158062258Y-91474612D01*
X158113767Y-91644412D01*
X158131159Y-91821000D01*
X158113767Y-91997588D01*
X158062258Y-92167388D01*
X157978611Y-92323881D01*
X157866044Y-92461044D01*
X157728881Y-92573611D01*
X157572388Y-92657258D01*
X157402588Y-92708767D01*
X157270259Y-92721800D01*
X157181741Y-92721800D01*
X157049412Y-92708767D01*
X156879612Y-92657258D01*
X156723119Y-92573611D01*
X156585956Y-92461044D01*
X156473389Y-92323881D01*
X156389742Y-92167388D01*
X156338233Y-91997588D01*
X156320841Y-91821000D01*
X156338233Y-91644412D01*
X156389742Y-91474612D01*
X156473389Y-91318119D01*
X156585956Y-91180956D01*
X156723119Y-91068389D01*
X156879612Y-90984742D01*
X157049412Y-90933233D01*
X157181741Y-90920200D01*
X157270259Y-90920200D01*
X157402588Y-90933233D01*
X157402588Y-90933233D01*
G37*
G36*
X153196181Y-91299634D02*
G01*
X153233471Y-91310946D01*
X153267840Y-91329316D01*
X153297963Y-91354037D01*
X153322684Y-91384160D01*
X153341054Y-91418529D01*
X153352366Y-91455819D01*
X153356800Y-91500836D01*
X153356800Y-92141164D01*
X153352366Y-92186181D01*
X153341054Y-92223471D01*
X153322684Y-92257840D01*
X153297963Y-92287963D01*
X153267840Y-92312684D01*
X153233471Y-92331054D01*
X153196181Y-92342366D01*
X153151164Y-92346800D01*
X152410836Y-92346800D01*
X152365819Y-92342366D01*
X152328529Y-92331054D01*
X152294160Y-92312684D01*
X152264037Y-92287963D01*
X152239316Y-92257840D01*
X152220946Y-92223471D01*
X152209634Y-92186181D01*
X152205200Y-92141164D01*
X152205200Y-91500836D01*
X152209634Y-91455819D01*
X152220946Y-91418529D01*
X152239316Y-91384160D01*
X152264037Y-91354037D01*
X152294160Y-91329316D01*
X152328529Y-91310946D01*
X152365819Y-91299634D01*
X152410836Y-91295200D01*
X153151164Y-91295200D01*
X153196181Y-91299634D01*
X153196181Y-91299634D01*
G37*
G36*
X151446181Y-91299634D02*
G01*
X151483471Y-91310946D01*
X151517840Y-91329316D01*
X151547963Y-91354037D01*
X151572684Y-91384160D01*
X151591054Y-91418529D01*
X151602366Y-91455819D01*
X151606800Y-91500836D01*
X151606800Y-92141164D01*
X151602366Y-92186181D01*
X151591054Y-92223471D01*
X151572684Y-92257840D01*
X151547963Y-92287963D01*
X151517840Y-92312684D01*
X151483471Y-92331054D01*
X151446181Y-92342366D01*
X151401164Y-92346800D01*
X150660836Y-92346800D01*
X150615819Y-92342366D01*
X150578529Y-92331054D01*
X150544160Y-92312684D01*
X150514037Y-92287963D01*
X150489316Y-92257840D01*
X150470946Y-92223471D01*
X150459634Y-92186181D01*
X150455200Y-92141164D01*
X150455200Y-91500836D01*
X150459634Y-91455819D01*
X150470946Y-91418529D01*
X150489316Y-91384160D01*
X150514037Y-91354037D01*
X150544160Y-91329316D01*
X150578529Y-91310946D01*
X150615819Y-91299634D01*
X150660836Y-91295200D01*
X151401164Y-91295200D01*
X151446181Y-91299634D01*
X151446181Y-91299634D01*
G37*
G36*
X134350181Y-91023634D02*
G01*
X134387471Y-91034946D01*
X134421840Y-91053316D01*
X134451963Y-91078037D01*
X134476684Y-91108160D01*
X134495054Y-91142529D01*
X134506366Y-91179819D01*
X134510800Y-91224836D01*
X134510800Y-91965164D01*
X134506366Y-92010181D01*
X134495054Y-92047471D01*
X134476684Y-92081840D01*
X134451963Y-92111963D01*
X134421840Y-92136684D01*
X134387471Y-92155054D01*
X134350181Y-92166366D01*
X134305164Y-92170800D01*
X133664836Y-92170800D01*
X133619819Y-92166366D01*
X133582529Y-92155054D01*
X133548160Y-92136684D01*
X133518037Y-92111963D01*
X133493316Y-92081840D01*
X133474946Y-92047471D01*
X133463634Y-92010181D01*
X133459200Y-91965164D01*
X133459200Y-91224836D01*
X133463634Y-91179819D01*
X133474946Y-91142529D01*
X133493316Y-91108160D01*
X133518037Y-91078037D01*
X133548160Y-91053316D01*
X133582529Y-91034946D01*
X133619819Y-91023634D01*
X133664836Y-91019200D01*
X134305164Y-91019200D01*
X134350181Y-91023634D01*
X134350181Y-91023634D01*
G37*
G36*
X146852681Y-90573302D02*
G01*
X146947993Y-90602215D01*
X146989495Y-90614804D01*
X147030951Y-90636963D01*
X147115583Y-90682199D01*
X147226101Y-90772899D01*
X147316801Y-90883417D01*
X147343428Y-90933234D01*
X147384196Y-91009505D01*
X147384196Y-91009506D01*
X147425698Y-91146319D01*
X147439712Y-91288600D01*
X147425698Y-91430881D01*
X147412432Y-91474612D01*
X147384196Y-91567695D01*
X147360720Y-91611614D01*
X147316801Y-91693783D01*
X147226101Y-91804301D01*
X147115583Y-91895001D01*
X147033414Y-91938920D01*
X146989495Y-91962396D01*
X146947993Y-91974985D01*
X146852681Y-92003898D01*
X146746057Y-92014400D01*
X146674743Y-92014400D01*
X146568119Y-92003898D01*
X146472807Y-91974985D01*
X146431305Y-91962396D01*
X146387386Y-91938920D01*
X146305217Y-91895001D01*
X146194699Y-91804301D01*
X146103999Y-91693783D01*
X146060080Y-91611614D01*
X146036604Y-91567695D01*
X146008368Y-91474612D01*
X145995102Y-91430881D01*
X145981088Y-91288600D01*
X145995102Y-91146319D01*
X146036604Y-91009506D01*
X146036604Y-91009505D01*
X146077372Y-90933234D01*
X146103999Y-90883417D01*
X146194699Y-90772899D01*
X146305217Y-90682199D01*
X146389849Y-90636963D01*
X146431305Y-90614804D01*
X146472807Y-90602215D01*
X146568119Y-90573302D01*
X146674743Y-90562800D01*
X146746057Y-90562800D01*
X146852681Y-90573302D01*
X146852681Y-90573302D01*
G37*
G36*
X124856281Y-90564702D02*
G01*
X124951593Y-90593615D01*
X124993095Y-90606204D01*
X125037014Y-90629680D01*
X125119183Y-90673599D01*
X125229701Y-90764299D01*
X125320401Y-90874817D01*
X125351625Y-90933234D01*
X125387796Y-91000905D01*
X125394691Y-91023634D01*
X125429298Y-91137719D01*
X125443312Y-91280000D01*
X125429298Y-91422281D01*
X125413423Y-91474612D01*
X125387796Y-91559095D01*
X125383199Y-91567695D01*
X125320401Y-91685183D01*
X125229701Y-91795701D01*
X125119183Y-91886401D01*
X125037014Y-91930320D01*
X124993095Y-91953796D01*
X124975316Y-91959189D01*
X124856281Y-91995298D01*
X124749657Y-92005800D01*
X124678343Y-92005800D01*
X124571719Y-91995298D01*
X124452684Y-91959189D01*
X124434905Y-91953796D01*
X124390986Y-91930320D01*
X124308817Y-91886401D01*
X124198299Y-91795701D01*
X124107599Y-91685183D01*
X124044801Y-91567695D01*
X124040204Y-91559095D01*
X124014577Y-91474612D01*
X123998702Y-91422281D01*
X123984688Y-91280000D01*
X123998702Y-91137719D01*
X124033309Y-91023634D01*
X124040204Y-91000905D01*
X124076375Y-90933234D01*
X124107599Y-90874817D01*
X124198299Y-90764299D01*
X124308817Y-90673599D01*
X124390986Y-90629680D01*
X124434905Y-90606204D01*
X124476407Y-90593615D01*
X124571719Y-90564702D01*
X124678343Y-90554200D01*
X124749657Y-90554200D01*
X124856281Y-90564702D01*
X124856281Y-90564702D01*
G37*
G36*
X130357800Y-91807800D02*
G01*
X127706200Y-91807800D01*
X127706200Y-90646200D01*
X130357800Y-90646200D01*
X130357800Y-91807800D01*
X130357800Y-91807800D01*
G37*
G36*
X114842181Y-89648634D02*
G01*
X114879471Y-89659946D01*
X114913840Y-89678316D01*
X114943963Y-89703037D01*
X114968684Y-89733160D01*
X114987054Y-89767529D01*
X114998366Y-89804819D01*
X115002800Y-89849836D01*
X115002800Y-90490164D01*
X114998366Y-90535181D01*
X114987054Y-90572471D01*
X114968684Y-90606840D01*
X114943963Y-90636963D01*
X114913840Y-90661684D01*
X114879471Y-90680054D01*
X114842181Y-90691366D01*
X114797164Y-90695800D01*
X114056836Y-90695800D01*
X114011819Y-90691366D01*
X113974529Y-90680054D01*
X113940160Y-90661684D01*
X113910037Y-90636963D01*
X113885316Y-90606840D01*
X113866946Y-90572471D01*
X113855634Y-90535181D01*
X113851200Y-90490164D01*
X113851200Y-89849836D01*
X113855634Y-89804819D01*
X113866946Y-89767529D01*
X113885316Y-89733160D01*
X113910037Y-89703037D01*
X113940160Y-89678316D01*
X113974529Y-89659946D01*
X114011819Y-89648634D01*
X114056836Y-89644200D01*
X114797164Y-89644200D01*
X114842181Y-89648634D01*
X114842181Y-89648634D01*
G37*
G36*
X116592181Y-89648634D02*
G01*
X116629471Y-89659946D01*
X116663840Y-89678316D01*
X116693963Y-89703037D01*
X116718684Y-89733160D01*
X116737054Y-89767529D01*
X116748366Y-89804819D01*
X116752800Y-89849836D01*
X116752800Y-90490164D01*
X116748366Y-90535181D01*
X116737054Y-90572471D01*
X116718684Y-90606840D01*
X116693963Y-90636963D01*
X116663840Y-90661684D01*
X116629471Y-90680054D01*
X116592181Y-90691366D01*
X116547164Y-90695800D01*
X115806836Y-90695800D01*
X115761819Y-90691366D01*
X115724529Y-90680054D01*
X115690160Y-90661684D01*
X115660037Y-90636963D01*
X115635316Y-90606840D01*
X115616946Y-90572471D01*
X115605634Y-90535181D01*
X115601200Y-90490164D01*
X115601200Y-89849836D01*
X115605634Y-89804819D01*
X115616946Y-89767529D01*
X115635316Y-89733160D01*
X115660037Y-89703037D01*
X115690160Y-89678316D01*
X115724529Y-89659946D01*
X115761819Y-89648634D01*
X115806836Y-89644200D01*
X116547164Y-89644200D01*
X116592181Y-89648634D01*
X116592181Y-89648634D01*
G37*
G36*
X141371181Y-89267634D02*
G01*
X141408471Y-89278946D01*
X141442840Y-89297316D01*
X141472963Y-89322037D01*
X141497684Y-89352160D01*
X141516054Y-89386529D01*
X141527366Y-89423819D01*
X141531800Y-89468836D01*
X141531800Y-90109164D01*
X141527366Y-90154181D01*
X141516054Y-90191471D01*
X141497684Y-90225840D01*
X141472963Y-90255963D01*
X141442840Y-90280684D01*
X141408471Y-90299054D01*
X141371181Y-90310366D01*
X141326164Y-90314800D01*
X140585836Y-90314800D01*
X140540819Y-90310366D01*
X140503529Y-90299054D01*
X140469160Y-90280684D01*
X140439037Y-90255963D01*
X140414316Y-90225840D01*
X140395946Y-90191471D01*
X140384634Y-90154181D01*
X140380200Y-90109164D01*
X140380200Y-89468836D01*
X140384634Y-89423819D01*
X140395946Y-89386529D01*
X140414316Y-89352160D01*
X140439037Y-89322037D01*
X140469160Y-89297316D01*
X140503529Y-89278946D01*
X140540819Y-89267634D01*
X140585836Y-89263200D01*
X141326164Y-89263200D01*
X141371181Y-89267634D01*
X141371181Y-89267634D01*
G37*
G36*
X139621181Y-89267634D02*
G01*
X139658471Y-89278946D01*
X139692840Y-89297316D01*
X139722963Y-89322037D01*
X139747684Y-89352160D01*
X139766054Y-89386529D01*
X139777366Y-89423819D01*
X139781800Y-89468836D01*
X139781800Y-90109164D01*
X139777366Y-90154181D01*
X139766054Y-90191471D01*
X139747684Y-90225840D01*
X139722963Y-90255963D01*
X139692840Y-90280684D01*
X139658471Y-90299054D01*
X139621181Y-90310366D01*
X139576164Y-90314800D01*
X138835836Y-90314800D01*
X138790819Y-90310366D01*
X138753529Y-90299054D01*
X138719160Y-90280684D01*
X138689037Y-90255963D01*
X138664316Y-90225840D01*
X138645946Y-90191471D01*
X138634634Y-90154181D01*
X138630200Y-90109164D01*
X138630200Y-89468836D01*
X138634634Y-89423819D01*
X138645946Y-89386529D01*
X138664316Y-89352160D01*
X138689037Y-89322037D01*
X138719160Y-89297316D01*
X138753529Y-89278946D01*
X138790819Y-89267634D01*
X138835836Y-89263200D01*
X139576164Y-89263200D01*
X139621181Y-89267634D01*
X139621181Y-89267634D01*
G37*
G36*
X157402588Y-88393233D02*
G01*
X157572388Y-88444742D01*
X157728881Y-88528389D01*
X157866044Y-88640956D01*
X157978611Y-88778119D01*
X158062258Y-88934612D01*
X158113767Y-89104412D01*
X158131159Y-89281000D01*
X158113767Y-89457588D01*
X158062258Y-89627388D01*
X157978611Y-89783881D01*
X157866044Y-89921044D01*
X157728881Y-90033611D01*
X157572388Y-90117258D01*
X157402588Y-90168767D01*
X157270259Y-90181800D01*
X157181741Y-90181800D01*
X157049412Y-90168767D01*
X156879612Y-90117258D01*
X156723119Y-90033611D01*
X156585956Y-89921044D01*
X156473389Y-89783881D01*
X156389742Y-89627388D01*
X156338233Y-89457588D01*
X156320841Y-89281000D01*
X156338233Y-89104412D01*
X156389742Y-88934612D01*
X156473389Y-88778119D01*
X156585956Y-88640956D01*
X156723119Y-88528389D01*
X156879612Y-88444742D01*
X157049412Y-88393233D01*
X157181741Y-88380200D01*
X157270259Y-88380200D01*
X157402588Y-88393233D01*
X157402588Y-88393233D01*
G37*
G36*
X159942588Y-88393233D02*
G01*
X160112388Y-88444742D01*
X160268881Y-88528389D01*
X160406044Y-88640956D01*
X160518611Y-88778119D01*
X160602258Y-88934612D01*
X160653767Y-89104412D01*
X160671159Y-89281000D01*
X160653767Y-89457588D01*
X160602258Y-89627388D01*
X160518611Y-89783881D01*
X160406044Y-89921044D01*
X160268881Y-90033611D01*
X160112388Y-90117258D01*
X159942588Y-90168767D01*
X159810259Y-90181800D01*
X159721741Y-90181800D01*
X159589412Y-90168767D01*
X159419612Y-90117258D01*
X159263119Y-90033611D01*
X159125956Y-89921044D01*
X159013389Y-89783881D01*
X158929742Y-89627388D01*
X158878233Y-89457588D01*
X158860841Y-89281000D01*
X158878233Y-89104412D01*
X158929742Y-88934612D01*
X159013389Y-88778119D01*
X159125956Y-88640956D01*
X159263119Y-88528389D01*
X159419612Y-88444742D01*
X159589412Y-88393233D01*
X159721741Y-88380200D01*
X159810259Y-88380200D01*
X159942588Y-88393233D01*
X159942588Y-88393233D01*
G37*
G36*
X146852681Y-88573302D02*
G01*
X146947993Y-88602215D01*
X146989495Y-88614804D01*
X147033414Y-88638280D01*
X147115583Y-88682199D01*
X147226101Y-88772899D01*
X147316801Y-88883417D01*
X147344164Y-88934611D01*
X147384196Y-89009505D01*
X147384196Y-89009506D01*
X147425698Y-89146319D01*
X147439712Y-89288600D01*
X147425698Y-89430881D01*
X147417596Y-89457588D01*
X147384196Y-89567695D01*
X147369500Y-89595189D01*
X147316801Y-89693783D01*
X147226101Y-89804301D01*
X147115583Y-89895001D01*
X147066859Y-89921044D01*
X146989495Y-89962396D01*
X146947993Y-89974985D01*
X146852681Y-90003898D01*
X146746057Y-90014400D01*
X146674743Y-90014400D01*
X146568119Y-90003898D01*
X146472807Y-89974985D01*
X146431305Y-89962396D01*
X146353941Y-89921044D01*
X146305217Y-89895001D01*
X146194699Y-89804301D01*
X146103999Y-89693783D01*
X146051300Y-89595189D01*
X146036604Y-89567695D01*
X146003204Y-89457588D01*
X145995102Y-89430881D01*
X145981088Y-89288600D01*
X145995102Y-89146319D01*
X146036604Y-89009506D01*
X146036604Y-89009505D01*
X146076636Y-88934611D01*
X146103999Y-88883417D01*
X146194699Y-88772899D01*
X146305217Y-88682199D01*
X146387386Y-88638280D01*
X146431305Y-88614804D01*
X146472807Y-88602215D01*
X146568119Y-88573302D01*
X146674743Y-88562800D01*
X146746057Y-88562800D01*
X146852681Y-88573302D01*
X146852681Y-88573302D01*
G37*
G36*
X124856281Y-88564702D02*
G01*
X124951593Y-88593615D01*
X124993095Y-88606204D01*
X125009184Y-88614804D01*
X125119183Y-88673599D01*
X125229701Y-88764299D01*
X125320401Y-88874817D01*
X125364320Y-88956986D01*
X125387796Y-89000905D01*
X125390405Y-89009506D01*
X125429298Y-89137719D01*
X125443312Y-89280000D01*
X125429298Y-89422281D01*
X125413363Y-89474811D01*
X125387796Y-89559095D01*
X125383199Y-89567695D01*
X125320401Y-89685183D01*
X125229701Y-89795701D01*
X125119183Y-89886401D01*
X125037014Y-89930320D01*
X124993095Y-89953796D01*
X124964744Y-89962396D01*
X124856281Y-89995298D01*
X124749657Y-90005800D01*
X124678343Y-90005800D01*
X124571719Y-89995298D01*
X124463256Y-89962396D01*
X124434905Y-89953796D01*
X124390986Y-89930320D01*
X124308817Y-89886401D01*
X124198299Y-89795701D01*
X124107599Y-89685183D01*
X124044801Y-89567695D01*
X124040204Y-89559095D01*
X124014637Y-89474811D01*
X123998702Y-89422281D01*
X123984688Y-89280000D01*
X123998702Y-89137719D01*
X124037595Y-89009506D01*
X124040204Y-89000905D01*
X124063680Y-88956986D01*
X124107599Y-88874817D01*
X124198299Y-88764299D01*
X124308817Y-88673599D01*
X124418816Y-88614804D01*
X124434905Y-88606204D01*
X124476407Y-88593615D01*
X124571719Y-88564702D01*
X124678343Y-88554200D01*
X124749657Y-88554200D01*
X124856281Y-88564702D01*
X124856281Y-88564702D01*
G37*
G36*
X151446181Y-88759634D02*
G01*
X151483471Y-88770946D01*
X151517840Y-88789316D01*
X151547963Y-88814037D01*
X151572684Y-88844160D01*
X151591054Y-88878529D01*
X151602366Y-88915819D01*
X151606800Y-88960836D01*
X151606800Y-89601164D01*
X151602366Y-89646181D01*
X151591054Y-89683471D01*
X151572684Y-89717840D01*
X151547963Y-89747963D01*
X151517840Y-89772684D01*
X151483471Y-89791054D01*
X151446181Y-89802366D01*
X151401164Y-89806800D01*
X150660836Y-89806800D01*
X150615819Y-89802366D01*
X150578529Y-89791054D01*
X150544160Y-89772684D01*
X150514037Y-89747963D01*
X150489316Y-89717840D01*
X150470946Y-89683471D01*
X150459634Y-89646181D01*
X150455200Y-89601164D01*
X150455200Y-88960836D01*
X150459634Y-88915819D01*
X150470946Y-88878529D01*
X150489316Y-88844160D01*
X150514037Y-88814037D01*
X150544160Y-88789316D01*
X150578529Y-88770946D01*
X150615819Y-88759634D01*
X150660836Y-88755200D01*
X151401164Y-88755200D01*
X151446181Y-88759634D01*
X151446181Y-88759634D01*
G37*
G36*
X153196181Y-88759634D02*
G01*
X153233471Y-88770946D01*
X153267840Y-88789316D01*
X153297963Y-88814037D01*
X153322684Y-88844160D01*
X153341054Y-88878529D01*
X153352366Y-88915819D01*
X153356800Y-88960836D01*
X153356800Y-89601164D01*
X153352366Y-89646181D01*
X153341054Y-89683471D01*
X153322684Y-89717840D01*
X153297963Y-89747963D01*
X153267840Y-89772684D01*
X153233471Y-89791054D01*
X153196181Y-89802366D01*
X153151164Y-89806800D01*
X152410836Y-89806800D01*
X152365819Y-89802366D01*
X152328529Y-89791054D01*
X152294160Y-89772684D01*
X152264037Y-89747963D01*
X152239316Y-89717840D01*
X152220946Y-89683471D01*
X152209634Y-89646181D01*
X152205200Y-89601164D01*
X152205200Y-88960836D01*
X152209634Y-88915819D01*
X152220946Y-88878529D01*
X152239316Y-88844160D01*
X152264037Y-88814037D01*
X152294160Y-88789316D01*
X152328529Y-88770946D01*
X152365819Y-88759634D01*
X152410836Y-88755200D01*
X153151164Y-88755200D01*
X153196181Y-88759634D01*
X153196181Y-88759634D01*
G37*
G36*
X130357800Y-89607800D02*
G01*
X127706200Y-89607800D01*
X127706200Y-88446200D01*
X130357800Y-88446200D01*
X130357800Y-89607800D01*
X130357800Y-89607800D01*
G37*
G36*
X117004949Y-86566150D02*
G01*
X117042414Y-86577515D01*
X117076938Y-86595969D01*
X117107198Y-86620802D01*
X117132031Y-86651062D01*
X117150485Y-86685586D01*
X117161850Y-86723051D01*
X117166300Y-86768238D01*
X117166300Y-87856762D01*
X117161850Y-87901949D01*
X117150485Y-87939414D01*
X117132031Y-87973938D01*
X117107198Y-88004198D01*
X117076938Y-88029031D01*
X117042414Y-88047485D01*
X117004949Y-88058850D01*
X116959762Y-88063300D01*
X116121238Y-88063300D01*
X116076051Y-88058850D01*
X116038586Y-88047485D01*
X116004062Y-88029031D01*
X115973802Y-88004198D01*
X115948969Y-87973938D01*
X115930515Y-87939414D01*
X115919150Y-87901949D01*
X115914700Y-87856762D01*
X115914700Y-86768238D01*
X115919150Y-86723051D01*
X115930515Y-86685586D01*
X115948969Y-86651062D01*
X115973802Y-86620802D01*
X116004062Y-86595969D01*
X116038586Y-86577515D01*
X116076051Y-86566150D01*
X116121238Y-86561700D01*
X116959762Y-86561700D01*
X117004949Y-86566150D01*
X117004949Y-86566150D01*
G37*
G36*
X114954949Y-86566150D02*
G01*
X114992414Y-86577515D01*
X115026938Y-86595969D01*
X115057198Y-86620802D01*
X115082031Y-86651062D01*
X115100485Y-86685586D01*
X115111850Y-86723051D01*
X115116300Y-86768238D01*
X115116300Y-87856762D01*
X115111850Y-87901949D01*
X115100485Y-87939414D01*
X115082031Y-87973938D01*
X115057198Y-88004198D01*
X115026938Y-88029031D01*
X114992414Y-88047485D01*
X114954949Y-88058850D01*
X114909762Y-88063300D01*
X114071238Y-88063300D01*
X114026051Y-88058850D01*
X113988586Y-88047485D01*
X113954062Y-88029031D01*
X113923802Y-88004198D01*
X113898969Y-87973938D01*
X113880515Y-87939414D01*
X113869150Y-87901949D01*
X113864700Y-87856762D01*
X113864700Y-86768238D01*
X113869150Y-86723051D01*
X113880515Y-86685586D01*
X113898969Y-86651062D01*
X113923802Y-86620802D01*
X113954062Y-86595969D01*
X113988586Y-86577515D01*
X114026051Y-86566150D01*
X114071238Y-86561700D01*
X114909762Y-86561700D01*
X114954949Y-86566150D01*
X114954949Y-86566150D01*
G37*
G36*
X146852681Y-86573302D02*
G01*
X146947993Y-86602215D01*
X146989495Y-86614804D01*
X147000716Y-86620802D01*
X147115583Y-86682199D01*
X147226101Y-86772899D01*
X147316801Y-86883417D01*
X147351584Y-86948493D01*
X147384196Y-87009505D01*
X147385102Y-87012493D01*
X147425698Y-87146319D01*
X147439712Y-87288600D01*
X147425698Y-87430881D01*
X147406669Y-87493611D01*
X147384196Y-87567695D01*
X147379085Y-87577257D01*
X147316801Y-87693783D01*
X147226101Y-87804301D01*
X147115583Y-87895001D01*
X147033414Y-87938920D01*
X146989495Y-87962396D01*
X146951445Y-87973938D01*
X146852681Y-88003898D01*
X146746057Y-88014400D01*
X146674743Y-88014400D01*
X146568119Y-88003898D01*
X146469355Y-87973938D01*
X146431305Y-87962396D01*
X146387386Y-87938920D01*
X146305217Y-87895001D01*
X146194699Y-87804301D01*
X146103999Y-87693783D01*
X146041715Y-87577257D01*
X146036604Y-87567695D01*
X146014131Y-87493611D01*
X145995102Y-87430881D01*
X145981088Y-87288600D01*
X145995102Y-87146319D01*
X146035698Y-87012493D01*
X146036604Y-87009505D01*
X146069216Y-86948493D01*
X146103999Y-86883417D01*
X146194699Y-86772899D01*
X146305217Y-86682199D01*
X146420084Y-86620802D01*
X146431305Y-86614804D01*
X146472807Y-86602215D01*
X146568119Y-86573302D01*
X146674743Y-86562800D01*
X146746057Y-86562800D01*
X146852681Y-86573302D01*
X146852681Y-86573302D01*
G37*
G36*
X124856281Y-86564702D02*
G01*
X124914659Y-86582411D01*
X124993095Y-86606204D01*
X125037014Y-86629680D01*
X125119183Y-86673599D01*
X125229701Y-86764299D01*
X125320401Y-86874817D01*
X125358886Y-86946819D01*
X125387796Y-87000905D01*
X125390405Y-87009506D01*
X125429298Y-87137719D01*
X125443312Y-87280000D01*
X125429298Y-87422281D01*
X125407660Y-87493611D01*
X125387796Y-87559095D01*
X125364320Y-87603014D01*
X125320401Y-87685183D01*
X125229701Y-87795701D01*
X125119183Y-87886401D01*
X125060461Y-87917788D01*
X124993095Y-87953796D01*
X124964744Y-87962396D01*
X124856281Y-87995298D01*
X124749657Y-88005800D01*
X124678343Y-88005800D01*
X124571719Y-87995298D01*
X124463256Y-87962396D01*
X124434905Y-87953796D01*
X124367539Y-87917788D01*
X124308817Y-87886401D01*
X124198299Y-87795701D01*
X124107599Y-87685183D01*
X124063680Y-87603014D01*
X124040204Y-87559095D01*
X124020340Y-87493611D01*
X123998702Y-87422281D01*
X123984688Y-87280000D01*
X123998702Y-87137719D01*
X124037595Y-87009506D01*
X124040204Y-87000905D01*
X124069114Y-86946819D01*
X124107599Y-86874817D01*
X124198299Y-86764299D01*
X124308817Y-86673599D01*
X124390986Y-86629680D01*
X124434905Y-86606204D01*
X124513341Y-86582411D01*
X124571719Y-86564702D01*
X124678343Y-86554200D01*
X124749657Y-86554200D01*
X124856281Y-86564702D01*
X124856281Y-86564702D01*
G37*
G36*
X128381181Y-86790634D02*
G01*
X128418471Y-86801946D01*
X128452840Y-86820316D01*
X128482963Y-86845037D01*
X128507684Y-86875160D01*
X128526054Y-86909529D01*
X128537366Y-86946819D01*
X128541800Y-86991836D01*
X128541800Y-87732164D01*
X128537366Y-87777181D01*
X128526054Y-87814471D01*
X128507684Y-87848840D01*
X128482963Y-87878963D01*
X128452840Y-87903684D01*
X128418471Y-87922054D01*
X128381181Y-87933366D01*
X128336164Y-87937800D01*
X127695836Y-87937800D01*
X127650819Y-87933366D01*
X127613529Y-87922054D01*
X127579160Y-87903684D01*
X127549037Y-87878963D01*
X127524316Y-87848840D01*
X127505946Y-87814471D01*
X127494634Y-87777181D01*
X127490200Y-87732164D01*
X127490200Y-86991836D01*
X127494634Y-86946819D01*
X127505946Y-86909529D01*
X127524316Y-86875160D01*
X127549037Y-86845037D01*
X127579160Y-86820316D01*
X127613529Y-86801946D01*
X127650819Y-86790634D01*
X127695836Y-86786200D01*
X128336164Y-86786200D01*
X128381181Y-86790634D01*
X128381181Y-86790634D01*
G37*
G36*
X118969681Y-86854634D02*
G01*
X119006971Y-86865946D01*
X119041340Y-86884316D01*
X119071463Y-86909037D01*
X119096184Y-86939160D01*
X119114554Y-86973529D01*
X119125866Y-87010819D01*
X119130300Y-87055836D01*
X119130300Y-87696164D01*
X119125866Y-87741181D01*
X119114554Y-87778471D01*
X119096184Y-87812840D01*
X119071463Y-87842963D01*
X119041340Y-87867684D01*
X119006971Y-87886054D01*
X118969681Y-87897366D01*
X118924664Y-87901800D01*
X118184336Y-87901800D01*
X118139319Y-87897366D01*
X118102029Y-87886054D01*
X118067660Y-87867684D01*
X118037537Y-87842963D01*
X118012816Y-87812840D01*
X117994446Y-87778471D01*
X117983134Y-87741181D01*
X117978700Y-87696164D01*
X117978700Y-87055836D01*
X117983134Y-87010819D01*
X117994446Y-86973529D01*
X118012816Y-86939160D01*
X118037537Y-86909037D01*
X118067660Y-86884316D01*
X118102029Y-86865946D01*
X118139319Y-86854634D01*
X118184336Y-86850200D01*
X118924664Y-86850200D01*
X118969681Y-86854634D01*
X118969681Y-86854634D01*
G37*
G36*
X120719681Y-86854634D02*
G01*
X120756971Y-86865946D01*
X120791340Y-86884316D01*
X120821463Y-86909037D01*
X120846184Y-86939160D01*
X120864554Y-86973529D01*
X120875866Y-87010819D01*
X120880300Y-87055836D01*
X120880300Y-87696164D01*
X120875866Y-87741181D01*
X120864554Y-87778471D01*
X120846184Y-87812840D01*
X120821463Y-87842963D01*
X120791340Y-87867684D01*
X120756971Y-87886054D01*
X120719681Y-87897366D01*
X120674664Y-87901800D01*
X119934336Y-87901800D01*
X119889319Y-87897366D01*
X119852029Y-87886054D01*
X119817660Y-87867684D01*
X119787537Y-87842963D01*
X119762816Y-87812840D01*
X119744446Y-87778471D01*
X119733134Y-87741181D01*
X119728700Y-87696164D01*
X119728700Y-87055836D01*
X119733134Y-87010819D01*
X119744446Y-86973529D01*
X119762816Y-86939160D01*
X119787537Y-86909037D01*
X119817660Y-86884316D01*
X119852029Y-86865946D01*
X119889319Y-86854634D01*
X119934336Y-86850200D01*
X120674664Y-86850200D01*
X120719681Y-86854634D01*
X120719681Y-86854634D01*
G37*
G36*
X157402588Y-85853233D02*
G01*
X157572388Y-85904742D01*
X157728881Y-85988389D01*
X157866044Y-86100956D01*
X157978611Y-86238119D01*
X158062258Y-86394612D01*
X158113767Y-86564412D01*
X158131159Y-86741000D01*
X158113767Y-86917588D01*
X158062258Y-87087388D01*
X157978611Y-87243881D01*
X157866044Y-87381044D01*
X157728881Y-87493611D01*
X157572388Y-87577258D01*
X157402588Y-87628767D01*
X157270259Y-87641800D01*
X157181741Y-87641800D01*
X157049412Y-87628767D01*
X156879612Y-87577258D01*
X156723119Y-87493611D01*
X156585956Y-87381044D01*
X156473389Y-87243881D01*
X156389742Y-87087388D01*
X156338233Y-86917588D01*
X156320841Y-86741000D01*
X156338233Y-86564412D01*
X156389742Y-86394612D01*
X156473389Y-86238119D01*
X156585956Y-86100956D01*
X156723119Y-85988389D01*
X156879612Y-85904742D01*
X157049412Y-85853233D01*
X157181741Y-85840200D01*
X157270259Y-85840200D01*
X157402588Y-85853233D01*
X157402588Y-85853233D01*
G37*
G36*
X159942588Y-85853233D02*
G01*
X160112388Y-85904742D01*
X160268881Y-85988389D01*
X160406044Y-86100956D01*
X160518611Y-86238119D01*
X160602258Y-86394612D01*
X160653767Y-86564412D01*
X160671159Y-86741000D01*
X160653767Y-86917588D01*
X160602258Y-87087388D01*
X160518611Y-87243881D01*
X160406044Y-87381044D01*
X160268881Y-87493611D01*
X160112388Y-87577258D01*
X159942588Y-87628767D01*
X159810259Y-87641800D01*
X159721741Y-87641800D01*
X159589412Y-87628767D01*
X159419612Y-87577258D01*
X159263119Y-87493611D01*
X159125956Y-87381044D01*
X159013389Y-87243881D01*
X158929742Y-87087388D01*
X158878233Y-86917588D01*
X158860841Y-86741000D01*
X158878233Y-86564412D01*
X158929742Y-86394612D01*
X159013389Y-86238119D01*
X159125956Y-86100956D01*
X159263119Y-85988389D01*
X159419612Y-85904742D01*
X159589412Y-85853233D01*
X159721741Y-85840200D01*
X159810259Y-85840200D01*
X159942588Y-85853233D01*
X159942588Y-85853233D01*
G37*
G36*
X128381181Y-85040634D02*
G01*
X128418471Y-85051946D01*
X128452840Y-85070316D01*
X128482963Y-85095037D01*
X128507684Y-85125160D01*
X128526054Y-85159529D01*
X128537366Y-85196819D01*
X128541800Y-85241836D01*
X128541800Y-85982164D01*
X128537366Y-86027181D01*
X128526054Y-86064471D01*
X128507684Y-86098840D01*
X128482963Y-86128963D01*
X128452840Y-86153684D01*
X128418471Y-86172054D01*
X128381181Y-86183366D01*
X128336164Y-86187800D01*
X127695836Y-86187800D01*
X127650819Y-86183366D01*
X127613529Y-86172054D01*
X127579160Y-86153684D01*
X127549037Y-86128963D01*
X127524316Y-86098840D01*
X127505946Y-86064471D01*
X127494634Y-86027181D01*
X127490200Y-85982164D01*
X127490200Y-85241836D01*
X127494634Y-85196819D01*
X127505946Y-85159529D01*
X127524316Y-85125160D01*
X127549037Y-85095037D01*
X127579160Y-85070316D01*
X127613529Y-85051946D01*
X127650819Y-85040634D01*
X127695836Y-85036200D01*
X128336164Y-85036200D01*
X128381181Y-85040634D01*
X128381181Y-85040634D01*
G37*
G36*
X146852681Y-84573302D02*
G01*
X146947993Y-84602215D01*
X146989495Y-84614804D01*
X147032592Y-84637840D01*
X147115583Y-84682199D01*
X147226101Y-84772899D01*
X147316801Y-84883417D01*
X147354320Y-84953611D01*
X147384196Y-85009505D01*
X147384196Y-85009506D01*
X147425698Y-85146319D01*
X147439712Y-85288600D01*
X147425698Y-85430881D01*
X147396785Y-85526193D01*
X147384196Y-85567695D01*
X147360720Y-85611614D01*
X147316801Y-85693783D01*
X147226101Y-85804301D01*
X147115583Y-85895001D01*
X147033414Y-85938920D01*
X146989495Y-85962396D01*
X146947993Y-85974985D01*
X146852681Y-86003898D01*
X146746057Y-86014400D01*
X146674743Y-86014400D01*
X146568119Y-86003898D01*
X146472807Y-85974985D01*
X146431305Y-85962396D01*
X146387386Y-85938920D01*
X146305217Y-85895001D01*
X146194699Y-85804301D01*
X146103999Y-85693783D01*
X146060080Y-85611614D01*
X146036604Y-85567695D01*
X146024015Y-85526193D01*
X145995102Y-85430881D01*
X145981088Y-85288600D01*
X145995102Y-85146319D01*
X146036604Y-85009506D01*
X146036604Y-85009505D01*
X146066480Y-84953611D01*
X146103999Y-84883417D01*
X146194699Y-84772899D01*
X146305217Y-84682199D01*
X146388208Y-84637840D01*
X146431305Y-84614804D01*
X146472807Y-84602215D01*
X146568119Y-84573302D01*
X146674743Y-84562800D01*
X146746057Y-84562800D01*
X146852681Y-84573302D01*
X146852681Y-84573302D01*
G37*
G36*
X124856281Y-84564702D02*
G01*
X124951593Y-84593615D01*
X124993095Y-84606204D01*
X125009184Y-84614804D01*
X125119183Y-84673599D01*
X125229701Y-84764299D01*
X125320401Y-84874817D01*
X125362517Y-84953611D01*
X125387796Y-85000905D01*
X125390405Y-85009506D01*
X125429298Y-85137719D01*
X125443312Y-85280000D01*
X125429298Y-85422281D01*
X125400385Y-85517593D01*
X125387796Y-85559095D01*
X125383199Y-85567695D01*
X125320401Y-85685183D01*
X125229701Y-85795701D01*
X125119183Y-85886401D01*
X125047155Y-85924900D01*
X124993095Y-85953796D01*
X124964744Y-85962396D01*
X124856281Y-85995298D01*
X124749657Y-86005800D01*
X124678343Y-86005800D01*
X124571719Y-85995298D01*
X124463256Y-85962396D01*
X124434905Y-85953796D01*
X124380845Y-85924900D01*
X124308817Y-85886401D01*
X124198299Y-85795701D01*
X124107599Y-85685183D01*
X124044801Y-85567695D01*
X124040204Y-85559095D01*
X124027615Y-85517593D01*
X123998702Y-85422281D01*
X123984688Y-85280000D01*
X123998702Y-85137719D01*
X124037595Y-85009506D01*
X124040204Y-85000905D01*
X124065483Y-84953611D01*
X124107599Y-84874817D01*
X124198299Y-84764299D01*
X124308817Y-84673599D01*
X124418816Y-84614804D01*
X124434905Y-84606204D01*
X124476407Y-84593615D01*
X124571719Y-84564702D01*
X124678343Y-84554200D01*
X124749657Y-84554200D01*
X124856281Y-84564702D01*
X124856281Y-84564702D01*
G37*
G36*
X144841800Y-85105800D02*
G01*
X141240200Y-85105800D01*
X141240200Y-83804200D01*
X144841800Y-83804200D01*
X144841800Y-85105800D01*
X144841800Y-85105800D01*
G37*
G36*
X139341800Y-85105800D02*
G01*
X135740200Y-85105800D01*
X135740200Y-83804200D01*
X139341800Y-83804200D01*
X139341800Y-85105800D01*
X139341800Y-85105800D01*
G37*
G36*
X158126800Y-85101800D02*
G01*
X156325200Y-85101800D01*
X156325200Y-83300200D01*
X158126800Y-83300200D01*
X158126800Y-85101800D01*
X158126800Y-85101800D01*
G37*
G36*
X159942588Y-83313233D02*
G01*
X160112388Y-83364742D01*
X160268881Y-83448389D01*
X160406044Y-83560956D01*
X160518611Y-83698119D01*
X160602258Y-83854612D01*
X160653767Y-84024412D01*
X160671159Y-84201000D01*
X160653767Y-84377588D01*
X160602258Y-84547388D01*
X160518611Y-84703881D01*
X160406044Y-84841044D01*
X160268881Y-84953611D01*
X160112388Y-85037258D01*
X159942588Y-85088767D01*
X159810259Y-85101800D01*
X159721741Y-85101800D01*
X159589412Y-85088767D01*
X159419612Y-85037258D01*
X159263119Y-84953611D01*
X159125956Y-84841044D01*
X159013389Y-84703881D01*
X158929742Y-84547388D01*
X158878233Y-84377588D01*
X158860841Y-84201000D01*
X158878233Y-84024412D01*
X158929742Y-83854612D01*
X159013389Y-83698119D01*
X159125956Y-83560956D01*
X159263119Y-83448389D01*
X159419612Y-83364742D01*
X159589412Y-83313233D01*
X159721741Y-83300200D01*
X159810259Y-83300200D01*
X159942588Y-83313233D01*
X159942588Y-83313233D01*
G37*
G36*
X114954949Y-83391150D02*
G01*
X114992414Y-83402515D01*
X115026938Y-83420969D01*
X115057198Y-83445802D01*
X115082031Y-83476062D01*
X115100485Y-83510586D01*
X115111850Y-83548051D01*
X115116300Y-83593238D01*
X115116300Y-84681762D01*
X115111850Y-84726949D01*
X115100485Y-84764414D01*
X115082031Y-84798938D01*
X115057198Y-84829198D01*
X115026938Y-84854031D01*
X114992414Y-84872485D01*
X114954949Y-84883850D01*
X114909762Y-84888300D01*
X114071238Y-84888300D01*
X114026051Y-84883850D01*
X113988586Y-84872485D01*
X113954062Y-84854031D01*
X113923802Y-84829198D01*
X113898969Y-84798938D01*
X113880515Y-84764414D01*
X113869150Y-84726949D01*
X113864700Y-84681762D01*
X113864700Y-83593238D01*
X113869150Y-83548051D01*
X113880515Y-83510586D01*
X113898969Y-83476062D01*
X113923802Y-83445802D01*
X113954062Y-83420969D01*
X113988586Y-83402515D01*
X114026051Y-83391150D01*
X114071238Y-83386700D01*
X114909762Y-83386700D01*
X114954949Y-83391150D01*
X114954949Y-83391150D01*
G37*
G36*
X117004949Y-83391150D02*
G01*
X117042414Y-83402515D01*
X117076938Y-83420969D01*
X117107198Y-83445802D01*
X117132031Y-83476062D01*
X117150485Y-83510586D01*
X117161850Y-83548051D01*
X117166300Y-83593238D01*
X117166300Y-84681762D01*
X117161850Y-84726949D01*
X117150485Y-84764414D01*
X117132031Y-84798938D01*
X117107198Y-84829198D01*
X117076938Y-84854031D01*
X117042414Y-84872485D01*
X117004949Y-84883850D01*
X116959762Y-84888300D01*
X116121238Y-84888300D01*
X116076051Y-84883850D01*
X116038586Y-84872485D01*
X116004062Y-84854031D01*
X115973802Y-84829198D01*
X115948969Y-84798938D01*
X115930515Y-84764414D01*
X115919150Y-84726949D01*
X115914700Y-84681762D01*
X115914700Y-83593238D01*
X115919150Y-83548051D01*
X115930515Y-83510586D01*
X115948969Y-83476062D01*
X115973802Y-83445802D01*
X116004062Y-83420969D01*
X116038586Y-83402515D01*
X116076051Y-83391150D01*
X116121238Y-83386700D01*
X116959762Y-83386700D01*
X117004949Y-83391150D01*
X117004949Y-83391150D01*
G37*
G36*
X151446181Y-83679634D02*
G01*
X151483471Y-83690946D01*
X151517840Y-83709316D01*
X151547963Y-83734037D01*
X151572684Y-83764160D01*
X151591054Y-83798529D01*
X151602366Y-83835819D01*
X151606800Y-83880836D01*
X151606800Y-84521164D01*
X151602366Y-84566181D01*
X151591054Y-84603471D01*
X151572684Y-84637840D01*
X151547963Y-84667963D01*
X151517840Y-84692684D01*
X151483471Y-84711054D01*
X151446181Y-84722366D01*
X151401164Y-84726800D01*
X150660836Y-84726800D01*
X150615819Y-84722366D01*
X150578529Y-84711054D01*
X150544160Y-84692684D01*
X150514037Y-84667963D01*
X150489316Y-84637840D01*
X150470946Y-84603471D01*
X150459634Y-84566181D01*
X150455200Y-84521164D01*
X150455200Y-83880836D01*
X150459634Y-83835819D01*
X150470946Y-83798529D01*
X150489316Y-83764160D01*
X150514037Y-83734037D01*
X150544160Y-83709316D01*
X150578529Y-83690946D01*
X150615819Y-83679634D01*
X150660836Y-83675200D01*
X151401164Y-83675200D01*
X151446181Y-83679634D01*
X151446181Y-83679634D01*
G37*
G36*
X153196181Y-83679634D02*
G01*
X153233471Y-83690946D01*
X153267840Y-83709316D01*
X153297963Y-83734037D01*
X153322684Y-83764160D01*
X153341054Y-83798529D01*
X153352366Y-83835819D01*
X153356800Y-83880836D01*
X153356800Y-84521164D01*
X153352366Y-84566181D01*
X153341054Y-84603471D01*
X153322684Y-84637840D01*
X153297963Y-84667963D01*
X153267840Y-84692684D01*
X153233471Y-84711054D01*
X153196181Y-84722366D01*
X153151164Y-84726800D01*
X152410836Y-84726800D01*
X152365819Y-84722366D01*
X152328529Y-84711054D01*
X152294160Y-84692684D01*
X152264037Y-84667963D01*
X152239316Y-84637840D01*
X152220946Y-84603471D01*
X152209634Y-84566181D01*
X152205200Y-84521164D01*
X152205200Y-83880836D01*
X152209634Y-83835819D01*
X152220946Y-83798529D01*
X152239316Y-83764160D01*
X152264037Y-83734037D01*
X152294160Y-83709316D01*
X152328529Y-83690946D01*
X152365819Y-83679634D01*
X152410836Y-83675200D01*
X153151164Y-83675200D01*
X153196181Y-83679634D01*
X153196181Y-83679634D01*
G37*
G36*
X118969681Y-83616134D02*
G01*
X119006971Y-83627446D01*
X119041340Y-83645816D01*
X119071463Y-83670537D01*
X119096184Y-83700660D01*
X119114554Y-83735029D01*
X119125866Y-83772319D01*
X119130300Y-83817336D01*
X119130300Y-84457664D01*
X119125866Y-84502681D01*
X119114554Y-84539971D01*
X119096184Y-84574340D01*
X119071463Y-84604463D01*
X119041340Y-84629184D01*
X119006971Y-84647554D01*
X118969681Y-84658866D01*
X118924664Y-84663300D01*
X118184336Y-84663300D01*
X118139319Y-84658866D01*
X118102029Y-84647554D01*
X118067660Y-84629184D01*
X118037537Y-84604463D01*
X118012816Y-84574340D01*
X117994446Y-84539971D01*
X117983134Y-84502681D01*
X117978700Y-84457664D01*
X117978700Y-83817336D01*
X117983134Y-83772319D01*
X117994446Y-83735029D01*
X118012816Y-83700660D01*
X118037537Y-83670537D01*
X118067660Y-83645816D01*
X118102029Y-83627446D01*
X118139319Y-83616134D01*
X118184336Y-83611700D01*
X118924664Y-83611700D01*
X118969681Y-83616134D01*
X118969681Y-83616134D01*
G37*
G36*
X120719681Y-83616134D02*
G01*
X120756971Y-83627446D01*
X120791340Y-83645816D01*
X120821463Y-83670537D01*
X120846184Y-83700660D01*
X120864554Y-83735029D01*
X120875866Y-83772319D01*
X120880300Y-83817336D01*
X120880300Y-84457664D01*
X120875866Y-84502681D01*
X120864554Y-84539971D01*
X120846184Y-84574340D01*
X120821463Y-84604463D01*
X120791340Y-84629184D01*
X120756971Y-84647554D01*
X120719681Y-84658866D01*
X120674664Y-84663300D01*
X119934336Y-84663300D01*
X119889319Y-84658866D01*
X119852029Y-84647554D01*
X119817660Y-84629184D01*
X119787537Y-84604463D01*
X119762816Y-84574340D01*
X119744446Y-84539971D01*
X119733134Y-84502681D01*
X119728700Y-84457664D01*
X119728700Y-83817336D01*
X119733134Y-83772319D01*
X119744446Y-83735029D01*
X119762816Y-83700660D01*
X119787537Y-83670537D01*
X119817660Y-83645816D01*
X119852029Y-83627446D01*
X119889319Y-83616134D01*
X119934336Y-83611700D01*
X120674664Y-83611700D01*
X120719681Y-83616134D01*
X120719681Y-83616134D01*
G37*
G36*
X146852681Y-82573302D02*
G01*
X146947993Y-82602215D01*
X146989495Y-82614804D01*
X147033414Y-82638280D01*
X147115583Y-82682199D01*
X147226101Y-82772899D01*
X147316801Y-82883417D01*
X147360720Y-82965586D01*
X147384196Y-83009505D01*
X147384196Y-83009506D01*
X147425698Y-83146319D01*
X147439712Y-83288600D01*
X147425698Y-83430881D01*
X147411992Y-83476062D01*
X147384196Y-83567695D01*
X147370543Y-83593238D01*
X147316801Y-83693783D01*
X147226101Y-83804301D01*
X147115583Y-83895001D01*
X147034949Y-83938100D01*
X146989495Y-83962396D01*
X146947993Y-83974985D01*
X146852681Y-84003898D01*
X146746057Y-84014400D01*
X146674743Y-84014400D01*
X146568119Y-84003898D01*
X146472807Y-83974985D01*
X146431305Y-83962396D01*
X146385851Y-83938100D01*
X146305217Y-83895001D01*
X146194699Y-83804301D01*
X146103999Y-83693783D01*
X146050257Y-83593238D01*
X146036604Y-83567695D01*
X146008808Y-83476062D01*
X145995102Y-83430881D01*
X145981088Y-83288600D01*
X145995102Y-83146319D01*
X146036604Y-83009506D01*
X146036604Y-83009505D01*
X146060080Y-82965586D01*
X146103999Y-82883417D01*
X146194699Y-82772899D01*
X146305217Y-82682199D01*
X146387386Y-82638280D01*
X146431305Y-82614804D01*
X146472807Y-82602215D01*
X146568119Y-82573302D01*
X146674743Y-82562800D01*
X146746057Y-82562800D01*
X146852681Y-82573302D01*
X146852681Y-82573302D01*
G37*
G36*
X124856281Y-82564702D02*
G01*
X124951593Y-82593615D01*
X124993095Y-82606204D01*
X125009184Y-82614804D01*
X125119183Y-82673599D01*
X125229701Y-82764299D01*
X125320401Y-82874817D01*
X125364320Y-82956986D01*
X125387796Y-83000905D01*
X125390405Y-83009506D01*
X125429298Y-83137719D01*
X125443312Y-83280000D01*
X125429298Y-83422281D01*
X125403410Y-83507623D01*
X125387796Y-83559095D01*
X125383199Y-83567695D01*
X125320401Y-83685183D01*
X125229701Y-83795701D01*
X125119183Y-83886401D01*
X125037014Y-83930320D01*
X124993095Y-83953796D01*
X124964744Y-83962396D01*
X124856281Y-83995298D01*
X124749657Y-84005800D01*
X124678343Y-84005800D01*
X124571719Y-83995298D01*
X124463256Y-83962396D01*
X124434905Y-83953796D01*
X124390986Y-83930320D01*
X124308817Y-83886401D01*
X124198299Y-83795701D01*
X124107599Y-83685183D01*
X124044801Y-83567695D01*
X124040204Y-83559095D01*
X124024590Y-83507623D01*
X123998702Y-83422281D01*
X123984688Y-83280000D01*
X123998702Y-83137719D01*
X124037595Y-83009506D01*
X124040204Y-83000905D01*
X124063680Y-82956986D01*
X124107599Y-82874817D01*
X124198299Y-82764299D01*
X124308817Y-82673599D01*
X124418816Y-82614804D01*
X124434905Y-82606204D01*
X124476407Y-82593615D01*
X124571719Y-82564702D01*
X124678343Y-82554200D01*
X124749657Y-82554200D01*
X124856281Y-82564702D01*
X124856281Y-82564702D01*
G37*
G36*
X146852681Y-80573302D02*
G01*
X146947993Y-80602215D01*
X146989495Y-80614804D01*
X147033414Y-80638280D01*
X147115583Y-80682199D01*
X147226101Y-80772899D01*
X147316801Y-80883417D01*
X147349589Y-80944760D01*
X147384196Y-81009505D01*
X147384196Y-81009506D01*
X147425698Y-81146319D01*
X147439712Y-81288600D01*
X147425698Y-81430881D01*
X147396785Y-81526193D01*
X147384196Y-81567695D01*
X147360720Y-81611614D01*
X147316801Y-81693783D01*
X147226101Y-81804301D01*
X147115583Y-81895001D01*
X147044865Y-81932800D01*
X146989495Y-81962396D01*
X146947993Y-81974985D01*
X146852681Y-82003898D01*
X146746057Y-82014400D01*
X146674743Y-82014400D01*
X146568119Y-82003898D01*
X146472807Y-81974985D01*
X146431305Y-81962396D01*
X146375935Y-81932800D01*
X146305217Y-81895001D01*
X146194699Y-81804301D01*
X146103999Y-81693783D01*
X146060080Y-81611614D01*
X146036604Y-81567695D01*
X146024015Y-81526193D01*
X145995102Y-81430881D01*
X145981088Y-81288600D01*
X145995102Y-81146319D01*
X146036604Y-81009506D01*
X146036604Y-81009505D01*
X146071211Y-80944760D01*
X146103999Y-80883417D01*
X146194699Y-80772899D01*
X146305217Y-80682199D01*
X146387386Y-80638280D01*
X146431305Y-80614804D01*
X146472807Y-80602215D01*
X146568119Y-80573302D01*
X146674743Y-80562800D01*
X146746057Y-80562800D01*
X146852681Y-80573302D01*
X146852681Y-80573302D01*
G37*
G36*
X125439800Y-82005800D02*
G01*
X123988200Y-82005800D01*
X123988200Y-80554200D01*
X125439800Y-80554200D01*
X125439800Y-82005800D01*
X125439800Y-82005800D01*
G37*
G36*
X160181181Y-80885634D02*
G01*
X160218471Y-80896946D01*
X160252840Y-80915316D01*
X160282963Y-80940037D01*
X160307684Y-80970160D01*
X160326054Y-81004529D01*
X160337366Y-81041819D01*
X160341800Y-81086836D01*
X160341800Y-81727164D01*
X160337366Y-81772181D01*
X160326054Y-81809471D01*
X160307684Y-81843840D01*
X160282963Y-81873963D01*
X160252840Y-81898684D01*
X160218471Y-81917054D01*
X160181181Y-81928366D01*
X160136164Y-81932800D01*
X159395836Y-81932800D01*
X159350819Y-81928366D01*
X159313529Y-81917054D01*
X159279160Y-81898684D01*
X159249037Y-81873963D01*
X159224316Y-81843840D01*
X159205946Y-81809471D01*
X159194634Y-81772181D01*
X159190200Y-81727164D01*
X159190200Y-81086836D01*
X159194634Y-81041819D01*
X159205946Y-81004529D01*
X159224316Y-80970160D01*
X159249037Y-80940037D01*
X159279160Y-80915316D01*
X159313529Y-80896946D01*
X159350819Y-80885634D01*
X159395836Y-80881200D01*
X160136164Y-80881200D01*
X160181181Y-80885634D01*
X160181181Y-80885634D01*
G37*
G36*
X158431181Y-80885634D02*
G01*
X158468471Y-80896946D01*
X158502840Y-80915316D01*
X158532963Y-80940037D01*
X158557684Y-80970160D01*
X158576054Y-81004529D01*
X158587366Y-81041819D01*
X158591800Y-81086836D01*
X158591800Y-81727164D01*
X158587366Y-81772181D01*
X158576054Y-81809471D01*
X158557684Y-81843840D01*
X158532963Y-81873963D01*
X158502840Y-81898684D01*
X158468471Y-81917054D01*
X158431181Y-81928366D01*
X158386164Y-81932800D01*
X157645836Y-81932800D01*
X157600819Y-81928366D01*
X157563529Y-81917054D01*
X157529160Y-81898684D01*
X157499037Y-81873963D01*
X157474316Y-81843840D01*
X157455946Y-81809471D01*
X157444634Y-81772181D01*
X157440200Y-81727164D01*
X157440200Y-81086836D01*
X157444634Y-81041819D01*
X157455946Y-81004529D01*
X157474316Y-80970160D01*
X157499037Y-80940037D01*
X157529160Y-80915316D01*
X157563529Y-80896946D01*
X157600819Y-80885634D01*
X157645836Y-80881200D01*
X158386164Y-80881200D01*
X158431181Y-80885634D01*
X158431181Y-80885634D01*
G37*
G36*
X143428581Y-80860234D02*
G01*
X143465871Y-80871546D01*
X143500240Y-80889916D01*
X143530363Y-80914637D01*
X143555084Y-80944760D01*
X143573454Y-80979129D01*
X143584766Y-81016419D01*
X143589200Y-81061436D01*
X143589200Y-81701764D01*
X143584766Y-81746781D01*
X143573454Y-81784071D01*
X143555084Y-81818440D01*
X143530363Y-81848563D01*
X143500240Y-81873284D01*
X143465871Y-81891654D01*
X143428581Y-81902966D01*
X143383564Y-81907400D01*
X142643236Y-81907400D01*
X142598219Y-81902966D01*
X142560929Y-81891654D01*
X142526560Y-81873284D01*
X142496437Y-81848563D01*
X142471716Y-81818440D01*
X142453346Y-81784071D01*
X142442034Y-81746781D01*
X142437600Y-81701764D01*
X142437600Y-81061436D01*
X142442034Y-81016419D01*
X142453346Y-80979129D01*
X142471716Y-80944760D01*
X142496437Y-80914637D01*
X142526560Y-80889916D01*
X142560929Y-80871546D01*
X142598219Y-80860234D01*
X142643236Y-80855800D01*
X143383564Y-80855800D01*
X143428581Y-80860234D01*
X143428581Y-80860234D01*
G37*
G36*
X137942181Y-80860234D02*
G01*
X137979471Y-80871546D01*
X138013840Y-80889916D01*
X138043963Y-80914637D01*
X138068684Y-80944760D01*
X138087054Y-80979129D01*
X138098366Y-81016419D01*
X138102800Y-81061436D01*
X138102800Y-81701764D01*
X138098366Y-81746781D01*
X138087054Y-81784071D01*
X138068684Y-81818440D01*
X138043963Y-81848563D01*
X138013840Y-81873284D01*
X137979471Y-81891654D01*
X137942181Y-81902966D01*
X137897164Y-81907400D01*
X137156836Y-81907400D01*
X137111819Y-81902966D01*
X137074529Y-81891654D01*
X137040160Y-81873284D01*
X137010037Y-81848563D01*
X136985316Y-81818440D01*
X136966946Y-81784071D01*
X136955634Y-81746781D01*
X136951200Y-81701764D01*
X136951200Y-81061436D01*
X136955634Y-81016419D01*
X136966946Y-80979129D01*
X136985316Y-80944760D01*
X137010037Y-80914637D01*
X137040160Y-80889916D01*
X137074529Y-80871546D01*
X137111819Y-80860234D01*
X137156836Y-80855800D01*
X137897164Y-80855800D01*
X137942181Y-80860234D01*
X137942181Y-80860234D01*
G37*
G36*
X136192181Y-80860234D02*
G01*
X136229471Y-80871546D01*
X136263840Y-80889916D01*
X136293963Y-80914637D01*
X136318684Y-80944760D01*
X136337054Y-80979129D01*
X136348366Y-81016419D01*
X136352800Y-81061436D01*
X136352800Y-81701764D01*
X136348366Y-81746781D01*
X136337054Y-81784071D01*
X136318684Y-81818440D01*
X136293963Y-81848563D01*
X136263840Y-81873284D01*
X136229471Y-81891654D01*
X136192181Y-81902966D01*
X136147164Y-81907400D01*
X135406836Y-81907400D01*
X135361819Y-81902966D01*
X135324529Y-81891654D01*
X135290160Y-81873284D01*
X135260037Y-81848563D01*
X135235316Y-81818440D01*
X135216946Y-81784071D01*
X135205634Y-81746781D01*
X135201200Y-81701764D01*
X135201200Y-81061436D01*
X135205634Y-81016419D01*
X135216946Y-80979129D01*
X135235316Y-80944760D01*
X135260037Y-80914637D01*
X135290160Y-80889916D01*
X135324529Y-80871546D01*
X135361819Y-80860234D01*
X135406836Y-80855800D01*
X136147164Y-80855800D01*
X136192181Y-80860234D01*
X136192181Y-80860234D01*
G37*
G36*
X141678581Y-80860234D02*
G01*
X141715871Y-80871546D01*
X141750240Y-80889916D01*
X141780363Y-80914637D01*
X141805084Y-80944760D01*
X141823454Y-80979129D01*
X141834766Y-81016419D01*
X141839200Y-81061436D01*
X141839200Y-81701764D01*
X141834766Y-81746781D01*
X141823454Y-81784071D01*
X141805084Y-81818440D01*
X141780363Y-81848563D01*
X141750240Y-81873284D01*
X141715871Y-81891654D01*
X141678581Y-81902966D01*
X141633564Y-81907400D01*
X140893236Y-81907400D01*
X140848219Y-81902966D01*
X140810929Y-81891654D01*
X140776560Y-81873284D01*
X140746437Y-81848563D01*
X140721716Y-81818440D01*
X140703346Y-81784071D01*
X140692034Y-81746781D01*
X140687600Y-81701764D01*
X140687600Y-81061436D01*
X140692034Y-81016419D01*
X140703346Y-80979129D01*
X140721716Y-80944760D01*
X140746437Y-80914637D01*
X140776560Y-80889916D01*
X140810929Y-80871546D01*
X140848219Y-80860234D01*
X140893236Y-80855800D01*
X141633564Y-80855800D01*
X141678581Y-80860234D01*
X141678581Y-80860234D01*
G37*
G36*
X133529800Y-78853800D02*
G01*
X132428200Y-78853800D01*
X132428200Y-77052200D01*
X133529800Y-77052200D01*
X133529800Y-78853800D01*
X133529800Y-78853800D01*
G37*
G36*
X129704800Y-78853800D02*
G01*
X128603200Y-78853800D01*
X128603200Y-77052200D01*
X129704800Y-77052200D01*
X129704800Y-78853800D01*
X129704800Y-78853800D01*
G37*
G36*
X152818800Y-78853800D02*
G01*
X151717200Y-78853800D01*
X151717200Y-77052200D01*
X152818800Y-77052200D01*
X152818800Y-78853800D01*
X152818800Y-78853800D01*
G37*
G36*
X149018800Y-78853800D02*
G01*
X147917200Y-78853800D01*
X147917200Y-77052200D01*
X149018800Y-77052200D01*
X149018800Y-78853800D01*
X149018800Y-78853800D01*
G37*
G36*
X137329800Y-78853800D02*
G01*
X136228200Y-78853800D01*
X136228200Y-77052200D01*
X137329800Y-77052200D01*
X137329800Y-78853800D01*
X137329800Y-78853800D01*
G37*
G36*
X145066800Y-78853800D02*
G01*
X143965200Y-78853800D01*
X143965200Y-77052200D01*
X145066800Y-77052200D01*
X145066800Y-78853800D01*
X145066800Y-78853800D01*
G37*
G36*
X141266800Y-78853800D02*
G01*
X140165200Y-78853800D01*
X140165200Y-77052200D01*
X141266800Y-77052200D01*
X141266800Y-78853800D01*
X141266800Y-78853800D01*
G37*
G36*
X125904800Y-78853800D02*
G01*
X124803200Y-78853800D01*
X124803200Y-77052200D01*
X125904800Y-77052200D01*
X125904800Y-78853800D01*
X125904800Y-78853800D01*
G37*
G36*
X117875730Y-70245655D02*
G01*
X118521935Y-70513322D01*
X119103503Y-70901913D01*
X119598087Y-71396497D01*
X119986678Y-71978065D01*
X120254345Y-72624270D01*
X120390800Y-73310277D01*
X120390800Y-74009723D01*
X120254345Y-74695730D01*
X119986678Y-75341935D01*
X119598087Y-75923503D01*
X119103503Y-76418087D01*
X118521935Y-76806678D01*
X117875730Y-77074345D01*
X117189723Y-77210800D01*
X116490277Y-77210800D01*
X115804270Y-77074345D01*
X115158065Y-76806678D01*
X114576497Y-76418087D01*
X114081913Y-75923503D01*
X113693322Y-75341935D01*
X113425655Y-74695730D01*
X113289200Y-74009723D01*
X113289200Y-73310277D01*
X113425655Y-72624270D01*
X113693322Y-71978065D01*
X114081913Y-71396497D01*
X114576497Y-70901913D01*
X115158065Y-70513322D01*
X115804270Y-70245655D01*
X116490277Y-70109200D01*
X117189723Y-70109200D01*
X117875730Y-70245655D01*
X117875730Y-70245655D01*
G37*
G36*
X159150730Y-70245655D02*
G01*
X159796935Y-70513322D01*
X160378503Y-70901913D01*
X160873087Y-71396497D01*
X161261678Y-71978065D01*
X161529345Y-72624270D01*
X161665800Y-73310277D01*
X161665800Y-74009723D01*
X161529345Y-74695730D01*
X161261678Y-75341935D01*
X160873087Y-75923503D01*
X160378503Y-76418087D01*
X159796935Y-76806678D01*
X159150730Y-77074345D01*
X158464723Y-77210800D01*
X157765277Y-77210800D01*
X157079270Y-77074345D01*
X156433065Y-76806678D01*
X155851497Y-76418087D01*
X155356913Y-75923503D01*
X154968322Y-75341935D01*
X154700655Y-74695730D01*
X154564200Y-74009723D01*
X154564200Y-73310277D01*
X154700655Y-72624270D01*
X154968322Y-71978065D01*
X155356913Y-71396497D01*
X155851497Y-70901913D01*
X156433065Y-70513322D01*
X157079270Y-70245655D01*
X157765277Y-70109200D01*
X158464723Y-70109200D01*
X159150730Y-70245655D01*
X159150730Y-70245655D01*
G37*
G36*
X131429181Y-72439634D02*
G01*
X131466471Y-72450946D01*
X131500840Y-72469316D01*
X131530963Y-72494037D01*
X131555684Y-72524160D01*
X131574054Y-72558529D01*
X131585366Y-72595819D01*
X131589800Y-72640836D01*
X131589800Y-73381164D01*
X131585366Y-73426181D01*
X131574054Y-73463471D01*
X131555684Y-73497840D01*
X131530963Y-73527963D01*
X131500840Y-73552684D01*
X131466471Y-73571054D01*
X131429181Y-73582366D01*
X131384164Y-73586800D01*
X130743836Y-73586800D01*
X130698819Y-73582366D01*
X130661529Y-73571054D01*
X130627160Y-73552684D01*
X130597037Y-73527963D01*
X130572316Y-73497840D01*
X130553946Y-73463471D01*
X130542634Y-73426181D01*
X130538200Y-73381164D01*
X130538200Y-72640836D01*
X130542634Y-72595819D01*
X130553946Y-72558529D01*
X130572316Y-72524160D01*
X130597037Y-72494037D01*
X130627160Y-72469316D01*
X130661529Y-72450946D01*
X130698819Y-72439634D01*
X130743836Y-72435200D01*
X131384164Y-72435200D01*
X131429181Y-72439634D01*
X131429181Y-72439634D01*
G37*
G36*
X123809181Y-72425634D02*
G01*
X123846471Y-72436946D01*
X123880840Y-72455316D01*
X123910963Y-72480037D01*
X123935684Y-72510160D01*
X123954054Y-72544529D01*
X123965366Y-72581819D01*
X123969800Y-72626836D01*
X123969800Y-73367164D01*
X123965366Y-73412181D01*
X123954054Y-73449471D01*
X123935684Y-73483840D01*
X123910963Y-73513963D01*
X123880840Y-73538684D01*
X123846471Y-73557054D01*
X123809181Y-73568366D01*
X123764164Y-73572800D01*
X123123836Y-73572800D01*
X123078819Y-73568366D01*
X123041529Y-73557054D01*
X123007160Y-73538684D01*
X122977037Y-73513963D01*
X122952316Y-73483840D01*
X122933946Y-73449471D01*
X122922634Y-73412181D01*
X122918200Y-73367164D01*
X122918200Y-72626836D01*
X122922634Y-72581819D01*
X122933946Y-72544529D01*
X122952316Y-72510160D01*
X122977037Y-72480037D01*
X123007160Y-72455316D01*
X123041529Y-72436946D01*
X123078819Y-72425634D01*
X123123836Y-72421200D01*
X123764164Y-72421200D01*
X123809181Y-72425634D01*
X123809181Y-72425634D01*
G37*
G36*
X139176181Y-72326634D02*
G01*
X139213471Y-72337946D01*
X139247840Y-72356316D01*
X139277963Y-72381037D01*
X139302684Y-72411160D01*
X139321054Y-72445529D01*
X139332366Y-72482819D01*
X139336800Y-72527836D01*
X139336800Y-73268164D01*
X139332366Y-73313181D01*
X139321054Y-73350471D01*
X139302684Y-73384840D01*
X139277963Y-73414963D01*
X139247840Y-73439684D01*
X139213471Y-73458054D01*
X139176181Y-73469366D01*
X139131164Y-73473800D01*
X138490836Y-73473800D01*
X138445819Y-73469366D01*
X138408529Y-73458054D01*
X138374160Y-73439684D01*
X138344037Y-73414963D01*
X138319316Y-73384840D01*
X138300946Y-73350471D01*
X138289634Y-73313181D01*
X138285200Y-73268164D01*
X138285200Y-72527836D01*
X138289634Y-72482819D01*
X138300946Y-72445529D01*
X138319316Y-72411160D01*
X138344037Y-72381037D01*
X138374160Y-72356316D01*
X138408529Y-72337946D01*
X138445819Y-72326634D01*
X138490836Y-72322200D01*
X139131164Y-72322200D01*
X139176181Y-72326634D01*
X139176181Y-72326634D01*
G37*
G36*
X146923181Y-72312634D02*
G01*
X146960471Y-72323946D01*
X146994840Y-72342316D01*
X147024963Y-72367037D01*
X147049684Y-72397160D01*
X147068054Y-72431529D01*
X147079366Y-72468819D01*
X147083800Y-72513836D01*
X147083800Y-73254164D01*
X147079366Y-73299181D01*
X147068054Y-73336471D01*
X147049684Y-73370840D01*
X147024963Y-73400963D01*
X146994840Y-73425684D01*
X146960471Y-73444054D01*
X146923181Y-73455366D01*
X146878164Y-73459800D01*
X146237836Y-73459800D01*
X146192819Y-73455366D01*
X146155529Y-73444054D01*
X146121160Y-73425684D01*
X146091037Y-73400963D01*
X146066316Y-73370840D01*
X146047946Y-73336471D01*
X146036634Y-73299181D01*
X146032200Y-73254164D01*
X146032200Y-72513836D01*
X146036634Y-72468819D01*
X146047946Y-72431529D01*
X146066316Y-72397160D01*
X146091037Y-72367037D01*
X146121160Y-72342316D01*
X146155529Y-72323946D01*
X146192819Y-72312634D01*
X146237836Y-72308200D01*
X146878164Y-72308200D01*
X146923181Y-72312634D01*
X146923181Y-72312634D01*
G37*
G36*
X149018800Y-72553800D02*
G01*
X147917200Y-72553800D01*
X147917200Y-70752200D01*
X149018800Y-70752200D01*
X149018800Y-72553800D01*
X149018800Y-72553800D01*
G37*
G36*
X133529800Y-72553800D02*
G01*
X132428200Y-72553800D01*
X132428200Y-70752200D01*
X133529800Y-70752200D01*
X133529800Y-72553800D01*
X133529800Y-72553800D01*
G37*
G36*
X137329800Y-72553800D02*
G01*
X136228200Y-72553800D01*
X136228200Y-70752200D01*
X137329800Y-70752200D01*
X137329800Y-72553800D01*
X137329800Y-72553800D01*
G37*
G36*
X141266800Y-72553800D02*
G01*
X140165200Y-72553800D01*
X140165200Y-70752200D01*
X141266800Y-70752200D01*
X141266800Y-72553800D01*
X141266800Y-72553800D01*
G37*
G36*
X145066800Y-72553800D02*
G01*
X143965200Y-72553800D01*
X143965200Y-70752200D01*
X145066800Y-70752200D01*
X145066800Y-72553800D01*
X145066800Y-72553800D01*
G37*
G36*
X125904800Y-72553800D02*
G01*
X124803200Y-72553800D01*
X124803200Y-70752200D01*
X125904800Y-70752200D01*
X125904800Y-72553800D01*
X125904800Y-72553800D01*
G37*
G36*
X152818800Y-72553800D02*
G01*
X151717200Y-72553800D01*
X151717200Y-70752200D01*
X152818800Y-70752200D01*
X152818800Y-72553800D01*
X152818800Y-72553800D01*
G37*
G36*
X129704800Y-72553800D02*
G01*
X128603200Y-72553800D01*
X128603200Y-70752200D01*
X129704800Y-70752200D01*
X129704800Y-72553800D01*
X129704800Y-72553800D01*
G37*
G36*
X131429181Y-70689634D02*
G01*
X131466471Y-70700946D01*
X131500840Y-70719316D01*
X131530963Y-70744037D01*
X131555684Y-70774160D01*
X131574054Y-70808529D01*
X131585366Y-70845819D01*
X131589800Y-70890836D01*
X131589800Y-71631164D01*
X131585366Y-71676181D01*
X131574054Y-71713471D01*
X131555684Y-71747840D01*
X131530963Y-71777963D01*
X131500840Y-71802684D01*
X131466471Y-71821054D01*
X131429181Y-71832366D01*
X131384164Y-71836800D01*
X130743836Y-71836800D01*
X130698819Y-71832366D01*
X130661529Y-71821054D01*
X130627160Y-71802684D01*
X130597037Y-71777963D01*
X130572316Y-71747840D01*
X130553946Y-71713471D01*
X130542634Y-71676181D01*
X130538200Y-71631164D01*
X130538200Y-70890836D01*
X130542634Y-70845819D01*
X130553946Y-70808529D01*
X130572316Y-70774160D01*
X130597037Y-70744037D01*
X130627160Y-70719316D01*
X130661529Y-70700946D01*
X130698819Y-70689634D01*
X130743836Y-70685200D01*
X131384164Y-70685200D01*
X131429181Y-70689634D01*
X131429181Y-70689634D01*
G37*
G36*
X123809181Y-70675634D02*
G01*
X123846471Y-70686946D01*
X123880840Y-70705316D01*
X123910963Y-70730037D01*
X123935684Y-70760160D01*
X123954054Y-70794529D01*
X123965366Y-70831819D01*
X123969800Y-70876836D01*
X123969800Y-71617164D01*
X123965366Y-71662181D01*
X123954054Y-71699471D01*
X123935684Y-71733840D01*
X123910963Y-71763963D01*
X123880840Y-71788684D01*
X123846471Y-71807054D01*
X123809181Y-71818366D01*
X123764164Y-71822800D01*
X123123836Y-71822800D01*
X123078819Y-71818366D01*
X123041529Y-71807054D01*
X123007160Y-71788684D01*
X122977037Y-71763963D01*
X122952316Y-71733840D01*
X122933946Y-71699471D01*
X122922634Y-71662181D01*
X122918200Y-71617164D01*
X122918200Y-70876836D01*
X122922634Y-70831819D01*
X122933946Y-70794529D01*
X122952316Y-70760160D01*
X122977037Y-70730037D01*
X123007160Y-70705316D01*
X123041529Y-70686946D01*
X123078819Y-70675634D01*
X123123836Y-70671200D01*
X123764164Y-70671200D01*
X123809181Y-70675634D01*
X123809181Y-70675634D01*
G37*
G36*
X139176181Y-70576634D02*
G01*
X139213471Y-70587946D01*
X139247840Y-70606316D01*
X139277963Y-70631037D01*
X139302684Y-70661160D01*
X139321054Y-70695529D01*
X139332366Y-70732819D01*
X139336800Y-70777836D01*
X139336800Y-71518164D01*
X139332366Y-71563181D01*
X139321054Y-71600471D01*
X139302684Y-71634840D01*
X139277963Y-71664963D01*
X139247840Y-71689684D01*
X139213471Y-71708054D01*
X139176181Y-71719366D01*
X139131164Y-71723800D01*
X138490836Y-71723800D01*
X138445819Y-71719366D01*
X138408529Y-71708054D01*
X138374160Y-71689684D01*
X138344037Y-71664963D01*
X138319316Y-71634840D01*
X138300946Y-71600471D01*
X138289634Y-71563181D01*
X138285200Y-71518164D01*
X138285200Y-70777836D01*
X138289634Y-70732819D01*
X138300946Y-70695529D01*
X138319316Y-70661160D01*
X138344037Y-70631037D01*
X138374160Y-70606316D01*
X138408529Y-70587946D01*
X138445819Y-70576634D01*
X138490836Y-70572200D01*
X139131164Y-70572200D01*
X139176181Y-70576634D01*
X139176181Y-70576634D01*
G37*
G36*
X146923181Y-70562634D02*
G01*
X146960471Y-70573946D01*
X146994840Y-70592316D01*
X147024963Y-70617037D01*
X147049684Y-70647160D01*
X147068054Y-70681529D01*
X147079366Y-70718819D01*
X147083800Y-70763836D01*
X147083800Y-71504164D01*
X147079366Y-71549181D01*
X147068054Y-71586471D01*
X147049684Y-71620840D01*
X147024963Y-71650963D01*
X146994840Y-71675684D01*
X146960471Y-71694054D01*
X146923181Y-71705366D01*
X146878164Y-71709800D01*
X146237836Y-71709800D01*
X146192819Y-71705366D01*
X146155529Y-71694054D01*
X146121160Y-71675684D01*
X146091037Y-71650963D01*
X146066316Y-71620840D01*
X146047946Y-71586471D01*
X146036634Y-71549181D01*
X146032200Y-71504164D01*
X146032200Y-70763836D01*
X146036634Y-70718819D01*
X146047946Y-70681529D01*
X146066316Y-70647160D01*
X146091037Y-70617037D01*
X146121160Y-70592316D01*
X146155529Y-70573946D01*
X146192819Y-70562634D01*
X146237836Y-70558200D01*
X146878164Y-70558200D01*
X146923181Y-70562634D01*
X146923181Y-70562634D01*
G37*
M02*
