G04 #@! TF.GenerationSoftware,KiCad,Pcbnew,(5.1.4)-1*
G04 #@! TF.CreationDate,2019-11-01T10:34:41-04:00*
G04 #@! TF.ProjectId,wiproc,77697072-6f63-42e6-9b69-6361645f7063,rev?*
G04 #@! TF.SameCoordinates,Original*
G04 #@! TF.FileFunction,Copper,L3,Inr*
G04 #@! TF.FilePolarity,Positive*
%FSLAX46Y46*%
G04 Gerber Fmt 4.6, Leading zero omitted, Abs format (unit mm)*
G04 Created by KiCad (PCBNEW (5.1.4)-1) date 2019-11-01 10:34:41*
%MOMM*%
%LPD*%
G04 APERTURE LIST*
%ADD10O,1.700000X1.700000*%
%ADD11R,1.700000X1.700000*%
%ADD12C,7.000001*%
%ADD13O,1.350000X1.350000*%
%ADD14R,1.350000X1.350000*%
%ADD15C,0.838200*%
%ADD16C,0.685800*%
%ADD17C,0.152400*%
%ADD18C,0.254000*%
G04 APERTURE END LIST*
D10*
X159766000Y-99441000D03*
X157226000Y-99441000D03*
X159766000Y-96901000D03*
X157226000Y-96901000D03*
X159766000Y-94361000D03*
X157226000Y-94361000D03*
X159766000Y-91821000D03*
X157226000Y-91821000D03*
X159766000Y-89281000D03*
X157226000Y-89281000D03*
X159766000Y-86741000D03*
X157226000Y-86741000D03*
X159766000Y-84201000D03*
D11*
X157226000Y-84201000D03*
D12*
X158115000Y-73660000D03*
X158115000Y-107950000D03*
X116840000Y-107950000D03*
X116840000Y-73660000D03*
D13*
X146710400Y-81288600D03*
X146710400Y-83288600D03*
X146710400Y-85288600D03*
X146710400Y-87288600D03*
X146710400Y-89288600D03*
X146710400Y-91288600D03*
X146710400Y-93288600D03*
X146710400Y-95288600D03*
X146710400Y-97288600D03*
D14*
X146710400Y-99288600D03*
D13*
X124714000Y-99280000D03*
X124714000Y-97280000D03*
X124714000Y-95280000D03*
X124714000Y-93280000D03*
X124714000Y-91280000D03*
X124714000Y-89280000D03*
X124714000Y-87280000D03*
X124714000Y-85280000D03*
X124714000Y-83280000D03*
D14*
X124714000Y-81280000D03*
D10*
X127508000Y-109220000D03*
D11*
X124968000Y-109220000D03*
D15*
X154736800Y-99415600D03*
X140335000Y-108585000D03*
X148209000Y-109855000D03*
X130937000Y-102997000D03*
X116205000Y-88836500D03*
D16*
X127762000Y-71628000D03*
X143129000Y-71501000D03*
X153670000Y-71374000D03*
D15*
X136835215Y-105671115D03*
X139954000Y-106045000D03*
X132969000Y-98171000D03*
X130429000Y-108839000D03*
X157988000Y-79756000D03*
D16*
X128778000Y-80010000D03*
X135636000Y-71501000D03*
X146431000Y-77851000D03*
X146431000Y-79629000D03*
D15*
X142113000Y-82423000D03*
D16*
X137668000Y-97155000D03*
X134261141Y-77574859D03*
D15*
X134493000Y-85979000D03*
X143510000Y-99441000D03*
D16*
X139573000Y-93218000D03*
X134013000Y-99187000D03*
X140462000Y-99822000D03*
D15*
X131826000Y-92710000D03*
D16*
X132080000Y-86233000D03*
X126619000Y-81153000D03*
D15*
X135255000Y-91590690D03*
X143748509Y-92357181D03*
X141311238Y-87617300D03*
X114490500Y-94615000D03*
X114490500Y-91503500D03*
X114427000Y-88836500D03*
X114490500Y-85725000D03*
X114490500Y-82486500D03*
D16*
X131064000Y-74295000D03*
X123444000Y-74422000D03*
X146539246Y-74149246D03*
D15*
X150749000Y-99822000D03*
X143002000Y-100838000D03*
X151003000Y-82804000D03*
X151003000Y-90551000D03*
X151003000Y-87884000D03*
X135879950Y-89016950D03*
D16*
X130048000Y-79756000D03*
X140843000Y-73152000D03*
X144145000Y-89535000D03*
D15*
X144279078Y-82073753D03*
D16*
X132969000Y-92456000D03*
X136906000Y-99060000D03*
X127292100Y-92202000D03*
X129308900Y-87376000D03*
D15*
X142528938Y-91093744D03*
D16*
X131318000Y-81356201D03*
X138938000Y-80391000D03*
X139700000Y-79629000D03*
D15*
X129032000Y-105664000D03*
X115189000Y-102235000D03*
X143764000Y-94742000D03*
D16*
X126619000Y-87376000D03*
D15*
X132207000Y-99568000D03*
X132715000Y-104140000D03*
X141605000Y-106045000D03*
X149860000Y-106045000D03*
X138094655Y-105709655D03*
D16*
X137990101Y-79512671D03*
X132461000Y-83185000D03*
X139335573Y-81186147D03*
X152781000Y-90678000D03*
X152781000Y-88138000D03*
X152781000Y-82931000D03*
X137541000Y-85979000D03*
X134696050Y-80848050D03*
X149860000Y-71501000D03*
X138430000Y-77851000D03*
X134493000Y-71501000D03*
X126619000Y-71628000D03*
X139192000Y-75819000D03*
X134874000Y-78867000D03*
X136779000Y-91463690D03*
X136779000Y-90170000D03*
X134493000Y-95377000D03*
X143510000Y-97282000D03*
X121793000Y-100711000D03*
X137160000Y-93726000D03*
X136906000Y-88265000D03*
X143129000Y-74168000D03*
X137795000Y-76454000D03*
X140335000Y-84455000D03*
X136918445Y-80105173D03*
D17*
X125668594Y-89280000D02*
X124714000Y-89280000D01*
X125711190Y-89280000D02*
X125668594Y-89280000D01*
X130142491Y-84848699D02*
X125711190Y-89280000D01*
X133207284Y-84848699D02*
X130142491Y-84848699D01*
X137990101Y-80065882D02*
X133207284Y-84848699D01*
X137990101Y-79512671D02*
X137990101Y-80065882D01*
X132461000Y-83185000D02*
X131064000Y-83185000D01*
X125388999Y-86605001D02*
X124714000Y-87280000D01*
X127643999Y-86605001D02*
X125388999Y-86605001D01*
X131064000Y-83185000D02*
X127643999Y-86605001D01*
X139820506Y-81186147D02*
X140970000Y-80036653D01*
X139335573Y-81186147D02*
X139820506Y-81186147D01*
X140970000Y-80036653D02*
X140970000Y-78613000D01*
X125388999Y-82605001D02*
X124714000Y-83280000D01*
X132057005Y-82605001D02*
X125388999Y-82605001D01*
X137433307Y-77228699D02*
X132057005Y-82605001D01*
X139585699Y-77228699D02*
X137433307Y-77228699D01*
X140970000Y-78613000D02*
X139585699Y-77228699D01*
D18*
G36*
X134029790Y-70634396D02*
G01*
X133869625Y-70741415D01*
X133733415Y-70877625D01*
X133626396Y-71037790D01*
X133552680Y-71215757D01*
X133515100Y-71404685D01*
X133515100Y-71597315D01*
X133552680Y-71786243D01*
X133626396Y-71964210D01*
X133733415Y-72124375D01*
X133869625Y-72260585D01*
X134029790Y-72367604D01*
X134207757Y-72441320D01*
X134396685Y-72478900D01*
X134589315Y-72478900D01*
X134778243Y-72441320D01*
X134956210Y-72367604D01*
X135116375Y-72260585D01*
X135252585Y-72124375D01*
X135359604Y-71964210D01*
X135433320Y-71786243D01*
X135470900Y-71597315D01*
X135470900Y-71404685D01*
X135433320Y-71215757D01*
X135359604Y-71037790D01*
X135252585Y-70877625D01*
X135116375Y-70741415D01*
X134956210Y-70634396D01*
X134902141Y-70612000D01*
X149450859Y-70612000D01*
X149396790Y-70634396D01*
X149236625Y-70741415D01*
X149100415Y-70877625D01*
X148993396Y-71037790D01*
X148919680Y-71215757D01*
X148882100Y-71404685D01*
X148882100Y-71597315D01*
X148919680Y-71786243D01*
X148993396Y-71964210D01*
X149100415Y-72124375D01*
X149236625Y-72260585D01*
X149396790Y-72367604D01*
X149574757Y-72441320D01*
X149763685Y-72478900D01*
X149956315Y-72478900D01*
X150145243Y-72441320D01*
X150323210Y-72367604D01*
X150483375Y-72260585D01*
X150619585Y-72124375D01*
X150726604Y-71964210D01*
X150800320Y-71786243D01*
X150837900Y-71597315D01*
X150837900Y-71404685D01*
X150800320Y-71215757D01*
X150726604Y-71037790D01*
X150619585Y-70877625D01*
X150483375Y-70741415D01*
X150323210Y-70634396D01*
X150269141Y-70612000D01*
X155482348Y-70612000D01*
X155380450Y-70745845D01*
X158115000Y-73480395D01*
X158129143Y-73466253D01*
X158308748Y-73645858D01*
X158294605Y-73660000D01*
X161029155Y-76394550D01*
X161163000Y-76292652D01*
X161163000Y-83690626D01*
X161144599Y-83629966D01*
X161006706Y-83371986D01*
X160821134Y-83145866D01*
X160595014Y-82960294D01*
X160337034Y-82822401D01*
X160057111Y-82737487D01*
X159838950Y-82716000D01*
X159693050Y-82716000D01*
X159474889Y-82737487D01*
X159194966Y-82822401D01*
X158936986Y-82960294D01*
X158710866Y-83145866D01*
X158686393Y-83175687D01*
X158665502Y-83106820D01*
X158606537Y-82996506D01*
X158527185Y-82899815D01*
X158430494Y-82820463D01*
X158320180Y-82761498D01*
X158200482Y-82725188D01*
X158076000Y-82712928D01*
X156376000Y-82712928D01*
X156251518Y-82725188D01*
X156131820Y-82761498D01*
X156021506Y-82820463D01*
X155924815Y-82899815D01*
X155845463Y-82996506D01*
X155786498Y-83106820D01*
X155750188Y-83226518D01*
X155737928Y-83351000D01*
X155737928Y-85051000D01*
X155750188Y-85175482D01*
X155786498Y-85295180D01*
X155845463Y-85405494D01*
X155924815Y-85502185D01*
X156021506Y-85581537D01*
X156131820Y-85640502D01*
X156200687Y-85661393D01*
X156170866Y-85685866D01*
X155985294Y-85911986D01*
X155847401Y-86169966D01*
X155762487Y-86449889D01*
X155733815Y-86741000D01*
X155762487Y-87032111D01*
X155847401Y-87312034D01*
X155985294Y-87570014D01*
X156170866Y-87796134D01*
X156396986Y-87981706D01*
X156451791Y-88011000D01*
X156396986Y-88040294D01*
X156170866Y-88225866D01*
X155985294Y-88451986D01*
X155847401Y-88709966D01*
X155762487Y-88989889D01*
X155733815Y-89281000D01*
X155762487Y-89572111D01*
X155847401Y-89852034D01*
X155985294Y-90110014D01*
X156170866Y-90336134D01*
X156396986Y-90521706D01*
X156451791Y-90551000D01*
X156396986Y-90580294D01*
X156170866Y-90765866D01*
X155985294Y-90991986D01*
X155847401Y-91249966D01*
X155762487Y-91529889D01*
X155733815Y-91821000D01*
X155762487Y-92112111D01*
X155847401Y-92392034D01*
X155985294Y-92650014D01*
X156170866Y-92876134D01*
X156396986Y-93061706D01*
X156461523Y-93096201D01*
X156344645Y-93165822D01*
X156128412Y-93360731D01*
X155954359Y-93594080D01*
X155829175Y-93856901D01*
X155784524Y-94004110D01*
X155905845Y-94234000D01*
X157099000Y-94234000D01*
X157099000Y-94214000D01*
X157353000Y-94214000D01*
X157353000Y-94234000D01*
X159639000Y-94234000D01*
X159639000Y-94214000D01*
X159893000Y-94214000D01*
X159893000Y-94234000D01*
X159913000Y-94234000D01*
X159913000Y-94488000D01*
X159893000Y-94488000D01*
X159893000Y-94508000D01*
X159639000Y-94508000D01*
X159639000Y-94488000D01*
X157353000Y-94488000D01*
X157353000Y-94508000D01*
X157099000Y-94508000D01*
X157099000Y-94488000D01*
X155905845Y-94488000D01*
X155784524Y-94717890D01*
X155829175Y-94865099D01*
X155954359Y-95127920D01*
X156128412Y-95361269D01*
X156344645Y-95556178D01*
X156461523Y-95625799D01*
X156396986Y-95660294D01*
X156170866Y-95845866D01*
X155985294Y-96071986D01*
X155847401Y-96329966D01*
X155762487Y-96609889D01*
X155733815Y-96901000D01*
X155762487Y-97192111D01*
X155847401Y-97472034D01*
X155985294Y-97730014D01*
X156170866Y-97956134D01*
X156396986Y-98141706D01*
X156461523Y-98176201D01*
X156344645Y-98245822D01*
X156128412Y-98440731D01*
X155954359Y-98674080D01*
X155829175Y-98936901D01*
X155784524Y-99084110D01*
X155905845Y-99314000D01*
X157099000Y-99314000D01*
X157099000Y-99294000D01*
X157353000Y-99294000D01*
X157353000Y-99314000D01*
X159639000Y-99314000D01*
X159639000Y-99294000D01*
X159893000Y-99294000D01*
X159893000Y-99314000D01*
X159913000Y-99314000D01*
X159913000Y-99568000D01*
X159893000Y-99568000D01*
X159893000Y-100761814D01*
X160122891Y-100882481D01*
X160397252Y-100785157D01*
X160647355Y-100636178D01*
X160863588Y-100441269D01*
X161037641Y-100207920D01*
X161162825Y-99945099D01*
X161163000Y-99944522D01*
X161163000Y-105317348D01*
X161029155Y-105215450D01*
X158294605Y-107950000D01*
X158308748Y-107964143D01*
X158129143Y-108143748D01*
X158115000Y-108129605D01*
X155380450Y-110864155D01*
X155482348Y-110998000D01*
X119472652Y-110998000D01*
X119574550Y-110864155D01*
X116840000Y-108129605D01*
X116825858Y-108143748D01*
X116646253Y-107964143D01*
X116660395Y-107950000D01*
X117019605Y-107950000D01*
X119754155Y-110684550D01*
X120274550Y-110288366D01*
X120664748Y-109573388D01*
X120907964Y-108796024D01*
X120953669Y-108370000D01*
X123479928Y-108370000D01*
X123479928Y-110070000D01*
X123492188Y-110194482D01*
X123528498Y-110314180D01*
X123587463Y-110424494D01*
X123666815Y-110521185D01*
X123763506Y-110600537D01*
X123873820Y-110659502D01*
X123993518Y-110695812D01*
X124118000Y-110708072D01*
X125818000Y-110708072D01*
X125942482Y-110695812D01*
X126062180Y-110659502D01*
X126172494Y-110600537D01*
X126269185Y-110521185D01*
X126348537Y-110424494D01*
X126407502Y-110314180D01*
X126428393Y-110245313D01*
X126452866Y-110275134D01*
X126678986Y-110460706D01*
X126936966Y-110598599D01*
X127216889Y-110683513D01*
X127435050Y-110705000D01*
X127580950Y-110705000D01*
X127799111Y-110683513D01*
X128079034Y-110598599D01*
X128337014Y-110460706D01*
X128563134Y-110275134D01*
X128748706Y-110049014D01*
X128886599Y-109791034D01*
X128971513Y-109511111D01*
X129000185Y-109220000D01*
X128971513Y-108928889D01*
X128886599Y-108648966D01*
X128748706Y-108390986D01*
X128563134Y-108164866D01*
X128337014Y-107979294D01*
X128214583Y-107913853D01*
X153960149Y-107913853D01*
X154032931Y-108725118D01*
X154262585Y-109506597D01*
X154640285Y-110228256D01*
X154680450Y-110288366D01*
X155200845Y-110684550D01*
X157935395Y-107950000D01*
X155200845Y-105215450D01*
X154680450Y-105611634D01*
X154290252Y-106326612D01*
X154047036Y-107103976D01*
X153960149Y-107913853D01*
X128214583Y-107913853D01*
X128079034Y-107841401D01*
X127799111Y-107756487D01*
X127580950Y-107735000D01*
X127435050Y-107735000D01*
X127216889Y-107756487D01*
X126936966Y-107841401D01*
X126678986Y-107979294D01*
X126452866Y-108164866D01*
X126428393Y-108194687D01*
X126407502Y-108125820D01*
X126348537Y-108015506D01*
X126269185Y-107918815D01*
X126172494Y-107839463D01*
X126062180Y-107780498D01*
X125942482Y-107744188D01*
X125818000Y-107731928D01*
X124118000Y-107731928D01*
X123993518Y-107744188D01*
X123873820Y-107780498D01*
X123763506Y-107839463D01*
X123666815Y-107918815D01*
X123587463Y-108015506D01*
X123528498Y-108125820D01*
X123492188Y-108245518D01*
X123479928Y-108370000D01*
X120953669Y-108370000D01*
X120994851Y-107986147D01*
X120922069Y-107174882D01*
X120692415Y-106393403D01*
X120314715Y-105671744D01*
X120274550Y-105611634D01*
X120206965Y-105560180D01*
X127977900Y-105560180D01*
X127977900Y-105767820D01*
X128018409Y-105971470D01*
X128097869Y-106163303D01*
X128213227Y-106335949D01*
X128360051Y-106482773D01*
X128532697Y-106598131D01*
X128724530Y-106677591D01*
X128928180Y-106718100D01*
X129135820Y-106718100D01*
X129339470Y-106677591D01*
X129531303Y-106598131D01*
X129703949Y-106482773D01*
X129850773Y-106335949D01*
X129966131Y-106163303D01*
X130045591Y-105971470D01*
X130086100Y-105767820D01*
X130086100Y-105605835D01*
X137040555Y-105605835D01*
X137040555Y-105813475D01*
X137081064Y-106017125D01*
X137160524Y-106208958D01*
X137275882Y-106381604D01*
X137422706Y-106528428D01*
X137595352Y-106643786D01*
X137787185Y-106723246D01*
X137990835Y-106763755D01*
X138198475Y-106763755D01*
X138402125Y-106723246D01*
X138593958Y-106643786D01*
X138766604Y-106528428D01*
X138913428Y-106381604D01*
X139028786Y-106208958D01*
X139108246Y-106017125D01*
X139123352Y-105941180D01*
X140550900Y-105941180D01*
X140550900Y-106148820D01*
X140591409Y-106352470D01*
X140670869Y-106544303D01*
X140786227Y-106716949D01*
X140933051Y-106863773D01*
X141105697Y-106979131D01*
X141297530Y-107058591D01*
X141501180Y-107099100D01*
X141708820Y-107099100D01*
X141912470Y-107058591D01*
X142104303Y-106979131D01*
X142276949Y-106863773D01*
X142423773Y-106716949D01*
X142539131Y-106544303D01*
X142618591Y-106352470D01*
X142659100Y-106148820D01*
X142659100Y-105941180D01*
X148805900Y-105941180D01*
X148805900Y-106148820D01*
X148846409Y-106352470D01*
X148925869Y-106544303D01*
X149041227Y-106716949D01*
X149188051Y-106863773D01*
X149360697Y-106979131D01*
X149552530Y-107058591D01*
X149756180Y-107099100D01*
X149963820Y-107099100D01*
X150167470Y-107058591D01*
X150359303Y-106979131D01*
X150531949Y-106863773D01*
X150678773Y-106716949D01*
X150794131Y-106544303D01*
X150873591Y-106352470D01*
X150914100Y-106148820D01*
X150914100Y-105941180D01*
X150873591Y-105737530D01*
X150794131Y-105545697D01*
X150678773Y-105373051D01*
X150531949Y-105226227D01*
X150359303Y-105110869D01*
X150178180Y-105035845D01*
X155380450Y-105035845D01*
X158115000Y-107770395D01*
X160849550Y-105035845D01*
X160453366Y-104515450D01*
X159738388Y-104125252D01*
X158961024Y-103882036D01*
X158151147Y-103795149D01*
X157339882Y-103867931D01*
X156558403Y-104097585D01*
X155836744Y-104475285D01*
X155776634Y-104515450D01*
X155380450Y-105035845D01*
X150178180Y-105035845D01*
X150167470Y-105031409D01*
X149963820Y-104990900D01*
X149756180Y-104990900D01*
X149552530Y-105031409D01*
X149360697Y-105110869D01*
X149188051Y-105226227D01*
X149041227Y-105373051D01*
X148925869Y-105545697D01*
X148846409Y-105737530D01*
X148805900Y-105941180D01*
X142659100Y-105941180D01*
X142618591Y-105737530D01*
X142539131Y-105545697D01*
X142423773Y-105373051D01*
X142276949Y-105226227D01*
X142104303Y-105110869D01*
X141912470Y-105031409D01*
X141708820Y-104990900D01*
X141501180Y-104990900D01*
X141297530Y-105031409D01*
X141105697Y-105110869D01*
X140933051Y-105226227D01*
X140786227Y-105373051D01*
X140670869Y-105545697D01*
X140591409Y-105737530D01*
X140550900Y-105941180D01*
X139123352Y-105941180D01*
X139148755Y-105813475D01*
X139148755Y-105605835D01*
X139108246Y-105402185D01*
X139028786Y-105210352D01*
X138913428Y-105037706D01*
X138766604Y-104890882D01*
X138593958Y-104775524D01*
X138402125Y-104696064D01*
X138198475Y-104655555D01*
X137990835Y-104655555D01*
X137787185Y-104696064D01*
X137595352Y-104775524D01*
X137422706Y-104890882D01*
X137275882Y-105037706D01*
X137160524Y-105210352D01*
X137081064Y-105402185D01*
X137040555Y-105605835D01*
X130086100Y-105605835D01*
X130086100Y-105560180D01*
X130045591Y-105356530D01*
X129966131Y-105164697D01*
X129850773Y-104992051D01*
X129703949Y-104845227D01*
X129531303Y-104729869D01*
X129339470Y-104650409D01*
X129135820Y-104609900D01*
X128928180Y-104609900D01*
X128724530Y-104650409D01*
X128532697Y-104729869D01*
X128360051Y-104845227D01*
X128213227Y-104992051D01*
X128097869Y-105164697D01*
X128018409Y-105356530D01*
X127977900Y-105560180D01*
X120206965Y-105560180D01*
X119754155Y-105215450D01*
X117019605Y-107950000D01*
X116660395Y-107950000D01*
X113925845Y-105215450D01*
X113792000Y-105317348D01*
X113792000Y-105035845D01*
X114105450Y-105035845D01*
X116840000Y-107770395D01*
X119574550Y-105035845D01*
X119178366Y-104515450D01*
X118463388Y-104125252D01*
X118178698Y-104036180D01*
X131660900Y-104036180D01*
X131660900Y-104243820D01*
X131701409Y-104447470D01*
X131780869Y-104639303D01*
X131896227Y-104811949D01*
X132043051Y-104958773D01*
X132215697Y-105074131D01*
X132407530Y-105153591D01*
X132611180Y-105194100D01*
X132818820Y-105194100D01*
X133022470Y-105153591D01*
X133214303Y-105074131D01*
X133386949Y-104958773D01*
X133533773Y-104811949D01*
X133649131Y-104639303D01*
X133728591Y-104447470D01*
X133769100Y-104243820D01*
X133769100Y-104036180D01*
X133728591Y-103832530D01*
X133649131Y-103640697D01*
X133533773Y-103468051D01*
X133386949Y-103321227D01*
X133214303Y-103205869D01*
X133022470Y-103126409D01*
X132818820Y-103085900D01*
X132611180Y-103085900D01*
X132407530Y-103126409D01*
X132215697Y-103205869D01*
X132043051Y-103321227D01*
X131896227Y-103468051D01*
X131780869Y-103640697D01*
X131701409Y-103832530D01*
X131660900Y-104036180D01*
X118178698Y-104036180D01*
X117686024Y-103882036D01*
X116876147Y-103795149D01*
X116064882Y-103867931D01*
X115283403Y-104097585D01*
X114561744Y-104475285D01*
X114501634Y-104515450D01*
X114105450Y-105035845D01*
X113792000Y-105035845D01*
X113792000Y-102131180D01*
X114134900Y-102131180D01*
X114134900Y-102338820D01*
X114175409Y-102542470D01*
X114254869Y-102734303D01*
X114370227Y-102906949D01*
X114517051Y-103053773D01*
X114689697Y-103169131D01*
X114881530Y-103248591D01*
X115085180Y-103289100D01*
X115292820Y-103289100D01*
X115496470Y-103248591D01*
X115688303Y-103169131D01*
X115860949Y-103053773D01*
X116007773Y-102906949D01*
X116123131Y-102734303D01*
X116202591Y-102542470D01*
X116243100Y-102338820D01*
X116243100Y-102131180D01*
X116202591Y-101927530D01*
X116123131Y-101735697D01*
X116007773Y-101563051D01*
X115860949Y-101416227D01*
X115688303Y-101300869D01*
X115496470Y-101221409D01*
X115292820Y-101180900D01*
X115085180Y-101180900D01*
X114881530Y-101221409D01*
X114689697Y-101300869D01*
X114517051Y-101416227D01*
X114370227Y-101563051D01*
X114254869Y-101735697D01*
X114175409Y-101927530D01*
X114134900Y-102131180D01*
X113792000Y-102131180D01*
X113792000Y-100614685D01*
X120815100Y-100614685D01*
X120815100Y-100807315D01*
X120852680Y-100996243D01*
X120926396Y-101174210D01*
X121033415Y-101334375D01*
X121169625Y-101470585D01*
X121329790Y-101577604D01*
X121507757Y-101651320D01*
X121696685Y-101688900D01*
X121889315Y-101688900D01*
X122078243Y-101651320D01*
X122256210Y-101577604D01*
X122416375Y-101470585D01*
X122552585Y-101334375D01*
X122659604Y-101174210D01*
X122733320Y-100996243D01*
X122770900Y-100807315D01*
X122770900Y-100734180D01*
X141947900Y-100734180D01*
X141947900Y-100941820D01*
X141988409Y-101145470D01*
X142067869Y-101337303D01*
X142183227Y-101509949D01*
X142330051Y-101656773D01*
X142502697Y-101772131D01*
X142694530Y-101851591D01*
X142898180Y-101892100D01*
X143105820Y-101892100D01*
X143309470Y-101851591D01*
X143501303Y-101772131D01*
X143673949Y-101656773D01*
X143820773Y-101509949D01*
X143936131Y-101337303D01*
X144015591Y-101145470D01*
X144056100Y-100941820D01*
X144056100Y-100734180D01*
X144015591Y-100530530D01*
X143936131Y-100338697D01*
X143820773Y-100166051D01*
X143673949Y-100019227D01*
X143501303Y-99903869D01*
X143309470Y-99824409D01*
X143105820Y-99783900D01*
X142898180Y-99783900D01*
X142694530Y-99824409D01*
X142502697Y-99903869D01*
X142330051Y-100019227D01*
X142183227Y-100166051D01*
X142067869Y-100338697D01*
X141988409Y-100530530D01*
X141947900Y-100734180D01*
X122770900Y-100734180D01*
X122770900Y-100614685D01*
X122733320Y-100425757D01*
X122659604Y-100247790D01*
X122552585Y-100087625D01*
X122416375Y-99951415D01*
X122256210Y-99844396D01*
X122078243Y-99770680D01*
X121889315Y-99733100D01*
X121696685Y-99733100D01*
X121507757Y-99770680D01*
X121329790Y-99844396D01*
X121169625Y-99951415D01*
X121033415Y-100087625D01*
X120926396Y-100247790D01*
X120852680Y-100425757D01*
X120815100Y-100614685D01*
X113792000Y-100614685D01*
X113792000Y-99609400D01*
X123446090Y-99609400D01*
X123476762Y-99710528D01*
X123584527Y-99943629D01*
X123735697Y-100151227D01*
X123924463Y-100325344D01*
X124143570Y-100459289D01*
X124384599Y-100547915D01*
X124587000Y-100425085D01*
X124587000Y-99407000D01*
X124841000Y-99407000D01*
X124841000Y-100425085D01*
X125043401Y-100547915D01*
X125284430Y-100459289D01*
X125503537Y-100325344D01*
X125692303Y-100151227D01*
X125843473Y-99943629D01*
X125951238Y-99710528D01*
X125981910Y-99609400D01*
X125893167Y-99464180D01*
X131152900Y-99464180D01*
X131152900Y-99671820D01*
X131193409Y-99875470D01*
X131272869Y-100067303D01*
X131388227Y-100239949D01*
X131535051Y-100386773D01*
X131707697Y-100502131D01*
X131899530Y-100581591D01*
X132103180Y-100622100D01*
X132310820Y-100622100D01*
X132514470Y-100581591D01*
X132706303Y-100502131D01*
X132878949Y-100386773D01*
X133025773Y-100239949D01*
X133141131Y-100067303D01*
X133220591Y-99875470D01*
X133261100Y-99671820D01*
X133261100Y-99464180D01*
X133220591Y-99260530D01*
X133141131Y-99068697D01*
X133070965Y-98963685D01*
X135928100Y-98963685D01*
X135928100Y-99156315D01*
X135965680Y-99345243D01*
X136039396Y-99523210D01*
X136146415Y-99683375D01*
X136282625Y-99819585D01*
X136442790Y-99926604D01*
X136620757Y-100000320D01*
X136809685Y-100037900D01*
X137002315Y-100037900D01*
X137191243Y-100000320D01*
X137369210Y-99926604D01*
X137529375Y-99819585D01*
X137665585Y-99683375D01*
X137772604Y-99523210D01*
X137846320Y-99345243D01*
X137883900Y-99156315D01*
X137883900Y-98963685D01*
X137846320Y-98774757D01*
X137772604Y-98596790D01*
X137665585Y-98436625D01*
X137529375Y-98300415D01*
X137369210Y-98193396D01*
X137191243Y-98119680D01*
X137002315Y-98082100D01*
X136809685Y-98082100D01*
X136620757Y-98119680D01*
X136442790Y-98193396D01*
X136282625Y-98300415D01*
X136146415Y-98436625D01*
X136039396Y-98596790D01*
X135965680Y-98774757D01*
X135928100Y-98963685D01*
X133070965Y-98963685D01*
X133025773Y-98896051D01*
X132878949Y-98749227D01*
X132706303Y-98633869D01*
X132514470Y-98554409D01*
X132310820Y-98513900D01*
X132103180Y-98513900D01*
X131899530Y-98554409D01*
X131707697Y-98633869D01*
X131535051Y-98749227D01*
X131388227Y-98896051D01*
X131272869Y-99068697D01*
X131193409Y-99260530D01*
X131152900Y-99464180D01*
X125893167Y-99464180D01*
X125858224Y-99407000D01*
X124841000Y-99407000D01*
X124587000Y-99407000D01*
X123569776Y-99407000D01*
X123446090Y-99609400D01*
X113792000Y-99609400D01*
X113792000Y-95407222D01*
X113818551Y-95433773D01*
X113991197Y-95549131D01*
X114183030Y-95628591D01*
X114386680Y-95669100D01*
X114594320Y-95669100D01*
X114797970Y-95628591D01*
X114989803Y-95549131D01*
X115162449Y-95433773D01*
X115309273Y-95286949D01*
X115424631Y-95114303D01*
X115504091Y-94922470D01*
X115544600Y-94718820D01*
X115544600Y-94511180D01*
X115504091Y-94307530D01*
X115424631Y-94115697D01*
X115309273Y-93943051D01*
X115162449Y-93796227D01*
X114989803Y-93680869D01*
X114797970Y-93601409D01*
X114594320Y-93560900D01*
X114386680Y-93560900D01*
X114183030Y-93601409D01*
X113991197Y-93680869D01*
X113818551Y-93796227D01*
X113792000Y-93822778D01*
X113792000Y-92295722D01*
X113818551Y-92322273D01*
X113991197Y-92437631D01*
X114183030Y-92517091D01*
X114386680Y-92557600D01*
X114594320Y-92557600D01*
X114797970Y-92517091D01*
X114989803Y-92437631D01*
X115162449Y-92322273D01*
X115309273Y-92175449D01*
X115424631Y-92002803D01*
X115504091Y-91810970D01*
X115544600Y-91607320D01*
X115544600Y-91399680D01*
X115504091Y-91196030D01*
X115424631Y-91004197D01*
X115309273Y-90831551D01*
X115162449Y-90684727D01*
X114989803Y-90569369D01*
X114797970Y-90489909D01*
X114594320Y-90449400D01*
X114386680Y-90449400D01*
X114183030Y-90489909D01*
X113991197Y-90569369D01*
X113818551Y-90684727D01*
X113792000Y-90711278D01*
X113792000Y-89679961D01*
X113927697Y-89770631D01*
X114119530Y-89850091D01*
X114323180Y-89890600D01*
X114530820Y-89890600D01*
X114734470Y-89850091D01*
X114926303Y-89770631D01*
X115098949Y-89655273D01*
X115245773Y-89508449D01*
X115361131Y-89335803D01*
X115440591Y-89143970D01*
X115481100Y-88940320D01*
X115481100Y-88732680D01*
X115440591Y-88529030D01*
X115361131Y-88337197D01*
X115245773Y-88164551D01*
X115098949Y-88017727D01*
X114926303Y-87902369D01*
X114734470Y-87822909D01*
X114530820Y-87782400D01*
X114323180Y-87782400D01*
X114119530Y-87822909D01*
X113927697Y-87902369D01*
X113792000Y-87993039D01*
X113792000Y-86517222D01*
X113818551Y-86543773D01*
X113991197Y-86659131D01*
X114183030Y-86738591D01*
X114386680Y-86779100D01*
X114594320Y-86779100D01*
X114797970Y-86738591D01*
X114989803Y-86659131D01*
X115162449Y-86543773D01*
X115309273Y-86396949D01*
X115424631Y-86224303D01*
X115504091Y-86032470D01*
X115544600Y-85828820D01*
X115544600Y-85621180D01*
X115504091Y-85417530D01*
X115424631Y-85225697D01*
X115309273Y-85053051D01*
X115162449Y-84906227D01*
X114989803Y-84790869D01*
X114797970Y-84711409D01*
X114594320Y-84670900D01*
X114386680Y-84670900D01*
X114183030Y-84711409D01*
X113991197Y-84790869D01*
X113818551Y-84906227D01*
X113792000Y-84932778D01*
X113792000Y-83278722D01*
X113818551Y-83305273D01*
X113991197Y-83420631D01*
X114183030Y-83500091D01*
X114386680Y-83540600D01*
X114594320Y-83540600D01*
X114797970Y-83500091D01*
X114989803Y-83420631D01*
X115162449Y-83305273D01*
X115187722Y-83280000D01*
X123397662Y-83280000D01*
X123422955Y-83536805D01*
X123497862Y-83783741D01*
X123619505Y-84011318D01*
X123783208Y-84210792D01*
X123867539Y-84280000D01*
X123783208Y-84349208D01*
X123619505Y-84548682D01*
X123497862Y-84776259D01*
X123422955Y-85023195D01*
X123397662Y-85280000D01*
X123422955Y-85536805D01*
X123497862Y-85783741D01*
X123619505Y-86011318D01*
X123783208Y-86210792D01*
X123867539Y-86280000D01*
X123783208Y-86349208D01*
X123619505Y-86548682D01*
X123497862Y-86776259D01*
X123422955Y-87023195D01*
X123397662Y-87280000D01*
X123422955Y-87536805D01*
X123497862Y-87783741D01*
X123619505Y-88011318D01*
X123783208Y-88210792D01*
X123867539Y-88280000D01*
X123783208Y-88349208D01*
X123619505Y-88548682D01*
X123497862Y-88776259D01*
X123422955Y-89023195D01*
X123397662Y-89280000D01*
X123422955Y-89536805D01*
X123497862Y-89783741D01*
X123619505Y-90011318D01*
X123783208Y-90210792D01*
X123867539Y-90280000D01*
X123783208Y-90349208D01*
X123619505Y-90548682D01*
X123497862Y-90776259D01*
X123422955Y-91023195D01*
X123397662Y-91280000D01*
X123422955Y-91536805D01*
X123497862Y-91783741D01*
X123619505Y-92011318D01*
X123783208Y-92210792D01*
X123867539Y-92280000D01*
X123783208Y-92349208D01*
X123619505Y-92548682D01*
X123497862Y-92776259D01*
X123422955Y-93023195D01*
X123397662Y-93280000D01*
X123422955Y-93536805D01*
X123497862Y-93783741D01*
X123619505Y-94011318D01*
X123783208Y-94210792D01*
X123867539Y-94280000D01*
X123783208Y-94349208D01*
X123619505Y-94548682D01*
X123497862Y-94776259D01*
X123422955Y-95023195D01*
X123397662Y-95280000D01*
X123422955Y-95536805D01*
X123497862Y-95783741D01*
X123619505Y-96011318D01*
X123783208Y-96210792D01*
X123867539Y-96280000D01*
X123783208Y-96349208D01*
X123619505Y-96548682D01*
X123497862Y-96776259D01*
X123422955Y-97023195D01*
X123397662Y-97280000D01*
X123422955Y-97536805D01*
X123497862Y-97783741D01*
X123619505Y-98011318D01*
X123783208Y-98210792D01*
X123871648Y-98283372D01*
X123735697Y-98408773D01*
X123584527Y-98616371D01*
X123476762Y-98849472D01*
X123446090Y-98950600D01*
X123569776Y-99153000D01*
X124587000Y-99153000D01*
X124587000Y-99133000D01*
X124841000Y-99133000D01*
X124841000Y-99153000D01*
X125858224Y-99153000D01*
X125981910Y-98950600D01*
X125951238Y-98849472D01*
X125843473Y-98616371D01*
X125692303Y-98408773D01*
X125556352Y-98283372D01*
X125644792Y-98210792D01*
X125808495Y-98011318D01*
X125930138Y-97783741D01*
X126005045Y-97536805D01*
X126030338Y-97280000D01*
X126021049Y-97185685D01*
X142532100Y-97185685D01*
X142532100Y-97378315D01*
X142569680Y-97567243D01*
X142643396Y-97745210D01*
X142750415Y-97905375D01*
X142886625Y-98041585D01*
X143046790Y-98148604D01*
X143224757Y-98222320D01*
X143413685Y-98259900D01*
X143606315Y-98259900D01*
X143795243Y-98222320D01*
X143973210Y-98148604D01*
X144133375Y-98041585D01*
X144269585Y-97905375D01*
X144376604Y-97745210D01*
X144450320Y-97567243D01*
X144487900Y-97378315D01*
X144487900Y-97185685D01*
X144450320Y-96996757D01*
X144376604Y-96818790D01*
X144269585Y-96658625D01*
X144133375Y-96522415D01*
X143973210Y-96415396D01*
X143795243Y-96341680D01*
X143606315Y-96304100D01*
X143413685Y-96304100D01*
X143224757Y-96341680D01*
X143046790Y-96415396D01*
X142886625Y-96522415D01*
X142750415Y-96658625D01*
X142643396Y-96818790D01*
X142569680Y-96996757D01*
X142532100Y-97185685D01*
X126021049Y-97185685D01*
X126005045Y-97023195D01*
X125930138Y-96776259D01*
X125808495Y-96548682D01*
X125644792Y-96349208D01*
X125560461Y-96280000D01*
X125644792Y-96210792D01*
X125808495Y-96011318D01*
X125930138Y-95783741D01*
X126005045Y-95536805D01*
X126030270Y-95280685D01*
X133515100Y-95280685D01*
X133515100Y-95473315D01*
X133552680Y-95662243D01*
X133626396Y-95840210D01*
X133733415Y-96000375D01*
X133869625Y-96136585D01*
X134029790Y-96243604D01*
X134207757Y-96317320D01*
X134396685Y-96354900D01*
X134589315Y-96354900D01*
X134778243Y-96317320D01*
X134956210Y-96243604D01*
X135116375Y-96136585D01*
X135252585Y-96000375D01*
X135359604Y-95840210D01*
X135433320Y-95662243D01*
X135470900Y-95473315D01*
X135470900Y-95280685D01*
X135433320Y-95091757D01*
X135359604Y-94913790D01*
X135252585Y-94753625D01*
X135116375Y-94617415D01*
X134956210Y-94510396D01*
X134778243Y-94436680D01*
X134589315Y-94399100D01*
X134396685Y-94399100D01*
X134207757Y-94436680D01*
X134029790Y-94510396D01*
X133869625Y-94617415D01*
X133733415Y-94753625D01*
X133626396Y-94913790D01*
X133552680Y-95091757D01*
X133515100Y-95280685D01*
X126030270Y-95280685D01*
X126030338Y-95280000D01*
X126005045Y-95023195D01*
X125930138Y-94776259D01*
X125808495Y-94548682D01*
X125644792Y-94349208D01*
X125560461Y-94280000D01*
X125644792Y-94210792D01*
X125808495Y-94011318D01*
X125930138Y-93783741D01*
X125976870Y-93629685D01*
X136182100Y-93629685D01*
X136182100Y-93822315D01*
X136219680Y-94011243D01*
X136293396Y-94189210D01*
X136400415Y-94349375D01*
X136536625Y-94485585D01*
X136696790Y-94592604D01*
X136874757Y-94666320D01*
X137063685Y-94703900D01*
X137256315Y-94703900D01*
X137445243Y-94666320D01*
X137513179Y-94638180D01*
X142709900Y-94638180D01*
X142709900Y-94845820D01*
X142750409Y-95049470D01*
X142829869Y-95241303D01*
X142945227Y-95413949D01*
X143092051Y-95560773D01*
X143264697Y-95676131D01*
X143456530Y-95755591D01*
X143660180Y-95796100D01*
X143867820Y-95796100D01*
X144071470Y-95755591D01*
X144263303Y-95676131D01*
X144435949Y-95560773D01*
X144582773Y-95413949D01*
X144698131Y-95241303D01*
X144777591Y-95049470D01*
X144818100Y-94845820D01*
X144818100Y-94638180D01*
X144777591Y-94434530D01*
X144698131Y-94242697D01*
X144582773Y-94070051D01*
X144435949Y-93923227D01*
X144263303Y-93807869D01*
X144071470Y-93728409D01*
X143867820Y-93687900D01*
X143660180Y-93687900D01*
X143456530Y-93728409D01*
X143264697Y-93807869D01*
X143092051Y-93923227D01*
X142945227Y-94070051D01*
X142829869Y-94242697D01*
X142750409Y-94434530D01*
X142709900Y-94638180D01*
X137513179Y-94638180D01*
X137623210Y-94592604D01*
X137783375Y-94485585D01*
X137919585Y-94349375D01*
X138026604Y-94189210D01*
X138100320Y-94011243D01*
X138137900Y-93822315D01*
X138137900Y-93629685D01*
X138100320Y-93440757D01*
X138026604Y-93262790D01*
X137919585Y-93102625D01*
X137783375Y-92966415D01*
X137623210Y-92859396D01*
X137445243Y-92785680D01*
X137256315Y-92748100D01*
X137063685Y-92748100D01*
X136874757Y-92785680D01*
X136696790Y-92859396D01*
X136536625Y-92966415D01*
X136400415Y-93102625D01*
X136293396Y-93262790D01*
X136219680Y-93440757D01*
X136182100Y-93629685D01*
X125976870Y-93629685D01*
X126005045Y-93536805D01*
X126030338Y-93280000D01*
X126005045Y-93023195D01*
X125930138Y-92776259D01*
X125808495Y-92548682D01*
X125644792Y-92349208D01*
X125560461Y-92280000D01*
X125644792Y-92210792D01*
X125731050Y-92105685D01*
X126314200Y-92105685D01*
X126314200Y-92298315D01*
X126351780Y-92487243D01*
X126425496Y-92665210D01*
X126532515Y-92825375D01*
X126668725Y-92961585D01*
X126828890Y-93068604D01*
X127006857Y-93142320D01*
X127195785Y-93179900D01*
X127388415Y-93179900D01*
X127577343Y-93142320D01*
X127755310Y-93068604D01*
X127915475Y-92961585D01*
X128051685Y-92825375D01*
X128158704Y-92665210D01*
X128232420Y-92487243D01*
X128257792Y-92359685D01*
X131991100Y-92359685D01*
X131991100Y-92552315D01*
X132028680Y-92741243D01*
X132102396Y-92919210D01*
X132209415Y-93079375D01*
X132345625Y-93215585D01*
X132505790Y-93322604D01*
X132683757Y-93396320D01*
X132872685Y-93433900D01*
X133065315Y-93433900D01*
X133254243Y-93396320D01*
X133432210Y-93322604D01*
X133592375Y-93215585D01*
X133728585Y-93079375D01*
X133835604Y-92919210D01*
X133909320Y-92741243D01*
X133946900Y-92552315D01*
X133946900Y-92359685D01*
X133909320Y-92170757D01*
X133835604Y-91992790D01*
X133728585Y-91832625D01*
X133592375Y-91696415D01*
X133432210Y-91589396D01*
X133254243Y-91515680D01*
X133065315Y-91478100D01*
X132872685Y-91478100D01*
X132683757Y-91515680D01*
X132505790Y-91589396D01*
X132345625Y-91696415D01*
X132209415Y-91832625D01*
X132102396Y-91992790D01*
X132028680Y-92170757D01*
X131991100Y-92359685D01*
X128257792Y-92359685D01*
X128270000Y-92298315D01*
X128270000Y-92105685D01*
X128232420Y-91916757D01*
X128158704Y-91738790D01*
X128051685Y-91578625D01*
X127915475Y-91442415D01*
X127755310Y-91335396D01*
X127577343Y-91261680D01*
X127388415Y-91224100D01*
X127195785Y-91224100D01*
X127006857Y-91261680D01*
X126828890Y-91335396D01*
X126668725Y-91442415D01*
X126532515Y-91578625D01*
X126425496Y-91738790D01*
X126351780Y-91916757D01*
X126314200Y-92105685D01*
X125731050Y-92105685D01*
X125808495Y-92011318D01*
X125930138Y-91783741D01*
X126005045Y-91536805D01*
X126030338Y-91280000D01*
X126005045Y-91023195D01*
X125930138Y-90776259D01*
X125808495Y-90548682D01*
X125644792Y-90349208D01*
X125560461Y-90280000D01*
X125644792Y-90210792D01*
X125808495Y-90011318D01*
X125823312Y-89983598D01*
X125850610Y-89980909D01*
X125984671Y-89940242D01*
X126108223Y-89874202D01*
X126216517Y-89785327D01*
X126238792Y-89758185D01*
X127083847Y-88913130D01*
X134825850Y-88913130D01*
X134825850Y-89120770D01*
X134866359Y-89324420D01*
X134945819Y-89516253D01*
X135061177Y-89688899D01*
X135208001Y-89835723D01*
X135380647Y-89951081D01*
X135572480Y-90030541D01*
X135776130Y-90071050D01*
X135801624Y-90071050D01*
X135801100Y-90073685D01*
X135801100Y-90266315D01*
X135838680Y-90455243D01*
X135912396Y-90633210D01*
X136019415Y-90793375D01*
X136042885Y-90816845D01*
X136019415Y-90840315D01*
X135912396Y-91000480D01*
X135838680Y-91178447D01*
X135801100Y-91367375D01*
X135801100Y-91560005D01*
X135838680Y-91748933D01*
X135912396Y-91926900D01*
X136019415Y-92087065D01*
X136155625Y-92223275D01*
X136315790Y-92330294D01*
X136493757Y-92404010D01*
X136682685Y-92441590D01*
X136875315Y-92441590D01*
X137064243Y-92404010D01*
X137242210Y-92330294D01*
X137402375Y-92223275D01*
X137538585Y-92087065D01*
X137645604Y-91926900D01*
X137719320Y-91748933D01*
X137756900Y-91560005D01*
X137756900Y-91367375D01*
X137719320Y-91178447D01*
X137645604Y-91000480D01*
X137638551Y-90989924D01*
X141474838Y-90989924D01*
X141474838Y-91197564D01*
X141515347Y-91401214D01*
X141594807Y-91593047D01*
X141710165Y-91765693D01*
X141856989Y-91912517D01*
X142029635Y-92027875D01*
X142221468Y-92107335D01*
X142425118Y-92147844D01*
X142632758Y-92147844D01*
X142836408Y-92107335D01*
X143028241Y-92027875D01*
X143200887Y-91912517D01*
X143347711Y-91765693D01*
X143463069Y-91593047D01*
X143542529Y-91401214D01*
X143583038Y-91197564D01*
X143583038Y-90989924D01*
X143542529Y-90786274D01*
X143463069Y-90594441D01*
X143347711Y-90421795D01*
X143200887Y-90274971D01*
X143028241Y-90159613D01*
X142836408Y-90080153D01*
X142632758Y-90039644D01*
X142425118Y-90039644D01*
X142221468Y-90080153D01*
X142029635Y-90159613D01*
X141856989Y-90274971D01*
X141710165Y-90421795D01*
X141594807Y-90594441D01*
X141515347Y-90786274D01*
X141474838Y-90989924D01*
X137638551Y-90989924D01*
X137538585Y-90840315D01*
X137515115Y-90816845D01*
X137538585Y-90793375D01*
X137645604Y-90633210D01*
X137719320Y-90455243D01*
X137756900Y-90266315D01*
X137756900Y-90073685D01*
X137719320Y-89884757D01*
X137645604Y-89706790D01*
X137538585Y-89546625D01*
X137430645Y-89438685D01*
X143167100Y-89438685D01*
X143167100Y-89631315D01*
X143204680Y-89820243D01*
X143278396Y-89998210D01*
X143385415Y-90158375D01*
X143521625Y-90294585D01*
X143681790Y-90401604D01*
X143859757Y-90475320D01*
X144048685Y-90512900D01*
X144241315Y-90512900D01*
X144430243Y-90475320D01*
X144608210Y-90401604D01*
X144768375Y-90294585D01*
X144904585Y-90158375D01*
X145011604Y-89998210D01*
X145085320Y-89820243D01*
X145122900Y-89631315D01*
X145122900Y-89438685D01*
X145085320Y-89249757D01*
X145011604Y-89071790D01*
X144904585Y-88911625D01*
X144768375Y-88775415D01*
X144608210Y-88668396D01*
X144430243Y-88594680D01*
X144241315Y-88557100D01*
X144048685Y-88557100D01*
X143859757Y-88594680D01*
X143681790Y-88668396D01*
X143521625Y-88775415D01*
X143385415Y-88911625D01*
X143278396Y-89071790D01*
X143204680Y-89249757D01*
X143167100Y-89438685D01*
X137430645Y-89438685D01*
X137402375Y-89410415D01*
X137242210Y-89303396D01*
X137065714Y-89230289D01*
X137191243Y-89205320D01*
X137369210Y-89131604D01*
X137529375Y-89024585D01*
X137665585Y-88888375D01*
X137772604Y-88728210D01*
X137846320Y-88550243D01*
X137883900Y-88361315D01*
X137883900Y-88168685D01*
X137846320Y-87979757D01*
X137772604Y-87801790D01*
X137665585Y-87641625D01*
X137529375Y-87505415D01*
X137369210Y-87398396D01*
X137191243Y-87324680D01*
X137002315Y-87287100D01*
X136809685Y-87287100D01*
X136620757Y-87324680D01*
X136442790Y-87398396D01*
X136282625Y-87505415D01*
X136146415Y-87641625D01*
X136039396Y-87801790D01*
X135972683Y-87962850D01*
X135776130Y-87962850D01*
X135572480Y-88003359D01*
X135380647Y-88082819D01*
X135208001Y-88198177D01*
X135061177Y-88345001D01*
X134945819Y-88517647D01*
X134866359Y-88709480D01*
X134825850Y-88913130D01*
X127083847Y-88913130D01*
X128363131Y-87633847D01*
X128368580Y-87661243D01*
X128442296Y-87839210D01*
X128549315Y-87999375D01*
X128685525Y-88135585D01*
X128845690Y-88242604D01*
X129023657Y-88316320D01*
X129212585Y-88353900D01*
X129405215Y-88353900D01*
X129594143Y-88316320D01*
X129772110Y-88242604D01*
X129932275Y-88135585D01*
X130068485Y-87999375D01*
X130175504Y-87839210D01*
X130249220Y-87661243D01*
X130286800Y-87472315D01*
X130286800Y-87279685D01*
X130249220Y-87090757D01*
X130175504Y-86912790D01*
X130068485Y-86752625D01*
X129932275Y-86616415D01*
X129772110Y-86509396D01*
X129594143Y-86435680D01*
X129566747Y-86430231D01*
X130114293Y-85882685D01*
X136563100Y-85882685D01*
X136563100Y-86075315D01*
X136600680Y-86264243D01*
X136674396Y-86442210D01*
X136781415Y-86602375D01*
X136917625Y-86738585D01*
X137077790Y-86845604D01*
X137255757Y-86919320D01*
X137444685Y-86956900D01*
X137637315Y-86956900D01*
X137826243Y-86919320D01*
X138004210Y-86845604D01*
X138164375Y-86738585D01*
X138300585Y-86602375D01*
X138407604Y-86442210D01*
X138481320Y-86264243D01*
X138518900Y-86075315D01*
X138518900Y-85882685D01*
X138481320Y-85693757D01*
X138407604Y-85515790D01*
X138300585Y-85355625D01*
X138164375Y-85219415D01*
X138004210Y-85112396D01*
X137826243Y-85038680D01*
X137637315Y-85001100D01*
X137444685Y-85001100D01*
X137255757Y-85038680D01*
X137077790Y-85112396D01*
X136917625Y-85219415D01*
X136781415Y-85355625D01*
X136674396Y-85515790D01*
X136600680Y-85693757D01*
X136563100Y-85882685D01*
X130114293Y-85882685D01*
X130437079Y-85559899D01*
X133172358Y-85559899D01*
X133207284Y-85563339D01*
X133242210Y-85559899D01*
X133242220Y-85559899D01*
X133346704Y-85549608D01*
X133480765Y-85508941D01*
X133604317Y-85442901D01*
X133712611Y-85354026D01*
X133734886Y-85326884D01*
X134703085Y-84358685D01*
X139357100Y-84358685D01*
X139357100Y-84551315D01*
X139394680Y-84740243D01*
X139468396Y-84918210D01*
X139575415Y-85078375D01*
X139711625Y-85214585D01*
X139871790Y-85321604D01*
X140049757Y-85395320D01*
X140238685Y-85432900D01*
X140431315Y-85432900D01*
X140620243Y-85395320D01*
X140798210Y-85321604D01*
X140958375Y-85214585D01*
X141094585Y-85078375D01*
X141201604Y-84918210D01*
X141275320Y-84740243D01*
X141312900Y-84551315D01*
X141312900Y-84358685D01*
X141275320Y-84169757D01*
X141201604Y-83991790D01*
X141094585Y-83831625D01*
X140958375Y-83695415D01*
X140798210Y-83588396D01*
X140620243Y-83514680D01*
X140431315Y-83477100D01*
X140238685Y-83477100D01*
X140049757Y-83514680D01*
X139871790Y-83588396D01*
X139711625Y-83695415D01*
X139575415Y-83831625D01*
X139468396Y-83991790D01*
X139394680Y-84169757D01*
X139357100Y-84358685D01*
X134703085Y-84358685D01*
X138125936Y-80935835D01*
X138178415Y-81014375D01*
X138314625Y-81150585D01*
X138357673Y-81179349D01*
X138357673Y-81282462D01*
X138395253Y-81471390D01*
X138468969Y-81649357D01*
X138575988Y-81809522D01*
X138712198Y-81945732D01*
X138872363Y-82052751D01*
X139050330Y-82126467D01*
X139239258Y-82164047D01*
X139431888Y-82164047D01*
X139620816Y-82126467D01*
X139798783Y-82052751D01*
X139922728Y-81969933D01*
X143224978Y-81969933D01*
X143224978Y-82177573D01*
X143265487Y-82381223D01*
X143344947Y-82573056D01*
X143460305Y-82745702D01*
X143607129Y-82892526D01*
X143779775Y-83007884D01*
X143971608Y-83087344D01*
X144175258Y-83127853D01*
X144382898Y-83127853D01*
X144586548Y-83087344D01*
X144778381Y-83007884D01*
X144951027Y-82892526D01*
X145097851Y-82745702D01*
X145213209Y-82573056D01*
X145292669Y-82381223D01*
X145333178Y-82177573D01*
X145333178Y-81969933D01*
X145292669Y-81766283D01*
X145213209Y-81574450D01*
X145097851Y-81401804D01*
X144984647Y-81288600D01*
X145394062Y-81288600D01*
X145419355Y-81545405D01*
X145494262Y-81792341D01*
X145615905Y-82019918D01*
X145779608Y-82219392D01*
X145863939Y-82288600D01*
X145779608Y-82357808D01*
X145615905Y-82557282D01*
X145494262Y-82784859D01*
X145419355Y-83031795D01*
X145394062Y-83288600D01*
X145419355Y-83545405D01*
X145494262Y-83792341D01*
X145615905Y-84019918D01*
X145779608Y-84219392D01*
X145863939Y-84288600D01*
X145779608Y-84357808D01*
X145615905Y-84557282D01*
X145494262Y-84784859D01*
X145419355Y-85031795D01*
X145394062Y-85288600D01*
X145419355Y-85545405D01*
X145494262Y-85792341D01*
X145615905Y-86019918D01*
X145779608Y-86219392D01*
X145863939Y-86288600D01*
X145779608Y-86357808D01*
X145615905Y-86557282D01*
X145494262Y-86784859D01*
X145419355Y-87031795D01*
X145394062Y-87288600D01*
X145419355Y-87545405D01*
X145494262Y-87792341D01*
X145615905Y-88019918D01*
X145779608Y-88219392D01*
X145863939Y-88288600D01*
X145779608Y-88357808D01*
X145615905Y-88557282D01*
X145494262Y-88784859D01*
X145419355Y-89031795D01*
X145394062Y-89288600D01*
X145419355Y-89545405D01*
X145494262Y-89792341D01*
X145615905Y-90019918D01*
X145779608Y-90219392D01*
X145863939Y-90288600D01*
X145779608Y-90357808D01*
X145615905Y-90557282D01*
X145494262Y-90784859D01*
X145419355Y-91031795D01*
X145394062Y-91288600D01*
X145419355Y-91545405D01*
X145494262Y-91792341D01*
X145615905Y-92019918D01*
X145779608Y-92219392D01*
X145863939Y-92288600D01*
X145779608Y-92357808D01*
X145615905Y-92557282D01*
X145494262Y-92784859D01*
X145419355Y-93031795D01*
X145394062Y-93288600D01*
X145419355Y-93545405D01*
X145494262Y-93792341D01*
X145615905Y-94019918D01*
X145779608Y-94219392D01*
X145863939Y-94288600D01*
X145779608Y-94357808D01*
X145615905Y-94557282D01*
X145494262Y-94784859D01*
X145419355Y-95031795D01*
X145394062Y-95288600D01*
X145419355Y-95545405D01*
X145494262Y-95792341D01*
X145615905Y-96019918D01*
X145779608Y-96219392D01*
X145863939Y-96288600D01*
X145779608Y-96357808D01*
X145615905Y-96557282D01*
X145494262Y-96784859D01*
X145419355Y-97031795D01*
X145394062Y-97288600D01*
X145419355Y-97545405D01*
X145494262Y-97792341D01*
X145615905Y-98019918D01*
X145673031Y-98089526D01*
X145584215Y-98162415D01*
X145504863Y-98259106D01*
X145445898Y-98369420D01*
X145409588Y-98489118D01*
X145397328Y-98613600D01*
X145397328Y-99963600D01*
X145409588Y-100088082D01*
X145445898Y-100207780D01*
X145504863Y-100318094D01*
X145584215Y-100414785D01*
X145680906Y-100494137D01*
X145791220Y-100553102D01*
X145910918Y-100589412D01*
X146035400Y-100601672D01*
X147385400Y-100601672D01*
X147509882Y-100589412D01*
X147629580Y-100553102D01*
X147739894Y-100494137D01*
X147836585Y-100414785D01*
X147915937Y-100318094D01*
X147974902Y-100207780D01*
X148011212Y-100088082D01*
X148023472Y-99963600D01*
X148023472Y-99718180D01*
X149694900Y-99718180D01*
X149694900Y-99925820D01*
X149735409Y-100129470D01*
X149814869Y-100321303D01*
X149930227Y-100493949D01*
X150077051Y-100640773D01*
X150249697Y-100756131D01*
X150441530Y-100835591D01*
X150645180Y-100876100D01*
X150852820Y-100876100D01*
X151056470Y-100835591D01*
X151248303Y-100756131D01*
X151420949Y-100640773D01*
X151567773Y-100493949D01*
X151683131Y-100321303D01*
X151762591Y-100129470D01*
X151803100Y-99925820D01*
X151803100Y-99797890D01*
X155784524Y-99797890D01*
X155829175Y-99945099D01*
X155954359Y-100207920D01*
X156128412Y-100441269D01*
X156344645Y-100636178D01*
X156594748Y-100785157D01*
X156869109Y-100882481D01*
X157099000Y-100761814D01*
X157099000Y-99568000D01*
X157353000Y-99568000D01*
X157353000Y-100761814D01*
X157582891Y-100882481D01*
X157857252Y-100785157D01*
X158107355Y-100636178D01*
X158323588Y-100441269D01*
X158496000Y-100210120D01*
X158668412Y-100441269D01*
X158884645Y-100636178D01*
X159134748Y-100785157D01*
X159409109Y-100882481D01*
X159639000Y-100761814D01*
X159639000Y-99568000D01*
X157353000Y-99568000D01*
X157099000Y-99568000D01*
X155905845Y-99568000D01*
X155784524Y-99797890D01*
X151803100Y-99797890D01*
X151803100Y-99718180D01*
X151762591Y-99514530D01*
X151683131Y-99322697D01*
X151567773Y-99150051D01*
X151420949Y-99003227D01*
X151248303Y-98887869D01*
X151056470Y-98808409D01*
X150852820Y-98767900D01*
X150645180Y-98767900D01*
X150441530Y-98808409D01*
X150249697Y-98887869D01*
X150077051Y-99003227D01*
X149930227Y-99150051D01*
X149814869Y-99322697D01*
X149735409Y-99514530D01*
X149694900Y-99718180D01*
X148023472Y-99718180D01*
X148023472Y-98613600D01*
X148011212Y-98489118D01*
X147974902Y-98369420D01*
X147915937Y-98259106D01*
X147836585Y-98162415D01*
X147747769Y-98089526D01*
X147804895Y-98019918D01*
X147926538Y-97792341D01*
X148001445Y-97545405D01*
X148026738Y-97288600D01*
X148001445Y-97031795D01*
X147926538Y-96784859D01*
X147804895Y-96557282D01*
X147641192Y-96357808D01*
X147556861Y-96288600D01*
X147641192Y-96219392D01*
X147804895Y-96019918D01*
X147926538Y-95792341D01*
X148001445Y-95545405D01*
X148026738Y-95288600D01*
X148001445Y-95031795D01*
X147926538Y-94784859D01*
X147804895Y-94557282D01*
X147641192Y-94357808D01*
X147556861Y-94288600D01*
X147641192Y-94219392D01*
X147804895Y-94019918D01*
X147926538Y-93792341D01*
X148001445Y-93545405D01*
X148026738Y-93288600D01*
X148001445Y-93031795D01*
X147926538Y-92784859D01*
X147804895Y-92557282D01*
X147641192Y-92357808D01*
X147556861Y-92288600D01*
X147641192Y-92219392D01*
X147804895Y-92019918D01*
X147926538Y-91792341D01*
X148001445Y-91545405D01*
X148026738Y-91288600D01*
X148001445Y-91031795D01*
X147926538Y-90784859D01*
X147804895Y-90557282D01*
X147714538Y-90447180D01*
X149948900Y-90447180D01*
X149948900Y-90654820D01*
X149989409Y-90858470D01*
X150068869Y-91050303D01*
X150184227Y-91222949D01*
X150331051Y-91369773D01*
X150503697Y-91485131D01*
X150695530Y-91564591D01*
X150899180Y-91605100D01*
X151106820Y-91605100D01*
X151310470Y-91564591D01*
X151502303Y-91485131D01*
X151674949Y-91369773D01*
X151821773Y-91222949D01*
X151899851Y-91106096D01*
X151914396Y-91141210D01*
X152021415Y-91301375D01*
X152157625Y-91437585D01*
X152317790Y-91544604D01*
X152495757Y-91618320D01*
X152684685Y-91655900D01*
X152877315Y-91655900D01*
X153066243Y-91618320D01*
X153244210Y-91544604D01*
X153404375Y-91437585D01*
X153540585Y-91301375D01*
X153647604Y-91141210D01*
X153721320Y-90963243D01*
X153758900Y-90774315D01*
X153758900Y-90581685D01*
X153721320Y-90392757D01*
X153647604Y-90214790D01*
X153540585Y-90054625D01*
X153404375Y-89918415D01*
X153244210Y-89811396D01*
X153066243Y-89737680D01*
X152877315Y-89700100D01*
X152684685Y-89700100D01*
X152495757Y-89737680D01*
X152317790Y-89811396D01*
X152157625Y-89918415D01*
X152021415Y-90054625D01*
X151970134Y-90131373D01*
X151937131Y-90051697D01*
X151821773Y-89879051D01*
X151674949Y-89732227D01*
X151502303Y-89616869D01*
X151310470Y-89537409D01*
X151106820Y-89496900D01*
X150899180Y-89496900D01*
X150695530Y-89537409D01*
X150503697Y-89616869D01*
X150331051Y-89732227D01*
X150184227Y-89879051D01*
X150068869Y-90051697D01*
X149989409Y-90243530D01*
X149948900Y-90447180D01*
X147714538Y-90447180D01*
X147641192Y-90357808D01*
X147556861Y-90288600D01*
X147641192Y-90219392D01*
X147804895Y-90019918D01*
X147926538Y-89792341D01*
X148001445Y-89545405D01*
X148026738Y-89288600D01*
X148001445Y-89031795D01*
X147926538Y-88784859D01*
X147804895Y-88557282D01*
X147641192Y-88357808D01*
X147556861Y-88288600D01*
X147641192Y-88219392D01*
X147804895Y-88019918D01*
X147926538Y-87792341D01*
X147930226Y-87780180D01*
X149948900Y-87780180D01*
X149948900Y-87987820D01*
X149989409Y-88191470D01*
X150068869Y-88383303D01*
X150184227Y-88555949D01*
X150331051Y-88702773D01*
X150503697Y-88818131D01*
X150695530Y-88897591D01*
X150899180Y-88938100D01*
X151106820Y-88938100D01*
X151310470Y-88897591D01*
X151502303Y-88818131D01*
X151674949Y-88702773D01*
X151821773Y-88555949D01*
X151867378Y-88487697D01*
X151914396Y-88601210D01*
X152021415Y-88761375D01*
X152157625Y-88897585D01*
X152317790Y-89004604D01*
X152495757Y-89078320D01*
X152684685Y-89115900D01*
X152877315Y-89115900D01*
X153066243Y-89078320D01*
X153244210Y-89004604D01*
X153404375Y-88897585D01*
X153540585Y-88761375D01*
X153647604Y-88601210D01*
X153721320Y-88423243D01*
X153758900Y-88234315D01*
X153758900Y-88041685D01*
X153721320Y-87852757D01*
X153647604Y-87674790D01*
X153540585Y-87514625D01*
X153404375Y-87378415D01*
X153244210Y-87271396D01*
X153066243Y-87197680D01*
X152877315Y-87160100D01*
X152684685Y-87160100D01*
X152495757Y-87197680D01*
X152317790Y-87271396D01*
X152157625Y-87378415D01*
X152021415Y-87514625D01*
X152002608Y-87542772D01*
X151937131Y-87384697D01*
X151821773Y-87212051D01*
X151674949Y-87065227D01*
X151502303Y-86949869D01*
X151310470Y-86870409D01*
X151106820Y-86829900D01*
X150899180Y-86829900D01*
X150695530Y-86870409D01*
X150503697Y-86949869D01*
X150331051Y-87065227D01*
X150184227Y-87212051D01*
X150068869Y-87384697D01*
X149989409Y-87576530D01*
X149948900Y-87780180D01*
X147930226Y-87780180D01*
X148001445Y-87545405D01*
X148026738Y-87288600D01*
X148001445Y-87031795D01*
X147926538Y-86784859D01*
X147804895Y-86557282D01*
X147641192Y-86357808D01*
X147556861Y-86288600D01*
X147641192Y-86219392D01*
X147804895Y-86019918D01*
X147926538Y-85792341D01*
X148001445Y-85545405D01*
X148026738Y-85288600D01*
X148001445Y-85031795D01*
X147926538Y-84784859D01*
X147804895Y-84557282D01*
X147641192Y-84357808D01*
X147556861Y-84288600D01*
X147641192Y-84219392D01*
X147804895Y-84019918D01*
X147926538Y-83792341D01*
X148001445Y-83545405D01*
X148026738Y-83288600D01*
X148001445Y-83031795D01*
X147926538Y-82784859D01*
X147881276Y-82700180D01*
X149948900Y-82700180D01*
X149948900Y-82907820D01*
X149989409Y-83111470D01*
X150068869Y-83303303D01*
X150184227Y-83475949D01*
X150331051Y-83622773D01*
X150503697Y-83738131D01*
X150695530Y-83817591D01*
X150899180Y-83858100D01*
X151106820Y-83858100D01*
X151310470Y-83817591D01*
X151502303Y-83738131D01*
X151674949Y-83622773D01*
X151821773Y-83475949D01*
X151899851Y-83359096D01*
X151914396Y-83394210D01*
X152021415Y-83554375D01*
X152157625Y-83690585D01*
X152317790Y-83797604D01*
X152495757Y-83871320D01*
X152684685Y-83908900D01*
X152877315Y-83908900D01*
X153066243Y-83871320D01*
X153244210Y-83797604D01*
X153404375Y-83690585D01*
X153540585Y-83554375D01*
X153647604Y-83394210D01*
X153721320Y-83216243D01*
X153758900Y-83027315D01*
X153758900Y-82834685D01*
X153721320Y-82645757D01*
X153647604Y-82467790D01*
X153540585Y-82307625D01*
X153404375Y-82171415D01*
X153244210Y-82064396D01*
X153066243Y-81990680D01*
X152877315Y-81953100D01*
X152684685Y-81953100D01*
X152495757Y-81990680D01*
X152317790Y-82064396D01*
X152157625Y-82171415D01*
X152021415Y-82307625D01*
X151970134Y-82384373D01*
X151937131Y-82304697D01*
X151821773Y-82132051D01*
X151674949Y-81985227D01*
X151502303Y-81869869D01*
X151310470Y-81790409D01*
X151106820Y-81749900D01*
X150899180Y-81749900D01*
X150695530Y-81790409D01*
X150503697Y-81869869D01*
X150331051Y-81985227D01*
X150184227Y-82132051D01*
X150068869Y-82304697D01*
X149989409Y-82496530D01*
X149948900Y-82700180D01*
X147881276Y-82700180D01*
X147804895Y-82557282D01*
X147641192Y-82357808D01*
X147556861Y-82288600D01*
X147641192Y-82219392D01*
X147804895Y-82019918D01*
X147926538Y-81792341D01*
X148001445Y-81545405D01*
X148026738Y-81288600D01*
X148001445Y-81031795D01*
X147926538Y-80784859D01*
X147804895Y-80557282D01*
X147641192Y-80357808D01*
X147441718Y-80194105D01*
X147214141Y-80072462D01*
X146967205Y-79997555D01*
X146774751Y-79978600D01*
X146646049Y-79978600D01*
X146453595Y-79997555D01*
X146206659Y-80072462D01*
X145979082Y-80194105D01*
X145779608Y-80357808D01*
X145615905Y-80557282D01*
X145494262Y-80784859D01*
X145419355Y-81031795D01*
X145394062Y-81288600D01*
X144984647Y-81288600D01*
X144951027Y-81254980D01*
X144778381Y-81139622D01*
X144586548Y-81060162D01*
X144382898Y-81019653D01*
X144175258Y-81019653D01*
X143971608Y-81060162D01*
X143779775Y-81139622D01*
X143607129Y-81254980D01*
X143460305Y-81401804D01*
X143344947Y-81574450D01*
X143265487Y-81766283D01*
X143224978Y-81969933D01*
X139922728Y-81969933D01*
X139958948Y-81945732D01*
X140042748Y-81861932D01*
X140093987Y-81846389D01*
X140217539Y-81780349D01*
X140325833Y-81691474D01*
X140348108Y-81664332D01*
X141448195Y-80564246D01*
X141475326Y-80541980D01*
X141497593Y-80514848D01*
X141497597Y-80514844D01*
X141564202Y-80433686D01*
X141593806Y-80378301D01*
X141630242Y-80310134D01*
X141670909Y-80176073D01*
X141681200Y-80071589D01*
X141681200Y-80071580D01*
X141684640Y-80036654D01*
X141681200Y-80001728D01*
X141681200Y-78647925D01*
X141684640Y-78612999D01*
X141681200Y-78578073D01*
X141681200Y-78578064D01*
X141670909Y-78473580D01*
X141630242Y-78339519D01*
X141564202Y-78215967D01*
X141497597Y-78134808D01*
X141497593Y-78134804D01*
X141475327Y-78107673D01*
X141448196Y-78085407D01*
X140113300Y-76750513D01*
X140091026Y-76723372D01*
X139982732Y-76634497D01*
X139869841Y-76574155D01*
X155380450Y-76574155D01*
X155776634Y-77094550D01*
X156491612Y-77484748D01*
X157268976Y-77727964D01*
X158078853Y-77814851D01*
X158890118Y-77742069D01*
X159671597Y-77512415D01*
X160393256Y-77134715D01*
X160453366Y-77094550D01*
X160849550Y-76574155D01*
X158115000Y-73839605D01*
X155380450Y-76574155D01*
X139869841Y-76574155D01*
X139859180Y-76568457D01*
X139833341Y-76560619D01*
X139951585Y-76442375D01*
X140058604Y-76282210D01*
X140132320Y-76104243D01*
X140169900Y-75915315D01*
X140169900Y-75722685D01*
X140132320Y-75533757D01*
X140058604Y-75355790D01*
X139951585Y-75195625D01*
X139815375Y-75059415D01*
X139655210Y-74952396D01*
X139477243Y-74878680D01*
X139288315Y-74841100D01*
X139095685Y-74841100D01*
X138906757Y-74878680D01*
X138728790Y-74952396D01*
X138568625Y-75059415D01*
X138432415Y-75195625D01*
X138325396Y-75355790D01*
X138251680Y-75533757D01*
X138242320Y-75580814D01*
X138080243Y-75513680D01*
X137891315Y-75476100D01*
X137698685Y-75476100D01*
X137509757Y-75513680D01*
X137331790Y-75587396D01*
X137171625Y-75694415D01*
X137035415Y-75830625D01*
X136928396Y-75990790D01*
X136854680Y-76168757D01*
X136817100Y-76357685D01*
X136817100Y-76550315D01*
X136854680Y-76739243D01*
X136872925Y-76783292D01*
X135523089Y-78133129D01*
X135497375Y-78107415D01*
X135337210Y-78000396D01*
X135159243Y-77926680D01*
X134970315Y-77889100D01*
X134777685Y-77889100D01*
X134588757Y-77926680D01*
X134410790Y-78000396D01*
X134250625Y-78107415D01*
X134114415Y-78243625D01*
X134007396Y-78403790D01*
X133933680Y-78581757D01*
X133896100Y-78770685D01*
X133896100Y-78963315D01*
X133933680Y-79152243D01*
X134007396Y-79330210D01*
X134114415Y-79490375D01*
X134140129Y-79516089D01*
X132295900Y-81360319D01*
X132295900Y-81259886D01*
X132258320Y-81070958D01*
X132184604Y-80892991D01*
X132077585Y-80732826D01*
X131941375Y-80596616D01*
X131781210Y-80489597D01*
X131603243Y-80415881D01*
X131414315Y-80378301D01*
X131221685Y-80378301D01*
X131032757Y-80415881D01*
X130854790Y-80489597D01*
X130694625Y-80596616D01*
X130558415Y-80732826D01*
X130451396Y-80892991D01*
X130377680Y-81070958D01*
X130340100Y-81259886D01*
X130340100Y-81452516D01*
X130377680Y-81641444D01*
X130451396Y-81819411D01*
X130501102Y-81893801D01*
X126027072Y-81893801D01*
X126027072Y-80605000D01*
X126014812Y-80480518D01*
X125978502Y-80360820D01*
X125919537Y-80250506D01*
X125840185Y-80153815D01*
X125743494Y-80074463D01*
X125633180Y-80015498D01*
X125513482Y-79979188D01*
X125389000Y-79966928D01*
X124039000Y-79966928D01*
X123914518Y-79979188D01*
X123794820Y-80015498D01*
X123684506Y-80074463D01*
X123587815Y-80153815D01*
X123508463Y-80250506D01*
X123449498Y-80360820D01*
X123413188Y-80480518D01*
X123400928Y-80605000D01*
X123400928Y-81955000D01*
X123413188Y-82079482D01*
X123449498Y-82199180D01*
X123508463Y-82309494D01*
X123587815Y-82406185D01*
X123676631Y-82479074D01*
X123619505Y-82548682D01*
X123497862Y-82776259D01*
X123422955Y-83023195D01*
X123397662Y-83280000D01*
X115187722Y-83280000D01*
X115309273Y-83158449D01*
X115424631Y-82985803D01*
X115504091Y-82793970D01*
X115544600Y-82590320D01*
X115544600Y-82382680D01*
X115504091Y-82179030D01*
X115424631Y-81987197D01*
X115309273Y-81814551D01*
X115162449Y-81667727D01*
X114989803Y-81552369D01*
X114797970Y-81472909D01*
X114594320Y-81432400D01*
X114386680Y-81432400D01*
X114183030Y-81472909D01*
X113991197Y-81552369D01*
X113818551Y-81667727D01*
X113792000Y-81694278D01*
X113792000Y-79659685D01*
X129070100Y-79659685D01*
X129070100Y-79852315D01*
X129107680Y-80041243D01*
X129181396Y-80219210D01*
X129288415Y-80379375D01*
X129424625Y-80515585D01*
X129584790Y-80622604D01*
X129762757Y-80696320D01*
X129951685Y-80733900D01*
X130144315Y-80733900D01*
X130333243Y-80696320D01*
X130511210Y-80622604D01*
X130671375Y-80515585D01*
X130807585Y-80379375D01*
X130914604Y-80219210D01*
X130988320Y-80041243D01*
X131025900Y-79852315D01*
X131025900Y-79659685D01*
X130988320Y-79470757D01*
X130914604Y-79292790D01*
X130807585Y-79132625D01*
X130671375Y-78996415D01*
X130511210Y-78889396D01*
X130333243Y-78815680D01*
X130144315Y-78778100D01*
X129951685Y-78778100D01*
X129762757Y-78815680D01*
X129584790Y-78889396D01*
X129424625Y-78996415D01*
X129288415Y-79132625D01*
X129181396Y-79292790D01*
X129107680Y-79470757D01*
X129070100Y-79659685D01*
X113792000Y-79659685D01*
X113792000Y-76574155D01*
X114105450Y-76574155D01*
X114501634Y-77094550D01*
X115216612Y-77484748D01*
X115993976Y-77727964D01*
X116803853Y-77814851D01*
X117615118Y-77742069D01*
X118396597Y-77512415D01*
X119118256Y-77134715D01*
X119178366Y-77094550D01*
X119574550Y-76574155D01*
X116840000Y-73839605D01*
X114105450Y-76574155D01*
X113792000Y-76574155D01*
X113792000Y-76292652D01*
X113925845Y-76394550D01*
X116660395Y-73660000D01*
X117019605Y-73660000D01*
X119754155Y-76394550D01*
X120274550Y-75998366D01*
X120664748Y-75283388D01*
X120907964Y-74506024D01*
X120927311Y-74325685D01*
X122466100Y-74325685D01*
X122466100Y-74518315D01*
X122503680Y-74707243D01*
X122577396Y-74885210D01*
X122684415Y-75045375D01*
X122820625Y-75181585D01*
X122980790Y-75288604D01*
X123158757Y-75362320D01*
X123347685Y-75399900D01*
X123540315Y-75399900D01*
X123729243Y-75362320D01*
X123907210Y-75288604D01*
X124067375Y-75181585D01*
X124203585Y-75045375D01*
X124310604Y-74885210D01*
X124384320Y-74707243D01*
X124421900Y-74518315D01*
X124421900Y-74325685D01*
X124396639Y-74198685D01*
X130086100Y-74198685D01*
X130086100Y-74391315D01*
X130123680Y-74580243D01*
X130197396Y-74758210D01*
X130304415Y-74918375D01*
X130440625Y-75054585D01*
X130600790Y-75161604D01*
X130778757Y-75235320D01*
X130967685Y-75272900D01*
X131160315Y-75272900D01*
X131349243Y-75235320D01*
X131527210Y-75161604D01*
X131687375Y-75054585D01*
X131823585Y-74918375D01*
X131930604Y-74758210D01*
X132004320Y-74580243D01*
X132041900Y-74391315D01*
X132041900Y-74198685D01*
X132004320Y-74009757D01*
X131930604Y-73831790D01*
X131823585Y-73671625D01*
X131687375Y-73535415D01*
X131527210Y-73428396D01*
X131349243Y-73354680D01*
X131160315Y-73317100D01*
X130967685Y-73317100D01*
X130778757Y-73354680D01*
X130600790Y-73428396D01*
X130440625Y-73535415D01*
X130304415Y-73671625D01*
X130197396Y-73831790D01*
X130123680Y-74009757D01*
X130086100Y-74198685D01*
X124396639Y-74198685D01*
X124384320Y-74136757D01*
X124310604Y-73958790D01*
X124203585Y-73798625D01*
X124067375Y-73662415D01*
X123907210Y-73555396D01*
X123729243Y-73481680D01*
X123540315Y-73444100D01*
X123347685Y-73444100D01*
X123158757Y-73481680D01*
X122980790Y-73555396D01*
X122820625Y-73662415D01*
X122684415Y-73798625D01*
X122577396Y-73958790D01*
X122503680Y-74136757D01*
X122466100Y-74325685D01*
X120927311Y-74325685D01*
X120994851Y-73696147D01*
X120937393Y-73055685D01*
X139865100Y-73055685D01*
X139865100Y-73248315D01*
X139902680Y-73437243D01*
X139976396Y-73615210D01*
X140083415Y-73775375D01*
X140219625Y-73911585D01*
X140379790Y-74018604D01*
X140557757Y-74092320D01*
X140746685Y-74129900D01*
X140939315Y-74129900D01*
X141128243Y-74092320D01*
X141178060Y-74071685D01*
X142151100Y-74071685D01*
X142151100Y-74264315D01*
X142188680Y-74453243D01*
X142262396Y-74631210D01*
X142369415Y-74791375D01*
X142505625Y-74927585D01*
X142665790Y-75034604D01*
X142843757Y-75108320D01*
X143032685Y-75145900D01*
X143225315Y-75145900D01*
X143414243Y-75108320D01*
X143592210Y-75034604D01*
X143752375Y-74927585D01*
X143888585Y-74791375D01*
X143995604Y-74631210D01*
X144069320Y-74453243D01*
X144106900Y-74264315D01*
X144106900Y-74071685D01*
X144103170Y-74052931D01*
X145561346Y-74052931D01*
X145561346Y-74245561D01*
X145598926Y-74434489D01*
X145672642Y-74612456D01*
X145779661Y-74772621D01*
X145915871Y-74908831D01*
X146076036Y-75015850D01*
X146254003Y-75089566D01*
X146442931Y-75127146D01*
X146635561Y-75127146D01*
X146824489Y-75089566D01*
X147002456Y-75015850D01*
X147162621Y-74908831D01*
X147298831Y-74772621D01*
X147405850Y-74612456D01*
X147479566Y-74434489D01*
X147517146Y-74245561D01*
X147517146Y-74052931D01*
X147479566Y-73864003D01*
X147405850Y-73686036D01*
X147364301Y-73623853D01*
X153960149Y-73623853D01*
X154032931Y-74435118D01*
X154262585Y-75216597D01*
X154640285Y-75938256D01*
X154680450Y-75998366D01*
X155200845Y-76394550D01*
X157935395Y-73660000D01*
X155200845Y-70925450D01*
X154680450Y-71321634D01*
X154290252Y-72036612D01*
X154047036Y-72813976D01*
X153960149Y-73623853D01*
X147364301Y-73623853D01*
X147298831Y-73525871D01*
X147162621Y-73389661D01*
X147002456Y-73282642D01*
X146824489Y-73208926D01*
X146635561Y-73171346D01*
X146442931Y-73171346D01*
X146254003Y-73208926D01*
X146076036Y-73282642D01*
X145915871Y-73389661D01*
X145779661Y-73525871D01*
X145672642Y-73686036D01*
X145598926Y-73864003D01*
X145561346Y-74052931D01*
X144103170Y-74052931D01*
X144069320Y-73882757D01*
X143995604Y-73704790D01*
X143888585Y-73544625D01*
X143752375Y-73408415D01*
X143592210Y-73301396D01*
X143414243Y-73227680D01*
X143225315Y-73190100D01*
X143032685Y-73190100D01*
X142843757Y-73227680D01*
X142665790Y-73301396D01*
X142505625Y-73408415D01*
X142369415Y-73544625D01*
X142262396Y-73704790D01*
X142188680Y-73882757D01*
X142151100Y-74071685D01*
X141178060Y-74071685D01*
X141306210Y-74018604D01*
X141466375Y-73911585D01*
X141602585Y-73775375D01*
X141709604Y-73615210D01*
X141783320Y-73437243D01*
X141820900Y-73248315D01*
X141820900Y-73055685D01*
X141783320Y-72866757D01*
X141709604Y-72688790D01*
X141602585Y-72528625D01*
X141466375Y-72392415D01*
X141306210Y-72285396D01*
X141128243Y-72211680D01*
X140939315Y-72174100D01*
X140746685Y-72174100D01*
X140557757Y-72211680D01*
X140379790Y-72285396D01*
X140219625Y-72392415D01*
X140083415Y-72528625D01*
X139976396Y-72688790D01*
X139902680Y-72866757D01*
X139865100Y-73055685D01*
X120937393Y-73055685D01*
X120922069Y-72884882D01*
X120692415Y-72103403D01*
X120393191Y-71531685D01*
X125641100Y-71531685D01*
X125641100Y-71724315D01*
X125678680Y-71913243D01*
X125752396Y-72091210D01*
X125859415Y-72251375D01*
X125995625Y-72387585D01*
X126155790Y-72494604D01*
X126333757Y-72568320D01*
X126522685Y-72605900D01*
X126715315Y-72605900D01*
X126904243Y-72568320D01*
X127082210Y-72494604D01*
X127242375Y-72387585D01*
X127378585Y-72251375D01*
X127485604Y-72091210D01*
X127559320Y-71913243D01*
X127596900Y-71724315D01*
X127596900Y-71531685D01*
X127559320Y-71342757D01*
X127485604Y-71164790D01*
X127378585Y-71004625D01*
X127242375Y-70868415D01*
X127082210Y-70761396D01*
X126904243Y-70687680D01*
X126715315Y-70650100D01*
X126522685Y-70650100D01*
X126333757Y-70687680D01*
X126155790Y-70761396D01*
X125995625Y-70868415D01*
X125859415Y-71004625D01*
X125752396Y-71164790D01*
X125678680Y-71342757D01*
X125641100Y-71531685D01*
X120393191Y-71531685D01*
X120314715Y-71381744D01*
X120274550Y-71321634D01*
X119754155Y-70925450D01*
X117019605Y-73660000D01*
X116660395Y-73660000D01*
X116646253Y-73645858D01*
X116825858Y-73466253D01*
X116840000Y-73480395D01*
X119574550Y-70745845D01*
X119472652Y-70612000D01*
X134083859Y-70612000D01*
X134029790Y-70634396D01*
X134029790Y-70634396D01*
G37*
X134029790Y-70634396D02*
X133869625Y-70741415D01*
X133733415Y-70877625D01*
X133626396Y-71037790D01*
X133552680Y-71215757D01*
X133515100Y-71404685D01*
X133515100Y-71597315D01*
X133552680Y-71786243D01*
X133626396Y-71964210D01*
X133733415Y-72124375D01*
X133869625Y-72260585D01*
X134029790Y-72367604D01*
X134207757Y-72441320D01*
X134396685Y-72478900D01*
X134589315Y-72478900D01*
X134778243Y-72441320D01*
X134956210Y-72367604D01*
X135116375Y-72260585D01*
X135252585Y-72124375D01*
X135359604Y-71964210D01*
X135433320Y-71786243D01*
X135470900Y-71597315D01*
X135470900Y-71404685D01*
X135433320Y-71215757D01*
X135359604Y-71037790D01*
X135252585Y-70877625D01*
X135116375Y-70741415D01*
X134956210Y-70634396D01*
X134902141Y-70612000D01*
X149450859Y-70612000D01*
X149396790Y-70634396D01*
X149236625Y-70741415D01*
X149100415Y-70877625D01*
X148993396Y-71037790D01*
X148919680Y-71215757D01*
X148882100Y-71404685D01*
X148882100Y-71597315D01*
X148919680Y-71786243D01*
X148993396Y-71964210D01*
X149100415Y-72124375D01*
X149236625Y-72260585D01*
X149396790Y-72367604D01*
X149574757Y-72441320D01*
X149763685Y-72478900D01*
X149956315Y-72478900D01*
X150145243Y-72441320D01*
X150323210Y-72367604D01*
X150483375Y-72260585D01*
X150619585Y-72124375D01*
X150726604Y-71964210D01*
X150800320Y-71786243D01*
X150837900Y-71597315D01*
X150837900Y-71404685D01*
X150800320Y-71215757D01*
X150726604Y-71037790D01*
X150619585Y-70877625D01*
X150483375Y-70741415D01*
X150323210Y-70634396D01*
X150269141Y-70612000D01*
X155482348Y-70612000D01*
X155380450Y-70745845D01*
X158115000Y-73480395D01*
X158129143Y-73466253D01*
X158308748Y-73645858D01*
X158294605Y-73660000D01*
X161029155Y-76394550D01*
X161163000Y-76292652D01*
X161163000Y-83690626D01*
X161144599Y-83629966D01*
X161006706Y-83371986D01*
X160821134Y-83145866D01*
X160595014Y-82960294D01*
X160337034Y-82822401D01*
X160057111Y-82737487D01*
X159838950Y-82716000D01*
X159693050Y-82716000D01*
X159474889Y-82737487D01*
X159194966Y-82822401D01*
X158936986Y-82960294D01*
X158710866Y-83145866D01*
X158686393Y-83175687D01*
X158665502Y-83106820D01*
X158606537Y-82996506D01*
X158527185Y-82899815D01*
X158430494Y-82820463D01*
X158320180Y-82761498D01*
X158200482Y-82725188D01*
X158076000Y-82712928D01*
X156376000Y-82712928D01*
X156251518Y-82725188D01*
X156131820Y-82761498D01*
X156021506Y-82820463D01*
X155924815Y-82899815D01*
X155845463Y-82996506D01*
X155786498Y-83106820D01*
X155750188Y-83226518D01*
X155737928Y-83351000D01*
X155737928Y-85051000D01*
X155750188Y-85175482D01*
X155786498Y-85295180D01*
X155845463Y-85405494D01*
X155924815Y-85502185D01*
X156021506Y-85581537D01*
X156131820Y-85640502D01*
X156200687Y-85661393D01*
X156170866Y-85685866D01*
X155985294Y-85911986D01*
X155847401Y-86169966D01*
X155762487Y-86449889D01*
X155733815Y-86741000D01*
X155762487Y-87032111D01*
X155847401Y-87312034D01*
X155985294Y-87570014D01*
X156170866Y-87796134D01*
X156396986Y-87981706D01*
X156451791Y-88011000D01*
X156396986Y-88040294D01*
X156170866Y-88225866D01*
X155985294Y-88451986D01*
X155847401Y-88709966D01*
X155762487Y-88989889D01*
X155733815Y-89281000D01*
X155762487Y-89572111D01*
X155847401Y-89852034D01*
X155985294Y-90110014D01*
X156170866Y-90336134D01*
X156396986Y-90521706D01*
X156451791Y-90551000D01*
X156396986Y-90580294D01*
X156170866Y-90765866D01*
X155985294Y-90991986D01*
X155847401Y-91249966D01*
X155762487Y-91529889D01*
X155733815Y-91821000D01*
X155762487Y-92112111D01*
X155847401Y-92392034D01*
X155985294Y-92650014D01*
X156170866Y-92876134D01*
X156396986Y-93061706D01*
X156461523Y-93096201D01*
X156344645Y-93165822D01*
X156128412Y-93360731D01*
X155954359Y-93594080D01*
X155829175Y-93856901D01*
X155784524Y-94004110D01*
X155905845Y-94234000D01*
X157099000Y-94234000D01*
X157099000Y-94214000D01*
X157353000Y-94214000D01*
X157353000Y-94234000D01*
X159639000Y-94234000D01*
X159639000Y-94214000D01*
X159893000Y-94214000D01*
X159893000Y-94234000D01*
X159913000Y-94234000D01*
X159913000Y-94488000D01*
X159893000Y-94488000D01*
X159893000Y-94508000D01*
X159639000Y-94508000D01*
X159639000Y-94488000D01*
X157353000Y-94488000D01*
X157353000Y-94508000D01*
X157099000Y-94508000D01*
X157099000Y-94488000D01*
X155905845Y-94488000D01*
X155784524Y-94717890D01*
X155829175Y-94865099D01*
X155954359Y-95127920D01*
X156128412Y-95361269D01*
X156344645Y-95556178D01*
X156461523Y-95625799D01*
X156396986Y-95660294D01*
X156170866Y-95845866D01*
X155985294Y-96071986D01*
X155847401Y-96329966D01*
X155762487Y-96609889D01*
X155733815Y-96901000D01*
X155762487Y-97192111D01*
X155847401Y-97472034D01*
X155985294Y-97730014D01*
X156170866Y-97956134D01*
X156396986Y-98141706D01*
X156461523Y-98176201D01*
X156344645Y-98245822D01*
X156128412Y-98440731D01*
X155954359Y-98674080D01*
X155829175Y-98936901D01*
X155784524Y-99084110D01*
X155905845Y-99314000D01*
X157099000Y-99314000D01*
X157099000Y-99294000D01*
X157353000Y-99294000D01*
X157353000Y-99314000D01*
X159639000Y-99314000D01*
X159639000Y-99294000D01*
X159893000Y-99294000D01*
X159893000Y-99314000D01*
X159913000Y-99314000D01*
X159913000Y-99568000D01*
X159893000Y-99568000D01*
X159893000Y-100761814D01*
X160122891Y-100882481D01*
X160397252Y-100785157D01*
X160647355Y-100636178D01*
X160863588Y-100441269D01*
X161037641Y-100207920D01*
X161162825Y-99945099D01*
X161163000Y-99944522D01*
X161163000Y-105317348D01*
X161029155Y-105215450D01*
X158294605Y-107950000D01*
X158308748Y-107964143D01*
X158129143Y-108143748D01*
X158115000Y-108129605D01*
X155380450Y-110864155D01*
X155482348Y-110998000D01*
X119472652Y-110998000D01*
X119574550Y-110864155D01*
X116840000Y-108129605D01*
X116825858Y-108143748D01*
X116646253Y-107964143D01*
X116660395Y-107950000D01*
X117019605Y-107950000D01*
X119754155Y-110684550D01*
X120274550Y-110288366D01*
X120664748Y-109573388D01*
X120907964Y-108796024D01*
X120953669Y-108370000D01*
X123479928Y-108370000D01*
X123479928Y-110070000D01*
X123492188Y-110194482D01*
X123528498Y-110314180D01*
X123587463Y-110424494D01*
X123666815Y-110521185D01*
X123763506Y-110600537D01*
X123873820Y-110659502D01*
X123993518Y-110695812D01*
X124118000Y-110708072D01*
X125818000Y-110708072D01*
X125942482Y-110695812D01*
X126062180Y-110659502D01*
X126172494Y-110600537D01*
X126269185Y-110521185D01*
X126348537Y-110424494D01*
X126407502Y-110314180D01*
X126428393Y-110245313D01*
X126452866Y-110275134D01*
X126678986Y-110460706D01*
X126936966Y-110598599D01*
X127216889Y-110683513D01*
X127435050Y-110705000D01*
X127580950Y-110705000D01*
X127799111Y-110683513D01*
X128079034Y-110598599D01*
X128337014Y-110460706D01*
X128563134Y-110275134D01*
X128748706Y-110049014D01*
X128886599Y-109791034D01*
X128971513Y-109511111D01*
X129000185Y-109220000D01*
X128971513Y-108928889D01*
X128886599Y-108648966D01*
X128748706Y-108390986D01*
X128563134Y-108164866D01*
X128337014Y-107979294D01*
X128214583Y-107913853D01*
X153960149Y-107913853D01*
X154032931Y-108725118D01*
X154262585Y-109506597D01*
X154640285Y-110228256D01*
X154680450Y-110288366D01*
X155200845Y-110684550D01*
X157935395Y-107950000D01*
X155200845Y-105215450D01*
X154680450Y-105611634D01*
X154290252Y-106326612D01*
X154047036Y-107103976D01*
X153960149Y-107913853D01*
X128214583Y-107913853D01*
X128079034Y-107841401D01*
X127799111Y-107756487D01*
X127580950Y-107735000D01*
X127435050Y-107735000D01*
X127216889Y-107756487D01*
X126936966Y-107841401D01*
X126678986Y-107979294D01*
X126452866Y-108164866D01*
X126428393Y-108194687D01*
X126407502Y-108125820D01*
X126348537Y-108015506D01*
X126269185Y-107918815D01*
X126172494Y-107839463D01*
X126062180Y-107780498D01*
X125942482Y-107744188D01*
X125818000Y-107731928D01*
X124118000Y-107731928D01*
X123993518Y-107744188D01*
X123873820Y-107780498D01*
X123763506Y-107839463D01*
X123666815Y-107918815D01*
X123587463Y-108015506D01*
X123528498Y-108125820D01*
X123492188Y-108245518D01*
X123479928Y-108370000D01*
X120953669Y-108370000D01*
X120994851Y-107986147D01*
X120922069Y-107174882D01*
X120692415Y-106393403D01*
X120314715Y-105671744D01*
X120274550Y-105611634D01*
X120206965Y-105560180D01*
X127977900Y-105560180D01*
X127977900Y-105767820D01*
X128018409Y-105971470D01*
X128097869Y-106163303D01*
X128213227Y-106335949D01*
X128360051Y-106482773D01*
X128532697Y-106598131D01*
X128724530Y-106677591D01*
X128928180Y-106718100D01*
X129135820Y-106718100D01*
X129339470Y-106677591D01*
X129531303Y-106598131D01*
X129703949Y-106482773D01*
X129850773Y-106335949D01*
X129966131Y-106163303D01*
X130045591Y-105971470D01*
X130086100Y-105767820D01*
X130086100Y-105605835D01*
X137040555Y-105605835D01*
X137040555Y-105813475D01*
X137081064Y-106017125D01*
X137160524Y-106208958D01*
X137275882Y-106381604D01*
X137422706Y-106528428D01*
X137595352Y-106643786D01*
X137787185Y-106723246D01*
X137990835Y-106763755D01*
X138198475Y-106763755D01*
X138402125Y-106723246D01*
X138593958Y-106643786D01*
X138766604Y-106528428D01*
X138913428Y-106381604D01*
X139028786Y-106208958D01*
X139108246Y-106017125D01*
X139123352Y-105941180D01*
X140550900Y-105941180D01*
X140550900Y-106148820D01*
X140591409Y-106352470D01*
X140670869Y-106544303D01*
X140786227Y-106716949D01*
X140933051Y-106863773D01*
X141105697Y-106979131D01*
X141297530Y-107058591D01*
X141501180Y-107099100D01*
X141708820Y-107099100D01*
X141912470Y-107058591D01*
X142104303Y-106979131D01*
X142276949Y-106863773D01*
X142423773Y-106716949D01*
X142539131Y-106544303D01*
X142618591Y-106352470D01*
X142659100Y-106148820D01*
X142659100Y-105941180D01*
X148805900Y-105941180D01*
X148805900Y-106148820D01*
X148846409Y-106352470D01*
X148925869Y-106544303D01*
X149041227Y-106716949D01*
X149188051Y-106863773D01*
X149360697Y-106979131D01*
X149552530Y-107058591D01*
X149756180Y-107099100D01*
X149963820Y-107099100D01*
X150167470Y-107058591D01*
X150359303Y-106979131D01*
X150531949Y-106863773D01*
X150678773Y-106716949D01*
X150794131Y-106544303D01*
X150873591Y-106352470D01*
X150914100Y-106148820D01*
X150914100Y-105941180D01*
X150873591Y-105737530D01*
X150794131Y-105545697D01*
X150678773Y-105373051D01*
X150531949Y-105226227D01*
X150359303Y-105110869D01*
X150178180Y-105035845D01*
X155380450Y-105035845D01*
X158115000Y-107770395D01*
X160849550Y-105035845D01*
X160453366Y-104515450D01*
X159738388Y-104125252D01*
X158961024Y-103882036D01*
X158151147Y-103795149D01*
X157339882Y-103867931D01*
X156558403Y-104097585D01*
X155836744Y-104475285D01*
X155776634Y-104515450D01*
X155380450Y-105035845D01*
X150178180Y-105035845D01*
X150167470Y-105031409D01*
X149963820Y-104990900D01*
X149756180Y-104990900D01*
X149552530Y-105031409D01*
X149360697Y-105110869D01*
X149188051Y-105226227D01*
X149041227Y-105373051D01*
X148925869Y-105545697D01*
X148846409Y-105737530D01*
X148805900Y-105941180D01*
X142659100Y-105941180D01*
X142618591Y-105737530D01*
X142539131Y-105545697D01*
X142423773Y-105373051D01*
X142276949Y-105226227D01*
X142104303Y-105110869D01*
X141912470Y-105031409D01*
X141708820Y-104990900D01*
X141501180Y-104990900D01*
X141297530Y-105031409D01*
X141105697Y-105110869D01*
X140933051Y-105226227D01*
X140786227Y-105373051D01*
X140670869Y-105545697D01*
X140591409Y-105737530D01*
X140550900Y-105941180D01*
X139123352Y-105941180D01*
X139148755Y-105813475D01*
X139148755Y-105605835D01*
X139108246Y-105402185D01*
X139028786Y-105210352D01*
X138913428Y-105037706D01*
X138766604Y-104890882D01*
X138593958Y-104775524D01*
X138402125Y-104696064D01*
X138198475Y-104655555D01*
X137990835Y-104655555D01*
X137787185Y-104696064D01*
X137595352Y-104775524D01*
X137422706Y-104890882D01*
X137275882Y-105037706D01*
X137160524Y-105210352D01*
X137081064Y-105402185D01*
X137040555Y-105605835D01*
X130086100Y-105605835D01*
X130086100Y-105560180D01*
X130045591Y-105356530D01*
X129966131Y-105164697D01*
X129850773Y-104992051D01*
X129703949Y-104845227D01*
X129531303Y-104729869D01*
X129339470Y-104650409D01*
X129135820Y-104609900D01*
X128928180Y-104609900D01*
X128724530Y-104650409D01*
X128532697Y-104729869D01*
X128360051Y-104845227D01*
X128213227Y-104992051D01*
X128097869Y-105164697D01*
X128018409Y-105356530D01*
X127977900Y-105560180D01*
X120206965Y-105560180D01*
X119754155Y-105215450D01*
X117019605Y-107950000D01*
X116660395Y-107950000D01*
X113925845Y-105215450D01*
X113792000Y-105317348D01*
X113792000Y-105035845D01*
X114105450Y-105035845D01*
X116840000Y-107770395D01*
X119574550Y-105035845D01*
X119178366Y-104515450D01*
X118463388Y-104125252D01*
X118178698Y-104036180D01*
X131660900Y-104036180D01*
X131660900Y-104243820D01*
X131701409Y-104447470D01*
X131780869Y-104639303D01*
X131896227Y-104811949D01*
X132043051Y-104958773D01*
X132215697Y-105074131D01*
X132407530Y-105153591D01*
X132611180Y-105194100D01*
X132818820Y-105194100D01*
X133022470Y-105153591D01*
X133214303Y-105074131D01*
X133386949Y-104958773D01*
X133533773Y-104811949D01*
X133649131Y-104639303D01*
X133728591Y-104447470D01*
X133769100Y-104243820D01*
X133769100Y-104036180D01*
X133728591Y-103832530D01*
X133649131Y-103640697D01*
X133533773Y-103468051D01*
X133386949Y-103321227D01*
X133214303Y-103205869D01*
X133022470Y-103126409D01*
X132818820Y-103085900D01*
X132611180Y-103085900D01*
X132407530Y-103126409D01*
X132215697Y-103205869D01*
X132043051Y-103321227D01*
X131896227Y-103468051D01*
X131780869Y-103640697D01*
X131701409Y-103832530D01*
X131660900Y-104036180D01*
X118178698Y-104036180D01*
X117686024Y-103882036D01*
X116876147Y-103795149D01*
X116064882Y-103867931D01*
X115283403Y-104097585D01*
X114561744Y-104475285D01*
X114501634Y-104515450D01*
X114105450Y-105035845D01*
X113792000Y-105035845D01*
X113792000Y-102131180D01*
X114134900Y-102131180D01*
X114134900Y-102338820D01*
X114175409Y-102542470D01*
X114254869Y-102734303D01*
X114370227Y-102906949D01*
X114517051Y-103053773D01*
X114689697Y-103169131D01*
X114881530Y-103248591D01*
X115085180Y-103289100D01*
X115292820Y-103289100D01*
X115496470Y-103248591D01*
X115688303Y-103169131D01*
X115860949Y-103053773D01*
X116007773Y-102906949D01*
X116123131Y-102734303D01*
X116202591Y-102542470D01*
X116243100Y-102338820D01*
X116243100Y-102131180D01*
X116202591Y-101927530D01*
X116123131Y-101735697D01*
X116007773Y-101563051D01*
X115860949Y-101416227D01*
X115688303Y-101300869D01*
X115496470Y-101221409D01*
X115292820Y-101180900D01*
X115085180Y-101180900D01*
X114881530Y-101221409D01*
X114689697Y-101300869D01*
X114517051Y-101416227D01*
X114370227Y-101563051D01*
X114254869Y-101735697D01*
X114175409Y-101927530D01*
X114134900Y-102131180D01*
X113792000Y-102131180D01*
X113792000Y-100614685D01*
X120815100Y-100614685D01*
X120815100Y-100807315D01*
X120852680Y-100996243D01*
X120926396Y-101174210D01*
X121033415Y-101334375D01*
X121169625Y-101470585D01*
X121329790Y-101577604D01*
X121507757Y-101651320D01*
X121696685Y-101688900D01*
X121889315Y-101688900D01*
X122078243Y-101651320D01*
X122256210Y-101577604D01*
X122416375Y-101470585D01*
X122552585Y-101334375D01*
X122659604Y-101174210D01*
X122733320Y-100996243D01*
X122770900Y-100807315D01*
X122770900Y-100734180D01*
X141947900Y-100734180D01*
X141947900Y-100941820D01*
X141988409Y-101145470D01*
X142067869Y-101337303D01*
X142183227Y-101509949D01*
X142330051Y-101656773D01*
X142502697Y-101772131D01*
X142694530Y-101851591D01*
X142898180Y-101892100D01*
X143105820Y-101892100D01*
X143309470Y-101851591D01*
X143501303Y-101772131D01*
X143673949Y-101656773D01*
X143820773Y-101509949D01*
X143936131Y-101337303D01*
X144015591Y-101145470D01*
X144056100Y-100941820D01*
X144056100Y-100734180D01*
X144015591Y-100530530D01*
X143936131Y-100338697D01*
X143820773Y-100166051D01*
X143673949Y-100019227D01*
X143501303Y-99903869D01*
X143309470Y-99824409D01*
X143105820Y-99783900D01*
X142898180Y-99783900D01*
X142694530Y-99824409D01*
X142502697Y-99903869D01*
X142330051Y-100019227D01*
X142183227Y-100166051D01*
X142067869Y-100338697D01*
X141988409Y-100530530D01*
X141947900Y-100734180D01*
X122770900Y-100734180D01*
X122770900Y-100614685D01*
X122733320Y-100425757D01*
X122659604Y-100247790D01*
X122552585Y-100087625D01*
X122416375Y-99951415D01*
X122256210Y-99844396D01*
X122078243Y-99770680D01*
X121889315Y-99733100D01*
X121696685Y-99733100D01*
X121507757Y-99770680D01*
X121329790Y-99844396D01*
X121169625Y-99951415D01*
X121033415Y-100087625D01*
X120926396Y-100247790D01*
X120852680Y-100425757D01*
X120815100Y-100614685D01*
X113792000Y-100614685D01*
X113792000Y-99609400D01*
X123446090Y-99609400D01*
X123476762Y-99710528D01*
X123584527Y-99943629D01*
X123735697Y-100151227D01*
X123924463Y-100325344D01*
X124143570Y-100459289D01*
X124384599Y-100547915D01*
X124587000Y-100425085D01*
X124587000Y-99407000D01*
X124841000Y-99407000D01*
X124841000Y-100425085D01*
X125043401Y-100547915D01*
X125284430Y-100459289D01*
X125503537Y-100325344D01*
X125692303Y-100151227D01*
X125843473Y-99943629D01*
X125951238Y-99710528D01*
X125981910Y-99609400D01*
X125893167Y-99464180D01*
X131152900Y-99464180D01*
X131152900Y-99671820D01*
X131193409Y-99875470D01*
X131272869Y-100067303D01*
X131388227Y-100239949D01*
X131535051Y-100386773D01*
X131707697Y-100502131D01*
X131899530Y-100581591D01*
X132103180Y-100622100D01*
X132310820Y-100622100D01*
X132514470Y-100581591D01*
X132706303Y-100502131D01*
X132878949Y-100386773D01*
X133025773Y-100239949D01*
X133141131Y-100067303D01*
X133220591Y-99875470D01*
X133261100Y-99671820D01*
X133261100Y-99464180D01*
X133220591Y-99260530D01*
X133141131Y-99068697D01*
X133070965Y-98963685D01*
X135928100Y-98963685D01*
X135928100Y-99156315D01*
X135965680Y-99345243D01*
X136039396Y-99523210D01*
X136146415Y-99683375D01*
X136282625Y-99819585D01*
X136442790Y-99926604D01*
X136620757Y-100000320D01*
X136809685Y-100037900D01*
X137002315Y-100037900D01*
X137191243Y-100000320D01*
X137369210Y-99926604D01*
X137529375Y-99819585D01*
X137665585Y-99683375D01*
X137772604Y-99523210D01*
X137846320Y-99345243D01*
X137883900Y-99156315D01*
X137883900Y-98963685D01*
X137846320Y-98774757D01*
X137772604Y-98596790D01*
X137665585Y-98436625D01*
X137529375Y-98300415D01*
X137369210Y-98193396D01*
X137191243Y-98119680D01*
X137002315Y-98082100D01*
X136809685Y-98082100D01*
X136620757Y-98119680D01*
X136442790Y-98193396D01*
X136282625Y-98300415D01*
X136146415Y-98436625D01*
X136039396Y-98596790D01*
X135965680Y-98774757D01*
X135928100Y-98963685D01*
X133070965Y-98963685D01*
X133025773Y-98896051D01*
X132878949Y-98749227D01*
X132706303Y-98633869D01*
X132514470Y-98554409D01*
X132310820Y-98513900D01*
X132103180Y-98513900D01*
X131899530Y-98554409D01*
X131707697Y-98633869D01*
X131535051Y-98749227D01*
X131388227Y-98896051D01*
X131272869Y-99068697D01*
X131193409Y-99260530D01*
X131152900Y-99464180D01*
X125893167Y-99464180D01*
X125858224Y-99407000D01*
X124841000Y-99407000D01*
X124587000Y-99407000D01*
X123569776Y-99407000D01*
X123446090Y-99609400D01*
X113792000Y-99609400D01*
X113792000Y-95407222D01*
X113818551Y-95433773D01*
X113991197Y-95549131D01*
X114183030Y-95628591D01*
X114386680Y-95669100D01*
X114594320Y-95669100D01*
X114797970Y-95628591D01*
X114989803Y-95549131D01*
X115162449Y-95433773D01*
X115309273Y-95286949D01*
X115424631Y-95114303D01*
X115504091Y-94922470D01*
X115544600Y-94718820D01*
X115544600Y-94511180D01*
X115504091Y-94307530D01*
X115424631Y-94115697D01*
X115309273Y-93943051D01*
X115162449Y-93796227D01*
X114989803Y-93680869D01*
X114797970Y-93601409D01*
X114594320Y-93560900D01*
X114386680Y-93560900D01*
X114183030Y-93601409D01*
X113991197Y-93680869D01*
X113818551Y-93796227D01*
X113792000Y-93822778D01*
X113792000Y-92295722D01*
X113818551Y-92322273D01*
X113991197Y-92437631D01*
X114183030Y-92517091D01*
X114386680Y-92557600D01*
X114594320Y-92557600D01*
X114797970Y-92517091D01*
X114989803Y-92437631D01*
X115162449Y-92322273D01*
X115309273Y-92175449D01*
X115424631Y-92002803D01*
X115504091Y-91810970D01*
X115544600Y-91607320D01*
X115544600Y-91399680D01*
X115504091Y-91196030D01*
X115424631Y-91004197D01*
X115309273Y-90831551D01*
X115162449Y-90684727D01*
X114989803Y-90569369D01*
X114797970Y-90489909D01*
X114594320Y-90449400D01*
X114386680Y-90449400D01*
X114183030Y-90489909D01*
X113991197Y-90569369D01*
X113818551Y-90684727D01*
X113792000Y-90711278D01*
X113792000Y-89679961D01*
X113927697Y-89770631D01*
X114119530Y-89850091D01*
X114323180Y-89890600D01*
X114530820Y-89890600D01*
X114734470Y-89850091D01*
X114926303Y-89770631D01*
X115098949Y-89655273D01*
X115245773Y-89508449D01*
X115361131Y-89335803D01*
X115440591Y-89143970D01*
X115481100Y-88940320D01*
X115481100Y-88732680D01*
X115440591Y-88529030D01*
X115361131Y-88337197D01*
X115245773Y-88164551D01*
X115098949Y-88017727D01*
X114926303Y-87902369D01*
X114734470Y-87822909D01*
X114530820Y-87782400D01*
X114323180Y-87782400D01*
X114119530Y-87822909D01*
X113927697Y-87902369D01*
X113792000Y-87993039D01*
X113792000Y-86517222D01*
X113818551Y-86543773D01*
X113991197Y-86659131D01*
X114183030Y-86738591D01*
X114386680Y-86779100D01*
X114594320Y-86779100D01*
X114797970Y-86738591D01*
X114989803Y-86659131D01*
X115162449Y-86543773D01*
X115309273Y-86396949D01*
X115424631Y-86224303D01*
X115504091Y-86032470D01*
X115544600Y-85828820D01*
X115544600Y-85621180D01*
X115504091Y-85417530D01*
X115424631Y-85225697D01*
X115309273Y-85053051D01*
X115162449Y-84906227D01*
X114989803Y-84790869D01*
X114797970Y-84711409D01*
X114594320Y-84670900D01*
X114386680Y-84670900D01*
X114183030Y-84711409D01*
X113991197Y-84790869D01*
X113818551Y-84906227D01*
X113792000Y-84932778D01*
X113792000Y-83278722D01*
X113818551Y-83305273D01*
X113991197Y-83420631D01*
X114183030Y-83500091D01*
X114386680Y-83540600D01*
X114594320Y-83540600D01*
X114797970Y-83500091D01*
X114989803Y-83420631D01*
X115162449Y-83305273D01*
X115187722Y-83280000D01*
X123397662Y-83280000D01*
X123422955Y-83536805D01*
X123497862Y-83783741D01*
X123619505Y-84011318D01*
X123783208Y-84210792D01*
X123867539Y-84280000D01*
X123783208Y-84349208D01*
X123619505Y-84548682D01*
X123497862Y-84776259D01*
X123422955Y-85023195D01*
X123397662Y-85280000D01*
X123422955Y-85536805D01*
X123497862Y-85783741D01*
X123619505Y-86011318D01*
X123783208Y-86210792D01*
X123867539Y-86280000D01*
X123783208Y-86349208D01*
X123619505Y-86548682D01*
X123497862Y-86776259D01*
X123422955Y-87023195D01*
X123397662Y-87280000D01*
X123422955Y-87536805D01*
X123497862Y-87783741D01*
X123619505Y-88011318D01*
X123783208Y-88210792D01*
X123867539Y-88280000D01*
X123783208Y-88349208D01*
X123619505Y-88548682D01*
X123497862Y-88776259D01*
X123422955Y-89023195D01*
X123397662Y-89280000D01*
X123422955Y-89536805D01*
X123497862Y-89783741D01*
X123619505Y-90011318D01*
X123783208Y-90210792D01*
X123867539Y-90280000D01*
X123783208Y-90349208D01*
X123619505Y-90548682D01*
X123497862Y-90776259D01*
X123422955Y-91023195D01*
X123397662Y-91280000D01*
X123422955Y-91536805D01*
X123497862Y-91783741D01*
X123619505Y-92011318D01*
X123783208Y-92210792D01*
X123867539Y-92280000D01*
X123783208Y-92349208D01*
X123619505Y-92548682D01*
X123497862Y-92776259D01*
X123422955Y-93023195D01*
X123397662Y-93280000D01*
X123422955Y-93536805D01*
X123497862Y-93783741D01*
X123619505Y-94011318D01*
X123783208Y-94210792D01*
X123867539Y-94280000D01*
X123783208Y-94349208D01*
X123619505Y-94548682D01*
X123497862Y-94776259D01*
X123422955Y-95023195D01*
X123397662Y-95280000D01*
X123422955Y-95536805D01*
X123497862Y-95783741D01*
X123619505Y-96011318D01*
X123783208Y-96210792D01*
X123867539Y-96280000D01*
X123783208Y-96349208D01*
X123619505Y-96548682D01*
X123497862Y-96776259D01*
X123422955Y-97023195D01*
X123397662Y-97280000D01*
X123422955Y-97536805D01*
X123497862Y-97783741D01*
X123619505Y-98011318D01*
X123783208Y-98210792D01*
X123871648Y-98283372D01*
X123735697Y-98408773D01*
X123584527Y-98616371D01*
X123476762Y-98849472D01*
X123446090Y-98950600D01*
X123569776Y-99153000D01*
X124587000Y-99153000D01*
X124587000Y-99133000D01*
X124841000Y-99133000D01*
X124841000Y-99153000D01*
X125858224Y-99153000D01*
X125981910Y-98950600D01*
X125951238Y-98849472D01*
X125843473Y-98616371D01*
X125692303Y-98408773D01*
X125556352Y-98283372D01*
X125644792Y-98210792D01*
X125808495Y-98011318D01*
X125930138Y-97783741D01*
X126005045Y-97536805D01*
X126030338Y-97280000D01*
X126021049Y-97185685D01*
X142532100Y-97185685D01*
X142532100Y-97378315D01*
X142569680Y-97567243D01*
X142643396Y-97745210D01*
X142750415Y-97905375D01*
X142886625Y-98041585D01*
X143046790Y-98148604D01*
X143224757Y-98222320D01*
X143413685Y-98259900D01*
X143606315Y-98259900D01*
X143795243Y-98222320D01*
X143973210Y-98148604D01*
X144133375Y-98041585D01*
X144269585Y-97905375D01*
X144376604Y-97745210D01*
X144450320Y-97567243D01*
X144487900Y-97378315D01*
X144487900Y-97185685D01*
X144450320Y-96996757D01*
X144376604Y-96818790D01*
X144269585Y-96658625D01*
X144133375Y-96522415D01*
X143973210Y-96415396D01*
X143795243Y-96341680D01*
X143606315Y-96304100D01*
X143413685Y-96304100D01*
X143224757Y-96341680D01*
X143046790Y-96415396D01*
X142886625Y-96522415D01*
X142750415Y-96658625D01*
X142643396Y-96818790D01*
X142569680Y-96996757D01*
X142532100Y-97185685D01*
X126021049Y-97185685D01*
X126005045Y-97023195D01*
X125930138Y-96776259D01*
X125808495Y-96548682D01*
X125644792Y-96349208D01*
X125560461Y-96280000D01*
X125644792Y-96210792D01*
X125808495Y-96011318D01*
X125930138Y-95783741D01*
X126005045Y-95536805D01*
X126030270Y-95280685D01*
X133515100Y-95280685D01*
X133515100Y-95473315D01*
X133552680Y-95662243D01*
X133626396Y-95840210D01*
X133733415Y-96000375D01*
X133869625Y-96136585D01*
X134029790Y-96243604D01*
X134207757Y-96317320D01*
X134396685Y-96354900D01*
X134589315Y-96354900D01*
X134778243Y-96317320D01*
X134956210Y-96243604D01*
X135116375Y-96136585D01*
X135252585Y-96000375D01*
X135359604Y-95840210D01*
X135433320Y-95662243D01*
X135470900Y-95473315D01*
X135470900Y-95280685D01*
X135433320Y-95091757D01*
X135359604Y-94913790D01*
X135252585Y-94753625D01*
X135116375Y-94617415D01*
X134956210Y-94510396D01*
X134778243Y-94436680D01*
X134589315Y-94399100D01*
X134396685Y-94399100D01*
X134207757Y-94436680D01*
X134029790Y-94510396D01*
X133869625Y-94617415D01*
X133733415Y-94753625D01*
X133626396Y-94913790D01*
X133552680Y-95091757D01*
X133515100Y-95280685D01*
X126030270Y-95280685D01*
X126030338Y-95280000D01*
X126005045Y-95023195D01*
X125930138Y-94776259D01*
X125808495Y-94548682D01*
X125644792Y-94349208D01*
X125560461Y-94280000D01*
X125644792Y-94210792D01*
X125808495Y-94011318D01*
X125930138Y-93783741D01*
X125976870Y-93629685D01*
X136182100Y-93629685D01*
X136182100Y-93822315D01*
X136219680Y-94011243D01*
X136293396Y-94189210D01*
X136400415Y-94349375D01*
X136536625Y-94485585D01*
X136696790Y-94592604D01*
X136874757Y-94666320D01*
X137063685Y-94703900D01*
X137256315Y-94703900D01*
X137445243Y-94666320D01*
X137513179Y-94638180D01*
X142709900Y-94638180D01*
X142709900Y-94845820D01*
X142750409Y-95049470D01*
X142829869Y-95241303D01*
X142945227Y-95413949D01*
X143092051Y-95560773D01*
X143264697Y-95676131D01*
X143456530Y-95755591D01*
X143660180Y-95796100D01*
X143867820Y-95796100D01*
X144071470Y-95755591D01*
X144263303Y-95676131D01*
X144435949Y-95560773D01*
X144582773Y-95413949D01*
X144698131Y-95241303D01*
X144777591Y-95049470D01*
X144818100Y-94845820D01*
X144818100Y-94638180D01*
X144777591Y-94434530D01*
X144698131Y-94242697D01*
X144582773Y-94070051D01*
X144435949Y-93923227D01*
X144263303Y-93807869D01*
X144071470Y-93728409D01*
X143867820Y-93687900D01*
X143660180Y-93687900D01*
X143456530Y-93728409D01*
X143264697Y-93807869D01*
X143092051Y-93923227D01*
X142945227Y-94070051D01*
X142829869Y-94242697D01*
X142750409Y-94434530D01*
X142709900Y-94638180D01*
X137513179Y-94638180D01*
X137623210Y-94592604D01*
X137783375Y-94485585D01*
X137919585Y-94349375D01*
X138026604Y-94189210D01*
X138100320Y-94011243D01*
X138137900Y-93822315D01*
X138137900Y-93629685D01*
X138100320Y-93440757D01*
X138026604Y-93262790D01*
X137919585Y-93102625D01*
X137783375Y-92966415D01*
X137623210Y-92859396D01*
X137445243Y-92785680D01*
X137256315Y-92748100D01*
X137063685Y-92748100D01*
X136874757Y-92785680D01*
X136696790Y-92859396D01*
X136536625Y-92966415D01*
X136400415Y-93102625D01*
X136293396Y-93262790D01*
X136219680Y-93440757D01*
X136182100Y-93629685D01*
X125976870Y-93629685D01*
X126005045Y-93536805D01*
X126030338Y-93280000D01*
X126005045Y-93023195D01*
X125930138Y-92776259D01*
X125808495Y-92548682D01*
X125644792Y-92349208D01*
X125560461Y-92280000D01*
X125644792Y-92210792D01*
X125731050Y-92105685D01*
X126314200Y-92105685D01*
X126314200Y-92298315D01*
X126351780Y-92487243D01*
X126425496Y-92665210D01*
X126532515Y-92825375D01*
X126668725Y-92961585D01*
X126828890Y-93068604D01*
X127006857Y-93142320D01*
X127195785Y-93179900D01*
X127388415Y-93179900D01*
X127577343Y-93142320D01*
X127755310Y-93068604D01*
X127915475Y-92961585D01*
X128051685Y-92825375D01*
X128158704Y-92665210D01*
X128232420Y-92487243D01*
X128257792Y-92359685D01*
X131991100Y-92359685D01*
X131991100Y-92552315D01*
X132028680Y-92741243D01*
X132102396Y-92919210D01*
X132209415Y-93079375D01*
X132345625Y-93215585D01*
X132505790Y-93322604D01*
X132683757Y-93396320D01*
X132872685Y-93433900D01*
X133065315Y-93433900D01*
X133254243Y-93396320D01*
X133432210Y-93322604D01*
X133592375Y-93215585D01*
X133728585Y-93079375D01*
X133835604Y-92919210D01*
X133909320Y-92741243D01*
X133946900Y-92552315D01*
X133946900Y-92359685D01*
X133909320Y-92170757D01*
X133835604Y-91992790D01*
X133728585Y-91832625D01*
X133592375Y-91696415D01*
X133432210Y-91589396D01*
X133254243Y-91515680D01*
X133065315Y-91478100D01*
X132872685Y-91478100D01*
X132683757Y-91515680D01*
X132505790Y-91589396D01*
X132345625Y-91696415D01*
X132209415Y-91832625D01*
X132102396Y-91992790D01*
X132028680Y-92170757D01*
X131991100Y-92359685D01*
X128257792Y-92359685D01*
X128270000Y-92298315D01*
X128270000Y-92105685D01*
X128232420Y-91916757D01*
X128158704Y-91738790D01*
X128051685Y-91578625D01*
X127915475Y-91442415D01*
X127755310Y-91335396D01*
X127577343Y-91261680D01*
X127388415Y-91224100D01*
X127195785Y-91224100D01*
X127006857Y-91261680D01*
X126828890Y-91335396D01*
X126668725Y-91442415D01*
X126532515Y-91578625D01*
X126425496Y-91738790D01*
X126351780Y-91916757D01*
X126314200Y-92105685D01*
X125731050Y-92105685D01*
X125808495Y-92011318D01*
X125930138Y-91783741D01*
X126005045Y-91536805D01*
X126030338Y-91280000D01*
X126005045Y-91023195D01*
X125930138Y-90776259D01*
X125808495Y-90548682D01*
X125644792Y-90349208D01*
X125560461Y-90280000D01*
X125644792Y-90210792D01*
X125808495Y-90011318D01*
X125823312Y-89983598D01*
X125850610Y-89980909D01*
X125984671Y-89940242D01*
X126108223Y-89874202D01*
X126216517Y-89785327D01*
X126238792Y-89758185D01*
X127083847Y-88913130D01*
X134825850Y-88913130D01*
X134825850Y-89120770D01*
X134866359Y-89324420D01*
X134945819Y-89516253D01*
X135061177Y-89688899D01*
X135208001Y-89835723D01*
X135380647Y-89951081D01*
X135572480Y-90030541D01*
X135776130Y-90071050D01*
X135801624Y-90071050D01*
X135801100Y-90073685D01*
X135801100Y-90266315D01*
X135838680Y-90455243D01*
X135912396Y-90633210D01*
X136019415Y-90793375D01*
X136042885Y-90816845D01*
X136019415Y-90840315D01*
X135912396Y-91000480D01*
X135838680Y-91178447D01*
X135801100Y-91367375D01*
X135801100Y-91560005D01*
X135838680Y-91748933D01*
X135912396Y-91926900D01*
X136019415Y-92087065D01*
X136155625Y-92223275D01*
X136315790Y-92330294D01*
X136493757Y-92404010D01*
X136682685Y-92441590D01*
X136875315Y-92441590D01*
X137064243Y-92404010D01*
X137242210Y-92330294D01*
X137402375Y-92223275D01*
X137538585Y-92087065D01*
X137645604Y-91926900D01*
X137719320Y-91748933D01*
X137756900Y-91560005D01*
X137756900Y-91367375D01*
X137719320Y-91178447D01*
X137645604Y-91000480D01*
X137638551Y-90989924D01*
X141474838Y-90989924D01*
X141474838Y-91197564D01*
X141515347Y-91401214D01*
X141594807Y-91593047D01*
X141710165Y-91765693D01*
X141856989Y-91912517D01*
X142029635Y-92027875D01*
X142221468Y-92107335D01*
X142425118Y-92147844D01*
X142632758Y-92147844D01*
X142836408Y-92107335D01*
X143028241Y-92027875D01*
X143200887Y-91912517D01*
X143347711Y-91765693D01*
X143463069Y-91593047D01*
X143542529Y-91401214D01*
X143583038Y-91197564D01*
X143583038Y-90989924D01*
X143542529Y-90786274D01*
X143463069Y-90594441D01*
X143347711Y-90421795D01*
X143200887Y-90274971D01*
X143028241Y-90159613D01*
X142836408Y-90080153D01*
X142632758Y-90039644D01*
X142425118Y-90039644D01*
X142221468Y-90080153D01*
X142029635Y-90159613D01*
X141856989Y-90274971D01*
X141710165Y-90421795D01*
X141594807Y-90594441D01*
X141515347Y-90786274D01*
X141474838Y-90989924D01*
X137638551Y-90989924D01*
X137538585Y-90840315D01*
X137515115Y-90816845D01*
X137538585Y-90793375D01*
X137645604Y-90633210D01*
X137719320Y-90455243D01*
X137756900Y-90266315D01*
X137756900Y-90073685D01*
X137719320Y-89884757D01*
X137645604Y-89706790D01*
X137538585Y-89546625D01*
X137430645Y-89438685D01*
X143167100Y-89438685D01*
X143167100Y-89631315D01*
X143204680Y-89820243D01*
X143278396Y-89998210D01*
X143385415Y-90158375D01*
X143521625Y-90294585D01*
X143681790Y-90401604D01*
X143859757Y-90475320D01*
X144048685Y-90512900D01*
X144241315Y-90512900D01*
X144430243Y-90475320D01*
X144608210Y-90401604D01*
X144768375Y-90294585D01*
X144904585Y-90158375D01*
X145011604Y-89998210D01*
X145085320Y-89820243D01*
X145122900Y-89631315D01*
X145122900Y-89438685D01*
X145085320Y-89249757D01*
X145011604Y-89071790D01*
X144904585Y-88911625D01*
X144768375Y-88775415D01*
X144608210Y-88668396D01*
X144430243Y-88594680D01*
X144241315Y-88557100D01*
X144048685Y-88557100D01*
X143859757Y-88594680D01*
X143681790Y-88668396D01*
X143521625Y-88775415D01*
X143385415Y-88911625D01*
X143278396Y-89071790D01*
X143204680Y-89249757D01*
X143167100Y-89438685D01*
X137430645Y-89438685D01*
X137402375Y-89410415D01*
X137242210Y-89303396D01*
X137065714Y-89230289D01*
X137191243Y-89205320D01*
X137369210Y-89131604D01*
X137529375Y-89024585D01*
X137665585Y-88888375D01*
X137772604Y-88728210D01*
X137846320Y-88550243D01*
X137883900Y-88361315D01*
X137883900Y-88168685D01*
X137846320Y-87979757D01*
X137772604Y-87801790D01*
X137665585Y-87641625D01*
X137529375Y-87505415D01*
X137369210Y-87398396D01*
X137191243Y-87324680D01*
X137002315Y-87287100D01*
X136809685Y-87287100D01*
X136620757Y-87324680D01*
X136442790Y-87398396D01*
X136282625Y-87505415D01*
X136146415Y-87641625D01*
X136039396Y-87801790D01*
X135972683Y-87962850D01*
X135776130Y-87962850D01*
X135572480Y-88003359D01*
X135380647Y-88082819D01*
X135208001Y-88198177D01*
X135061177Y-88345001D01*
X134945819Y-88517647D01*
X134866359Y-88709480D01*
X134825850Y-88913130D01*
X127083847Y-88913130D01*
X128363131Y-87633847D01*
X128368580Y-87661243D01*
X128442296Y-87839210D01*
X128549315Y-87999375D01*
X128685525Y-88135585D01*
X128845690Y-88242604D01*
X129023657Y-88316320D01*
X129212585Y-88353900D01*
X129405215Y-88353900D01*
X129594143Y-88316320D01*
X129772110Y-88242604D01*
X129932275Y-88135585D01*
X130068485Y-87999375D01*
X130175504Y-87839210D01*
X130249220Y-87661243D01*
X130286800Y-87472315D01*
X130286800Y-87279685D01*
X130249220Y-87090757D01*
X130175504Y-86912790D01*
X130068485Y-86752625D01*
X129932275Y-86616415D01*
X129772110Y-86509396D01*
X129594143Y-86435680D01*
X129566747Y-86430231D01*
X130114293Y-85882685D01*
X136563100Y-85882685D01*
X136563100Y-86075315D01*
X136600680Y-86264243D01*
X136674396Y-86442210D01*
X136781415Y-86602375D01*
X136917625Y-86738585D01*
X137077790Y-86845604D01*
X137255757Y-86919320D01*
X137444685Y-86956900D01*
X137637315Y-86956900D01*
X137826243Y-86919320D01*
X138004210Y-86845604D01*
X138164375Y-86738585D01*
X138300585Y-86602375D01*
X138407604Y-86442210D01*
X138481320Y-86264243D01*
X138518900Y-86075315D01*
X138518900Y-85882685D01*
X138481320Y-85693757D01*
X138407604Y-85515790D01*
X138300585Y-85355625D01*
X138164375Y-85219415D01*
X138004210Y-85112396D01*
X137826243Y-85038680D01*
X137637315Y-85001100D01*
X137444685Y-85001100D01*
X137255757Y-85038680D01*
X137077790Y-85112396D01*
X136917625Y-85219415D01*
X136781415Y-85355625D01*
X136674396Y-85515790D01*
X136600680Y-85693757D01*
X136563100Y-85882685D01*
X130114293Y-85882685D01*
X130437079Y-85559899D01*
X133172358Y-85559899D01*
X133207284Y-85563339D01*
X133242210Y-85559899D01*
X133242220Y-85559899D01*
X133346704Y-85549608D01*
X133480765Y-85508941D01*
X133604317Y-85442901D01*
X133712611Y-85354026D01*
X133734886Y-85326884D01*
X134703085Y-84358685D01*
X139357100Y-84358685D01*
X139357100Y-84551315D01*
X139394680Y-84740243D01*
X139468396Y-84918210D01*
X139575415Y-85078375D01*
X139711625Y-85214585D01*
X139871790Y-85321604D01*
X140049757Y-85395320D01*
X140238685Y-85432900D01*
X140431315Y-85432900D01*
X140620243Y-85395320D01*
X140798210Y-85321604D01*
X140958375Y-85214585D01*
X141094585Y-85078375D01*
X141201604Y-84918210D01*
X141275320Y-84740243D01*
X141312900Y-84551315D01*
X141312900Y-84358685D01*
X141275320Y-84169757D01*
X141201604Y-83991790D01*
X141094585Y-83831625D01*
X140958375Y-83695415D01*
X140798210Y-83588396D01*
X140620243Y-83514680D01*
X140431315Y-83477100D01*
X140238685Y-83477100D01*
X140049757Y-83514680D01*
X139871790Y-83588396D01*
X139711625Y-83695415D01*
X139575415Y-83831625D01*
X139468396Y-83991790D01*
X139394680Y-84169757D01*
X139357100Y-84358685D01*
X134703085Y-84358685D01*
X138125936Y-80935835D01*
X138178415Y-81014375D01*
X138314625Y-81150585D01*
X138357673Y-81179349D01*
X138357673Y-81282462D01*
X138395253Y-81471390D01*
X138468969Y-81649357D01*
X138575988Y-81809522D01*
X138712198Y-81945732D01*
X138872363Y-82052751D01*
X139050330Y-82126467D01*
X139239258Y-82164047D01*
X139431888Y-82164047D01*
X139620816Y-82126467D01*
X139798783Y-82052751D01*
X139922728Y-81969933D01*
X143224978Y-81969933D01*
X143224978Y-82177573D01*
X143265487Y-82381223D01*
X143344947Y-82573056D01*
X143460305Y-82745702D01*
X143607129Y-82892526D01*
X143779775Y-83007884D01*
X143971608Y-83087344D01*
X144175258Y-83127853D01*
X144382898Y-83127853D01*
X144586548Y-83087344D01*
X144778381Y-83007884D01*
X144951027Y-82892526D01*
X145097851Y-82745702D01*
X145213209Y-82573056D01*
X145292669Y-82381223D01*
X145333178Y-82177573D01*
X145333178Y-81969933D01*
X145292669Y-81766283D01*
X145213209Y-81574450D01*
X145097851Y-81401804D01*
X144984647Y-81288600D01*
X145394062Y-81288600D01*
X145419355Y-81545405D01*
X145494262Y-81792341D01*
X145615905Y-82019918D01*
X145779608Y-82219392D01*
X145863939Y-82288600D01*
X145779608Y-82357808D01*
X145615905Y-82557282D01*
X145494262Y-82784859D01*
X145419355Y-83031795D01*
X145394062Y-83288600D01*
X145419355Y-83545405D01*
X145494262Y-83792341D01*
X145615905Y-84019918D01*
X145779608Y-84219392D01*
X145863939Y-84288600D01*
X145779608Y-84357808D01*
X145615905Y-84557282D01*
X145494262Y-84784859D01*
X145419355Y-85031795D01*
X145394062Y-85288600D01*
X145419355Y-85545405D01*
X145494262Y-85792341D01*
X145615905Y-86019918D01*
X145779608Y-86219392D01*
X145863939Y-86288600D01*
X145779608Y-86357808D01*
X145615905Y-86557282D01*
X145494262Y-86784859D01*
X145419355Y-87031795D01*
X145394062Y-87288600D01*
X145419355Y-87545405D01*
X145494262Y-87792341D01*
X145615905Y-88019918D01*
X145779608Y-88219392D01*
X145863939Y-88288600D01*
X145779608Y-88357808D01*
X145615905Y-88557282D01*
X145494262Y-88784859D01*
X145419355Y-89031795D01*
X145394062Y-89288600D01*
X145419355Y-89545405D01*
X145494262Y-89792341D01*
X145615905Y-90019918D01*
X145779608Y-90219392D01*
X145863939Y-90288600D01*
X145779608Y-90357808D01*
X145615905Y-90557282D01*
X145494262Y-90784859D01*
X145419355Y-91031795D01*
X145394062Y-91288600D01*
X145419355Y-91545405D01*
X145494262Y-91792341D01*
X145615905Y-92019918D01*
X145779608Y-92219392D01*
X145863939Y-92288600D01*
X145779608Y-92357808D01*
X145615905Y-92557282D01*
X145494262Y-92784859D01*
X145419355Y-93031795D01*
X145394062Y-93288600D01*
X145419355Y-93545405D01*
X145494262Y-93792341D01*
X145615905Y-94019918D01*
X145779608Y-94219392D01*
X145863939Y-94288600D01*
X145779608Y-94357808D01*
X145615905Y-94557282D01*
X145494262Y-94784859D01*
X145419355Y-95031795D01*
X145394062Y-95288600D01*
X145419355Y-95545405D01*
X145494262Y-95792341D01*
X145615905Y-96019918D01*
X145779608Y-96219392D01*
X145863939Y-96288600D01*
X145779608Y-96357808D01*
X145615905Y-96557282D01*
X145494262Y-96784859D01*
X145419355Y-97031795D01*
X145394062Y-97288600D01*
X145419355Y-97545405D01*
X145494262Y-97792341D01*
X145615905Y-98019918D01*
X145673031Y-98089526D01*
X145584215Y-98162415D01*
X145504863Y-98259106D01*
X145445898Y-98369420D01*
X145409588Y-98489118D01*
X145397328Y-98613600D01*
X145397328Y-99963600D01*
X145409588Y-100088082D01*
X145445898Y-100207780D01*
X145504863Y-100318094D01*
X145584215Y-100414785D01*
X145680906Y-100494137D01*
X145791220Y-100553102D01*
X145910918Y-100589412D01*
X146035400Y-100601672D01*
X147385400Y-100601672D01*
X147509882Y-100589412D01*
X147629580Y-100553102D01*
X147739894Y-100494137D01*
X147836585Y-100414785D01*
X147915937Y-100318094D01*
X147974902Y-100207780D01*
X148011212Y-100088082D01*
X148023472Y-99963600D01*
X148023472Y-99718180D01*
X149694900Y-99718180D01*
X149694900Y-99925820D01*
X149735409Y-100129470D01*
X149814869Y-100321303D01*
X149930227Y-100493949D01*
X150077051Y-100640773D01*
X150249697Y-100756131D01*
X150441530Y-100835591D01*
X150645180Y-100876100D01*
X150852820Y-100876100D01*
X151056470Y-100835591D01*
X151248303Y-100756131D01*
X151420949Y-100640773D01*
X151567773Y-100493949D01*
X151683131Y-100321303D01*
X151762591Y-100129470D01*
X151803100Y-99925820D01*
X151803100Y-99797890D01*
X155784524Y-99797890D01*
X155829175Y-99945099D01*
X155954359Y-100207920D01*
X156128412Y-100441269D01*
X156344645Y-100636178D01*
X156594748Y-100785157D01*
X156869109Y-100882481D01*
X157099000Y-100761814D01*
X157099000Y-99568000D01*
X157353000Y-99568000D01*
X157353000Y-100761814D01*
X157582891Y-100882481D01*
X157857252Y-100785157D01*
X158107355Y-100636178D01*
X158323588Y-100441269D01*
X158496000Y-100210120D01*
X158668412Y-100441269D01*
X158884645Y-100636178D01*
X159134748Y-100785157D01*
X159409109Y-100882481D01*
X159639000Y-100761814D01*
X159639000Y-99568000D01*
X157353000Y-99568000D01*
X157099000Y-99568000D01*
X155905845Y-99568000D01*
X155784524Y-99797890D01*
X151803100Y-99797890D01*
X151803100Y-99718180D01*
X151762591Y-99514530D01*
X151683131Y-99322697D01*
X151567773Y-99150051D01*
X151420949Y-99003227D01*
X151248303Y-98887869D01*
X151056470Y-98808409D01*
X150852820Y-98767900D01*
X150645180Y-98767900D01*
X150441530Y-98808409D01*
X150249697Y-98887869D01*
X150077051Y-99003227D01*
X149930227Y-99150051D01*
X149814869Y-99322697D01*
X149735409Y-99514530D01*
X149694900Y-99718180D01*
X148023472Y-99718180D01*
X148023472Y-98613600D01*
X148011212Y-98489118D01*
X147974902Y-98369420D01*
X147915937Y-98259106D01*
X147836585Y-98162415D01*
X147747769Y-98089526D01*
X147804895Y-98019918D01*
X147926538Y-97792341D01*
X148001445Y-97545405D01*
X148026738Y-97288600D01*
X148001445Y-97031795D01*
X147926538Y-96784859D01*
X147804895Y-96557282D01*
X147641192Y-96357808D01*
X147556861Y-96288600D01*
X147641192Y-96219392D01*
X147804895Y-96019918D01*
X147926538Y-95792341D01*
X148001445Y-95545405D01*
X148026738Y-95288600D01*
X148001445Y-95031795D01*
X147926538Y-94784859D01*
X147804895Y-94557282D01*
X147641192Y-94357808D01*
X147556861Y-94288600D01*
X147641192Y-94219392D01*
X147804895Y-94019918D01*
X147926538Y-93792341D01*
X148001445Y-93545405D01*
X148026738Y-93288600D01*
X148001445Y-93031795D01*
X147926538Y-92784859D01*
X147804895Y-92557282D01*
X147641192Y-92357808D01*
X147556861Y-92288600D01*
X147641192Y-92219392D01*
X147804895Y-92019918D01*
X147926538Y-91792341D01*
X148001445Y-91545405D01*
X148026738Y-91288600D01*
X148001445Y-91031795D01*
X147926538Y-90784859D01*
X147804895Y-90557282D01*
X147714538Y-90447180D01*
X149948900Y-90447180D01*
X149948900Y-90654820D01*
X149989409Y-90858470D01*
X150068869Y-91050303D01*
X150184227Y-91222949D01*
X150331051Y-91369773D01*
X150503697Y-91485131D01*
X150695530Y-91564591D01*
X150899180Y-91605100D01*
X151106820Y-91605100D01*
X151310470Y-91564591D01*
X151502303Y-91485131D01*
X151674949Y-91369773D01*
X151821773Y-91222949D01*
X151899851Y-91106096D01*
X151914396Y-91141210D01*
X152021415Y-91301375D01*
X152157625Y-91437585D01*
X152317790Y-91544604D01*
X152495757Y-91618320D01*
X152684685Y-91655900D01*
X152877315Y-91655900D01*
X153066243Y-91618320D01*
X153244210Y-91544604D01*
X153404375Y-91437585D01*
X153540585Y-91301375D01*
X153647604Y-91141210D01*
X153721320Y-90963243D01*
X153758900Y-90774315D01*
X153758900Y-90581685D01*
X153721320Y-90392757D01*
X153647604Y-90214790D01*
X153540585Y-90054625D01*
X153404375Y-89918415D01*
X153244210Y-89811396D01*
X153066243Y-89737680D01*
X152877315Y-89700100D01*
X152684685Y-89700100D01*
X152495757Y-89737680D01*
X152317790Y-89811396D01*
X152157625Y-89918415D01*
X152021415Y-90054625D01*
X151970134Y-90131373D01*
X151937131Y-90051697D01*
X151821773Y-89879051D01*
X151674949Y-89732227D01*
X151502303Y-89616869D01*
X151310470Y-89537409D01*
X151106820Y-89496900D01*
X150899180Y-89496900D01*
X150695530Y-89537409D01*
X150503697Y-89616869D01*
X150331051Y-89732227D01*
X150184227Y-89879051D01*
X150068869Y-90051697D01*
X149989409Y-90243530D01*
X149948900Y-90447180D01*
X147714538Y-90447180D01*
X147641192Y-90357808D01*
X147556861Y-90288600D01*
X147641192Y-90219392D01*
X147804895Y-90019918D01*
X147926538Y-89792341D01*
X148001445Y-89545405D01*
X148026738Y-89288600D01*
X148001445Y-89031795D01*
X147926538Y-88784859D01*
X147804895Y-88557282D01*
X147641192Y-88357808D01*
X147556861Y-88288600D01*
X147641192Y-88219392D01*
X147804895Y-88019918D01*
X147926538Y-87792341D01*
X147930226Y-87780180D01*
X149948900Y-87780180D01*
X149948900Y-87987820D01*
X149989409Y-88191470D01*
X150068869Y-88383303D01*
X150184227Y-88555949D01*
X150331051Y-88702773D01*
X150503697Y-88818131D01*
X150695530Y-88897591D01*
X150899180Y-88938100D01*
X151106820Y-88938100D01*
X151310470Y-88897591D01*
X151502303Y-88818131D01*
X151674949Y-88702773D01*
X151821773Y-88555949D01*
X151867378Y-88487697D01*
X151914396Y-88601210D01*
X152021415Y-88761375D01*
X152157625Y-88897585D01*
X152317790Y-89004604D01*
X152495757Y-89078320D01*
X152684685Y-89115900D01*
X152877315Y-89115900D01*
X153066243Y-89078320D01*
X153244210Y-89004604D01*
X153404375Y-88897585D01*
X153540585Y-88761375D01*
X153647604Y-88601210D01*
X153721320Y-88423243D01*
X153758900Y-88234315D01*
X153758900Y-88041685D01*
X153721320Y-87852757D01*
X153647604Y-87674790D01*
X153540585Y-87514625D01*
X153404375Y-87378415D01*
X153244210Y-87271396D01*
X153066243Y-87197680D01*
X152877315Y-87160100D01*
X152684685Y-87160100D01*
X152495757Y-87197680D01*
X152317790Y-87271396D01*
X152157625Y-87378415D01*
X152021415Y-87514625D01*
X152002608Y-87542772D01*
X151937131Y-87384697D01*
X151821773Y-87212051D01*
X151674949Y-87065227D01*
X151502303Y-86949869D01*
X151310470Y-86870409D01*
X151106820Y-86829900D01*
X150899180Y-86829900D01*
X150695530Y-86870409D01*
X150503697Y-86949869D01*
X150331051Y-87065227D01*
X150184227Y-87212051D01*
X150068869Y-87384697D01*
X149989409Y-87576530D01*
X149948900Y-87780180D01*
X147930226Y-87780180D01*
X148001445Y-87545405D01*
X148026738Y-87288600D01*
X148001445Y-87031795D01*
X147926538Y-86784859D01*
X147804895Y-86557282D01*
X147641192Y-86357808D01*
X147556861Y-86288600D01*
X147641192Y-86219392D01*
X147804895Y-86019918D01*
X147926538Y-85792341D01*
X148001445Y-85545405D01*
X148026738Y-85288600D01*
X148001445Y-85031795D01*
X147926538Y-84784859D01*
X147804895Y-84557282D01*
X147641192Y-84357808D01*
X147556861Y-84288600D01*
X147641192Y-84219392D01*
X147804895Y-84019918D01*
X147926538Y-83792341D01*
X148001445Y-83545405D01*
X148026738Y-83288600D01*
X148001445Y-83031795D01*
X147926538Y-82784859D01*
X147881276Y-82700180D01*
X149948900Y-82700180D01*
X149948900Y-82907820D01*
X149989409Y-83111470D01*
X150068869Y-83303303D01*
X150184227Y-83475949D01*
X150331051Y-83622773D01*
X150503697Y-83738131D01*
X150695530Y-83817591D01*
X150899180Y-83858100D01*
X151106820Y-83858100D01*
X151310470Y-83817591D01*
X151502303Y-83738131D01*
X151674949Y-83622773D01*
X151821773Y-83475949D01*
X151899851Y-83359096D01*
X151914396Y-83394210D01*
X152021415Y-83554375D01*
X152157625Y-83690585D01*
X152317790Y-83797604D01*
X152495757Y-83871320D01*
X152684685Y-83908900D01*
X152877315Y-83908900D01*
X153066243Y-83871320D01*
X153244210Y-83797604D01*
X153404375Y-83690585D01*
X153540585Y-83554375D01*
X153647604Y-83394210D01*
X153721320Y-83216243D01*
X153758900Y-83027315D01*
X153758900Y-82834685D01*
X153721320Y-82645757D01*
X153647604Y-82467790D01*
X153540585Y-82307625D01*
X153404375Y-82171415D01*
X153244210Y-82064396D01*
X153066243Y-81990680D01*
X152877315Y-81953100D01*
X152684685Y-81953100D01*
X152495757Y-81990680D01*
X152317790Y-82064396D01*
X152157625Y-82171415D01*
X152021415Y-82307625D01*
X151970134Y-82384373D01*
X151937131Y-82304697D01*
X151821773Y-82132051D01*
X151674949Y-81985227D01*
X151502303Y-81869869D01*
X151310470Y-81790409D01*
X151106820Y-81749900D01*
X150899180Y-81749900D01*
X150695530Y-81790409D01*
X150503697Y-81869869D01*
X150331051Y-81985227D01*
X150184227Y-82132051D01*
X150068869Y-82304697D01*
X149989409Y-82496530D01*
X149948900Y-82700180D01*
X147881276Y-82700180D01*
X147804895Y-82557282D01*
X147641192Y-82357808D01*
X147556861Y-82288600D01*
X147641192Y-82219392D01*
X147804895Y-82019918D01*
X147926538Y-81792341D01*
X148001445Y-81545405D01*
X148026738Y-81288600D01*
X148001445Y-81031795D01*
X147926538Y-80784859D01*
X147804895Y-80557282D01*
X147641192Y-80357808D01*
X147441718Y-80194105D01*
X147214141Y-80072462D01*
X146967205Y-79997555D01*
X146774751Y-79978600D01*
X146646049Y-79978600D01*
X146453595Y-79997555D01*
X146206659Y-80072462D01*
X145979082Y-80194105D01*
X145779608Y-80357808D01*
X145615905Y-80557282D01*
X145494262Y-80784859D01*
X145419355Y-81031795D01*
X145394062Y-81288600D01*
X144984647Y-81288600D01*
X144951027Y-81254980D01*
X144778381Y-81139622D01*
X144586548Y-81060162D01*
X144382898Y-81019653D01*
X144175258Y-81019653D01*
X143971608Y-81060162D01*
X143779775Y-81139622D01*
X143607129Y-81254980D01*
X143460305Y-81401804D01*
X143344947Y-81574450D01*
X143265487Y-81766283D01*
X143224978Y-81969933D01*
X139922728Y-81969933D01*
X139958948Y-81945732D01*
X140042748Y-81861932D01*
X140093987Y-81846389D01*
X140217539Y-81780349D01*
X140325833Y-81691474D01*
X140348108Y-81664332D01*
X141448195Y-80564246D01*
X141475326Y-80541980D01*
X141497593Y-80514848D01*
X141497597Y-80514844D01*
X141564202Y-80433686D01*
X141593806Y-80378301D01*
X141630242Y-80310134D01*
X141670909Y-80176073D01*
X141681200Y-80071589D01*
X141681200Y-80071580D01*
X141684640Y-80036654D01*
X141681200Y-80001728D01*
X141681200Y-78647925D01*
X141684640Y-78612999D01*
X141681200Y-78578073D01*
X141681200Y-78578064D01*
X141670909Y-78473580D01*
X141630242Y-78339519D01*
X141564202Y-78215967D01*
X141497597Y-78134808D01*
X141497593Y-78134804D01*
X141475327Y-78107673D01*
X141448196Y-78085407D01*
X140113300Y-76750513D01*
X140091026Y-76723372D01*
X139982732Y-76634497D01*
X139869841Y-76574155D01*
X155380450Y-76574155D01*
X155776634Y-77094550D01*
X156491612Y-77484748D01*
X157268976Y-77727964D01*
X158078853Y-77814851D01*
X158890118Y-77742069D01*
X159671597Y-77512415D01*
X160393256Y-77134715D01*
X160453366Y-77094550D01*
X160849550Y-76574155D01*
X158115000Y-73839605D01*
X155380450Y-76574155D01*
X139869841Y-76574155D01*
X139859180Y-76568457D01*
X139833341Y-76560619D01*
X139951585Y-76442375D01*
X140058604Y-76282210D01*
X140132320Y-76104243D01*
X140169900Y-75915315D01*
X140169900Y-75722685D01*
X140132320Y-75533757D01*
X140058604Y-75355790D01*
X139951585Y-75195625D01*
X139815375Y-75059415D01*
X139655210Y-74952396D01*
X139477243Y-74878680D01*
X139288315Y-74841100D01*
X139095685Y-74841100D01*
X138906757Y-74878680D01*
X138728790Y-74952396D01*
X138568625Y-75059415D01*
X138432415Y-75195625D01*
X138325396Y-75355790D01*
X138251680Y-75533757D01*
X138242320Y-75580814D01*
X138080243Y-75513680D01*
X137891315Y-75476100D01*
X137698685Y-75476100D01*
X137509757Y-75513680D01*
X137331790Y-75587396D01*
X137171625Y-75694415D01*
X137035415Y-75830625D01*
X136928396Y-75990790D01*
X136854680Y-76168757D01*
X136817100Y-76357685D01*
X136817100Y-76550315D01*
X136854680Y-76739243D01*
X136872925Y-76783292D01*
X135523089Y-78133129D01*
X135497375Y-78107415D01*
X135337210Y-78000396D01*
X135159243Y-77926680D01*
X134970315Y-77889100D01*
X134777685Y-77889100D01*
X134588757Y-77926680D01*
X134410790Y-78000396D01*
X134250625Y-78107415D01*
X134114415Y-78243625D01*
X134007396Y-78403790D01*
X133933680Y-78581757D01*
X133896100Y-78770685D01*
X133896100Y-78963315D01*
X133933680Y-79152243D01*
X134007396Y-79330210D01*
X134114415Y-79490375D01*
X134140129Y-79516089D01*
X132295900Y-81360319D01*
X132295900Y-81259886D01*
X132258320Y-81070958D01*
X132184604Y-80892991D01*
X132077585Y-80732826D01*
X131941375Y-80596616D01*
X131781210Y-80489597D01*
X131603243Y-80415881D01*
X131414315Y-80378301D01*
X131221685Y-80378301D01*
X131032757Y-80415881D01*
X130854790Y-80489597D01*
X130694625Y-80596616D01*
X130558415Y-80732826D01*
X130451396Y-80892991D01*
X130377680Y-81070958D01*
X130340100Y-81259886D01*
X130340100Y-81452516D01*
X130377680Y-81641444D01*
X130451396Y-81819411D01*
X130501102Y-81893801D01*
X126027072Y-81893801D01*
X126027072Y-80605000D01*
X126014812Y-80480518D01*
X125978502Y-80360820D01*
X125919537Y-80250506D01*
X125840185Y-80153815D01*
X125743494Y-80074463D01*
X125633180Y-80015498D01*
X125513482Y-79979188D01*
X125389000Y-79966928D01*
X124039000Y-79966928D01*
X123914518Y-79979188D01*
X123794820Y-80015498D01*
X123684506Y-80074463D01*
X123587815Y-80153815D01*
X123508463Y-80250506D01*
X123449498Y-80360820D01*
X123413188Y-80480518D01*
X123400928Y-80605000D01*
X123400928Y-81955000D01*
X123413188Y-82079482D01*
X123449498Y-82199180D01*
X123508463Y-82309494D01*
X123587815Y-82406185D01*
X123676631Y-82479074D01*
X123619505Y-82548682D01*
X123497862Y-82776259D01*
X123422955Y-83023195D01*
X123397662Y-83280000D01*
X115187722Y-83280000D01*
X115309273Y-83158449D01*
X115424631Y-82985803D01*
X115504091Y-82793970D01*
X115544600Y-82590320D01*
X115544600Y-82382680D01*
X115504091Y-82179030D01*
X115424631Y-81987197D01*
X115309273Y-81814551D01*
X115162449Y-81667727D01*
X114989803Y-81552369D01*
X114797970Y-81472909D01*
X114594320Y-81432400D01*
X114386680Y-81432400D01*
X114183030Y-81472909D01*
X113991197Y-81552369D01*
X113818551Y-81667727D01*
X113792000Y-81694278D01*
X113792000Y-79659685D01*
X129070100Y-79659685D01*
X129070100Y-79852315D01*
X129107680Y-80041243D01*
X129181396Y-80219210D01*
X129288415Y-80379375D01*
X129424625Y-80515585D01*
X129584790Y-80622604D01*
X129762757Y-80696320D01*
X129951685Y-80733900D01*
X130144315Y-80733900D01*
X130333243Y-80696320D01*
X130511210Y-80622604D01*
X130671375Y-80515585D01*
X130807585Y-80379375D01*
X130914604Y-80219210D01*
X130988320Y-80041243D01*
X131025900Y-79852315D01*
X131025900Y-79659685D01*
X130988320Y-79470757D01*
X130914604Y-79292790D01*
X130807585Y-79132625D01*
X130671375Y-78996415D01*
X130511210Y-78889396D01*
X130333243Y-78815680D01*
X130144315Y-78778100D01*
X129951685Y-78778100D01*
X129762757Y-78815680D01*
X129584790Y-78889396D01*
X129424625Y-78996415D01*
X129288415Y-79132625D01*
X129181396Y-79292790D01*
X129107680Y-79470757D01*
X129070100Y-79659685D01*
X113792000Y-79659685D01*
X113792000Y-76574155D01*
X114105450Y-76574155D01*
X114501634Y-77094550D01*
X115216612Y-77484748D01*
X115993976Y-77727964D01*
X116803853Y-77814851D01*
X117615118Y-77742069D01*
X118396597Y-77512415D01*
X119118256Y-77134715D01*
X119178366Y-77094550D01*
X119574550Y-76574155D01*
X116840000Y-73839605D01*
X114105450Y-76574155D01*
X113792000Y-76574155D01*
X113792000Y-76292652D01*
X113925845Y-76394550D01*
X116660395Y-73660000D01*
X117019605Y-73660000D01*
X119754155Y-76394550D01*
X120274550Y-75998366D01*
X120664748Y-75283388D01*
X120907964Y-74506024D01*
X120927311Y-74325685D01*
X122466100Y-74325685D01*
X122466100Y-74518315D01*
X122503680Y-74707243D01*
X122577396Y-74885210D01*
X122684415Y-75045375D01*
X122820625Y-75181585D01*
X122980790Y-75288604D01*
X123158757Y-75362320D01*
X123347685Y-75399900D01*
X123540315Y-75399900D01*
X123729243Y-75362320D01*
X123907210Y-75288604D01*
X124067375Y-75181585D01*
X124203585Y-75045375D01*
X124310604Y-74885210D01*
X124384320Y-74707243D01*
X124421900Y-74518315D01*
X124421900Y-74325685D01*
X124396639Y-74198685D01*
X130086100Y-74198685D01*
X130086100Y-74391315D01*
X130123680Y-74580243D01*
X130197396Y-74758210D01*
X130304415Y-74918375D01*
X130440625Y-75054585D01*
X130600790Y-75161604D01*
X130778757Y-75235320D01*
X130967685Y-75272900D01*
X131160315Y-75272900D01*
X131349243Y-75235320D01*
X131527210Y-75161604D01*
X131687375Y-75054585D01*
X131823585Y-74918375D01*
X131930604Y-74758210D01*
X132004320Y-74580243D01*
X132041900Y-74391315D01*
X132041900Y-74198685D01*
X132004320Y-74009757D01*
X131930604Y-73831790D01*
X131823585Y-73671625D01*
X131687375Y-73535415D01*
X131527210Y-73428396D01*
X131349243Y-73354680D01*
X131160315Y-73317100D01*
X130967685Y-73317100D01*
X130778757Y-73354680D01*
X130600790Y-73428396D01*
X130440625Y-73535415D01*
X130304415Y-73671625D01*
X130197396Y-73831790D01*
X130123680Y-74009757D01*
X130086100Y-74198685D01*
X124396639Y-74198685D01*
X124384320Y-74136757D01*
X124310604Y-73958790D01*
X124203585Y-73798625D01*
X124067375Y-73662415D01*
X123907210Y-73555396D01*
X123729243Y-73481680D01*
X123540315Y-73444100D01*
X123347685Y-73444100D01*
X123158757Y-73481680D01*
X122980790Y-73555396D01*
X122820625Y-73662415D01*
X122684415Y-73798625D01*
X122577396Y-73958790D01*
X122503680Y-74136757D01*
X122466100Y-74325685D01*
X120927311Y-74325685D01*
X120994851Y-73696147D01*
X120937393Y-73055685D01*
X139865100Y-73055685D01*
X139865100Y-73248315D01*
X139902680Y-73437243D01*
X139976396Y-73615210D01*
X140083415Y-73775375D01*
X140219625Y-73911585D01*
X140379790Y-74018604D01*
X140557757Y-74092320D01*
X140746685Y-74129900D01*
X140939315Y-74129900D01*
X141128243Y-74092320D01*
X141178060Y-74071685D01*
X142151100Y-74071685D01*
X142151100Y-74264315D01*
X142188680Y-74453243D01*
X142262396Y-74631210D01*
X142369415Y-74791375D01*
X142505625Y-74927585D01*
X142665790Y-75034604D01*
X142843757Y-75108320D01*
X143032685Y-75145900D01*
X143225315Y-75145900D01*
X143414243Y-75108320D01*
X143592210Y-75034604D01*
X143752375Y-74927585D01*
X143888585Y-74791375D01*
X143995604Y-74631210D01*
X144069320Y-74453243D01*
X144106900Y-74264315D01*
X144106900Y-74071685D01*
X144103170Y-74052931D01*
X145561346Y-74052931D01*
X145561346Y-74245561D01*
X145598926Y-74434489D01*
X145672642Y-74612456D01*
X145779661Y-74772621D01*
X145915871Y-74908831D01*
X146076036Y-75015850D01*
X146254003Y-75089566D01*
X146442931Y-75127146D01*
X146635561Y-75127146D01*
X146824489Y-75089566D01*
X147002456Y-75015850D01*
X147162621Y-74908831D01*
X147298831Y-74772621D01*
X147405850Y-74612456D01*
X147479566Y-74434489D01*
X147517146Y-74245561D01*
X147517146Y-74052931D01*
X147479566Y-73864003D01*
X147405850Y-73686036D01*
X147364301Y-73623853D01*
X153960149Y-73623853D01*
X154032931Y-74435118D01*
X154262585Y-75216597D01*
X154640285Y-75938256D01*
X154680450Y-75998366D01*
X155200845Y-76394550D01*
X157935395Y-73660000D01*
X155200845Y-70925450D01*
X154680450Y-71321634D01*
X154290252Y-72036612D01*
X154047036Y-72813976D01*
X153960149Y-73623853D01*
X147364301Y-73623853D01*
X147298831Y-73525871D01*
X147162621Y-73389661D01*
X147002456Y-73282642D01*
X146824489Y-73208926D01*
X146635561Y-73171346D01*
X146442931Y-73171346D01*
X146254003Y-73208926D01*
X146076036Y-73282642D01*
X145915871Y-73389661D01*
X145779661Y-73525871D01*
X145672642Y-73686036D01*
X145598926Y-73864003D01*
X145561346Y-74052931D01*
X144103170Y-74052931D01*
X144069320Y-73882757D01*
X143995604Y-73704790D01*
X143888585Y-73544625D01*
X143752375Y-73408415D01*
X143592210Y-73301396D01*
X143414243Y-73227680D01*
X143225315Y-73190100D01*
X143032685Y-73190100D01*
X142843757Y-73227680D01*
X142665790Y-73301396D01*
X142505625Y-73408415D01*
X142369415Y-73544625D01*
X142262396Y-73704790D01*
X142188680Y-73882757D01*
X142151100Y-74071685D01*
X141178060Y-74071685D01*
X141306210Y-74018604D01*
X141466375Y-73911585D01*
X141602585Y-73775375D01*
X141709604Y-73615210D01*
X141783320Y-73437243D01*
X141820900Y-73248315D01*
X141820900Y-73055685D01*
X141783320Y-72866757D01*
X141709604Y-72688790D01*
X141602585Y-72528625D01*
X141466375Y-72392415D01*
X141306210Y-72285396D01*
X141128243Y-72211680D01*
X140939315Y-72174100D01*
X140746685Y-72174100D01*
X140557757Y-72211680D01*
X140379790Y-72285396D01*
X140219625Y-72392415D01*
X140083415Y-72528625D01*
X139976396Y-72688790D01*
X139902680Y-72866757D01*
X139865100Y-73055685D01*
X120937393Y-73055685D01*
X120922069Y-72884882D01*
X120692415Y-72103403D01*
X120393191Y-71531685D01*
X125641100Y-71531685D01*
X125641100Y-71724315D01*
X125678680Y-71913243D01*
X125752396Y-72091210D01*
X125859415Y-72251375D01*
X125995625Y-72387585D01*
X126155790Y-72494604D01*
X126333757Y-72568320D01*
X126522685Y-72605900D01*
X126715315Y-72605900D01*
X126904243Y-72568320D01*
X127082210Y-72494604D01*
X127242375Y-72387585D01*
X127378585Y-72251375D01*
X127485604Y-72091210D01*
X127559320Y-71913243D01*
X127596900Y-71724315D01*
X127596900Y-71531685D01*
X127559320Y-71342757D01*
X127485604Y-71164790D01*
X127378585Y-71004625D01*
X127242375Y-70868415D01*
X127082210Y-70761396D01*
X126904243Y-70687680D01*
X126715315Y-70650100D01*
X126522685Y-70650100D01*
X126333757Y-70687680D01*
X126155790Y-70761396D01*
X125995625Y-70868415D01*
X125859415Y-71004625D01*
X125752396Y-71164790D01*
X125678680Y-71342757D01*
X125641100Y-71531685D01*
X120393191Y-71531685D01*
X120314715Y-71381744D01*
X120274550Y-71321634D01*
X119754155Y-70925450D01*
X117019605Y-73660000D01*
X116660395Y-73660000D01*
X116646253Y-73645858D01*
X116825858Y-73466253D01*
X116840000Y-73480395D01*
X119574550Y-70745845D01*
X119472652Y-70612000D01*
X134083859Y-70612000D01*
X134029790Y-70634396D01*
M02*
