M48
; DRILL file {KiCad (5.1.4)-1} date 10/27/2019 1:28:17 PM
; FORMAT={-:-/ absolute / inch / decimal}
; #@! TF.CreationDate,2019-10-27T13:28:17-04:00
; #@! TF.GenerationSoftware,Kicad,Pcbnew,(5.1.4)-1
FMAT,2
INCH
T1C0.0130
T2C0.0160
T3C0.0315
T4C0.0394
T5C0.1378
%
G90
G05
T1
X4.795Y-3.965
X4.86Y-2.93
X4.985Y-2.82
X4.985Y-3.195
X4.985Y-3.44
X5.0115Y-3.63
X5.03Y-2.82
X5.07Y-3.15
X5.0909Y-3.44
X5.12Y-3.14
X5.16Y-2.925
X5.17Y-3.203
X5.2Y-3.395
X5.215Y-3.275
X5.235Y-3.64
X5.2761Y-3.905
X5.2859Y-3.0541
X5.295Y-2.815
X5.295Y-3.755
X5.303Y-3.183
X5.31Y-3.105
X5.34Y-2.815
X5.385Y-3.55
X5.385Y-3.6009
X5.39Y-3.475
X5.39Y-3.9
X5.3905Y-3.1537
X5.4Y-3.69
X5.415Y-3.385
X5.42Y-3.825
X5.425Y-3.01
X5.4327Y-3.1304
X5.45Y-3.065
X5.47Y-3.165
X5.48Y-2.985
X5.4857Y-3.1963
X5.495Y-3.67
X5.5Y-3.135
X5.525Y-3.325
X5.53Y-3.93
X5.545Y-2.88
X5.635Y-2.815
X5.635Y-2.92
X5.65Y-3.83
X5.675Y-3.525
X5.765Y-3.065
X5.765Y-3.135
X5.7693Y-2.9193
X5.9Y-2.815
X6.015Y-3.265
X6.015Y-3.47
X6.015Y-3.57
X6.05Y-2.81
T2
X4.505Y-3.4975
X4.5075Y-3.2475
X4.5075Y-3.375
X4.5075Y-3.6025
X4.5075Y-3.725
X4.535Y-4.025
X4.575Y-3.4975
X5.08Y-4.16
X5.135Y-4.285
X5.155Y-4.055
X5.19Y-3.65
X5.205Y-3.92
X5.225Y-4.1
X5.235Y-3.865
X5.295Y-3.385
X5.325Y-3.6059
X5.3496Y-3.5046
X5.3872Y-4.1603
X5.4368Y-4.1618
X5.51Y-4.175
X5.525Y-4.275
X5.5634Y-3.4495
X5.575Y-4.175
X5.595Y-3.245
X5.6114Y-3.5864
X5.63Y-3.97
X5.65Y-3.915
X5.6594Y-3.6361
X5.66Y-3.73
X5.6803Y-3.2313
X5.835Y-4.325
X5.9Y-4.175
X5.935Y-3.93
X5.945Y-3.26
X5.945Y-3.46
X5.945Y-3.565
X6.092Y-3.914
X6.22Y-3.14
T3
X5.776Y-3.2003
X5.776Y-3.2791
X5.776Y-3.3578
X5.776Y-3.4366
X5.776Y-3.5153
X5.776Y-3.594
X5.776Y-3.6728
X5.776Y-3.7515
X5.776Y-3.8303
X5.776Y-3.909
X4.91Y-3.2
X4.91Y-3.2787
X4.91Y-3.3575
X4.91Y-3.4362
X4.91Y-3.515
X4.91Y-3.5937
X4.91Y-3.6724
X4.91Y-3.7512
X4.91Y-3.8299
X4.91Y-3.9087
T4
X6.19Y-3.315
X6.19Y-3.415
X6.19Y-3.515
X6.19Y-3.615
X6.19Y-3.715
X6.19Y-3.815
X6.19Y-3.915
X6.29Y-3.315
X6.29Y-3.415
X6.29Y-3.515
X6.29Y-3.615
X6.29Y-3.715
X6.29Y-3.815
X6.29Y-3.915
X4.92Y-4.3
X5.02Y-4.3
T5
X4.6Y-4.25
X6.225Y-4.25
X6.225Y-2.9
X4.6Y-2.9
T0
M30
