M48
; DRILL file {KiCad (5.1.4)-1} date 11/10/2019 12:23:21 PM
; FORMAT={-:-/ absolute / inch / decimal}
; #@! TF.CreationDate,2019-11-10T12:23:21-05:00
; #@! TF.GenerationSoftware,Kicad,Pcbnew,(5.1.4)-1
FMAT,2
INCH
T1C0.0150
T2C0.0394
T3C0.0598
T4C0.1378
%
G90
G05
T1
X5.705Y-4.185
X5.705Y-4.225
X5.82Y-4.131
X5.83Y-3.87
X5.83Y-4.03
X5.845Y-4.48
X5.855Y-4.425
X5.86Y-4.54
X5.9Y-4.71
X5.945Y-3.736
X5.9456Y-3.5414
X5.946Y-3.899
X5.95Y-4.45
X5.9625Y-4.1085
X6.038Y-3.349
X6.05Y-4.69
X6.06Y-4.9
X6.076Y-3.713
X6.085Y-4.375
X6.125Y-3.855
X6.13Y-4.89
X6.165Y-3.855
X6.175Y-4.19
X6.19Y-4.32
X6.201Y-4.273
X6.28Y-4.325
X6.285Y-4.19
X6.295Y-3.855
X6.326Y-4.381
X6.3329Y-4.993
X6.335Y-3.855
X6.375Y-5.0
X6.396Y-4.52
X6.4Y-4.7133
X6.406Y-4.318
X6.422Y-4.437
X6.45Y-5.0
X6.484Y-3.595
X6.502Y-4.436
X6.515Y-3.891
X6.546Y-4.155
X6.55Y-4.056
X6.55Y-4.6491
X6.5533Y-4.9384
X6.555Y-3.473
X6.555Y-3.726
X6.566Y-3.39
X6.575Y-4.7089
X6.58Y-3.87
X6.58Y-4.02
X6.625Y-4.1
X6.6374Y-4.6491
X6.721Y-3.8575
X6.7345Y-4.8985
X6.7438Y-4.746
X6.7708Y-4.2408
X6.824Y-3.669
X6.826Y-3.6
X6.832Y-4.262
X6.833Y-3.83
X6.838Y-4.058
X6.839Y-4.839
X6.841Y-4.129
X6.8417Y-4.9779
X6.851Y-5.082
X6.966Y-4.118
X6.974Y-4.266
X6.998Y-4.346
X7.002Y-4.461
X7.0085Y-4.956
X7.0276Y-4.7078
X7.077Y-4.412
X7.081Y-4.491
X7.096Y-4.53
X7.16Y-5.06
X7.18Y-4.36
X7.19Y-4.21
X7.196Y-4.962
X7.22Y-4.13
X7.221Y-3.816
X7.251Y-3.56
X7.251Y-3.707
X7.2615Y-4.3905
X7.2775Y-4.2185
X7.307Y-4.685
X7.332Y-4.845
X7.3404Y-4.5304
X7.35Y-4.414
X7.35Y-4.58
X7.38Y-5.1
X7.3965Y-3.9297
X7.44Y-4.95
X7.4684Y-3.654
X7.47Y-4.3863
X7.498Y-4.268
X7.503Y-3.493
X7.5137Y-3.7833
X7.54Y-3.89
X7.5633Y-3.7758
X7.57Y-3.497
X7.5728Y-4.0972
X7.6077Y-4.8477
X7.62Y-4.31
X7.6236Y-3.92
X7.66Y-4.73
X7.686Y-5.077
X7.69Y-4.46
X7.69Y-4.66
X7.703Y-3.512
X7.71Y-4.92
X7.74Y-3.8
X7.75Y-3.6
X7.76Y-5.07
X7.78Y-4.542
X7.84Y-4.46
X7.848Y-3.519
X7.8974Y-4.6121
X7.8989Y-3.9984
X7.9Y-4.57
X7.9003Y-4.469
X7.91Y-4.65
X7.91Y-4.7029
X7.92Y-4.03
X7.95Y-3.76
X7.95Y-3.81
X7.95Y-3.86
X7.95Y-3.91
X7.95Y-4.4
X7.9525Y-3.71
X8.0Y-3.537
X8.024Y-5.087
X8.03Y-4.991
X8.06Y-4.955
X8.062Y-3.527
X8.17Y-4.66
X8.172Y-4.73
X8.19Y-3.81
X8.19Y-3.86
X8.204Y-3.452
X8.25Y-3.95
X8.27Y-3.53
T2
X8.18Y-4.96
X8.18Y-5.06
X7.485Y-3.275
X7.485Y-3.375
X7.585Y-3.275
X7.585Y-3.375
X7.685Y-3.275
X7.685Y-3.375
X7.785Y-3.275
X7.785Y-3.375
X7.885Y-3.275
X7.885Y-3.375
X7.985Y-3.275
X7.985Y-3.375
X8.085Y-3.275
X8.085Y-3.375
X7.742Y-4.255
X7.742Y-4.355
X7.09Y-3.33
X7.19Y-3.33
T3
X8.425Y-3.7
X8.425Y-3.9
X8.425Y-4.1
X8.425Y-4.3
X8.425Y-4.5
X8.425Y-4.7
T4
X5.75Y-3.35
X8.45Y-5.05
X8.45Y-3.35
X5.75Y-5.05
T0
M30
