G04 #@! TF.GenerationSoftware,KiCad,Pcbnew,(5.1.4)-1*
G04 #@! TF.CreationDate,2019-11-10T12:22:22-05:00*
G04 #@! TF.ProjectId,synth,73796e74-682e-46b6-9963-61645f706362,rev?*
G04 #@! TF.SameCoordinates,Original*
G04 #@! TF.FileFunction,Soldermask,Bot*
G04 #@! TF.FilePolarity,Negative*
%FSLAX46Y46*%
G04 Gerber Fmt 4.6, Leading zero omitted, Abs format (unit mm)*
G04 Created by KiCad (PCBNEW (5.1.4)-1) date 2019-11-10 12:22:22*
%MOMM*%
%LPD*%
G04 APERTURE LIST*
%ADD10C,0.100000*%
G04 APERTURE END LIST*
D10*
G36*
X215665731Y-124855655D02*
G01*
X216311935Y-125123321D01*
X216893505Y-125511914D01*
X217388086Y-126006495D01*
X217776679Y-126588065D01*
X218044345Y-127234269D01*
X218180800Y-127920276D01*
X218180800Y-128619724D01*
X218044345Y-129305731D01*
X217776679Y-129951935D01*
X217388086Y-130533505D01*
X216893505Y-131028086D01*
X216311935Y-131416679D01*
X215665731Y-131684345D01*
X214979724Y-131820800D01*
X214280276Y-131820800D01*
X213594269Y-131684345D01*
X212948065Y-131416679D01*
X212366495Y-131028086D01*
X211871914Y-130533505D01*
X211483321Y-129951935D01*
X211215655Y-129305731D01*
X211079200Y-128619724D01*
X211079200Y-127920276D01*
X211215655Y-127234269D01*
X211483321Y-126588065D01*
X211871914Y-126006495D01*
X212366495Y-125511914D01*
X212948065Y-125123321D01*
X213594269Y-124855655D01*
X214280276Y-124719200D01*
X214979724Y-124719200D01*
X215665731Y-124855655D01*
X215665731Y-124855655D01*
G37*
G36*
X147085731Y-124855655D02*
G01*
X147731935Y-125123321D01*
X148313505Y-125511914D01*
X148808086Y-126006495D01*
X149196679Y-126588065D01*
X149464345Y-127234269D01*
X149600800Y-127920276D01*
X149600800Y-128619724D01*
X149464345Y-129305731D01*
X149196679Y-129951935D01*
X148808086Y-130533505D01*
X148313505Y-131028086D01*
X147731935Y-131416679D01*
X147085731Y-131684345D01*
X146399724Y-131820800D01*
X145700276Y-131820800D01*
X145014269Y-131684345D01*
X144368065Y-131416679D01*
X143786495Y-131028086D01*
X143291914Y-130533505D01*
X142903321Y-129951935D01*
X142635655Y-129305731D01*
X142499200Y-128619724D01*
X142499200Y-127920276D01*
X142635655Y-127234269D01*
X142903321Y-126588065D01*
X143291914Y-126006495D01*
X143786495Y-125511914D01*
X144368065Y-125123321D01*
X145014269Y-124855655D01*
X145700276Y-124719200D01*
X146399724Y-124719200D01*
X147085731Y-124855655D01*
X147085731Y-124855655D01*
G37*
G36*
X207948584Y-127636233D02*
G01*
X207948587Y-127636234D01*
X207948588Y-127636234D01*
X208118389Y-127687743D01*
X208165861Y-127713117D01*
X208274881Y-127771389D01*
X208412044Y-127883956D01*
X208524611Y-128021119D01*
X208582883Y-128130139D01*
X208608257Y-128177611D01*
X208659766Y-128347412D01*
X208659767Y-128347416D01*
X208677159Y-128524000D01*
X208659767Y-128700584D01*
X208659766Y-128700587D01*
X208659766Y-128700588D01*
X208608257Y-128870389D01*
X208608256Y-128870390D01*
X208524611Y-129026881D01*
X208412044Y-129164044D01*
X208274881Y-129276611D01*
X208165861Y-129334883D01*
X208118389Y-129360257D01*
X207948588Y-129411766D01*
X207948587Y-129411766D01*
X207948584Y-129411767D01*
X207816255Y-129424800D01*
X207727745Y-129424800D01*
X207595416Y-129411767D01*
X207595413Y-129411766D01*
X207595412Y-129411766D01*
X207425611Y-129360257D01*
X207378139Y-129334883D01*
X207269119Y-129276611D01*
X207131956Y-129164044D01*
X207019389Y-129026881D01*
X206935744Y-128870390D01*
X206935743Y-128870389D01*
X206884234Y-128700588D01*
X206884234Y-128700587D01*
X206884233Y-128700584D01*
X206866841Y-128524000D01*
X206884233Y-128347416D01*
X206884234Y-128347412D01*
X206935743Y-128177611D01*
X206961117Y-128130139D01*
X207019389Y-128021119D01*
X207131956Y-127883956D01*
X207269119Y-127771389D01*
X207378139Y-127713117D01*
X207425611Y-127687743D01*
X207595412Y-127636234D01*
X207595413Y-127636234D01*
X207595416Y-127636233D01*
X207727745Y-127623200D01*
X207816255Y-127623200D01*
X207948584Y-127636233D01*
X207948584Y-127636233D01*
G37*
G36*
X176115284Y-125830804D02*
G01*
X176159791Y-125844305D01*
X176200812Y-125866231D01*
X176236764Y-125895736D01*
X176266269Y-125931688D01*
X176288195Y-125972709D01*
X176301696Y-126017216D01*
X176306500Y-126065993D01*
X176306500Y-126737607D01*
X176301696Y-126786384D01*
X176288195Y-126830891D01*
X176266269Y-126871912D01*
X176236764Y-126907864D01*
X176200812Y-126937369D01*
X176159791Y-126959295D01*
X176115284Y-126972796D01*
X176066507Y-126977600D01*
X175494893Y-126977600D01*
X175446116Y-126972796D01*
X175401609Y-126959295D01*
X175360588Y-126937369D01*
X175324636Y-126907864D01*
X175295131Y-126871912D01*
X175273205Y-126830891D01*
X175259704Y-126786384D01*
X175254900Y-126737607D01*
X175254900Y-126065993D01*
X175259704Y-126017216D01*
X175273205Y-125972709D01*
X175295131Y-125931688D01*
X175324636Y-125895736D01*
X175360588Y-125866231D01*
X175401609Y-125844305D01*
X175446116Y-125830804D01*
X175494893Y-125826000D01*
X176066507Y-125826000D01*
X176115284Y-125830804D01*
X176115284Y-125830804D01*
G37*
G36*
X178020284Y-125830804D02*
G01*
X178064791Y-125844305D01*
X178105812Y-125866231D01*
X178141764Y-125895736D01*
X178171269Y-125931688D01*
X178193195Y-125972709D01*
X178206696Y-126017216D01*
X178211500Y-126065993D01*
X178211500Y-126737607D01*
X178206696Y-126786384D01*
X178193195Y-126830891D01*
X178171269Y-126871912D01*
X178141764Y-126907864D01*
X178105812Y-126937369D01*
X178064791Y-126959295D01*
X178020284Y-126972796D01*
X177971507Y-126977600D01*
X177399893Y-126977600D01*
X177351116Y-126972796D01*
X177306609Y-126959295D01*
X177265588Y-126937369D01*
X177229636Y-126907864D01*
X177200131Y-126871912D01*
X177178205Y-126830891D01*
X177164704Y-126786384D01*
X177159900Y-126737607D01*
X177159900Y-126065993D01*
X177164704Y-126017216D01*
X177178205Y-125972709D01*
X177200131Y-125931688D01*
X177229636Y-125895736D01*
X177265588Y-125866231D01*
X177306609Y-125844305D01*
X177351116Y-125830804D01*
X177399893Y-125826000D01*
X177971507Y-125826000D01*
X178020284Y-125830804D01*
X178020284Y-125830804D01*
G37*
G36*
X179925284Y-125816804D02*
G01*
X179969791Y-125830305D01*
X180010812Y-125852231D01*
X180046764Y-125881736D01*
X180076269Y-125917688D01*
X180098195Y-125958709D01*
X180111696Y-126003216D01*
X180116500Y-126051993D01*
X180116500Y-126723607D01*
X180111696Y-126772384D01*
X180098195Y-126816891D01*
X180076269Y-126857912D01*
X180046764Y-126893864D01*
X180010812Y-126923369D01*
X179969791Y-126945295D01*
X179925284Y-126958796D01*
X179876507Y-126963600D01*
X179304893Y-126963600D01*
X179256116Y-126958796D01*
X179211609Y-126945295D01*
X179170588Y-126923369D01*
X179134636Y-126893864D01*
X179105131Y-126857912D01*
X179083205Y-126816891D01*
X179069704Y-126772384D01*
X179064900Y-126723607D01*
X179064900Y-126051993D01*
X179069704Y-126003216D01*
X179083205Y-125958709D01*
X179105131Y-125917688D01*
X179134636Y-125881736D01*
X179170588Y-125852231D01*
X179211609Y-125830305D01*
X179256116Y-125816804D01*
X179304893Y-125812000D01*
X179876507Y-125812000D01*
X179925284Y-125816804D01*
X179925284Y-125816804D01*
G37*
G36*
X208672800Y-126884800D02*
G01*
X206871200Y-126884800D01*
X206871200Y-125083200D01*
X208672800Y-125083200D01*
X208672800Y-126884800D01*
X208672800Y-126884800D01*
G37*
G36*
X194479484Y-125424404D02*
G01*
X194523991Y-125437905D01*
X194565012Y-125459831D01*
X194600964Y-125489336D01*
X194630469Y-125525288D01*
X194652395Y-125566309D01*
X194665896Y-125610816D01*
X194670700Y-125659593D01*
X194670700Y-126331207D01*
X194665896Y-126379984D01*
X194652395Y-126424491D01*
X194630469Y-126465512D01*
X194600964Y-126501464D01*
X194565012Y-126530969D01*
X194523991Y-126552895D01*
X194479484Y-126566396D01*
X194430707Y-126571200D01*
X193859093Y-126571200D01*
X193810316Y-126566396D01*
X193765809Y-126552895D01*
X193724788Y-126530969D01*
X193688836Y-126501464D01*
X193659331Y-126465512D01*
X193637405Y-126424491D01*
X193623904Y-126379984D01*
X193619100Y-126331207D01*
X193619100Y-125659593D01*
X193623904Y-125610816D01*
X193637405Y-125566309D01*
X193659331Y-125525288D01*
X193688836Y-125489336D01*
X193724788Y-125459831D01*
X193765809Y-125437905D01*
X193810316Y-125424404D01*
X193859093Y-125419600D01*
X194430707Y-125419600D01*
X194479484Y-125424404D01*
X194479484Y-125424404D01*
G37*
G36*
X190923484Y-125424404D02*
G01*
X190967991Y-125437905D01*
X191009012Y-125459831D01*
X191044964Y-125489336D01*
X191074469Y-125525288D01*
X191096395Y-125566309D01*
X191109896Y-125610816D01*
X191114700Y-125659593D01*
X191114700Y-126331207D01*
X191109896Y-126379984D01*
X191096395Y-126424491D01*
X191074469Y-126465512D01*
X191044964Y-126501464D01*
X191009012Y-126530969D01*
X190967991Y-126552895D01*
X190923484Y-126566396D01*
X190874707Y-126571200D01*
X190303093Y-126571200D01*
X190254316Y-126566396D01*
X190209809Y-126552895D01*
X190168788Y-126530969D01*
X190132836Y-126501464D01*
X190103331Y-126465512D01*
X190081405Y-126424491D01*
X190067904Y-126379984D01*
X190063100Y-126331207D01*
X190063100Y-125659593D01*
X190067904Y-125610816D01*
X190081405Y-125566309D01*
X190103331Y-125525288D01*
X190132836Y-125489336D01*
X190168788Y-125459831D01*
X190209809Y-125437905D01*
X190254316Y-125424404D01*
X190303093Y-125419600D01*
X190874707Y-125419600D01*
X190923484Y-125424404D01*
X190923484Y-125424404D01*
G37*
G36*
X192701484Y-125424404D02*
G01*
X192745991Y-125437905D01*
X192787012Y-125459831D01*
X192822964Y-125489336D01*
X192852469Y-125525288D01*
X192874395Y-125566309D01*
X192887896Y-125610816D01*
X192892700Y-125659593D01*
X192892700Y-126331207D01*
X192887896Y-126379984D01*
X192874395Y-126424491D01*
X192852469Y-126465512D01*
X192822964Y-126501464D01*
X192787012Y-126530969D01*
X192745991Y-126552895D01*
X192701484Y-126566396D01*
X192652707Y-126571200D01*
X192081093Y-126571200D01*
X192032316Y-126566396D01*
X191987809Y-126552895D01*
X191946788Y-126530969D01*
X191910836Y-126501464D01*
X191881331Y-126465512D01*
X191859405Y-126424491D01*
X191845904Y-126379984D01*
X191841100Y-126331207D01*
X191841100Y-125659593D01*
X191845904Y-125610816D01*
X191859405Y-125566309D01*
X191881331Y-125525288D01*
X191910836Y-125489336D01*
X191946788Y-125459831D01*
X191987809Y-125437905D01*
X192032316Y-125424404D01*
X192081093Y-125419600D01*
X192652707Y-125419600D01*
X192701484Y-125424404D01*
X192701484Y-125424404D01*
G37*
G36*
X161103884Y-125246604D02*
G01*
X161148391Y-125260105D01*
X161189412Y-125282031D01*
X161225364Y-125311536D01*
X161254869Y-125347488D01*
X161276795Y-125388509D01*
X161290296Y-125433016D01*
X161295100Y-125481793D01*
X161295100Y-126153407D01*
X161290296Y-126202184D01*
X161276795Y-126246691D01*
X161254869Y-126287712D01*
X161225364Y-126323664D01*
X161189412Y-126353169D01*
X161148391Y-126375095D01*
X161103884Y-126388596D01*
X161055107Y-126393400D01*
X160483493Y-126393400D01*
X160434716Y-126388596D01*
X160390209Y-126375095D01*
X160349188Y-126353169D01*
X160313236Y-126323664D01*
X160283731Y-126287712D01*
X160261805Y-126246691D01*
X160248304Y-126202184D01*
X160243500Y-126153407D01*
X160243500Y-125481793D01*
X160248304Y-125433016D01*
X160261805Y-125388509D01*
X160283731Y-125347488D01*
X160313236Y-125311536D01*
X160349188Y-125282031D01*
X160390209Y-125260105D01*
X160434716Y-125246604D01*
X160483493Y-125241800D01*
X161055107Y-125241800D01*
X161103884Y-125246604D01*
X161103884Y-125246604D01*
G37*
G36*
X163008884Y-125246604D02*
G01*
X163053391Y-125260105D01*
X163094412Y-125282031D01*
X163130364Y-125311536D01*
X163159869Y-125347488D01*
X163181795Y-125388509D01*
X163195296Y-125433016D01*
X163200100Y-125481793D01*
X163200100Y-126153407D01*
X163195296Y-126202184D01*
X163181795Y-126246691D01*
X163159869Y-126287712D01*
X163130364Y-126323664D01*
X163094412Y-126353169D01*
X163053391Y-126375095D01*
X163008884Y-126388596D01*
X162960107Y-126393400D01*
X162388493Y-126393400D01*
X162339716Y-126388596D01*
X162295209Y-126375095D01*
X162254188Y-126353169D01*
X162218236Y-126323664D01*
X162188731Y-126287712D01*
X162166805Y-126246691D01*
X162153304Y-126202184D01*
X162148500Y-126153407D01*
X162148500Y-125481793D01*
X162153304Y-125433016D01*
X162166805Y-125388509D01*
X162188731Y-125347488D01*
X162218236Y-125311536D01*
X162254188Y-125282031D01*
X162295209Y-125260105D01*
X162339716Y-125246604D01*
X162388493Y-125241800D01*
X162960107Y-125241800D01*
X163008884Y-125246604D01*
X163008884Y-125246604D01*
G37*
G36*
X164913884Y-125232604D02*
G01*
X164958391Y-125246105D01*
X164999412Y-125268031D01*
X165035364Y-125297536D01*
X165064869Y-125333488D01*
X165086795Y-125374509D01*
X165100296Y-125419016D01*
X165105100Y-125467793D01*
X165105100Y-126139407D01*
X165100296Y-126188184D01*
X165086795Y-126232691D01*
X165064869Y-126273712D01*
X165035364Y-126309664D01*
X164999412Y-126339169D01*
X164958391Y-126361095D01*
X164913884Y-126374596D01*
X164865107Y-126379400D01*
X164293493Y-126379400D01*
X164244716Y-126374596D01*
X164200209Y-126361095D01*
X164159188Y-126339169D01*
X164123236Y-126309664D01*
X164093731Y-126273712D01*
X164071805Y-126232691D01*
X164058304Y-126188184D01*
X164053500Y-126139407D01*
X164053500Y-125467793D01*
X164058304Y-125419016D01*
X164071805Y-125374509D01*
X164093731Y-125333488D01*
X164123236Y-125297536D01*
X164159188Y-125268031D01*
X164200209Y-125246105D01*
X164244716Y-125232604D01*
X164293493Y-125227800D01*
X164865107Y-125227800D01*
X164913884Y-125232604D01*
X164913884Y-125232604D01*
G37*
G36*
X178020284Y-124080804D02*
G01*
X178064791Y-124094305D01*
X178105812Y-124116231D01*
X178141764Y-124145736D01*
X178171269Y-124181688D01*
X178193195Y-124222709D01*
X178206696Y-124267216D01*
X178211500Y-124315993D01*
X178211500Y-124987607D01*
X178206696Y-125036384D01*
X178193195Y-125080891D01*
X178171269Y-125121912D01*
X178141764Y-125157864D01*
X178105812Y-125187369D01*
X178064791Y-125209295D01*
X178020284Y-125222796D01*
X177971507Y-125227600D01*
X177399893Y-125227600D01*
X177351116Y-125222796D01*
X177306609Y-125209295D01*
X177265588Y-125187369D01*
X177229636Y-125157864D01*
X177200131Y-125121912D01*
X177178205Y-125080891D01*
X177164704Y-125036384D01*
X177159900Y-124987607D01*
X177159900Y-124315993D01*
X177164704Y-124267216D01*
X177178205Y-124222709D01*
X177200131Y-124181688D01*
X177229636Y-124145736D01*
X177265588Y-124116231D01*
X177306609Y-124094305D01*
X177351116Y-124080804D01*
X177399893Y-124076000D01*
X177971507Y-124076000D01*
X178020284Y-124080804D01*
X178020284Y-124080804D01*
G37*
G36*
X176115284Y-124080804D02*
G01*
X176159791Y-124094305D01*
X176200812Y-124116231D01*
X176236764Y-124145736D01*
X176266269Y-124181688D01*
X176288195Y-124222709D01*
X176301696Y-124267216D01*
X176306500Y-124315993D01*
X176306500Y-124987607D01*
X176301696Y-125036384D01*
X176288195Y-125080891D01*
X176266269Y-125121912D01*
X176236764Y-125157864D01*
X176200812Y-125187369D01*
X176159791Y-125209295D01*
X176115284Y-125222796D01*
X176066507Y-125227600D01*
X175494893Y-125227600D01*
X175446116Y-125222796D01*
X175401609Y-125209295D01*
X175360588Y-125187369D01*
X175324636Y-125157864D01*
X175295131Y-125121912D01*
X175273205Y-125080891D01*
X175259704Y-125036384D01*
X175254900Y-124987607D01*
X175254900Y-124315993D01*
X175259704Y-124267216D01*
X175273205Y-124222709D01*
X175295131Y-124181688D01*
X175324636Y-124145736D01*
X175360588Y-124116231D01*
X175401609Y-124094305D01*
X175446116Y-124080804D01*
X175494893Y-124076000D01*
X176066507Y-124076000D01*
X176115284Y-124080804D01*
X176115284Y-124080804D01*
G37*
G36*
X179925284Y-124066804D02*
G01*
X179969791Y-124080305D01*
X180010812Y-124102231D01*
X180046764Y-124131736D01*
X180076269Y-124167688D01*
X180098195Y-124208709D01*
X180111696Y-124253216D01*
X180116500Y-124301993D01*
X180116500Y-124973607D01*
X180111696Y-125022384D01*
X180098195Y-125066891D01*
X180076269Y-125107912D01*
X180046764Y-125143864D01*
X180010812Y-125173369D01*
X179969791Y-125195295D01*
X179925284Y-125208796D01*
X179876507Y-125213600D01*
X179304893Y-125213600D01*
X179256116Y-125208796D01*
X179211609Y-125195295D01*
X179170588Y-125173369D01*
X179134636Y-125143864D01*
X179105131Y-125107912D01*
X179083205Y-125066891D01*
X179069704Y-125022384D01*
X179064900Y-124973607D01*
X179064900Y-124301993D01*
X179069704Y-124253216D01*
X179083205Y-124208709D01*
X179105131Y-124167688D01*
X179134636Y-124131736D01*
X179170588Y-124102231D01*
X179211609Y-124080305D01*
X179256116Y-124066804D01*
X179304893Y-124062000D01*
X179876507Y-124062000D01*
X179925284Y-124066804D01*
X179925284Y-124066804D01*
G37*
G36*
X194479484Y-123674404D02*
G01*
X194523991Y-123687905D01*
X194565012Y-123709831D01*
X194600964Y-123739336D01*
X194630469Y-123775288D01*
X194652395Y-123816309D01*
X194665896Y-123860816D01*
X194670700Y-123909593D01*
X194670700Y-124581207D01*
X194665896Y-124629984D01*
X194652395Y-124674491D01*
X194630469Y-124715512D01*
X194600964Y-124751464D01*
X194565012Y-124780969D01*
X194523991Y-124802895D01*
X194479484Y-124816396D01*
X194430707Y-124821200D01*
X193859093Y-124821200D01*
X193810316Y-124816396D01*
X193765809Y-124802895D01*
X193724788Y-124780969D01*
X193688836Y-124751464D01*
X193659331Y-124715512D01*
X193637405Y-124674491D01*
X193623904Y-124629984D01*
X193619100Y-124581207D01*
X193619100Y-123909593D01*
X193623904Y-123860816D01*
X193637405Y-123816309D01*
X193659331Y-123775288D01*
X193688836Y-123739336D01*
X193724788Y-123709831D01*
X193765809Y-123687905D01*
X193810316Y-123674404D01*
X193859093Y-123669600D01*
X194430707Y-123669600D01*
X194479484Y-123674404D01*
X194479484Y-123674404D01*
G37*
G36*
X190923484Y-123674404D02*
G01*
X190967991Y-123687905D01*
X191009012Y-123709831D01*
X191044964Y-123739336D01*
X191074469Y-123775288D01*
X191096395Y-123816309D01*
X191109896Y-123860816D01*
X191114700Y-123909593D01*
X191114700Y-124581207D01*
X191109896Y-124629984D01*
X191096395Y-124674491D01*
X191074469Y-124715512D01*
X191044964Y-124751464D01*
X191009012Y-124780969D01*
X190967991Y-124802895D01*
X190923484Y-124816396D01*
X190874707Y-124821200D01*
X190303093Y-124821200D01*
X190254316Y-124816396D01*
X190209809Y-124802895D01*
X190168788Y-124780969D01*
X190132836Y-124751464D01*
X190103331Y-124715512D01*
X190081405Y-124674491D01*
X190067904Y-124629984D01*
X190063100Y-124581207D01*
X190063100Y-123909593D01*
X190067904Y-123860816D01*
X190081405Y-123816309D01*
X190103331Y-123775288D01*
X190132836Y-123739336D01*
X190168788Y-123709831D01*
X190209809Y-123687905D01*
X190254316Y-123674404D01*
X190303093Y-123669600D01*
X190874707Y-123669600D01*
X190923484Y-123674404D01*
X190923484Y-123674404D01*
G37*
G36*
X192701484Y-123674404D02*
G01*
X192745991Y-123687905D01*
X192787012Y-123709831D01*
X192822964Y-123739336D01*
X192852469Y-123775288D01*
X192874395Y-123816309D01*
X192887896Y-123860816D01*
X192892700Y-123909593D01*
X192892700Y-124581207D01*
X192887896Y-124629984D01*
X192874395Y-124674491D01*
X192852469Y-124715512D01*
X192822964Y-124751464D01*
X192787012Y-124780969D01*
X192745991Y-124802895D01*
X192701484Y-124816396D01*
X192652707Y-124821200D01*
X192081093Y-124821200D01*
X192032316Y-124816396D01*
X191987809Y-124802895D01*
X191946788Y-124780969D01*
X191910836Y-124751464D01*
X191881331Y-124715512D01*
X191859405Y-124674491D01*
X191845904Y-124629984D01*
X191841100Y-124581207D01*
X191841100Y-123909593D01*
X191845904Y-123860816D01*
X191859405Y-123816309D01*
X191881331Y-123775288D01*
X191910836Y-123739336D01*
X191946788Y-123709831D01*
X191987809Y-123687905D01*
X192032316Y-123674404D01*
X192081093Y-123669600D01*
X192652707Y-123669600D01*
X192701484Y-123674404D01*
X192701484Y-123674404D01*
G37*
G36*
X163008884Y-123496604D02*
G01*
X163053391Y-123510105D01*
X163094412Y-123532031D01*
X163130364Y-123561536D01*
X163159869Y-123597488D01*
X163181795Y-123638509D01*
X163195296Y-123683016D01*
X163200100Y-123731793D01*
X163200100Y-124403407D01*
X163195296Y-124452184D01*
X163181795Y-124496691D01*
X163159869Y-124537712D01*
X163130364Y-124573664D01*
X163094412Y-124603169D01*
X163053391Y-124625095D01*
X163008884Y-124638596D01*
X162960107Y-124643400D01*
X162388493Y-124643400D01*
X162339716Y-124638596D01*
X162295209Y-124625095D01*
X162254188Y-124603169D01*
X162218236Y-124573664D01*
X162188731Y-124537712D01*
X162166805Y-124496691D01*
X162153304Y-124452184D01*
X162148500Y-124403407D01*
X162148500Y-123731793D01*
X162153304Y-123683016D01*
X162166805Y-123638509D01*
X162188731Y-123597488D01*
X162218236Y-123561536D01*
X162254188Y-123532031D01*
X162295209Y-123510105D01*
X162339716Y-123496604D01*
X162388493Y-123491800D01*
X162960107Y-123491800D01*
X163008884Y-123496604D01*
X163008884Y-123496604D01*
G37*
G36*
X161103884Y-123496604D02*
G01*
X161148391Y-123510105D01*
X161189412Y-123532031D01*
X161225364Y-123561536D01*
X161254869Y-123597488D01*
X161276795Y-123638509D01*
X161290296Y-123683016D01*
X161295100Y-123731793D01*
X161295100Y-124403407D01*
X161290296Y-124452184D01*
X161276795Y-124496691D01*
X161254869Y-124537712D01*
X161225364Y-124573664D01*
X161189412Y-124603169D01*
X161148391Y-124625095D01*
X161103884Y-124638596D01*
X161055107Y-124643400D01*
X160483493Y-124643400D01*
X160434716Y-124638596D01*
X160390209Y-124625095D01*
X160349188Y-124603169D01*
X160313236Y-124573664D01*
X160283731Y-124537712D01*
X160261805Y-124496691D01*
X160248304Y-124452184D01*
X160243500Y-124403407D01*
X160243500Y-123731793D01*
X160248304Y-123683016D01*
X160261805Y-123638509D01*
X160283731Y-123597488D01*
X160313236Y-123561536D01*
X160349188Y-123532031D01*
X160390209Y-123510105D01*
X160434716Y-123496604D01*
X160483493Y-123491800D01*
X161055107Y-123491800D01*
X161103884Y-123496604D01*
X161103884Y-123496604D01*
G37*
G36*
X164913884Y-123482604D02*
G01*
X164958391Y-123496105D01*
X164999412Y-123518031D01*
X165035364Y-123547536D01*
X165064869Y-123583488D01*
X165086795Y-123624509D01*
X165100296Y-123669016D01*
X165105100Y-123717793D01*
X165105100Y-124389407D01*
X165100296Y-124438184D01*
X165086795Y-124482691D01*
X165064869Y-124523712D01*
X165035364Y-124559664D01*
X164999412Y-124589169D01*
X164958391Y-124611095D01*
X164913884Y-124624596D01*
X164865107Y-124629400D01*
X164293493Y-124629400D01*
X164244716Y-124624596D01*
X164200209Y-124611095D01*
X164159188Y-124589169D01*
X164123236Y-124559664D01*
X164093731Y-124523712D01*
X164071805Y-124482691D01*
X164058304Y-124438184D01*
X164053500Y-124389407D01*
X164053500Y-123717793D01*
X164058304Y-123669016D01*
X164071805Y-123624509D01*
X164093731Y-123583488D01*
X164123236Y-123547536D01*
X164159188Y-123518031D01*
X164200209Y-123496105D01*
X164244716Y-123482604D01*
X164293493Y-123477800D01*
X164865107Y-123477800D01*
X164913884Y-123482604D01*
X164913884Y-123482604D01*
G37*
G36*
X199686484Y-123138404D02*
G01*
X199730991Y-123151905D01*
X199772012Y-123173831D01*
X199807964Y-123203336D01*
X199837469Y-123239288D01*
X199859395Y-123280309D01*
X199872896Y-123324816D01*
X199877700Y-123373593D01*
X199877700Y-124045207D01*
X199872896Y-124093984D01*
X199859395Y-124138491D01*
X199837469Y-124179512D01*
X199807964Y-124215464D01*
X199772012Y-124244969D01*
X199730991Y-124266895D01*
X199686484Y-124280396D01*
X199637707Y-124285200D01*
X199066093Y-124285200D01*
X199017316Y-124280396D01*
X198972809Y-124266895D01*
X198931788Y-124244969D01*
X198895836Y-124215464D01*
X198866331Y-124179512D01*
X198844405Y-124138491D01*
X198830904Y-124093984D01*
X198826100Y-124045207D01*
X198826100Y-123373593D01*
X198830904Y-123324816D01*
X198844405Y-123280309D01*
X198866331Y-123239288D01*
X198895836Y-123203336D01*
X198931788Y-123173831D01*
X198972809Y-123151905D01*
X199017316Y-123138404D01*
X199066093Y-123133600D01*
X199637707Y-123133600D01*
X199686484Y-123138404D01*
X199686484Y-123138404D01*
G37*
G36*
X184878284Y-122895804D02*
G01*
X184922791Y-122909305D01*
X184963812Y-122931231D01*
X184999764Y-122960736D01*
X185029269Y-122996688D01*
X185051195Y-123037709D01*
X185064696Y-123082216D01*
X185069500Y-123130993D01*
X185069500Y-123802607D01*
X185064696Y-123851384D01*
X185051195Y-123895891D01*
X185029269Y-123936912D01*
X184999764Y-123972864D01*
X184963812Y-124002369D01*
X184922791Y-124024295D01*
X184878284Y-124037796D01*
X184829507Y-124042600D01*
X184257893Y-124042600D01*
X184209116Y-124037796D01*
X184164609Y-124024295D01*
X184123588Y-124002369D01*
X184087636Y-123972864D01*
X184058131Y-123936912D01*
X184036205Y-123895891D01*
X184022704Y-123851384D01*
X184017900Y-123802607D01*
X184017900Y-123130993D01*
X184022704Y-123082216D01*
X184036205Y-123037709D01*
X184058131Y-122996688D01*
X184087636Y-122960736D01*
X184123588Y-122931231D01*
X184164609Y-122909305D01*
X184209116Y-122895804D01*
X184257893Y-122891000D01*
X184829507Y-122891000D01*
X184878284Y-122895804D01*
X184878284Y-122895804D01*
G37*
G36*
X169993884Y-122706604D02*
G01*
X170038391Y-122720105D01*
X170079412Y-122742031D01*
X170115364Y-122771536D01*
X170144869Y-122807488D01*
X170166795Y-122848509D01*
X170180296Y-122893016D01*
X170185100Y-122941793D01*
X170185100Y-123613407D01*
X170180296Y-123662184D01*
X170166795Y-123706691D01*
X170144869Y-123747712D01*
X170115364Y-123783664D01*
X170079412Y-123813169D01*
X170038391Y-123835095D01*
X169993884Y-123848596D01*
X169945107Y-123853400D01*
X169373493Y-123853400D01*
X169324716Y-123848596D01*
X169280209Y-123835095D01*
X169239188Y-123813169D01*
X169203236Y-123783664D01*
X169173731Y-123747712D01*
X169151805Y-123706691D01*
X169138304Y-123662184D01*
X169133500Y-123613407D01*
X169133500Y-122941793D01*
X169138304Y-122893016D01*
X169151805Y-122848509D01*
X169173731Y-122807488D01*
X169203236Y-122771536D01*
X169239188Y-122742031D01*
X169280209Y-122720105D01*
X169324716Y-122706604D01*
X169373493Y-122701800D01*
X169945107Y-122701800D01*
X169993884Y-122706604D01*
X169993884Y-122706604D01*
G37*
G36*
X192780915Y-120610723D02*
G01*
X192809006Y-120619244D01*
X192834898Y-120633084D01*
X192857592Y-120651708D01*
X192876216Y-120674402D01*
X192890056Y-120700294D01*
X192898577Y-120728385D01*
X192901700Y-120760091D01*
X192901700Y-122506709D01*
X192898577Y-122538415D01*
X192890056Y-122566506D01*
X192876216Y-122592398D01*
X192857592Y-122615092D01*
X192834898Y-122633716D01*
X192809006Y-122647556D01*
X192780915Y-122656077D01*
X192749209Y-122659200D01*
X192352591Y-122659200D01*
X192320885Y-122656077D01*
X192292794Y-122647556D01*
X192266902Y-122633716D01*
X192244208Y-122615092D01*
X192225584Y-122592398D01*
X192211744Y-122566506D01*
X192203223Y-122538415D01*
X192200100Y-122506709D01*
X192200100Y-120760091D01*
X192203223Y-120728385D01*
X192211744Y-120700294D01*
X192225584Y-120674402D01*
X192244208Y-120651708D01*
X192266902Y-120633084D01*
X192292794Y-120619244D01*
X192320885Y-120610723D01*
X192352591Y-120607600D01*
X192749209Y-120607600D01*
X192780915Y-120610723D01*
X192780915Y-120610723D01*
G37*
G36*
X197860915Y-120610723D02*
G01*
X197889006Y-120619244D01*
X197914898Y-120633084D01*
X197937592Y-120651708D01*
X197956216Y-120674402D01*
X197970056Y-120700294D01*
X197978577Y-120728385D01*
X197981700Y-120760091D01*
X197981700Y-122506709D01*
X197978577Y-122538415D01*
X197970056Y-122566506D01*
X197956216Y-122592398D01*
X197937592Y-122615092D01*
X197914898Y-122633716D01*
X197889006Y-122647556D01*
X197860915Y-122656077D01*
X197829209Y-122659200D01*
X197432591Y-122659200D01*
X197400885Y-122656077D01*
X197372794Y-122647556D01*
X197346902Y-122633716D01*
X197324208Y-122615092D01*
X197305584Y-122592398D01*
X197291744Y-122566506D01*
X197283223Y-122538415D01*
X197280100Y-122506709D01*
X197280100Y-120760091D01*
X197283223Y-120728385D01*
X197291744Y-120700294D01*
X197305584Y-120674402D01*
X197324208Y-120651708D01*
X197346902Y-120633084D01*
X197372794Y-120619244D01*
X197400885Y-120610723D01*
X197432591Y-120607600D01*
X197829209Y-120607600D01*
X197860915Y-120610723D01*
X197860915Y-120610723D01*
G37*
G36*
X194050915Y-120610723D02*
G01*
X194079006Y-120619244D01*
X194104898Y-120633084D01*
X194127592Y-120651708D01*
X194146216Y-120674402D01*
X194160056Y-120700294D01*
X194168577Y-120728385D01*
X194171700Y-120760091D01*
X194171700Y-122506709D01*
X194168577Y-122538415D01*
X194160056Y-122566506D01*
X194146216Y-122592398D01*
X194127592Y-122615092D01*
X194104898Y-122633716D01*
X194079006Y-122647556D01*
X194050915Y-122656077D01*
X194019209Y-122659200D01*
X193622591Y-122659200D01*
X193590885Y-122656077D01*
X193562794Y-122647556D01*
X193536902Y-122633716D01*
X193514208Y-122615092D01*
X193495584Y-122592398D01*
X193481744Y-122566506D01*
X193473223Y-122538415D01*
X193470100Y-122506709D01*
X193470100Y-120760091D01*
X193473223Y-120728385D01*
X193481744Y-120700294D01*
X193495584Y-120674402D01*
X193514208Y-120651708D01*
X193536902Y-120633084D01*
X193562794Y-120619244D01*
X193590885Y-120610723D01*
X193622591Y-120607600D01*
X194019209Y-120607600D01*
X194050915Y-120610723D01*
X194050915Y-120610723D01*
G37*
G36*
X195320915Y-120610723D02*
G01*
X195349006Y-120619244D01*
X195374898Y-120633084D01*
X195397592Y-120651708D01*
X195416216Y-120674402D01*
X195430056Y-120700294D01*
X195438577Y-120728385D01*
X195441700Y-120760091D01*
X195441700Y-122506709D01*
X195438577Y-122538415D01*
X195430056Y-122566506D01*
X195416216Y-122592398D01*
X195397592Y-122615092D01*
X195374898Y-122633716D01*
X195349006Y-122647556D01*
X195320915Y-122656077D01*
X195289209Y-122659200D01*
X194892591Y-122659200D01*
X194860885Y-122656077D01*
X194832794Y-122647556D01*
X194806902Y-122633716D01*
X194784208Y-122615092D01*
X194765584Y-122592398D01*
X194751744Y-122566506D01*
X194743223Y-122538415D01*
X194740100Y-122506709D01*
X194740100Y-120760091D01*
X194743223Y-120728385D01*
X194751744Y-120700294D01*
X194765584Y-120674402D01*
X194784208Y-120651708D01*
X194806902Y-120633084D01*
X194832794Y-120619244D01*
X194860885Y-120610723D01*
X194892591Y-120607600D01*
X195289209Y-120607600D01*
X195320915Y-120610723D01*
X195320915Y-120610723D01*
G37*
G36*
X191510915Y-120610723D02*
G01*
X191539006Y-120619244D01*
X191564898Y-120633084D01*
X191587592Y-120651708D01*
X191606216Y-120674402D01*
X191620056Y-120700294D01*
X191628577Y-120728385D01*
X191631700Y-120760091D01*
X191631700Y-122506709D01*
X191628577Y-122538415D01*
X191620056Y-122566506D01*
X191606216Y-122592398D01*
X191587592Y-122615092D01*
X191564898Y-122633716D01*
X191539006Y-122647556D01*
X191510915Y-122656077D01*
X191479209Y-122659200D01*
X191082591Y-122659200D01*
X191050885Y-122656077D01*
X191022794Y-122647556D01*
X190996902Y-122633716D01*
X190974208Y-122615092D01*
X190955584Y-122592398D01*
X190941744Y-122566506D01*
X190933223Y-122538415D01*
X190930100Y-122506709D01*
X190930100Y-120760091D01*
X190933223Y-120728385D01*
X190941744Y-120700294D01*
X190955584Y-120674402D01*
X190974208Y-120651708D01*
X190996902Y-120633084D01*
X191022794Y-120619244D01*
X191050885Y-120610723D01*
X191082591Y-120607600D01*
X191479209Y-120607600D01*
X191510915Y-120610723D01*
X191510915Y-120610723D01*
G37*
G36*
X190240915Y-120610723D02*
G01*
X190269006Y-120619244D01*
X190294898Y-120633084D01*
X190317592Y-120651708D01*
X190336216Y-120674402D01*
X190350056Y-120700294D01*
X190358577Y-120728385D01*
X190361700Y-120760091D01*
X190361700Y-122506709D01*
X190358577Y-122538415D01*
X190350056Y-122566506D01*
X190336216Y-122592398D01*
X190317592Y-122615092D01*
X190294898Y-122633716D01*
X190269006Y-122647556D01*
X190240915Y-122656077D01*
X190209209Y-122659200D01*
X189812591Y-122659200D01*
X189780885Y-122656077D01*
X189752794Y-122647556D01*
X189726902Y-122633716D01*
X189704208Y-122615092D01*
X189685584Y-122592398D01*
X189671744Y-122566506D01*
X189663223Y-122538415D01*
X189660100Y-122506709D01*
X189660100Y-120760091D01*
X189663223Y-120728385D01*
X189671744Y-120700294D01*
X189685584Y-120674402D01*
X189704208Y-120651708D01*
X189726902Y-120633084D01*
X189752794Y-120619244D01*
X189780885Y-120610723D01*
X189812591Y-120607600D01*
X190209209Y-120607600D01*
X190240915Y-120610723D01*
X190240915Y-120610723D01*
G37*
G36*
X196590915Y-120610723D02*
G01*
X196619006Y-120619244D01*
X196644898Y-120633084D01*
X196667592Y-120651708D01*
X196686216Y-120674402D01*
X196700056Y-120700294D01*
X196708577Y-120728385D01*
X196711700Y-120760091D01*
X196711700Y-122506709D01*
X196708577Y-122538415D01*
X196700056Y-122566506D01*
X196686216Y-122592398D01*
X196667592Y-122615092D01*
X196644898Y-122633716D01*
X196619006Y-122647556D01*
X196590915Y-122656077D01*
X196559209Y-122659200D01*
X196162591Y-122659200D01*
X196130885Y-122656077D01*
X196102794Y-122647556D01*
X196076902Y-122633716D01*
X196054208Y-122615092D01*
X196035584Y-122592398D01*
X196021744Y-122566506D01*
X196013223Y-122538415D01*
X196010100Y-122506709D01*
X196010100Y-120760091D01*
X196013223Y-120728385D01*
X196021744Y-120700294D01*
X196035584Y-120674402D01*
X196054208Y-120651708D01*
X196076902Y-120633084D01*
X196102794Y-120619244D01*
X196130885Y-120610723D01*
X196162591Y-120607600D01*
X196559209Y-120607600D01*
X196590915Y-120610723D01*
X196590915Y-120610723D01*
G37*
G36*
X199686484Y-121388404D02*
G01*
X199730991Y-121401905D01*
X199772012Y-121423831D01*
X199807964Y-121453336D01*
X199837469Y-121489288D01*
X199859395Y-121530309D01*
X199872896Y-121574816D01*
X199877700Y-121623593D01*
X199877700Y-122295207D01*
X199872896Y-122343984D01*
X199859395Y-122388491D01*
X199837469Y-122429512D01*
X199807964Y-122465464D01*
X199772012Y-122494969D01*
X199730991Y-122516895D01*
X199686484Y-122530396D01*
X199637707Y-122535200D01*
X199066093Y-122535200D01*
X199017316Y-122530396D01*
X198972809Y-122516895D01*
X198931788Y-122494969D01*
X198895836Y-122465464D01*
X198866331Y-122429512D01*
X198844405Y-122388491D01*
X198830904Y-122343984D01*
X198826100Y-122295207D01*
X198826100Y-121623593D01*
X198830904Y-121574816D01*
X198844405Y-121530309D01*
X198866331Y-121489288D01*
X198895836Y-121453336D01*
X198931788Y-121423831D01*
X198972809Y-121401905D01*
X199017316Y-121388404D01*
X199066093Y-121383600D01*
X199637707Y-121383600D01*
X199686484Y-121388404D01*
X199686484Y-121388404D01*
G37*
G36*
X182995715Y-120375123D02*
G01*
X183023806Y-120383644D01*
X183049698Y-120397484D01*
X183072392Y-120416108D01*
X183091016Y-120438802D01*
X183104856Y-120464694D01*
X183113377Y-120492785D01*
X183116500Y-120524491D01*
X183116500Y-122271109D01*
X183113377Y-122302815D01*
X183104856Y-122330906D01*
X183091016Y-122356798D01*
X183072392Y-122379492D01*
X183049698Y-122398116D01*
X183023806Y-122411956D01*
X182995715Y-122420477D01*
X182964009Y-122423600D01*
X182567391Y-122423600D01*
X182535685Y-122420477D01*
X182507594Y-122411956D01*
X182481702Y-122398116D01*
X182459008Y-122379492D01*
X182440384Y-122356798D01*
X182426544Y-122330906D01*
X182418023Y-122302815D01*
X182414900Y-122271109D01*
X182414900Y-120524491D01*
X182418023Y-120492785D01*
X182426544Y-120464694D01*
X182440384Y-120438802D01*
X182459008Y-120416108D01*
X182481702Y-120397484D01*
X182507594Y-120383644D01*
X182535685Y-120375123D01*
X182567391Y-120372000D01*
X182964009Y-120372000D01*
X182995715Y-120375123D01*
X182995715Y-120375123D01*
G37*
G36*
X181725715Y-120375123D02*
G01*
X181753806Y-120383644D01*
X181779698Y-120397484D01*
X181802392Y-120416108D01*
X181821016Y-120438802D01*
X181834856Y-120464694D01*
X181843377Y-120492785D01*
X181846500Y-120524491D01*
X181846500Y-122271109D01*
X181843377Y-122302815D01*
X181834856Y-122330906D01*
X181821016Y-122356798D01*
X181802392Y-122379492D01*
X181779698Y-122398116D01*
X181753806Y-122411956D01*
X181725715Y-122420477D01*
X181694009Y-122423600D01*
X181297391Y-122423600D01*
X181265685Y-122420477D01*
X181237594Y-122411956D01*
X181211702Y-122398116D01*
X181189008Y-122379492D01*
X181170384Y-122356798D01*
X181156544Y-122330906D01*
X181148023Y-122302815D01*
X181144900Y-122271109D01*
X181144900Y-120524491D01*
X181148023Y-120492785D01*
X181156544Y-120464694D01*
X181170384Y-120438802D01*
X181189008Y-120416108D01*
X181211702Y-120397484D01*
X181237594Y-120383644D01*
X181265685Y-120375123D01*
X181297391Y-120372000D01*
X181694009Y-120372000D01*
X181725715Y-120375123D01*
X181725715Y-120375123D01*
G37*
G36*
X179185715Y-120375123D02*
G01*
X179213806Y-120383644D01*
X179239698Y-120397484D01*
X179262392Y-120416108D01*
X179281016Y-120438802D01*
X179294856Y-120464694D01*
X179303377Y-120492785D01*
X179306500Y-120524491D01*
X179306500Y-122271109D01*
X179303377Y-122302815D01*
X179294856Y-122330906D01*
X179281016Y-122356798D01*
X179262392Y-122379492D01*
X179239698Y-122398116D01*
X179213806Y-122411956D01*
X179185715Y-122420477D01*
X179154009Y-122423600D01*
X178757391Y-122423600D01*
X178725685Y-122420477D01*
X178697594Y-122411956D01*
X178671702Y-122398116D01*
X178649008Y-122379492D01*
X178630384Y-122356798D01*
X178616544Y-122330906D01*
X178608023Y-122302815D01*
X178604900Y-122271109D01*
X178604900Y-120524491D01*
X178608023Y-120492785D01*
X178616544Y-120464694D01*
X178630384Y-120438802D01*
X178649008Y-120416108D01*
X178671702Y-120397484D01*
X178697594Y-120383644D01*
X178725685Y-120375123D01*
X178757391Y-120372000D01*
X179154009Y-120372000D01*
X179185715Y-120375123D01*
X179185715Y-120375123D01*
G37*
G36*
X177915715Y-120375123D02*
G01*
X177943806Y-120383644D01*
X177969698Y-120397484D01*
X177992392Y-120416108D01*
X178011016Y-120438802D01*
X178024856Y-120464694D01*
X178033377Y-120492785D01*
X178036500Y-120524491D01*
X178036500Y-122271109D01*
X178033377Y-122302815D01*
X178024856Y-122330906D01*
X178011016Y-122356798D01*
X177992392Y-122379492D01*
X177969698Y-122398116D01*
X177943806Y-122411956D01*
X177915715Y-122420477D01*
X177884009Y-122423600D01*
X177487391Y-122423600D01*
X177455685Y-122420477D01*
X177427594Y-122411956D01*
X177401702Y-122398116D01*
X177379008Y-122379492D01*
X177360384Y-122356798D01*
X177346544Y-122330906D01*
X177338023Y-122302815D01*
X177334900Y-122271109D01*
X177334900Y-120524491D01*
X177338023Y-120492785D01*
X177346544Y-120464694D01*
X177360384Y-120438802D01*
X177379008Y-120416108D01*
X177401702Y-120397484D01*
X177427594Y-120383644D01*
X177455685Y-120375123D01*
X177487391Y-120372000D01*
X177884009Y-120372000D01*
X177915715Y-120375123D01*
X177915715Y-120375123D01*
G37*
G36*
X180455715Y-120375123D02*
G01*
X180483806Y-120383644D01*
X180509698Y-120397484D01*
X180532392Y-120416108D01*
X180551016Y-120438802D01*
X180564856Y-120464694D01*
X180573377Y-120492785D01*
X180576500Y-120524491D01*
X180576500Y-122271109D01*
X180573377Y-122302815D01*
X180564856Y-122330906D01*
X180551016Y-122356798D01*
X180532392Y-122379492D01*
X180509698Y-122398116D01*
X180483806Y-122411956D01*
X180455715Y-122420477D01*
X180424009Y-122423600D01*
X180027391Y-122423600D01*
X179995685Y-122420477D01*
X179967594Y-122411956D01*
X179941702Y-122398116D01*
X179919008Y-122379492D01*
X179900384Y-122356798D01*
X179886544Y-122330906D01*
X179878023Y-122302815D01*
X179874900Y-122271109D01*
X179874900Y-120524491D01*
X179878023Y-120492785D01*
X179886544Y-120464694D01*
X179900384Y-120438802D01*
X179919008Y-120416108D01*
X179941702Y-120397484D01*
X179967594Y-120383644D01*
X179995685Y-120375123D01*
X180027391Y-120372000D01*
X180424009Y-120372000D01*
X180455715Y-120375123D01*
X180455715Y-120375123D01*
G37*
G36*
X176645715Y-120375123D02*
G01*
X176673806Y-120383644D01*
X176699698Y-120397484D01*
X176722392Y-120416108D01*
X176741016Y-120438802D01*
X176754856Y-120464694D01*
X176763377Y-120492785D01*
X176766500Y-120524491D01*
X176766500Y-122271109D01*
X176763377Y-122302815D01*
X176754856Y-122330906D01*
X176741016Y-122356798D01*
X176722392Y-122379492D01*
X176699698Y-122398116D01*
X176673806Y-122411956D01*
X176645715Y-122420477D01*
X176614009Y-122423600D01*
X176217391Y-122423600D01*
X176185685Y-122420477D01*
X176157594Y-122411956D01*
X176131702Y-122398116D01*
X176109008Y-122379492D01*
X176090384Y-122356798D01*
X176076544Y-122330906D01*
X176068023Y-122302815D01*
X176064900Y-122271109D01*
X176064900Y-120524491D01*
X176068023Y-120492785D01*
X176076544Y-120464694D01*
X176090384Y-120438802D01*
X176109008Y-120416108D01*
X176131702Y-120397484D01*
X176157594Y-120383644D01*
X176185685Y-120375123D01*
X176217391Y-120372000D01*
X176614009Y-120372000D01*
X176645715Y-120375123D01*
X176645715Y-120375123D01*
G37*
G36*
X175375715Y-120375123D02*
G01*
X175403806Y-120383644D01*
X175429698Y-120397484D01*
X175452392Y-120416108D01*
X175471016Y-120438802D01*
X175484856Y-120464694D01*
X175493377Y-120492785D01*
X175496500Y-120524491D01*
X175496500Y-122271109D01*
X175493377Y-122302815D01*
X175484856Y-122330906D01*
X175471016Y-122356798D01*
X175452392Y-122379492D01*
X175429698Y-122398116D01*
X175403806Y-122411956D01*
X175375715Y-122420477D01*
X175344009Y-122423600D01*
X174947391Y-122423600D01*
X174915685Y-122420477D01*
X174887594Y-122411956D01*
X174861702Y-122398116D01*
X174839008Y-122379492D01*
X174820384Y-122356798D01*
X174806544Y-122330906D01*
X174798023Y-122302815D01*
X174794900Y-122271109D01*
X174794900Y-120524491D01*
X174798023Y-120492785D01*
X174806544Y-120464694D01*
X174820384Y-120438802D01*
X174839008Y-120416108D01*
X174861702Y-120397484D01*
X174887594Y-120383644D01*
X174915685Y-120375123D01*
X174947391Y-120372000D01*
X175344009Y-120372000D01*
X175375715Y-120375123D01*
X175375715Y-120375123D01*
G37*
G36*
X165501315Y-120348923D02*
G01*
X165529406Y-120357444D01*
X165555298Y-120371284D01*
X165577992Y-120389908D01*
X165596616Y-120412602D01*
X165610456Y-120438494D01*
X165618977Y-120466585D01*
X165622100Y-120498291D01*
X165622100Y-122244909D01*
X165618977Y-122276615D01*
X165610456Y-122304706D01*
X165596616Y-122330598D01*
X165577992Y-122353292D01*
X165555298Y-122371916D01*
X165529406Y-122385756D01*
X165501315Y-122394277D01*
X165469609Y-122397400D01*
X165072991Y-122397400D01*
X165041285Y-122394277D01*
X165013194Y-122385756D01*
X164987302Y-122371916D01*
X164964608Y-122353292D01*
X164945984Y-122330598D01*
X164932144Y-122304706D01*
X164923623Y-122276615D01*
X164920500Y-122244909D01*
X164920500Y-120498291D01*
X164923623Y-120466585D01*
X164932144Y-120438494D01*
X164945984Y-120412602D01*
X164964608Y-120389908D01*
X164987302Y-120371284D01*
X165013194Y-120357444D01*
X165041285Y-120348923D01*
X165072991Y-120345800D01*
X165469609Y-120345800D01*
X165501315Y-120348923D01*
X165501315Y-120348923D01*
G37*
G36*
X162961315Y-120348923D02*
G01*
X162989406Y-120357444D01*
X163015298Y-120371284D01*
X163037992Y-120389908D01*
X163056616Y-120412602D01*
X163070456Y-120438494D01*
X163078977Y-120466585D01*
X163082100Y-120498291D01*
X163082100Y-122244909D01*
X163078977Y-122276615D01*
X163070456Y-122304706D01*
X163056616Y-122330598D01*
X163037992Y-122353292D01*
X163015298Y-122371916D01*
X162989406Y-122385756D01*
X162961315Y-122394277D01*
X162929609Y-122397400D01*
X162532991Y-122397400D01*
X162501285Y-122394277D01*
X162473194Y-122385756D01*
X162447302Y-122371916D01*
X162424608Y-122353292D01*
X162405984Y-122330598D01*
X162392144Y-122304706D01*
X162383623Y-122276615D01*
X162380500Y-122244909D01*
X162380500Y-120498291D01*
X162383623Y-120466585D01*
X162392144Y-120438494D01*
X162405984Y-120412602D01*
X162424608Y-120389908D01*
X162447302Y-120371284D01*
X162473194Y-120357444D01*
X162501285Y-120348923D01*
X162532991Y-120345800D01*
X162929609Y-120345800D01*
X162961315Y-120348923D01*
X162961315Y-120348923D01*
G37*
G36*
X164231315Y-120348923D02*
G01*
X164259406Y-120357444D01*
X164285298Y-120371284D01*
X164307992Y-120389908D01*
X164326616Y-120412602D01*
X164340456Y-120438494D01*
X164348977Y-120466585D01*
X164352100Y-120498291D01*
X164352100Y-122244909D01*
X164348977Y-122276615D01*
X164340456Y-122304706D01*
X164326616Y-122330598D01*
X164307992Y-122353292D01*
X164285298Y-122371916D01*
X164259406Y-122385756D01*
X164231315Y-122394277D01*
X164199609Y-122397400D01*
X163802991Y-122397400D01*
X163771285Y-122394277D01*
X163743194Y-122385756D01*
X163717302Y-122371916D01*
X163694608Y-122353292D01*
X163675984Y-122330598D01*
X163662144Y-122304706D01*
X163653623Y-122276615D01*
X163650500Y-122244909D01*
X163650500Y-120498291D01*
X163653623Y-120466585D01*
X163662144Y-120438494D01*
X163675984Y-120412602D01*
X163694608Y-120389908D01*
X163717302Y-120371284D01*
X163743194Y-120357444D01*
X163771285Y-120348923D01*
X163802991Y-120345800D01*
X164199609Y-120345800D01*
X164231315Y-120348923D01*
X164231315Y-120348923D01*
G37*
G36*
X166771315Y-120348923D02*
G01*
X166799406Y-120357444D01*
X166825298Y-120371284D01*
X166847992Y-120389908D01*
X166866616Y-120412602D01*
X166880456Y-120438494D01*
X166888977Y-120466585D01*
X166892100Y-120498291D01*
X166892100Y-122244909D01*
X166888977Y-122276615D01*
X166880456Y-122304706D01*
X166866616Y-122330598D01*
X166847992Y-122353292D01*
X166825298Y-122371916D01*
X166799406Y-122385756D01*
X166771315Y-122394277D01*
X166739609Y-122397400D01*
X166342991Y-122397400D01*
X166311285Y-122394277D01*
X166283194Y-122385756D01*
X166257302Y-122371916D01*
X166234608Y-122353292D01*
X166215984Y-122330598D01*
X166202144Y-122304706D01*
X166193623Y-122276615D01*
X166190500Y-122244909D01*
X166190500Y-120498291D01*
X166193623Y-120466585D01*
X166202144Y-120438494D01*
X166215984Y-120412602D01*
X166234608Y-120389908D01*
X166257302Y-120371284D01*
X166283194Y-120357444D01*
X166311285Y-120348923D01*
X166342991Y-120345800D01*
X166739609Y-120345800D01*
X166771315Y-120348923D01*
X166771315Y-120348923D01*
G37*
G36*
X168041315Y-120348923D02*
G01*
X168069406Y-120357444D01*
X168095298Y-120371284D01*
X168117992Y-120389908D01*
X168136616Y-120412602D01*
X168150456Y-120438494D01*
X168158977Y-120466585D01*
X168162100Y-120498291D01*
X168162100Y-122244909D01*
X168158977Y-122276615D01*
X168150456Y-122304706D01*
X168136616Y-122330598D01*
X168117992Y-122353292D01*
X168095298Y-122371916D01*
X168069406Y-122385756D01*
X168041315Y-122394277D01*
X168009609Y-122397400D01*
X167612991Y-122397400D01*
X167581285Y-122394277D01*
X167553194Y-122385756D01*
X167527302Y-122371916D01*
X167504608Y-122353292D01*
X167485984Y-122330598D01*
X167472144Y-122304706D01*
X167463623Y-122276615D01*
X167460500Y-122244909D01*
X167460500Y-120498291D01*
X167463623Y-120466585D01*
X167472144Y-120438494D01*
X167485984Y-120412602D01*
X167504608Y-120389908D01*
X167527302Y-120371284D01*
X167553194Y-120357444D01*
X167581285Y-120348923D01*
X167612991Y-120345800D01*
X168009609Y-120345800D01*
X168041315Y-120348923D01*
X168041315Y-120348923D01*
G37*
G36*
X161691315Y-120348923D02*
G01*
X161719406Y-120357444D01*
X161745298Y-120371284D01*
X161767992Y-120389908D01*
X161786616Y-120412602D01*
X161800456Y-120438494D01*
X161808977Y-120466585D01*
X161812100Y-120498291D01*
X161812100Y-122244909D01*
X161808977Y-122276615D01*
X161800456Y-122304706D01*
X161786616Y-122330598D01*
X161767992Y-122353292D01*
X161745298Y-122371916D01*
X161719406Y-122385756D01*
X161691315Y-122394277D01*
X161659609Y-122397400D01*
X161262991Y-122397400D01*
X161231285Y-122394277D01*
X161203194Y-122385756D01*
X161177302Y-122371916D01*
X161154608Y-122353292D01*
X161135984Y-122330598D01*
X161122144Y-122304706D01*
X161113623Y-122276615D01*
X161110500Y-122244909D01*
X161110500Y-120498291D01*
X161113623Y-120466585D01*
X161122144Y-120438494D01*
X161135984Y-120412602D01*
X161154608Y-120389908D01*
X161177302Y-120371284D01*
X161203194Y-120357444D01*
X161231285Y-120348923D01*
X161262991Y-120345800D01*
X161659609Y-120345800D01*
X161691315Y-120348923D01*
X161691315Y-120348923D01*
G37*
G36*
X160421315Y-120348923D02*
G01*
X160449406Y-120357444D01*
X160475298Y-120371284D01*
X160497992Y-120389908D01*
X160516616Y-120412602D01*
X160530456Y-120438494D01*
X160538977Y-120466585D01*
X160542100Y-120498291D01*
X160542100Y-122244909D01*
X160538977Y-122276615D01*
X160530456Y-122304706D01*
X160516616Y-122330598D01*
X160497992Y-122353292D01*
X160475298Y-122371916D01*
X160449406Y-122385756D01*
X160421315Y-122394277D01*
X160389609Y-122397400D01*
X159992991Y-122397400D01*
X159961285Y-122394277D01*
X159933194Y-122385756D01*
X159907302Y-122371916D01*
X159884608Y-122353292D01*
X159865984Y-122330598D01*
X159852144Y-122304706D01*
X159843623Y-122276615D01*
X159840500Y-122244909D01*
X159840500Y-120498291D01*
X159843623Y-120466585D01*
X159852144Y-120438494D01*
X159865984Y-120412602D01*
X159884608Y-120389908D01*
X159907302Y-120371284D01*
X159933194Y-120357444D01*
X159961285Y-120348923D01*
X159992991Y-120345800D01*
X160389609Y-120345800D01*
X160421315Y-120348923D01*
X160421315Y-120348923D01*
G37*
G36*
X184878284Y-121145804D02*
G01*
X184922791Y-121159305D01*
X184963812Y-121181231D01*
X184999764Y-121210736D01*
X185029269Y-121246688D01*
X185051195Y-121287709D01*
X185064696Y-121332216D01*
X185069500Y-121380993D01*
X185069500Y-122052607D01*
X185064696Y-122101384D01*
X185051195Y-122145891D01*
X185029269Y-122186912D01*
X184999764Y-122222864D01*
X184963812Y-122252369D01*
X184922791Y-122274295D01*
X184878284Y-122287796D01*
X184829507Y-122292600D01*
X184257893Y-122292600D01*
X184209116Y-122287796D01*
X184164609Y-122274295D01*
X184123588Y-122252369D01*
X184087636Y-122222864D01*
X184058131Y-122186912D01*
X184036205Y-122145891D01*
X184022704Y-122101384D01*
X184017900Y-122052607D01*
X184017900Y-121380993D01*
X184022704Y-121332216D01*
X184036205Y-121287709D01*
X184058131Y-121246688D01*
X184087636Y-121210736D01*
X184123588Y-121181231D01*
X184164609Y-121159305D01*
X184209116Y-121145804D01*
X184257893Y-121141000D01*
X184829507Y-121141000D01*
X184878284Y-121145804D01*
X184878284Y-121145804D01*
G37*
G36*
X169993884Y-120956604D02*
G01*
X170038391Y-120970105D01*
X170079412Y-120992031D01*
X170115364Y-121021536D01*
X170144869Y-121057488D01*
X170166795Y-121098509D01*
X170180296Y-121143016D01*
X170185100Y-121191793D01*
X170185100Y-121863407D01*
X170180296Y-121912184D01*
X170166795Y-121956691D01*
X170144869Y-121997712D01*
X170115364Y-122033664D01*
X170079412Y-122063169D01*
X170038391Y-122085095D01*
X169993884Y-122098596D01*
X169945107Y-122103400D01*
X169373493Y-122103400D01*
X169324716Y-122098596D01*
X169280209Y-122085095D01*
X169239188Y-122063169D01*
X169203236Y-122033664D01*
X169173731Y-121997712D01*
X169151805Y-121956691D01*
X169138304Y-121912184D01*
X169133500Y-121863407D01*
X169133500Y-121191793D01*
X169138304Y-121143016D01*
X169151805Y-121098509D01*
X169173731Y-121057488D01*
X169203236Y-121021536D01*
X169239188Y-120992031D01*
X169280209Y-120970105D01*
X169324716Y-120956604D01*
X169373493Y-120951800D01*
X169945107Y-120951800D01*
X169993884Y-120956604D01*
X169993884Y-120956604D01*
G37*
G36*
X214447352Y-117888796D02*
G01*
X214729579Y-118005699D01*
X214983578Y-118175415D01*
X215199585Y-118391422D01*
X215369301Y-118645421D01*
X215486204Y-118927648D01*
X215545800Y-119227259D01*
X215545800Y-119532741D01*
X215486204Y-119832352D01*
X215369301Y-120114579D01*
X215199585Y-120368578D01*
X214983578Y-120584585D01*
X214729579Y-120754301D01*
X214447352Y-120871204D01*
X214147741Y-120930800D01*
X213842259Y-120930800D01*
X213542648Y-120871204D01*
X213260421Y-120754301D01*
X213006422Y-120584585D01*
X212790415Y-120368578D01*
X212620699Y-120114579D01*
X212503796Y-119832352D01*
X212444200Y-119532741D01*
X212444200Y-119227259D01*
X212503796Y-118927648D01*
X212620699Y-118645421D01*
X212790415Y-118391422D01*
X213006422Y-118175415D01*
X213260421Y-118005699D01*
X213542648Y-117888796D01*
X213842259Y-117829200D01*
X214147741Y-117829200D01*
X214447352Y-117888796D01*
X214447352Y-117888796D01*
G37*
G36*
X188802584Y-119709404D02*
G01*
X188847091Y-119722905D01*
X188888112Y-119744831D01*
X188924064Y-119774336D01*
X188953569Y-119810288D01*
X188975495Y-119851309D01*
X188988996Y-119895816D01*
X188993800Y-119944593D01*
X188993800Y-120616207D01*
X188988996Y-120664984D01*
X188975495Y-120709491D01*
X188953569Y-120750512D01*
X188924064Y-120786464D01*
X188888112Y-120815969D01*
X188847091Y-120837895D01*
X188802584Y-120851396D01*
X188753807Y-120856200D01*
X188182193Y-120856200D01*
X188133416Y-120851396D01*
X188088909Y-120837895D01*
X188047888Y-120815969D01*
X188011936Y-120786464D01*
X187982431Y-120750512D01*
X187960505Y-120709491D01*
X187947004Y-120664984D01*
X187942200Y-120616207D01*
X187942200Y-119944593D01*
X187947004Y-119895816D01*
X187960505Y-119851309D01*
X187982431Y-119810288D01*
X188011936Y-119774336D01*
X188047888Y-119744831D01*
X188088909Y-119722905D01*
X188133416Y-119709404D01*
X188182193Y-119704600D01*
X188753807Y-119704600D01*
X188802584Y-119709404D01*
X188802584Y-119709404D01*
G37*
G36*
X199686484Y-119582404D02*
G01*
X199730991Y-119595905D01*
X199772012Y-119617831D01*
X199807964Y-119647336D01*
X199837469Y-119683288D01*
X199859395Y-119724309D01*
X199872896Y-119768816D01*
X199877700Y-119817593D01*
X199877700Y-120489207D01*
X199872896Y-120537984D01*
X199859395Y-120582491D01*
X199837469Y-120623512D01*
X199807964Y-120659464D01*
X199772012Y-120688969D01*
X199730991Y-120710895D01*
X199686484Y-120724396D01*
X199637707Y-120729200D01*
X199066093Y-120729200D01*
X199017316Y-120724396D01*
X198972809Y-120710895D01*
X198931788Y-120688969D01*
X198895836Y-120659464D01*
X198866331Y-120623512D01*
X198844405Y-120582491D01*
X198830904Y-120537984D01*
X198826100Y-120489207D01*
X198826100Y-119817593D01*
X198830904Y-119768816D01*
X198844405Y-119724309D01*
X198866331Y-119683288D01*
X198895836Y-119647336D01*
X198931788Y-119617831D01*
X198972809Y-119595905D01*
X199017316Y-119582404D01*
X199066093Y-119577600D01*
X199637707Y-119577600D01*
X199686484Y-119582404D01*
X199686484Y-119582404D01*
G37*
G36*
X184878284Y-119367804D02*
G01*
X184922791Y-119381305D01*
X184963812Y-119403231D01*
X184999764Y-119432736D01*
X185029269Y-119468688D01*
X185051195Y-119509709D01*
X185064696Y-119554216D01*
X185069500Y-119602993D01*
X185069500Y-120274607D01*
X185064696Y-120323384D01*
X185051195Y-120367891D01*
X185029269Y-120408912D01*
X184999764Y-120444864D01*
X184963812Y-120474369D01*
X184922791Y-120496295D01*
X184878284Y-120509796D01*
X184829507Y-120514600D01*
X184257893Y-120514600D01*
X184209116Y-120509796D01*
X184164609Y-120496295D01*
X184123588Y-120474369D01*
X184087636Y-120444864D01*
X184058131Y-120408912D01*
X184036205Y-120367891D01*
X184022704Y-120323384D01*
X184017900Y-120274607D01*
X184017900Y-119602993D01*
X184022704Y-119554216D01*
X184036205Y-119509709D01*
X184058131Y-119468688D01*
X184087636Y-119432736D01*
X184123588Y-119403231D01*
X184164609Y-119381305D01*
X184209116Y-119367804D01*
X184257893Y-119363000D01*
X184829507Y-119363000D01*
X184878284Y-119367804D01*
X184878284Y-119367804D01*
G37*
G36*
X158309884Y-119277604D02*
G01*
X158354391Y-119291105D01*
X158395412Y-119313031D01*
X158431364Y-119342536D01*
X158460869Y-119378488D01*
X158482795Y-119419509D01*
X158496296Y-119464016D01*
X158501100Y-119512793D01*
X158501100Y-120184407D01*
X158496296Y-120233184D01*
X158482795Y-120277691D01*
X158460869Y-120318712D01*
X158431364Y-120354664D01*
X158395412Y-120384169D01*
X158354391Y-120406095D01*
X158309884Y-120419596D01*
X158261107Y-120424400D01*
X157689493Y-120424400D01*
X157640716Y-120419596D01*
X157596209Y-120406095D01*
X157555188Y-120384169D01*
X157519236Y-120354664D01*
X157489731Y-120318712D01*
X157467805Y-120277691D01*
X157454304Y-120233184D01*
X157449500Y-120184407D01*
X157449500Y-119512793D01*
X157454304Y-119464016D01*
X157467805Y-119419509D01*
X157489731Y-119378488D01*
X157519236Y-119342536D01*
X157555188Y-119313031D01*
X157596209Y-119291105D01*
X157640716Y-119277604D01*
X157689493Y-119272800D01*
X158261107Y-119272800D01*
X158309884Y-119277604D01*
X158309884Y-119277604D01*
G37*
G36*
X173194284Y-119212804D02*
G01*
X173238791Y-119226305D01*
X173279812Y-119248231D01*
X173315764Y-119277736D01*
X173345269Y-119313688D01*
X173367195Y-119354709D01*
X173380696Y-119399216D01*
X173385500Y-119447993D01*
X173385500Y-120119607D01*
X173380696Y-120168384D01*
X173367195Y-120212891D01*
X173345269Y-120253912D01*
X173315764Y-120289864D01*
X173279812Y-120319369D01*
X173238791Y-120341295D01*
X173194284Y-120354796D01*
X173145507Y-120359600D01*
X172573893Y-120359600D01*
X172525116Y-120354796D01*
X172480609Y-120341295D01*
X172439588Y-120319369D01*
X172403636Y-120289864D01*
X172374131Y-120253912D01*
X172352205Y-120212891D01*
X172338704Y-120168384D01*
X172333900Y-120119607D01*
X172333900Y-119447993D01*
X172338704Y-119399216D01*
X172352205Y-119354709D01*
X172374131Y-119313688D01*
X172403636Y-119277736D01*
X172439588Y-119248231D01*
X172480609Y-119226305D01*
X172525116Y-119212804D01*
X172573893Y-119208000D01*
X173145507Y-119208000D01*
X173194284Y-119212804D01*
X173194284Y-119212804D01*
G37*
G36*
X169993884Y-119150604D02*
G01*
X170038391Y-119164105D01*
X170079412Y-119186031D01*
X170115364Y-119215536D01*
X170144869Y-119251488D01*
X170166795Y-119292509D01*
X170180296Y-119337016D01*
X170185100Y-119385793D01*
X170185100Y-120057407D01*
X170180296Y-120106184D01*
X170166795Y-120150691D01*
X170144869Y-120191712D01*
X170115364Y-120227664D01*
X170079412Y-120257169D01*
X170038391Y-120279095D01*
X169993884Y-120292596D01*
X169945107Y-120297400D01*
X169373493Y-120297400D01*
X169324716Y-120292596D01*
X169280209Y-120279095D01*
X169239188Y-120257169D01*
X169203236Y-120227664D01*
X169173731Y-120191712D01*
X169151805Y-120150691D01*
X169138304Y-120106184D01*
X169133500Y-120057407D01*
X169133500Y-119385793D01*
X169138304Y-119337016D01*
X169151805Y-119292509D01*
X169173731Y-119251488D01*
X169203236Y-119215536D01*
X169239188Y-119186031D01*
X169280209Y-119164105D01*
X169324716Y-119150604D01*
X169373493Y-119145800D01*
X169945107Y-119145800D01*
X169993884Y-119150604D01*
X169993884Y-119150604D01*
G37*
G36*
X188802584Y-117959404D02*
G01*
X188847091Y-117972905D01*
X188888112Y-117994831D01*
X188924064Y-118024336D01*
X188953569Y-118060288D01*
X188975495Y-118101309D01*
X188988996Y-118145816D01*
X188993800Y-118194593D01*
X188993800Y-118866207D01*
X188988996Y-118914984D01*
X188975495Y-118959491D01*
X188953569Y-119000512D01*
X188924064Y-119036464D01*
X188888112Y-119065969D01*
X188847091Y-119087895D01*
X188802584Y-119101396D01*
X188753807Y-119106200D01*
X188182193Y-119106200D01*
X188133416Y-119101396D01*
X188088909Y-119087895D01*
X188047888Y-119065969D01*
X188011936Y-119036464D01*
X187982431Y-119000512D01*
X187960505Y-118959491D01*
X187947004Y-118914984D01*
X187942200Y-118866207D01*
X187942200Y-118194593D01*
X187947004Y-118145816D01*
X187960505Y-118101309D01*
X187982431Y-118060288D01*
X188011936Y-118024336D01*
X188047888Y-117994831D01*
X188088909Y-117972905D01*
X188133416Y-117959404D01*
X188182193Y-117954600D01*
X188753807Y-117954600D01*
X188802584Y-117959404D01*
X188802584Y-117959404D01*
G37*
G36*
X199686484Y-117832404D02*
G01*
X199730991Y-117845905D01*
X199772012Y-117867831D01*
X199807964Y-117897336D01*
X199837469Y-117933288D01*
X199859395Y-117974309D01*
X199872896Y-118018816D01*
X199877700Y-118067593D01*
X199877700Y-118739207D01*
X199872896Y-118787984D01*
X199859395Y-118832491D01*
X199837469Y-118873512D01*
X199807964Y-118909464D01*
X199772012Y-118938969D01*
X199730991Y-118960895D01*
X199686484Y-118974396D01*
X199637707Y-118979200D01*
X199066093Y-118979200D01*
X199017316Y-118974396D01*
X198972809Y-118960895D01*
X198931788Y-118938969D01*
X198895836Y-118909464D01*
X198866331Y-118873512D01*
X198844405Y-118832491D01*
X198830904Y-118787984D01*
X198826100Y-118739207D01*
X198826100Y-118067593D01*
X198830904Y-118018816D01*
X198844405Y-117974309D01*
X198866331Y-117933288D01*
X198895836Y-117897336D01*
X198931788Y-117867831D01*
X198972809Y-117845905D01*
X199017316Y-117832404D01*
X199066093Y-117827600D01*
X199637707Y-117827600D01*
X199686484Y-117832404D01*
X199686484Y-117832404D01*
G37*
G36*
X184878284Y-117617804D02*
G01*
X184922791Y-117631305D01*
X184963812Y-117653231D01*
X184999764Y-117682736D01*
X185029269Y-117718688D01*
X185051195Y-117759709D01*
X185064696Y-117804216D01*
X185069500Y-117852993D01*
X185069500Y-118524607D01*
X185064696Y-118573384D01*
X185051195Y-118617891D01*
X185029269Y-118658912D01*
X184999764Y-118694864D01*
X184963812Y-118724369D01*
X184922791Y-118746295D01*
X184878284Y-118759796D01*
X184829507Y-118764600D01*
X184257893Y-118764600D01*
X184209116Y-118759796D01*
X184164609Y-118746295D01*
X184123588Y-118724369D01*
X184087636Y-118694864D01*
X184058131Y-118658912D01*
X184036205Y-118617891D01*
X184022704Y-118573384D01*
X184017900Y-118524607D01*
X184017900Y-117852993D01*
X184022704Y-117804216D01*
X184036205Y-117759709D01*
X184058131Y-117718688D01*
X184087636Y-117682736D01*
X184123588Y-117653231D01*
X184164609Y-117631305D01*
X184209116Y-117617804D01*
X184257893Y-117613000D01*
X184829507Y-117613000D01*
X184878284Y-117617804D01*
X184878284Y-117617804D01*
G37*
G36*
X158309884Y-117527604D02*
G01*
X158354391Y-117541105D01*
X158395412Y-117563031D01*
X158431364Y-117592536D01*
X158460869Y-117628488D01*
X158482795Y-117669509D01*
X158496296Y-117714016D01*
X158501100Y-117762793D01*
X158501100Y-118434407D01*
X158496296Y-118483184D01*
X158482795Y-118527691D01*
X158460869Y-118568712D01*
X158431364Y-118604664D01*
X158395412Y-118634169D01*
X158354391Y-118656095D01*
X158309884Y-118669596D01*
X158261107Y-118674400D01*
X157689493Y-118674400D01*
X157640716Y-118669596D01*
X157596209Y-118656095D01*
X157555188Y-118634169D01*
X157519236Y-118604664D01*
X157489731Y-118568712D01*
X157467805Y-118527691D01*
X157454304Y-118483184D01*
X157449500Y-118434407D01*
X157449500Y-117762793D01*
X157454304Y-117714016D01*
X157467805Y-117669509D01*
X157489731Y-117628488D01*
X157519236Y-117592536D01*
X157555188Y-117563031D01*
X157596209Y-117541105D01*
X157640716Y-117527604D01*
X157689493Y-117522800D01*
X158261107Y-117522800D01*
X158309884Y-117527604D01*
X158309884Y-117527604D01*
G37*
G36*
X173194284Y-117462804D02*
G01*
X173238791Y-117476305D01*
X173279812Y-117498231D01*
X173315764Y-117527736D01*
X173345269Y-117563688D01*
X173367195Y-117604709D01*
X173380696Y-117649216D01*
X173385500Y-117697993D01*
X173385500Y-118369607D01*
X173380696Y-118418384D01*
X173367195Y-118462891D01*
X173345269Y-118503912D01*
X173315764Y-118539864D01*
X173279812Y-118569369D01*
X173238791Y-118591295D01*
X173194284Y-118604796D01*
X173145507Y-118609600D01*
X172573893Y-118609600D01*
X172525116Y-118604796D01*
X172480609Y-118591295D01*
X172439588Y-118569369D01*
X172403636Y-118539864D01*
X172374131Y-118503912D01*
X172352205Y-118462891D01*
X172338704Y-118418384D01*
X172333900Y-118369607D01*
X172333900Y-117697993D01*
X172338704Y-117649216D01*
X172352205Y-117604709D01*
X172374131Y-117563688D01*
X172403636Y-117527736D01*
X172439588Y-117498231D01*
X172480609Y-117476305D01*
X172525116Y-117462804D01*
X172573893Y-117458000D01*
X173145507Y-117458000D01*
X173194284Y-117462804D01*
X173194284Y-117462804D01*
G37*
G36*
X169993884Y-117400604D02*
G01*
X170038391Y-117414105D01*
X170079412Y-117436031D01*
X170115364Y-117465536D01*
X170144869Y-117501488D01*
X170166795Y-117542509D01*
X170180296Y-117587016D01*
X170185100Y-117635793D01*
X170185100Y-118307407D01*
X170180296Y-118356184D01*
X170166795Y-118400691D01*
X170144869Y-118441712D01*
X170115364Y-118477664D01*
X170079412Y-118507169D01*
X170038391Y-118529095D01*
X169993884Y-118542596D01*
X169945107Y-118547400D01*
X169373493Y-118547400D01*
X169324716Y-118542596D01*
X169280209Y-118529095D01*
X169239188Y-118507169D01*
X169203236Y-118477664D01*
X169173731Y-118441712D01*
X169151805Y-118400691D01*
X169138304Y-118356184D01*
X169133500Y-118307407D01*
X169133500Y-117635793D01*
X169138304Y-117587016D01*
X169151805Y-117542509D01*
X169173731Y-117501488D01*
X169203236Y-117465536D01*
X169239188Y-117436031D01*
X169280209Y-117414105D01*
X169324716Y-117400604D01*
X169373493Y-117395800D01*
X169945107Y-117395800D01*
X169993884Y-117400604D01*
X169993884Y-117400604D01*
G37*
G36*
X210900584Y-117031004D02*
G01*
X210945091Y-117044505D01*
X210986112Y-117066431D01*
X211022064Y-117095936D01*
X211051569Y-117131888D01*
X211073495Y-117172909D01*
X211086996Y-117217416D01*
X211091800Y-117266193D01*
X211091800Y-117937807D01*
X211086996Y-117986584D01*
X211073495Y-118031091D01*
X211051569Y-118072112D01*
X211022064Y-118108064D01*
X210986112Y-118137569D01*
X210945091Y-118159495D01*
X210900584Y-118172996D01*
X210851807Y-118177800D01*
X210280193Y-118177800D01*
X210231416Y-118172996D01*
X210186909Y-118159495D01*
X210145888Y-118137569D01*
X210109936Y-118108064D01*
X210080431Y-118072112D01*
X210058505Y-118031091D01*
X210045004Y-117986584D01*
X210040200Y-117937807D01*
X210040200Y-117266193D01*
X210045004Y-117217416D01*
X210058505Y-117172909D01*
X210080431Y-117131888D01*
X210109936Y-117095936D01*
X210145888Y-117066431D01*
X210186909Y-117044505D01*
X210231416Y-117031004D01*
X210280193Y-117026200D01*
X210851807Y-117026200D01*
X210900584Y-117031004D01*
X210900584Y-117031004D01*
G37*
G36*
X192780915Y-115660723D02*
G01*
X192809006Y-115669244D01*
X192834898Y-115683084D01*
X192857592Y-115701708D01*
X192876216Y-115724402D01*
X192890056Y-115750294D01*
X192898577Y-115778385D01*
X192901700Y-115810091D01*
X192901700Y-117556709D01*
X192898577Y-117588415D01*
X192890056Y-117616506D01*
X192876216Y-117642398D01*
X192857592Y-117665092D01*
X192834898Y-117683716D01*
X192809006Y-117697556D01*
X192780915Y-117706077D01*
X192749209Y-117709200D01*
X192352591Y-117709200D01*
X192320885Y-117706077D01*
X192292794Y-117697556D01*
X192266902Y-117683716D01*
X192244208Y-117665092D01*
X192225584Y-117642398D01*
X192211744Y-117616506D01*
X192203223Y-117588415D01*
X192200100Y-117556709D01*
X192200100Y-115810091D01*
X192203223Y-115778385D01*
X192211744Y-115750294D01*
X192225584Y-115724402D01*
X192244208Y-115701708D01*
X192266902Y-115683084D01*
X192292794Y-115669244D01*
X192320885Y-115660723D01*
X192352591Y-115657600D01*
X192749209Y-115657600D01*
X192780915Y-115660723D01*
X192780915Y-115660723D01*
G37*
G36*
X191510915Y-115660723D02*
G01*
X191539006Y-115669244D01*
X191564898Y-115683084D01*
X191587592Y-115701708D01*
X191606216Y-115724402D01*
X191620056Y-115750294D01*
X191628577Y-115778385D01*
X191631700Y-115810091D01*
X191631700Y-117556709D01*
X191628577Y-117588415D01*
X191620056Y-117616506D01*
X191606216Y-117642398D01*
X191587592Y-117665092D01*
X191564898Y-117683716D01*
X191539006Y-117697556D01*
X191510915Y-117706077D01*
X191479209Y-117709200D01*
X191082591Y-117709200D01*
X191050885Y-117706077D01*
X191022794Y-117697556D01*
X190996902Y-117683716D01*
X190974208Y-117665092D01*
X190955584Y-117642398D01*
X190941744Y-117616506D01*
X190933223Y-117588415D01*
X190930100Y-117556709D01*
X190930100Y-115810091D01*
X190933223Y-115778385D01*
X190941744Y-115750294D01*
X190955584Y-115724402D01*
X190974208Y-115701708D01*
X190996902Y-115683084D01*
X191022794Y-115669244D01*
X191050885Y-115660723D01*
X191082591Y-115657600D01*
X191479209Y-115657600D01*
X191510915Y-115660723D01*
X191510915Y-115660723D01*
G37*
G36*
X194050915Y-115660723D02*
G01*
X194079006Y-115669244D01*
X194104898Y-115683084D01*
X194127592Y-115701708D01*
X194146216Y-115724402D01*
X194160056Y-115750294D01*
X194168577Y-115778385D01*
X194171700Y-115810091D01*
X194171700Y-117556709D01*
X194168577Y-117588415D01*
X194160056Y-117616506D01*
X194146216Y-117642398D01*
X194127592Y-117665092D01*
X194104898Y-117683716D01*
X194079006Y-117697556D01*
X194050915Y-117706077D01*
X194019209Y-117709200D01*
X193622591Y-117709200D01*
X193590885Y-117706077D01*
X193562794Y-117697556D01*
X193536902Y-117683716D01*
X193514208Y-117665092D01*
X193495584Y-117642398D01*
X193481744Y-117616506D01*
X193473223Y-117588415D01*
X193470100Y-117556709D01*
X193470100Y-115810091D01*
X193473223Y-115778385D01*
X193481744Y-115750294D01*
X193495584Y-115724402D01*
X193514208Y-115701708D01*
X193536902Y-115683084D01*
X193562794Y-115669244D01*
X193590885Y-115660723D01*
X193622591Y-115657600D01*
X194019209Y-115657600D01*
X194050915Y-115660723D01*
X194050915Y-115660723D01*
G37*
G36*
X190240915Y-115660723D02*
G01*
X190269006Y-115669244D01*
X190294898Y-115683084D01*
X190317592Y-115701708D01*
X190336216Y-115724402D01*
X190350056Y-115750294D01*
X190358577Y-115778385D01*
X190361700Y-115810091D01*
X190361700Y-117556709D01*
X190358577Y-117588415D01*
X190350056Y-117616506D01*
X190336216Y-117642398D01*
X190317592Y-117665092D01*
X190294898Y-117683716D01*
X190269006Y-117697556D01*
X190240915Y-117706077D01*
X190209209Y-117709200D01*
X189812591Y-117709200D01*
X189780885Y-117706077D01*
X189752794Y-117697556D01*
X189726902Y-117683716D01*
X189704208Y-117665092D01*
X189685584Y-117642398D01*
X189671744Y-117616506D01*
X189663223Y-117588415D01*
X189660100Y-117556709D01*
X189660100Y-115810091D01*
X189663223Y-115778385D01*
X189671744Y-115750294D01*
X189685584Y-115724402D01*
X189704208Y-115701708D01*
X189726902Y-115683084D01*
X189752794Y-115669244D01*
X189780885Y-115660723D01*
X189812591Y-115657600D01*
X190209209Y-115657600D01*
X190240915Y-115660723D01*
X190240915Y-115660723D01*
G37*
G36*
X196590915Y-115660723D02*
G01*
X196619006Y-115669244D01*
X196644898Y-115683084D01*
X196667592Y-115701708D01*
X196686216Y-115724402D01*
X196700056Y-115750294D01*
X196708577Y-115778385D01*
X196711700Y-115810091D01*
X196711700Y-117556709D01*
X196708577Y-117588415D01*
X196700056Y-117616506D01*
X196686216Y-117642398D01*
X196667592Y-117665092D01*
X196644898Y-117683716D01*
X196619006Y-117697556D01*
X196590915Y-117706077D01*
X196559209Y-117709200D01*
X196162591Y-117709200D01*
X196130885Y-117706077D01*
X196102794Y-117697556D01*
X196076902Y-117683716D01*
X196054208Y-117665092D01*
X196035584Y-117642398D01*
X196021744Y-117616506D01*
X196013223Y-117588415D01*
X196010100Y-117556709D01*
X196010100Y-115810091D01*
X196013223Y-115778385D01*
X196021744Y-115750294D01*
X196035584Y-115724402D01*
X196054208Y-115701708D01*
X196076902Y-115683084D01*
X196102794Y-115669244D01*
X196130885Y-115660723D01*
X196162591Y-115657600D01*
X196559209Y-115657600D01*
X196590915Y-115660723D01*
X196590915Y-115660723D01*
G37*
G36*
X195320915Y-115660723D02*
G01*
X195349006Y-115669244D01*
X195374898Y-115683084D01*
X195397592Y-115701708D01*
X195416216Y-115724402D01*
X195430056Y-115750294D01*
X195438577Y-115778385D01*
X195441700Y-115810091D01*
X195441700Y-117556709D01*
X195438577Y-117588415D01*
X195430056Y-117616506D01*
X195416216Y-117642398D01*
X195397592Y-117665092D01*
X195374898Y-117683716D01*
X195349006Y-117697556D01*
X195320915Y-117706077D01*
X195289209Y-117709200D01*
X194892591Y-117709200D01*
X194860885Y-117706077D01*
X194832794Y-117697556D01*
X194806902Y-117683716D01*
X194784208Y-117665092D01*
X194765584Y-117642398D01*
X194751744Y-117616506D01*
X194743223Y-117588415D01*
X194740100Y-117556709D01*
X194740100Y-115810091D01*
X194743223Y-115778385D01*
X194751744Y-115750294D01*
X194765584Y-115724402D01*
X194784208Y-115701708D01*
X194806902Y-115683084D01*
X194832794Y-115669244D01*
X194860885Y-115660723D01*
X194892591Y-115657600D01*
X195289209Y-115657600D01*
X195320915Y-115660723D01*
X195320915Y-115660723D01*
G37*
G36*
X197860915Y-115660723D02*
G01*
X197889006Y-115669244D01*
X197914898Y-115683084D01*
X197937592Y-115701708D01*
X197956216Y-115724402D01*
X197970056Y-115750294D01*
X197978577Y-115778385D01*
X197981700Y-115810091D01*
X197981700Y-117556709D01*
X197978577Y-117588415D01*
X197970056Y-117616506D01*
X197956216Y-117642398D01*
X197937592Y-117665092D01*
X197914898Y-117683716D01*
X197889006Y-117697556D01*
X197860915Y-117706077D01*
X197829209Y-117709200D01*
X197432591Y-117709200D01*
X197400885Y-117706077D01*
X197372794Y-117697556D01*
X197346902Y-117683716D01*
X197324208Y-117665092D01*
X197305584Y-117642398D01*
X197291744Y-117616506D01*
X197283223Y-117588415D01*
X197280100Y-117556709D01*
X197280100Y-115810091D01*
X197283223Y-115778385D01*
X197291744Y-115750294D01*
X197305584Y-115724402D01*
X197324208Y-115701708D01*
X197346902Y-115683084D01*
X197372794Y-115669244D01*
X197400885Y-115660723D01*
X197432591Y-115657600D01*
X197829209Y-115657600D01*
X197860915Y-115660723D01*
X197860915Y-115660723D01*
G37*
G36*
X182995715Y-115425123D02*
G01*
X183023806Y-115433644D01*
X183049698Y-115447484D01*
X183072392Y-115466108D01*
X183091016Y-115488802D01*
X183104856Y-115514694D01*
X183113377Y-115542785D01*
X183116500Y-115574491D01*
X183116500Y-117321109D01*
X183113377Y-117352815D01*
X183104856Y-117380906D01*
X183091016Y-117406798D01*
X183072392Y-117429492D01*
X183049698Y-117448116D01*
X183023806Y-117461956D01*
X182995715Y-117470477D01*
X182964009Y-117473600D01*
X182567391Y-117473600D01*
X182535685Y-117470477D01*
X182507594Y-117461956D01*
X182481702Y-117448116D01*
X182459008Y-117429492D01*
X182440384Y-117406798D01*
X182426544Y-117380906D01*
X182418023Y-117352815D01*
X182414900Y-117321109D01*
X182414900Y-115574491D01*
X182418023Y-115542785D01*
X182426544Y-115514694D01*
X182440384Y-115488802D01*
X182459008Y-115466108D01*
X182481702Y-115447484D01*
X182507594Y-115433644D01*
X182535685Y-115425123D01*
X182567391Y-115422000D01*
X182964009Y-115422000D01*
X182995715Y-115425123D01*
X182995715Y-115425123D01*
G37*
G36*
X181725715Y-115425123D02*
G01*
X181753806Y-115433644D01*
X181779698Y-115447484D01*
X181802392Y-115466108D01*
X181821016Y-115488802D01*
X181834856Y-115514694D01*
X181843377Y-115542785D01*
X181846500Y-115574491D01*
X181846500Y-117321109D01*
X181843377Y-117352815D01*
X181834856Y-117380906D01*
X181821016Y-117406798D01*
X181802392Y-117429492D01*
X181779698Y-117448116D01*
X181753806Y-117461956D01*
X181725715Y-117470477D01*
X181694009Y-117473600D01*
X181297391Y-117473600D01*
X181265685Y-117470477D01*
X181237594Y-117461956D01*
X181211702Y-117448116D01*
X181189008Y-117429492D01*
X181170384Y-117406798D01*
X181156544Y-117380906D01*
X181148023Y-117352815D01*
X181144900Y-117321109D01*
X181144900Y-115574491D01*
X181148023Y-115542785D01*
X181156544Y-115514694D01*
X181170384Y-115488802D01*
X181189008Y-115466108D01*
X181211702Y-115447484D01*
X181237594Y-115433644D01*
X181265685Y-115425123D01*
X181297391Y-115422000D01*
X181694009Y-115422000D01*
X181725715Y-115425123D01*
X181725715Y-115425123D01*
G37*
G36*
X176645715Y-115425123D02*
G01*
X176673806Y-115433644D01*
X176699698Y-115447484D01*
X176722392Y-115466108D01*
X176741016Y-115488802D01*
X176754856Y-115514694D01*
X176763377Y-115542785D01*
X176766500Y-115574491D01*
X176766500Y-117321109D01*
X176763377Y-117352815D01*
X176754856Y-117380906D01*
X176741016Y-117406798D01*
X176722392Y-117429492D01*
X176699698Y-117448116D01*
X176673806Y-117461956D01*
X176645715Y-117470477D01*
X176614009Y-117473600D01*
X176217391Y-117473600D01*
X176185685Y-117470477D01*
X176157594Y-117461956D01*
X176131702Y-117448116D01*
X176109008Y-117429492D01*
X176090384Y-117406798D01*
X176076544Y-117380906D01*
X176068023Y-117352815D01*
X176064900Y-117321109D01*
X176064900Y-115574491D01*
X176068023Y-115542785D01*
X176076544Y-115514694D01*
X176090384Y-115488802D01*
X176109008Y-115466108D01*
X176131702Y-115447484D01*
X176157594Y-115433644D01*
X176185685Y-115425123D01*
X176217391Y-115422000D01*
X176614009Y-115422000D01*
X176645715Y-115425123D01*
X176645715Y-115425123D01*
G37*
G36*
X180455715Y-115425123D02*
G01*
X180483806Y-115433644D01*
X180509698Y-115447484D01*
X180532392Y-115466108D01*
X180551016Y-115488802D01*
X180564856Y-115514694D01*
X180573377Y-115542785D01*
X180576500Y-115574491D01*
X180576500Y-117321109D01*
X180573377Y-117352815D01*
X180564856Y-117380906D01*
X180551016Y-117406798D01*
X180532392Y-117429492D01*
X180509698Y-117448116D01*
X180483806Y-117461956D01*
X180455715Y-117470477D01*
X180424009Y-117473600D01*
X180027391Y-117473600D01*
X179995685Y-117470477D01*
X179967594Y-117461956D01*
X179941702Y-117448116D01*
X179919008Y-117429492D01*
X179900384Y-117406798D01*
X179886544Y-117380906D01*
X179878023Y-117352815D01*
X179874900Y-117321109D01*
X179874900Y-115574491D01*
X179878023Y-115542785D01*
X179886544Y-115514694D01*
X179900384Y-115488802D01*
X179919008Y-115466108D01*
X179941702Y-115447484D01*
X179967594Y-115433644D01*
X179995685Y-115425123D01*
X180027391Y-115422000D01*
X180424009Y-115422000D01*
X180455715Y-115425123D01*
X180455715Y-115425123D01*
G37*
G36*
X175375715Y-115425123D02*
G01*
X175403806Y-115433644D01*
X175429698Y-115447484D01*
X175452392Y-115466108D01*
X175471016Y-115488802D01*
X175484856Y-115514694D01*
X175493377Y-115542785D01*
X175496500Y-115574491D01*
X175496500Y-117321109D01*
X175493377Y-117352815D01*
X175484856Y-117380906D01*
X175471016Y-117406798D01*
X175452392Y-117429492D01*
X175429698Y-117448116D01*
X175403806Y-117461956D01*
X175375715Y-117470477D01*
X175344009Y-117473600D01*
X174947391Y-117473600D01*
X174915685Y-117470477D01*
X174887594Y-117461956D01*
X174861702Y-117448116D01*
X174839008Y-117429492D01*
X174820384Y-117406798D01*
X174806544Y-117380906D01*
X174798023Y-117352815D01*
X174794900Y-117321109D01*
X174794900Y-115574491D01*
X174798023Y-115542785D01*
X174806544Y-115514694D01*
X174820384Y-115488802D01*
X174839008Y-115466108D01*
X174861702Y-115447484D01*
X174887594Y-115433644D01*
X174915685Y-115425123D01*
X174947391Y-115422000D01*
X175344009Y-115422000D01*
X175375715Y-115425123D01*
X175375715Y-115425123D01*
G37*
G36*
X177915715Y-115425123D02*
G01*
X177943806Y-115433644D01*
X177969698Y-115447484D01*
X177992392Y-115466108D01*
X178011016Y-115488802D01*
X178024856Y-115514694D01*
X178033377Y-115542785D01*
X178036500Y-115574491D01*
X178036500Y-117321109D01*
X178033377Y-117352815D01*
X178024856Y-117380906D01*
X178011016Y-117406798D01*
X177992392Y-117429492D01*
X177969698Y-117448116D01*
X177943806Y-117461956D01*
X177915715Y-117470477D01*
X177884009Y-117473600D01*
X177487391Y-117473600D01*
X177455685Y-117470477D01*
X177427594Y-117461956D01*
X177401702Y-117448116D01*
X177379008Y-117429492D01*
X177360384Y-117406798D01*
X177346544Y-117380906D01*
X177338023Y-117352815D01*
X177334900Y-117321109D01*
X177334900Y-115574491D01*
X177338023Y-115542785D01*
X177346544Y-115514694D01*
X177360384Y-115488802D01*
X177379008Y-115466108D01*
X177401702Y-115447484D01*
X177427594Y-115433644D01*
X177455685Y-115425123D01*
X177487391Y-115422000D01*
X177884009Y-115422000D01*
X177915715Y-115425123D01*
X177915715Y-115425123D01*
G37*
G36*
X179185715Y-115425123D02*
G01*
X179213806Y-115433644D01*
X179239698Y-115447484D01*
X179262392Y-115466108D01*
X179281016Y-115488802D01*
X179294856Y-115514694D01*
X179303377Y-115542785D01*
X179306500Y-115574491D01*
X179306500Y-117321109D01*
X179303377Y-117352815D01*
X179294856Y-117380906D01*
X179281016Y-117406798D01*
X179262392Y-117429492D01*
X179239698Y-117448116D01*
X179213806Y-117461956D01*
X179185715Y-117470477D01*
X179154009Y-117473600D01*
X178757391Y-117473600D01*
X178725685Y-117470477D01*
X178697594Y-117461956D01*
X178671702Y-117448116D01*
X178649008Y-117429492D01*
X178630384Y-117406798D01*
X178616544Y-117380906D01*
X178608023Y-117352815D01*
X178604900Y-117321109D01*
X178604900Y-115574491D01*
X178608023Y-115542785D01*
X178616544Y-115514694D01*
X178630384Y-115488802D01*
X178649008Y-115466108D01*
X178671702Y-115447484D01*
X178697594Y-115433644D01*
X178725685Y-115425123D01*
X178757391Y-115422000D01*
X179154009Y-115422000D01*
X179185715Y-115425123D01*
X179185715Y-115425123D01*
G37*
G36*
X166771315Y-115398923D02*
G01*
X166799406Y-115407444D01*
X166825298Y-115421284D01*
X166847992Y-115439908D01*
X166866616Y-115462602D01*
X166880456Y-115488494D01*
X166888977Y-115516585D01*
X166892100Y-115548291D01*
X166892100Y-117294909D01*
X166888977Y-117326615D01*
X166880456Y-117354706D01*
X166866616Y-117380598D01*
X166847992Y-117403292D01*
X166825298Y-117421916D01*
X166799406Y-117435756D01*
X166771315Y-117444277D01*
X166739609Y-117447400D01*
X166342991Y-117447400D01*
X166311285Y-117444277D01*
X166283194Y-117435756D01*
X166257302Y-117421916D01*
X166234608Y-117403292D01*
X166215984Y-117380598D01*
X166202144Y-117354706D01*
X166193623Y-117326615D01*
X166190500Y-117294909D01*
X166190500Y-115548291D01*
X166193623Y-115516585D01*
X166202144Y-115488494D01*
X166215984Y-115462602D01*
X166234608Y-115439908D01*
X166257302Y-115421284D01*
X166283194Y-115407444D01*
X166311285Y-115398923D01*
X166342991Y-115395800D01*
X166739609Y-115395800D01*
X166771315Y-115398923D01*
X166771315Y-115398923D01*
G37*
G36*
X168041315Y-115398923D02*
G01*
X168069406Y-115407444D01*
X168095298Y-115421284D01*
X168117992Y-115439908D01*
X168136616Y-115462602D01*
X168150456Y-115488494D01*
X168158977Y-115516585D01*
X168162100Y-115548291D01*
X168162100Y-117294909D01*
X168158977Y-117326615D01*
X168150456Y-117354706D01*
X168136616Y-117380598D01*
X168117992Y-117403292D01*
X168095298Y-117421916D01*
X168069406Y-117435756D01*
X168041315Y-117444277D01*
X168009609Y-117447400D01*
X167612991Y-117447400D01*
X167581285Y-117444277D01*
X167553194Y-117435756D01*
X167527302Y-117421916D01*
X167504608Y-117403292D01*
X167485984Y-117380598D01*
X167472144Y-117354706D01*
X167463623Y-117326615D01*
X167460500Y-117294909D01*
X167460500Y-115548291D01*
X167463623Y-115516585D01*
X167472144Y-115488494D01*
X167485984Y-115462602D01*
X167504608Y-115439908D01*
X167527302Y-115421284D01*
X167553194Y-115407444D01*
X167581285Y-115398923D01*
X167612991Y-115395800D01*
X168009609Y-115395800D01*
X168041315Y-115398923D01*
X168041315Y-115398923D01*
G37*
G36*
X160421315Y-115398923D02*
G01*
X160449406Y-115407444D01*
X160475298Y-115421284D01*
X160497992Y-115439908D01*
X160516616Y-115462602D01*
X160530456Y-115488494D01*
X160538977Y-115516585D01*
X160542100Y-115548291D01*
X160542100Y-117294909D01*
X160538977Y-117326615D01*
X160530456Y-117354706D01*
X160516616Y-117380598D01*
X160497992Y-117403292D01*
X160475298Y-117421916D01*
X160449406Y-117435756D01*
X160421315Y-117444277D01*
X160389609Y-117447400D01*
X159992991Y-117447400D01*
X159961285Y-117444277D01*
X159933194Y-117435756D01*
X159907302Y-117421916D01*
X159884608Y-117403292D01*
X159865984Y-117380598D01*
X159852144Y-117354706D01*
X159843623Y-117326615D01*
X159840500Y-117294909D01*
X159840500Y-115548291D01*
X159843623Y-115516585D01*
X159852144Y-115488494D01*
X159865984Y-115462602D01*
X159884608Y-115439908D01*
X159907302Y-115421284D01*
X159933194Y-115407444D01*
X159961285Y-115398923D01*
X159992991Y-115395800D01*
X160389609Y-115395800D01*
X160421315Y-115398923D01*
X160421315Y-115398923D01*
G37*
G36*
X165501315Y-115398923D02*
G01*
X165529406Y-115407444D01*
X165555298Y-115421284D01*
X165577992Y-115439908D01*
X165596616Y-115462602D01*
X165610456Y-115488494D01*
X165618977Y-115516585D01*
X165622100Y-115548291D01*
X165622100Y-117294909D01*
X165618977Y-117326615D01*
X165610456Y-117354706D01*
X165596616Y-117380598D01*
X165577992Y-117403292D01*
X165555298Y-117421916D01*
X165529406Y-117435756D01*
X165501315Y-117444277D01*
X165469609Y-117447400D01*
X165072991Y-117447400D01*
X165041285Y-117444277D01*
X165013194Y-117435756D01*
X164987302Y-117421916D01*
X164964608Y-117403292D01*
X164945984Y-117380598D01*
X164932144Y-117354706D01*
X164923623Y-117326615D01*
X164920500Y-117294909D01*
X164920500Y-115548291D01*
X164923623Y-115516585D01*
X164932144Y-115488494D01*
X164945984Y-115462602D01*
X164964608Y-115439908D01*
X164987302Y-115421284D01*
X165013194Y-115407444D01*
X165041285Y-115398923D01*
X165072991Y-115395800D01*
X165469609Y-115395800D01*
X165501315Y-115398923D01*
X165501315Y-115398923D01*
G37*
G36*
X164231315Y-115398923D02*
G01*
X164259406Y-115407444D01*
X164285298Y-115421284D01*
X164307992Y-115439908D01*
X164326616Y-115462602D01*
X164340456Y-115488494D01*
X164348977Y-115516585D01*
X164352100Y-115548291D01*
X164352100Y-117294909D01*
X164348977Y-117326615D01*
X164340456Y-117354706D01*
X164326616Y-117380598D01*
X164307992Y-117403292D01*
X164285298Y-117421916D01*
X164259406Y-117435756D01*
X164231315Y-117444277D01*
X164199609Y-117447400D01*
X163802991Y-117447400D01*
X163771285Y-117444277D01*
X163743194Y-117435756D01*
X163717302Y-117421916D01*
X163694608Y-117403292D01*
X163675984Y-117380598D01*
X163662144Y-117354706D01*
X163653623Y-117326615D01*
X163650500Y-117294909D01*
X163650500Y-115548291D01*
X163653623Y-115516585D01*
X163662144Y-115488494D01*
X163675984Y-115462602D01*
X163694608Y-115439908D01*
X163717302Y-115421284D01*
X163743194Y-115407444D01*
X163771285Y-115398923D01*
X163802991Y-115395800D01*
X164199609Y-115395800D01*
X164231315Y-115398923D01*
X164231315Y-115398923D01*
G37*
G36*
X162961315Y-115398923D02*
G01*
X162989406Y-115407444D01*
X163015298Y-115421284D01*
X163037992Y-115439908D01*
X163056616Y-115462602D01*
X163070456Y-115488494D01*
X163078977Y-115516585D01*
X163082100Y-115548291D01*
X163082100Y-117294909D01*
X163078977Y-117326615D01*
X163070456Y-117354706D01*
X163056616Y-117380598D01*
X163037992Y-117403292D01*
X163015298Y-117421916D01*
X162989406Y-117435756D01*
X162961315Y-117444277D01*
X162929609Y-117447400D01*
X162532991Y-117447400D01*
X162501285Y-117444277D01*
X162473194Y-117435756D01*
X162447302Y-117421916D01*
X162424608Y-117403292D01*
X162405984Y-117380598D01*
X162392144Y-117354706D01*
X162383623Y-117326615D01*
X162380500Y-117294909D01*
X162380500Y-115548291D01*
X162383623Y-115516585D01*
X162392144Y-115488494D01*
X162405984Y-115462602D01*
X162424608Y-115439908D01*
X162447302Y-115421284D01*
X162473194Y-115407444D01*
X162501285Y-115398923D01*
X162532991Y-115395800D01*
X162929609Y-115395800D01*
X162961315Y-115398923D01*
X162961315Y-115398923D01*
G37*
G36*
X161691315Y-115398923D02*
G01*
X161719406Y-115407444D01*
X161745298Y-115421284D01*
X161767992Y-115439908D01*
X161786616Y-115462602D01*
X161800456Y-115488494D01*
X161808977Y-115516585D01*
X161812100Y-115548291D01*
X161812100Y-117294909D01*
X161808977Y-117326615D01*
X161800456Y-117354706D01*
X161786616Y-117380598D01*
X161767992Y-117403292D01*
X161745298Y-117421916D01*
X161719406Y-117435756D01*
X161691315Y-117444277D01*
X161659609Y-117447400D01*
X161262991Y-117447400D01*
X161231285Y-117444277D01*
X161203194Y-117435756D01*
X161177302Y-117421916D01*
X161154608Y-117403292D01*
X161135984Y-117380598D01*
X161122144Y-117354706D01*
X161113623Y-117326615D01*
X161110500Y-117294909D01*
X161110500Y-115548291D01*
X161113623Y-115516585D01*
X161122144Y-115488494D01*
X161135984Y-115462602D01*
X161154608Y-115439908D01*
X161177302Y-115421284D01*
X161203194Y-115407444D01*
X161231285Y-115398923D01*
X161262991Y-115395800D01*
X161659609Y-115395800D01*
X161691315Y-115398923D01*
X161691315Y-115398923D01*
G37*
G36*
X199686484Y-116026404D02*
G01*
X199730991Y-116039905D01*
X199772012Y-116061831D01*
X199807964Y-116091336D01*
X199837469Y-116127288D01*
X199859395Y-116168309D01*
X199872896Y-116212816D01*
X199877700Y-116261593D01*
X199877700Y-116933207D01*
X199872896Y-116981984D01*
X199859395Y-117026491D01*
X199837469Y-117067512D01*
X199807964Y-117103464D01*
X199772012Y-117132969D01*
X199730991Y-117154895D01*
X199686484Y-117168396D01*
X199637707Y-117173200D01*
X199066093Y-117173200D01*
X199017316Y-117168396D01*
X198972809Y-117154895D01*
X198931788Y-117132969D01*
X198895836Y-117103464D01*
X198866331Y-117067512D01*
X198844405Y-117026491D01*
X198830904Y-116981984D01*
X198826100Y-116933207D01*
X198826100Y-116261593D01*
X198830904Y-116212816D01*
X198844405Y-116168309D01*
X198866331Y-116127288D01*
X198895836Y-116091336D01*
X198931788Y-116061831D01*
X198972809Y-116039905D01*
X199017316Y-116026404D01*
X199066093Y-116021600D01*
X199637707Y-116021600D01*
X199686484Y-116026404D01*
X199686484Y-116026404D01*
G37*
G36*
X184878284Y-115811804D02*
G01*
X184922791Y-115825305D01*
X184963812Y-115847231D01*
X184999764Y-115876736D01*
X185029269Y-115912688D01*
X185051195Y-115953709D01*
X185064696Y-115998216D01*
X185069500Y-116046993D01*
X185069500Y-116718607D01*
X185064696Y-116767384D01*
X185051195Y-116811891D01*
X185029269Y-116852912D01*
X184999764Y-116888864D01*
X184963812Y-116918369D01*
X184922791Y-116940295D01*
X184878284Y-116953796D01*
X184829507Y-116958600D01*
X184257893Y-116958600D01*
X184209116Y-116953796D01*
X184164609Y-116940295D01*
X184123588Y-116918369D01*
X184087636Y-116888864D01*
X184058131Y-116852912D01*
X184036205Y-116811891D01*
X184022704Y-116767384D01*
X184017900Y-116718607D01*
X184017900Y-116046993D01*
X184022704Y-115998216D01*
X184036205Y-115953709D01*
X184058131Y-115912688D01*
X184087636Y-115876736D01*
X184123588Y-115847231D01*
X184164609Y-115825305D01*
X184209116Y-115811804D01*
X184257893Y-115807000D01*
X184829507Y-115807000D01*
X184878284Y-115811804D01*
X184878284Y-115811804D01*
G37*
G36*
X169993884Y-115594604D02*
G01*
X170038391Y-115608105D01*
X170079412Y-115630031D01*
X170115364Y-115659536D01*
X170144869Y-115695488D01*
X170166795Y-115736509D01*
X170180296Y-115781016D01*
X170185100Y-115829793D01*
X170185100Y-116501407D01*
X170180296Y-116550184D01*
X170166795Y-116594691D01*
X170144869Y-116635712D01*
X170115364Y-116671664D01*
X170079412Y-116701169D01*
X170038391Y-116723095D01*
X169993884Y-116736596D01*
X169945107Y-116741400D01*
X169373493Y-116741400D01*
X169324716Y-116736596D01*
X169280209Y-116723095D01*
X169239188Y-116701169D01*
X169203236Y-116671664D01*
X169173731Y-116635712D01*
X169151805Y-116594691D01*
X169138304Y-116550184D01*
X169133500Y-116501407D01*
X169133500Y-115829793D01*
X169138304Y-115781016D01*
X169151805Y-115736509D01*
X169173731Y-115695488D01*
X169203236Y-115659536D01*
X169239188Y-115630031D01*
X169280209Y-115608105D01*
X169324716Y-115594604D01*
X169373493Y-115589800D01*
X169945107Y-115589800D01*
X169993884Y-115594604D01*
X169993884Y-115594604D01*
G37*
G36*
X210900584Y-115281004D02*
G01*
X210945091Y-115294505D01*
X210986112Y-115316431D01*
X211022064Y-115345936D01*
X211051569Y-115381888D01*
X211073495Y-115422909D01*
X211086996Y-115467416D01*
X211091800Y-115516193D01*
X211091800Y-116187807D01*
X211086996Y-116236584D01*
X211073495Y-116281091D01*
X211051569Y-116322112D01*
X211022064Y-116358064D01*
X210986112Y-116387569D01*
X210945091Y-116409495D01*
X210900584Y-116422996D01*
X210851807Y-116427800D01*
X210280193Y-116427800D01*
X210231416Y-116422996D01*
X210186909Y-116409495D01*
X210145888Y-116387569D01*
X210109936Y-116358064D01*
X210080431Y-116322112D01*
X210058505Y-116281091D01*
X210045004Y-116236584D01*
X210040200Y-116187807D01*
X210040200Y-115516193D01*
X210045004Y-115467416D01*
X210058505Y-115422909D01*
X210080431Y-115381888D01*
X210109936Y-115345936D01*
X210145888Y-115316431D01*
X210186909Y-115294505D01*
X210231416Y-115281004D01*
X210280193Y-115276200D01*
X210851807Y-115276200D01*
X210900584Y-115281004D01*
X210900584Y-115281004D01*
G37*
G36*
X214447352Y-112808796D02*
G01*
X214729579Y-112925699D01*
X214983578Y-113095415D01*
X215199585Y-113311422D01*
X215369301Y-113565421D01*
X215486204Y-113847648D01*
X215545800Y-114147259D01*
X215545800Y-114452741D01*
X215486204Y-114752352D01*
X215369301Y-115034579D01*
X215199585Y-115288578D01*
X214983578Y-115504585D01*
X214729579Y-115674301D01*
X214447352Y-115791204D01*
X214147741Y-115850800D01*
X213842259Y-115850800D01*
X213542648Y-115791204D01*
X213260421Y-115674301D01*
X213006422Y-115504585D01*
X212790415Y-115288578D01*
X212620699Y-115034579D01*
X212503796Y-114752352D01*
X212444200Y-114452741D01*
X212444200Y-114147259D01*
X212503796Y-113847648D01*
X212620699Y-113565421D01*
X212790415Y-113311422D01*
X213006422Y-113095415D01*
X213260421Y-112925699D01*
X213542648Y-112808796D01*
X213842259Y-112749200D01*
X214147741Y-112749200D01*
X214447352Y-112808796D01*
X214447352Y-112808796D01*
G37*
G36*
X199686484Y-114276404D02*
G01*
X199730991Y-114289905D01*
X199772012Y-114311831D01*
X199807964Y-114341336D01*
X199837469Y-114377288D01*
X199859395Y-114418309D01*
X199872896Y-114462816D01*
X199877700Y-114511593D01*
X199877700Y-115183207D01*
X199872896Y-115231984D01*
X199859395Y-115276491D01*
X199837469Y-115317512D01*
X199807964Y-115353464D01*
X199772012Y-115382969D01*
X199730991Y-115404895D01*
X199686484Y-115418396D01*
X199637707Y-115423200D01*
X199066093Y-115423200D01*
X199017316Y-115418396D01*
X198972809Y-115404895D01*
X198931788Y-115382969D01*
X198895836Y-115353464D01*
X198866331Y-115317512D01*
X198844405Y-115276491D01*
X198830904Y-115231984D01*
X198826100Y-115183207D01*
X198826100Y-114511593D01*
X198830904Y-114462816D01*
X198844405Y-114418309D01*
X198866331Y-114377288D01*
X198895836Y-114341336D01*
X198931788Y-114311831D01*
X198972809Y-114289905D01*
X199017316Y-114276404D01*
X199066093Y-114271600D01*
X199637707Y-114271600D01*
X199686484Y-114276404D01*
X199686484Y-114276404D01*
G37*
G36*
X184878284Y-114061804D02*
G01*
X184922791Y-114075305D01*
X184963812Y-114097231D01*
X184999764Y-114126736D01*
X185029269Y-114162688D01*
X185051195Y-114203709D01*
X185064696Y-114248216D01*
X185069500Y-114296993D01*
X185069500Y-114968607D01*
X185064696Y-115017384D01*
X185051195Y-115061891D01*
X185029269Y-115102912D01*
X184999764Y-115138864D01*
X184963812Y-115168369D01*
X184922791Y-115190295D01*
X184878284Y-115203796D01*
X184829507Y-115208600D01*
X184257893Y-115208600D01*
X184209116Y-115203796D01*
X184164609Y-115190295D01*
X184123588Y-115168369D01*
X184087636Y-115138864D01*
X184058131Y-115102912D01*
X184036205Y-115061891D01*
X184022704Y-115017384D01*
X184017900Y-114968607D01*
X184017900Y-114296993D01*
X184022704Y-114248216D01*
X184036205Y-114203709D01*
X184058131Y-114162688D01*
X184087636Y-114126736D01*
X184123588Y-114097231D01*
X184164609Y-114075305D01*
X184209116Y-114061804D01*
X184257893Y-114057000D01*
X184829507Y-114057000D01*
X184878284Y-114061804D01*
X184878284Y-114061804D01*
G37*
G36*
X169993884Y-113844604D02*
G01*
X170038391Y-113858105D01*
X170079412Y-113880031D01*
X170115364Y-113909536D01*
X170144869Y-113945488D01*
X170166795Y-113986509D01*
X170180296Y-114031016D01*
X170185100Y-114079793D01*
X170185100Y-114751407D01*
X170180296Y-114800184D01*
X170166795Y-114844691D01*
X170144869Y-114885712D01*
X170115364Y-114921664D01*
X170079412Y-114951169D01*
X170038391Y-114973095D01*
X169993884Y-114986596D01*
X169945107Y-114991400D01*
X169373493Y-114991400D01*
X169324716Y-114986596D01*
X169280209Y-114973095D01*
X169239188Y-114951169D01*
X169203236Y-114921664D01*
X169173731Y-114885712D01*
X169151805Y-114844691D01*
X169138304Y-114800184D01*
X169133500Y-114751407D01*
X169133500Y-114079793D01*
X169138304Y-114031016D01*
X169151805Y-113986509D01*
X169173731Y-113945488D01*
X169203236Y-113909536D01*
X169239188Y-113880031D01*
X169280209Y-113858105D01*
X169324716Y-113844604D01*
X169373493Y-113839800D01*
X169945107Y-113839800D01*
X169993884Y-113844604D01*
X169993884Y-113844604D01*
G37*
G36*
X196765484Y-113740404D02*
G01*
X196809991Y-113753905D01*
X196851012Y-113775831D01*
X196886964Y-113805336D01*
X196916469Y-113841288D01*
X196938395Y-113882309D01*
X196951896Y-113926816D01*
X196956700Y-113975593D01*
X196956700Y-114647207D01*
X196951896Y-114695984D01*
X196938395Y-114740491D01*
X196916469Y-114781512D01*
X196886964Y-114817464D01*
X196851012Y-114846969D01*
X196809991Y-114868895D01*
X196765484Y-114882396D01*
X196716707Y-114887200D01*
X196145093Y-114887200D01*
X196096316Y-114882396D01*
X196051809Y-114868895D01*
X196010788Y-114846969D01*
X195974836Y-114817464D01*
X195945331Y-114781512D01*
X195923405Y-114740491D01*
X195909904Y-114695984D01*
X195905100Y-114647207D01*
X195905100Y-113975593D01*
X195909904Y-113926816D01*
X195923405Y-113882309D01*
X195945331Y-113841288D01*
X195974836Y-113805336D01*
X196010788Y-113775831D01*
X196051809Y-113753905D01*
X196096316Y-113740404D01*
X196145093Y-113735600D01*
X196716707Y-113735600D01*
X196765484Y-113740404D01*
X196765484Y-113740404D01*
G37*
G36*
X194225484Y-113613404D02*
G01*
X194269991Y-113626905D01*
X194311012Y-113648831D01*
X194346964Y-113678336D01*
X194376469Y-113714288D01*
X194398395Y-113755309D01*
X194411896Y-113799816D01*
X194416700Y-113848593D01*
X194416700Y-114520207D01*
X194411896Y-114568984D01*
X194398395Y-114613491D01*
X194376469Y-114654512D01*
X194346964Y-114690464D01*
X194311012Y-114719969D01*
X194269991Y-114741895D01*
X194225484Y-114755396D01*
X194176707Y-114760200D01*
X193605093Y-114760200D01*
X193556316Y-114755396D01*
X193511809Y-114741895D01*
X193470788Y-114719969D01*
X193434836Y-114690464D01*
X193405331Y-114654512D01*
X193383405Y-114613491D01*
X193369904Y-114568984D01*
X193365100Y-114520207D01*
X193365100Y-113848593D01*
X193369904Y-113799816D01*
X193383405Y-113755309D01*
X193405331Y-113714288D01*
X193434836Y-113678336D01*
X193470788Y-113648831D01*
X193511809Y-113626905D01*
X193556316Y-113613404D01*
X193605093Y-113608600D01*
X194176707Y-113608600D01*
X194225484Y-113613404D01*
X194225484Y-113613404D01*
G37*
G36*
X166818884Y-113435604D02*
G01*
X166863391Y-113449105D01*
X166904412Y-113471031D01*
X166940364Y-113500536D01*
X166969869Y-113536488D01*
X166991795Y-113577509D01*
X167005296Y-113622016D01*
X167010100Y-113670793D01*
X167010100Y-114342407D01*
X167005296Y-114391184D01*
X166991795Y-114435691D01*
X166969869Y-114476712D01*
X166940364Y-114512664D01*
X166904412Y-114542169D01*
X166863391Y-114564095D01*
X166818884Y-114577596D01*
X166770107Y-114582400D01*
X166198493Y-114582400D01*
X166149716Y-114577596D01*
X166105209Y-114564095D01*
X166064188Y-114542169D01*
X166028236Y-114512664D01*
X165998731Y-114476712D01*
X165976805Y-114435691D01*
X165963304Y-114391184D01*
X165958500Y-114342407D01*
X165958500Y-113670793D01*
X165963304Y-113622016D01*
X165976805Y-113577509D01*
X165998731Y-113536488D01*
X166028236Y-113500536D01*
X166064188Y-113471031D01*
X166105209Y-113449105D01*
X166149716Y-113435604D01*
X166198493Y-113430800D01*
X166770107Y-113430800D01*
X166818884Y-113435604D01*
X166818884Y-113435604D01*
G37*
G36*
X164278884Y-113435604D02*
G01*
X164323391Y-113449105D01*
X164364412Y-113471031D01*
X164400364Y-113500536D01*
X164429869Y-113536488D01*
X164451795Y-113577509D01*
X164465296Y-113622016D01*
X164470100Y-113670793D01*
X164470100Y-114342407D01*
X164465296Y-114391184D01*
X164451795Y-114435691D01*
X164429869Y-114476712D01*
X164400364Y-114512664D01*
X164364412Y-114542169D01*
X164323391Y-114564095D01*
X164278884Y-114577596D01*
X164230107Y-114582400D01*
X163658493Y-114582400D01*
X163609716Y-114577596D01*
X163565209Y-114564095D01*
X163524188Y-114542169D01*
X163488236Y-114512664D01*
X163458731Y-114476712D01*
X163436805Y-114435691D01*
X163423304Y-114391184D01*
X163418500Y-114342407D01*
X163418500Y-113670793D01*
X163423304Y-113622016D01*
X163436805Y-113577509D01*
X163458731Y-113536488D01*
X163488236Y-113500536D01*
X163524188Y-113471031D01*
X163565209Y-113449105D01*
X163609716Y-113435604D01*
X163658493Y-113430800D01*
X164230107Y-113430800D01*
X164278884Y-113435604D01*
X164278884Y-113435604D01*
G37*
G36*
X181830284Y-113271804D02*
G01*
X181874791Y-113285305D01*
X181915812Y-113307231D01*
X181951764Y-113336736D01*
X181981269Y-113372688D01*
X182003195Y-113413709D01*
X182016696Y-113458216D01*
X182021500Y-113506993D01*
X182021500Y-114178607D01*
X182016696Y-114227384D01*
X182003195Y-114271891D01*
X181981269Y-114312912D01*
X181951764Y-114348864D01*
X181915812Y-114378369D01*
X181874791Y-114400295D01*
X181830284Y-114413796D01*
X181781507Y-114418600D01*
X181209893Y-114418600D01*
X181161116Y-114413796D01*
X181116609Y-114400295D01*
X181075588Y-114378369D01*
X181039636Y-114348864D01*
X181010131Y-114312912D01*
X180988205Y-114271891D01*
X180974704Y-114227384D01*
X180969900Y-114178607D01*
X180969900Y-113506993D01*
X180974704Y-113458216D01*
X180988205Y-113413709D01*
X181010131Y-113372688D01*
X181039636Y-113336736D01*
X181075588Y-113307231D01*
X181116609Y-113285305D01*
X181161116Y-113271804D01*
X181209893Y-113267000D01*
X181781507Y-113267000D01*
X181830284Y-113271804D01*
X181830284Y-113271804D01*
G37*
G36*
X179290284Y-113271804D02*
G01*
X179334791Y-113285305D01*
X179375812Y-113307231D01*
X179411764Y-113336736D01*
X179441269Y-113372688D01*
X179463195Y-113413709D01*
X179476696Y-113458216D01*
X179481500Y-113506993D01*
X179481500Y-114178607D01*
X179476696Y-114227384D01*
X179463195Y-114271891D01*
X179441269Y-114312912D01*
X179411764Y-114348864D01*
X179375812Y-114378369D01*
X179334791Y-114400295D01*
X179290284Y-114413796D01*
X179241507Y-114418600D01*
X178669893Y-114418600D01*
X178621116Y-114413796D01*
X178576609Y-114400295D01*
X178535588Y-114378369D01*
X178499636Y-114348864D01*
X178470131Y-114312912D01*
X178448205Y-114271891D01*
X178434704Y-114227384D01*
X178429900Y-114178607D01*
X178429900Y-113506993D01*
X178434704Y-113458216D01*
X178448205Y-113413709D01*
X178470131Y-113372688D01*
X178499636Y-113336736D01*
X178535588Y-113307231D01*
X178576609Y-113285305D01*
X178621116Y-113271804D01*
X178669893Y-113267000D01*
X179241507Y-113267000D01*
X179290284Y-113271804D01*
X179290284Y-113271804D01*
G37*
G36*
X191975484Y-113296404D02*
G01*
X192019991Y-113309905D01*
X192061012Y-113331831D01*
X192096964Y-113361336D01*
X192126469Y-113397288D01*
X192148395Y-113438309D01*
X192161896Y-113482816D01*
X192166700Y-113531593D01*
X192166700Y-114103207D01*
X192161896Y-114151984D01*
X192148395Y-114196491D01*
X192126469Y-114237512D01*
X192096964Y-114273464D01*
X192061012Y-114302969D01*
X192019991Y-114324895D01*
X191975484Y-114338396D01*
X191926707Y-114343200D01*
X191255093Y-114343200D01*
X191206316Y-114338396D01*
X191161809Y-114324895D01*
X191120788Y-114302969D01*
X191084836Y-114273464D01*
X191055331Y-114237512D01*
X191033405Y-114196491D01*
X191019904Y-114151984D01*
X191015100Y-114103207D01*
X191015100Y-113531593D01*
X191019904Y-113482816D01*
X191033405Y-113438309D01*
X191055331Y-113397288D01*
X191084836Y-113361336D01*
X191120788Y-113331831D01*
X191161809Y-113309905D01*
X191206316Y-113296404D01*
X191255093Y-113291600D01*
X191926707Y-113291600D01*
X191975484Y-113296404D01*
X191975484Y-113296404D01*
G37*
G36*
X190225484Y-113296404D02*
G01*
X190269991Y-113309905D01*
X190311012Y-113331831D01*
X190346964Y-113361336D01*
X190376469Y-113397288D01*
X190398395Y-113438309D01*
X190411896Y-113482816D01*
X190416700Y-113531593D01*
X190416700Y-114103207D01*
X190411896Y-114151984D01*
X190398395Y-114196491D01*
X190376469Y-114237512D01*
X190346964Y-114273464D01*
X190311012Y-114302969D01*
X190269991Y-114324895D01*
X190225484Y-114338396D01*
X190176707Y-114343200D01*
X189505093Y-114343200D01*
X189456316Y-114338396D01*
X189411809Y-114324895D01*
X189370788Y-114302969D01*
X189334836Y-114273464D01*
X189305331Y-114237512D01*
X189283405Y-114196491D01*
X189269904Y-114151984D01*
X189265100Y-114103207D01*
X189265100Y-113531593D01*
X189269904Y-113482816D01*
X189283405Y-113438309D01*
X189305331Y-113397288D01*
X189334836Y-113361336D01*
X189370788Y-113331831D01*
X189411809Y-113309905D01*
X189456316Y-113296404D01*
X189505093Y-113291600D01*
X190176707Y-113291600D01*
X190225484Y-113296404D01*
X190225484Y-113296404D01*
G37*
G36*
X162028884Y-112991604D02*
G01*
X162073391Y-113005105D01*
X162114412Y-113027031D01*
X162150364Y-113056536D01*
X162179869Y-113092488D01*
X162201795Y-113133509D01*
X162215296Y-113178016D01*
X162220100Y-113226793D01*
X162220100Y-113798407D01*
X162215296Y-113847184D01*
X162201795Y-113891691D01*
X162179869Y-113932712D01*
X162150364Y-113968664D01*
X162114412Y-113998169D01*
X162073391Y-114020095D01*
X162028884Y-114033596D01*
X161980107Y-114038400D01*
X161308493Y-114038400D01*
X161259716Y-114033596D01*
X161215209Y-114020095D01*
X161174188Y-113998169D01*
X161138236Y-113968664D01*
X161108731Y-113932712D01*
X161086805Y-113891691D01*
X161073304Y-113847184D01*
X161068500Y-113798407D01*
X161068500Y-113226793D01*
X161073304Y-113178016D01*
X161086805Y-113133509D01*
X161108731Y-113092488D01*
X161138236Y-113056536D01*
X161174188Y-113027031D01*
X161215209Y-113005105D01*
X161259716Y-112991604D01*
X161308493Y-112986800D01*
X161980107Y-112986800D01*
X162028884Y-112991604D01*
X162028884Y-112991604D01*
G37*
G36*
X160278884Y-112991604D02*
G01*
X160323391Y-113005105D01*
X160364412Y-113027031D01*
X160400364Y-113056536D01*
X160429869Y-113092488D01*
X160451795Y-113133509D01*
X160465296Y-113178016D01*
X160470100Y-113226793D01*
X160470100Y-113798407D01*
X160465296Y-113847184D01*
X160451795Y-113891691D01*
X160429869Y-113932712D01*
X160400364Y-113968664D01*
X160364412Y-113998169D01*
X160323391Y-114020095D01*
X160278884Y-114033596D01*
X160230107Y-114038400D01*
X159558493Y-114038400D01*
X159509716Y-114033596D01*
X159465209Y-114020095D01*
X159424188Y-113998169D01*
X159388236Y-113968664D01*
X159358731Y-113932712D01*
X159336805Y-113891691D01*
X159323304Y-113847184D01*
X159318500Y-113798407D01*
X159318500Y-113226793D01*
X159323304Y-113178016D01*
X159336805Y-113133509D01*
X159358731Y-113092488D01*
X159388236Y-113056536D01*
X159424188Y-113027031D01*
X159465209Y-113005105D01*
X159509716Y-112991604D01*
X159558493Y-112986800D01*
X160230107Y-112986800D01*
X160278884Y-112991604D01*
X160278884Y-112991604D01*
G37*
G36*
X175290284Y-112686804D02*
G01*
X175334791Y-112700305D01*
X175375812Y-112722231D01*
X175411764Y-112751736D01*
X175441269Y-112787688D01*
X175463195Y-112828709D01*
X175476696Y-112873216D01*
X175481500Y-112921993D01*
X175481500Y-113493607D01*
X175476696Y-113542384D01*
X175463195Y-113586891D01*
X175441269Y-113627912D01*
X175411764Y-113663864D01*
X175375812Y-113693369D01*
X175334791Y-113715295D01*
X175290284Y-113728796D01*
X175241507Y-113733600D01*
X174569893Y-113733600D01*
X174521116Y-113728796D01*
X174476609Y-113715295D01*
X174435588Y-113693369D01*
X174399636Y-113663864D01*
X174370131Y-113627912D01*
X174348205Y-113586891D01*
X174334704Y-113542384D01*
X174329900Y-113493607D01*
X174329900Y-112921993D01*
X174334704Y-112873216D01*
X174348205Y-112828709D01*
X174370131Y-112787688D01*
X174399636Y-112751736D01*
X174435588Y-112722231D01*
X174476609Y-112700305D01*
X174521116Y-112686804D01*
X174569893Y-112682000D01*
X175241507Y-112682000D01*
X175290284Y-112686804D01*
X175290284Y-112686804D01*
G37*
G36*
X177040284Y-112686804D02*
G01*
X177084791Y-112700305D01*
X177125812Y-112722231D01*
X177161764Y-112751736D01*
X177191269Y-112787688D01*
X177213195Y-112828709D01*
X177226696Y-112873216D01*
X177231500Y-112921993D01*
X177231500Y-113493607D01*
X177226696Y-113542384D01*
X177213195Y-113586891D01*
X177191269Y-113627912D01*
X177161764Y-113663864D01*
X177125812Y-113693369D01*
X177084791Y-113715295D01*
X177040284Y-113728796D01*
X176991507Y-113733600D01*
X176319893Y-113733600D01*
X176271116Y-113728796D01*
X176226609Y-113715295D01*
X176185588Y-113693369D01*
X176149636Y-113663864D01*
X176120131Y-113627912D01*
X176098205Y-113586891D01*
X176084704Y-113542384D01*
X176079900Y-113493607D01*
X176079900Y-112921993D01*
X176084704Y-112873216D01*
X176098205Y-112828709D01*
X176120131Y-112787688D01*
X176149636Y-112751736D01*
X176185588Y-112722231D01*
X176226609Y-112700305D01*
X176271116Y-112686804D01*
X176319893Y-112682000D01*
X176991507Y-112682000D01*
X177040284Y-112686804D01*
X177040284Y-112686804D01*
G37*
G36*
X196765484Y-111990404D02*
G01*
X196809991Y-112003905D01*
X196851012Y-112025831D01*
X196886964Y-112055336D01*
X196916469Y-112091288D01*
X196938395Y-112132309D01*
X196951896Y-112176816D01*
X196956700Y-112225593D01*
X196956700Y-112897207D01*
X196951896Y-112945984D01*
X196938395Y-112990491D01*
X196916469Y-113031512D01*
X196886964Y-113067464D01*
X196851012Y-113096969D01*
X196809991Y-113118895D01*
X196765484Y-113132396D01*
X196716707Y-113137200D01*
X196145093Y-113137200D01*
X196096316Y-113132396D01*
X196051809Y-113118895D01*
X196010788Y-113096969D01*
X195974836Y-113067464D01*
X195945331Y-113031512D01*
X195923405Y-112990491D01*
X195909904Y-112945984D01*
X195905100Y-112897207D01*
X195905100Y-112225593D01*
X195909904Y-112176816D01*
X195923405Y-112132309D01*
X195945331Y-112091288D01*
X195974836Y-112055336D01*
X196010788Y-112025831D01*
X196051809Y-112003905D01*
X196096316Y-111990404D01*
X196145093Y-111985600D01*
X196716707Y-111985600D01*
X196765484Y-111990404D01*
X196765484Y-111990404D01*
G37*
G36*
X194225484Y-111863404D02*
G01*
X194269991Y-111876905D01*
X194311012Y-111898831D01*
X194346964Y-111928336D01*
X194376469Y-111964288D01*
X194398395Y-112005309D01*
X194411896Y-112049816D01*
X194416700Y-112098593D01*
X194416700Y-112770207D01*
X194411896Y-112818984D01*
X194398395Y-112863491D01*
X194376469Y-112904512D01*
X194346964Y-112940464D01*
X194311012Y-112969969D01*
X194269991Y-112991895D01*
X194225484Y-113005396D01*
X194176707Y-113010200D01*
X193605093Y-113010200D01*
X193556316Y-113005396D01*
X193511809Y-112991895D01*
X193470788Y-112969969D01*
X193434836Y-112940464D01*
X193405331Y-112904512D01*
X193383405Y-112863491D01*
X193369904Y-112818984D01*
X193365100Y-112770207D01*
X193365100Y-112098593D01*
X193369904Y-112049816D01*
X193383405Y-112005309D01*
X193405331Y-111964288D01*
X193434836Y-111928336D01*
X193470788Y-111898831D01*
X193511809Y-111876905D01*
X193556316Y-111863404D01*
X193605093Y-111858600D01*
X194176707Y-111858600D01*
X194225484Y-111863404D01*
X194225484Y-111863404D01*
G37*
G36*
X166818884Y-111685604D02*
G01*
X166863391Y-111699105D01*
X166904412Y-111721031D01*
X166940364Y-111750536D01*
X166969869Y-111786488D01*
X166991795Y-111827509D01*
X167005296Y-111872016D01*
X167010100Y-111920793D01*
X167010100Y-112592407D01*
X167005296Y-112641184D01*
X166991795Y-112685691D01*
X166969869Y-112726712D01*
X166940364Y-112762664D01*
X166904412Y-112792169D01*
X166863391Y-112814095D01*
X166818884Y-112827596D01*
X166770107Y-112832400D01*
X166198493Y-112832400D01*
X166149716Y-112827596D01*
X166105209Y-112814095D01*
X166064188Y-112792169D01*
X166028236Y-112762664D01*
X165998731Y-112726712D01*
X165976805Y-112685691D01*
X165963304Y-112641184D01*
X165958500Y-112592407D01*
X165958500Y-111920793D01*
X165963304Y-111872016D01*
X165976805Y-111827509D01*
X165998731Y-111786488D01*
X166028236Y-111750536D01*
X166064188Y-111721031D01*
X166105209Y-111699105D01*
X166149716Y-111685604D01*
X166198493Y-111680800D01*
X166770107Y-111680800D01*
X166818884Y-111685604D01*
X166818884Y-111685604D01*
G37*
G36*
X164278884Y-111685604D02*
G01*
X164323391Y-111699105D01*
X164364412Y-111721031D01*
X164400364Y-111750536D01*
X164429869Y-111786488D01*
X164451795Y-111827509D01*
X164465296Y-111872016D01*
X164470100Y-111920793D01*
X164470100Y-112592407D01*
X164465296Y-112641184D01*
X164451795Y-112685691D01*
X164429869Y-112726712D01*
X164400364Y-112762664D01*
X164364412Y-112792169D01*
X164323391Y-112814095D01*
X164278884Y-112827596D01*
X164230107Y-112832400D01*
X163658493Y-112832400D01*
X163609716Y-112827596D01*
X163565209Y-112814095D01*
X163524188Y-112792169D01*
X163488236Y-112762664D01*
X163458731Y-112726712D01*
X163436805Y-112685691D01*
X163423304Y-112641184D01*
X163418500Y-112592407D01*
X163418500Y-111920793D01*
X163423304Y-111872016D01*
X163436805Y-111827509D01*
X163458731Y-111786488D01*
X163488236Y-111750536D01*
X163524188Y-111721031D01*
X163565209Y-111699105D01*
X163609716Y-111685604D01*
X163658493Y-111680800D01*
X164230107Y-111680800D01*
X164278884Y-111685604D01*
X164278884Y-111685604D01*
G37*
G36*
X179290284Y-111521804D02*
G01*
X179334791Y-111535305D01*
X179375812Y-111557231D01*
X179411764Y-111586736D01*
X179441269Y-111622688D01*
X179463195Y-111663709D01*
X179476696Y-111708216D01*
X179481500Y-111756993D01*
X179481500Y-112428607D01*
X179476696Y-112477384D01*
X179463195Y-112521891D01*
X179441269Y-112562912D01*
X179411764Y-112598864D01*
X179375812Y-112628369D01*
X179334791Y-112650295D01*
X179290284Y-112663796D01*
X179241507Y-112668600D01*
X178669893Y-112668600D01*
X178621116Y-112663796D01*
X178576609Y-112650295D01*
X178535588Y-112628369D01*
X178499636Y-112598864D01*
X178470131Y-112562912D01*
X178448205Y-112521891D01*
X178434704Y-112477384D01*
X178429900Y-112428607D01*
X178429900Y-111756993D01*
X178434704Y-111708216D01*
X178448205Y-111663709D01*
X178470131Y-111622688D01*
X178499636Y-111586736D01*
X178535588Y-111557231D01*
X178576609Y-111535305D01*
X178621116Y-111521804D01*
X178669893Y-111517000D01*
X179241507Y-111517000D01*
X179290284Y-111521804D01*
X179290284Y-111521804D01*
G37*
G36*
X181830284Y-111521804D02*
G01*
X181874791Y-111535305D01*
X181915812Y-111557231D01*
X181951764Y-111586736D01*
X181981269Y-111622688D01*
X182003195Y-111663709D01*
X182016696Y-111708216D01*
X182021500Y-111756993D01*
X182021500Y-112428607D01*
X182016696Y-112477384D01*
X182003195Y-112521891D01*
X181981269Y-112562912D01*
X181951764Y-112598864D01*
X181915812Y-112628369D01*
X181874791Y-112650295D01*
X181830284Y-112663796D01*
X181781507Y-112668600D01*
X181209893Y-112668600D01*
X181161116Y-112663796D01*
X181116609Y-112650295D01*
X181075588Y-112628369D01*
X181039636Y-112598864D01*
X181010131Y-112562912D01*
X180988205Y-112521891D01*
X180974704Y-112477384D01*
X180969900Y-112428607D01*
X180969900Y-111756993D01*
X180974704Y-111708216D01*
X180988205Y-111663709D01*
X181010131Y-111622688D01*
X181039636Y-111586736D01*
X181075588Y-111557231D01*
X181116609Y-111535305D01*
X181161116Y-111521804D01*
X181209893Y-111517000D01*
X181781507Y-111517000D01*
X181830284Y-111521804D01*
X181830284Y-111521804D01*
G37*
G36*
X196823384Y-109729233D02*
G01*
X196823387Y-109729234D01*
X196823388Y-109729234D01*
X196993189Y-109780743D01*
X197040661Y-109806117D01*
X197149681Y-109864389D01*
X197286844Y-109976956D01*
X197399411Y-110114119D01*
X197449900Y-110208578D01*
X197483057Y-110270611D01*
X197529765Y-110424585D01*
X197534567Y-110440416D01*
X197551959Y-110617000D01*
X197534567Y-110793584D01*
X197534566Y-110793587D01*
X197534566Y-110793588D01*
X197483057Y-110963389D01*
X197483056Y-110963390D01*
X197399411Y-111119881D01*
X197286844Y-111257044D01*
X197149681Y-111369611D01*
X197040913Y-111427748D01*
X196993189Y-111453257D01*
X196823388Y-111504766D01*
X196823387Y-111504766D01*
X196823384Y-111504767D01*
X196691055Y-111517800D01*
X196602545Y-111517800D01*
X196470216Y-111504767D01*
X196470213Y-111504766D01*
X196470212Y-111504766D01*
X196300411Y-111453257D01*
X196252687Y-111427748D01*
X196143919Y-111369611D01*
X196006756Y-111257044D01*
X195894189Y-111119881D01*
X195810544Y-110963390D01*
X195810543Y-110963389D01*
X195759034Y-110793588D01*
X195759034Y-110793587D01*
X195759033Y-110793584D01*
X195741641Y-110617000D01*
X195759033Y-110440416D01*
X195763835Y-110424585D01*
X195810543Y-110270611D01*
X195843700Y-110208578D01*
X195894189Y-110114119D01*
X196006756Y-109976956D01*
X196143919Y-109864389D01*
X196252939Y-109806117D01*
X196300411Y-109780743D01*
X196470212Y-109729234D01*
X196470213Y-109729234D01*
X196470216Y-109729233D01*
X196602545Y-109716200D01*
X196691055Y-109716200D01*
X196823384Y-109729233D01*
X196823384Y-109729233D01*
G37*
G36*
X183722584Y-110286004D02*
G01*
X183767091Y-110299505D01*
X183808112Y-110321431D01*
X183844064Y-110350936D01*
X183873569Y-110386888D01*
X183895495Y-110427909D01*
X183908996Y-110472416D01*
X183913800Y-110521193D01*
X183913800Y-111192807D01*
X183908996Y-111241584D01*
X183895495Y-111286091D01*
X183873569Y-111327112D01*
X183844064Y-111363064D01*
X183808112Y-111392569D01*
X183767091Y-111414495D01*
X183722584Y-111427996D01*
X183673807Y-111432800D01*
X183102193Y-111432800D01*
X183053416Y-111427996D01*
X183008909Y-111414495D01*
X182967888Y-111392569D01*
X182931936Y-111363064D01*
X182902431Y-111327112D01*
X182880505Y-111286091D01*
X182867004Y-111241584D01*
X182862200Y-111192807D01*
X182862200Y-110521193D01*
X182867004Y-110472416D01*
X182880505Y-110427909D01*
X182902431Y-110386888D01*
X182931936Y-110350936D01*
X182967888Y-110321431D01*
X183008909Y-110299505D01*
X183053416Y-110286004D01*
X183102193Y-110281200D01*
X183673807Y-110281200D01*
X183722584Y-110286004D01*
X183722584Y-110286004D01*
G37*
G36*
X214447352Y-107728796D02*
G01*
X214729579Y-107845699D01*
X214983578Y-108015415D01*
X215199585Y-108231422D01*
X215369301Y-108485421D01*
X215486204Y-108767648D01*
X215545800Y-109067259D01*
X215545800Y-109372741D01*
X215486204Y-109672352D01*
X215369301Y-109954579D01*
X215199585Y-110208578D01*
X214983578Y-110424585D01*
X214729579Y-110594301D01*
X214447352Y-110711204D01*
X214147741Y-110770800D01*
X213842259Y-110770800D01*
X213542648Y-110711204D01*
X213260421Y-110594301D01*
X213006422Y-110424585D01*
X212790415Y-110208578D01*
X212620699Y-109954579D01*
X212503796Y-109672352D01*
X212444200Y-109372741D01*
X212444200Y-109067259D01*
X212503796Y-108767648D01*
X212620699Y-108485421D01*
X212790415Y-108231422D01*
X213006422Y-108015415D01*
X213260421Y-107845699D01*
X213542648Y-107728796D01*
X213842259Y-107669200D01*
X214147741Y-107669200D01*
X214447352Y-107728796D01*
X214447352Y-107728796D01*
G37*
G36*
X183722584Y-108536004D02*
G01*
X183767091Y-108549505D01*
X183808112Y-108571431D01*
X183844064Y-108600936D01*
X183873569Y-108636888D01*
X183895495Y-108677909D01*
X183908996Y-108722416D01*
X183913800Y-108771193D01*
X183913800Y-109442807D01*
X183908996Y-109491584D01*
X183895495Y-109536091D01*
X183873569Y-109577112D01*
X183844064Y-109613064D01*
X183808112Y-109642569D01*
X183767091Y-109664495D01*
X183722584Y-109677996D01*
X183673807Y-109682800D01*
X183102193Y-109682800D01*
X183053416Y-109677996D01*
X183008909Y-109664495D01*
X182967888Y-109642569D01*
X182931936Y-109613064D01*
X182902431Y-109577112D01*
X182880505Y-109536091D01*
X182867004Y-109491584D01*
X182862200Y-109442807D01*
X182862200Y-108771193D01*
X182867004Y-108722416D01*
X182880505Y-108677909D01*
X182902431Y-108636888D01*
X182931936Y-108600936D01*
X182967888Y-108571431D01*
X183008909Y-108549505D01*
X183053416Y-108536004D01*
X183102193Y-108531200D01*
X183673807Y-108531200D01*
X183722584Y-108536004D01*
X183722584Y-108536004D01*
G37*
G36*
X197547600Y-108977800D02*
G01*
X195746000Y-108977800D01*
X195746000Y-107176200D01*
X197547600Y-107176200D01*
X197547600Y-108977800D01*
X197547600Y-108977800D01*
G37*
G36*
X210900584Y-106730004D02*
G01*
X210945091Y-106743505D01*
X210986112Y-106765431D01*
X211022064Y-106794936D01*
X211051569Y-106830888D01*
X211073495Y-106871909D01*
X211086996Y-106916416D01*
X211091800Y-106965193D01*
X211091800Y-107636807D01*
X211086996Y-107685584D01*
X211073495Y-107730091D01*
X211051569Y-107771112D01*
X211022064Y-107807064D01*
X210986112Y-107836569D01*
X210945091Y-107858495D01*
X210900584Y-107871996D01*
X210851807Y-107876800D01*
X210280193Y-107876800D01*
X210231416Y-107871996D01*
X210186909Y-107858495D01*
X210145888Y-107836569D01*
X210109936Y-107807064D01*
X210080431Y-107771112D01*
X210058505Y-107730091D01*
X210045004Y-107685584D01*
X210040200Y-107636807D01*
X210040200Y-106965193D01*
X210045004Y-106916416D01*
X210058505Y-106871909D01*
X210080431Y-106830888D01*
X210109936Y-106794936D01*
X210145888Y-106765431D01*
X210186909Y-106743505D01*
X210231416Y-106730004D01*
X210280193Y-106725200D01*
X210851807Y-106725200D01*
X210900584Y-106730004D01*
X210900584Y-106730004D01*
G37*
G36*
X184738584Y-105968004D02*
G01*
X184783091Y-105981505D01*
X184824112Y-106003431D01*
X184860064Y-106032936D01*
X184889569Y-106068888D01*
X184911495Y-106109909D01*
X184924996Y-106154416D01*
X184929800Y-106203193D01*
X184929800Y-106874807D01*
X184924996Y-106923584D01*
X184911495Y-106968091D01*
X184889569Y-107009112D01*
X184860064Y-107045064D01*
X184824112Y-107074569D01*
X184783091Y-107096495D01*
X184738584Y-107109996D01*
X184689807Y-107114800D01*
X184118193Y-107114800D01*
X184069416Y-107109996D01*
X184024909Y-107096495D01*
X183983888Y-107074569D01*
X183947936Y-107045064D01*
X183918431Y-107009112D01*
X183896505Y-106968091D01*
X183883004Y-106923584D01*
X183878200Y-106874807D01*
X183878200Y-106203193D01*
X183883004Y-106154416D01*
X183896505Y-106109909D01*
X183918431Y-106068888D01*
X183947936Y-106032936D01*
X183983888Y-106003431D01*
X184024909Y-105981505D01*
X184069416Y-105968004D01*
X184118193Y-105963200D01*
X184689807Y-105963200D01*
X184738584Y-105968004D01*
X184738584Y-105968004D01*
G37*
G36*
X210900584Y-104980004D02*
G01*
X210945091Y-104993505D01*
X210986112Y-105015431D01*
X211022064Y-105044936D01*
X211051569Y-105080888D01*
X211073495Y-105121909D01*
X211086996Y-105166416D01*
X211091800Y-105215193D01*
X211091800Y-105886807D01*
X211086996Y-105935584D01*
X211073495Y-105980091D01*
X211051569Y-106021112D01*
X211022064Y-106057064D01*
X210986112Y-106086569D01*
X210945091Y-106108495D01*
X210900584Y-106121996D01*
X210851807Y-106126800D01*
X210280193Y-106126800D01*
X210231416Y-106121996D01*
X210186909Y-106108495D01*
X210145888Y-106086569D01*
X210109936Y-106057064D01*
X210080431Y-106021112D01*
X210058505Y-105980091D01*
X210045004Y-105935584D01*
X210040200Y-105886807D01*
X210040200Y-105215193D01*
X210045004Y-105166416D01*
X210058505Y-105121909D01*
X210080431Y-105080888D01*
X210109936Y-105044936D01*
X210145888Y-105015431D01*
X210186909Y-104993505D01*
X210231416Y-104980004D01*
X210280193Y-104975200D01*
X210851807Y-104975200D01*
X210900584Y-104980004D01*
X210900584Y-104980004D01*
G37*
G36*
X214447352Y-102648796D02*
G01*
X214729579Y-102765699D01*
X214983578Y-102935415D01*
X215199585Y-103151422D01*
X215369301Y-103405421D01*
X215486204Y-103687648D01*
X215545800Y-103987259D01*
X215545800Y-104292741D01*
X215486204Y-104592352D01*
X215369301Y-104874579D01*
X215199585Y-105128578D01*
X214983578Y-105344585D01*
X214729579Y-105514301D01*
X214447352Y-105631204D01*
X214147741Y-105690800D01*
X213842259Y-105690800D01*
X213542648Y-105631204D01*
X213260421Y-105514301D01*
X213006422Y-105344585D01*
X212790415Y-105128578D01*
X212620699Y-104874579D01*
X212503796Y-104592352D01*
X212444200Y-104292741D01*
X212444200Y-103987259D01*
X212503796Y-103687648D01*
X212620699Y-103405421D01*
X212790415Y-103151422D01*
X213006422Y-102935415D01*
X213260421Y-102765699D01*
X213542648Y-102648796D01*
X213842259Y-102589200D01*
X214147741Y-102589200D01*
X214447352Y-102648796D01*
X214447352Y-102648796D01*
G37*
G36*
X184738584Y-104218004D02*
G01*
X184783091Y-104231505D01*
X184824112Y-104253431D01*
X184860064Y-104282936D01*
X184889569Y-104318888D01*
X184911495Y-104359909D01*
X184924996Y-104404416D01*
X184929800Y-104453193D01*
X184929800Y-105124807D01*
X184924996Y-105173584D01*
X184911495Y-105218091D01*
X184889569Y-105259112D01*
X184860064Y-105295064D01*
X184824112Y-105324569D01*
X184783091Y-105346495D01*
X184738584Y-105359996D01*
X184689807Y-105364800D01*
X184118193Y-105364800D01*
X184069416Y-105359996D01*
X184024909Y-105346495D01*
X183983888Y-105324569D01*
X183947936Y-105295064D01*
X183918431Y-105259112D01*
X183896505Y-105218091D01*
X183883004Y-105173584D01*
X183878200Y-105124807D01*
X183878200Y-104453193D01*
X183883004Y-104404416D01*
X183896505Y-104359909D01*
X183918431Y-104318888D01*
X183947936Y-104282936D01*
X183983888Y-104253431D01*
X184024909Y-104231505D01*
X184069416Y-104218004D01*
X184118193Y-104213200D01*
X184689807Y-104213200D01*
X184738584Y-104218004D01*
X184738584Y-104218004D01*
G37*
G36*
X191837084Y-101079004D02*
G01*
X191881591Y-101092505D01*
X191922612Y-101114431D01*
X191958564Y-101143936D01*
X191988069Y-101179888D01*
X192009995Y-101220909D01*
X192023496Y-101265416D01*
X192028300Y-101314193D01*
X192028300Y-101885807D01*
X192023496Y-101934584D01*
X192009995Y-101979091D01*
X191988069Y-102020112D01*
X191958564Y-102056064D01*
X191922612Y-102085569D01*
X191881591Y-102107495D01*
X191837084Y-102120996D01*
X191788307Y-102125800D01*
X191116693Y-102125800D01*
X191067916Y-102120996D01*
X191023409Y-102107495D01*
X190982388Y-102085569D01*
X190946436Y-102056064D01*
X190916931Y-102020112D01*
X190895005Y-101979091D01*
X190881504Y-101934584D01*
X190876700Y-101885807D01*
X190876700Y-101314193D01*
X190881504Y-101265416D01*
X190895005Y-101220909D01*
X190916931Y-101179888D01*
X190946436Y-101143936D01*
X190982388Y-101114431D01*
X191023409Y-101092505D01*
X191067916Y-101079004D01*
X191116693Y-101074200D01*
X191788307Y-101074200D01*
X191837084Y-101079004D01*
X191837084Y-101079004D01*
G37*
G36*
X190087084Y-101079004D02*
G01*
X190131591Y-101092505D01*
X190172612Y-101114431D01*
X190208564Y-101143936D01*
X190238069Y-101179888D01*
X190259995Y-101220909D01*
X190273496Y-101265416D01*
X190278300Y-101314193D01*
X190278300Y-101885807D01*
X190273496Y-101934584D01*
X190259995Y-101979091D01*
X190238069Y-102020112D01*
X190208564Y-102056064D01*
X190172612Y-102085569D01*
X190131591Y-102107495D01*
X190087084Y-102120996D01*
X190038307Y-102125800D01*
X189366693Y-102125800D01*
X189317916Y-102120996D01*
X189273409Y-102107495D01*
X189232388Y-102085569D01*
X189196436Y-102056064D01*
X189166931Y-102020112D01*
X189145005Y-101979091D01*
X189131504Y-101934584D01*
X189126700Y-101885807D01*
X189126700Y-101314193D01*
X189131504Y-101265416D01*
X189145005Y-101220909D01*
X189166931Y-101179888D01*
X189196436Y-101143936D01*
X189232388Y-101114431D01*
X189273409Y-101092505D01*
X189317916Y-101079004D01*
X189366693Y-101074200D01*
X190038307Y-101074200D01*
X190087084Y-101079004D01*
X190087084Y-101079004D01*
G37*
G36*
X148365784Y-100634004D02*
G01*
X148410291Y-100647505D01*
X148451312Y-100669431D01*
X148487264Y-100698936D01*
X148516769Y-100734888D01*
X148538695Y-100775909D01*
X148552196Y-100820416D01*
X148557000Y-100869193D01*
X148557000Y-101540807D01*
X148552196Y-101589584D01*
X148538695Y-101634091D01*
X148516769Y-101675112D01*
X148487264Y-101711064D01*
X148451312Y-101740569D01*
X148410291Y-101762495D01*
X148365784Y-101775996D01*
X148317007Y-101780800D01*
X147745393Y-101780800D01*
X147696616Y-101775996D01*
X147652109Y-101762495D01*
X147611088Y-101740569D01*
X147575136Y-101711064D01*
X147545631Y-101675112D01*
X147523705Y-101634091D01*
X147510204Y-101589584D01*
X147505400Y-101540807D01*
X147505400Y-100869193D01*
X147510204Y-100820416D01*
X147523705Y-100775909D01*
X147545631Y-100734888D01*
X147575136Y-100698936D01*
X147611088Y-100669431D01*
X147652109Y-100647505D01*
X147696616Y-100634004D01*
X147745393Y-100629200D01*
X148317007Y-100629200D01*
X148365784Y-100634004D01*
X148365784Y-100634004D01*
G37*
G36*
X167466584Y-100634004D02*
G01*
X167511091Y-100647505D01*
X167552112Y-100669431D01*
X167588064Y-100698936D01*
X167617569Y-100734888D01*
X167639495Y-100775909D01*
X167652996Y-100820416D01*
X167657800Y-100869193D01*
X167657800Y-101540807D01*
X167652996Y-101589584D01*
X167639495Y-101634091D01*
X167617569Y-101675112D01*
X167588064Y-101711064D01*
X167552112Y-101740569D01*
X167511091Y-101762495D01*
X167466584Y-101775996D01*
X167417807Y-101780800D01*
X166846193Y-101780800D01*
X166797416Y-101775996D01*
X166752909Y-101762495D01*
X166711888Y-101740569D01*
X166675936Y-101711064D01*
X166646431Y-101675112D01*
X166624505Y-101634091D01*
X166611004Y-101589584D01*
X166606200Y-101540807D01*
X166606200Y-100869193D01*
X166611004Y-100820416D01*
X166624505Y-100775909D01*
X166646431Y-100734888D01*
X166675936Y-100698936D01*
X166711888Y-100669431D01*
X166752909Y-100647505D01*
X166797416Y-100634004D01*
X166846193Y-100629200D01*
X167417807Y-100629200D01*
X167466584Y-100634004D01*
X167466584Y-100634004D01*
G37*
G36*
X214447352Y-97568796D02*
G01*
X214729579Y-97685699D01*
X214983578Y-97855415D01*
X215199585Y-98071422D01*
X215369301Y-98325421D01*
X215486204Y-98607648D01*
X215545800Y-98907259D01*
X215545800Y-99212741D01*
X215486204Y-99512352D01*
X215369301Y-99794579D01*
X215199585Y-100048578D01*
X214983578Y-100264585D01*
X214729579Y-100434301D01*
X214447352Y-100551204D01*
X214147741Y-100610800D01*
X213842259Y-100610800D01*
X213542648Y-100551204D01*
X213260421Y-100434301D01*
X213006422Y-100264585D01*
X212790415Y-100048578D01*
X212620699Y-99794579D01*
X212503796Y-99512352D01*
X212444200Y-99212741D01*
X212444200Y-98907259D01*
X212503796Y-98607648D01*
X212620699Y-98325421D01*
X212790415Y-98071422D01*
X213006422Y-97855415D01*
X213260421Y-97685699D01*
X213542648Y-97568796D01*
X213842259Y-97509200D01*
X214147741Y-97509200D01*
X214447352Y-97568796D01*
X214447352Y-97568796D01*
G37*
G36*
X191837084Y-99428004D02*
G01*
X191881591Y-99441505D01*
X191922612Y-99463431D01*
X191958564Y-99492936D01*
X191988069Y-99528888D01*
X192009995Y-99569909D01*
X192023496Y-99614416D01*
X192028300Y-99663193D01*
X192028300Y-100234807D01*
X192023496Y-100283584D01*
X192009995Y-100328091D01*
X191988069Y-100369112D01*
X191958564Y-100405064D01*
X191922612Y-100434569D01*
X191881591Y-100456495D01*
X191837084Y-100469996D01*
X191788307Y-100474800D01*
X191116693Y-100474800D01*
X191067916Y-100469996D01*
X191023409Y-100456495D01*
X190982388Y-100434569D01*
X190946436Y-100405064D01*
X190916931Y-100369112D01*
X190895005Y-100328091D01*
X190881504Y-100283584D01*
X190876700Y-100234807D01*
X190876700Y-99663193D01*
X190881504Y-99614416D01*
X190895005Y-99569909D01*
X190916931Y-99528888D01*
X190946436Y-99492936D01*
X190982388Y-99463431D01*
X191023409Y-99441505D01*
X191067916Y-99428004D01*
X191116693Y-99423200D01*
X191788307Y-99423200D01*
X191837084Y-99428004D01*
X191837084Y-99428004D01*
G37*
G36*
X190087084Y-99428004D02*
G01*
X190131591Y-99441505D01*
X190172612Y-99463431D01*
X190208564Y-99492936D01*
X190238069Y-99528888D01*
X190259995Y-99569909D01*
X190273496Y-99614416D01*
X190278300Y-99663193D01*
X190278300Y-100234807D01*
X190273496Y-100283584D01*
X190259995Y-100328091D01*
X190238069Y-100369112D01*
X190208564Y-100405064D01*
X190172612Y-100434569D01*
X190131591Y-100456495D01*
X190087084Y-100469996D01*
X190038307Y-100474800D01*
X189366693Y-100474800D01*
X189317916Y-100469996D01*
X189273409Y-100456495D01*
X189232388Y-100434569D01*
X189196436Y-100405064D01*
X189166931Y-100369112D01*
X189145005Y-100328091D01*
X189131504Y-100283584D01*
X189126700Y-100234807D01*
X189126700Y-99663193D01*
X189131504Y-99614416D01*
X189145005Y-99569909D01*
X189166931Y-99528888D01*
X189196436Y-99492936D01*
X189232388Y-99463431D01*
X189273409Y-99441505D01*
X189317916Y-99428004D01*
X189366693Y-99423200D01*
X190038307Y-99423200D01*
X190087084Y-99428004D01*
X190087084Y-99428004D01*
G37*
G36*
X167466584Y-98884004D02*
G01*
X167511091Y-98897505D01*
X167552112Y-98919431D01*
X167588064Y-98948936D01*
X167617569Y-98984888D01*
X167639495Y-99025909D01*
X167652996Y-99070416D01*
X167657800Y-99119193D01*
X167657800Y-99790807D01*
X167652996Y-99839584D01*
X167639495Y-99884091D01*
X167617569Y-99925112D01*
X167588064Y-99961064D01*
X167552112Y-99990569D01*
X167511091Y-100012495D01*
X167466584Y-100025996D01*
X167417807Y-100030800D01*
X166846193Y-100030800D01*
X166797416Y-100025996D01*
X166752909Y-100012495D01*
X166711888Y-99990569D01*
X166675936Y-99961064D01*
X166646431Y-99925112D01*
X166624505Y-99884091D01*
X166611004Y-99839584D01*
X166606200Y-99790807D01*
X166606200Y-99119193D01*
X166611004Y-99070416D01*
X166624505Y-99025909D01*
X166646431Y-98984888D01*
X166675936Y-98948936D01*
X166711888Y-98919431D01*
X166752909Y-98897505D01*
X166797416Y-98884004D01*
X166846193Y-98879200D01*
X167417807Y-98879200D01*
X167466584Y-98884004D01*
X167466584Y-98884004D01*
G37*
G36*
X148365784Y-98884004D02*
G01*
X148410291Y-98897505D01*
X148451312Y-98919431D01*
X148487264Y-98948936D01*
X148516769Y-98984888D01*
X148538695Y-99025909D01*
X148552196Y-99070416D01*
X148557000Y-99119193D01*
X148557000Y-99790807D01*
X148552196Y-99839584D01*
X148538695Y-99884091D01*
X148516769Y-99925112D01*
X148487264Y-99961064D01*
X148451312Y-99990569D01*
X148410291Y-100012495D01*
X148365784Y-100025996D01*
X148317007Y-100030800D01*
X147745393Y-100030800D01*
X147696616Y-100025996D01*
X147652109Y-100012495D01*
X147611088Y-99990569D01*
X147575136Y-99961064D01*
X147545631Y-99925112D01*
X147523705Y-99884091D01*
X147510204Y-99839584D01*
X147505400Y-99790807D01*
X147505400Y-99119193D01*
X147510204Y-99070416D01*
X147523705Y-99025909D01*
X147545631Y-98984888D01*
X147575136Y-98948936D01*
X147611088Y-98919431D01*
X147652109Y-98897505D01*
X147696616Y-98884004D01*
X147745393Y-98879200D01*
X148317007Y-98879200D01*
X148365784Y-98884004D01*
X148365784Y-98884004D01*
G37*
G36*
X210456015Y-99029823D02*
G01*
X210484106Y-99038344D01*
X210509998Y-99052184D01*
X210532692Y-99070808D01*
X210551316Y-99093502D01*
X210565156Y-99119394D01*
X210573677Y-99147485D01*
X210576800Y-99179191D01*
X210576800Y-99575809D01*
X210573677Y-99607515D01*
X210565156Y-99635606D01*
X210551316Y-99661498D01*
X210532692Y-99684192D01*
X210509998Y-99702816D01*
X210484106Y-99716656D01*
X210456015Y-99725177D01*
X210424309Y-99728300D01*
X208577691Y-99728300D01*
X208545985Y-99725177D01*
X208517894Y-99716656D01*
X208492002Y-99702816D01*
X208469308Y-99684192D01*
X208450684Y-99661498D01*
X208436844Y-99635606D01*
X208428323Y-99607515D01*
X208425200Y-99575809D01*
X208425200Y-99179191D01*
X208428323Y-99147485D01*
X208436844Y-99119394D01*
X208450684Y-99093502D01*
X208469308Y-99070808D01*
X208492002Y-99052184D01*
X208517894Y-99038344D01*
X208545985Y-99029823D01*
X208577691Y-99026700D01*
X210424309Y-99026700D01*
X210456015Y-99029823D01*
X210456015Y-99029823D01*
G37*
G36*
X201156015Y-99029823D02*
G01*
X201184106Y-99038344D01*
X201209998Y-99052184D01*
X201232692Y-99070808D01*
X201251316Y-99093502D01*
X201265156Y-99119394D01*
X201273677Y-99147485D01*
X201276800Y-99179191D01*
X201276800Y-99575809D01*
X201273677Y-99607515D01*
X201265156Y-99635606D01*
X201251316Y-99661498D01*
X201232692Y-99684192D01*
X201209998Y-99702816D01*
X201184106Y-99716656D01*
X201156015Y-99725177D01*
X201124309Y-99728300D01*
X199277691Y-99728300D01*
X199245985Y-99725177D01*
X199217894Y-99716656D01*
X199192002Y-99702816D01*
X199169308Y-99684192D01*
X199150684Y-99661498D01*
X199136844Y-99635606D01*
X199128323Y-99607515D01*
X199125200Y-99575809D01*
X199125200Y-99179191D01*
X199128323Y-99147485D01*
X199136844Y-99119394D01*
X199150684Y-99093502D01*
X199169308Y-99070808D01*
X199192002Y-99052184D01*
X199217894Y-99038344D01*
X199245985Y-99029823D01*
X199277691Y-99026700D01*
X201124309Y-99026700D01*
X201156015Y-99029823D01*
X201156015Y-99029823D01*
G37*
G36*
X188256800Y-98848800D02*
G01*
X187155200Y-98848800D01*
X187155200Y-97747200D01*
X188256800Y-97747200D01*
X188256800Y-98848800D01*
X188256800Y-98848800D01*
G37*
G36*
X210456015Y-97759823D02*
G01*
X210484106Y-97768344D01*
X210509998Y-97782184D01*
X210532692Y-97800808D01*
X210551316Y-97823502D01*
X210565156Y-97849394D01*
X210573677Y-97877485D01*
X210576800Y-97909191D01*
X210576800Y-98305809D01*
X210573677Y-98337515D01*
X210565156Y-98365606D01*
X210551316Y-98391498D01*
X210532692Y-98414192D01*
X210509998Y-98432816D01*
X210484106Y-98446656D01*
X210456015Y-98455177D01*
X210424309Y-98458300D01*
X208577691Y-98458300D01*
X208545985Y-98455177D01*
X208517894Y-98446656D01*
X208492002Y-98432816D01*
X208469308Y-98414192D01*
X208450684Y-98391498D01*
X208436844Y-98365606D01*
X208428323Y-98337515D01*
X208425200Y-98305809D01*
X208425200Y-97909191D01*
X208428323Y-97877485D01*
X208436844Y-97849394D01*
X208450684Y-97823502D01*
X208469308Y-97800808D01*
X208492002Y-97782184D01*
X208517894Y-97768344D01*
X208545985Y-97759823D01*
X208577691Y-97756700D01*
X210424309Y-97756700D01*
X210456015Y-97759823D01*
X210456015Y-97759823D01*
G37*
G36*
X201156015Y-97759823D02*
G01*
X201184106Y-97768344D01*
X201209998Y-97782184D01*
X201232692Y-97800808D01*
X201251316Y-97823502D01*
X201265156Y-97849394D01*
X201273677Y-97877485D01*
X201276800Y-97909191D01*
X201276800Y-98305809D01*
X201273677Y-98337515D01*
X201265156Y-98365606D01*
X201251316Y-98391498D01*
X201232692Y-98414192D01*
X201209998Y-98432816D01*
X201184106Y-98446656D01*
X201156015Y-98455177D01*
X201124309Y-98458300D01*
X199277691Y-98458300D01*
X199245985Y-98455177D01*
X199217894Y-98446656D01*
X199192002Y-98432816D01*
X199169308Y-98414192D01*
X199150684Y-98391498D01*
X199136844Y-98365606D01*
X199128323Y-98337515D01*
X199125200Y-98305809D01*
X199125200Y-97909191D01*
X199128323Y-97877485D01*
X199136844Y-97849394D01*
X199150684Y-97823502D01*
X199169308Y-97800808D01*
X199192002Y-97782184D01*
X199217894Y-97768344D01*
X199245985Y-97759823D01*
X199277691Y-97756700D01*
X201124309Y-97756700D01*
X201156015Y-97759823D01*
X201156015Y-97759823D01*
G37*
G36*
X194410300Y-98082800D02*
G01*
X189308700Y-98082800D01*
X189308700Y-96481200D01*
X194410300Y-96481200D01*
X194410300Y-98082800D01*
X194410300Y-98082800D01*
G37*
G36*
X201156015Y-96489823D02*
G01*
X201184106Y-96498344D01*
X201209998Y-96512184D01*
X201232692Y-96530808D01*
X201251316Y-96553502D01*
X201265156Y-96579394D01*
X201273677Y-96607485D01*
X201276800Y-96639191D01*
X201276800Y-97035809D01*
X201273677Y-97067515D01*
X201265156Y-97095606D01*
X201251316Y-97121498D01*
X201232692Y-97144192D01*
X201209998Y-97162816D01*
X201184106Y-97176656D01*
X201156015Y-97185177D01*
X201124309Y-97188300D01*
X199277691Y-97188300D01*
X199245985Y-97185177D01*
X199217894Y-97176656D01*
X199192002Y-97162816D01*
X199169308Y-97144192D01*
X199150684Y-97121498D01*
X199136844Y-97095606D01*
X199128323Y-97067515D01*
X199125200Y-97035809D01*
X199125200Y-96639191D01*
X199128323Y-96607485D01*
X199136844Y-96579394D01*
X199150684Y-96553502D01*
X199169308Y-96530808D01*
X199192002Y-96512184D01*
X199217894Y-96498344D01*
X199245985Y-96489823D01*
X199277691Y-96486700D01*
X201124309Y-96486700D01*
X201156015Y-96489823D01*
X201156015Y-96489823D01*
G37*
G36*
X210456015Y-96489823D02*
G01*
X210484106Y-96498344D01*
X210509998Y-96512184D01*
X210532692Y-96530808D01*
X210551316Y-96553502D01*
X210565156Y-96579394D01*
X210573677Y-96607485D01*
X210576800Y-96639191D01*
X210576800Y-97035809D01*
X210573677Y-97067515D01*
X210565156Y-97095606D01*
X210551316Y-97121498D01*
X210532692Y-97144192D01*
X210509998Y-97162816D01*
X210484106Y-97176656D01*
X210456015Y-97185177D01*
X210424309Y-97188300D01*
X208577691Y-97188300D01*
X208545985Y-97185177D01*
X208517894Y-97176656D01*
X208492002Y-97162816D01*
X208469308Y-97144192D01*
X208450684Y-97121498D01*
X208436844Y-97095606D01*
X208428323Y-97067515D01*
X208425200Y-97035809D01*
X208425200Y-96639191D01*
X208428323Y-96607485D01*
X208436844Y-96579394D01*
X208450684Y-96553502D01*
X208469308Y-96530808D01*
X208492002Y-96512184D01*
X208517894Y-96498344D01*
X208545985Y-96489823D01*
X208577691Y-96486700D01*
X210424309Y-96486700D01*
X210456015Y-96489823D01*
X210456015Y-96489823D01*
G37*
G36*
X195914584Y-95794004D02*
G01*
X195959091Y-95807505D01*
X196000112Y-95829431D01*
X196036064Y-95858936D01*
X196065569Y-95894888D01*
X196087495Y-95935909D01*
X196100996Y-95980416D01*
X196105800Y-96029193D01*
X196105800Y-96700807D01*
X196100996Y-96749584D01*
X196087495Y-96794091D01*
X196065569Y-96835112D01*
X196036064Y-96871064D01*
X196000112Y-96900569D01*
X195959091Y-96922495D01*
X195914584Y-96935996D01*
X195865807Y-96940800D01*
X195294193Y-96940800D01*
X195245416Y-96935996D01*
X195200909Y-96922495D01*
X195159888Y-96900569D01*
X195123936Y-96871064D01*
X195094431Y-96835112D01*
X195072505Y-96794091D01*
X195059004Y-96749584D01*
X195054200Y-96700807D01*
X195054200Y-96029193D01*
X195059004Y-95980416D01*
X195072505Y-95935909D01*
X195094431Y-95894888D01*
X195123936Y-95858936D01*
X195159888Y-95829431D01*
X195200909Y-95807505D01*
X195245416Y-95794004D01*
X195294193Y-95789200D01*
X195865807Y-95789200D01*
X195914584Y-95794004D01*
X195914584Y-95794004D01*
G37*
G36*
X197819584Y-95794004D02*
G01*
X197864091Y-95807505D01*
X197905112Y-95829431D01*
X197941064Y-95858936D01*
X197970569Y-95894888D01*
X197992495Y-95935909D01*
X198005996Y-95980416D01*
X198010800Y-96029193D01*
X198010800Y-96700807D01*
X198005996Y-96749584D01*
X197992495Y-96794091D01*
X197970569Y-96835112D01*
X197941064Y-96871064D01*
X197905112Y-96900569D01*
X197864091Y-96922495D01*
X197819584Y-96935996D01*
X197770807Y-96940800D01*
X197199193Y-96940800D01*
X197150416Y-96935996D01*
X197105909Y-96922495D01*
X197064888Y-96900569D01*
X197028936Y-96871064D01*
X196999431Y-96835112D01*
X196977505Y-96794091D01*
X196964004Y-96749584D01*
X196959200Y-96700807D01*
X196959200Y-96029193D01*
X196964004Y-95980416D01*
X196977505Y-95935909D01*
X196999431Y-95894888D01*
X197028936Y-95858936D01*
X197064888Y-95829431D01*
X197105909Y-95807505D01*
X197150416Y-95794004D01*
X197199193Y-95789200D01*
X197770807Y-95789200D01*
X197819584Y-95794004D01*
X197819584Y-95794004D01*
G37*
G36*
X210456015Y-95219823D02*
G01*
X210484106Y-95228344D01*
X210509998Y-95242184D01*
X210532692Y-95260808D01*
X210551316Y-95283502D01*
X210565156Y-95309394D01*
X210573677Y-95337485D01*
X210576800Y-95369191D01*
X210576800Y-95765809D01*
X210573677Y-95797515D01*
X210565156Y-95825606D01*
X210551316Y-95851498D01*
X210532692Y-95874192D01*
X210509998Y-95892816D01*
X210484106Y-95906656D01*
X210456015Y-95915177D01*
X210424309Y-95918300D01*
X208577691Y-95918300D01*
X208545985Y-95915177D01*
X208517894Y-95906656D01*
X208492002Y-95892816D01*
X208469308Y-95874192D01*
X208450684Y-95851498D01*
X208436844Y-95825606D01*
X208428323Y-95797515D01*
X208425200Y-95765809D01*
X208425200Y-95369191D01*
X208428323Y-95337485D01*
X208436844Y-95309394D01*
X208450684Y-95283502D01*
X208469308Y-95260808D01*
X208492002Y-95242184D01*
X208517894Y-95228344D01*
X208545985Y-95219823D01*
X208577691Y-95216700D01*
X210424309Y-95216700D01*
X210456015Y-95219823D01*
X210456015Y-95219823D01*
G37*
G36*
X201156015Y-95219823D02*
G01*
X201184106Y-95228344D01*
X201209998Y-95242184D01*
X201232692Y-95260808D01*
X201251316Y-95283502D01*
X201265156Y-95309394D01*
X201273677Y-95337485D01*
X201276800Y-95369191D01*
X201276800Y-95765809D01*
X201273677Y-95797515D01*
X201265156Y-95825606D01*
X201251316Y-95851498D01*
X201232692Y-95874192D01*
X201209998Y-95892816D01*
X201184106Y-95906656D01*
X201156015Y-95915177D01*
X201124309Y-95918300D01*
X199277691Y-95918300D01*
X199245985Y-95915177D01*
X199217894Y-95906656D01*
X199192002Y-95892816D01*
X199169308Y-95874192D01*
X199150684Y-95851498D01*
X199136844Y-95825606D01*
X199128323Y-95797515D01*
X199125200Y-95765809D01*
X199125200Y-95369191D01*
X199128323Y-95337485D01*
X199136844Y-95309394D01*
X199150684Y-95283502D01*
X199169308Y-95260808D01*
X199192002Y-95242184D01*
X199217894Y-95228344D01*
X199245985Y-95219823D01*
X199277691Y-95216700D01*
X201124309Y-95216700D01*
X201156015Y-95219823D01*
X201156015Y-95219823D01*
G37*
G36*
X215545800Y-95530800D02*
G01*
X212444200Y-95530800D01*
X212444200Y-92429200D01*
X215545800Y-92429200D01*
X215545800Y-95530800D01*
X215545800Y-95530800D01*
G37*
G36*
X197819584Y-94044004D02*
G01*
X197864091Y-94057505D01*
X197905112Y-94079431D01*
X197941064Y-94108936D01*
X197970569Y-94144888D01*
X197992495Y-94185909D01*
X198005996Y-94230416D01*
X198010800Y-94279193D01*
X198010800Y-94950807D01*
X198005996Y-94999584D01*
X197992495Y-95044091D01*
X197970569Y-95085112D01*
X197941064Y-95121064D01*
X197905112Y-95150569D01*
X197864091Y-95172495D01*
X197819584Y-95185996D01*
X197770807Y-95190800D01*
X197199193Y-95190800D01*
X197150416Y-95185996D01*
X197105909Y-95172495D01*
X197064888Y-95150569D01*
X197028936Y-95121064D01*
X196999431Y-95085112D01*
X196977505Y-95044091D01*
X196964004Y-94999584D01*
X196959200Y-94950807D01*
X196959200Y-94279193D01*
X196964004Y-94230416D01*
X196977505Y-94185909D01*
X196999431Y-94144888D01*
X197028936Y-94108936D01*
X197064888Y-94079431D01*
X197105909Y-94057505D01*
X197150416Y-94044004D01*
X197199193Y-94039200D01*
X197770807Y-94039200D01*
X197819584Y-94044004D01*
X197819584Y-94044004D01*
G37*
G36*
X195914584Y-94044004D02*
G01*
X195959091Y-94057505D01*
X196000112Y-94079431D01*
X196036064Y-94108936D01*
X196065569Y-94144888D01*
X196087495Y-94185909D01*
X196100996Y-94230416D01*
X196105800Y-94279193D01*
X196105800Y-94950807D01*
X196100996Y-94999584D01*
X196087495Y-95044091D01*
X196065569Y-95085112D01*
X196036064Y-95121064D01*
X196000112Y-95150569D01*
X195959091Y-95172495D01*
X195914584Y-95185996D01*
X195865807Y-95190800D01*
X195294193Y-95190800D01*
X195245416Y-95185996D01*
X195200909Y-95172495D01*
X195159888Y-95150569D01*
X195123936Y-95121064D01*
X195094431Y-95085112D01*
X195072505Y-95044091D01*
X195059004Y-94999584D01*
X195054200Y-94950807D01*
X195054200Y-94279193D01*
X195059004Y-94230416D01*
X195072505Y-94185909D01*
X195094431Y-94144888D01*
X195123936Y-94108936D01*
X195159888Y-94079431D01*
X195200909Y-94057505D01*
X195245416Y-94044004D01*
X195294193Y-94039200D01*
X195865807Y-94039200D01*
X195914584Y-94044004D01*
X195914584Y-94044004D01*
G37*
G36*
X201156015Y-93949823D02*
G01*
X201184106Y-93958344D01*
X201209998Y-93972184D01*
X201232692Y-93990808D01*
X201251316Y-94013502D01*
X201265156Y-94039394D01*
X201273677Y-94067485D01*
X201276800Y-94099191D01*
X201276800Y-94495809D01*
X201273677Y-94527515D01*
X201265156Y-94555606D01*
X201251316Y-94581498D01*
X201232692Y-94604192D01*
X201209998Y-94622816D01*
X201184106Y-94636656D01*
X201156015Y-94645177D01*
X201124309Y-94648300D01*
X199277691Y-94648300D01*
X199245985Y-94645177D01*
X199217894Y-94636656D01*
X199192002Y-94622816D01*
X199169308Y-94604192D01*
X199150684Y-94581498D01*
X199136844Y-94555606D01*
X199128323Y-94527515D01*
X199125200Y-94495809D01*
X199125200Y-94099191D01*
X199128323Y-94067485D01*
X199136844Y-94039394D01*
X199150684Y-94013502D01*
X199169308Y-93990808D01*
X199192002Y-93972184D01*
X199217894Y-93958344D01*
X199245985Y-93949823D01*
X199277691Y-93946700D01*
X201124309Y-93946700D01*
X201156015Y-93949823D01*
X201156015Y-93949823D01*
G37*
G36*
X210456015Y-93949823D02*
G01*
X210484106Y-93958344D01*
X210509998Y-93972184D01*
X210532692Y-93990808D01*
X210551316Y-94013502D01*
X210565156Y-94039394D01*
X210573677Y-94067485D01*
X210576800Y-94099191D01*
X210576800Y-94495809D01*
X210573677Y-94527515D01*
X210565156Y-94555606D01*
X210551316Y-94581498D01*
X210532692Y-94604192D01*
X210509998Y-94622816D01*
X210484106Y-94636656D01*
X210456015Y-94645177D01*
X210424309Y-94648300D01*
X208577691Y-94648300D01*
X208545985Y-94645177D01*
X208517894Y-94636656D01*
X208492002Y-94622816D01*
X208469308Y-94604192D01*
X208450684Y-94581498D01*
X208436844Y-94555606D01*
X208428323Y-94527515D01*
X208425200Y-94495809D01*
X208425200Y-94099191D01*
X208428323Y-94067485D01*
X208436844Y-94039394D01*
X208450684Y-94013502D01*
X208469308Y-93990808D01*
X208492002Y-93972184D01*
X208517894Y-93958344D01*
X208545985Y-93949823D01*
X208577691Y-93946700D01*
X210424309Y-93946700D01*
X210456015Y-93949823D01*
X210456015Y-93949823D01*
G37*
G36*
X195914584Y-92365004D02*
G01*
X195959091Y-92378505D01*
X196000112Y-92400431D01*
X196036064Y-92429936D01*
X196065569Y-92465888D01*
X196087495Y-92506909D01*
X196100996Y-92551416D01*
X196105800Y-92600193D01*
X196105800Y-93271807D01*
X196100996Y-93320584D01*
X196087495Y-93365091D01*
X196065569Y-93406112D01*
X196036064Y-93442064D01*
X196000112Y-93471569D01*
X195959091Y-93493495D01*
X195914584Y-93506996D01*
X195865807Y-93511800D01*
X195294193Y-93511800D01*
X195245416Y-93506996D01*
X195200909Y-93493495D01*
X195159888Y-93471569D01*
X195123936Y-93442064D01*
X195094431Y-93406112D01*
X195072505Y-93365091D01*
X195059004Y-93320584D01*
X195054200Y-93271807D01*
X195054200Y-92600193D01*
X195059004Y-92551416D01*
X195072505Y-92506909D01*
X195094431Y-92465888D01*
X195123936Y-92429936D01*
X195159888Y-92400431D01*
X195200909Y-92378505D01*
X195245416Y-92365004D01*
X195294193Y-92360200D01*
X195865807Y-92360200D01*
X195914584Y-92365004D01*
X195914584Y-92365004D01*
G37*
G36*
X210456015Y-92679823D02*
G01*
X210484106Y-92688344D01*
X210509998Y-92702184D01*
X210532692Y-92720808D01*
X210551316Y-92743502D01*
X210565156Y-92769394D01*
X210573677Y-92797485D01*
X210576800Y-92829191D01*
X210576800Y-93225809D01*
X210573677Y-93257515D01*
X210565156Y-93285606D01*
X210551316Y-93311498D01*
X210532692Y-93334192D01*
X210509998Y-93352816D01*
X210484106Y-93366656D01*
X210456015Y-93375177D01*
X210424309Y-93378300D01*
X208577691Y-93378300D01*
X208545985Y-93375177D01*
X208517894Y-93366656D01*
X208492002Y-93352816D01*
X208469308Y-93334192D01*
X208450684Y-93311498D01*
X208436844Y-93285606D01*
X208428323Y-93257515D01*
X208425200Y-93225809D01*
X208425200Y-92829191D01*
X208428323Y-92797485D01*
X208436844Y-92769394D01*
X208450684Y-92743502D01*
X208469308Y-92720808D01*
X208492002Y-92702184D01*
X208517894Y-92688344D01*
X208545985Y-92679823D01*
X208577691Y-92676700D01*
X210424309Y-92676700D01*
X210456015Y-92679823D01*
X210456015Y-92679823D01*
G37*
G36*
X201156015Y-92679823D02*
G01*
X201184106Y-92688344D01*
X201209998Y-92702184D01*
X201232692Y-92720808D01*
X201251316Y-92743502D01*
X201265156Y-92769394D01*
X201273677Y-92797485D01*
X201276800Y-92829191D01*
X201276800Y-93225809D01*
X201273677Y-93257515D01*
X201265156Y-93285606D01*
X201251316Y-93311498D01*
X201232692Y-93334192D01*
X201209998Y-93352816D01*
X201184106Y-93366656D01*
X201156015Y-93375177D01*
X201124309Y-93378300D01*
X199277691Y-93378300D01*
X199245985Y-93375177D01*
X199217894Y-93366656D01*
X199192002Y-93352816D01*
X199169308Y-93334192D01*
X199150684Y-93311498D01*
X199136844Y-93285606D01*
X199128323Y-93257515D01*
X199125200Y-93225809D01*
X199125200Y-92829191D01*
X199128323Y-92797485D01*
X199136844Y-92769394D01*
X199150684Y-92743502D01*
X199169308Y-92720808D01*
X199192002Y-92702184D01*
X199217894Y-92688344D01*
X199245985Y-92679823D01*
X199277691Y-92676700D01*
X201124309Y-92676700D01*
X201156015Y-92679823D01*
X201156015Y-92679823D01*
G37*
G36*
X194410300Y-92182800D02*
G01*
X189308700Y-92182800D01*
X189308700Y-90581200D01*
X194410300Y-90581200D01*
X194410300Y-92182800D01*
X194410300Y-92182800D01*
G37*
G36*
X201156015Y-91409823D02*
G01*
X201184106Y-91418344D01*
X201209998Y-91432184D01*
X201232692Y-91450808D01*
X201251316Y-91473502D01*
X201265156Y-91499394D01*
X201273677Y-91527485D01*
X201276800Y-91559191D01*
X201276800Y-91955809D01*
X201273677Y-91987515D01*
X201265156Y-92015606D01*
X201251316Y-92041498D01*
X201232692Y-92064192D01*
X201209998Y-92082816D01*
X201184106Y-92096656D01*
X201156015Y-92105177D01*
X201124309Y-92108300D01*
X199277691Y-92108300D01*
X199245985Y-92105177D01*
X199217894Y-92096656D01*
X199192002Y-92082816D01*
X199169308Y-92064192D01*
X199150684Y-92041498D01*
X199136844Y-92015606D01*
X199128323Y-91987515D01*
X199125200Y-91955809D01*
X199125200Y-91559191D01*
X199128323Y-91527485D01*
X199136844Y-91499394D01*
X199150684Y-91473502D01*
X199169308Y-91450808D01*
X199192002Y-91432184D01*
X199217894Y-91418344D01*
X199245985Y-91409823D01*
X199277691Y-91406700D01*
X201124309Y-91406700D01*
X201156015Y-91409823D01*
X201156015Y-91409823D01*
G37*
G36*
X210456015Y-91409823D02*
G01*
X210484106Y-91418344D01*
X210509998Y-91432184D01*
X210532692Y-91450808D01*
X210551316Y-91473502D01*
X210565156Y-91499394D01*
X210573677Y-91527485D01*
X210576800Y-91559191D01*
X210576800Y-91955809D01*
X210573677Y-91987515D01*
X210565156Y-92015606D01*
X210551316Y-92041498D01*
X210532692Y-92064192D01*
X210509998Y-92082816D01*
X210484106Y-92096656D01*
X210456015Y-92105177D01*
X210424309Y-92108300D01*
X208577691Y-92108300D01*
X208545985Y-92105177D01*
X208517894Y-92096656D01*
X208492002Y-92082816D01*
X208469308Y-92064192D01*
X208450684Y-92041498D01*
X208436844Y-92015606D01*
X208428323Y-91987515D01*
X208425200Y-91955809D01*
X208425200Y-91559191D01*
X208428323Y-91527485D01*
X208436844Y-91499394D01*
X208450684Y-91473502D01*
X208469308Y-91450808D01*
X208492002Y-91432184D01*
X208517894Y-91418344D01*
X208545985Y-91409823D01*
X208577691Y-91406700D01*
X210424309Y-91406700D01*
X210456015Y-91409823D01*
X210456015Y-91409823D01*
G37*
G36*
X195914584Y-90615004D02*
G01*
X195959091Y-90628505D01*
X196000112Y-90650431D01*
X196036064Y-90679936D01*
X196065569Y-90715888D01*
X196087495Y-90756909D01*
X196100996Y-90801416D01*
X196105800Y-90850193D01*
X196105800Y-91521807D01*
X196100996Y-91570584D01*
X196087495Y-91615091D01*
X196065569Y-91656112D01*
X196036064Y-91692064D01*
X196000112Y-91721569D01*
X195959091Y-91743495D01*
X195914584Y-91756996D01*
X195865807Y-91761800D01*
X195294193Y-91761800D01*
X195245416Y-91756996D01*
X195200909Y-91743495D01*
X195159888Y-91721569D01*
X195123936Y-91692064D01*
X195094431Y-91656112D01*
X195072505Y-91615091D01*
X195059004Y-91570584D01*
X195054200Y-91521807D01*
X195054200Y-90850193D01*
X195059004Y-90801416D01*
X195072505Y-90756909D01*
X195094431Y-90715888D01*
X195123936Y-90679936D01*
X195159888Y-90650431D01*
X195200909Y-90628505D01*
X195245416Y-90615004D01*
X195294193Y-90610200D01*
X195865807Y-90610200D01*
X195914584Y-90615004D01*
X195914584Y-90615004D01*
G37*
G36*
X201156015Y-90139823D02*
G01*
X201184106Y-90148344D01*
X201209998Y-90162184D01*
X201232692Y-90180808D01*
X201251316Y-90203502D01*
X201265156Y-90229394D01*
X201273677Y-90257485D01*
X201276800Y-90289191D01*
X201276800Y-90685809D01*
X201273677Y-90717515D01*
X201265156Y-90745606D01*
X201251316Y-90771498D01*
X201232692Y-90794192D01*
X201209998Y-90812816D01*
X201184106Y-90826656D01*
X201156015Y-90835177D01*
X201124309Y-90838300D01*
X199277691Y-90838300D01*
X199245985Y-90835177D01*
X199217894Y-90826656D01*
X199192002Y-90812816D01*
X199169308Y-90794192D01*
X199150684Y-90771498D01*
X199136844Y-90745606D01*
X199128323Y-90717515D01*
X199125200Y-90685809D01*
X199125200Y-90289191D01*
X199128323Y-90257485D01*
X199136844Y-90229394D01*
X199150684Y-90203502D01*
X199169308Y-90180808D01*
X199192002Y-90162184D01*
X199217894Y-90148344D01*
X199245985Y-90139823D01*
X199277691Y-90136700D01*
X201124309Y-90136700D01*
X201156015Y-90139823D01*
X201156015Y-90139823D01*
G37*
G36*
X210456015Y-90139823D02*
G01*
X210484106Y-90148344D01*
X210509998Y-90162184D01*
X210532692Y-90180808D01*
X210551316Y-90203502D01*
X210565156Y-90229394D01*
X210573677Y-90257485D01*
X210576800Y-90289191D01*
X210576800Y-90685809D01*
X210573677Y-90717515D01*
X210565156Y-90745606D01*
X210551316Y-90771498D01*
X210532692Y-90794192D01*
X210509998Y-90812816D01*
X210484106Y-90826656D01*
X210456015Y-90835177D01*
X210424309Y-90838300D01*
X208577691Y-90838300D01*
X208545985Y-90835177D01*
X208517894Y-90826656D01*
X208492002Y-90812816D01*
X208469308Y-90794192D01*
X208450684Y-90771498D01*
X208436844Y-90745606D01*
X208428323Y-90717515D01*
X208425200Y-90685809D01*
X208425200Y-90289191D01*
X208428323Y-90257485D01*
X208436844Y-90229394D01*
X208450684Y-90203502D01*
X208469308Y-90180808D01*
X208492002Y-90162184D01*
X208517894Y-90148344D01*
X208545985Y-90139823D01*
X208577691Y-90136700D01*
X210424309Y-90136700D01*
X210456015Y-90139823D01*
X210456015Y-90139823D01*
G37*
G36*
X190277584Y-88887004D02*
G01*
X190322091Y-88900505D01*
X190363112Y-88922431D01*
X190399064Y-88951936D01*
X190428569Y-88987888D01*
X190450495Y-89028909D01*
X190463996Y-89073416D01*
X190468800Y-89122193D01*
X190468800Y-89693807D01*
X190463996Y-89742584D01*
X190450495Y-89787091D01*
X190428569Y-89828112D01*
X190399064Y-89864064D01*
X190363112Y-89893569D01*
X190322091Y-89915495D01*
X190277584Y-89928996D01*
X190228807Y-89933800D01*
X189557193Y-89933800D01*
X189508416Y-89928996D01*
X189463909Y-89915495D01*
X189422888Y-89893569D01*
X189386936Y-89864064D01*
X189357431Y-89828112D01*
X189335505Y-89787091D01*
X189322004Y-89742584D01*
X189317200Y-89693807D01*
X189317200Y-89122193D01*
X189322004Y-89073416D01*
X189335505Y-89028909D01*
X189357431Y-88987888D01*
X189386936Y-88951936D01*
X189422888Y-88922431D01*
X189463909Y-88900505D01*
X189508416Y-88887004D01*
X189557193Y-88882200D01*
X190228807Y-88882200D01*
X190277584Y-88887004D01*
X190277584Y-88887004D01*
G37*
G36*
X192027584Y-88887004D02*
G01*
X192072091Y-88900505D01*
X192113112Y-88922431D01*
X192149064Y-88951936D01*
X192178569Y-88987888D01*
X192200495Y-89028909D01*
X192213996Y-89073416D01*
X192218800Y-89122193D01*
X192218800Y-89693807D01*
X192213996Y-89742584D01*
X192200495Y-89787091D01*
X192178569Y-89828112D01*
X192149064Y-89864064D01*
X192113112Y-89893569D01*
X192072091Y-89915495D01*
X192027584Y-89928996D01*
X191978807Y-89933800D01*
X191307193Y-89933800D01*
X191258416Y-89928996D01*
X191213909Y-89915495D01*
X191172888Y-89893569D01*
X191136936Y-89864064D01*
X191107431Y-89828112D01*
X191085505Y-89787091D01*
X191072004Y-89742584D01*
X191067200Y-89693807D01*
X191067200Y-89122193D01*
X191072004Y-89073416D01*
X191085505Y-89028909D01*
X191107431Y-88987888D01*
X191136936Y-88951936D01*
X191172888Y-88922431D01*
X191213909Y-88900505D01*
X191258416Y-88887004D01*
X191307193Y-88882200D01*
X191978807Y-88882200D01*
X192027584Y-88887004D01*
X192027584Y-88887004D01*
G37*
G36*
X208763584Y-88125004D02*
G01*
X208808091Y-88138505D01*
X208849112Y-88160431D01*
X208885064Y-88189936D01*
X208914569Y-88225888D01*
X208936495Y-88266909D01*
X208949996Y-88311416D01*
X208954800Y-88360193D01*
X208954800Y-88931807D01*
X208949996Y-88980584D01*
X208936495Y-89025091D01*
X208914569Y-89066112D01*
X208885064Y-89102064D01*
X208849112Y-89131569D01*
X208808091Y-89153495D01*
X208763584Y-89166996D01*
X208714807Y-89171800D01*
X208043193Y-89171800D01*
X207994416Y-89166996D01*
X207949909Y-89153495D01*
X207908888Y-89131569D01*
X207872936Y-89102064D01*
X207843431Y-89066112D01*
X207821505Y-89025091D01*
X207808004Y-88980584D01*
X207803200Y-88931807D01*
X207803200Y-88360193D01*
X207808004Y-88311416D01*
X207821505Y-88266909D01*
X207843431Y-88225888D01*
X207872936Y-88189936D01*
X207908888Y-88160431D01*
X207949909Y-88138505D01*
X207994416Y-88125004D01*
X208043193Y-88120200D01*
X208714807Y-88120200D01*
X208763584Y-88125004D01*
X208763584Y-88125004D01*
G37*
G36*
X200056584Y-88125004D02*
G01*
X200101091Y-88138505D01*
X200142112Y-88160431D01*
X200178064Y-88189936D01*
X200207569Y-88225888D01*
X200229495Y-88266909D01*
X200242996Y-88311416D01*
X200247800Y-88360193D01*
X200247800Y-88931807D01*
X200242996Y-88980584D01*
X200229495Y-89025091D01*
X200207569Y-89066112D01*
X200178064Y-89102064D01*
X200142112Y-89131569D01*
X200101091Y-89153495D01*
X200056584Y-89166996D01*
X200007807Y-89171800D01*
X199336193Y-89171800D01*
X199287416Y-89166996D01*
X199242909Y-89153495D01*
X199201888Y-89131569D01*
X199165936Y-89102064D01*
X199136431Y-89066112D01*
X199114505Y-89025091D01*
X199101004Y-88980584D01*
X199096200Y-88931807D01*
X199096200Y-88360193D01*
X199101004Y-88311416D01*
X199114505Y-88266909D01*
X199136431Y-88225888D01*
X199165936Y-88189936D01*
X199201888Y-88160431D01*
X199242909Y-88138505D01*
X199287416Y-88125004D01*
X199336193Y-88120200D01*
X200007807Y-88120200D01*
X200056584Y-88125004D01*
X200056584Y-88125004D01*
G37*
G36*
X201806584Y-88125004D02*
G01*
X201851091Y-88138505D01*
X201892112Y-88160431D01*
X201928064Y-88189936D01*
X201957569Y-88225888D01*
X201979495Y-88266909D01*
X201992996Y-88311416D01*
X201997800Y-88360193D01*
X201997800Y-88931807D01*
X201992996Y-88980584D01*
X201979495Y-89025091D01*
X201957569Y-89066112D01*
X201928064Y-89102064D01*
X201892112Y-89131569D01*
X201851091Y-89153495D01*
X201806584Y-89166996D01*
X201757807Y-89171800D01*
X201086193Y-89171800D01*
X201037416Y-89166996D01*
X200992909Y-89153495D01*
X200951888Y-89131569D01*
X200915936Y-89102064D01*
X200886431Y-89066112D01*
X200864505Y-89025091D01*
X200851004Y-88980584D01*
X200846200Y-88931807D01*
X200846200Y-88360193D01*
X200851004Y-88311416D01*
X200864505Y-88266909D01*
X200886431Y-88225888D01*
X200915936Y-88189936D01*
X200951888Y-88160431D01*
X200992909Y-88138505D01*
X201037416Y-88125004D01*
X201086193Y-88120200D01*
X201757807Y-88120200D01*
X201806584Y-88125004D01*
X201806584Y-88125004D01*
G37*
G36*
X205334584Y-88125004D02*
G01*
X205379091Y-88138505D01*
X205420112Y-88160431D01*
X205456064Y-88189936D01*
X205485569Y-88225888D01*
X205507495Y-88266909D01*
X205520996Y-88311416D01*
X205525800Y-88360193D01*
X205525800Y-88931807D01*
X205520996Y-88980584D01*
X205507495Y-89025091D01*
X205485569Y-89066112D01*
X205456064Y-89102064D01*
X205420112Y-89131569D01*
X205379091Y-89153495D01*
X205334584Y-89166996D01*
X205285807Y-89171800D01*
X204614193Y-89171800D01*
X204565416Y-89166996D01*
X204520909Y-89153495D01*
X204479888Y-89131569D01*
X204443936Y-89102064D01*
X204414431Y-89066112D01*
X204392505Y-89025091D01*
X204379004Y-88980584D01*
X204374200Y-88931807D01*
X204374200Y-88360193D01*
X204379004Y-88311416D01*
X204392505Y-88266909D01*
X204414431Y-88225888D01*
X204443936Y-88189936D01*
X204479888Y-88160431D01*
X204520909Y-88138505D01*
X204565416Y-88125004D01*
X204614193Y-88120200D01*
X205285807Y-88120200D01*
X205334584Y-88125004D01*
X205334584Y-88125004D01*
G37*
G36*
X203584584Y-88125004D02*
G01*
X203629091Y-88138505D01*
X203670112Y-88160431D01*
X203706064Y-88189936D01*
X203735569Y-88225888D01*
X203757495Y-88266909D01*
X203770996Y-88311416D01*
X203775800Y-88360193D01*
X203775800Y-88931807D01*
X203770996Y-88980584D01*
X203757495Y-89025091D01*
X203735569Y-89066112D01*
X203706064Y-89102064D01*
X203670112Y-89131569D01*
X203629091Y-89153495D01*
X203584584Y-89166996D01*
X203535807Y-89171800D01*
X202864193Y-89171800D01*
X202815416Y-89166996D01*
X202770909Y-89153495D01*
X202729888Y-89131569D01*
X202693936Y-89102064D01*
X202664431Y-89066112D01*
X202642505Y-89025091D01*
X202629004Y-88980584D01*
X202624200Y-88931807D01*
X202624200Y-88360193D01*
X202629004Y-88311416D01*
X202642505Y-88266909D01*
X202664431Y-88225888D01*
X202693936Y-88189936D01*
X202729888Y-88160431D01*
X202770909Y-88138505D01*
X202815416Y-88125004D01*
X202864193Y-88120200D01*
X203535807Y-88120200D01*
X203584584Y-88125004D01*
X203584584Y-88125004D01*
G37*
G36*
X207013584Y-88125004D02*
G01*
X207058091Y-88138505D01*
X207099112Y-88160431D01*
X207135064Y-88189936D01*
X207164569Y-88225888D01*
X207186495Y-88266909D01*
X207199996Y-88311416D01*
X207204800Y-88360193D01*
X207204800Y-88931807D01*
X207199996Y-88980584D01*
X207186495Y-89025091D01*
X207164569Y-89066112D01*
X207135064Y-89102064D01*
X207099112Y-89131569D01*
X207058091Y-89153495D01*
X207013584Y-89166996D01*
X206964807Y-89171800D01*
X206293193Y-89171800D01*
X206244416Y-89166996D01*
X206199909Y-89153495D01*
X206158888Y-89131569D01*
X206122936Y-89102064D01*
X206093431Y-89066112D01*
X206071505Y-89025091D01*
X206058004Y-88980584D01*
X206053200Y-88931807D01*
X206053200Y-88360193D01*
X206058004Y-88311416D01*
X206071505Y-88266909D01*
X206093431Y-88225888D01*
X206122936Y-88189936D01*
X206158888Y-88160431D01*
X206199909Y-88138505D01*
X206244416Y-88125004D01*
X206293193Y-88120200D01*
X206964807Y-88120200D01*
X207013584Y-88125004D01*
X207013584Y-88125004D01*
G37*
G36*
X196627584Y-88125004D02*
G01*
X196672091Y-88138505D01*
X196713112Y-88160431D01*
X196749064Y-88189936D01*
X196778569Y-88225888D01*
X196800495Y-88266909D01*
X196813996Y-88311416D01*
X196818800Y-88360193D01*
X196818800Y-88931807D01*
X196813996Y-88980584D01*
X196800495Y-89025091D01*
X196778569Y-89066112D01*
X196749064Y-89102064D01*
X196713112Y-89131569D01*
X196672091Y-89153495D01*
X196627584Y-89166996D01*
X196578807Y-89171800D01*
X195907193Y-89171800D01*
X195858416Y-89166996D01*
X195813909Y-89153495D01*
X195772888Y-89131569D01*
X195736936Y-89102064D01*
X195707431Y-89066112D01*
X195685505Y-89025091D01*
X195672004Y-88980584D01*
X195667200Y-88931807D01*
X195667200Y-88360193D01*
X195672004Y-88311416D01*
X195685505Y-88266909D01*
X195707431Y-88225888D01*
X195736936Y-88189936D01*
X195772888Y-88160431D01*
X195813909Y-88138505D01*
X195858416Y-88125004D01*
X195907193Y-88120200D01*
X196578807Y-88120200D01*
X196627584Y-88125004D01*
X196627584Y-88125004D01*
G37*
G36*
X198377584Y-88125004D02*
G01*
X198422091Y-88138505D01*
X198463112Y-88160431D01*
X198499064Y-88189936D01*
X198528569Y-88225888D01*
X198550495Y-88266909D01*
X198563996Y-88311416D01*
X198568800Y-88360193D01*
X198568800Y-88931807D01*
X198563996Y-88980584D01*
X198550495Y-89025091D01*
X198528569Y-89066112D01*
X198499064Y-89102064D01*
X198463112Y-89131569D01*
X198422091Y-89153495D01*
X198377584Y-89166996D01*
X198328807Y-89171800D01*
X197657193Y-89171800D01*
X197608416Y-89166996D01*
X197563909Y-89153495D01*
X197522888Y-89131569D01*
X197486936Y-89102064D01*
X197457431Y-89066112D01*
X197435505Y-89025091D01*
X197422004Y-88980584D01*
X197417200Y-88931807D01*
X197417200Y-88360193D01*
X197422004Y-88311416D01*
X197435505Y-88266909D01*
X197457431Y-88225888D01*
X197486936Y-88189936D01*
X197522888Y-88160431D01*
X197563909Y-88138505D01*
X197608416Y-88125004D01*
X197657193Y-88120200D01*
X198328807Y-88120200D01*
X198377584Y-88125004D01*
X198377584Y-88125004D01*
G37*
G36*
X147085731Y-81675655D02*
G01*
X147731935Y-81943321D01*
X148313505Y-82331914D01*
X148808086Y-82826495D01*
X149196679Y-83408065D01*
X149464345Y-84054269D01*
X149600800Y-84740276D01*
X149600800Y-85439724D01*
X149464345Y-86125731D01*
X149196679Y-86771935D01*
X148808086Y-87353505D01*
X148313505Y-87848086D01*
X147731935Y-88236679D01*
X147085731Y-88504345D01*
X146399724Y-88640800D01*
X145700276Y-88640800D01*
X145014269Y-88504345D01*
X144368065Y-88236679D01*
X143786495Y-87848086D01*
X143291914Y-87353505D01*
X142903321Y-86771935D01*
X142635655Y-86125731D01*
X142499200Y-85439724D01*
X142499200Y-84740276D01*
X142635655Y-84054269D01*
X142903321Y-83408065D01*
X143291914Y-82826495D01*
X143786495Y-82331914D01*
X144368065Y-81943321D01*
X145014269Y-81675655D01*
X145700276Y-81539200D01*
X146399724Y-81539200D01*
X147085731Y-81675655D01*
X147085731Y-81675655D01*
G37*
G36*
X215665731Y-81675655D02*
G01*
X216311935Y-81943321D01*
X216893505Y-82331914D01*
X217388086Y-82826495D01*
X217776679Y-83408065D01*
X218044345Y-84054269D01*
X218180800Y-84740276D01*
X218180800Y-85439724D01*
X218044345Y-86125731D01*
X217776679Y-86771935D01*
X217388086Y-87353505D01*
X216893505Y-87848086D01*
X216311935Y-88236679D01*
X215665731Y-88504345D01*
X214979724Y-88640800D01*
X214280276Y-88640800D01*
X213594269Y-88504345D01*
X212948065Y-88236679D01*
X212366495Y-87848086D01*
X211871914Y-87353505D01*
X211483321Y-86771935D01*
X211215655Y-86125731D01*
X211079200Y-85439724D01*
X211079200Y-84740276D01*
X211215655Y-84054269D01*
X211483321Y-83408065D01*
X211871914Y-82826495D01*
X212366495Y-82331914D01*
X212948065Y-81943321D01*
X213594269Y-81675655D01*
X214280276Y-81539200D01*
X214979724Y-81539200D01*
X215665731Y-81675655D01*
X215665731Y-81675655D01*
G37*
G36*
X190295584Y-84837233D02*
G01*
X190295587Y-84837234D01*
X190295588Y-84837234D01*
X190465389Y-84888743D01*
X190512861Y-84914117D01*
X190621881Y-84972389D01*
X190759044Y-85084956D01*
X190871611Y-85222119D01*
X190929883Y-85331139D01*
X190955257Y-85378611D01*
X191006766Y-85548412D01*
X191006767Y-85548416D01*
X191024159Y-85725000D01*
X191006767Y-85901584D01*
X191006766Y-85901587D01*
X191006766Y-85901588D01*
X190955257Y-86071389D01*
X190955256Y-86071390D01*
X190871611Y-86227881D01*
X190759044Y-86365044D01*
X190621881Y-86477611D01*
X190512861Y-86535883D01*
X190465389Y-86561257D01*
X190295588Y-86612766D01*
X190295587Y-86612766D01*
X190295584Y-86612767D01*
X190163255Y-86625800D01*
X190074745Y-86625800D01*
X189942416Y-86612767D01*
X189942413Y-86612766D01*
X189942412Y-86612766D01*
X189772611Y-86561257D01*
X189725139Y-86535883D01*
X189616119Y-86477611D01*
X189478956Y-86365044D01*
X189366389Y-86227881D01*
X189282744Y-86071390D01*
X189282743Y-86071389D01*
X189231234Y-85901588D01*
X189231234Y-85901587D01*
X189231233Y-85901584D01*
X189213841Y-85725000D01*
X189231233Y-85548416D01*
X189231234Y-85548412D01*
X189282743Y-85378611D01*
X189308117Y-85331139D01*
X189366389Y-85222119D01*
X189478956Y-85084956D01*
X189616119Y-84972389D01*
X189725139Y-84914117D01*
X189772611Y-84888743D01*
X189942412Y-84837234D01*
X189942413Y-84837234D01*
X189942416Y-84837233D01*
X190074745Y-84824200D01*
X190163255Y-84824200D01*
X190295584Y-84837233D01*
X190295584Y-84837233D01*
G37*
G36*
X192835584Y-84837233D02*
G01*
X192835587Y-84837234D01*
X192835588Y-84837234D01*
X193005389Y-84888743D01*
X193052861Y-84914117D01*
X193161881Y-84972389D01*
X193299044Y-85084956D01*
X193411611Y-85222119D01*
X193469883Y-85331139D01*
X193495257Y-85378611D01*
X193546766Y-85548412D01*
X193546767Y-85548416D01*
X193564159Y-85725000D01*
X193546767Y-85901584D01*
X193546766Y-85901587D01*
X193546766Y-85901588D01*
X193495257Y-86071389D01*
X193495256Y-86071390D01*
X193411611Y-86227881D01*
X193299044Y-86365044D01*
X193161881Y-86477611D01*
X193052861Y-86535883D01*
X193005389Y-86561257D01*
X192835588Y-86612766D01*
X192835587Y-86612766D01*
X192835584Y-86612767D01*
X192703255Y-86625800D01*
X192614745Y-86625800D01*
X192482416Y-86612767D01*
X192482413Y-86612766D01*
X192482412Y-86612766D01*
X192312611Y-86561257D01*
X192265139Y-86535883D01*
X192156119Y-86477611D01*
X192018956Y-86365044D01*
X191906389Y-86227881D01*
X191822744Y-86071390D01*
X191822743Y-86071389D01*
X191771234Y-85901588D01*
X191771234Y-85901587D01*
X191771233Y-85901584D01*
X191753841Y-85725000D01*
X191771233Y-85548416D01*
X191771234Y-85548412D01*
X191822743Y-85378611D01*
X191848117Y-85331139D01*
X191906389Y-85222119D01*
X192018956Y-85084956D01*
X192156119Y-84972389D01*
X192265139Y-84914117D01*
X192312611Y-84888743D01*
X192482412Y-84837234D01*
X192482413Y-84837234D01*
X192482416Y-84837233D01*
X192614745Y-84824200D01*
X192703255Y-84824200D01*
X192835584Y-84837233D01*
X192835584Y-84837233D01*
G37*
G36*
X195375584Y-84837233D02*
G01*
X195375587Y-84837234D01*
X195375588Y-84837234D01*
X195545389Y-84888743D01*
X195592861Y-84914117D01*
X195701881Y-84972389D01*
X195839044Y-85084956D01*
X195951611Y-85222119D01*
X196009883Y-85331139D01*
X196035257Y-85378611D01*
X196086766Y-85548412D01*
X196086767Y-85548416D01*
X196104159Y-85725000D01*
X196086767Y-85901584D01*
X196086766Y-85901587D01*
X196086766Y-85901588D01*
X196035257Y-86071389D01*
X196035256Y-86071390D01*
X195951611Y-86227881D01*
X195839044Y-86365044D01*
X195701881Y-86477611D01*
X195592861Y-86535883D01*
X195545389Y-86561257D01*
X195375588Y-86612766D01*
X195375587Y-86612766D01*
X195375584Y-86612767D01*
X195243255Y-86625800D01*
X195154745Y-86625800D01*
X195022416Y-86612767D01*
X195022413Y-86612766D01*
X195022412Y-86612766D01*
X194852611Y-86561257D01*
X194805139Y-86535883D01*
X194696119Y-86477611D01*
X194558956Y-86365044D01*
X194446389Y-86227881D01*
X194362744Y-86071390D01*
X194362743Y-86071389D01*
X194311234Y-85901588D01*
X194311234Y-85901587D01*
X194311233Y-85901584D01*
X194293841Y-85725000D01*
X194311233Y-85548416D01*
X194311234Y-85548412D01*
X194362743Y-85378611D01*
X194388117Y-85331139D01*
X194446389Y-85222119D01*
X194558956Y-85084956D01*
X194696119Y-84972389D01*
X194805139Y-84914117D01*
X194852611Y-84888743D01*
X195022412Y-84837234D01*
X195022413Y-84837234D01*
X195022416Y-84837233D01*
X195154745Y-84824200D01*
X195243255Y-84824200D01*
X195375584Y-84837233D01*
X195375584Y-84837233D01*
G37*
G36*
X197915584Y-84837233D02*
G01*
X197915587Y-84837234D01*
X197915588Y-84837234D01*
X198085389Y-84888743D01*
X198132861Y-84914117D01*
X198241881Y-84972389D01*
X198379044Y-85084956D01*
X198491611Y-85222119D01*
X198549883Y-85331139D01*
X198575257Y-85378611D01*
X198626766Y-85548412D01*
X198626767Y-85548416D01*
X198644159Y-85725000D01*
X198626767Y-85901584D01*
X198626766Y-85901587D01*
X198626766Y-85901588D01*
X198575257Y-86071389D01*
X198575256Y-86071390D01*
X198491611Y-86227881D01*
X198379044Y-86365044D01*
X198241881Y-86477611D01*
X198132861Y-86535883D01*
X198085389Y-86561257D01*
X197915588Y-86612766D01*
X197915587Y-86612766D01*
X197915584Y-86612767D01*
X197783255Y-86625800D01*
X197694745Y-86625800D01*
X197562416Y-86612767D01*
X197562413Y-86612766D01*
X197562412Y-86612766D01*
X197392611Y-86561257D01*
X197345139Y-86535883D01*
X197236119Y-86477611D01*
X197098956Y-86365044D01*
X196986389Y-86227881D01*
X196902744Y-86071390D01*
X196902743Y-86071389D01*
X196851234Y-85901588D01*
X196851234Y-85901587D01*
X196851233Y-85901584D01*
X196833841Y-85725000D01*
X196851233Y-85548416D01*
X196851234Y-85548412D01*
X196902743Y-85378611D01*
X196928117Y-85331139D01*
X196986389Y-85222119D01*
X197098956Y-85084956D01*
X197236119Y-84972389D01*
X197345139Y-84914117D01*
X197392611Y-84888743D01*
X197562412Y-84837234D01*
X197562413Y-84837234D01*
X197562416Y-84837233D01*
X197694745Y-84824200D01*
X197783255Y-84824200D01*
X197915584Y-84837233D01*
X197915584Y-84837233D01*
G37*
G36*
X200455584Y-84837233D02*
G01*
X200455587Y-84837234D01*
X200455588Y-84837234D01*
X200625389Y-84888743D01*
X200672861Y-84914117D01*
X200781881Y-84972389D01*
X200919044Y-85084956D01*
X201031611Y-85222119D01*
X201089883Y-85331139D01*
X201115257Y-85378611D01*
X201166766Y-85548412D01*
X201166767Y-85548416D01*
X201184159Y-85725000D01*
X201166767Y-85901584D01*
X201166766Y-85901587D01*
X201166766Y-85901588D01*
X201115257Y-86071389D01*
X201115256Y-86071390D01*
X201031611Y-86227881D01*
X200919044Y-86365044D01*
X200781881Y-86477611D01*
X200672861Y-86535883D01*
X200625389Y-86561257D01*
X200455588Y-86612766D01*
X200455587Y-86612766D01*
X200455584Y-86612767D01*
X200323255Y-86625800D01*
X200234745Y-86625800D01*
X200102416Y-86612767D01*
X200102413Y-86612766D01*
X200102412Y-86612766D01*
X199932611Y-86561257D01*
X199885139Y-86535883D01*
X199776119Y-86477611D01*
X199638956Y-86365044D01*
X199526389Y-86227881D01*
X199442744Y-86071390D01*
X199442743Y-86071389D01*
X199391234Y-85901588D01*
X199391234Y-85901587D01*
X199391233Y-85901584D01*
X199373841Y-85725000D01*
X199391233Y-85548416D01*
X199391234Y-85548412D01*
X199442743Y-85378611D01*
X199468117Y-85331139D01*
X199526389Y-85222119D01*
X199638956Y-85084956D01*
X199776119Y-84972389D01*
X199885139Y-84914117D01*
X199932611Y-84888743D01*
X200102412Y-84837234D01*
X200102413Y-84837234D01*
X200102416Y-84837233D01*
X200234745Y-84824200D01*
X200323255Y-84824200D01*
X200455584Y-84837233D01*
X200455584Y-84837233D01*
G37*
G36*
X202995584Y-84837233D02*
G01*
X202995587Y-84837234D01*
X202995588Y-84837234D01*
X203165389Y-84888743D01*
X203212861Y-84914117D01*
X203321881Y-84972389D01*
X203459044Y-85084956D01*
X203571611Y-85222119D01*
X203629883Y-85331139D01*
X203655257Y-85378611D01*
X203706766Y-85548412D01*
X203706767Y-85548416D01*
X203724159Y-85725000D01*
X203706767Y-85901584D01*
X203706766Y-85901587D01*
X203706766Y-85901588D01*
X203655257Y-86071389D01*
X203655256Y-86071390D01*
X203571611Y-86227881D01*
X203459044Y-86365044D01*
X203321881Y-86477611D01*
X203212861Y-86535883D01*
X203165389Y-86561257D01*
X202995588Y-86612766D01*
X202995587Y-86612766D01*
X202995584Y-86612767D01*
X202863255Y-86625800D01*
X202774745Y-86625800D01*
X202642416Y-86612767D01*
X202642413Y-86612766D01*
X202642412Y-86612766D01*
X202472611Y-86561257D01*
X202425139Y-86535883D01*
X202316119Y-86477611D01*
X202178956Y-86365044D01*
X202066389Y-86227881D01*
X201982744Y-86071390D01*
X201982743Y-86071389D01*
X201931234Y-85901588D01*
X201931234Y-85901587D01*
X201931233Y-85901584D01*
X201913841Y-85725000D01*
X201931233Y-85548416D01*
X201931234Y-85548412D01*
X201982743Y-85378611D01*
X202008117Y-85331139D01*
X202066389Y-85222119D01*
X202178956Y-85084956D01*
X202316119Y-84972389D01*
X202425139Y-84914117D01*
X202472611Y-84888743D01*
X202642412Y-84837234D01*
X202642413Y-84837234D01*
X202642416Y-84837233D01*
X202774745Y-84824200D01*
X202863255Y-84824200D01*
X202995584Y-84837233D01*
X202995584Y-84837233D01*
G37*
G36*
X205535584Y-84837233D02*
G01*
X205535587Y-84837234D01*
X205535588Y-84837234D01*
X205705389Y-84888743D01*
X205752861Y-84914117D01*
X205861881Y-84972389D01*
X205999044Y-85084956D01*
X206111611Y-85222119D01*
X206169883Y-85331139D01*
X206195257Y-85378611D01*
X206246766Y-85548412D01*
X206246767Y-85548416D01*
X206264159Y-85725000D01*
X206246767Y-85901584D01*
X206246766Y-85901587D01*
X206246766Y-85901588D01*
X206195257Y-86071389D01*
X206195256Y-86071390D01*
X206111611Y-86227881D01*
X205999044Y-86365044D01*
X205861881Y-86477611D01*
X205752861Y-86535883D01*
X205705389Y-86561257D01*
X205535588Y-86612766D01*
X205535587Y-86612766D01*
X205535584Y-86612767D01*
X205403255Y-86625800D01*
X205314745Y-86625800D01*
X205182416Y-86612767D01*
X205182413Y-86612766D01*
X205182412Y-86612766D01*
X205012611Y-86561257D01*
X204965139Y-86535883D01*
X204856119Y-86477611D01*
X204718956Y-86365044D01*
X204606389Y-86227881D01*
X204522744Y-86071390D01*
X204522743Y-86071389D01*
X204471234Y-85901588D01*
X204471234Y-85901587D01*
X204471233Y-85901584D01*
X204453841Y-85725000D01*
X204471233Y-85548416D01*
X204471234Y-85548412D01*
X204522743Y-85378611D01*
X204548117Y-85331139D01*
X204606389Y-85222119D01*
X204718956Y-85084956D01*
X204856119Y-84972389D01*
X204965139Y-84914117D01*
X205012611Y-84888743D01*
X205182412Y-84837234D01*
X205182413Y-84837234D01*
X205182416Y-84837233D01*
X205314745Y-84824200D01*
X205403255Y-84824200D01*
X205535584Y-84837233D01*
X205535584Y-84837233D01*
G37*
G36*
X187748800Y-86275800D02*
G01*
X186647200Y-86275800D01*
X186647200Y-85174200D01*
X187748800Y-85174200D01*
X187748800Y-86275800D01*
X187748800Y-86275800D01*
G37*
G36*
X208589500Y-85894800D02*
G01*
X207487900Y-85894800D01*
X207487900Y-84793200D01*
X208589500Y-84793200D01*
X208589500Y-85894800D01*
X208589500Y-85894800D01*
G37*
G36*
X180986800Y-85482800D02*
G01*
X179185200Y-85482800D01*
X179185200Y-83681200D01*
X180986800Y-83681200D01*
X180986800Y-85482800D01*
X180986800Y-85482800D01*
G37*
G36*
X182802584Y-83694233D02*
G01*
X182802587Y-83694234D01*
X182802588Y-83694234D01*
X182972389Y-83745743D01*
X182978295Y-83748900D01*
X183128881Y-83829389D01*
X183266044Y-83941956D01*
X183378611Y-84079119D01*
X183436883Y-84188139D01*
X183462257Y-84235611D01*
X183513766Y-84405412D01*
X183513767Y-84405416D01*
X183531159Y-84582000D01*
X183513767Y-84758584D01*
X183513766Y-84758587D01*
X183513766Y-84758588D01*
X183462257Y-84928389D01*
X183462256Y-84928390D01*
X183378611Y-85084881D01*
X183266044Y-85222044D01*
X183128881Y-85334611D01*
X183019861Y-85392883D01*
X182972389Y-85418257D01*
X182802588Y-85469766D01*
X182802587Y-85469766D01*
X182802584Y-85469767D01*
X182670255Y-85482800D01*
X182581745Y-85482800D01*
X182449416Y-85469767D01*
X182449413Y-85469766D01*
X182449412Y-85469766D01*
X182279611Y-85418257D01*
X182232139Y-85392883D01*
X182123119Y-85334611D01*
X181985956Y-85222044D01*
X181873389Y-85084881D01*
X181789744Y-84928390D01*
X181789743Y-84928389D01*
X181738234Y-84758588D01*
X181738234Y-84758587D01*
X181738233Y-84758584D01*
X181720841Y-84582000D01*
X181738233Y-84405416D01*
X181738234Y-84405412D01*
X181789743Y-84235611D01*
X181815117Y-84188139D01*
X181873389Y-84079119D01*
X181985956Y-83941956D01*
X182123119Y-83829389D01*
X182273705Y-83748900D01*
X182279611Y-83745743D01*
X182449412Y-83694234D01*
X182449413Y-83694234D01*
X182449416Y-83694233D01*
X182581745Y-83681200D01*
X182670255Y-83681200D01*
X182802584Y-83694233D01*
X182802584Y-83694233D01*
G37*
G36*
X192835584Y-82297233D02*
G01*
X192835587Y-82297234D01*
X192835588Y-82297234D01*
X193005389Y-82348743D01*
X193052861Y-82374117D01*
X193161881Y-82432389D01*
X193299044Y-82544956D01*
X193411611Y-82682119D01*
X193456999Y-82767036D01*
X193495257Y-82838611D01*
X193516582Y-82908911D01*
X193546767Y-83008416D01*
X193564159Y-83185000D01*
X193546767Y-83361584D01*
X193546766Y-83361587D01*
X193546766Y-83361588D01*
X193495257Y-83531389D01*
X193495256Y-83531390D01*
X193411611Y-83687881D01*
X193299044Y-83825044D01*
X193161881Y-83937611D01*
X193052861Y-83995883D01*
X193005389Y-84021257D01*
X192835588Y-84072766D01*
X192835587Y-84072766D01*
X192835584Y-84072767D01*
X192703255Y-84085800D01*
X192614745Y-84085800D01*
X192482416Y-84072767D01*
X192482413Y-84072766D01*
X192482412Y-84072766D01*
X192312611Y-84021257D01*
X192265139Y-83995883D01*
X192156119Y-83937611D01*
X192018956Y-83825044D01*
X191906389Y-83687881D01*
X191822744Y-83531390D01*
X191822743Y-83531389D01*
X191771234Y-83361588D01*
X191771234Y-83361587D01*
X191771233Y-83361584D01*
X191753841Y-83185000D01*
X191771233Y-83008416D01*
X191801418Y-82908911D01*
X191822743Y-82838611D01*
X191861001Y-82767036D01*
X191906389Y-82682119D01*
X192018956Y-82544956D01*
X192156119Y-82432389D01*
X192265139Y-82374117D01*
X192312611Y-82348743D01*
X192482412Y-82297234D01*
X192482413Y-82297234D01*
X192482416Y-82297233D01*
X192614745Y-82284200D01*
X192703255Y-82284200D01*
X192835584Y-82297233D01*
X192835584Y-82297233D01*
G37*
G36*
X206259800Y-84085800D02*
G01*
X204458200Y-84085800D01*
X204458200Y-82284200D01*
X206259800Y-82284200D01*
X206259800Y-84085800D01*
X206259800Y-84085800D01*
G37*
G36*
X190295584Y-82297233D02*
G01*
X190295587Y-82297234D01*
X190295588Y-82297234D01*
X190465389Y-82348743D01*
X190512861Y-82374117D01*
X190621881Y-82432389D01*
X190759044Y-82544956D01*
X190871611Y-82682119D01*
X190916999Y-82767036D01*
X190955257Y-82838611D01*
X190976582Y-82908911D01*
X191006767Y-83008416D01*
X191024159Y-83185000D01*
X191006767Y-83361584D01*
X191006766Y-83361587D01*
X191006766Y-83361588D01*
X190955257Y-83531389D01*
X190955256Y-83531390D01*
X190871611Y-83687881D01*
X190759044Y-83825044D01*
X190621881Y-83937611D01*
X190512861Y-83995883D01*
X190465389Y-84021257D01*
X190295588Y-84072766D01*
X190295587Y-84072766D01*
X190295584Y-84072767D01*
X190163255Y-84085800D01*
X190074745Y-84085800D01*
X189942416Y-84072767D01*
X189942413Y-84072766D01*
X189942412Y-84072766D01*
X189772611Y-84021257D01*
X189725139Y-83995883D01*
X189616119Y-83937611D01*
X189478956Y-83825044D01*
X189366389Y-83687881D01*
X189282744Y-83531390D01*
X189282743Y-83531389D01*
X189231234Y-83361588D01*
X189231234Y-83361587D01*
X189231233Y-83361584D01*
X189213841Y-83185000D01*
X189231233Y-83008416D01*
X189261418Y-82908911D01*
X189282743Y-82838611D01*
X189321001Y-82767036D01*
X189366389Y-82682119D01*
X189478956Y-82544956D01*
X189616119Y-82432389D01*
X189725139Y-82374117D01*
X189772611Y-82348743D01*
X189942412Y-82297234D01*
X189942413Y-82297234D01*
X189942416Y-82297233D01*
X190074745Y-82284200D01*
X190163255Y-82284200D01*
X190295584Y-82297233D01*
X190295584Y-82297233D01*
G37*
G36*
X202995584Y-82297233D02*
G01*
X202995587Y-82297234D01*
X202995588Y-82297234D01*
X203165389Y-82348743D01*
X203212861Y-82374117D01*
X203321881Y-82432389D01*
X203459044Y-82544956D01*
X203571611Y-82682119D01*
X203616999Y-82767036D01*
X203655257Y-82838611D01*
X203676582Y-82908911D01*
X203706767Y-83008416D01*
X203724159Y-83185000D01*
X203706767Y-83361584D01*
X203706766Y-83361587D01*
X203706766Y-83361588D01*
X203655257Y-83531389D01*
X203655256Y-83531390D01*
X203571611Y-83687881D01*
X203459044Y-83825044D01*
X203321881Y-83937611D01*
X203212861Y-83995883D01*
X203165389Y-84021257D01*
X202995588Y-84072766D01*
X202995587Y-84072766D01*
X202995584Y-84072767D01*
X202863255Y-84085800D01*
X202774745Y-84085800D01*
X202642416Y-84072767D01*
X202642413Y-84072766D01*
X202642412Y-84072766D01*
X202472611Y-84021257D01*
X202425139Y-83995883D01*
X202316119Y-83937611D01*
X202178956Y-83825044D01*
X202066389Y-83687881D01*
X201982744Y-83531390D01*
X201982743Y-83531389D01*
X201931234Y-83361588D01*
X201931234Y-83361587D01*
X201931233Y-83361584D01*
X201913841Y-83185000D01*
X201931233Y-83008416D01*
X201961418Y-82908911D01*
X201982743Y-82838611D01*
X202021001Y-82767036D01*
X202066389Y-82682119D01*
X202178956Y-82544956D01*
X202316119Y-82432389D01*
X202425139Y-82374117D01*
X202472611Y-82348743D01*
X202642412Y-82297234D01*
X202642413Y-82297234D01*
X202642416Y-82297233D01*
X202774745Y-82284200D01*
X202863255Y-82284200D01*
X202995584Y-82297233D01*
X202995584Y-82297233D01*
G37*
G36*
X200455584Y-82297233D02*
G01*
X200455587Y-82297234D01*
X200455588Y-82297234D01*
X200625389Y-82348743D01*
X200672861Y-82374117D01*
X200781881Y-82432389D01*
X200919044Y-82544956D01*
X201031611Y-82682119D01*
X201076999Y-82767036D01*
X201115257Y-82838611D01*
X201136582Y-82908911D01*
X201166767Y-83008416D01*
X201184159Y-83185000D01*
X201166767Y-83361584D01*
X201166766Y-83361587D01*
X201166766Y-83361588D01*
X201115257Y-83531389D01*
X201115256Y-83531390D01*
X201031611Y-83687881D01*
X200919044Y-83825044D01*
X200781881Y-83937611D01*
X200672861Y-83995883D01*
X200625389Y-84021257D01*
X200455588Y-84072766D01*
X200455587Y-84072766D01*
X200455584Y-84072767D01*
X200323255Y-84085800D01*
X200234745Y-84085800D01*
X200102416Y-84072767D01*
X200102413Y-84072766D01*
X200102412Y-84072766D01*
X199932611Y-84021257D01*
X199885139Y-83995883D01*
X199776119Y-83937611D01*
X199638956Y-83825044D01*
X199526389Y-83687881D01*
X199442744Y-83531390D01*
X199442743Y-83531389D01*
X199391234Y-83361588D01*
X199391234Y-83361587D01*
X199391233Y-83361584D01*
X199373841Y-83185000D01*
X199391233Y-83008416D01*
X199421418Y-82908911D01*
X199442743Y-82838611D01*
X199481001Y-82767036D01*
X199526389Y-82682119D01*
X199638956Y-82544956D01*
X199776119Y-82432389D01*
X199885139Y-82374117D01*
X199932611Y-82348743D01*
X200102412Y-82297234D01*
X200102413Y-82297234D01*
X200102416Y-82297233D01*
X200234745Y-82284200D01*
X200323255Y-82284200D01*
X200455584Y-82297233D01*
X200455584Y-82297233D01*
G37*
G36*
X195375584Y-82297233D02*
G01*
X195375587Y-82297234D01*
X195375588Y-82297234D01*
X195545389Y-82348743D01*
X195592861Y-82374117D01*
X195701881Y-82432389D01*
X195839044Y-82544956D01*
X195951611Y-82682119D01*
X195996999Y-82767036D01*
X196035257Y-82838611D01*
X196056582Y-82908911D01*
X196086767Y-83008416D01*
X196104159Y-83185000D01*
X196086767Y-83361584D01*
X196086766Y-83361587D01*
X196086766Y-83361588D01*
X196035257Y-83531389D01*
X196035256Y-83531390D01*
X195951611Y-83687881D01*
X195839044Y-83825044D01*
X195701881Y-83937611D01*
X195592861Y-83995883D01*
X195545389Y-84021257D01*
X195375588Y-84072766D01*
X195375587Y-84072766D01*
X195375584Y-84072767D01*
X195243255Y-84085800D01*
X195154745Y-84085800D01*
X195022416Y-84072767D01*
X195022413Y-84072766D01*
X195022412Y-84072766D01*
X194852611Y-84021257D01*
X194805139Y-83995883D01*
X194696119Y-83937611D01*
X194558956Y-83825044D01*
X194446389Y-83687881D01*
X194362744Y-83531390D01*
X194362743Y-83531389D01*
X194311234Y-83361588D01*
X194311234Y-83361587D01*
X194311233Y-83361584D01*
X194293841Y-83185000D01*
X194311233Y-83008416D01*
X194341418Y-82908911D01*
X194362743Y-82838611D01*
X194401001Y-82767036D01*
X194446389Y-82682119D01*
X194558956Y-82544956D01*
X194696119Y-82432389D01*
X194805139Y-82374117D01*
X194852611Y-82348743D01*
X195022412Y-82297234D01*
X195022413Y-82297234D01*
X195022416Y-82297233D01*
X195154745Y-82284200D01*
X195243255Y-82284200D01*
X195375584Y-82297233D01*
X195375584Y-82297233D01*
G37*
G36*
X197915584Y-82297233D02*
G01*
X197915587Y-82297234D01*
X197915588Y-82297234D01*
X198085389Y-82348743D01*
X198132861Y-82374117D01*
X198241881Y-82432389D01*
X198379044Y-82544956D01*
X198491611Y-82682119D01*
X198536999Y-82767036D01*
X198575257Y-82838611D01*
X198596582Y-82908911D01*
X198626767Y-83008416D01*
X198644159Y-83185000D01*
X198626767Y-83361584D01*
X198626766Y-83361587D01*
X198626766Y-83361588D01*
X198575257Y-83531389D01*
X198575256Y-83531390D01*
X198491611Y-83687881D01*
X198379044Y-83825044D01*
X198241881Y-83937611D01*
X198132861Y-83995883D01*
X198085389Y-84021257D01*
X197915588Y-84072766D01*
X197915587Y-84072766D01*
X197915584Y-84072767D01*
X197783255Y-84085800D01*
X197694745Y-84085800D01*
X197562416Y-84072767D01*
X197562413Y-84072766D01*
X197562412Y-84072766D01*
X197392611Y-84021257D01*
X197345139Y-83995883D01*
X197236119Y-83937611D01*
X197098956Y-83825044D01*
X196986389Y-83687881D01*
X196902744Y-83531390D01*
X196902743Y-83531389D01*
X196851234Y-83361588D01*
X196851234Y-83361587D01*
X196851233Y-83361584D01*
X196833841Y-83185000D01*
X196851233Y-83008416D01*
X196881418Y-82908911D01*
X196902743Y-82838611D01*
X196941001Y-82767036D01*
X196986389Y-82682119D01*
X197098956Y-82544956D01*
X197236119Y-82432389D01*
X197345139Y-82374117D01*
X197392611Y-82348743D01*
X197562412Y-82297234D01*
X197562413Y-82297234D01*
X197562416Y-82297233D01*
X197694745Y-82284200D01*
X197783255Y-82284200D01*
X197915584Y-82297233D01*
X197915584Y-82297233D01*
G37*
G36*
X208322984Y-82702104D02*
G01*
X208367491Y-82715605D01*
X208408512Y-82737531D01*
X208444464Y-82767036D01*
X208473969Y-82802988D01*
X208495895Y-82844009D01*
X208509396Y-82888516D01*
X208514200Y-82937293D01*
X208514200Y-83508907D01*
X208509396Y-83557684D01*
X208495895Y-83602191D01*
X208473969Y-83643212D01*
X208444464Y-83679164D01*
X208408512Y-83708669D01*
X208367491Y-83730595D01*
X208322984Y-83744096D01*
X208274207Y-83748900D01*
X207602593Y-83748900D01*
X207553816Y-83744096D01*
X207509309Y-83730595D01*
X207468288Y-83708669D01*
X207432336Y-83679164D01*
X207402831Y-83643212D01*
X207380905Y-83602191D01*
X207367404Y-83557684D01*
X207362600Y-83508907D01*
X207362600Y-82937293D01*
X207367404Y-82888516D01*
X207380905Y-82844009D01*
X207402831Y-82802988D01*
X207432336Y-82767036D01*
X207468288Y-82737531D01*
X207509309Y-82715605D01*
X207553816Y-82702104D01*
X207602593Y-82697300D01*
X208274207Y-82697300D01*
X208322984Y-82702104D01*
X208322984Y-82702104D01*
G37*
G36*
X210072984Y-82702104D02*
G01*
X210117491Y-82715605D01*
X210158512Y-82737531D01*
X210194464Y-82767036D01*
X210223969Y-82802988D01*
X210245895Y-82844009D01*
X210259396Y-82888516D01*
X210264200Y-82937293D01*
X210264200Y-83508907D01*
X210259396Y-83557684D01*
X210245895Y-83602191D01*
X210223969Y-83643212D01*
X210194464Y-83679164D01*
X210158512Y-83708669D01*
X210117491Y-83730595D01*
X210072984Y-83744096D01*
X210024207Y-83748900D01*
X209352593Y-83748900D01*
X209303816Y-83744096D01*
X209259309Y-83730595D01*
X209218288Y-83708669D01*
X209182336Y-83679164D01*
X209152831Y-83643212D01*
X209130905Y-83602191D01*
X209117404Y-83557684D01*
X209112600Y-83508907D01*
X209112600Y-82937293D01*
X209117404Y-82888516D01*
X209130905Y-82844009D01*
X209152831Y-82802988D01*
X209182336Y-82767036D01*
X209218288Y-82737531D01*
X209259309Y-82715605D01*
X209303816Y-82702104D01*
X209352593Y-82697300D01*
X210024207Y-82697300D01*
X210072984Y-82702104D01*
X210072984Y-82702104D01*
G37*
G36*
X187748800Y-83723100D02*
G01*
X186647200Y-83723100D01*
X186647200Y-82621500D01*
X187748800Y-82621500D01*
X187748800Y-83723100D01*
X187748800Y-83723100D01*
G37*
M02*
