G04 #@! TF.GenerationSoftware,KiCad,Pcbnew,(5.1.4)-1*
G04 #@! TF.CreationDate,2019-11-10T12:22:22-05:00*
G04 #@! TF.ProjectId,synth,73796e74-682e-46b6-9963-61645f706362,rev?*
G04 #@! TF.SameCoordinates,Original*
G04 #@! TF.FileFunction,Legend,Bot*
G04 #@! TF.FilePolarity,Positive*
%FSLAX46Y46*%
G04 Gerber Fmt 4.6, Leading zero omitted, Abs format (unit mm)*
G04 Created by KiCad (PCBNEW (5.1.4)-1) date 2019-11-10 12:22:22*
%MOMM*%
%LPD*%
G04 APERTURE LIST*
%ADD10C,0.120000*%
%ADD11C,0.150000*%
%ADD12C,0.127000*%
G04 APERTURE END LIST*
D10*
X210056000Y-116898267D02*
X210056000Y-116555733D01*
X211076000Y-116898267D02*
X211076000Y-116555733D01*
X208642133Y-83733100D02*
X208984667Y-83733100D01*
X208642133Y-82713100D02*
X208984667Y-82713100D01*
X210056000Y-106254733D02*
X210056000Y-106597267D01*
X211076000Y-106254733D02*
X211076000Y-106597267D01*
X187006000Y-98998000D02*
X188406000Y-98998000D01*
X187006000Y-97598000D02*
X187006000Y-98998000D01*
X188406000Y-97598000D02*
X187006000Y-97598000D01*
X188406000Y-98998000D02*
X188406000Y-97598000D01*
X186498000Y-82472300D02*
X186498000Y-83872300D01*
X187898000Y-82472300D02*
X186498000Y-82472300D01*
X187898000Y-83872300D02*
X187898000Y-82472300D01*
X186498000Y-83872300D02*
X187898000Y-83872300D01*
X207338700Y-84644000D02*
X207338700Y-86044000D01*
X208738700Y-84644000D02*
X207338700Y-84644000D01*
X208738700Y-86044000D02*
X208738700Y-84644000D01*
X207338700Y-86044000D02*
X208738700Y-86044000D01*
X186498000Y-85025000D02*
X186498000Y-86425000D01*
X187898000Y-85025000D02*
X186498000Y-85025000D01*
X187898000Y-86425000D02*
X187898000Y-85025000D01*
X186498000Y-86425000D02*
X187898000Y-86425000D01*
X208711000Y-89927500D02*
X210526000Y-89927500D01*
X208711000Y-89672500D02*
X208711000Y-89927500D01*
X204851000Y-89672500D02*
X208711000Y-89672500D01*
X200991000Y-89672500D02*
X200991000Y-89927500D01*
X204851000Y-89672500D02*
X200991000Y-89672500D01*
X208711000Y-100192500D02*
X208711000Y-99937500D01*
X204851000Y-100192500D02*
X208711000Y-100192500D01*
X200991000Y-100192500D02*
X200991000Y-99937500D01*
X204851000Y-100192500D02*
X200991000Y-100192500D01*
X195070000Y-95661267D02*
X195070000Y-95318733D01*
X196090000Y-95661267D02*
X196090000Y-95318733D01*
X195070000Y-92232267D02*
X195070000Y-91889733D01*
X196090000Y-92232267D02*
X196090000Y-91889733D01*
X196975000Y-95661267D02*
X196975000Y-95318733D01*
X197995000Y-95661267D02*
X197995000Y-95318733D01*
X196946733Y-88136000D02*
X197289267Y-88136000D01*
X196946733Y-89156000D02*
X197289267Y-89156000D01*
X207675267Y-89156000D02*
X207332733Y-89156000D01*
X207675267Y-88136000D02*
X207332733Y-88136000D01*
X190939267Y-89918000D02*
X190596733Y-89918000D01*
X190939267Y-88898000D02*
X190596733Y-88898000D01*
X190748767Y-100459000D02*
X190406233Y-100459000D01*
X190748767Y-99439000D02*
X190406233Y-99439000D01*
X190748767Y-102110000D02*
X190406233Y-102110000D01*
X190748767Y-101090000D02*
X190406233Y-101090000D01*
X200718267Y-89156000D02*
X200375733Y-89156000D01*
X200718267Y-88136000D02*
X200375733Y-88136000D01*
X203903733Y-88136000D02*
X204246267Y-88136000D01*
X203903733Y-89156000D02*
X204246267Y-89156000D01*
X198255900Y-119158400D02*
X198255900Y-122608400D01*
X198255900Y-119158400D02*
X198255900Y-117208400D01*
X189385900Y-119158400D02*
X189385900Y-121108400D01*
X189385900Y-119158400D02*
X189385900Y-117208400D01*
X183390700Y-118922800D02*
X183390700Y-122372800D01*
X183390700Y-118922800D02*
X183390700Y-116972800D01*
X174520700Y-118922800D02*
X174520700Y-120872800D01*
X174520700Y-118922800D02*
X174520700Y-116972800D01*
X168436300Y-118896600D02*
X168436300Y-122346600D01*
X168436300Y-118896600D02*
X168436300Y-116946600D01*
X159566300Y-118896600D02*
X159566300Y-120846600D01*
X159566300Y-118896600D02*
X159566300Y-116946600D01*
X199861900Y-115551133D02*
X199861900Y-115893667D01*
X198841900Y-115551133D02*
X198841900Y-115893667D01*
X190887167Y-114327400D02*
X190544633Y-114327400D01*
X190887167Y-113307400D02*
X190544633Y-113307400D01*
X198841900Y-119449667D02*
X198841900Y-119107133D01*
X199861900Y-119449667D02*
X199861900Y-119107133D01*
X191098900Y-124949133D02*
X191098900Y-125291667D01*
X190078900Y-124949133D02*
X190078900Y-125291667D01*
X187958000Y-119576667D02*
X187958000Y-119234133D01*
X188978000Y-119576667D02*
X188978000Y-119234133D01*
X191856900Y-125291667D02*
X191856900Y-124949133D01*
X192876900Y-125291667D02*
X192876900Y-124949133D01*
X196940900Y-113265133D02*
X196940900Y-113607667D01*
X195920900Y-113265133D02*
X195920900Y-113607667D01*
X198841900Y-123005667D02*
X198841900Y-122663133D01*
X199861900Y-123005667D02*
X199861900Y-122663133D01*
X185053700Y-115336533D02*
X185053700Y-115679067D01*
X184033700Y-115336533D02*
X184033700Y-115679067D01*
X175951967Y-113717800D02*
X175609433Y-113717800D01*
X175951967Y-112697800D02*
X175609433Y-112697800D01*
X184033700Y-119235067D02*
X184033700Y-118892533D01*
X185053700Y-119235067D02*
X185053700Y-118892533D01*
X176290700Y-125355533D02*
X176290700Y-125698067D01*
X175270700Y-125355533D02*
X175270700Y-125698067D01*
X172349700Y-119080067D02*
X172349700Y-118737533D01*
X173369700Y-119080067D02*
X173369700Y-118737533D01*
X177175700Y-125698067D02*
X177175700Y-125355533D01*
X178195700Y-125698067D02*
X178195700Y-125355533D01*
X182005700Y-112796533D02*
X182005700Y-113139067D01*
X180985700Y-112796533D02*
X180985700Y-113139067D01*
X184033700Y-122763067D02*
X184033700Y-122420533D01*
X185053700Y-122763067D02*
X185053700Y-122420533D01*
X170169300Y-115119333D02*
X170169300Y-115461867D01*
X169149300Y-115119333D02*
X169149300Y-115461867D01*
X160940567Y-114022600D02*
X160598033Y-114022600D01*
X160940567Y-113002600D02*
X160598033Y-113002600D01*
X169149300Y-119017867D02*
X169149300Y-118675333D01*
X170169300Y-119017867D02*
X170169300Y-118675333D01*
X161279300Y-124771333D02*
X161279300Y-125113867D01*
X160259300Y-124771333D02*
X160259300Y-125113867D01*
X157465300Y-119144867D02*
X157465300Y-118802333D01*
X158485300Y-119144867D02*
X158485300Y-118802333D01*
X162164300Y-125113867D02*
X162164300Y-124771333D01*
X163184300Y-125113867D02*
X163184300Y-124771333D01*
X166994300Y-112960333D02*
X166994300Y-113302867D01*
X165974300Y-112960333D02*
X165974300Y-113302867D01*
X169149300Y-122573867D02*
X169149300Y-122231333D01*
X170169300Y-122573867D02*
X170169300Y-122231333D01*
X194400900Y-113138133D02*
X194400900Y-113480667D01*
X193380900Y-113138133D02*
X193380900Y-113480667D01*
X194654900Y-124949133D02*
X194654900Y-125291667D01*
X193634900Y-124949133D02*
X193634900Y-125291667D01*
X179465700Y-112796533D02*
X179465700Y-113139067D01*
X178445700Y-112796533D02*
X178445700Y-113139067D01*
X180100700Y-125341533D02*
X180100700Y-125684067D01*
X179080700Y-125341533D02*
X179080700Y-125684067D01*
X164454300Y-112960333D02*
X164454300Y-113302867D01*
X163434300Y-112960333D02*
X163434300Y-113302867D01*
X165089300Y-124757333D02*
X165089300Y-125099867D01*
X164069300Y-124757333D02*
X164069300Y-125099867D01*
D11*
X194659500Y-98107000D02*
X194659500Y-92132000D01*
X189134500Y-96532000D02*
X189134500Y-92132000D01*
D10*
X147521200Y-100501267D02*
X147521200Y-100158733D01*
X148541200Y-100501267D02*
X148541200Y-100158733D01*
X166622000Y-100501267D02*
X166622000Y-100158733D01*
X167642000Y-100501267D02*
X167642000Y-100158733D01*
X182878000Y-110153267D02*
X182878000Y-109810733D01*
X183898000Y-110153267D02*
X183898000Y-109810733D01*
X183894000Y-105835267D02*
X183894000Y-105492733D01*
X184914000Y-105835267D02*
X184914000Y-105492733D01*
D11*
X210700857Y-114403142D02*
X210748476Y-114450761D01*
X210891333Y-114498380D01*
X210986571Y-114498380D01*
X211129428Y-114450761D01*
X211224666Y-114355523D01*
X211272285Y-114260285D01*
X211319904Y-114069809D01*
X211319904Y-113926952D01*
X211272285Y-113736476D01*
X211224666Y-113641238D01*
X211129428Y-113546000D01*
X210986571Y-113498380D01*
X210891333Y-113498380D01*
X210748476Y-113546000D01*
X210700857Y-113593619D01*
X209796095Y-113498380D02*
X210272285Y-113498380D01*
X210319904Y-113974571D01*
X210272285Y-113926952D01*
X210177047Y-113879333D01*
X209938952Y-113879333D01*
X209843714Y-113926952D01*
X209796095Y-113974571D01*
X209748476Y-114069809D01*
X209748476Y-114307904D01*
X209796095Y-114403142D01*
X209843714Y-114450761D01*
X209938952Y-114498380D01*
X210177047Y-114498380D01*
X210272285Y-114450761D01*
X210319904Y-114403142D01*
X209415142Y-113498380D02*
X208796095Y-113498380D01*
X209129428Y-113879333D01*
X208986571Y-113879333D01*
X208891333Y-113926952D01*
X208843714Y-113974571D01*
X208796095Y-114069809D01*
X208796095Y-114307904D01*
X208843714Y-114403142D01*
X208891333Y-114450761D01*
X208986571Y-114498380D01*
X209272285Y-114498380D01*
X209367523Y-114450761D01*
X209415142Y-114403142D01*
D12*
X210139642Y-84638242D02*
X210175928Y-84601957D01*
X210212214Y-84493100D01*
X210212214Y-84420528D01*
X210175928Y-84311671D01*
X210103357Y-84239100D01*
X210030785Y-84202814D01*
X209885642Y-84166528D01*
X209776785Y-84166528D01*
X209631642Y-84202814D01*
X209559071Y-84239100D01*
X209486500Y-84311671D01*
X209450214Y-84420528D01*
X209450214Y-84493100D01*
X209486500Y-84601957D01*
X209522785Y-84638242D01*
X209450214Y-85327671D02*
X209450214Y-84964814D01*
X209813071Y-84928528D01*
X209776785Y-84964814D01*
X209740500Y-85037385D01*
X209740500Y-85218814D01*
X209776785Y-85291385D01*
X209813071Y-85327671D01*
X209885642Y-85363957D01*
X210067071Y-85363957D01*
X210139642Y-85327671D01*
X210175928Y-85291385D01*
X210212214Y-85218814D01*
X210212214Y-85037385D01*
X210175928Y-84964814D01*
X210139642Y-84928528D01*
X209522785Y-85654242D02*
X209486500Y-85690528D01*
X209450214Y-85763100D01*
X209450214Y-85944528D01*
X209486500Y-86017100D01*
X209522785Y-86053385D01*
X209595357Y-86089671D01*
X209667928Y-86089671D01*
X209776785Y-86053385D01*
X210212214Y-85617957D01*
X210212214Y-86089671D01*
D11*
X210954857Y-104243142D02*
X211002476Y-104290761D01*
X211145333Y-104338380D01*
X211240571Y-104338380D01*
X211383428Y-104290761D01*
X211478666Y-104195523D01*
X211526285Y-104100285D01*
X211573904Y-103909809D01*
X211573904Y-103766952D01*
X211526285Y-103576476D01*
X211478666Y-103481238D01*
X211383428Y-103386000D01*
X211240571Y-103338380D01*
X211145333Y-103338380D01*
X211002476Y-103386000D01*
X210954857Y-103433619D01*
X210050095Y-103338380D02*
X210526285Y-103338380D01*
X210573904Y-103814571D01*
X210526285Y-103766952D01*
X210431047Y-103719333D01*
X210192952Y-103719333D01*
X210097714Y-103766952D01*
X210050095Y-103814571D01*
X210002476Y-103909809D01*
X210002476Y-104147904D01*
X210050095Y-104243142D01*
X210097714Y-104290761D01*
X210192952Y-104338380D01*
X210431047Y-104338380D01*
X210526285Y-104290761D01*
X210573904Y-104243142D01*
X209050095Y-104338380D02*
X209621523Y-104338380D01*
X209335809Y-104338380D02*
X209335809Y-103338380D01*
X209431047Y-103481238D01*
X209526285Y-103576476D01*
X209621523Y-103624095D01*
X188682095Y-95972380D02*
X188110666Y-95972380D01*
X188396380Y-96972380D02*
X188396380Y-95972380D01*
X187777333Y-96972380D02*
X187777333Y-95972380D01*
X187396380Y-95972380D01*
X187301142Y-96020000D01*
X187253523Y-96067619D01*
X187205904Y-96162857D01*
X187205904Y-96305714D01*
X187253523Y-96400952D01*
X187301142Y-96448571D01*
X187396380Y-96496190D01*
X187777333Y-96496190D01*
X186253523Y-96972380D02*
X186824952Y-96972380D01*
X186539238Y-96972380D02*
X186539238Y-95972380D01*
X186634476Y-96115238D01*
X186729714Y-96210476D01*
X186824952Y-96258095D01*
X185634476Y-95972380D02*
X185539238Y-95972380D01*
X185444000Y-96020000D01*
X185396380Y-96067619D01*
X185348761Y-96162857D01*
X185301142Y-96353333D01*
X185301142Y-96591428D01*
X185348761Y-96781904D01*
X185396380Y-96877142D01*
X185444000Y-96924761D01*
X185539238Y-96972380D01*
X185634476Y-96972380D01*
X185729714Y-96924761D01*
X185777333Y-96877142D01*
X185824952Y-96781904D01*
X185872571Y-96591428D01*
X185872571Y-96353333D01*
X185824952Y-96162857D01*
X185777333Y-96067619D01*
X185729714Y-96020000D01*
X185634476Y-95972380D01*
X186110404Y-82383380D02*
X185538976Y-82383380D01*
X185824690Y-83383380D02*
X185824690Y-82383380D01*
X185205642Y-83383380D02*
X185205642Y-82383380D01*
X184824690Y-82383380D01*
X184729452Y-82431000D01*
X184681833Y-82478619D01*
X184634214Y-82573857D01*
X184634214Y-82716714D01*
X184681833Y-82811952D01*
X184729452Y-82859571D01*
X184824690Y-82907190D01*
X185205642Y-82907190D01*
X184300880Y-82383380D02*
X183681833Y-82383380D01*
X184015166Y-82764333D01*
X183872309Y-82764333D01*
X183777071Y-82811952D01*
X183729452Y-82859571D01*
X183681833Y-82954809D01*
X183681833Y-83192904D01*
X183729452Y-83288142D01*
X183777071Y-83335761D01*
X183872309Y-83383380D01*
X184158023Y-83383380D01*
X184253261Y-83335761D01*
X184300880Y-83288142D01*
D12*
X209000271Y-86450714D02*
X208564842Y-86450714D01*
X208782557Y-87212714D02*
X208782557Y-86450714D01*
X208310842Y-87212714D02*
X208310842Y-86450714D01*
X208020557Y-86450714D01*
X207947985Y-86487000D01*
X207911700Y-86523285D01*
X207875414Y-86595857D01*
X207875414Y-86704714D01*
X207911700Y-86777285D01*
X207947985Y-86813571D01*
X208020557Y-86849857D01*
X208310842Y-86849857D01*
X207585128Y-86523285D02*
X207548842Y-86487000D01*
X207476271Y-86450714D01*
X207294842Y-86450714D01*
X207222271Y-86487000D01*
X207185985Y-86523285D01*
X207149700Y-86595857D01*
X207149700Y-86668428D01*
X207185985Y-86777285D01*
X207621414Y-87212714D01*
X207149700Y-87212714D01*
D11*
X186059604Y-85939380D02*
X185488176Y-85939380D01*
X185773890Y-86939380D02*
X185773890Y-85939380D01*
X185154842Y-86939380D02*
X185154842Y-85939380D01*
X184773890Y-85939380D01*
X184678652Y-85987000D01*
X184631033Y-86034619D01*
X184583414Y-86129857D01*
X184583414Y-86272714D01*
X184631033Y-86367952D01*
X184678652Y-86415571D01*
X184773890Y-86463190D01*
X185154842Y-86463190D01*
X183631033Y-86939380D02*
X184202461Y-86939380D01*
X183916747Y-86939380D02*
X183916747Y-85939380D01*
X184011985Y-86082238D01*
X184107223Y-86177476D01*
X184202461Y-86225095D01*
X206216095Y-100798380D02*
X206216095Y-101607904D01*
X206168476Y-101703142D01*
X206120857Y-101750761D01*
X206025619Y-101798380D01*
X205835142Y-101798380D01*
X205739904Y-101750761D01*
X205692285Y-101703142D01*
X205644666Y-101607904D01*
X205644666Y-100798380D01*
X204644666Y-101798380D02*
X205216095Y-101798380D01*
X204930380Y-101798380D02*
X204930380Y-100798380D01*
X205025619Y-100941238D01*
X205120857Y-101036476D01*
X205216095Y-101084095D01*
X204263714Y-100893619D02*
X204216095Y-100846000D01*
X204120857Y-100798380D01*
X203882761Y-100798380D01*
X203787523Y-100846000D01*
X203739904Y-100893619D01*
X203692285Y-100988857D01*
X203692285Y-101084095D01*
X203739904Y-101226952D01*
X204311333Y-101798380D01*
X203692285Y-101798380D01*
X196045080Y-97947242D02*
X195568890Y-97613909D01*
X196045080Y-97375814D02*
X195045080Y-97375814D01*
X195045080Y-97756766D01*
X195092700Y-97852004D01*
X195140319Y-97899623D01*
X195235557Y-97947242D01*
X195378414Y-97947242D01*
X195473652Y-97899623D01*
X195521271Y-97852004D01*
X195568890Y-97756766D01*
X195568890Y-97375814D01*
X195473652Y-98518671D02*
X195426033Y-98423433D01*
X195378414Y-98375814D01*
X195283176Y-98328195D01*
X195235557Y-98328195D01*
X195140319Y-98375814D01*
X195092700Y-98423433D01*
X195045080Y-98518671D01*
X195045080Y-98709147D01*
X195092700Y-98804385D01*
X195140319Y-98852004D01*
X195235557Y-98899623D01*
X195283176Y-98899623D01*
X195378414Y-98852004D01*
X195426033Y-98804385D01*
X195473652Y-98709147D01*
X195473652Y-98518671D01*
X195521271Y-98423433D01*
X195568890Y-98375814D01*
X195664128Y-98328195D01*
X195854604Y-98328195D01*
X195949842Y-98375814D01*
X195997461Y-98423433D01*
X196045080Y-98518671D01*
X196045080Y-98709147D01*
X195997461Y-98804385D01*
X195949842Y-98852004D01*
X195854604Y-98899623D01*
X195664128Y-98899623D01*
X195568890Y-98852004D01*
X195521271Y-98804385D01*
X195473652Y-98709147D01*
X195140319Y-99280576D02*
X195092700Y-99328195D01*
X195045080Y-99423433D01*
X195045080Y-99661528D01*
X195092700Y-99756766D01*
X195140319Y-99804385D01*
X195235557Y-99852004D01*
X195330795Y-99852004D01*
X195473652Y-99804385D01*
X196045080Y-99232957D01*
X196045080Y-99852004D01*
X198254857Y-90876380D02*
X198588190Y-90400190D01*
X198826285Y-90876380D02*
X198826285Y-89876380D01*
X198445333Y-89876380D01*
X198350095Y-89924000D01*
X198302476Y-89971619D01*
X198254857Y-90066857D01*
X198254857Y-90209714D01*
X198302476Y-90304952D01*
X198350095Y-90352571D01*
X198445333Y-90400190D01*
X198826285Y-90400190D01*
X197683428Y-90304952D02*
X197778666Y-90257333D01*
X197826285Y-90209714D01*
X197873904Y-90114476D01*
X197873904Y-90066857D01*
X197826285Y-89971619D01*
X197778666Y-89924000D01*
X197683428Y-89876380D01*
X197492952Y-89876380D01*
X197397714Y-89924000D01*
X197350095Y-89971619D01*
X197302476Y-90066857D01*
X197302476Y-90114476D01*
X197350095Y-90209714D01*
X197397714Y-90257333D01*
X197492952Y-90304952D01*
X197683428Y-90304952D01*
X197778666Y-90352571D01*
X197826285Y-90400190D01*
X197873904Y-90495428D01*
X197873904Y-90685904D01*
X197826285Y-90781142D01*
X197778666Y-90828761D01*
X197683428Y-90876380D01*
X197492952Y-90876380D01*
X197397714Y-90828761D01*
X197350095Y-90781142D01*
X197302476Y-90685904D01*
X197302476Y-90495428D01*
X197350095Y-90400190D01*
X197397714Y-90352571D01*
X197492952Y-90304952D01*
X196350095Y-90876380D02*
X196921523Y-90876380D01*
X196635809Y-90876380D02*
X196635809Y-89876380D01*
X196731047Y-90019238D01*
X196826285Y-90114476D01*
X196921523Y-90162095D01*
X197962780Y-97934542D02*
X197486590Y-97601209D01*
X197962780Y-97363114D02*
X196962780Y-97363114D01*
X196962780Y-97744066D01*
X197010400Y-97839304D01*
X197058019Y-97886923D01*
X197153257Y-97934542D01*
X197296114Y-97934542D01*
X197391352Y-97886923D01*
X197438971Y-97839304D01*
X197486590Y-97744066D01*
X197486590Y-97363114D01*
X197391352Y-98505971D02*
X197343733Y-98410733D01*
X197296114Y-98363114D01*
X197200876Y-98315495D01*
X197153257Y-98315495D01*
X197058019Y-98363114D01*
X197010400Y-98410733D01*
X196962780Y-98505971D01*
X196962780Y-98696447D01*
X197010400Y-98791685D01*
X197058019Y-98839304D01*
X197153257Y-98886923D01*
X197200876Y-98886923D01*
X197296114Y-98839304D01*
X197343733Y-98791685D01*
X197391352Y-98696447D01*
X197391352Y-98505971D01*
X197438971Y-98410733D01*
X197486590Y-98363114D01*
X197581828Y-98315495D01*
X197772304Y-98315495D01*
X197867542Y-98363114D01*
X197915161Y-98410733D01*
X197962780Y-98505971D01*
X197962780Y-98696447D01*
X197915161Y-98791685D01*
X197867542Y-98839304D01*
X197772304Y-98886923D01*
X197581828Y-98886923D01*
X197486590Y-98839304D01*
X197438971Y-98791685D01*
X197391352Y-98696447D01*
X196962780Y-99505971D02*
X196962780Y-99601209D01*
X197010400Y-99696447D01*
X197058019Y-99744066D01*
X197153257Y-99791685D01*
X197343733Y-99839304D01*
X197581828Y-99839304D01*
X197772304Y-99791685D01*
X197867542Y-99744066D01*
X197915161Y-99696447D01*
X197962780Y-99601209D01*
X197962780Y-99505971D01*
X197915161Y-99410733D01*
X197867542Y-99363114D01*
X197772304Y-99315495D01*
X197581828Y-99267876D01*
X197343733Y-99267876D01*
X197153257Y-99315495D01*
X197058019Y-99363114D01*
X197010400Y-99410733D01*
X196962780Y-99505971D01*
X197746857Y-87828380D02*
X198080190Y-87352190D01*
X198318285Y-87828380D02*
X198318285Y-86828380D01*
X197937333Y-86828380D01*
X197842095Y-86876000D01*
X197794476Y-86923619D01*
X197746857Y-87018857D01*
X197746857Y-87161714D01*
X197794476Y-87256952D01*
X197842095Y-87304571D01*
X197937333Y-87352190D01*
X198318285Y-87352190D01*
X197413523Y-86828380D02*
X196746857Y-86828380D01*
X197175428Y-87828380D01*
X196318285Y-87828380D02*
X196127809Y-87828380D01*
X196032571Y-87780761D01*
X195984952Y-87733142D01*
X195889714Y-87590285D01*
X195842095Y-87399809D01*
X195842095Y-87018857D01*
X195889714Y-86923619D01*
X195937333Y-86876000D01*
X196032571Y-86828380D01*
X196223047Y-86828380D01*
X196318285Y-86876000D01*
X196365904Y-86923619D01*
X196413523Y-87018857D01*
X196413523Y-87256952D01*
X196365904Y-87352190D01*
X196318285Y-87399809D01*
X196223047Y-87447428D01*
X196032571Y-87447428D01*
X195937333Y-87399809D01*
X195889714Y-87352190D01*
X195842095Y-87256952D01*
X211462857Y-89098380D02*
X211796190Y-88622190D01*
X212034285Y-89098380D02*
X212034285Y-88098380D01*
X211653333Y-88098380D01*
X211558095Y-88146000D01*
X211510476Y-88193619D01*
X211462857Y-88288857D01*
X211462857Y-88431714D01*
X211510476Y-88526952D01*
X211558095Y-88574571D01*
X211653333Y-88622190D01*
X212034285Y-88622190D01*
X211129523Y-88098380D02*
X210462857Y-88098380D01*
X210891428Y-89098380D01*
X209939047Y-88526952D02*
X210034285Y-88479333D01*
X210081904Y-88431714D01*
X210129523Y-88336476D01*
X210129523Y-88288857D01*
X210081904Y-88193619D01*
X210034285Y-88146000D01*
X209939047Y-88098380D01*
X209748571Y-88098380D01*
X209653333Y-88146000D01*
X209605714Y-88193619D01*
X209558095Y-88288857D01*
X209558095Y-88336476D01*
X209605714Y-88431714D01*
X209653333Y-88479333D01*
X209748571Y-88526952D01*
X209939047Y-88526952D01*
X210034285Y-88574571D01*
X210081904Y-88622190D01*
X210129523Y-88717428D01*
X210129523Y-88907904D01*
X210081904Y-89003142D01*
X210034285Y-89050761D01*
X209939047Y-89098380D01*
X209748571Y-89098380D01*
X209653333Y-89050761D01*
X209605714Y-89003142D01*
X209558095Y-88907904D01*
X209558095Y-88717428D01*
X209605714Y-88622190D01*
X209653333Y-88574571D01*
X209748571Y-88526952D01*
X188348857Y-89765142D02*
X188396476Y-89812761D01*
X188539333Y-89860380D01*
X188634571Y-89860380D01*
X188777428Y-89812761D01*
X188872666Y-89717523D01*
X188920285Y-89622285D01*
X188967904Y-89431809D01*
X188967904Y-89288952D01*
X188920285Y-89098476D01*
X188872666Y-89003238D01*
X188777428Y-88908000D01*
X188634571Y-88860380D01*
X188539333Y-88860380D01*
X188396476Y-88908000D01*
X188348857Y-88955619D01*
X187491714Y-89193714D02*
X187491714Y-89860380D01*
X187729809Y-88812761D02*
X187967904Y-89527047D01*
X187348857Y-89527047D01*
X186920285Y-89860380D02*
X186729809Y-89860380D01*
X186634571Y-89812761D01*
X186586952Y-89765142D01*
X186491714Y-89622285D01*
X186444095Y-89431809D01*
X186444095Y-89050857D01*
X186491714Y-88955619D01*
X186539333Y-88908000D01*
X186634571Y-88860380D01*
X186825047Y-88860380D01*
X186920285Y-88908000D01*
X186967904Y-88955619D01*
X187015523Y-89050857D01*
X187015523Y-89288952D01*
X186967904Y-89384190D01*
X186920285Y-89431809D01*
X186825047Y-89479428D01*
X186634571Y-89479428D01*
X186539333Y-89431809D01*
X186491714Y-89384190D01*
X186444095Y-89288952D01*
X188094857Y-101195142D02*
X188142476Y-101242761D01*
X188285333Y-101290380D01*
X188380571Y-101290380D01*
X188523428Y-101242761D01*
X188618666Y-101147523D01*
X188666285Y-101052285D01*
X188713904Y-100861809D01*
X188713904Y-100718952D01*
X188666285Y-100528476D01*
X188618666Y-100433238D01*
X188523428Y-100338000D01*
X188380571Y-100290380D01*
X188285333Y-100290380D01*
X188142476Y-100338000D01*
X188094857Y-100385619D01*
X187237714Y-100623714D02*
X187237714Y-101290380D01*
X187475809Y-100242761D02*
X187713904Y-100957047D01*
X187094857Y-100957047D01*
X186571047Y-100718952D02*
X186666285Y-100671333D01*
X186713904Y-100623714D01*
X186761523Y-100528476D01*
X186761523Y-100480857D01*
X186713904Y-100385619D01*
X186666285Y-100338000D01*
X186571047Y-100290380D01*
X186380571Y-100290380D01*
X186285333Y-100338000D01*
X186237714Y-100385619D01*
X186190095Y-100480857D01*
X186190095Y-100528476D01*
X186237714Y-100623714D01*
X186285333Y-100671333D01*
X186380571Y-100718952D01*
X186571047Y-100718952D01*
X186666285Y-100766571D01*
X186713904Y-100814190D01*
X186761523Y-100909428D01*
X186761523Y-101099904D01*
X186713904Y-101195142D01*
X186666285Y-101242761D01*
X186571047Y-101290380D01*
X186380571Y-101290380D01*
X186285333Y-101242761D01*
X186237714Y-101195142D01*
X186190095Y-101099904D01*
X186190095Y-100909428D01*
X186237714Y-100814190D01*
X186285333Y-100766571D01*
X186380571Y-100718952D01*
X188094857Y-102719142D02*
X188142476Y-102766761D01*
X188285333Y-102814380D01*
X188380571Y-102814380D01*
X188523428Y-102766761D01*
X188618666Y-102671523D01*
X188666285Y-102576285D01*
X188713904Y-102385809D01*
X188713904Y-102242952D01*
X188666285Y-102052476D01*
X188618666Y-101957238D01*
X188523428Y-101862000D01*
X188380571Y-101814380D01*
X188285333Y-101814380D01*
X188142476Y-101862000D01*
X188094857Y-101909619D01*
X187237714Y-102147714D02*
X187237714Y-102814380D01*
X187475809Y-101766761D02*
X187713904Y-102481047D01*
X187094857Y-102481047D01*
X186809142Y-101814380D02*
X186142476Y-101814380D01*
X186571047Y-102814380D01*
X201302857Y-87733142D02*
X201350476Y-87780761D01*
X201493333Y-87828380D01*
X201588571Y-87828380D01*
X201731428Y-87780761D01*
X201826666Y-87685523D01*
X201874285Y-87590285D01*
X201921904Y-87399809D01*
X201921904Y-87256952D01*
X201874285Y-87066476D01*
X201826666Y-86971238D01*
X201731428Y-86876000D01*
X201588571Y-86828380D01*
X201493333Y-86828380D01*
X201350476Y-86876000D01*
X201302857Y-86923619D01*
X200445714Y-87161714D02*
X200445714Y-87828380D01*
X200683809Y-86780761D02*
X200921904Y-87495047D01*
X200302857Y-87495047D01*
X199493333Y-86828380D02*
X199683809Y-86828380D01*
X199779047Y-86876000D01*
X199826666Y-86923619D01*
X199921904Y-87066476D01*
X199969523Y-87256952D01*
X199969523Y-87637904D01*
X199921904Y-87733142D01*
X199874285Y-87780761D01*
X199779047Y-87828380D01*
X199588571Y-87828380D01*
X199493333Y-87780761D01*
X199445714Y-87733142D01*
X199398095Y-87637904D01*
X199398095Y-87399809D01*
X199445714Y-87304571D01*
X199493333Y-87256952D01*
X199588571Y-87209333D01*
X199779047Y-87209333D01*
X199874285Y-87256952D01*
X199921904Y-87304571D01*
X199969523Y-87399809D01*
X204717857Y-87733142D02*
X204765476Y-87780761D01*
X204908333Y-87828380D01*
X205003571Y-87828380D01*
X205146428Y-87780761D01*
X205241666Y-87685523D01*
X205289285Y-87590285D01*
X205336904Y-87399809D01*
X205336904Y-87256952D01*
X205289285Y-87066476D01*
X205241666Y-86971238D01*
X205146428Y-86876000D01*
X205003571Y-86828380D01*
X204908333Y-86828380D01*
X204765476Y-86876000D01*
X204717857Y-86923619D01*
X203860714Y-87161714D02*
X203860714Y-87828380D01*
X204098809Y-86780761D02*
X204336904Y-87495047D01*
X203717857Y-87495047D01*
X202860714Y-86828380D02*
X203336904Y-86828380D01*
X203384523Y-87304571D01*
X203336904Y-87256952D01*
X203241666Y-87209333D01*
X203003571Y-87209333D01*
X202908333Y-87256952D01*
X202860714Y-87304571D01*
X202813095Y-87399809D01*
X202813095Y-87637904D01*
X202860714Y-87733142D01*
X202908333Y-87780761D01*
X203003571Y-87828380D01*
X203241666Y-87828380D01*
X203336904Y-87780761D01*
X203384523Y-87733142D01*
X187920380Y-114839904D02*
X188729904Y-114839904D01*
X188825142Y-114887523D01*
X188872761Y-114935142D01*
X188920380Y-115030380D01*
X188920380Y-115220857D01*
X188872761Y-115316095D01*
X188825142Y-115363714D01*
X188729904Y-115411333D01*
X187920380Y-115411333D01*
X188920380Y-116411333D02*
X188920380Y-115839904D01*
X188920380Y-116125619D02*
X187920380Y-116125619D01*
X188063238Y-116030380D01*
X188158476Y-115935142D01*
X188206095Y-115839904D01*
X187920380Y-117268476D02*
X187920380Y-117078000D01*
X187968000Y-116982761D01*
X188015619Y-116935142D01*
X188158476Y-116839904D01*
X188348952Y-116792285D01*
X188729904Y-116792285D01*
X188825142Y-116839904D01*
X188872761Y-116887523D01*
X188920380Y-116982761D01*
X188920380Y-117173238D01*
X188872761Y-117268476D01*
X188825142Y-117316095D01*
X188729904Y-117363714D01*
X188491809Y-117363714D01*
X188396571Y-117316095D01*
X188348952Y-117268476D01*
X188301333Y-117173238D01*
X188301333Y-116982761D01*
X188348952Y-116887523D01*
X188396571Y-116839904D01*
X188491809Y-116792285D01*
X174212095Y-116038380D02*
X174212095Y-116847904D01*
X174164476Y-116943142D01*
X174116857Y-116990761D01*
X174021619Y-117038380D01*
X173831142Y-117038380D01*
X173735904Y-116990761D01*
X173688285Y-116943142D01*
X173640666Y-116847904D01*
X173640666Y-116038380D01*
X172640666Y-117038380D02*
X173212095Y-117038380D01*
X172926380Y-117038380D02*
X172926380Y-116038380D01*
X173021619Y-116181238D01*
X173116857Y-116276476D01*
X173212095Y-116324095D01*
X171735904Y-116038380D02*
X172212095Y-116038380D01*
X172259714Y-116514571D01*
X172212095Y-116466952D01*
X172116857Y-116419333D01*
X171878761Y-116419333D01*
X171783523Y-116466952D01*
X171735904Y-116514571D01*
X171688285Y-116609809D01*
X171688285Y-116847904D01*
X171735904Y-116943142D01*
X171783523Y-116990761D01*
X171878761Y-117038380D01*
X172116857Y-117038380D01*
X172212095Y-116990761D01*
X172259714Y-116943142D01*
X159226095Y-115276380D02*
X159226095Y-116085904D01*
X159178476Y-116181142D01*
X159130857Y-116228761D01*
X159035619Y-116276380D01*
X158845142Y-116276380D01*
X158749904Y-116228761D01*
X158702285Y-116181142D01*
X158654666Y-116085904D01*
X158654666Y-115276380D01*
X157654666Y-116276380D02*
X158226095Y-116276380D01*
X157940380Y-116276380D02*
X157940380Y-115276380D01*
X158035619Y-115419238D01*
X158130857Y-115514476D01*
X158226095Y-115562095D01*
X156797523Y-115609714D02*
X156797523Y-116276380D01*
X157035619Y-115228761D02*
X157273714Y-115943047D01*
X156654666Y-115943047D01*
X202318857Y-115260380D02*
X202652190Y-114784190D01*
X202890285Y-115260380D02*
X202890285Y-114260380D01*
X202509333Y-114260380D01*
X202414095Y-114308000D01*
X202366476Y-114355619D01*
X202318857Y-114450857D01*
X202318857Y-114593714D01*
X202366476Y-114688952D01*
X202414095Y-114736571D01*
X202509333Y-114784190D01*
X202890285Y-114784190D01*
X201985523Y-114260380D02*
X201318857Y-114260380D01*
X201747428Y-115260380D01*
X201033142Y-114260380D02*
X200366476Y-114260380D01*
X200795047Y-115260380D01*
X191358757Y-112839780D02*
X191692090Y-112363590D01*
X191930185Y-112839780D02*
X191930185Y-111839780D01*
X191549233Y-111839780D01*
X191453995Y-111887400D01*
X191406376Y-111935019D01*
X191358757Y-112030257D01*
X191358757Y-112173114D01*
X191406376Y-112268352D01*
X191453995Y-112315971D01*
X191549233Y-112363590D01*
X191930185Y-112363590D01*
X191025423Y-111839780D02*
X190358757Y-111839780D01*
X190787328Y-112839780D01*
X189549233Y-111839780D02*
X189739709Y-111839780D01*
X189834947Y-111887400D01*
X189882566Y-111935019D01*
X189977804Y-112077876D01*
X190025423Y-112268352D01*
X190025423Y-112649304D01*
X189977804Y-112744542D01*
X189930185Y-112792161D01*
X189834947Y-112839780D01*
X189644471Y-112839780D01*
X189549233Y-112792161D01*
X189501614Y-112744542D01*
X189453995Y-112649304D01*
X189453995Y-112411209D01*
X189501614Y-112315971D01*
X189549233Y-112268352D01*
X189644471Y-112220733D01*
X189834947Y-112220733D01*
X189930185Y-112268352D01*
X189977804Y-112315971D01*
X190025423Y-112411209D01*
X202318857Y-121102380D02*
X202652190Y-120626190D01*
X202890285Y-121102380D02*
X202890285Y-120102380D01*
X202509333Y-120102380D01*
X202414095Y-120150000D01*
X202366476Y-120197619D01*
X202318857Y-120292857D01*
X202318857Y-120435714D01*
X202366476Y-120530952D01*
X202414095Y-120578571D01*
X202509333Y-120626190D01*
X202890285Y-120626190D01*
X201985523Y-120102380D02*
X201318857Y-120102380D01*
X201747428Y-121102380D01*
X200461714Y-120102380D02*
X200937904Y-120102380D01*
X200985523Y-120578571D01*
X200937904Y-120530952D01*
X200842666Y-120483333D01*
X200604571Y-120483333D01*
X200509333Y-120530952D01*
X200461714Y-120578571D01*
X200414095Y-120673809D01*
X200414095Y-120911904D01*
X200461714Y-121007142D01*
X200509333Y-121054761D01*
X200604571Y-121102380D01*
X200842666Y-121102380D01*
X200937904Y-121054761D01*
X200985523Y-121007142D01*
X189110857Y-124404380D02*
X189444190Y-123928190D01*
X189682285Y-124404380D02*
X189682285Y-123404380D01*
X189301333Y-123404380D01*
X189206095Y-123452000D01*
X189158476Y-123499619D01*
X189110857Y-123594857D01*
X189110857Y-123737714D01*
X189158476Y-123832952D01*
X189206095Y-123880571D01*
X189301333Y-123928190D01*
X189682285Y-123928190D01*
X188777523Y-123404380D02*
X188110857Y-123404380D01*
X188539428Y-124404380D01*
X187301333Y-123737714D02*
X187301333Y-124404380D01*
X187539428Y-123356761D02*
X187777523Y-124071047D01*
X187158476Y-124071047D01*
X188094857Y-122372380D02*
X188428190Y-121896190D01*
X188666285Y-122372380D02*
X188666285Y-121372380D01*
X188285333Y-121372380D01*
X188190095Y-121420000D01*
X188142476Y-121467619D01*
X188094857Y-121562857D01*
X188094857Y-121705714D01*
X188142476Y-121800952D01*
X188190095Y-121848571D01*
X188285333Y-121896190D01*
X188666285Y-121896190D01*
X187761523Y-121372380D02*
X187094857Y-121372380D01*
X187523428Y-122372380D01*
X186809142Y-121372380D02*
X186190095Y-121372380D01*
X186523428Y-121753333D01*
X186380571Y-121753333D01*
X186285333Y-121800952D01*
X186237714Y-121848571D01*
X186190095Y-121943809D01*
X186190095Y-122181904D01*
X186237714Y-122277142D01*
X186285333Y-122324761D01*
X186380571Y-122372380D01*
X186666285Y-122372380D01*
X186761523Y-122324761D01*
X186809142Y-122277142D01*
X192920857Y-128214380D02*
X193254190Y-127738190D01*
X193492285Y-128214380D02*
X193492285Y-127214380D01*
X193111333Y-127214380D01*
X193016095Y-127262000D01*
X192968476Y-127309619D01*
X192920857Y-127404857D01*
X192920857Y-127547714D01*
X192968476Y-127642952D01*
X193016095Y-127690571D01*
X193111333Y-127738190D01*
X193492285Y-127738190D01*
X192587523Y-127214380D02*
X191920857Y-127214380D01*
X192349428Y-128214380D01*
X191587523Y-127309619D02*
X191539904Y-127262000D01*
X191444666Y-127214380D01*
X191206571Y-127214380D01*
X191111333Y-127262000D01*
X191063714Y-127309619D01*
X191016095Y-127404857D01*
X191016095Y-127500095D01*
X191063714Y-127642952D01*
X191635142Y-128214380D01*
X191016095Y-128214380D01*
X199524857Y-112720380D02*
X199858190Y-112244190D01*
X200096285Y-112720380D02*
X200096285Y-111720380D01*
X199715333Y-111720380D01*
X199620095Y-111768000D01*
X199572476Y-111815619D01*
X199524857Y-111910857D01*
X199524857Y-112053714D01*
X199572476Y-112148952D01*
X199620095Y-112196571D01*
X199715333Y-112244190D01*
X200096285Y-112244190D01*
X199191523Y-111720380D02*
X198524857Y-111720380D01*
X198953428Y-112720380D01*
X197620095Y-112720380D02*
X198191523Y-112720380D01*
X197905809Y-112720380D02*
X197905809Y-111720380D01*
X198001047Y-111863238D01*
X198096285Y-111958476D01*
X198191523Y-112006095D01*
X200032857Y-125928380D02*
X200366190Y-125452190D01*
X200604285Y-125928380D02*
X200604285Y-124928380D01*
X200223333Y-124928380D01*
X200128095Y-124976000D01*
X200080476Y-125023619D01*
X200032857Y-125118857D01*
X200032857Y-125261714D01*
X200080476Y-125356952D01*
X200128095Y-125404571D01*
X200223333Y-125452190D01*
X200604285Y-125452190D01*
X199699523Y-124928380D02*
X199032857Y-124928380D01*
X199461428Y-125928380D01*
X198461428Y-124928380D02*
X198366190Y-124928380D01*
X198270952Y-124976000D01*
X198223333Y-125023619D01*
X198175714Y-125118857D01*
X198128095Y-125309333D01*
X198128095Y-125547428D01*
X198175714Y-125737904D01*
X198223333Y-125833142D01*
X198270952Y-125880761D01*
X198366190Y-125928380D01*
X198461428Y-125928380D01*
X198556666Y-125880761D01*
X198604285Y-125833142D01*
X198651904Y-125737904D01*
X198699523Y-125547428D01*
X198699523Y-125309333D01*
X198651904Y-125118857D01*
X198604285Y-125023619D01*
X198556666Y-124976000D01*
X198461428Y-124928380D01*
X187586857Y-114244380D02*
X187920190Y-113768190D01*
X188158285Y-114244380D02*
X188158285Y-113244380D01*
X187777333Y-113244380D01*
X187682095Y-113292000D01*
X187634476Y-113339619D01*
X187586857Y-113434857D01*
X187586857Y-113577714D01*
X187634476Y-113672952D01*
X187682095Y-113720571D01*
X187777333Y-113768190D01*
X188158285Y-113768190D01*
X186729714Y-113244380D02*
X186920190Y-113244380D01*
X187015428Y-113292000D01*
X187063047Y-113339619D01*
X187158285Y-113482476D01*
X187205904Y-113672952D01*
X187205904Y-114053904D01*
X187158285Y-114149142D01*
X187110666Y-114196761D01*
X187015428Y-114244380D01*
X186824952Y-114244380D01*
X186729714Y-114196761D01*
X186682095Y-114149142D01*
X186634476Y-114053904D01*
X186634476Y-113815809D01*
X186682095Y-113720571D01*
X186729714Y-113672952D01*
X186824952Y-113625333D01*
X187015428Y-113625333D01*
X187110666Y-113672952D01*
X187158285Y-113720571D01*
X187205904Y-113815809D01*
X186158285Y-114244380D02*
X185967809Y-114244380D01*
X185872571Y-114196761D01*
X185824952Y-114149142D01*
X185729714Y-114006285D01*
X185682095Y-113815809D01*
X185682095Y-113434857D01*
X185729714Y-113339619D01*
X185777333Y-113292000D01*
X185872571Y-113244380D01*
X186063047Y-113244380D01*
X186158285Y-113292000D01*
X186205904Y-113339619D01*
X186253523Y-113434857D01*
X186253523Y-113672952D01*
X186205904Y-113768190D01*
X186158285Y-113815809D01*
X186063047Y-113863428D01*
X185872571Y-113863428D01*
X185777333Y-113815809D01*
X185729714Y-113768190D01*
X185682095Y-113672952D01*
X176423557Y-112230180D02*
X176756890Y-111753990D01*
X176994985Y-112230180D02*
X176994985Y-111230180D01*
X176614033Y-111230180D01*
X176518795Y-111277800D01*
X176471176Y-111325419D01*
X176423557Y-111420657D01*
X176423557Y-111563514D01*
X176471176Y-111658752D01*
X176518795Y-111706371D01*
X176614033Y-111753990D01*
X176994985Y-111753990D01*
X175566414Y-111230180D02*
X175756890Y-111230180D01*
X175852128Y-111277800D01*
X175899747Y-111325419D01*
X175994985Y-111468276D01*
X176042604Y-111658752D01*
X176042604Y-112039704D01*
X175994985Y-112134942D01*
X175947366Y-112182561D01*
X175852128Y-112230180D01*
X175661652Y-112230180D01*
X175566414Y-112182561D01*
X175518795Y-112134942D01*
X175471176Y-112039704D01*
X175471176Y-111801609D01*
X175518795Y-111706371D01*
X175566414Y-111658752D01*
X175661652Y-111611133D01*
X175852128Y-111611133D01*
X175947366Y-111658752D01*
X175994985Y-111706371D01*
X176042604Y-111801609D01*
X174899747Y-111658752D02*
X174994985Y-111611133D01*
X175042604Y-111563514D01*
X175090223Y-111468276D01*
X175090223Y-111420657D01*
X175042604Y-111325419D01*
X174994985Y-111277800D01*
X174899747Y-111230180D01*
X174709271Y-111230180D01*
X174614033Y-111277800D01*
X174566414Y-111325419D01*
X174518795Y-111420657D01*
X174518795Y-111468276D01*
X174566414Y-111563514D01*
X174614033Y-111611133D01*
X174709271Y-111658752D01*
X174899747Y-111658752D01*
X174994985Y-111706371D01*
X175042604Y-111753990D01*
X175090223Y-111849228D01*
X175090223Y-112039704D01*
X175042604Y-112134942D01*
X174994985Y-112182561D01*
X174899747Y-112230180D01*
X174709271Y-112230180D01*
X174614033Y-112182561D01*
X174566414Y-112134942D01*
X174518795Y-112039704D01*
X174518795Y-111849228D01*
X174566414Y-111753990D01*
X174614033Y-111706371D01*
X174709271Y-111658752D01*
X187142380Y-117975142D02*
X186666190Y-117641809D01*
X187142380Y-117403714D02*
X186142380Y-117403714D01*
X186142380Y-117784666D01*
X186190000Y-117879904D01*
X186237619Y-117927523D01*
X186332857Y-117975142D01*
X186475714Y-117975142D01*
X186570952Y-117927523D01*
X186618571Y-117879904D01*
X186666190Y-117784666D01*
X186666190Y-117403714D01*
X186142380Y-118832285D02*
X186142380Y-118641809D01*
X186190000Y-118546571D01*
X186237619Y-118498952D01*
X186380476Y-118403714D01*
X186570952Y-118356095D01*
X186951904Y-118356095D01*
X187047142Y-118403714D01*
X187094761Y-118451333D01*
X187142380Y-118546571D01*
X187142380Y-118737047D01*
X187094761Y-118832285D01*
X187047142Y-118879904D01*
X186951904Y-118927523D01*
X186713809Y-118927523D01*
X186618571Y-118879904D01*
X186570952Y-118832285D01*
X186523333Y-118737047D01*
X186523333Y-118546571D01*
X186570952Y-118451333D01*
X186618571Y-118403714D01*
X186713809Y-118356095D01*
X186142380Y-119260857D02*
X186142380Y-119927523D01*
X187142380Y-119498952D01*
X174124857Y-125928380D02*
X174458190Y-125452190D01*
X174696285Y-125928380D02*
X174696285Y-124928380D01*
X174315333Y-124928380D01*
X174220095Y-124976000D01*
X174172476Y-125023619D01*
X174124857Y-125118857D01*
X174124857Y-125261714D01*
X174172476Y-125356952D01*
X174220095Y-125404571D01*
X174315333Y-125452190D01*
X174696285Y-125452190D01*
X173267714Y-124928380D02*
X173458190Y-124928380D01*
X173553428Y-124976000D01*
X173601047Y-125023619D01*
X173696285Y-125166476D01*
X173743904Y-125356952D01*
X173743904Y-125737904D01*
X173696285Y-125833142D01*
X173648666Y-125880761D01*
X173553428Y-125928380D01*
X173362952Y-125928380D01*
X173267714Y-125880761D01*
X173220095Y-125833142D01*
X173172476Y-125737904D01*
X173172476Y-125499809D01*
X173220095Y-125404571D01*
X173267714Y-125356952D01*
X173362952Y-125309333D01*
X173553428Y-125309333D01*
X173648666Y-125356952D01*
X173696285Y-125404571D01*
X173743904Y-125499809D01*
X172315333Y-124928380D02*
X172505809Y-124928380D01*
X172601047Y-124976000D01*
X172648666Y-125023619D01*
X172743904Y-125166476D01*
X172791523Y-125356952D01*
X172791523Y-125737904D01*
X172743904Y-125833142D01*
X172696285Y-125880761D01*
X172601047Y-125928380D01*
X172410571Y-125928380D01*
X172315333Y-125880761D01*
X172267714Y-125833142D01*
X172220095Y-125737904D01*
X172220095Y-125499809D01*
X172267714Y-125404571D01*
X172315333Y-125356952D01*
X172410571Y-125309333D01*
X172601047Y-125309333D01*
X172696285Y-125356952D01*
X172743904Y-125404571D01*
X172791523Y-125499809D01*
X173426380Y-121531142D02*
X172950190Y-121197809D01*
X173426380Y-120959714D02*
X172426380Y-120959714D01*
X172426380Y-121340666D01*
X172474000Y-121435904D01*
X172521619Y-121483523D01*
X172616857Y-121531142D01*
X172759714Y-121531142D01*
X172854952Y-121483523D01*
X172902571Y-121435904D01*
X172950190Y-121340666D01*
X172950190Y-120959714D01*
X172426380Y-122388285D02*
X172426380Y-122197809D01*
X172474000Y-122102571D01*
X172521619Y-122054952D01*
X172664476Y-121959714D01*
X172854952Y-121912095D01*
X173235904Y-121912095D01*
X173331142Y-121959714D01*
X173378761Y-122007333D01*
X173426380Y-122102571D01*
X173426380Y-122293047D01*
X173378761Y-122388285D01*
X173331142Y-122435904D01*
X173235904Y-122483523D01*
X172997809Y-122483523D01*
X172902571Y-122435904D01*
X172854952Y-122388285D01*
X172807333Y-122293047D01*
X172807333Y-122102571D01*
X172854952Y-122007333D01*
X172902571Y-121959714D01*
X172997809Y-121912095D01*
X172426380Y-123388285D02*
X172426380Y-122912095D01*
X172902571Y-122864476D01*
X172854952Y-122912095D01*
X172807333Y-123007333D01*
X172807333Y-123245428D01*
X172854952Y-123340666D01*
X172902571Y-123388285D01*
X172997809Y-123435904D01*
X173235904Y-123435904D01*
X173331142Y-123388285D01*
X173378761Y-123340666D01*
X173426380Y-123245428D01*
X173426380Y-123007333D01*
X173378761Y-122912095D01*
X173331142Y-122864476D01*
X178442857Y-128722380D02*
X178776190Y-128246190D01*
X179014285Y-128722380D02*
X179014285Y-127722380D01*
X178633333Y-127722380D01*
X178538095Y-127770000D01*
X178490476Y-127817619D01*
X178442857Y-127912857D01*
X178442857Y-128055714D01*
X178490476Y-128150952D01*
X178538095Y-128198571D01*
X178633333Y-128246190D01*
X179014285Y-128246190D01*
X177585714Y-127722380D02*
X177776190Y-127722380D01*
X177871428Y-127770000D01*
X177919047Y-127817619D01*
X178014285Y-127960476D01*
X178061904Y-128150952D01*
X178061904Y-128531904D01*
X178014285Y-128627142D01*
X177966666Y-128674761D01*
X177871428Y-128722380D01*
X177680952Y-128722380D01*
X177585714Y-128674761D01*
X177538095Y-128627142D01*
X177490476Y-128531904D01*
X177490476Y-128293809D01*
X177538095Y-128198571D01*
X177585714Y-128150952D01*
X177680952Y-128103333D01*
X177871428Y-128103333D01*
X177966666Y-128150952D01*
X178014285Y-128198571D01*
X178061904Y-128293809D01*
X176633333Y-128055714D02*
X176633333Y-128722380D01*
X176871428Y-127674761D02*
X177109523Y-128389047D01*
X176490476Y-128389047D01*
X181808380Y-109085142D02*
X181332190Y-108751809D01*
X181808380Y-108513714D02*
X180808380Y-108513714D01*
X180808380Y-108894666D01*
X180856000Y-108989904D01*
X180903619Y-109037523D01*
X180998857Y-109085142D01*
X181141714Y-109085142D01*
X181236952Y-109037523D01*
X181284571Y-108989904D01*
X181332190Y-108894666D01*
X181332190Y-108513714D01*
X180808380Y-109942285D02*
X180808380Y-109751809D01*
X180856000Y-109656571D01*
X180903619Y-109608952D01*
X181046476Y-109513714D01*
X181236952Y-109466095D01*
X181617904Y-109466095D01*
X181713142Y-109513714D01*
X181760761Y-109561333D01*
X181808380Y-109656571D01*
X181808380Y-109847047D01*
X181760761Y-109942285D01*
X181713142Y-109989904D01*
X181617904Y-110037523D01*
X181379809Y-110037523D01*
X181284571Y-109989904D01*
X181236952Y-109942285D01*
X181189333Y-109847047D01*
X181189333Y-109656571D01*
X181236952Y-109561333D01*
X181284571Y-109513714D01*
X181379809Y-109466095D01*
X180808380Y-110370857D02*
X180808380Y-110989904D01*
X181189333Y-110656571D01*
X181189333Y-110799428D01*
X181236952Y-110894666D01*
X181284571Y-110942285D01*
X181379809Y-110989904D01*
X181617904Y-110989904D01*
X181713142Y-110942285D01*
X181760761Y-110894666D01*
X181808380Y-110799428D01*
X181808380Y-110513714D01*
X181760761Y-110418476D01*
X181713142Y-110370857D01*
X186062857Y-125420380D02*
X186396190Y-124944190D01*
X186634285Y-125420380D02*
X186634285Y-124420380D01*
X186253333Y-124420380D01*
X186158095Y-124468000D01*
X186110476Y-124515619D01*
X186062857Y-124610857D01*
X186062857Y-124753714D01*
X186110476Y-124848952D01*
X186158095Y-124896571D01*
X186253333Y-124944190D01*
X186634285Y-124944190D01*
X185205714Y-124420380D02*
X185396190Y-124420380D01*
X185491428Y-124468000D01*
X185539047Y-124515619D01*
X185634285Y-124658476D01*
X185681904Y-124848952D01*
X185681904Y-125229904D01*
X185634285Y-125325142D01*
X185586666Y-125372761D01*
X185491428Y-125420380D01*
X185300952Y-125420380D01*
X185205714Y-125372761D01*
X185158095Y-125325142D01*
X185110476Y-125229904D01*
X185110476Y-124991809D01*
X185158095Y-124896571D01*
X185205714Y-124848952D01*
X185300952Y-124801333D01*
X185491428Y-124801333D01*
X185586666Y-124848952D01*
X185634285Y-124896571D01*
X185681904Y-124991809D01*
X184729523Y-124515619D02*
X184681904Y-124468000D01*
X184586666Y-124420380D01*
X184348571Y-124420380D01*
X184253333Y-124468000D01*
X184205714Y-124515619D01*
X184158095Y-124610857D01*
X184158095Y-124706095D01*
X184205714Y-124848952D01*
X184777142Y-125420380D01*
X184158095Y-125420380D01*
X172346857Y-115514380D02*
X172680190Y-115038190D01*
X172918285Y-115514380D02*
X172918285Y-114514380D01*
X172537333Y-114514380D01*
X172442095Y-114562000D01*
X172394476Y-114609619D01*
X172346857Y-114704857D01*
X172346857Y-114847714D01*
X172394476Y-114942952D01*
X172442095Y-114990571D01*
X172537333Y-115038190D01*
X172918285Y-115038190D01*
X171489714Y-114514380D02*
X171680190Y-114514380D01*
X171775428Y-114562000D01*
X171823047Y-114609619D01*
X171918285Y-114752476D01*
X171965904Y-114942952D01*
X171965904Y-115323904D01*
X171918285Y-115419142D01*
X171870666Y-115466761D01*
X171775428Y-115514380D01*
X171584952Y-115514380D01*
X171489714Y-115466761D01*
X171442095Y-115419142D01*
X171394476Y-115323904D01*
X171394476Y-115085809D01*
X171442095Y-114990571D01*
X171489714Y-114942952D01*
X171584952Y-114895333D01*
X171775428Y-114895333D01*
X171870666Y-114942952D01*
X171918285Y-114990571D01*
X171965904Y-115085809D01*
X170442095Y-115514380D02*
X171013523Y-115514380D01*
X170727809Y-115514380D02*
X170727809Y-114514380D01*
X170823047Y-114657238D01*
X170918285Y-114752476D01*
X171013523Y-114800095D01*
X158376857Y-113990380D02*
X158710190Y-113514190D01*
X158948285Y-113990380D02*
X158948285Y-112990380D01*
X158567333Y-112990380D01*
X158472095Y-113038000D01*
X158424476Y-113085619D01*
X158376857Y-113180857D01*
X158376857Y-113323714D01*
X158424476Y-113418952D01*
X158472095Y-113466571D01*
X158567333Y-113514190D01*
X158948285Y-113514190D01*
X157519714Y-112990380D02*
X157710190Y-112990380D01*
X157805428Y-113038000D01*
X157853047Y-113085619D01*
X157948285Y-113228476D01*
X157995904Y-113418952D01*
X157995904Y-113799904D01*
X157948285Y-113895142D01*
X157900666Y-113942761D01*
X157805428Y-113990380D01*
X157614952Y-113990380D01*
X157519714Y-113942761D01*
X157472095Y-113895142D01*
X157424476Y-113799904D01*
X157424476Y-113561809D01*
X157472095Y-113466571D01*
X157519714Y-113418952D01*
X157614952Y-113371333D01*
X157805428Y-113371333D01*
X157900666Y-113418952D01*
X157948285Y-113466571D01*
X157995904Y-113561809D01*
X156805428Y-112990380D02*
X156710190Y-112990380D01*
X156614952Y-113038000D01*
X156567333Y-113085619D01*
X156519714Y-113180857D01*
X156472095Y-113371333D01*
X156472095Y-113609428D01*
X156519714Y-113799904D01*
X156567333Y-113895142D01*
X156614952Y-113942761D01*
X156710190Y-113990380D01*
X156805428Y-113990380D01*
X156900666Y-113942761D01*
X156948285Y-113895142D01*
X156995904Y-113799904D01*
X157043523Y-113609428D01*
X157043523Y-113371333D01*
X156995904Y-113180857D01*
X156948285Y-113085619D01*
X156900666Y-113038000D01*
X156805428Y-112990380D01*
X171648380Y-117975142D02*
X171172190Y-117641809D01*
X171648380Y-117403714D02*
X170648380Y-117403714D01*
X170648380Y-117784666D01*
X170696000Y-117879904D01*
X170743619Y-117927523D01*
X170838857Y-117975142D01*
X170981714Y-117975142D01*
X171076952Y-117927523D01*
X171124571Y-117879904D01*
X171172190Y-117784666D01*
X171172190Y-117403714D01*
X170648380Y-118879904D02*
X170648380Y-118403714D01*
X171124571Y-118356095D01*
X171076952Y-118403714D01*
X171029333Y-118498952D01*
X171029333Y-118737047D01*
X171076952Y-118832285D01*
X171124571Y-118879904D01*
X171219809Y-118927523D01*
X171457904Y-118927523D01*
X171553142Y-118879904D01*
X171600761Y-118832285D01*
X171648380Y-118737047D01*
X171648380Y-118498952D01*
X171600761Y-118403714D01*
X171553142Y-118356095D01*
X171648380Y-119403714D02*
X171648380Y-119594190D01*
X171600761Y-119689428D01*
X171553142Y-119737047D01*
X171410285Y-119832285D01*
X171219809Y-119879904D01*
X170838857Y-119879904D01*
X170743619Y-119832285D01*
X170696000Y-119784666D01*
X170648380Y-119689428D01*
X170648380Y-119498952D01*
X170696000Y-119403714D01*
X170743619Y-119356095D01*
X170838857Y-119308476D01*
X171076952Y-119308476D01*
X171172190Y-119356095D01*
X171219809Y-119403714D01*
X171267428Y-119498952D01*
X171267428Y-119689428D01*
X171219809Y-119784666D01*
X171172190Y-119832285D01*
X171076952Y-119879904D01*
X159138857Y-124912380D02*
X159472190Y-124436190D01*
X159710285Y-124912380D02*
X159710285Y-123912380D01*
X159329333Y-123912380D01*
X159234095Y-123960000D01*
X159186476Y-124007619D01*
X159138857Y-124102857D01*
X159138857Y-124245714D01*
X159186476Y-124340952D01*
X159234095Y-124388571D01*
X159329333Y-124436190D01*
X159710285Y-124436190D01*
X158234095Y-123912380D02*
X158710285Y-123912380D01*
X158757904Y-124388571D01*
X158710285Y-124340952D01*
X158615047Y-124293333D01*
X158376952Y-124293333D01*
X158281714Y-124340952D01*
X158234095Y-124388571D01*
X158186476Y-124483809D01*
X158186476Y-124721904D01*
X158234095Y-124817142D01*
X158281714Y-124864761D01*
X158376952Y-124912380D01*
X158615047Y-124912380D01*
X158710285Y-124864761D01*
X158757904Y-124817142D01*
X157615047Y-124340952D02*
X157710285Y-124293333D01*
X157757904Y-124245714D01*
X157805523Y-124150476D01*
X157805523Y-124102857D01*
X157757904Y-124007619D01*
X157710285Y-123960000D01*
X157615047Y-123912380D01*
X157424571Y-123912380D01*
X157329333Y-123960000D01*
X157281714Y-124007619D01*
X157234095Y-124102857D01*
X157234095Y-124150476D01*
X157281714Y-124245714D01*
X157329333Y-124293333D01*
X157424571Y-124340952D01*
X157615047Y-124340952D01*
X157710285Y-124388571D01*
X157757904Y-124436190D01*
X157805523Y-124531428D01*
X157805523Y-124721904D01*
X157757904Y-124817142D01*
X157710285Y-124864761D01*
X157615047Y-124912380D01*
X157424571Y-124912380D01*
X157329333Y-124864761D01*
X157281714Y-124817142D01*
X157234095Y-124721904D01*
X157234095Y-124531428D01*
X157281714Y-124436190D01*
X157329333Y-124388571D01*
X157424571Y-124340952D01*
X156344857Y-119425980D02*
X156678190Y-118949790D01*
X156916285Y-119425980D02*
X156916285Y-118425980D01*
X156535333Y-118425980D01*
X156440095Y-118473600D01*
X156392476Y-118521219D01*
X156344857Y-118616457D01*
X156344857Y-118759314D01*
X156392476Y-118854552D01*
X156440095Y-118902171D01*
X156535333Y-118949790D01*
X156916285Y-118949790D01*
X155440095Y-118425980D02*
X155916285Y-118425980D01*
X155963904Y-118902171D01*
X155916285Y-118854552D01*
X155821047Y-118806933D01*
X155582952Y-118806933D01*
X155487714Y-118854552D01*
X155440095Y-118902171D01*
X155392476Y-118997409D01*
X155392476Y-119235504D01*
X155440095Y-119330742D01*
X155487714Y-119378361D01*
X155582952Y-119425980D01*
X155821047Y-119425980D01*
X155916285Y-119378361D01*
X155963904Y-119330742D01*
X155059142Y-118425980D02*
X154392476Y-118425980D01*
X154821047Y-119425980D01*
X163456857Y-128722380D02*
X163790190Y-128246190D01*
X164028285Y-128722380D02*
X164028285Y-127722380D01*
X163647333Y-127722380D01*
X163552095Y-127770000D01*
X163504476Y-127817619D01*
X163456857Y-127912857D01*
X163456857Y-128055714D01*
X163504476Y-128150952D01*
X163552095Y-128198571D01*
X163647333Y-128246190D01*
X164028285Y-128246190D01*
X162552095Y-127722380D02*
X163028285Y-127722380D01*
X163075904Y-128198571D01*
X163028285Y-128150952D01*
X162933047Y-128103333D01*
X162694952Y-128103333D01*
X162599714Y-128150952D01*
X162552095Y-128198571D01*
X162504476Y-128293809D01*
X162504476Y-128531904D01*
X162552095Y-128627142D01*
X162599714Y-128674761D01*
X162694952Y-128722380D01*
X162933047Y-128722380D01*
X163028285Y-128674761D01*
X163075904Y-128627142D01*
X161647333Y-127722380D02*
X161837809Y-127722380D01*
X161933047Y-127770000D01*
X161980666Y-127817619D01*
X162075904Y-127960476D01*
X162123523Y-128150952D01*
X162123523Y-128531904D01*
X162075904Y-128627142D01*
X162028285Y-128674761D01*
X161933047Y-128722380D01*
X161742571Y-128722380D01*
X161647333Y-128674761D01*
X161599714Y-128627142D01*
X161552095Y-128531904D01*
X161552095Y-128293809D01*
X161599714Y-128198571D01*
X161647333Y-128150952D01*
X161742571Y-128103333D01*
X161933047Y-128103333D01*
X162028285Y-128150952D01*
X162075904Y-128198571D01*
X162123523Y-128293809D01*
X169298857Y-112720380D02*
X169632190Y-112244190D01*
X169870285Y-112720380D02*
X169870285Y-111720380D01*
X169489333Y-111720380D01*
X169394095Y-111768000D01*
X169346476Y-111815619D01*
X169298857Y-111910857D01*
X169298857Y-112053714D01*
X169346476Y-112148952D01*
X169394095Y-112196571D01*
X169489333Y-112244190D01*
X169870285Y-112244190D01*
X168394095Y-111720380D02*
X168870285Y-111720380D01*
X168917904Y-112196571D01*
X168870285Y-112148952D01*
X168775047Y-112101333D01*
X168536952Y-112101333D01*
X168441714Y-112148952D01*
X168394095Y-112196571D01*
X168346476Y-112291809D01*
X168346476Y-112529904D01*
X168394095Y-112625142D01*
X168441714Y-112672761D01*
X168536952Y-112720380D01*
X168775047Y-112720380D01*
X168870285Y-112672761D01*
X168917904Y-112625142D01*
X167441714Y-111720380D02*
X167917904Y-111720380D01*
X167965523Y-112196571D01*
X167917904Y-112148952D01*
X167822666Y-112101333D01*
X167584571Y-112101333D01*
X167489333Y-112148952D01*
X167441714Y-112196571D01*
X167394095Y-112291809D01*
X167394095Y-112529904D01*
X167441714Y-112625142D01*
X167489333Y-112672761D01*
X167584571Y-112720380D01*
X167822666Y-112720380D01*
X167917904Y-112672761D01*
X167965523Y-112625142D01*
X171648380Y-122039142D02*
X171172190Y-121705809D01*
X171648380Y-121467714D02*
X170648380Y-121467714D01*
X170648380Y-121848666D01*
X170696000Y-121943904D01*
X170743619Y-121991523D01*
X170838857Y-122039142D01*
X170981714Y-122039142D01*
X171076952Y-121991523D01*
X171124571Y-121943904D01*
X171172190Y-121848666D01*
X171172190Y-121467714D01*
X170648380Y-122943904D02*
X170648380Y-122467714D01*
X171124571Y-122420095D01*
X171076952Y-122467714D01*
X171029333Y-122562952D01*
X171029333Y-122801047D01*
X171076952Y-122896285D01*
X171124571Y-122943904D01*
X171219809Y-122991523D01*
X171457904Y-122991523D01*
X171553142Y-122943904D01*
X171600761Y-122896285D01*
X171648380Y-122801047D01*
X171648380Y-122562952D01*
X171600761Y-122467714D01*
X171553142Y-122420095D01*
X170981714Y-123848666D02*
X171648380Y-123848666D01*
X170600761Y-123610571D02*
X171315047Y-123372476D01*
X171315047Y-123991523D01*
X194444857Y-111355142D02*
X194492476Y-111402761D01*
X194635333Y-111450380D01*
X194730571Y-111450380D01*
X194873428Y-111402761D01*
X194968666Y-111307523D01*
X195016285Y-111212285D01*
X195063904Y-111021809D01*
X195063904Y-110878952D01*
X195016285Y-110688476D01*
X194968666Y-110593238D01*
X194873428Y-110498000D01*
X194730571Y-110450380D01*
X194635333Y-110450380D01*
X194492476Y-110498000D01*
X194444857Y-110545619D01*
X193587714Y-110783714D02*
X193587714Y-111450380D01*
X193825809Y-110402761D02*
X194063904Y-111117047D01*
X193444857Y-111117047D01*
X192635333Y-110783714D02*
X192635333Y-111450380D01*
X192873428Y-110402761D02*
X193111523Y-111117047D01*
X192492476Y-111117047D01*
X196984857Y-124309142D02*
X197032476Y-124356761D01*
X197175333Y-124404380D01*
X197270571Y-124404380D01*
X197413428Y-124356761D01*
X197508666Y-124261523D01*
X197556285Y-124166285D01*
X197603904Y-123975809D01*
X197603904Y-123832952D01*
X197556285Y-123642476D01*
X197508666Y-123547238D01*
X197413428Y-123452000D01*
X197270571Y-123404380D01*
X197175333Y-123404380D01*
X197032476Y-123452000D01*
X196984857Y-123499619D01*
X196127714Y-123737714D02*
X196127714Y-124404380D01*
X196365809Y-123356761D02*
X196603904Y-124071047D01*
X195984857Y-124071047D01*
X195699142Y-123404380D02*
X195080095Y-123404380D01*
X195413428Y-123785333D01*
X195270571Y-123785333D01*
X195175333Y-123832952D01*
X195127714Y-123880571D01*
X195080095Y-123975809D01*
X195080095Y-124213904D01*
X195127714Y-124309142D01*
X195175333Y-124356761D01*
X195270571Y-124404380D01*
X195556285Y-124404380D01*
X195651523Y-124356761D01*
X195699142Y-124309142D01*
X179427142Y-109085142D02*
X179474761Y-109037523D01*
X179522380Y-108894666D01*
X179522380Y-108799428D01*
X179474761Y-108656571D01*
X179379523Y-108561333D01*
X179284285Y-108513714D01*
X179093809Y-108466095D01*
X178950952Y-108466095D01*
X178760476Y-108513714D01*
X178665238Y-108561333D01*
X178570000Y-108656571D01*
X178522380Y-108799428D01*
X178522380Y-108894666D01*
X178570000Y-109037523D01*
X178617619Y-109085142D01*
X178855714Y-109942285D02*
X179522380Y-109942285D01*
X178474761Y-109704190D02*
X179189047Y-109466095D01*
X179189047Y-110085142D01*
X178617619Y-110418476D02*
X178570000Y-110466095D01*
X178522380Y-110561333D01*
X178522380Y-110799428D01*
X178570000Y-110894666D01*
X178617619Y-110942285D01*
X178712857Y-110989904D01*
X178808095Y-110989904D01*
X178950952Y-110942285D01*
X179522380Y-110370857D01*
X179522380Y-110989904D01*
X182506857Y-124817142D02*
X182554476Y-124864761D01*
X182697333Y-124912380D01*
X182792571Y-124912380D01*
X182935428Y-124864761D01*
X183030666Y-124769523D01*
X183078285Y-124674285D01*
X183125904Y-124483809D01*
X183125904Y-124340952D01*
X183078285Y-124150476D01*
X183030666Y-124055238D01*
X182935428Y-123960000D01*
X182792571Y-123912380D01*
X182697333Y-123912380D01*
X182554476Y-123960000D01*
X182506857Y-124007619D01*
X181649714Y-124245714D02*
X181649714Y-124912380D01*
X181887809Y-123864761D02*
X182125904Y-124579047D01*
X181506857Y-124579047D01*
X180602095Y-124912380D02*
X181173523Y-124912380D01*
X180887809Y-124912380D02*
X180887809Y-123912380D01*
X180983047Y-124055238D01*
X181078285Y-124150476D01*
X181173523Y-124198095D01*
X164472857Y-111101142D02*
X164520476Y-111148761D01*
X164663333Y-111196380D01*
X164758571Y-111196380D01*
X164901428Y-111148761D01*
X164996666Y-111053523D01*
X165044285Y-110958285D01*
X165091904Y-110767809D01*
X165091904Y-110624952D01*
X165044285Y-110434476D01*
X164996666Y-110339238D01*
X164901428Y-110244000D01*
X164758571Y-110196380D01*
X164663333Y-110196380D01*
X164520476Y-110244000D01*
X164472857Y-110291619D01*
X163615714Y-110529714D02*
X163615714Y-111196380D01*
X163853809Y-110148761D02*
X164091904Y-110863047D01*
X163472857Y-110863047D01*
X162901428Y-110196380D02*
X162806190Y-110196380D01*
X162710952Y-110244000D01*
X162663333Y-110291619D01*
X162615714Y-110386857D01*
X162568095Y-110577333D01*
X162568095Y-110815428D01*
X162615714Y-111005904D01*
X162663333Y-111101142D01*
X162710952Y-111148761D01*
X162806190Y-111196380D01*
X162901428Y-111196380D01*
X162996666Y-111148761D01*
X163044285Y-111101142D01*
X163091904Y-111005904D01*
X163139523Y-110815428D01*
X163139523Y-110577333D01*
X163091904Y-110386857D01*
X163044285Y-110291619D01*
X162996666Y-110244000D01*
X162901428Y-110196380D01*
X167520857Y-124817142D02*
X167568476Y-124864761D01*
X167711333Y-124912380D01*
X167806571Y-124912380D01*
X167949428Y-124864761D01*
X168044666Y-124769523D01*
X168092285Y-124674285D01*
X168139904Y-124483809D01*
X168139904Y-124340952D01*
X168092285Y-124150476D01*
X168044666Y-124055238D01*
X167949428Y-123960000D01*
X167806571Y-123912380D01*
X167711333Y-123912380D01*
X167568476Y-123960000D01*
X167520857Y-124007619D01*
X167187523Y-123912380D02*
X166568476Y-123912380D01*
X166901809Y-124293333D01*
X166758952Y-124293333D01*
X166663714Y-124340952D01*
X166616095Y-124388571D01*
X166568476Y-124483809D01*
X166568476Y-124721904D01*
X166616095Y-124817142D01*
X166663714Y-124864761D01*
X166758952Y-124912380D01*
X167044666Y-124912380D01*
X167139904Y-124864761D01*
X167187523Y-124817142D01*
X166092285Y-124912380D02*
X165901809Y-124912380D01*
X165806571Y-124864761D01*
X165758952Y-124817142D01*
X165663714Y-124674285D01*
X165616095Y-124483809D01*
X165616095Y-124102857D01*
X165663714Y-124007619D01*
X165711333Y-123960000D01*
X165806571Y-123912380D01*
X165997047Y-123912380D01*
X166092285Y-123960000D01*
X166139904Y-124007619D01*
X166187523Y-124102857D01*
X166187523Y-124340952D01*
X166139904Y-124436190D01*
X166092285Y-124483809D01*
X165997047Y-124531428D01*
X165806571Y-124531428D01*
X165711333Y-124483809D01*
X165663714Y-124436190D01*
X165616095Y-124340952D01*
X188918695Y-93749880D02*
X188918695Y-94559404D01*
X188871076Y-94654642D01*
X188823457Y-94702261D01*
X188728219Y-94749880D01*
X188537742Y-94749880D01*
X188442504Y-94702261D01*
X188394885Y-94654642D01*
X188347266Y-94559404D01*
X188347266Y-93749880D01*
X187347266Y-94749880D02*
X187918695Y-94749880D01*
X187632980Y-94749880D02*
X187632980Y-93749880D01*
X187728219Y-93892738D01*
X187823457Y-93987976D01*
X187918695Y-94035595D01*
X187013933Y-93749880D02*
X186394885Y-93749880D01*
X186728219Y-94130833D01*
X186585361Y-94130833D01*
X186490123Y-94178452D01*
X186442504Y-94226071D01*
X186394885Y-94321309D01*
X186394885Y-94559404D01*
X186442504Y-94654642D01*
X186490123Y-94702261D01*
X186585361Y-94749880D01*
X186871076Y-94749880D01*
X186966314Y-94702261D01*
X187013933Y-94654642D01*
X148724857Y-97639142D02*
X148772476Y-97686761D01*
X148915333Y-97734380D01*
X149010571Y-97734380D01*
X149153428Y-97686761D01*
X149248666Y-97591523D01*
X149296285Y-97496285D01*
X149343904Y-97305809D01*
X149343904Y-97162952D01*
X149296285Y-96972476D01*
X149248666Y-96877238D01*
X149153428Y-96782000D01*
X149010571Y-96734380D01*
X148915333Y-96734380D01*
X148772476Y-96782000D01*
X148724857Y-96829619D01*
X148391523Y-96734380D02*
X147772476Y-96734380D01*
X148105809Y-97115333D01*
X147962952Y-97115333D01*
X147867714Y-97162952D01*
X147820095Y-97210571D01*
X147772476Y-97305809D01*
X147772476Y-97543904D01*
X147820095Y-97639142D01*
X147867714Y-97686761D01*
X147962952Y-97734380D01*
X148248666Y-97734380D01*
X148343904Y-97686761D01*
X148391523Y-97639142D01*
X147439142Y-96734380D02*
X146772476Y-96734380D01*
X147201047Y-97734380D01*
X167774857Y-97385142D02*
X167822476Y-97432761D01*
X167965333Y-97480380D01*
X168060571Y-97480380D01*
X168203428Y-97432761D01*
X168298666Y-97337523D01*
X168346285Y-97242285D01*
X168393904Y-97051809D01*
X168393904Y-96908952D01*
X168346285Y-96718476D01*
X168298666Y-96623238D01*
X168203428Y-96528000D01*
X168060571Y-96480380D01*
X167965333Y-96480380D01*
X167822476Y-96528000D01*
X167774857Y-96575619D01*
X167441523Y-96480380D02*
X166822476Y-96480380D01*
X167155809Y-96861333D01*
X167012952Y-96861333D01*
X166917714Y-96908952D01*
X166870095Y-96956571D01*
X166822476Y-97051809D01*
X166822476Y-97289904D01*
X166870095Y-97385142D01*
X166917714Y-97432761D01*
X167012952Y-97480380D01*
X167298666Y-97480380D01*
X167393904Y-97432761D01*
X167441523Y-97385142D01*
X165965333Y-96813714D02*
X165965333Y-97480380D01*
X166203428Y-96432761D02*
X166441523Y-97147047D01*
X165822476Y-97147047D01*
X186316857Y-110339142D02*
X186364476Y-110386761D01*
X186507333Y-110434380D01*
X186602571Y-110434380D01*
X186745428Y-110386761D01*
X186840666Y-110291523D01*
X186888285Y-110196285D01*
X186935904Y-110005809D01*
X186935904Y-109862952D01*
X186888285Y-109672476D01*
X186840666Y-109577238D01*
X186745428Y-109482000D01*
X186602571Y-109434380D01*
X186507333Y-109434380D01*
X186364476Y-109482000D01*
X186316857Y-109529619D01*
X185364476Y-110434380D02*
X185935904Y-110434380D01*
X185650190Y-110434380D02*
X185650190Y-109434380D01*
X185745428Y-109577238D01*
X185840666Y-109672476D01*
X185935904Y-109720095D01*
X184793047Y-109862952D02*
X184888285Y-109815333D01*
X184935904Y-109767714D01*
X184983523Y-109672476D01*
X184983523Y-109624857D01*
X184935904Y-109529619D01*
X184888285Y-109482000D01*
X184793047Y-109434380D01*
X184602571Y-109434380D01*
X184507333Y-109482000D01*
X184459714Y-109529619D01*
X184412095Y-109624857D01*
X184412095Y-109672476D01*
X184459714Y-109767714D01*
X184507333Y-109815333D01*
X184602571Y-109862952D01*
X184793047Y-109862952D01*
X184888285Y-109910571D01*
X184935904Y-109958190D01*
X184983523Y-110053428D01*
X184983523Y-110243904D01*
X184935904Y-110339142D01*
X184888285Y-110386761D01*
X184793047Y-110434380D01*
X184602571Y-110434380D01*
X184507333Y-110386761D01*
X184459714Y-110339142D01*
X184412095Y-110243904D01*
X184412095Y-110053428D01*
X184459714Y-109958190D01*
X184507333Y-109910571D01*
X184602571Y-109862952D01*
X187332857Y-106021142D02*
X187380476Y-106068761D01*
X187523333Y-106116380D01*
X187618571Y-106116380D01*
X187761428Y-106068761D01*
X187856666Y-105973523D01*
X187904285Y-105878285D01*
X187951904Y-105687809D01*
X187951904Y-105544952D01*
X187904285Y-105354476D01*
X187856666Y-105259238D01*
X187761428Y-105164000D01*
X187618571Y-105116380D01*
X187523333Y-105116380D01*
X187380476Y-105164000D01*
X187332857Y-105211619D01*
X186380476Y-106116380D02*
X186951904Y-106116380D01*
X186666190Y-106116380D02*
X186666190Y-105116380D01*
X186761428Y-105259238D01*
X186856666Y-105354476D01*
X186951904Y-105402095D01*
X185999523Y-105211619D02*
X185951904Y-105164000D01*
X185856666Y-105116380D01*
X185618571Y-105116380D01*
X185523333Y-105164000D01*
X185475714Y-105211619D01*
X185428095Y-105306857D01*
X185428095Y-105402095D01*
X185475714Y-105544952D01*
X186047142Y-106116380D01*
X185428095Y-106116380D01*
M02*
